<svg width="100" height="100" viewBox="0 0 100 100" fill="none" xmlns="http://www.w3.org/2000/svg">
<path d="M47.5 14L37.3047 3.71094M52.5 14L62.6953 3.71094" stroke="black" stroke-width="0.75" stroke-linecap="round"/>
<path d="M66.6016 67.7734C66.6016 67.9688 66.6016 67.9688 66.6016 68.1641H33.5938C33.5938 67.9688 33.5938 67.9688 33.5938 67.7734C33.9844 67.3828 34.375 66.9922 34.7656 66.6016C37.5 63.8672 40.2344 60.3516 42.5781 56.8359H57.4219C59.7656 60.3516 62.5 63.8672 65.2344 66.6016C65.625 66.9922 66.0156 67.3828 66.4062 67.7734H66.6016ZM37.3047 81.25H62.3047C59.1797 88.4766 54.6875 94.1406 49.8047 94.1406C44.9219 94.1406 40.4297 88.6719 37.3047 81.25Z" fill="#FFBC4F" stroke="black" stroke-width="0.75"/>
<path d="M49.8047 13.6719C43.3594 13.6719 38.0859 18.75 38.0859 25.3906C38.0859 27.9297 38.8672 30.2734 40.2344 32.0312L49.6094 37.6953L58.9844 32.0312C60.3516 30.2734 61.1328 27.7344 61.1328 25.1953C61.1328 18.75 56.4453 13.6719 49.8047 13.6719ZM33.3984 68.3594H66.4062C65.625 72.6562 64.2578 77.1484 62.5 81.25H37.5C35.7422 77.3438 34.375 72.8516 33.5938 68.3594H33.3984ZM57.4219 56.6406H42.5781C46.875 50.1953 49.8047 43.1641 50 38.2812C50 43.1641 53.125 50.1953 57.4219 56.6406Z" fill="#6E6E6E" stroke="black" stroke-width="0.75"/>
<path d="M84.5703 47.0703C94.3359 56.8359 95.3125 66.4063 90.0391 71.875C83.0078 78.9063 72.2656 73.2422 65.2344 66.4063C58.3984 59.5703 50 46.4844 50 38.0859C50 38.0859 50 38.0859 50 37.8906C50 36.1328 50.3906 34.5703 51.5625 33.3984C53.125 31.8359 56.0547 31.6406 59.375 32.2266C66.9922 33.7891 77.5391 40.2344 84.5703 47.0703ZM49.8047 37.8906C49.8047 37.8906 49.8047 37.8906 49.8047 38.0859C49.8047 46.6797 41.2109 59.7656 34.5703 66.4063C27.5391 73.4375 16.7969 78.9063 9.76562 71.875C4.49219 66.6016 5.46875 57.0313 15.2344 47.0703C22.0703 40.2344 32.6172 33.7891 40.4297 32.2266C43.75 31.6406 46.6797 31.8359 48.2422 33.3984C49.2187 34.375 49.8047 35.9375 49.8047 37.8906Z" fill="#EDE9E8" stroke="black" stroke-width="0.75"/>
</svg>
