<svg id="vector" xmlns="http://www.w3.org/2000/svg" width="24.0d" height="24.0d" viewBox="0 0 512.0 512.0"><path fill="#d8d8d8" d="m34,501 l305,-439c11,-16 6,-38 -10,-49 -16,-10 -39,-4 -48,12l-260,467c-4,8 7,16 13,8zM34,501" stroke="#000000" stroke-width="12.0" id="path_0"/><path fill="#000000" d="m496,277 l-32,-20c-12,-8 -28,-10 -42,-7 -14,3 -27,12 -35,25l-33,53c-5,9 -15,16 -26,18 -10,2 -22,0 -31,-5 -19,-12 -25,-37 -13,-57l75,-121c16,-26 8,-61 -18,-78l-32,-20 5,-8c2,-3 1,-8 -2,-10 -3,-2 -8,-1 -10,2l-20,33c-2,3 -1,8 2,10 1,0 2,1 3,1 2,0 5,-1 6,-3l7,-12 32,20c19,12 25,37 13,57l-75,121c-16,26 -8,61 18,78 9,5 19,8 29,8 4,0 8,-0 12,-1 14,-3 27,-12 35,-25l33,-53c5,-9 15,-16 26,-18s22,-0 31,5l32,20c3,2 8,1 10,-2 2,-3 1,-8 -2,-10zM496,277" id="path_1"/><path fill="none" d="M232,30l30,20" stroke-linecap="round" stroke="#000000" stroke-width="12.0" id="path_2"/></svg>