<svg id="vector" xmlns="http://www.w3.org/2000/svg" width="24.0d" height="24.0d" viewBox="0 0 512.0 512.0"><path fill="#8bd2f5" d="M488,464c0,13 -10,24 -24,24s-24,-10 -24,-24 10,-24 24,-24 24,10 24,24zM488,336c0,17 -14,32 -32,32s-32,-14 -32,-32 14,-32 32,-32 32,14 32,32z" stroke="#000000" stroke-width="12.0" id="path_0"/><path fill="#8bd2f5" d="M56,464c0,13 -10,24 -24,24s-24,-10 -24,-24 10,-24 24,-24 24,10 24,24zM72,376c0,17 -14,32 -32,32s-32,-14 -32,-32 14,-32 32,-32 32,14 32,32z" stroke="#000000" stroke-width="12.0" id="path_1"/><path fill="#8bd2f5" d="M320,248c0,8 -7,16 -16,16s-16,-7 -16,-16 7,-16 16,-16 16,7 16,16zM328,176c0,13 -10,24 -24,24s-24,-10 -24,-24 10,-24 24,-24 24,10 24,24zM408,96c0,17 -14,32 -32,32s-32,-14 -32,-32 14,-32 32,-32 32,14 32,32z" stroke="#000000" stroke-width="12.0" id="path_2"/><path fill="#568e53" d="M112,384v-21c0,-32 -8,-65 -24,-94s-24,-61 -24,-94v-77l30,98c6,19 16,37 29,52 23,26 35,60 35,95v41M384,376v-9c0,-30 8,-60 24,-86s24,-56 24,-86v-41l-30,72c-6,15 -16,28 -28,39 -23,20 -36,49 -36,80v23" stroke="#000000" stroke-width="12.0" id="path_3"/><path fill="#7ecb92" d="m216,352v-13c0,-44 -7,-88 -21,-130 -7,-21 -10,-44 -10,-66 0,-30 6,-60 19,-87l15,-35c3,-7 10,-11 17,-11 10,0 19,8 19,19v0c0,2 -0,5 -1,7l-19,48c-7,18 -11,39 -11,59 0,27 7,53 20,77 13,23 20,50 20,76v54" stroke="#000000" stroke-width="12.0" id="path_4"/><path fill="#695b52" d="M297,474c11,11 31,13 54,13 35,0 64,-4 64,-40s-28,-88 -64,-88c-19,0 -37,16 -49,37M185,476c-9,10 -28,11 -49,11 -31,0 -56,-1 -56,-32s25,-80 56,-80c15,0 29,12 39,27" stroke="#000000" stroke-width="12.0" id="path_5"/><path fill="#857970" d="m312,440c0,-39 -32,-96 -72,-96s-72,56 -72,96 32,48 72,48 72,-8 72,-48z" stroke="#000000" stroke-width="12.0" id="path_6"/></svg>