<svg width="100" height="100" viewBox="0 0 100 100" fill="none" xmlns="http://www.w3.org/2000/svg">
<path d="M39.91 100C35.6716 97.9755 31.7614 95.326 28.31 92.14C24.7263 88.936 21.6242 85.2311 19.1 81.14C16.4602 76.8371 14.6143 72.0952 13.65 67.14C13.4107 65.865 13.257 64.5755 13.19 63.28L13 61.3C13 60.65 13 59.99 13.05 59.3L13.33 55.37L14.17 51.54L14.63 49.64L15.12 48.04L16.12 44.88C16.77 42.79 17.45 40.68 18.05 38.6C19.3308 34.5309 20.4023 30.3988 21.26 26.22C22.05 22.15 22.39 18.22 21.37 14.64C20.35 11.06 17.3 8 13.32 5.54C14.4939 5.61607 15.6625 5.75964 16.82 5.97C18.0162 6.24034 19.1796 6.63933 20.29 7.16C22.6958 8.24293 24.7525 9.97423 26.23 12.16C27.6993 14.3839 28.7185 16.8741 29.23 19.49C29.48 20.75 29.64 22.02 29.78 23.28C29.92 24.54 30 25.79 30 27C29.9151 31.772 29.3455 36.5231 28.3 41.18C27.86 43.49 27.23 45.69 26.69 47.95L25.74 51.26L25.26 52.9L24.97 54.29L24.29 57.05C24.21 57.99 24.15 58.93 24.04 59.87C23.9648 60.337 23.9147 60.8077 23.89 61.28L23.94 62.7C24 63.7 23.94 64.61 24.06 65.57C24.4969 69.5504 25.4516 73.4568 26.9 77.19C29.85 85 34.5 92.5 39.91 100Z" fill="#069274"/>
<path d="M56.2 100C61.61 92.5 66.26 85 69.2 77.21C70.6396 73.474 71.5941 69.5688 72.04 65.59C72.18 64.59 72.04 63.68 72.15 62.72V61.3C72.1286 60.8278 72.0819 60.3572 72.01 59.89C72 59 71.93 58 71.85 57.07L71.17 54.31L70.88 52.92L70.41 51.28L69.41 47.97C68.87 45.71 68.25 43.51 67.8 41.2C66.7666 36.5352 66.2104 31.7774 66.14 27C66.14 25.77 66.24 24.5 66.29 23.27C66.34 22.04 66.6 20.74 66.84 19.48C67.3603 16.8668 68.3789 14.3782 69.84 12.15C71.3349 9.95671 73.4131 8.2249 75.84 7.15C76.9452 6.64355 78.1019 6.25798 79.29 6C80.4507 5.78901 81.6227 5.64544 82.8 5.57C78.8 8.02 75.63 11.09 74.72 14.71C73.81 18.33 74.03 22.22 74.82 26.29C75.6643 30.4592 76.7258 34.5815 78 38.64C78.59 40.72 79.27 42.83 79.92 44.92L80.92 48.08L81.41 49.68L81.88 51.58L82.71 55.41L83 59.34C83 59.99 83.1 60.65 83.06 61.34L82.9 63.28C82.833 64.5755 82.6793 65.865 82.44 67.14C81.4757 72.0952 79.6298 76.8371 76.99 81.14C74.4693 85.2307 71.3706 88.9357 67.79 92.14C64.3409 95.3241 60.4342 97.9735 56.2 100Z" fill="#069274"/>
<path d="M26.61 98.54C26.3535 93.4406 26.7943 88.3301 27.92 83.35C29.0374 78.1153 31.0976 73.1274 34 68.63C34.806 67.4411 35.6878 66.3054 36.64 65.23C37.6885 64.149 38.8149 63.1463 40.01 62.23C43.01 60.16 44.38 59.57 45.4 58.48C46.42 57.39 46.4 56.93 46.35 56.15C46.0707 54.7919 45.4475 53.5283 44.54 52.48C43.4193 51.0097 42.0686 49.7299 40.54 48.69C40.1966 48.4321 39.8357 48.1982 39.46 47.99L38.32 47.32C37.7717 46.9724 37.265 46.5631 36.81 46.1C36.3275 45.5227 35.9239 44.8838 35.61 44.2C35.3518 43.63 35.1863 43.0223 35.12 42.4C35.0103 41.881 34.97 41.3497 35 40.82C35.0498 40.1123 35.1876 39.4136 35.41 38.74C35.6896 37.8263 36.072 36.9474 36.55 36.12C37.9425 33.7706 39.535 31.5456 41.31 29.47C42.9 27.47 44.52 25.67 46.1 23.83C49.2513 20.3235 52.1581 16.6047 54.8 12.7C56.047 10.8416 56.9889 8.79576 57.59 6.64C57.8594 5.51795 57.9044 4.35374 57.7225 3.21425C57.5406 2.07475 57.1353 0.982418 56.53 0C57.6616 0.690941 58.6169 1.63589 59.32 2.76C60.0383 3.96807 60.5076 5.30773 60.7 6.7C60.9678 9.45346 60.6753 12.2326 59.84 14.87C58.2208 19.8149 55.9902 24.5382 53.2 28.93C51.9 31.08 50.56 33.18 49.26 35.21C48.0549 37.0398 46.9661 38.9435 46 40.91C45.8792 41.1583 45.7886 41.4202 45.73 41.69C45.67 41.83 45.79 41.59 45.73 41.42C45.73 41.42 45.73 41.08 45.73 40.79C45.6675 40.4792 45.5771 40.1746 45.46 39.88C45.3056 39.461 45.0596 39.0818 44.74 38.77C44.5273 38.5016 44.2703 38.2716 43.98 38.09C43.8583 38.02 43.7313 37.9598 43.6 37.91L43.88 38.04L44.44 38.32C45.1652 38.6666 45.8668 39.0608 46.54 39.5C49.1343 41.1722 51.4295 43.268 53.33 45.7C55.5648 48.4797 56.9286 51.8578 57.25 55.41C57.2567 56.4586 57.1731 57.5058 57 58.54C56.7751 59.5729 56.4399 60.5787 56 61.54C55.5553 62.4519 55.0192 63.3163 54.4 64.12C53.8049 64.8316 53.1599 65.4999 52.47 66.12C51.8 66.65 51.11 67.12 50.47 67.65C49.8017 68.0681 49.1106 68.4487 48.4 68.79L46.66 69.68L45.46 70.25C44.6444 70.743 43.8566 71.2805 43.1 71.86C42.2865 72.5212 41.5181 73.2362 40.8 74C37.7406 77.4024 35.1202 81.1752 33 85.23C30.66 89.44 28.66 93.91 26.61 98.54Z" fill="#B2AE4F"/>
<path d="M43.51 98.54C45.03 94.36 46.57 90.37 47.69 86.34C48.9116 82.6379 49.5853 78.777 49.69 74.88C49.7133 73.3922 49.4094 71.9175 48.8 70.56C48.6735 70.2955 48.5264 70.0414 48.36 69.8C48.268 69.7013 48.1812 69.5978 48.1 69.49C47.9983 69.3347 47.8847 69.1876 47.76 69.05C47.14 68.3 46.55 67.55 45.86 66.81C43.24 63.81 40.26 60.81 37.31 57.26C35.7468 55.36 34.3547 53.3254 33.15 51.18C31.7288 48.6639 30.8532 45.8768 30.58 43C30.4217 39.9578 31.063 36.9273 32.44 34.21C33.3167 32.5569 34.0882 30.8502 34.75 29.1C37.5294 21.4898 37.4939 13.1363 34.65 5.55C38.1998 8.52809 40.8115 12.4701 42.17 16.9C43.5934 21.5102 43.9356 26.3862 43.17 31.15C42.7769 33.5378 42.154 35.882 41.31 38.15C40.9151 39.3724 40.809 40.6697 41 41.94C41.4 44.25 43.3 47.23 45.84 50.27C48.38 53.31 51.28 56.55 54 60.27C54.68 61.18 55.33 62.18 56 63.16C56.15 63.37 56.35 63.69 56.56 64.06L57.13 65.12C57.453 65.8339 57.7269 66.5689 57.95 67.32C58.7199 70.0516 58.8329 72.9264 58.28 75.71C57.2969 80.3971 55.3414 84.8258 52.54 88.71C50.009 92.3964 46.9688 95.7059 43.51 98.54Z" fill="#09A582"/>
<path d="M65.16 86.43C67.3802 86.43 69.18 84.6302 69.18 82.41C69.18 80.1898 67.3802 78.39 65.16 78.39C62.9398 78.39 61.14 80.1898 61.14 82.41C61.14 84.6302 62.9398 86.43 65.16 86.43Z" fill="white"/>
<path d="M84.35 73.18C85.7418 73.18 86.87 72.0518 86.87 70.66C86.87 69.2682 85.7418 68.14 84.35 68.14C82.9582 68.14 81.83 69.2682 81.83 70.66C81.83 72.0518 82.9582 73.18 84.35 73.18Z" fill="white"/>
<path d="M63.18 63.02C65.3947 63.02 67.19 61.2247 67.19 59.01C67.19 56.7953 65.3947 55 63.18 55C60.9653 55 59.17 56.7953 59.17 59.01C59.17 61.2247 60.9653 63.02 63.18 63.02Z" fill="white"/>
<path d="M73.42 42.09C74.5301 42.09 75.43 41.1901 75.43 40.08C75.43 38.9699 74.5301 38.07 73.42 38.07C72.3099 38.07 71.41 38.9699 71.41 40.08C71.41 41.1901 72.3099 42.09 73.42 42.09Z" fill="white"/>
<path d="M90.97 38.58C92.0801 38.58 92.98 37.6801 92.98 36.57C92.98 35.4599 92.0801 34.56 90.97 34.56C89.8599 34.56 88.96 35.4599 88.96 36.57C88.96 37.6801 89.8599 38.58 90.97 38.58Z" fill="white"/>
</svg>
