<svg id="vector" xmlns="http://www.w3.org/2000/svg" width="24.0d" height="24.0d" viewBox="0 0 512.0 512.0"><path fill="#f0cb4d" d="M256,124c-107,0 -193,86 -193,193C62,425 149,512 256,512s193,-86 193,-193C449,211 363,124 256,124zM256,469c-83,0 -151,-67 -151,-151S172,167 256,167s151,67 151,151C407,401 339,469 256,469z" id="path_0"/><path fill="#53e7d3" d="M256,166l-111,-103l42,-63l137,0l42,63z" id="path_1"/><path fill="#86fce8" d="M144,63l42,-63l137,0l42,63z" id="path_2"/><path fill="#1bccc7" d="M256,166l-34,-103l68,0zM221,63l-34,-63l68,0zM290,63l-34,-63l68,0z" id="path_3"/></svg>