<svg width="100" height="100" viewBox="0 0 100 100" fill="none" xmlns="http://www.w3.org/2000/svg">
<g clip-path="url(#clip0_8_44)">
<g clip-path="url(#clip1_8_44)">
<path d="M71.99 61.8655C67.0519 59.4354 66.8606 57.0762 68.15 54.3698C69.4395 51.6634 71.8129 49.7434 76.751 52.1735C81.6891 54.6036 84.6364 58.7411 83.3257 61.4121C82.015 64.083 76.9352 64.2885 71.99 61.8655Z" fill="#F37D3B"/>
<path d="M68.5043 79.0249C64.6147 75.1353 65.6916 72.7832 67.7958 70.679C69.9 68.5748 72.2521 67.4979 76.1417 71.3875C80.0312 75.277 81.519 80.1797 79.4078 82.291C77.2965 84.4022 72.4009 82.9215 68.5043 79.0249Z" fill="#F37D3B"/>
<path d="M48.9715 85.0966C46.5414 80.1584 44.0263 79.457 41.3482 80.7748C38.6702 82.0926 36.8494 84.9194 39.3149 89.893C41.7804 94.8665 45.8825 97.7784 48.5605 96.4606C51.2386 95.1428 51.3732 90.0205 48.9715 85.0966Z" fill="#F37D3B"/>
<path d="M65.6562 81.873C61.7666 77.9834 59.4216 79.0532 57.3103 81.1645C55.199 83.2758 54.1292 85.6208 58.0188 89.5104C61.9083 93.4 66.8181 94.8807 68.9223 92.7765C71.0265 90.6723 69.5528 85.7696 65.6562 81.873Z" fill="#F37D3B"/>
<path d="M78.9118 85.4791C78.508 85.0753 79.0323 83.9417 80.0454 82.9286C81.0585 81.9155 82.2204 81.4195 82.5959 81.795C82.9714 82.1705 87.7183 90.6014 87.7183 90.6014C87.7183 90.6014 79.3157 85.883 78.9118 85.4791Z" fill="#F37D3B"/>
<path d="M68.4334 95.9575C68.0296 95.5537 68.5468 94.4272 69.5599 93.4141C70.573 92.401 71.7349 91.905 72.1104 92.2805C72.4859 92.656 77.2327 101.087 77.2327 101.087C77.2327 101.087 68.8373 96.3614 68.4334 95.9575Z" fill="#F37D3B"/>
<path d="M81.8095 65.5071C81.4057 65.1032 81.9583 63.9413 83.0423 62.999C84.1263 62.0568 85.2952 61.6104 85.6778 62.0355C86.0604 62.4606 90.3184 71.097 90.3184 71.097C90.3184 71.097 82.185 65.9392 81.8095 65.5071Z" fill="#F37D3B"/>
<path d="M53.0452 94.4839C52.6414 94.0801 51.4724 94.6398 50.5301 95.7238C49.5878 96.8077 49.1415 97.9767 49.5666 98.3593C49.9917 98.7419 58.6351 102.993 58.6351 102.993C58.6351 102.993 53.4703 94.8665 53.0452 94.4839Z" fill="#F37D3B"/>
<path d="M60.2646 52.7899C54.5592 60.3799 47.8117 67.1273 40.2217 72.8328C47.5899 71.2599 53.0452 70.0697 57.4378 69.9988C57.5016 65.6133 58.7201 60.1297 60.2646 52.7899Z" fill="#F37D3B"/>
<path d="M33.4487 67.8026C45.0677 63.8351 48.9644 60.2643 53.7466 47.2212C56.0988 40.5898 62.0571 44.3235 63.0986 45.7051C64.14 47.0866 64.4872 50.2535 63.9417 53.137C62.5247 60.5902 61.3344 66.1164 61.2778 70.3956C61.2069 72.6486 60.0875 73.7821 57.8275 73.8459C53.5199 73.9026 48.0504 75.1212 40.5689 76.5098C37.7421 77.027 34.5114 76.7577 33.1653 75.6383C31.8192 74.5189 30.9265 69.5312 33.4487 67.8026Z" fill="#F37D3B"/>
<path d="M80.9591 24.6065C80.3929 25.3888 79.5178 25.9286 78.5263 26.1072C77.5349 26.2857 76.5082 26.0883 75.6722 25.5585C74.8362 25.0286 74.2594 24.2097 74.0686 23.2818C73.8778 22.354 74.0887 21.3932 74.6549 20.6109C75.8355 19.0019 77.0677 20.7557 78.8042 21.8552C80.5408 22.9546 82.1397 22.9814 80.9591 24.6065Z" fill="#F37D3B"/>
<path d="M90.3696 27.7279C90.211 28.1762 89.9585 28.5905 89.6269 28.9465C89.2954 29.3025 88.8913 29.5932 88.4384 29.8015C87.9855 30.0098 87.4927 30.1316 86.989 30.1597C86.4852 30.1879 85.9805 30.1218 85.5043 29.9655C85.0281 29.8091 84.59 29.5655 84.2155 29.2489C83.841 28.9324 83.5376 28.5491 83.3231 28.1217C83.1086 27.6942 82.9872 27.231 82.9661 26.7591C82.945 26.2873 83.0245 25.8162 83.2 25.3734C83.8935 23.5231 85.567 24.9337 87.5499 25.5826C89.5329 26.2316 91.0631 25.8776 90.3696 27.7279Z" fill="#F37D3B"/>
<path d="M84.2144 16.4544C83.9221 18.4012 80.6726 18.5031 78.9361 17.4037C77.1995 16.3042 77.2167 14.3198 77.9274 12.4641C81.0107 4.05997 89.0515 0 89.0515 0C89.0515 0 84.862 12.1853 84.2144 16.4544Z" fill="#F37D3B"/>
<path d="M87.8135 18.1331C86.2833 19.4793 88.06 22.0214 90.02 22.7186C91.9801 23.4159 93.6879 22.2413 94.9201 20.6538C100.496 13.4563 99.419 4.96635 99.419 4.96635C99.419 4.96635 91.1777 15.1833 87.8135 18.1331Z" fill="#F37D3B"/>
<g clip-path="url(#clip2_8_44)">
<path d="M34.4062 27.8906C33.2031 27.7344 32.0859 27.1875 31.2344 26.2969C31.2344 26.2969 31.2344 26.2969 31.2031 26.2578C28.0156 23.0703 22.0781 23.8359 17.9453 27.9766C13.8125 32.1172 13.0469 38.0547 16.2266 41.2344C16.2266 41.2344 16.2266 41.2344 16.2656 41.2734C17.125 42.1328 17.6719 43.2266 17.8594 44.4453C18.0547 45.7734 18.6875 47.1016 19.7344 48.1172C22.2344 50.5859 26.3281 50.5937 28.8594 48.1172C29.4609 47.5234 29.9297 46.8672 30.2656 46.1094C31.4219 43.5312 33.5 41.4375 36.1016 40.2734C36.8047 39.9609 37.5078 39.4922 38.1094 38.8672C40.5703 36.3672 40.5625 32.2578 38.1094 29.7422C37.0937 28.6953 35.7656 28.0625 34.4141 27.8672L34.4062 27.8906Z" fill="#F37D3B"/>
<path d="M9.28125 28.8281C10.1178 27.9916 10.5003 26.7695 10.3447 25.4307C10.189 24.0919 9.50789 22.7462 8.45117 21.6895C7.39445 20.6327 6.04868 19.9516 4.70992 19.7959C3.37116 19.6403 2.14907 20.0228 1.3125 20.8594C0.475928 21.6959 0.0934011 22.918 0.249071 24.2568C0.404741 25.5956 1.08586 26.9413 2.14258 27.998C3.1993 29.0548 4.54507 29.7359 5.88383 29.8916C7.22259 30.0472 8.44468 29.6647 9.28125 28.8281Z" fill="#F37D3B"/>
<path d="M9.91406 45.625C10.7506 44.7884 11.1332 43.5663 10.9775 42.2276C10.8218 40.8888 10.1407 39.5431 9.08398 38.4863C8.02726 37.4296 6.68149 36.7485 5.34273 36.5928C4.00397 36.4372 2.78188 36.8197 1.94531 37.6563C1.10874 38.4928 0.726214 39.7149 0.881883 41.0537C1.03755 42.3924 1.71867 43.7382 2.77539 44.7949C3.83211 45.8516 5.17788 46.5328 6.51664 46.6884C7.8554 46.8441 9.07749 46.4616 9.91406 45.625Z" fill="#F37D3B"/>
<path d="M19.2187 18.9063C20.0553 18.0697 20.4378 16.8476 20.2822 15.5088C20.1265 14.1701 19.4454 12.8243 18.3887 11.7676C17.3319 10.7109 15.9862 10.0297 14.6474 9.87407C13.3087 9.7184 12.0866 10.1009 11.25 10.9375C10.8358 11.3517 10.5287 11.865 10.3462 12.4479C10.1637 13.0308 10.1095 13.672 10.1866 14.3349C10.2636 14.9978 10.4705 15.6694 10.7954 16.3113C11.1203 16.9532 11.5568 17.5529 12.0801 18.0762C13.1368 19.1329 14.4826 19.814 15.8213 19.9697C17.1601 20.1253 18.3822 19.7428 19.2187 18.9063Z" fill="#F37D3B"/>
<path d="M35.8125 19.7656C36.6491 18.9291 37.0316 17.707 36.8759 16.3682C36.7203 15.0294 36.0391 13.6837 34.9824 12.627C33.9257 11.5702 32.5799 10.8891 31.2412 10.7334C29.9024 10.5778 28.6803 10.9603 27.8437 11.7969C27.0072 12.6334 26.6247 13.8555 26.7803 15.1943C26.936 16.5331 27.6171 17.8788 28.6738 18.9355C29.7305 19.9923 31.0763 20.6734 32.4151 20.8291C33.7538 20.9847 34.9759 20.6022 35.8125 19.7656Z" fill="#F37D3B"/>
</g>
</g>
</g>
<defs>
<clipPath id="clip0_8_44">
<rect width="100" height="100" fill="white"/>
</clipPath>
<clipPath id="clip1_8_44">
<rect width="100" height="100" fill="white"/>
</clipPath>
<clipPath id="clip2_8_44">
<rect width="40" height="40" fill="white" transform="matrix(0 -1 1 0 0 50)"/>
</clipPath>
</defs>
</svg>
