<svg width="100" height="100" viewBox="0 0 100 100" fill="none" xmlns="http://www.w3.org/2000/svg">
<g clip-path="url(#clip0_8_44)">
<path d="M95.92 72.18V84.24H4.08V72.18H95.92ZM95.92 68.1H4.08C2.99792 68.1 1.96015 68.5299 1.195 69.295C0.429856 70.0602 0 71.0979 0 72.18L0 84.24C0 85.3221 0.429856 86.3599 1.195 87.125C1.96015 87.8901 2.99792 88.32 4.08 88.32H95.92C97.0021 88.32 98.0398 87.8901 98.805 87.125C99.5701 86.3599 100 85.3221 100 84.24V72.18C100 71.0979 99.5701 70.0602 98.805 69.295C98.0398 68.5299 97.0021 68.1 95.92 68.1Z" fill="#6AB8D9"/>
<path d="M95.92 43.88H4.08V84.24H95.92V43.88Z" fill="#A9CCDD"/>
<path d="M95.92 15.76H4.08V27.82H95.92V15.76Z" fill="#C2D4DE"/>
<path d="M95.92 31.82H4.08V43.88H95.92V31.82Z" fill="#8CC2DB"/>
<path d="M95.92 71.37H4.08V84.24H95.92V71.37Z" fill="#93C4DB"/>
<path d="M95.92 43.88H4.08V84.24H95.92V43.88Z" fill="#6AB8D9"/>
<path d="M95.92 27.82H4.08V31.82H95.92V27.82Z" fill="#BCD2DE"/>
<path d="M95.92 15.76V27.82H4.08V15.76H95.92ZM95.92 11.68H4.08C2.99792 11.68 1.96015 12.1099 1.195 12.875C0.429856 13.6402 0 14.6779 0 15.76L0 27.82C0 28.9021 0.429856 29.9398 1.195 30.705C1.96015 31.4701 2.99792 31.9 4.08 31.9H95.92C97.0021 31.9 98.0398 31.4701 98.805 30.705C99.5701 29.9398 100 28.9021 100 27.82V15.76C100 14.6779 99.5701 13.6402 98.805 12.875C98.0398 12.1099 97.0021 11.68 95.92 11.68Z" fill="#6AB8D9"/>
<path d="M95.92 72.18H4.08V84.24H95.92V72.18Z" fill="#B2AE4F"/>
<path d="M14.97 81.26C19.0514 81.26 22.36 77.9514 22.36 73.87C22.36 69.7886 19.0514 66.48 14.97 66.48C10.8886 66.48 7.58 69.7886 7.58 73.87C7.58 77.9514 10.8886 81.26 14.97 81.26Z" fill="#B2AE4F"/>
<path d="M52.5 73.8C55.7033 73.8 62 78.2033 62 75C62 71.7967 53.0033 68 49.8 68C46.5967 68 39 73.8 44 73.8H52.5Z" fill="#B2AE4F"/>
<path d="M68.5 76C73.1944 76 77 74.433 77 72.5C77 70.567 73.1944 69 68.5 69C63.8056 69 60 70.567 60 72.5C60 74.433 63.8056 76 68.5 76Z" fill="#B2AE4F"/>
<path d="M14.11 61.43C15.2588 61.43 16.19 60.4988 16.19 59.35C16.19 58.2012 15.2588 57.27 14.11 57.27C12.9612 57.27 12.03 58.2012 12.03 59.35C12.03 60.4988 12.9612 61.43 14.11 61.43Z" fill="white"/>
<path d="M18.53 56.34C18.9553 56.34 19.3 55.9953 19.3 55.57C19.3 55.1447 18.9553 54.8 18.53 54.8C18.1047 54.8 17.76 55.1447 17.76 55.57C17.76 55.9953 18.1047 56.34 18.53 56.34Z" fill="white"/>
<path d="M19.85 59.35C20.2753 59.35 20.62 59.0053 20.62 58.58C20.62 58.1547 20.2753 57.81 19.85 57.81C19.4247 57.81 19.08 58.1547 19.08 58.58C19.08 59.0053 19.4247 59.35 19.85 59.35Z" fill="white"/>
<path d="M25.4 48.15C26.1069 48.15 26.68 47.5769 26.68 46.87C26.68 46.1631 26.1069 45.59 25.4 45.59C24.6931 45.59 24.12 46.1631 24.12 46.87C24.12 47.5769 24.6931 48.15 25.4 48.15Z" fill="white"/>
<path d="M33.62 74.31C33.62 72.25 32.74 70.58 31.62 70.58C30.5 70.58 29.62 72.25 29.62 74.31C29.6233 74.7327 29.6635 75.1543 29.74 75.57C30.9416 75.6567 32.133 75.8508 33.3 76.15C33.4935 75.555 33.6012 74.9354 33.62 74.31Z" fill="#B18348"/>
<path d="M33.9 66.52C32.9 64.73 27.52 65.78 21.81 68.87C17 71.48 13.56 74.69 13.17 76.71C17.17 76.48 21.17 75.82 24.94 75.57C25.07 75.5 25.2 75.45 25.34 75.37C31 72.28 34.88 68.32 33.9 66.52Z" fill="#B18348"/>
<path d="M57.32 81.27C58.5847 81.27 59.61 80.7283 59.61 80.06C59.61 79.3917 58.5847 78.85 57.32 78.85C56.0553 78.85 55.03 79.3917 55.03 80.06C55.03 80.7283 56.0553 81.27 57.32 81.27Z" fill="#B18348"/>
<path d="M65.73 79.17C67.4366 79.17 68.82 78.4939 68.82 77.66C68.82 76.826 67.4366 76.15 65.73 76.15C64.0234 76.15 62.64 76.826 62.64 77.66C62.64 78.4939 64.0234 79.17 65.73 79.17Z" fill="#B18348"/>
<path d="M86.04 80.06C86.7414 80.06 87.31 79.7869 87.31 79.45C87.31 79.1131 86.7414 78.84 86.04 78.84C85.3386 78.84 84.77 79.1131 84.77 79.45C84.77 79.7869 85.3386 80.06 86.04 80.06Z" fill="#B18348"/>
<path d="M6.11999 28.97H2.03999V84.24H6.11999V28.97Z" fill="#6AB8D9"/>
<path d="M97.96 28.97H93.88V84.24H97.96V28.97Z" fill="#6AB8D9"/>
<g clip-path="url(#clip1_8_44)">
<path d="M36.7106 59.2276C36.6519 59.2276 36.6519 59.2276 36.592 59.2276C36.1964 59.2295 35.8153 59.2523 35.4286 59.3393C35.3961 59.3464 35.3637 59.3534 35.3304 59.3607C35.1147 59.4082 34.8992 59.4559 34.6865 59.5157C34.6561 59.5242 34.6257 59.5327 34.5943 59.5415C34.1163 59.6828 33.6115 59.8624 33.1946 60.1429C33.2342 60.2468 33.2788 60.3445 33.3306 60.4427C33.4465 60.6753 33.5773 60.9442 33.5365 61.2091C33.4638 61.2709 33.4075 61.3091 33.3248 61.3521C33.3034 61.3641 33.282 61.3761 33.26 61.3885C33.1971 61.4235 33.1338 61.4575 33.0703 61.4913C33.0139 61.5226 32.9576 61.554 32.9013 61.5854C32.8737 61.6003 32.8462 61.6153 32.8179 61.6307C32.5017 61.803 32.1915 61.9847 31.8829 62.1703C31.4934 62.4045 31.1005 62.6313 30.7036 62.8526C30.6206 62.8992 30.5379 62.9466 30.4555 62.9943C30.0836 63.2078 29.7007 63.3855 29.3068 63.5535C29.2225 63.5896 29.1387 63.6266 29.0549 63.6639C29.0077 63.6845 28.9604 63.7051 28.9132 63.7256C28.8923 63.735 28.8714 63.7444 28.8498 63.7541C28.7281 63.8059 28.6586 63.8168 28.5324 63.7805C28.2197 63.6074 27.9157 63.3637 27.7243 63.0592C27.6929 63.0099 27.6929 63.0099 27.6608 62.9595C27.552 62.7838 27.4519 62.6039 27.356 62.4207C27.0183 61.7766 26.6333 61.1657 25.9037 60.9326C25.6647 60.8651 25.4423 60.8516 25.1951 60.8563C25.1598 60.8564 25.1245 60.8566 25.0881 60.8568C24.9269 60.8583 24.7751 60.8658 24.6162 60.8955C24.6562 61.0074 24.7036 61.0917 24.7755 61.1855C25.1445 61.7109 25.258 62.2727 25.3069 62.9029C25.3558 63.4923 25.563 64.0331 26.0149 64.4273C26.061 64.4641 26.061 64.4641 26.1081 64.5017C26.0783 64.5308 26.0783 64.5308 26.0479 64.5605C26.0161 64.5932 25.9844 64.6258 25.9527 64.6585C25.9316 64.6796 25.9106 64.7006 25.8888 64.7222C25.7451 64.8728 25.6341 65.0257 25.537 65.2093C25.527 65.2281 25.517 65.2469 25.5067 65.2663C25.3728 65.5307 25.309 65.8076 25.2514 66.0971C25.245 66.1289 25.2385 66.1606 25.2318 66.1933C25.2004 66.3484 25.1709 66.5036 25.1439 66.6595C25.0528 67.1684 24.8231 67.6003 24.523 68.0139C24.5332 68.0346 24.5435 68.0553 24.5541 68.0767C24.6594 68.0938 24.7585 68.1027 24.8649 68.108C24.8862 68.1091 24.9075 68.1101 24.9294 68.1112C25.6282 68.1414 26.142 67.9651 26.6676 67.4808C26.961 67.1891 27.1733 66.8299 27.3883 66.4784C27.5219 66.2617 27.6666 66.0548 27.8176 65.8502C27.8326 65.8287 27.8477 65.8072 27.8632 65.7851C27.9896 65.6184 28.1656 65.5097 28.3347 65.3913C28.4811 65.2884 28.619 65.1861 28.7189 65.0348C29.0805 65.0572 29.4249 65.2169 29.7582 65.3504C29.7839 65.3607 29.8097 65.371 29.8362 65.3816C29.9511 65.4283 30.0632 65.4767 30.1731 65.5345C30.276 65.5878 30.3807 65.6299 30.489 65.671C30.7167 65.7577 30.938 65.8566 31.16 65.9573C31.2826 66.0129 31.4055 66.0681 31.5282 66.1233C31.5532 66.1346 31.5781 66.1458 31.6038 66.1574C32.7841 66.6891 32.7841 66.6891 33.2678 66.8729C33.3746 66.9139 33.4799 66.9575 33.5851 67.0026C33.7326 67.0655 33.8811 67.1185 34.0338 67.1672C33.7397 67.3148 33.4271 67.4081 33.1014 67.4495C33.0793 67.6501 33.1219 67.7633 33.2228 67.9358C33.3857 68.1315 33.6006 68.243 33.8279 68.3471C33.854 68.3593 33.88 68.3715 33.9069 68.384C34.4905 68.6545 35.1664 68.9354 35.8093 68.7019C36.168 68.5365 36.407 68.274 36.5824 67.9199C36.767 67.9133 36.9464 67.9167 37.1296 67.9423C38.4183 68.119 39.7889 67.9083 40.961 67.3395C41.0363 67.3032 41.1117 67.2693 41.1883 67.2361C41.6851 67.0141 42.148 66.7122 42.5811 66.3833C42.5998 66.3693 42.6184 66.3554 42.6377 66.341C42.8628 66.1721 43.0733 65.9902 43.2785 65.7973C43.2987 65.7783 43.3189 65.7593 43.3397 65.7397C43.7842 65.3146 44.4492 64.6165 44.4965 63.9706C44.4732 63.469 43.9357 62.9835 43.6068 62.6516C43.5418 62.5766 43.4772 62.5013 43.4131 62.4256C43.395 62.407 43.3768 62.3885 43.3581 62.3693C43.3376 62.3693 43.3171 62.3693 43.296 62.3693C43.288 62.3508 43.2801 62.3322 43.2719 62.3131C43.2299 62.2368 43.1873 62.1958 43.1211 62.14C43.0882 62.112 43.0882 62.112 43.0546 62.0834C43.0317 62.0639 43.0088 62.0445 42.9851 62.0244C42.9194 61.9648 42.8537 61.9051 42.7882 61.8452C42.7365 61.8049 42.7365 61.8049 42.6743 61.8049C42.6743 61.7842 42.6743 61.7635 42.6743 61.7422C42.6043 61.6831 42.5341 61.628 42.4606 61.5736C42.4385 61.557 42.4164 61.5405 42.3936 61.5234C42.141 61.3363 41.8808 61.1609 41.6176 60.9895C41.5745 60.9615 41.5745 60.9615 41.5306 60.933C41.1601 60.7009 40.7603 60.5249 40.3579 60.358C40.1382 60.2663 39.9248 60.1678 39.7141 60.0564C39.1567 59.764 38.5634 59.5312 37.95 59.3902C37.9155 59.3817 37.881 59.3732 37.8455 59.3644C37.7458 59.3402 37.6465 59.3168 37.546 59.2962C37.5199 59.2907 37.4938 59.2853 37.4669 59.2797C37.2136 59.2316 36.968 59.2251 36.7106 59.2276Z" fill="#8CAFCA"/>
<path d="M36.7106 59.2276C36.6519 59.2276 36.6519 59.2276 36.592 59.2276C36.1963 59.2295 35.8153 59.2523 35.4285 59.3393C35.3961 59.3464 35.3637 59.3534 35.3303 59.3607C35.1147 59.4082 34.8992 59.4559 34.6865 59.5157C34.6561 59.5242 34.6257 59.5327 34.5943 59.5415C34.1163 59.6828 33.6115 59.8624 33.1946 60.1429C33.2342 60.2468 33.2788 60.3445 33.3306 60.4427C33.4465 60.6753 33.5772 60.9442 33.5365 61.2091C33.4638 61.2709 33.4074 61.3091 33.3247 61.3521C33.3034 61.3641 33.282 61.3761 33.26 61.3885C33.1971 61.4235 33.1338 61.4575 33.0703 61.4913C33.0139 61.5226 32.9576 61.554 32.9013 61.5854C32.8737 61.6003 32.8462 61.6153 32.8179 61.6307C32.5017 61.803 32.1915 61.9847 31.8829 62.1703C31.4934 62.4045 31.1005 62.6313 30.7036 62.8526C30.6205 62.8992 30.5379 62.9466 30.4554 62.9943C30.1334 63.1791 29.8052 63.3367 29.4636 63.4817C29.416 63.5021 29.416 63.5021 29.3674 63.5229C29.3389 63.5348 29.3105 63.5467 29.2812 63.559C29.2162 63.5923 29.2162 63.5923 29.1851 63.6551C29.4165 63.6644 29.6237 63.6295 29.8495 63.5806C29.9158 63.5666 29.9821 63.5526 30.0484 63.5387C30.0806 63.5318 30.1129 63.525 30.1461 63.5179C30.2389 63.4989 30.3317 63.4819 30.425 63.4654C30.5471 63.4434 30.6637 63.4154 30.7819 63.3767C30.8159 63.3658 30.8498 63.3548 30.8848 63.3435C30.9188 63.3325 30.9528 63.3215 30.9878 63.3101C31.0545 63.2898 31.1212 63.2695 31.1879 63.2493C31.4036 63.1826 31.6152 63.1061 31.827 63.0279C31.827 63.0072 31.827 62.9865 31.827 62.9652C31.8475 62.9619 31.868 62.9587 31.8891 62.9554C32.0083 62.9278 32.1196 62.8852 32.233 62.8397C32.259 62.8293 32.2851 62.8189 32.3119 62.8081C32.6502 62.6687 32.9787 62.5068 33.3074 62.346C33.6267 62.1907 33.9503 62.0553 34.2824 61.9303C34.327 61.9134 34.3715 61.8965 34.416 61.8796C34.7083 61.7695 34.9988 61.6727 35.304 61.6067C35.3659 61.5931 35.4277 61.5784 35.489 61.5621C36.7939 61.2215 38.267 61.3729 39.5599 61.69C39.7175 61.7286 39.8711 61.7564 40.0324 61.7735C40.0159 61.8073 39.9994 61.841 39.9824 61.8758C39.8501 62.15 39.7328 62.4173 39.6595 62.7143C39.6538 62.7354 39.6482 62.7564 39.6425 62.7782C39.5528 63.1214 39.5239 63.4531 39.5235 63.8079C39.5234 63.8452 39.5234 63.8824 39.5233 63.9207C39.5283 64.3259 39.5917 64.7068 39.7022 65.0956C39.7112 65.1292 39.7203 65.1627 39.7296 65.1973C39.7807 65.3802 39.8391 65.5326 39.9392 65.6934C39.9628 65.7646 39.9628 65.7646 39.9703 65.8188C39.9908 65.8188 40.0113 65.8188 40.0324 65.8188C40.0362 65.8506 40.0362 65.8506 40.04 65.883C40.0704 66.0025 40.1281 66.0989 40.1917 66.203C40.2043 66.2238 40.2169 66.2446 40.2298 66.266C40.3297 66.4291 40.4381 66.5817 40.5608 66.7282C40.588 66.7608 40.588 66.7608 40.6157 66.794C40.6592 66.8456 40.7032 66.8967 40.7473 66.9477C40.7575 66.927 40.7678 66.9063 40.7784 66.885C40.7404 66.8156 40.7404 66.8156 40.6832 66.7302C40.4443 66.3606 40.2804 65.9792 40.1257 65.5679C40.1177 65.5474 40.1097 65.5269 40.1015 65.5057C39.8845 64.9451 39.8344 64.3612 39.8323 63.7648C39.8321 63.7295 39.8321 63.7295 39.8318 63.6934C39.8269 62.7642 40.1469 61.9125 40.6307 61.1307C40.6532 61.0939 40.6532 61.0939 40.6762 61.0563C40.7685 60.9114 40.8626 60.814 40.9959 60.7073C40.9959 60.6866 40.9959 60.6659 40.9959 60.6446C40.7419 60.5196 40.4897 60.3981 40.2228 60.3036C40.0362 60.2368 39.8659 60.1527 39.6925 60.0566C39.0234 59.6884 38.2927 59.4425 37.5459 59.2962C37.5183 59.2905 37.4907 59.2848 37.4622 59.2789C37.2105 59.231 36.9662 59.2251 36.7106 59.2276Z" fill="#6195B5"/>
<path d="M40.94 60.5385C40.9246 60.5695 40.9246 60.5695 40.9089 60.6012C40.8801 60.6153 40.8801 60.6153 40.8508 60.6297C40.3767 60.8746 40.0428 61.8789 39.8832 62.3573C39.5933 63.3054 39.5918 64.6229 40.0386 65.5245C40.0862 65.5519 40.135 65.5771 40.1843 65.601C40.2107 65.6139 40.2371 65.6267 40.2643 65.64C40.3065 65.6605 40.3065 65.6605 40.3495 65.6813C40.3763 65.6982 40.4031 65.7151 40.4307 65.7325C40.5846 65.7952 40.7289 65.7907 40.8934 65.7891C40.9267 65.789 40.9599 65.7888 40.9942 65.7887C41.218 65.7845 41.4092 65.7595 41.6207 65.6835C41.6982 65.6565 41.7689 65.6381 41.8488 65.6218C42.0106 65.5869 42.1614 65.5303 42.3153 65.4696C42.3439 65.4585 42.3725 65.4473 42.402 65.4359C42.7751 65.2888 43.1352 65.12 43.4777 64.9095C43.5501 64.8636 43.5501 64.8636 43.6324 64.8346C43.7107 64.8014 43.7402 64.7689 43.7995 64.7092C43.8447 64.6761 43.8907 64.6442 43.9374 64.6132C43.9611 64.5973 43.9847 64.5814 44.0091 64.565C44.0761 64.5198 44.0761 64.5198 44.1439 64.4967C44.2882 64.4039 44.3378 64.1777 44.39 64.0193C44.4376 63.796 44.3748 63.6401 44.2605 63.4482C44.0442 63.1161 43.7979 62.8261 43.5197 62.5454C43.4548 62.4704 43.3901 62.3952 43.3261 62.3194C43.3079 62.3009 43.2898 62.2823 43.2711 62.2632C43.2506 62.2632 43.2301 62.2632 43.2089 62.2632C43.201 62.2446 43.1931 62.2261 43.1849 62.207C43.1429 62.1307 43.1003 62.0896 43.0341 62.0339C43.0121 62.0152 42.9902 61.9965 42.9676 61.9773C42.9446 61.9578 42.9217 61.9383 42.8981 61.9183C42.8324 61.8586 42.7667 61.7989 42.7012 61.739C42.6495 61.6987 42.6495 61.6987 42.5873 61.6987C42.5873 61.678 42.5873 61.6573 42.5873 61.636C42.5173 61.5769 42.4471 61.5219 42.3736 61.4675C42.3515 61.4509 42.3293 61.4343 42.3065 61.4173C41.8699 61.0939 41.4154 60.8003 40.94 60.5385Z" fill="#A9BFD7"/>
<path d="M37.4741 59.7862C37.4466 59.7861 37.4191 59.7861 37.3908 59.7861C36.9989 59.7869 36.6123 59.8059 36.2231 59.8528C36.1917 59.8565 36.1917 59.8565 36.1596 59.8602C35.7718 59.9071 35.4033 60.0033 35.0284 60.1115C34.9856 60.1227 34.9427 60.1336 34.8998 60.1442C34.5303 60.2375 34.1738 60.3559 33.8162 60.4878C33.8367 60.6637 33.8572 60.8397 33.8784 61.0209C33.9194 61.0209 33.9604 61.0209 34.0027 61.0209C34.0027 61.0002 34.0027 60.9795 34.0027 60.9582C34.0241 60.9552 34.0454 60.9522 34.0674 60.9491C34.1778 60.922 34.2656 60.8747 34.366 60.821C34.5185 60.7411 34.6666 60.679 34.8328 60.6344C34.907 60.6124 34.9738 60.5835 35.0439 60.5505C35.1632 60.4948 35.2826 60.4548 35.4091 60.4191C35.4823 60.3974 35.5541 60.3736 35.6263 60.3488C35.8457 60.2745 36.0697 60.218 36.2939 60.1609C36.3543 60.1456 36.4145 60.1299 36.4747 60.1141C37.3923 59.8925 38.4785 59.888 39.3921 60.1328C39.5155 60.1655 39.6251 60.1802 39.7527 60.1742C39.7322 60.1639 39.7117 60.1535 39.6905 60.1429C39.6803 60.1222 39.67 60.1015 39.6595 60.0801C39.5833 60.0596 39.5833 60.0596 39.4827 60.0419C39.4279 60.032 39.4279 60.032 39.3721 60.022C39.3336 60.0153 39.2951 60.0086 39.2554 60.0017C39.1803 59.9884 39.1052 59.975 39.0301 59.9616C38.9754 59.9519 38.9754 59.9519 38.9197 59.942C38.8398 59.927 38.7613 59.9101 38.6823 59.891C38.2815 59.7999 37.8829 59.7853 37.4741 59.7862Z" fill="#41789E"/>
<path d="M35.277 61.5854C35.2327 61.595 35.1884 61.6045 35.1441 61.6139C34.9774 61.6508 34.8159 61.7017 34.6535 61.7539C34.6242 61.7631 34.5949 61.7722 34.5648 61.7816C34.4146 61.8297 34.2763 61.8834 34.1372 61.9576C34.043 62.0037 33.9464 62.0411 33.8489 62.0794C33.6084 62.1744 33.3763 62.2844 33.1437 62.3973C32.7621 62.5823 32.381 62.7575 31.9824 62.9024C31.9305 62.9231 31.8787 62.9439 31.827 62.9652C31.827 62.9859 31.827 63.0066 31.827 63.0279C31.8012 63.0312 31.7753 63.0345 31.7487 63.0379C31.6269 63.0619 31.5165 63.1034 31.4016 63.1494C31.229 63.2167 31.0581 63.2755 30.8784 63.3213C30.8042 63.3407 30.7324 63.3642 30.6595 63.3885C30.4915 63.4402 30.3207 63.4667 30.1475 63.4941C29.9917 63.5188 29.8384 63.5488 29.6844 63.5825C29.5484 63.6114 29.4304 63.6264 29.292 63.6178C29.0688 63.6097 28.8844 63.7171 28.6878 63.8118C28.6519 63.8272 28.616 63.8425 28.579 63.8583C28.4698 63.9061 28.3654 63.959 28.2605 64.0157C28.226 64.0341 28.1916 64.0525 28.1561 64.0715C28.0811 64.1165 28.0259 64.1504 27.973 64.2195C27.9671 64.3038 27.9671 64.3038 27.973 64.3763C28.0101 64.3925 28.0473 64.4086 28.0856 64.4253C28.1733 64.4642 28.2584 64.5048 28.343 64.5501C28.6575 64.7184 28.9858 64.831 29.3229 64.9446C29.3947 64.9694 29.4658 64.9955 29.5367 65.0227C30.0246 65.2078 30.5376 65.3438 31.0496 65.4409C31.1518 65.4539 31.1518 65.4539 31.2365 65.5052C31.2855 65.5156 31.3347 65.5245 31.3841 65.5327C31.5118 65.5546 31.6365 65.582 31.7621 65.614C31.9964 65.6692 32.2306 65.6921 32.47 65.713C32.553 65.7204 32.636 65.7281 32.719 65.7358C32.7552 65.7389 32.7914 65.7421 32.8286 65.7454C32.9134 65.751 32.9134 65.751 32.977 65.7875C33.0686 65.7907 33.1593 65.7919 33.2509 65.7914C33.2785 65.7913 33.3061 65.7912 33.3345 65.7911C33.7989 65.7875 34.2584 65.7667 34.7176 65.6934C34.7176 65.6727 34.7176 65.652 34.7176 65.6307C34.7454 65.6314 34.7732 65.6321 34.8018 65.6329C34.8394 65.6334 34.877 65.634 34.9157 65.6346C34.9525 65.6353 34.9893 65.636 35.0272 65.6368C35.1206 65.6353 35.2045 65.6206 35.2955 65.5996C35.4972 65.556 35.697 65.5586 35.9025 65.5601C35.9624 65.5604 35.9624 65.5604 36.0234 65.5606C36.3083 65.5635 36.5816 65.5816 36.8622 65.6307C36.8905 65.6345 36.9189 65.6383 36.9481 65.6422C37.4241 65.7126 37.8411 65.9106 38.2536 66.1515C38.347 66.206 38.4383 66.2532 38.5405 66.2892C38.5405 66.3099 38.5405 66.3306 38.5405 66.3519C38.6805 66.4197 38.7863 66.4698 38.9446 66.446C39.1531 66.3475 39.2884 66.1469 39.3788 65.937C39.4021 65.8668 39.4221 65.7961 39.4419 65.7247C39.4623 65.6613 39.483 65.5979 39.504 65.5346C39.5144 65.5025 39.5248 65.4704 39.5355 65.4374C39.5609 65.3637 39.5902 65.2956 39.6225 65.225C39.7092 64.9945 39.6334 64.7201 39.5964 64.4846C39.5126 63.8941 39.5342 63.2898 39.6905 62.7143C39.6995 62.6802 39.6995 62.6802 39.7087 62.6454C39.7785 62.3852 39.8695 62.145 39.9971 61.907C40.0324 61.8362 40.0324 61.8362 40.0324 61.7735C39.4882 61.6089 38.9238 61.5154 38.3618 61.4364C38.3237 61.431 38.3237 61.431 38.2847 61.4254C37.2824 61.292 36.2557 61.3292 35.277 61.5854Z" fill="#A9BFD8"/>
<path d="M36.2095 61.6167C36.1473 61.6481 36.1473 61.6481 36.1128 61.7166C36.0823 61.8139 36.0769 61.893 36.0774 61.995C36.0772 62.027 36.0771 62.0591 36.0769 62.0921C36.0851 62.1809 36.0992 62.2326 36.1473 62.3066C36.1678 62.317 36.1883 62.3273 36.2095 62.338C36.2095 62.3587 36.2095 62.3794 36.2095 62.4007C36.1591 62.445 36.1591 62.445 36.0949 62.4889C35.9207 62.6174 35.7602 62.7422 35.7122 62.9652C35.7005 63.1188 35.7024 63.2532 35.7941 63.381C35.8474 63.4348 35.901 63.4835 35.9608 63.5296C35.9435 63.5425 35.9262 63.5555 35.9084 63.5688C35.8846 63.5869 35.8609 63.605 35.8365 63.6237C35.8102 63.6418 35.7839 63.6599 35.7568 63.6786C35.6224 63.8037 35.5828 63.9385 35.5704 64.1176C35.5757 64.311 35.661 64.4739 35.7743 64.6272C35.8205 64.6427 35.8205 64.6427 35.8676 64.6585C35.8778 64.6792 35.8881 64.6999 35.8987 64.7213C35.8727 64.7329 35.8727 64.7329 35.8462 64.7448C35.742 64.8016 35.6418 64.8633 35.5878 64.9721C35.5837 65.0559 35.5865 65.139 35.5878 65.223C35.6084 65.223 35.6289 65.223 35.65 65.223C35.6583 65.1894 35.6667 65.1557 35.6753 65.1211C35.7097 65.0115 35.7288 64.9593 35.8054 64.878C35.8966 64.836 35.8966 64.836 35.9977 64.8075C36.0315 64.797 36.0653 64.7865 36.1001 64.7756C36.1388 64.7642 36.1388 64.7642 36.1784 64.7526C36.1675 64.6649 36.1561 64.6342 36.0864 64.5782C36.0616 64.5633 36.0368 64.5484 36.0113 64.5331C35.9083 64.4708 35.8363 64.4188 35.7743 64.3136C35.7543 64.2371 35.7543 64.2371 35.7491 64.1568C35.7463 64.1303 35.7435 64.1038 35.7407 64.0764C35.7435 63.9917 35.7661 63.9482 35.8054 63.8746C35.8054 63.8435 35.8054 63.8125 35.8054 63.7805C35.8234 63.7748 35.8415 63.7691 35.86 63.7632C36.0041 63.7165 36.1379 63.665 36.2716 63.5923C36.2716 63.5406 36.2716 63.4888 36.2716 63.4355C36.2548 63.4302 36.2379 63.4249 36.2205 63.4194C36.1225 63.3859 36.0414 63.3576 35.9628 63.2885C35.8974 63.145 35.8891 63.0153 35.9181 62.8632C36.0218 62.654 36.2611 62.5679 36.4581 62.4634C36.4581 62.4117 36.4581 62.3599 36.4581 62.3066C36.4068 62.2963 36.3555 62.2859 36.3027 62.2753C36.2989 62.2584 36.295 62.2416 36.2911 62.2243C36.2716 62.1498 36.2716 62.1498 36.2386 62.0695C36.1977 61.9182 36.2045 61.7726 36.2095 61.6167Z" fill="#8FB0CB"/>
<path d="M38.727 62.2753C38.5544 62.2485 38.4579 62.3142 38.3225 62.4116C38.2487 62.4736 38.2067 62.5319 38.1676 62.6202C38.1569 62.6394 38.1462 62.6585 38.1351 62.6783C38.0728 62.8195 38.0804 62.9863 38.13 63.131C38.1825 63.2393 38.242 63.3464 38.323 63.4355C38.3435 63.4355 38.364 63.4355 38.3851 63.4355C38.3609 63.5324 38.3609 63.5324 38.2899 63.5943C38.2701 63.6143 38.2502 63.6344 38.2297 63.6551C38.2297 63.6757 38.2297 63.6964 38.2297 63.7178C38.199 63.7178 38.1682 63.7178 38.1365 63.7178C38.0904 63.9271 38.0468 64.1736 38.1518 64.3682C38.2881 64.5469 38.2881 64.5469 38.3851 64.5958C38.3515 64.675 38.3208 64.7233 38.2589 64.784C38.1963 64.8492 38.18 64.8839 38.1676 64.9721C38.147 64.9721 38.1265 64.9721 38.1054 64.9721C38.0883 65.4336 38.0883 65.4336 38.1986 65.6307C38.2108 65.6559 38.223 65.6811 38.2356 65.7071C38.2439 65.7233 38.2522 65.7394 38.2608 65.7561C38.2813 65.7561 38.3018 65.7561 38.323 65.7561C38.3311 65.7744 38.3392 65.7927 38.3475 65.8116C38.3875 65.886 38.431 65.9372 38.49 65.9972C38.5082 66.016 38.5264 66.0349 38.5451 66.0544C38.6066 66.1042 38.65 66.1196 38.727 66.1324C38.7065 66.0807 38.686 66.0289 38.6649 65.9756C38.6341 65.9756 38.6033 65.9756 38.5716 65.9756C38.5591 65.9409 38.5591 65.9409 38.5464 65.9054C38.5107 65.8216 38.4702 65.7601 38.4162 65.6875C38.2904 65.5006 38.2476 65.3106 38.2666 65.0858C38.2908 64.9769 38.3135 64.9283 38.3851 64.8467C38.3851 64.826 38.3851 64.8053 38.3851 64.784C38.4095 64.7743 38.4338 64.7646 38.4589 64.7546C38.5405 64.7213 38.5405 64.7213 38.6027 64.6899C38.6027 64.6588 38.6027 64.6278 38.6027 64.5958C38.5745 64.5771 38.5463 64.5583 38.5172 64.539C38.3902 64.4527 38.3125 64.37 38.2763 64.2162C38.2544 64.0553 38.266 63.9089 38.2919 63.7491C38.3236 63.7385 38.3236 63.7385 38.356 63.7276C38.472 63.6753 38.563 63.6062 38.6649 63.5296C38.6629 63.4571 38.6629 63.4571 38.6338 63.3728C38.5992 63.3579 38.5645 63.3431 38.5289 63.3277C38.4091 63.2887 38.4091 63.2887 38.356 63.1788C38.3451 63.1497 38.3342 63.1206 38.323 63.0906C38.3025 63.0906 38.2819 63.0906 38.2608 63.0906C38.2623 62.7757 38.2623 62.7757 38.393 62.5019C38.4709 62.4404 38.5481 62.3876 38.6338 62.338C38.6645 62.3173 38.6953 62.2966 38.727 62.2753Z" fill="#90B0CB"/>
<path d="M37.2351 61.993C36.9689 61.9845 36.9689 61.9845 36.8633 62.079C36.7362 62.2502 36.6792 62.4037 36.7068 62.6202C36.7416 62.728 36.7842 62.8308 36.8311 62.9338C36.8516 62.9338 36.8721 62.9338 36.8932 62.9338C36.8932 62.9648 36.8932 62.9959 36.8932 63.0279C36.8317 63.0809 36.7696 63.1332 36.7068 63.1847C36.7068 63.2054 36.7068 63.2261 36.7068 63.2474C36.6862 63.2474 36.6657 63.2474 36.6446 63.2474C36.5411 63.4153 36.511 63.5831 36.5203 63.7805C36.5625 63.9454 36.6181 64.0687 36.7378 64.1882C36.7481 64.2192 36.7584 64.2502 36.7689 64.2822C36.7503 64.2906 36.7317 64.299 36.7126 64.3077C36.644 64.3453 36.6 64.3777 36.5514 64.439C36.5514 64.4701 36.5514 64.5011 36.5514 64.5331C36.5308 64.5331 36.5103 64.5331 36.4892 64.5331C36.4283 64.725 36.45 64.9119 36.5203 65.0976C36.568 65.1661 36.619 65.2241 36.6757 65.2857C36.7167 65.2754 36.7577 65.265 36.8 65.2544C36.7744 65.2291 36.7487 65.2039 36.7223 65.1779C36.5845 64.99 36.6335 64.723 36.6446 64.5017C36.6678 64.4931 36.691 64.4844 36.7149 64.4755C36.8301 64.4261 36.9173 64.3576 37.0176 64.2822C37.0052 64.2659 36.9928 64.2496 36.9801 64.2329C36.9636 64.211 36.9471 64.1891 36.9302 64.1666C36.9058 64.1344 36.9058 64.1344 36.881 64.1015C36.7739 63.9509 36.7253 63.8603 36.7281 63.6707C36.7283 63.6188 36.7283 63.6188 36.7285 63.5659C36.7377 63.4686 36.7592 63.3981 36.8 63.3101C36.8205 63.3101 36.841 63.3101 36.8622 63.3101C36.914 63.2578 36.9658 63.2056 37.0176 63.1533C37.0849 63.1127 37.0849 63.1127 37.1419 63.0906C37.1316 63.0492 37.1214 63.0078 37.1108 62.9652C37.0903 62.9652 37.0698 62.9652 37.0487 62.9652C37.039 62.9458 37.0294 62.9263 37.0195 62.9064C36.9981 62.8632 36.9768 62.8201 36.9554 62.777C36.9349 62.777 36.9144 62.777 36.8932 62.777C36.8599 62.4668 36.8599 62.4668 36.9593 62.189C37.048 62.119 37.1314 62.0682 37.2351 62.0244C37.2351 62.014 37.2351 62.0037 37.2351 61.993Z" fill="#90B0CB"/>
<path d="M35.9608 61.899C35.876 61.8973 35.7912 61.896 35.7063 61.895C35.6705 61.8942 35.6705 61.8942 35.6339 61.8934C35.5004 61.8923 35.3989 61.8991 35.277 61.9617C35.277 61.9824 35.277 62.0031 35.277 62.0244C35.2482 62.036 35.2482 62.036 35.2188 62.0479C35.1386 62.0955 35.1236 62.1258 35.0905 62.2125C35.0836 62.358 35.0893 62.4874 35.1838 62.6006C35.2043 62.6174 35.2248 62.6342 35.246 62.6516C35.2704 62.7186 35.2704 62.7186 35.277 62.777C35.2546 62.7789 35.2322 62.7809 35.209 62.7829C35.0943 62.8163 35.0467 62.8777 34.9662 62.9652C34.9438 62.9813 34.9213 62.9975 34.8982 63.0142C34.812 63.0832 34.7844 63.1533 34.7682 63.2625C34.7614 63.5434 34.8565 63.722 35.0284 63.9373C35.0964 63.9765 35.0964 63.9765 35.1527 64C35.1373 64.031 35.1373 64.031 35.1216 64.0627C35.1025 64.067 35.0834 64.0713 35.0637 64.0757C34.98 64.0989 34.9528 64.1329 34.8982 64.1999C34.8824 64.2189 34.8666 64.2379 34.8503 64.2575C34.7718 64.369 34.7764 64.4695 34.7778 64.6017C34.7781 64.6358 34.7784 64.6699 34.7786 64.705C34.779 64.731 34.7794 64.7571 34.7797 64.784C34.8002 64.784 34.8208 64.784 34.8419 64.784C34.8509 64.8092 34.8598 64.8344 34.8691 64.8604C34.9041 64.9408 34.9041 64.9408 34.9662 64.9721C34.9612 64.9498 34.9561 64.9274 34.9509 64.9044C34.917 64.7131 34.9051 64.4673 34.9662 64.2822C35.035 64.2481 35.035 64.2481 35.1216 64.2195C35.1977 64.1607 35.2686 64.0967 35.3392 64.0314C35.3153 63.9128 35.2761 63.8595 35.1838 63.7805C35.1633 63.7805 35.1428 63.7805 35.1216 63.7805C35.1216 63.7598 35.1216 63.7391 35.1216 63.7178C35.0909 63.7023 35.0909 63.7023 35.0595 63.6864C34.9675 63.5407 34.9791 63.3825 34.9973 63.216C35.0296 63.1034 35.0806 63.024 35.1798 62.9576C35.2423 62.9249 35.3048 62.8971 35.3703 62.8711C35.401 62.8581 35.4318 62.8452 35.4635 62.8319C35.484 62.8241 35.5045 62.8164 35.5257 62.8084C35.4782 62.7006 35.4168 62.6143 35.3392 62.5261C35.3187 62.5261 35.2982 62.5261 35.277 62.5261C35.2762 62.4706 35.2756 62.4151 35.2751 62.3595C35.2747 62.3286 35.2744 62.2977 35.274 62.2658C35.2732 62.1781 35.2732 62.1781 35.3081 62.0871C35.3834 62.0504 35.3834 62.0504 35.4635 62.0244C35.484 62.014 35.5045 62.0037 35.5257 61.993C35.6048 61.9858 35.6834 61.9799 35.7627 61.9754C35.7846 61.974 35.8066 61.9727 35.8292 61.9713C35.8834 61.968 35.9377 61.9648 35.9919 61.9617C35.9816 61.941 35.9714 61.9203 35.9608 61.899Z" fill="#90B0CB"/>
<path d="M37.7946 61.6481C37.7741 61.6481 37.7536 61.6481 37.7324 61.6481C37.5632 61.8668 37.5169 62.0977 37.5459 62.3693C37.5715 62.4562 37.6048 62.5363 37.6392 62.6202C37.6392 62.7598 37.6169 62.7826 37.5238 62.8787C37.3817 63.0742 37.4034 63.3312 37.4216 63.561C37.4445 63.6451 37.4718 63.7044 37.5149 63.7805C37.5456 63.7805 37.5764 63.7805 37.6081 63.7805C37.6184 63.8219 37.6286 63.8633 37.6392 63.9059C37.6207 63.9141 37.6022 63.9223 37.5831 63.9308C37.511 63.9708 37.4706 64.0095 37.4177 64.0725C37.4023 64.0905 37.3868 64.1085 37.3709 64.127C37.2332 64.3251 37.2368 64.551 37.2662 64.784C37.3371 64.9537 37.4524 65.094 37.6081 65.1916C37.6389 65.1916 37.6696 65.1916 37.7013 65.1916C37.6703 65.0976 37.6703 65.0976 37.6139 65.0446C37.4813 64.9032 37.4142 64.7583 37.408 64.5625C37.4165 64.3765 37.469 64.2444 37.5867 64.1C37.6753 64.0273 37.7469 63.997 37.8568 63.9686C37.8684 63.9 37.8684 63.9 37.8568 63.8118C37.7693 63.7315 37.7693 63.7315 37.7202 63.6961C37.6204 63.614 37.5805 63.5583 37.5646 63.4268C37.5649 63.389 37.5651 63.3511 37.5654 63.3121C37.5651 63.2743 37.5649 63.2365 37.5646 63.1975C37.5778 63.0837 37.6024 63.0245 37.6703 62.9338C37.734 62.8964 37.734 62.8964 37.7946 62.8711C37.8048 62.8504 37.8151 62.8297 37.8257 62.8084C37.8564 62.7877 37.8872 62.767 37.9189 62.7456C37.891 62.7059 37.891 62.7059 37.8626 62.6653C37.7173 62.441 37.6716 62.2613 37.7013 61.993C37.7262 61.9051 37.7588 61.8265 37.7946 61.7422C37.7946 61.7111 37.7946 61.6801 37.7946 61.6481Z" fill="#8FAFCA"/>
<path d="M39.5973 61.8362C39.4993 61.8582 39.4099 61.8907 39.3176 61.9303C39.2972 61.9386 39.2769 61.947 39.2559 61.9555C39.1277 62.0322 39.0809 62.168 39.0378 62.3066C39.0181 62.5016 39.0093 62.6933 39.0731 62.8803C39.0819 62.9083 39.0908 62.9363 39.1 62.9652C39.0489 63.0485 39.0489 63.0485 38.9757 63.1219C38.8723 63.2486 38.8636 63.3662 38.8668 63.5253C38.896 63.7089 38.9828 63.8687 39.0689 64.0314C39.0894 64.0314 39.11 64.0314 39.1311 64.0314C39.1311 64.0728 39.1311 64.1141 39.1311 64.1568C39.1106 64.1568 39.0901 64.1568 39.0689 64.1568C38.9283 64.4317 38.8945 64.7076 38.9695 65.0097C39.0165 65.1468 39.064 65.2715 39.1622 65.3798C39.1929 65.3798 39.2237 65.3798 39.2554 65.3798C39.2398 65.2981 39.2163 65.2388 39.1777 65.1642C39.0807 64.9604 39.0745 64.7244 39.1 64.5017C39.1319 64.415 39.1695 64.3388 39.2153 64.2588C39.2585 64.1827 39.2948 64.1163 39.3176 64.0314C39.285 63.9689 39.285 63.9689 39.2321 63.9098C39.0896 63.7339 39.0482 63.5494 39.0502 63.3241C39.0852 63.1806 39.2008 63.1073 39.3176 63.0279C39.2827 62.9385 39.2463 62.8519 39.2049 62.7652C39.1357 62.5813 39.1456 62.4578 39.2243 62.2811C39.2359 62.2577 39.2474 62.2342 39.2593 62.21C39.2865 62.1498 39.2865 62.1498 39.2865 62.0871C39.307 62.0871 39.3275 62.0871 39.3487 62.0871C39.3487 62.0561 39.3487 62.025 39.3487 61.993C39.3842 61.9872 39.3842 61.9872 39.4205 61.9813C39.5041 61.9617 39.5041 61.9617 39.5973 61.899C39.5973 61.8783 39.5973 61.8576 39.5973 61.8362Z" fill="#8FAFCA"/>
<path d="M34.5 62.2439C34.2171 62.2499 34.2171 62.2499 34.1115 62.3458C34.0961 62.3743 34.0807 62.4027 34.0649 62.4321C34.052 62.4553 34.0392 62.4786 34.026 62.5026C33.9776 62.6817 33.9794 62.8608 34.0649 63.0279C34.0854 63.0279 34.1059 63.0279 34.127 63.0279C34.127 63.0486 34.127 63.0693 34.127 63.0906C34.1475 63.1009 34.1681 63.1113 34.1892 63.122C34.1448 63.2284 34.0912 63.2849 34.0027 63.3571C33.873 63.463 33.8229 63.5299 33.8047 63.6998C33.7979 64.0983 33.7979 64.0983 33.9249 64.2395C33.9403 64.2536 33.9557 64.2677 33.9716 64.2822C33.988 64.298 34.0044 64.3137 34.0213 64.3299C34.1426 64.439 34.1426 64.439 34.2203 64.439C34.21 64.4804 34.1998 64.5218 34.1892 64.5645C34.1687 64.5645 34.1482 64.5645 34.127 64.5645C34.0267 64.7891 33.9629 64.9595 34.0338 65.2054C34.0492 65.2451 34.0492 65.2451 34.0649 65.2857C34.0958 65.192 34.0974 65.136 34.094 65.0388C34.0928 64.9172 34.1007 64.8306 34.1581 64.7213C34.1671 64.6986 34.1761 64.676 34.1853 64.6527C34.2291 64.5815 34.269 64.5654 34.3446 64.5331C34.3754 64.5124 34.4061 64.4917 34.4378 64.4704C34.4378 64.4497 34.4378 64.429 34.4378 64.4077C34.2696 64.2822 34.2696 64.2822 34.1892 64.2822C34.1892 64.2615 34.1892 64.2408 34.1892 64.2195C34.1584 64.1988 34.1276 64.1781 34.0959 64.1568C34.0144 64.0045 33.9674 63.8611 34.0027 63.6864C34.0722 63.5281 34.1676 63.4034 34.3135 63.3101C34.4123 63.2707 34.4123 63.2707 34.5 63.2474C34.4961 63.1945 34.4961 63.1945 34.4689 63.122C34.4225 63.0833 34.3761 63.0447 34.3289 63.0071C34.1791 62.872 34.1702 62.6842 34.1581 62.4948C34.1786 62.4948 34.1991 62.4948 34.2203 62.4948C34.2389 62.4702 34.2575 62.4456 34.2766 62.4203C34.3485 62.3333 34.3945 62.3078 34.5 62.2753C34.5 62.2649 34.5 62.2546 34.5 62.2439Z" fill="#90B0CB"/>
<path d="M33.4122 62.6516C33.1543 62.687 33.1543 62.687 33.0552 62.7967C32.9506 62.9579 32.9104 63.0868 32.9459 63.2787C33.0059 63.4668 33.1031 63.5693 33.2568 63.6864C33.267 63.7071 33.2773 63.7278 33.2878 63.7491C33.266 63.7562 33.2442 63.7634 33.2218 63.7707C33.0792 63.8363 32.9729 63.9129 32.9032 64.0568C32.8518 64.3213 32.8862 64.5524 33.0353 64.7781C33.1051 64.8506 33.1751 64.9136 33.2568 64.9721C33.2773 64.9721 33.2978 64.9721 33.3189 64.9721C33.3189 64.9928 33.3189 65.0135 33.3189 65.0348C33.3958 65.0504 33.3958 65.0504 33.4743 65.0662C33.4491 65.0054 33.4491 65.0054 33.4122 64.9408C33.366 64.9252 33.366 64.9252 33.3189 64.9094C33.3189 64.8887 33.3189 64.868 33.3189 64.8467C33.2984 64.8467 33.2779 64.8467 33.2568 64.8467C33.2568 64.826 33.2568 64.8053 33.2568 64.784C33.2362 64.784 33.2157 64.784 33.1946 64.784C33.185 64.7594 33.1754 64.7348 33.1655 64.7095C33.1324 64.6272 33.1324 64.6272 33.1013 64.5645C33.0808 64.5645 33.0603 64.5645 33.0392 64.5645C33.0359 64.383 33.0394 64.2103 33.0703 64.0314C33.0927 64.0229 33.1151 64.0145 33.1383 64.0059C33.2254 63.9688 33.301 63.9251 33.3811 63.8746C33.4099 63.8571 33.4388 63.8396 33.4685 63.8216C33.4909 63.8081 33.5134 63.7945 33.5365 63.7805C33.5249 63.699 33.5148 63.6633 33.4523 63.6083C33.4308 63.5939 33.4092 63.5796 33.3869 63.5649C33.2492 63.4648 33.1531 63.3759 33.116 63.2016C33.0977 63.0601 33.0864 62.9642 33.1635 62.8397C33.2426 62.7679 33.3075 62.7331 33.4122 62.7143C33.4122 62.6936 33.4122 62.6729 33.4122 62.6516Z" fill="#90B0CB"/>
<path d="M32.573 63.1533C32.3967 63.1441 32.2935 63.1531 32.1378 63.2474C32.1378 63.2681 32.1378 63.2888 32.1378 63.3101C32.1173 63.3101 32.0968 63.3101 32.0757 63.3101C32.0757 63.3411 32.0757 63.3722 32.0757 63.4042C32.0552 63.4042 32.0346 63.4042 32.0135 63.4042C31.9046 63.569 31.9064 63.7837 31.9358 63.9765C32.0048 64.1042 32.0943 64.2145 32.2 64.3136C32.2205 64.3136 32.241 64.3136 32.2622 64.3136C32.2042 64.4274 32.2042 64.4274 32.1068 64.5017C32.0636 64.6161 32.0693 64.7375 32.0679 64.8584C32.0671 64.8988 32.0663 64.9391 32.0655 64.9807C32.0762 65.1042 32.1071 65.1797 32.1689 65.2857C32.2 65.1916 32.2 65.1916 32.1709 65.125C32.1252 65.0002 32.121 64.8843 32.1378 64.7526C32.1801 64.6773 32.1801 64.6773 32.2311 64.6272C32.2311 64.6065 32.2311 64.5858 32.2311 64.5645C32.2484 64.5567 32.2657 64.5489 32.2835 64.5409C32.3678 64.495 32.4373 64.4381 32.5108 64.3763C32.4747 64.267 32.4516 64.2567 32.3593 64.196C32.2295 64.1026 32.186 64.0263 32.1378 63.8746C32.1173 63.8746 32.0968 63.8746 32.0757 63.8746C32.0868 63.6582 32.1082 63.5018 32.2719 63.3513C32.3709 63.2693 32.4458 63.2331 32.573 63.216C32.573 63.1953 32.573 63.1746 32.573 63.1533Z" fill="#8FB0CA"/>
<path d="M31.7027 63.6864C31.4842 63.7058 31.3173 63.7424 31.1452 63.8902C31.0437 64.0256 31.0633 64.1839 31.0811 64.345C31.0971 64.4313 31.118 64.5115 31.1432 64.5958C31.1638 64.5958 31.1843 64.5958 31.2054 64.5958C31.2054 64.6372 31.2054 64.6786 31.2054 64.7213C31.2259 64.7213 31.2464 64.7213 31.2676 64.7213C31.2801 64.7581 31.2801 64.7581 31.2928 64.7957C31.3297 64.8781 31.3297 64.8781 31.423 64.9408C31.4537 64.9408 31.4845 64.9408 31.5162 64.9408C31.5162 64.9615 31.5162 64.9822 31.5162 65.0035C31.5778 65.0035 31.6393 65.0035 31.7027 65.0035C31.713 64.9621 31.7232 64.9207 31.7338 64.8781C31.7176 64.8712 31.7015 64.8643 31.6849 64.8572C31.4916 64.7686 31.384 64.6766 31.2889 64.4802C31.2499 64.2905 31.2202 64.1054 31.3278 63.9373C31.4471 63.8587 31.5657 63.8175 31.7027 63.7805C31.7027 63.7494 31.7027 63.7184 31.7027 63.6864Z" fill="#8EB0CA"/>
<path d="M30.4595 63.8118C30.4287 63.8118 30.3979 63.8118 30.3662 63.8118C30.3662 63.8325 30.3662 63.8532 30.3662 63.8746C30.3483 63.8823 30.3303 63.8901 30.3118 63.8981C30.1985 63.9616 30.1336 64.0279 30.0787 64.147C30.03 64.3639 30.0343 64.5337 30.1443 64.7298C30.2039 64.8208 30.2591 64.8906 30.3604 64.9329C30.6055 64.9612 30.6055 64.9612 30.7081 64.9094C30.6765 64.823 30.6585 64.7902 30.5752 64.7487C30.5479 64.7396 30.5206 64.7306 30.4925 64.7213C30.3704 64.6806 30.3053 64.6487 30.2419 64.5331C30.2105 64.3451 30.2378 64.1951 30.3351 64.0314C30.3351 64.0107 30.3351 63.99 30.3351 63.9686C30.3557 63.9686 30.3762 63.9686 30.3973 63.9686C30.4178 63.9169 30.4383 63.8652 30.4595 63.8118Z" fill="#91B0CB"/>
<path d="M29.5581 63.8746C29.4347 63.903 29.3846 63.9525 29.3192 64.0568C29.1947 64.2764 29.161 64.4295 29.2065 64.684C29.2473 64.784 29.2473 64.784 29.3172 64.8291C29.4102 64.8482 29.4945 64.8511 29.5892 64.8467C29.5892 64.795 29.5892 64.7432 29.5892 64.6899C29.5517 64.6754 29.5517 64.6754 29.5134 64.6605C29.4372 64.6346 29.4372 64.6346 29.4027 64.5958C29.4009 64.3753 29.4319 64.1882 29.532 63.9919C29.5581 63.9373 29.5581 63.9373 29.5581 63.8746Z" fill="#92B1CB"/>
<path d="M28.9365 63.9686C28.8852 63.9686 28.8339 63.9686 28.7811 63.9686C28.7811 63.9893 28.7811 64.01 28.7811 64.0314C28.7619 64.0333 28.7426 64.0352 28.7228 64.0372C28.6568 64.0627 28.6568 64.0627 28.616 64.1254C28.5866 64.2545 28.5995 64.3725 28.6257 64.5017C28.6568 64.5331 28.6568 64.5331 28.7364 64.5351C28.7614 64.5344 28.7864 64.5338 28.8122 64.5331C28.8081 64.5107 28.8041 64.4884 28.7999 64.4654C28.7677 64.2487 28.7677 64.2487 28.8568 64.0568C28.8831 64.0277 28.9094 63.9986 28.9365 63.9686Z" fill="#90AFC8"/>
<path d="M40.15 63.75C40.15 64.0814 40.4186 64.35 40.75 64.35C41.0814 64.35 41.35 64.0814 41.35 63.75C41.35 63.4186 41.0814 63.15 40.75 63.15C40.4186 63.15 40.15 63.4186 40.15 63.75Z" fill="#6396B5"/>
<path d="M40.3 63.6C40.3 63.9314 40.5686 64.2 40.9 64.2C41.2314 64.2 41.5 63.9314 41.5 63.6C41.5 63.2686 41.2314 63 40.9 63C40.5686 63 40.3 63.2686 40.3 63.6Z" fill="#FBD850"/>
<path d="M40.45 63.6C40.45 63.8485 40.6515 64.05 40.9 64.05C41.1485 64.05 41.35 63.8485 41.35 63.6C41.35 63.3515 41.1485 63.15 40.9 63.15C40.6515 63.15 40.45 63.3515 40.45 63.6Z" fill="#F8AE26"/>
<path d="M40.45 63.675C40.45 63.8821 40.6179 64.05 40.825 64.05C41.0321 64.05 41.2 63.8821 41.2 63.675C41.2 63.4679 41.0321 63.3 40.825 63.3C40.6179 63.3 40.45 63.4679 40.45 63.675Z" fill="black"/>
<circle cx="0.15" cy="0.15" r="0.15" transform="matrix(-1 0 0 1 40.75 63.3)" fill="#F7F6F5"/>
<circle cx="0.075" cy="0.075" r="0.075" transform="matrix(-1 0 0 1 40.75 63.6)" fill="#F7F6F5"/>
</g>
<g clip-path="url(#clip2_8_44)">
<path d="M72.136 52.3414C72.2253 52.3414 72.2253 52.3414 72.3165 52.3414C72.9186 52.3442 73.4985 52.3785 74.087 52.5089C74.1363 52.5195 74.1856 52.5301 74.2364 52.5411C74.5646 52.6122 74.8926 52.6838 75.2162 52.7735C75.2625 52.7863 75.3088 52.7991 75.3564 52.8123C76.0839 53.0242 76.8521 53.2936 77.4865 53.7143C77.4262 53.8702 77.3583 54.0167 77.2796 54.1641C77.1031 54.5129 76.9042 54.9163 76.9662 55.3136C77.0769 55.4064 77.1626 55.4636 77.2884 55.5282C77.321 55.5462 77.3535 55.5642 77.387 55.5827C77.4827 55.6353 77.579 55.6862 77.6757 55.7369C77.7614 55.784 77.8471 55.831 77.9329 55.878C77.9747 55.9005 78.0166 55.9229 78.0598 55.946C78.5409 56.2044 79.0129 56.4771 79.4826 56.7555C80.0752 57.1068 80.6732 57.447 81.2771 57.7789C81.4035 57.8489 81.5292 57.9199 81.6547 57.9915C82.2206 58.3116 82.8032 58.5782 83.4027 58.8303C83.531 58.8844 83.6586 58.9399 83.7861 58.9958C83.8579 59.0267 83.9298 59.0576 84.0017 59.0884C84.0335 59.1025 84.0653 59.1166 84.0981 59.1312C84.2833 59.2088 84.3891 59.2252 84.5811 59.1707C85.0569 58.9111 85.5197 58.5455 85.8108 58.0888C85.8586 58.0148 85.8586 58.0148 85.9074 57.9393C86.0731 57.6757 86.2254 57.4058 86.3714 57.131C86.8853 56.1648 87.471 55.2486 88.5813 54.8989C88.9451 54.7977 89.2834 54.7775 89.6596 54.7844C89.7133 54.7846 89.7671 54.7849 89.8224 54.7851C90.0678 54.7874 90.2987 54.7987 90.5405 54.8432C90.4797 55.0112 90.4076 55.1375 90.2981 55.2783C89.7366 56.0664 89.5639 56.9091 89.4895 57.8544C89.4151 58.7385 89.0998 59.5496 88.4122 60.1409C88.3419 60.1962 88.3419 60.1962 88.2703 60.2526C88.3156 60.2963 88.3156 60.2963 88.3619 60.3408C88.4103 60.3897 88.4585 60.4387 88.5068 60.4878C88.5388 60.5193 88.5709 60.5509 88.6039 60.5834C88.8227 60.8092 88.9916 61.0386 89.1394 61.3139C89.1546 61.3422 89.1698 61.3704 89.1854 61.3995C89.3892 61.796 89.4864 62.2113 89.5739 62.6457C89.5838 62.6933 89.5936 62.7409 89.6037 62.7899C89.6515 63.0226 89.6965 63.2554 89.7376 63.4893C89.8762 64.2525 90.2258 64.9004 90.6824 65.5209C90.6668 65.552 90.6512 65.583 90.6351 65.615C90.4749 65.6407 90.324 65.654 90.1622 65.662C90.1298 65.6636 90.0974 65.6652 90.064 65.6669C89.0005 65.712 88.2187 65.4477 87.4189 64.7213C86.9724 64.2836 86.6493 63.7449 86.3221 63.2176C86.1189 62.8926 85.8986 62.5821 85.6689 62.2753C85.646 62.2431 85.6231 62.2109 85.5995 62.1777C85.4072 61.9276 85.1394 61.7645 84.8821 61.587C84.6592 61.4326 84.4494 61.2792 84.2973 61.0523C83.747 61.0858 83.223 61.3253 82.7158 61.5256C82.6766 61.541 82.6375 61.5565 82.5971 61.5724C82.4223 61.6425 82.2517 61.7151 82.0845 61.8018C81.9279 61.8816 81.7685 61.9449 81.6038 62.0064C81.2572 62.1365 80.9204 62.285 80.5826 62.4359C80.396 62.5193 80.2091 62.6021 80.0223 62.685C79.9843 62.7019 79.9464 62.7187 79.9073 62.7361C78.1112 63.5336 78.1112 63.5336 77.3751 63.8093C77.2125 63.8708 77.0524 63.9363 76.8923 64.0039C76.6678 64.0983 76.4419 64.1777 76.2095 64.2509C76.6569 64.4722 77.1328 64.6121 77.6284 64.6742C77.662 64.9751 77.5971 65.145 77.4436 65.4037C77.1957 65.6972 76.8687 65.8645 76.5228 66.0207C76.4831 66.039 76.4434 66.0572 76.4025 66.076C75.5145 66.4817 74.4859 66.9032 73.5076 66.5528C72.9618 66.3048 72.5981 65.9109 72.3311 65.3798C72.0502 65.3699 71.7772 65.3751 71.4985 65.4135C69.5374 65.6785 67.4517 65.3624 65.6681 64.5092C65.5535 64.4548 65.4388 64.404 65.3222 64.3541C64.5662 64.0211 63.8617 63.5684 63.2027 63.0749C63.1743 63.054 63.1459 63.033 63.1166 63.0115C62.7741 62.7581 62.4538 62.4853 62.1415 62.1959C62.1107 62.1674 62.0799 62.1389 62.0483 62.1096C61.372 61.4719 60.3599 60.4247 60.288 59.4559C60.3235 58.7035 61.1413 57.9752 61.6419 57.4774C61.7408 57.3649 61.8391 57.252 61.9366 57.1383C61.9642 57.1105 61.9918 57.0827 62.0203 57.054C62.0515 57.054 62.0827 57.054 62.1149 57.054C62.1269 57.0262 62.139 56.9983 62.1514 56.9697C62.2154 56.8552 62.2802 56.7937 62.3809 56.71C62.431 56.668 62.431 56.668 62.4822 56.6251C62.517 56.5959 62.5519 56.5667 62.5878 56.5366C62.6879 56.4472 62.7878 56.3576 62.8875 56.2678C62.9662 56.2073 62.9662 56.2073 63.0608 56.2073C63.0608 56.1763 63.0608 56.1452 63.0608 56.1132C63.1673 56.0246 63.2742 55.942 63.386 55.8604C63.4197 55.8356 63.4534 55.8107 63.4881 55.7851C63.8725 55.5045 64.2683 55.2413 64.6689 54.9843C64.7344 54.9423 64.7344 54.9423 64.8012 54.8994C65.365 54.5513 65.9735 54.2873 66.5858 54.0369C66.9202 53.8994 67.245 53.7518 67.5655 53.5847C68.4137 53.146 69.3167 52.7968 70.25 52.5854C70.3025 52.5726 70.355 52.5598 70.4091 52.5466C70.5608 52.5102 70.7119 52.4752 70.8649 52.4442C70.9045 52.4361 70.9442 52.428 70.9851 52.4196C71.3707 52.3474 71.7444 52.3376 72.136 52.3414Z" fill="#8CAFCA"/>
<path d="M72.136 52.3414C72.2253 52.3414 72.2253 52.3414 72.3165 52.3414C72.9186 52.3442 73.4985 52.3785 74.087 52.5089C74.1363 52.5195 74.1856 52.5301 74.2364 52.5411C74.5646 52.6122 74.8926 52.6838 75.2162 52.7735C75.2625 52.7863 75.3088 52.7991 75.3564 52.8123C76.0839 53.0242 76.8521 53.2937 77.4865 53.7143C77.4262 53.8702 77.3583 54.0167 77.2796 54.1641C77.1031 54.5129 76.9042 54.9163 76.9662 55.3136C77.0769 55.4064 77.1626 55.4636 77.2884 55.5282C77.321 55.5462 77.3535 55.5642 77.387 55.5827C77.4827 55.6353 77.579 55.6862 77.6757 55.7369C77.7614 55.784 77.8471 55.831 77.9329 55.8781C77.9747 55.9005 78.0166 55.9229 78.0598 55.946C78.5409 56.2044 79.0129 56.4771 79.4826 56.7555C80.0752 57.1068 80.6732 57.447 81.2771 57.7789C81.4035 57.8489 81.5292 57.9199 81.6547 57.9915C82.1449 58.2686 82.6442 58.5051 83.1641 58.7226C83.2366 58.7532 83.2366 58.7532 83.3105 58.7843C83.3538 58.8022 83.3971 58.8201 83.4416 58.8385C83.5405 58.8885 83.5405 58.8885 83.5878 58.9826C83.2358 58.9965 82.9204 58.9443 82.5769 58.8709C82.476 58.8499 82.3751 58.8289 82.2742 58.808C82.2251 58.7977 82.1761 58.7875 82.1255 58.7769C81.9843 58.7483 81.843 58.7228 81.7011 58.6981C81.5153 58.6651 81.3378 58.6231 81.1579 58.5651C81.1063 58.5487 81.0547 58.5323 81.0015 58.5153C80.9497 58.4988 80.8979 58.4822 80.8446 58.4652C80.7431 58.4347 80.6416 58.4043 80.5401 58.374C80.212 58.2739 79.8899 58.1591 79.5676 58.0418C79.5676 58.0108 79.5676 57.9797 79.5676 57.9477C79.5364 57.9429 79.5053 57.938 79.4732 57.933C79.2916 57.8917 79.1223 57.8279 78.9497 57.7596C78.9102 57.7439 78.8706 57.7283 78.8298 57.7122C78.315 57.5031 77.8151 57.2601 77.3148 57.019C76.8289 56.786 76.3365 56.5829 75.8311 56.3955C75.7633 56.3701 75.6955 56.3448 75.6278 56.3194C75.1831 56.1542 74.7409 56.0091 74.2766 55.91C74.1823 55.8897 74.0883 55.8676 73.995 55.8431C72.0092 55.3323 69.7676 55.5593 67.8001 56.035C67.5604 56.0929 67.3266 56.1346 67.0811 56.1603C67.1062 56.2109 67.1313 56.2615 67.1572 56.3137C67.3585 56.7249 67.537 57.1259 67.6487 57.5714C67.6572 57.603 67.6657 57.6347 67.6745 57.6672C67.8109 58.182 67.8549 58.6797 67.8556 59.2119C67.8557 59.2677 67.8557 59.3236 67.8558 59.3811C67.8482 59.9888 67.7517 60.5601 67.5836 61.1434C67.5698 61.1938 67.5561 61.2441 67.5419 61.296C67.4641 61.5702 67.3753 61.7989 67.223 62.0401C67.187 62.1468 67.187 62.1468 67.1757 62.2282C67.1445 62.2282 67.1132 62.2282 67.0811 62.2282C67.0754 62.2759 67.0754 62.2759 67.0696 62.3245C67.0234 62.5038 66.9355 62.6484 66.8387 62.8044C66.8196 62.8357 66.8004 62.8669 66.7807 62.8991C66.6287 63.1436 66.4638 63.3726 66.277 63.5923C66.2357 63.6412 66.2357 63.6412 66.1935 63.691C66.1273 63.7684 66.0604 63.8451 65.9932 63.9216C65.9776 63.8906 65.962 63.8595 65.9459 63.8275C66.0038 63.7233 66.0038 63.7233 66.0908 63.5953C66.4543 63.0408 66.7037 62.4687 66.9392 61.8519C66.9513 61.8211 66.9635 61.7903 66.976 61.7586C67.3062 60.9176 67.3824 60.0419 67.3856 59.1472C67.386 59.0942 67.386 59.0942 67.3864 59.0401C67.3939 57.6463 66.9069 56.3687 66.1706 55.196C66.1364 55.1408 66.1364 55.1408 66.1014 55.0845C65.961 54.8671 65.8178 54.721 65.6149 54.561C65.6149 54.5299 65.6149 54.4989 65.6149 54.4669C66.0015 54.2794 66.3852 54.0971 66.7914 53.9554C67.0754 53.8552 67.3344 53.7291 67.5984 53.5849C68.6166 53.0325 69.7286 52.6638 70.8649 52.4443C70.9069 52.4357 70.949 52.4272 70.9923 52.4184C71.3752 52.3466 71.747 52.3376 72.136 52.3414Z" fill="#6195B5"/>
<path d="M65.7 54.3077C65.7234 54.3543 65.7234 54.3543 65.7473 54.4018C65.7911 54.423 65.7911 54.423 65.8358 54.4446C66.5572 54.8118 67.0653 56.3183 67.3081 57.0359C67.7493 58.458 67.7516 60.4343 67.0716 61.7868C66.9993 61.8278 66.925 61.8656 66.8499 61.9014C66.8097 61.9208 66.7696 61.9401 66.7282 61.9601C66.6641 61.9907 66.6641 61.9907 66.5987 62.022C66.5579 62.0473 66.5171 62.0727 66.4751 62.0988C66.2409 62.1928 66.0212 62.186 65.771 62.1837C65.7203 62.1835 65.6697 62.1832 65.6175 62.183C65.277 62.1767 64.9861 62.1392 64.6641 62.0253C64.5462 61.9848 64.4386 61.9572 64.3171 61.9327C64.0708 61.8803 63.8414 61.7954 63.6071 61.7045C63.5636 61.6877 63.5201 61.671 63.4752 61.6538C62.9075 61.4333 62.3595 61.18 61.8383 60.8642C61.7281 60.7954 61.7281 60.7954 61.6029 60.7519C61.4837 60.7021 61.4388 60.6534 61.3487 60.5638C61.2798 60.5142 61.2097 60.4663 61.1388 60.4197C61.1027 60.3959 61.0667 60.3721 61.0296 60.3475C60.9277 60.2796 60.9277 60.2796 60.8245 60.245C60.605 60.1058 60.5294 59.7666 60.45 59.5289C60.3776 59.1939 60.4731 58.9601 60.6471 58.6723C60.9762 58.1741 61.351 57.7391 61.7743 57.3181C61.8732 57.2057 61.9715 57.0928 62.069 56.9791C62.0966 56.9513 62.1243 56.9235 62.1527 56.8948C62.1839 56.8948 62.2151 56.8948 62.2473 56.8948C62.2594 56.867 62.2714 56.8391 62.2839 56.8105C62.3478 56.696 62.4126 56.6344 62.5133 56.5508C62.5468 56.5228 62.5802 56.4948 62.6146 56.4659C62.6495 56.4367 62.6843 56.4075 62.7203 56.3774C62.8203 56.288 62.9203 56.1984 63.0199 56.1086C63.0987 56.0481 63.0987 56.0481 63.1932 56.0481C63.1932 56.0171 63.1932 55.986 63.1932 55.954C63.2998 55.8654 63.4066 55.7828 63.5184 55.7012C63.5521 55.6764 63.5858 55.6515 63.6205 55.6259C64.285 55.1409 64.9766 54.7004 65.7 54.3077Z" fill="#A9BFD7"/>
<path d="M70.9742 53.1792C71.016 53.1792 71.0578 53.1792 71.1009 53.1792C71.6973 53.1803 72.2857 53.2089 72.878 53.2792C72.9257 53.2847 72.9257 53.2847 72.9745 53.2904C73.5647 53.3607 74.1254 53.505 74.6959 53.6672C74.7611 53.684 74.8263 53.7004 74.8916 53.7163C75.4539 53.8562 75.9963 54.0338 76.5405 54.2317C76.5093 54.4956 76.4781 54.7595 76.4459 55.0314C76.3835 55.0314 76.3211 55.0314 76.2568 55.0314C76.2568 55.0003 76.2568 54.9693 76.2568 54.9373C76.2243 54.9328 76.1918 54.9283 76.1583 54.9237C75.9903 54.883 75.8567 54.8121 75.704 54.7315C75.4718 54.6117 75.2464 54.5185 74.9936 54.4516C74.8806 54.4185 74.779 54.3752 74.6723 54.3258C74.4908 54.2422 74.3091 54.1821 74.1166 54.1286C74.0052 54.096 73.8959 54.0604 73.786 54.0232C73.4522 53.9117 73.1114 53.827 72.7701 53.7414C72.6783 53.7183 72.5866 53.6948 72.495 53.6711C71.0987 53.3387 69.4458 53.332 68.0555 53.6992C67.8677 53.7483 67.7009 53.7703 67.5068 53.7613C67.538 53.7458 67.5692 53.7303 67.6014 53.7143C67.617 53.6832 67.6326 53.6522 67.6487 53.6202C67.7645 53.5894 67.7645 53.5894 67.9177 53.5629C68.001 53.5481 68.001 53.5481 68.086 53.5329C68.1446 53.5229 68.2031 53.5129 68.2635 53.5026C68.3778 53.4826 68.4921 53.4625 68.6064 53.4423C68.6896 53.4278 68.6896 53.4278 68.7744 53.4129C68.8959 53.3905 69.0154 53.3652 69.1356 53.3365C69.7455 53.1998 70.3522 53.1779 70.9742 53.1792Z" fill="#41789E"/>
<path d="M74.3176 55.878C74.385 55.8925 74.4524 55.9067 74.5199 55.9209C74.7734 55.9762 75.0193 56.0525 75.2665 56.1309C75.311 56.1446 75.3555 56.1583 75.4014 56.1724C75.63 56.2445 75.8404 56.3251 76.0521 56.4364C76.1954 56.5056 76.3424 56.5616 76.4908 56.6191C76.8568 56.7616 77.2099 56.9266 77.5639 57.096C78.1446 57.3734 78.7246 57.6363 79.3311 57.8537C79.4101 57.8847 79.489 57.9159 79.5676 57.9477C79.5676 57.9788 79.5676 58.0098 79.5676 58.0418C79.6069 58.0468 79.6462 58.0518 79.6867 58.0569C79.8721 58.0929 80.0402 58.1551 80.215 58.2241C80.4776 58.325 80.7377 58.4132 81.0111 58.4819C81.1241 58.5111 81.2334 58.5463 81.3442 58.5827C81.5999 58.6603 81.8599 58.7001 82.1234 58.7412C82.3604 58.7782 82.5937 58.8231 82.8281 58.8738C83.035 58.9171 83.2145 58.9395 83.4253 58.9267C83.7648 58.9146 84.0454 59.0756 84.3446 59.2178C84.3992 59.2407 84.4539 59.2637 84.5101 59.2874C84.6764 59.3592 84.8352 59.4385 84.9949 59.5235C85.0474 59.5512 85.0998 59.5788 85.1538 59.6073C85.2679 59.6747 85.3518 59.7257 85.4324 59.8293C85.4413 59.9557 85.4413 59.9557 85.4324 60.0645C85.3759 60.0887 85.3193 60.113 85.261 60.138C85.1276 60.1963 84.998 60.2572 84.8693 60.3252C84.3907 60.5776 83.8912 60.7465 83.3782 60.9169C83.2689 60.9541 83.1608 60.9932 83.0528 61.0341C82.3104 61.3117 81.5298 61.5157 80.7507 61.6613C80.5951 61.6808 80.5951 61.6808 80.4662 61.7578C80.3917 61.7734 80.3167 61.7867 80.2416 61.799C80.0472 61.8319 79.8575 61.873 79.6664 61.921C79.3098 62.0038 78.9534 62.0382 78.5891 62.0695C78.4628 62.0806 78.3365 62.0921 78.2102 62.1036C78.1551 62.1084 78.1001 62.1132 78.0434 62.1181C77.9144 62.1265 77.9144 62.1265 77.8176 62.1812C77.6782 62.186 77.5402 62.1878 77.4008 62.1871C77.3588 62.1869 77.3168 62.1867 77.2736 62.1866C76.5669 62.1813 75.8676 62.15 75.1689 62.0401C75.1689 62.009 75.1689 61.978 75.1689 61.946C75.1266 61.9471 75.0843 61.9482 75.0407 61.9493C74.9835 61.9501 74.9263 61.951 74.8674 61.9519C74.8114 61.953 74.7555 61.9541 74.6978 61.9552C74.5557 61.9529 74.4279 61.9309 74.2895 61.8993C73.9825 61.834 73.6785 61.8378 73.3657 61.8402C73.2746 61.8405 73.2746 61.8405 73.1817 61.8409C72.7483 61.8452 72.3324 61.8725 71.9054 61.946C71.8622 61.9517 71.8191 61.9574 71.7746 61.9633C71.0502 62.0689 70.4157 62.3659 69.7879 62.7273C69.6458 62.809 69.5069 62.8798 69.3514 62.9338C69.3514 62.9648 69.3514 62.9959 69.3514 63.0279C69.1384 63.1295 68.9773 63.2047 68.7365 63.169C68.4192 63.0213 68.2133 62.7204 68.0758 62.4055C68.0403 62.3001 68.0098 62.1941 67.9797 62.0871C67.9487 61.9919 67.9171 61.8968 67.8851 61.8019C67.8693 61.7538 67.8536 61.7056 67.8373 61.656C67.7986 61.5455 67.7541 61.4434 67.7048 61.3374C67.573 60.9918 67.6883 60.5801 67.7445 60.2269C67.8721 59.3411 67.8392 58.4347 67.6014 57.5714C67.5877 57.5203 67.5877 57.5203 67.5738 57.4681C67.4675 57.0778 67.329 56.7175 67.1348 56.3606C67.0811 56.2544 67.0811 56.2544 67.0811 56.1603C67.9092 55.9133 68.7682 55.7731 69.6233 55.6546C69.6814 55.6465 69.6814 55.6465 69.7406 55.6382C71.2659 55.4381 72.8283 55.4938 74.3176 55.878Z" fill="#A9BFD8"/>
<path d="M72.8986 55.9251C72.9932 55.9721 72.9932 55.9721 73.0457 56.0748C73.0921 56.2209 73.1004 56.3396 73.0997 56.4925C73.0999 56.5406 73.1001 56.5887 73.1004 56.6382C73.0879 56.7714 73.0665 56.8488 72.9932 56.9599C72.962 56.9755 72.9308 56.991 72.8986 57.007C72.8986 57.038 72.8986 57.0691 72.8986 57.101C72.9753 57.1675 72.9753 57.1675 73.0731 57.2333C73.3381 57.4262 73.5823 57.6133 73.6554 57.9477C73.6732 58.1781 73.6702 58.3798 73.5307 58.5715C73.4496 58.6522 73.368 58.7252 73.277 58.7944C73.3034 58.8138 73.3297 58.8332 73.3568 58.8532C73.3929 58.8804 73.429 58.9076 73.4662 58.9355C73.5062 58.9627 73.5462 58.9899 73.5874 59.0179C73.7919 59.2056 73.8523 59.4077 73.8712 59.6764C73.8631 59.9665 73.7332 60.2109 73.5608 60.4408C73.4906 60.4641 73.4906 60.4641 73.4189 60.4878C73.4033 60.5189 73.3877 60.5499 73.3716 60.5819C73.4111 60.5993 73.4111 60.5993 73.4514 60.6172C73.61 60.7024 73.7626 60.795 73.8446 60.9582C73.8509 61.0839 73.8466 61.2085 73.8446 61.3345C73.8134 61.3345 73.7822 61.3345 73.75 61.3345C73.7373 61.284 73.7246 61.2336 73.7116 61.1816C73.6592 61.0172 73.6301 60.939 73.5135 60.8171C73.3748 60.7541 73.3748 60.7541 73.2209 60.7112C73.1695 60.6955 73.1181 60.6797 73.0651 60.6635C73.0061 60.6464 73.0061 60.6464 72.9459 60.6289C72.9625 60.4974 72.9799 60.4514 73.086 60.3673C73.1237 60.345 73.1613 60.3226 73.2002 60.2997C73.3569 60.2062 73.4666 60.1282 73.5608 59.9704C73.5913 59.8557 73.5913 59.8557 73.5992 59.7352C73.6034 59.6954 73.6076 59.6556 73.612 59.6147C73.6077 59.4876 73.5734 59.4222 73.5135 59.3118C73.5135 59.2653 73.5135 59.2187 73.5135 59.1707C73.4861 59.1622 73.4586 59.1536 73.4304 59.1448C73.2112 59.0747 73.0075 58.9975 72.804 58.8885C72.804 58.8109 72.804 58.7333 72.804 58.6533C72.8297 58.6453 72.8554 58.6373 72.8818 58.6291C73.0309 58.5788 73.1545 58.5364 73.2741 58.4328C73.3735 58.2176 73.3861 58.0229 73.3421 57.7949C73.1843 57.4811 72.8201 57.3518 72.5203 57.1951C72.5203 57.1175 72.5203 57.0399 72.5203 56.9599C72.5983 56.9444 72.6763 56.9289 72.7568 56.9129C72.7626 56.8877 72.7685 56.8624 72.7745 56.8365C72.804 56.7247 72.804 56.7247 72.8543 56.6042C72.9165 56.3773 72.9062 56.1589 72.8986 55.9251Z" fill="#8FB0CB"/>
<path d="M69.0676 56.9129C69.3302 56.8727 69.4771 56.9713 69.6832 57.1174C69.7955 57.2104 69.8593 57.2978 69.9189 57.4303C69.9352 57.4591 69.9515 57.4878 69.9682 57.5174C70.0632 57.7293 70.0516 57.9794 69.976 58.1965C69.8962 58.3589 69.8056 58.5196 69.6824 58.6533C69.6512 58.6533 69.62 58.6533 69.5878 58.6533C69.6248 58.7986 69.6248 58.7986 69.7327 58.8914C69.7629 58.9215 69.7932 58.9516 69.8243 58.9826C69.8243 59.0136 69.8243 59.0447 69.8243 59.0767C69.8711 59.0767 69.918 59.0767 69.9662 59.0767C70.0364 59.3907 70.1027 59.7604 69.9429 60.0523C69.7355 60.3203 69.7355 60.3203 69.5878 60.3937C69.639 60.5125 69.6857 60.585 69.78 60.676C69.8752 60.7737 69.8999 60.8259 69.9189 60.9582C69.9501 60.9582 69.9813 60.9582 70.0135 60.9582C70.0396 61.6505 70.0396 61.6505 69.8716 61.946C69.8531 61.9838 69.8346 62.0217 69.8155 62.0606C69.8028 62.0849 69.7901 62.1092 69.777 62.1341C69.7458 62.1341 69.7146 62.1341 69.6824 62.1341C69.6701 62.1616 69.6578 62.1891 69.6451 62.2174C69.5842 62.329 69.5181 62.4058 69.4282 62.4958C69.4005 62.5241 69.3728 62.5524 69.3443 62.5816C69.2508 62.6563 69.1848 62.6793 69.0676 62.6986C69.0988 62.621 69.13 62.5434 69.1622 62.4634C69.209 62.4634 69.2558 62.4634 69.3041 62.4634C69.3231 62.4113 69.3231 62.4113 69.3425 62.3581C69.3968 62.2324 69.4583 62.1402 69.5405 62.0312C69.732 61.751 69.7971 61.4659 69.7682 61.1287C69.7313 60.9654 69.6968 60.8925 69.5878 60.77C69.5878 60.739 69.5878 60.7079 69.5878 60.676C69.5508 60.6614 69.5137 60.6469 69.4755 60.6319C69.3513 60.5819 69.3513 60.5819 69.2568 60.5348C69.2568 60.4883 69.2568 60.4417 69.2568 60.3937C69.2997 60.3656 69.3426 60.3375 69.3868 60.3085C69.5801 60.1791 69.6983 60.055 69.7534 59.8243C69.7868 59.5829 69.7692 59.3634 69.7297 59.1237C69.6814 59.1077 69.6814 59.1077 69.6322 59.0914C69.4556 59.0129 69.3172 58.9093 69.1622 58.7944C69.1651 58.6856 69.1651 58.6856 69.2095 58.5592C69.2621 58.5369 69.3148 58.5146 69.3691 58.4916C69.5514 58.433 69.5514 58.433 69.6322 58.2682C69.6488 58.2245 69.6653 58.1809 69.6824 58.1359C69.7136 58.1359 69.7449 58.1359 69.777 58.1359C69.7747 57.6635 69.7747 57.6635 69.5758 57.2528C69.4574 57.1606 69.3398 57.0814 69.2095 57.007C69.1626 56.9759 69.1158 56.9449 69.0676 56.9129Z" fill="#90B0CB"/>
<path d="M71.3378 56.4895C71.743 56.4768 71.743 56.4768 71.9037 56.6185C72.0971 56.8753 72.1839 57.1055 72.1419 57.4303C72.089 57.592 72.024 57.7463 71.9527 57.9007C71.9215 57.9007 71.8903 57.9007 71.8581 57.9007C71.8581 57.9473 71.8581 57.9938 71.8581 58.0418C71.9517 58.1213 72.0463 58.1998 72.1419 58.277C72.1419 58.308 72.1419 58.3391 72.1419 58.3711C72.1731 58.3711 72.2043 58.3711 72.2365 58.3711C72.394 58.623 72.4398 58.8746 72.4257 59.1707C72.3614 59.4181 72.2767 59.6031 72.0946 59.7822C72.079 59.8288 72.0634 59.8754 72.0473 59.9233C72.0756 59.936 72.1039 59.9486 72.133 59.9616C72.2374 60.0179 72.3044 60.0666 72.3784 60.1585C72.3784 60.2051 72.3784 60.2517 72.3784 60.2996C72.4096 60.2996 72.4408 60.2996 72.473 60.2996C72.5656 60.5875 72.5326 60.8678 72.4257 61.1463C72.3531 61.2491 72.2754 61.3361 72.1892 61.4286C72.1268 61.413 72.0643 61.3975 72 61.3815C72.039 61.3437 72.078 61.3059 72.1183 61.2669C72.3279 60.985 72.2534 60.5845 72.2365 60.2526C72.2012 60.2396 72.1659 60.2267 72.1295 60.2133C71.9542 60.1392 71.8215 60.0364 71.6689 59.9233C71.6878 59.8989 71.7066 59.8745 71.726 59.8493C71.7511 59.8165 71.7761 59.7837 71.8019 59.7499C71.839 59.7016 71.839 59.7016 71.8768 59.6523C72.0398 59.4263 72.1137 59.2904 72.1094 59.0061C72.1091 58.9282 72.1091 58.9282 72.1088 58.8488C72.0948 58.7029 72.0622 58.5971 72 58.4652C71.9688 58.4652 71.9376 58.4652 71.9054 58.4652C71.8266 58.3868 71.7478 58.3084 71.6689 58.23C71.5665 58.169 71.5665 58.169 71.4797 58.1359C71.4953 58.0738 71.511 58.0117 71.527 57.9477C71.5583 57.9477 71.5895 57.9477 71.6216 57.9477C71.6363 57.9186 71.6509 57.8895 71.666 57.8595C71.6985 57.7949 71.731 57.7302 71.7635 57.6655C71.7947 57.6655 71.826 57.6655 71.8581 57.6655C71.9089 57.2001 71.9089 57.2001 71.7576 56.7835C71.6227 56.6785 71.4958 56.6023 71.3378 56.5366C71.3378 56.5211 71.3378 56.5055 71.3378 56.4895Z" fill="#90B0CB"/>
<path d="M73.277 56.3484C73.4061 56.3459 73.5352 56.344 73.6643 56.3426C73.7188 56.3414 73.7188 56.3414 73.7745 56.3402C73.9777 56.3384 74.1321 56.3486 74.3176 56.4425C74.3176 56.4736 74.3176 56.5046 74.3176 56.5366C74.3615 56.554 74.3615 56.554 74.4063 56.5719C74.5282 56.6432 74.5511 56.6888 74.6014 56.8188C74.6119 57.037 74.6032 57.2311 74.4595 57.4009C74.4282 57.4261 74.397 57.4514 74.3649 57.4774C74.3276 57.5779 74.3276 57.5779 74.3176 57.6655C74.3517 57.6684 74.3859 57.6713 74.421 57.6743C74.5956 57.7245 74.6681 57.8166 74.7905 57.9477C74.8247 57.972 74.8588 57.9962 74.894 58.0212C75.0253 58.1248 75.0673 58.23 75.0919 58.3937C75.1023 58.815 74.9574 59.0829 74.696 59.4059C74.5925 59.4647 74.5925 59.4647 74.5068 59.5C74.5302 59.5466 74.5302 59.5466 74.5541 59.5941C74.5831 59.6005 74.6122 59.6069 74.6422 59.6136C74.7695 59.6483 74.811 59.6993 74.894 59.7999C74.9181 59.8284 74.9422 59.8569 74.967 59.8862C75.0864 60.0535 75.0794 60.2043 75.0773 60.4025C75.0769 60.4537 75.0764 60.5048 75.076 60.5574C75.0754 60.5966 75.0749 60.6357 75.0743 60.676C75.0431 60.676 75.0119 60.676 74.9797 60.676C74.9661 60.7138 74.9524 60.7516 74.9384 60.7906C74.8851 60.9112 74.8851 60.9112 74.7905 60.9582C74.7982 60.9247 74.8059 60.8911 74.8138 60.8566C74.8654 60.5697 74.8836 60.2009 74.7905 59.9233C74.6858 59.8722 74.6858 59.8722 74.5541 59.8293C74.4383 59.7411 74.3305 59.645 74.223 59.547C74.2594 59.3692 74.319 59.2893 74.4595 59.1707C74.4907 59.1707 74.5219 59.1707 74.5541 59.1707C74.5541 59.1397 74.5541 59.1086 74.5541 59.0767C74.6009 59.0534 74.6009 59.0534 74.6487 59.0296C74.7886 58.811 74.771 58.5738 74.7432 58.324C74.6941 58.1551 74.6164 58.036 74.4656 57.9363C74.3704 57.8873 74.2753 57.8457 74.1757 57.8066C74.1289 57.7872 74.082 57.7678 74.0338 57.7478C74.0026 57.7362 73.9714 57.7245 73.9392 57.7125C74.0115 57.5508 74.1048 57.4214 74.223 57.2892C74.2542 57.2892 74.2854 57.2892 74.3176 57.2892C74.3189 57.2059 74.3198 57.1226 74.3205 57.0393C74.3211 56.9929 74.3216 56.9465 74.3222 56.8987C74.3234 56.7671 74.3234 56.7671 74.2703 56.6307C74.1556 56.5756 74.1556 56.5756 74.0338 56.5366C74.0026 56.5211 73.9714 56.5055 73.9392 56.4895C73.8188 56.4786 73.6992 56.4698 73.5786 56.4631C73.5451 56.4611 73.5117 56.459 73.4773 56.4569C73.3948 56.4519 73.3123 56.4472 73.2297 56.4425C73.2453 56.4115 73.261 56.3804 73.277 56.3484Z" fill="#90B0CB"/>
<path d="M70.4865 55.9721C70.5177 55.9721 70.5489 55.9721 70.5811 55.9721C70.8386 56.3002 70.9091 56.6466 70.8649 57.054C70.826 57.1843 70.7754 57.3044 70.723 57.4303C70.723 57.6398 70.7569 57.6739 70.8985 57.818C71.1148 58.1113 71.0818 58.4968 71.0541 58.8415C71.0193 58.9676 70.9777 59.0566 70.9122 59.1707C70.8653 59.1707 70.8185 59.1707 70.7703 59.1707C70.7547 59.2328 70.7391 59.2949 70.723 59.3589C70.7511 59.3712 70.7793 59.3835 70.8083 59.3962C70.918 59.4562 70.9795 59.5143 71.06 59.6088C71.0835 59.6358 71.107 59.6627 71.1313 59.6905C71.3408 59.9876 71.3353 60.3265 71.2905 60.676C71.1827 60.9306 71.0073 61.141 70.7703 61.2875C70.7235 61.2875 70.6766 61.2875 70.6284 61.2875C70.6757 61.1463 70.6757 61.1463 70.7614 61.067C70.9632 60.8548 71.0653 60.6375 71.0748 60.3438C71.0618 60.0648 70.9819 59.8666 70.8028 59.6499C70.6681 59.5409 70.5591 59.4955 70.3919 59.453C70.3742 59.3501 70.3742 59.3501 70.3919 59.2178C70.5249 59.0972 70.5249 59.0972 70.5997 59.0441C70.7516 58.9211 70.8123 58.8374 70.8364 58.6403C70.8361 58.5835 70.8357 58.5266 70.8353 58.4681C70.8357 58.4114 70.836 58.3547 70.8364 58.2963C70.8164 58.1256 70.779 58.0368 70.6757 57.9007C70.5787 57.8446 70.5787 57.8446 70.4865 57.8066C70.4709 57.7756 70.4553 57.7445 70.4392 57.7125C70.3924 57.6815 70.3455 57.6505 70.2973 57.6185C70.3397 57.5588 70.3397 57.5588 70.383 57.4979C70.6041 57.1615 70.6737 56.892 70.6284 56.4896C70.5905 56.3577 70.541 56.2398 70.4865 56.1132C70.4865 56.0667 70.4865 56.0201 70.4865 55.9721Z" fill="#8FAFCA"/>
<path d="M67.7432 56.2544C67.8924 56.2873 68.0284 56.3361 68.1689 56.3955C68.1999 56.408 68.2309 56.4205 68.2628 56.4333C68.4578 56.5483 68.5291 56.7519 68.5946 56.9599C68.6246 57.2525 68.638 57.54 68.541 57.8204C68.5275 57.8624 68.5139 57.9044 68.5 57.9477C68.5777 58.0728 68.5777 58.0728 68.6892 58.1829C68.8465 58.3729 68.8598 58.5494 68.8549 58.788C68.8104 59.0633 68.6783 59.3031 68.5473 59.547C68.5161 59.547 68.4849 59.547 68.4527 59.547C68.4527 59.6091 68.4527 59.6712 68.4527 59.7352C68.4839 59.7352 68.5151 59.7352 68.5473 59.7352C68.7613 60.1476 68.8127 60.5613 68.6986 61.0146C68.6271 61.2202 68.5548 61.4072 68.4054 61.5697C68.3586 61.5697 68.3118 61.5697 68.2635 61.5697C68.2872 61.4471 68.323 61.3582 68.3818 61.2463C68.5293 60.9406 68.5389 60.5865 68.5 60.2526C68.4515 60.1226 68.3942 60.0081 68.3245 59.8883C68.2588 59.774 68.2036 59.6745 68.1689 59.547C68.2184 59.4533 68.2184 59.4533 68.299 59.3648C68.5158 59.1009 68.5789 58.8241 68.5757 58.4861C68.5225 58.2709 68.3465 58.1609 68.1689 58.0418C68.222 57.9077 68.2774 57.7779 68.3404 57.6479C68.4456 57.3719 68.4306 57.1867 68.3108 56.9217C68.2932 56.8865 68.2757 56.8513 68.2576 56.815C68.2162 56.7247 68.2162 56.7247 68.2162 56.6307C68.185 56.6307 68.1538 56.6307 68.1216 56.6307C68.1216 56.5841 68.1216 56.5375 68.1216 56.4895C68.0675 56.4808 68.0675 56.4808 68.0122 56.4719C67.8851 56.4425 67.8851 56.4425 67.7432 56.3484C67.7432 56.3174 67.7432 56.2863 67.7432 56.2544Z" fill="#8FAFCA"/>
<path d="M75.5 56.8659C75.9305 56.8748 75.9305 56.8748 76.0912 57.0187C76.1146 57.0614 76.138 57.1041 76.1622 57.1481C76.1817 57.183 76.2012 57.2179 76.2213 57.2539C76.2949 57.5225 76.2922 57.7913 76.1622 58.0418C76.1309 58.0418 76.0997 58.0418 76.0676 58.0418C76.0676 58.0729 76.0676 58.1039 76.0676 58.1359C76.0364 58.1514 76.0051 58.1669 75.973 58.1829C76.0406 58.3426 76.1221 58.4274 76.2568 58.5357C76.4542 58.6945 76.5303 58.7949 76.5581 59.0496C76.5684 59.6474 76.5684 59.6474 76.3752 59.8592C76.3517 59.8804 76.3282 59.9015 76.3041 59.9233C76.2791 59.9469 76.2542 59.9705 76.2285 59.9948C76.0439 60.1585 76.0439 60.1585 75.9257 60.1585C75.9413 60.2206 75.9569 60.2827 75.973 60.3467C76.0042 60.3467 76.0354 60.3467 76.0676 60.3467C76.2203 60.6837 76.3173 60.9392 76.2095 61.308C76.186 61.3677 76.186 61.3677 76.1622 61.4286C76.115 61.2879 76.1127 61.204 76.1178 61.0581C76.1197 60.8757 76.1076 60.7458 76.0203 60.5819C76.0066 60.5479 75.993 60.514 75.9789 60.479C75.9122 60.3722 75.8514 60.3482 75.7365 60.2997C75.6897 60.2686 75.6428 60.2376 75.5946 60.2056C75.5946 60.1745 75.5946 60.1435 75.5946 60.1115C75.8506 59.9233 75.8506 59.9233 75.973 59.9233C75.973 59.8923 75.973 59.8613 75.973 59.8293C76.0198 59.7982 76.0666 59.7672 76.1149 59.7352C76.2389 59.5068 76.3105 59.2916 76.2568 59.0296C76.1511 58.7921 76.0058 58.6052 75.7838 58.4652C75.6334 58.4061 75.6334 58.4061 75.5 58.3711C75.5059 58.2917 75.5059 58.2917 75.5473 58.1829C75.6179 58.1249 75.6885 58.0671 75.7603 58.0106C75.9884 57.8081 76.0019 57.5264 76.0203 57.2422C75.9891 57.2422 75.9578 57.2422 75.9257 57.2422C75.8974 57.2053 75.8691 57.1684 75.8399 57.1304C75.7306 56.9999 75.6606 56.9617 75.5 56.9129C75.5 56.8974 75.5 56.8818 75.5 56.8659Z" fill="#90B0CB"/>
<path d="M77.1554 57.4774C77.5478 57.5306 77.5478 57.5306 77.6986 57.6951C77.8578 57.9369 77.919 58.1303 77.8649 58.4181C77.7736 58.7002 77.6257 58.854 77.3919 59.0296C77.3763 59.0607 77.3607 59.0917 77.3446 59.1237C77.3778 59.1344 77.4109 59.145 77.4451 59.156C77.662 59.2545 77.8238 59.3694 77.9299 59.5853C78.0081 59.9819 77.9558 60.3286 77.7289 60.6671C77.6227 60.7759 77.5162 60.8704 77.3919 60.9582C77.3607 60.9582 77.3295 60.9582 77.2973 60.9582C77.2973 60.9892 77.2973 61.0203 77.2973 61.0523C77.1802 61.0756 77.1802 61.0756 77.0608 61.0993C77.0992 61.0082 77.0992 61.0082 77.1554 60.9112C77.2256 60.8879 77.2256 60.8879 77.2973 60.8641C77.2973 60.8331 77.2973 60.802 77.2973 60.77C77.3285 60.77 77.3597 60.77 77.3919 60.77C77.3919 60.739 77.3919 60.7079 77.3919 60.676C77.4231 60.676 77.4543 60.676 77.4865 60.676C77.5011 60.6391 77.5158 60.6022 77.5308 60.5642C77.5811 60.4408 77.5811 60.4408 77.6284 60.3467C77.6596 60.3467 77.6908 60.3467 77.723 60.3467C77.7279 60.0745 77.7226 59.8155 77.6757 59.547C77.6415 59.5344 77.6074 59.5218 77.5722 59.5088C77.4396 59.4531 77.3246 59.3876 77.2027 59.3119C77.1588 59.2857 77.1149 59.2595 77.0697 59.2325C77.0355 59.2121 77.0014 59.1917 76.9662 59.1707C76.9839 59.0485 76.9993 58.995 77.0943 58.9124C77.1271 58.8909 77.16 58.8695 77.1938 58.8473C77.4034 58.6972 77.5497 58.5638 77.606 58.3024C77.6339 58.0902 77.6511 57.9463 77.5338 57.7596C77.4135 57.6519 77.3146 57.5997 77.1554 57.5714C77.1554 57.5404 77.1554 57.5093 77.1554 57.4774Z" fill="#90B0CB"/>
<path d="M78.4324 58.23C78.7007 58.2162 78.8577 58.2297 79.0946 58.3711C79.0946 58.4021 79.0946 58.4332 79.0946 58.4652C79.1258 58.4652 79.157 58.4652 79.1892 58.4652C79.1892 58.5117 79.1892 58.5583 79.1892 58.6063C79.2204 58.6063 79.2516 58.6063 79.2838 58.6063C79.4495 58.8535 79.4468 59.1756 79.402 59.4647C79.297 59.6562 79.1608 59.8218 79 59.9704C78.9688 59.9704 78.9376 59.9704 78.9054 59.9704C78.9936 60.141 78.9936 60.141 79.1419 60.2526C79.2075 60.4242 79.1988 60.6063 79.201 60.7877C79.2022 60.8482 79.2035 60.9087 79.2047 60.971C79.1883 61.1563 79.1413 61.2696 79.0473 61.4286C79 61.2875 79 61.2875 79.0443 61.1875C79.1139 61.0004 79.1203 60.8264 79.0946 60.6289C79.0303 60.516 79.0303 60.516 78.9527 60.4408C78.9527 60.4097 78.9527 60.3787 78.9527 60.3467C78.9264 60.335 78.9 60.3234 78.8729 60.3114C78.7446 60.2424 78.6388 60.1571 78.527 60.0645C78.582 59.9006 78.6171 59.8851 78.7576 59.794C78.9551 59.6539 79.0214 59.5394 79.0946 59.3118C79.1258 59.3118 79.157 59.3118 79.1892 59.3118C79.1723 58.9873 79.1397 58.7528 78.8906 58.5269C78.7399 58.404 78.6259 58.3496 78.4324 58.324C78.4324 58.293 78.4324 58.2619 78.4324 58.23Z" fill="#8FB0CA"/>
<path d="M79.7568 59.0296C80.0892 59.0586 80.3432 59.1136 80.6051 59.3354C80.7596 59.5384 80.7298 59.7759 80.7027 60.0174C80.6784 60.147 80.6465 60.2673 80.6081 60.3937C80.5769 60.3937 80.5457 60.3937 80.5135 60.3937C80.5135 60.4558 80.5135 60.5179 80.5135 60.5819C80.4823 60.5819 80.4511 60.5819 80.4189 60.5819C80.3999 60.6372 80.3999 60.6372 80.3805 60.6936C80.3243 60.8171 80.3243 60.8171 80.1824 60.9112C80.1356 60.9112 80.0888 60.9112 80.0405 60.9112C80.0405 60.9422 80.0405 60.9732 80.0405 61.0052C79.9469 61.0052 79.8532 61.0052 79.7568 61.0052C79.7411 60.9431 79.7255 60.881 79.7095 60.8171C79.734 60.8068 79.7586 60.7965 79.7839 60.7858C80.0779 60.6529 80.2417 60.5149 80.3864 60.2203C80.4458 59.9358 80.491 59.6581 80.3273 59.4059C80.1457 59.288 79.9652 59.2263 79.7568 59.1707C79.7568 59.1242 79.7568 59.0776 79.7568 59.0296Z" fill="#8EB0CA"/>
<path d="M81.6486 59.2178C81.6955 59.2178 81.7423 59.2178 81.7905 59.2178C81.7905 59.2488 81.7905 59.2799 81.7905 59.3119C81.8178 59.3235 81.8452 59.3351 81.8733 59.3471C82.0458 59.4424 82.1445 59.5419 82.228 59.7205C82.3021 60.0459 82.2956 60.3006 82.1283 60.5947C82.0376 60.7313 81.9536 60.836 81.7994 60.8994C81.4265 60.9418 81.4265 60.9418 81.2703 60.8641C81.3183 60.7344 81.3457 60.6854 81.4726 60.623C81.5141 60.6095 81.5556 60.5959 81.5984 60.5819C81.7842 60.5209 81.8832 60.473 81.9797 60.2997C82.0274 60.0177 81.986 59.7926 81.8378 59.547C81.8378 59.516 81.8378 59.485 81.8378 59.453C81.8066 59.453 81.7754 59.453 81.7432 59.453C81.712 59.3754 81.6808 59.2977 81.6486 59.2178Z" fill="#91B0CB"/>
<path d="M83.0203 59.3119C83.2081 59.3546 83.2843 59.4287 83.3839 59.5853C83.5733 59.9146 83.6246 60.1442 83.5553 60.526C83.4932 60.676 83.4932 60.676 83.3868 60.7436C83.2453 60.7724 83.117 60.7767 82.973 60.77C82.973 60.6924 82.973 60.6148 82.973 60.5348C83.03 60.513 83.03 60.513 83.0883 60.4907C83.2043 60.4519 83.2043 60.4519 83.2568 60.3937C83.2595 60.063 83.2123 59.7822 83.06 59.4879C83.0203 59.4059 83.0203 59.4059 83.0203 59.3119Z" fill="#92B1CB"/>
<path d="M83.9662 59.453C84.0443 59.453 84.1223 59.453 84.2027 59.453C84.2027 59.484 84.2027 59.5151 84.2027 59.547C84.232 59.55 84.2612 59.5529 84.2914 59.5559C84.3919 59.5941 84.3919 59.5941 84.454 59.6882C84.4986 59.8818 84.4791 60.0588 84.4392 60.2526C84.3919 60.2997 84.3919 60.2997 84.2707 60.3026C84.2326 60.3016 84.1946 60.3007 84.1554 60.2997C84.1616 60.2661 84.1677 60.2326 84.1741 60.198C84.223 59.8731 84.223 59.8731 84.0874 59.5853C84.0474 59.5416 84.0074 59.4979 83.9662 59.453Z" fill="#90AFC8"/>
<path d="M66.7 58.5C66.7 59.1627 66.1627 59.7 65.5 59.7C64.8373 59.7 64.3 59.1627 64.3 58.5C64.3 57.8373 64.8373 57.3 65.5 57.3C66.1627 57.3 66.7 57.8373 66.7 58.5Z" fill="#6396B5"/>
<path d="M66.4 58.2C66.4 58.8627 65.8627 59.4 65.2 59.4C64.5373 59.4 64 58.8627 64 58.2C64 57.5373 64.5373 57 65.2 57C65.8627 57 66.4 57.5373 66.4 58.2Z" fill="#FBD850"/>
<path d="M66.1 58.2C66.1 58.6971 65.6971 59.1 65.2 59.1C64.7029 59.1 64.3 58.6971 64.3 58.2C64.3 57.7029 64.7029 57.3 65.2 57.3C65.6971 57.3 66.1 57.7029 66.1 58.2Z" fill="#F8AE26"/>
<path d="M66.1 58.35C66.1 58.7642 65.7642 59.1 65.35 59.1C64.9358 59.1 64.6 58.7642 64.6 58.35C64.6 57.9358 64.9358 57.6 65.35 57.6C65.7642 57.6 66.1 57.9358 66.1 58.35Z" fill="black"/>
<circle cx="65.8" cy="57.9" r="0.3" fill="#F7F6F5"/>
<circle cx="65.65" cy="58.35" r="0.15" fill="#F7F6F5"/>
</g>
</g>
<defs>
<clipPath id="clip0_8_44">
<rect width="100" height="100" fill="white"/>
</clipPath>
<clipPath id="clip1_8_44">
<rect width="23" height="18" fill="white" transform="matrix(-1 0 0 1 46 55)"/>
</clipPath>
<clipPath id="clip2_8_44">
<rect width="35" height="27" fill="white" transform="translate(58 46)"/>
</clipPath>
</defs>
</svg>
