<svg id="vector" xmlns="http://www.w3.org/2000/svg" width="24.0d" height="24.0d" viewBox="0 0 512.0 512.0"><path fill="#e19b77" d="m308,98c42,42 65,98 65,157s-23,115 -65,157c-40,40 -93,63 -150,65 -3,0 -6,-2 -6,-6v-27c0,-3 2,-6 6,-6 97,-3 176,-83 176,-182s-78,-179 -176,-182c-3,-0 -6,-3 -6,-6v-27c0,-3 3,-6 6,-6 57,1 110,24 150,65z" stroke="#000000" stroke-width="12.0" id="path_0"/><path fill="#fbce85" d="m85,223 l14,31 -14,31c-0,0 -1,1 -1,1h-73c-1,0 -2,-1 -1,-2l13,-29 -13,-29c-0,-1 0,-2 1,-2h73c0,0 1,0 1,1z" stroke="#000000" stroke-width="12.0" id="path_1"/><path fill="#e2dee2" d="M439,286 l60,-30 l-60,-30z" stroke-linejoin="round" stroke="#000000" stroke-width="12.0" id="path_2"/><path fill="none" d="M24,256h420 M156,256l24,-180 M156,256l24,180" stroke="#000000" stroke-width="12.0" id="path_3"/></svg>