<svg id="vector" xmlns="http://www.w3.org/2000/svg" width="24.0d" height="24.0d" viewBox="0 0 512.0 512.0"><path fill="#e7ecf0" d="m444,100 l-1,-19c-22,-24 -49,-43 -79.6,-57l-83,48.4 -3,109.9c66,-5 125,-35 167,-81.6z" id="path_0"/><path fill="#00a98f" d="m462,104 l-17.6,0s-101,71.8 -167,77.2l-5,178 225.6,-19c9,-26 14,-54.9 14,-84 0,-56.6 -18,-108.9 -49,-151z" id="path_1"/><path fill="#fff5f5" d="m207,37 l-107.8,16.6c-10.8,8.4 -20.9,17.6 -30,27.6l0.6,20 -0,0c40,43 96,72 158,79.3l7,-19z" id="path_2"/><path fill="#00ccb2" d="m68.9,101.9 l-19,2c-31.1,42 -49,94.6 -49,151 0,91 47,171 119.6,216l107,-291c-62,-6.8 -117.8,-36 -158,-79z" id="path_3"/><path fill="#00ccb2" d="m224,465.4 l31,-11 10,33 -10,25c-7,0 -14,-0 -21,-0.8z" id="path_4"/><path fill="#00a98f" d="m310,379.9 l-54,74v58c75,0 143,-32.6 190,-84.6l-27,-47z" id="path_5"/><path fill="#beebfa" d="m99,53.6h67.6l32,32 -29,29 22.8,22.8 -65,65v71h-55v50.8l47.9,47.9v99c33,21.3 72.9,34.9 114.9,38.4v-35l21,-21 20,-198 -20,-255c-59,0 -113.5,20 -156.8,53.6z" id="path_6"/><path fill="#96c8ef" d="m433,276h-53v59.8h-99v-63.9h35.8v-48l-35.9,-35.9 67,-67v-14l-33,-33 48.8,-48.8c-32.6,-15 -69,-23.6 -107,-23.6v453.9l54,-54h108.6l27,27c22,-24.9 40,-54 51,-86z" id="path_7"/><path fill="#ff5b5b" d="m68.8,81c-6.9,7 -13,15 -19,23 52,59 127,93.6 206,93.6l10,-14.7 -10,-15.3c-72,-0 -140,-31 -187,-87z" id="path_8"/><path fill="#b03244" d="m443,81c-46.6,55 -114.8,87 -187,87v30c79,0 154,-34 206,-93.6 -6,-8 -12,-16 -19,-23z" id="path_9"/></svg>