<svg id="vector" xmlns="http://www.w3.org/2000/svg" width="24.0d" height="24.0d" viewBox="0 0 512.0 512.0"><path fill="none" d="M72,256 a32,64 45, 1 1,  364 0 a32,64 45, 1 1, -364 0z" stroke="#000000" stroke-width="12.0" id="path_0"/><path fill="none" d="M72,256 a32,64 -45, 1 1,  364 0 a32,64 -45, 1 1, -364 0z" stroke="#000000" stroke-width="12.0" id="path_1"/><path fill="#348ed8" d="M272,224 l24,32 -24,32h-32l-24,-32 24,-32zM281,172 l14,19 -24,32h-32l-24,-32 14,-19a32,32 0,0 1,25 -12,32 32,0 0,1 25,12zM216,256 l24,32 -24,32h-16a32,32 0,0 1,-25 -12,32 32,0 0,1 0,-38l9,-12zM328,256 l9,12a32,32 0,0 1,0 38,32 32,0 0,1 -25,12h-16l-24,-32 24,-32zM464,192m-24,0a24,24 0,1 1,48 0a24,24 0,1 1,-48 0M48,192m-24,0a24,24 0,1 1,48 0a24,24 0,1 1,-48 0M320,464m-24,0a24,24 0,1 1,48 0a24,24 0,1 1,-48 0z" stroke="#000000" stroke-width="12.0" id="path_2"/><path fill="#de5540" d="M337,204 a32,32 0,0 1,0 38l-9,12h-32l-24,-32 24,-32h16a32,32 0,0 1,25 12zM272,288 l24,32 -14,19a32,32 0,0 1,-25 12,32 32,0 0,1 -25,-12l-14,-19 24,-32zM216,192 l24,32 -24,32h-32l-9,-12a32,32 0,0 1,0 -38,32 32,0 0,1 25,-12z" stroke="#000000" stroke-width="12.0" id="path_3"/></svg>