<svg id="vector" xmlns="http://www.w3.org/2000/svg" width="24.0d" height="24.0d" viewBox="0 0 512.0 512.0"><path fill="#d48284" d="M265,481h-12l-22,-92l33,-22c10,-6 18,-17 18,-30c0,-19 -15,-35 -35,-35c-16,0 -30,11 -34,26l-0,-0l-15,48l0,0c-0,1 -1,3 -1,5l26,106c0,8 7,16 16,15h37c2,0 3,-1 3,-3v-3C279,488 273,481 265,481z" stroke="#000000" stroke-width="12.0" id="path_0"/><path fill="#ffb648" d="M414,63l37,-7c4,0 8,-3 8,-8c0,-4 -3,-8 -8,-8l-37,-7V63z" stroke="#000000" stroke-width="12.0" id="path_1"/><path fill="#5c6670" d="M94,151c-11,0 -19,8 -19,19v14h39v-14C114,160 105,151 94,151z" stroke="#000000" stroke-width="12.0" id="path_2"/><path fill="#333e48" d="M328,162v23H91v-14c0,-11 -8,-19 -19,-19s-19,8 -19,19v14c0,92 75,167 167,167s167,-75 167,-167V162L328,162L328,162z" stroke="#000000" stroke-width="12.0" id="path_3"/><path fill="#ff9c9f" d="M220,481h-12l-22,-92l33,-22c10,-6 18,-17 18,-30c0,-19 -15,-35 -35,-35c-16,0 -30,11 -34,26l-0,-0l-15,48l0,0c-0,1 -1,3 -1,5l26,106c0,8 7,16 16,15h37c2,0 3,-1 3,-3v-3C235,488 228,481 220,481z" stroke="#000000" stroke-width="12.0" id="path_4"/><path fill="#ffffff" d="M278,207c-0,0 -0,0 -0,0H140c0,8 1,16 3,23h-14c0,47 38,86 86,86s86,-38 86,-86C302,218 291,207 278,207z" stroke="#000000" stroke-width="12.0" id="path_5"/><path fill="#ff9c9f" d="M391,17h-9c-5,-6 -13,-9 -22,-9c-17,0 -31,14 -31,31V162h58V77h5c16,0 29,-13 29,-29C421,31 408,17 391,17z" stroke="#000000" stroke-width="12.0" id="path_6"/></svg>