<svg id="vector" xmlns="http://www.w3.org/2000/svg" width="24.0d" height="24.0d" viewBox="0 0 682.6 682.6"><path fill="#58b741" d="m16.5,269.7c46.6,-32.3 158.5,-17.8 220.5,10.4 46,21 79.9,56.8 96.7,97 0.5,1.2 1,2.5 1.6,3.8 4.4,11.3 7.4,22.9 9,34.6 0,1.4 0.3,2.8 0.5,4.2 -46.6,32.3 -114.2,38 -176.2,9.7 -34.4,-15.7 -75.8,-46 -106.7,-79.5C37.3,323.5 19.2,294.7 16.5,269.7" stroke-linecap="round" stroke="#000000" stroke-width="20.0" id="path_0"/><path fill="#58b741" d="m155.4,64.6c56.6,3.6 135.4,84.3 166.4,145 23,45 27.3,94 15.6,136 -0.3,1.3 -0.7,2.7 -1,4 -3.5,11.6 -8.3,22.6 -14.4,32.7 -0.7,1.2 -1.4,2.4 -2.2,3.6 -56.6,-3.6 -113.2,-41 -144.2,-101.7C158.2,250.7 144.6,201.3 141,155.8 138.3,119.6 142,85.9 155.4,64.6" stroke-linecap="round" stroke="#000000" stroke-width="20.0" id="path_1"/><path fill="none" d="M91.3,303.9C113.3,316.9 136,329 158.3,340.3 M324.5,378C324.5,378 324.5,378 324.5,378 M192.8,137.7C212.9,189.7 237.7,240.5 260,282.5" stroke-linecap="round" stroke="#000000" stroke-width="20.0" id="path_2"/><path fill="#70d65b" d="m653.5,95.8c-56.6,3.6 -135.4,84.3 -166.4,145 -23,45 -27.3,94 -15.6,136 0.3,1.3 0.7,2.7 1,4 3.5,11.6 8.3,22.6 14.4,32.7 0.7,1.2 1.4,2.4 2.2,3.6 56.6,-3.6 113.2,-41 144.2,-101.7 17.2,-33.7 30.8,-83 34.3,-128.5C670.6,150.9 666.9,117.2 653.5,95.8" stroke-linecap="round" stroke="#000000" stroke-width="20.0" id="path_3"/><path fill="none" d="M616,169C603.8,200.9 589.7,232.4 575.5,261.7" stroke-linecap="round" stroke="#000000" stroke-width="20.0" id="path_4"/><path fill="#463068" d="m501.6,324.3c0,47.6 -31.2,88 -74.2,101.8 -10.2,3.2 -21.2,5 -32.5,5 -59,-0 -106.8,-47.8 -106.8,-106.8 0,-59 47.8,-106.8 106.8,-106.8 11.3,-0 22.3,1.7 32.5,5C470.4,236.3 501.6,276.6 501.6,324.3" stroke="#000000" stroke-width="20.0" id="path_5"/><path fill="#463068" d="m626,391.9c0,47.6 -31.2,88 -74.2,101.8 -10.2,3.2 -21.2,5 -32.5,5 -59,-0 -106.8,-47.8 -106.8,-106.8 0,-59 47.8,-106.8 106.8,-106.8 11.3,-0 22.3,1.7 32.5,5C594.8,303.9 626,344.2 626,391.9" stroke="#000000" stroke-width="20.0" id="path_6"/><path fill="#463068" d="m348.9,445.9c0,47.6 -31.2,88 -74.2,101.8 -10.2,3.2 -21.2,5 -32.5,5 -59,-0 -106.8,-47.8 -106.8,-106.8 0,-59 47.8,-106.8 106.8,-106.8 11.3,-0 22.3,1.7 32.5,5C317.7,357.9 348.9,398.3 348.9,445.9" stroke="#000000" stroke-width="20.0" id="path_7"/><path fill="#463068" d="m541.8,507.8c0,47.6 -31.2,88 -74.2,101.8 -10.2,3.2 -21.2,5 -32.5,5 -59,-0 -106.8,-47.8 -106.8,-106.8 0,-59 47.8,-106.8 106.8,-106.8 11.3,-0 22.3,1.7 32.5,5C510.6,419.7 541.8,460 541.8,507.8" stroke="#000000" stroke-width="20.0" id="path_8"/><path fill="#3f3730" d="m210.2,445.5c0,-10.8 -8.7,-19.5 -19.5,-19.5 -10.8,-0 -19.5,8.7 -19.5,19.5 0,10.8 8.7,19.5 19.5,19.5C201.4,465.1 210.2,456.3 210.2,445.5" stroke="#000000" stroke-width="20.0" id="path_9"/><path fill="#3f3730" d="m509.5,528.5c0,-10.8 -8.7,-19.5 -19.5,-19.5 -10.8,-0 -19.5,8.7 -19.5,19.5 0,10.8 8.7,19.5 19.5,19.5C500.7,548 509.5,539.3 509.5,528.5" stroke="#000000" stroke-width="20.0" id="path_10"/><path fill="#3f3730" d="m596.8,380.8c0,-10.8 -8.7,-19.5 -19.5,-19.5 -10.8,-0 -19.5,8.7 -19.5,19.5 0,10.8 8.7,19.5 19.5,19.5C588,400.3 596.8,391.6 596.8,380.8" stroke="#000000" stroke-width="20.0" id="path_11"/></svg>