<svg id="vector" xmlns="http://www.w3.org/2000/svg" width="24.0d" height="24.0d" viewBox="0 0 512.0 512.0"><path fill="#eb161c" d="M94,168c0,-89 72,-161 161,-161s161,72 161,161c0,119 -72,210 -161,210S94,281 94,168zM224,404h59c6,0 12,-5 12,-12l0,0c0,-6 -5,-12 -12,-12h-59c-6,0 -12,5 -12,12l0,0C212,398 217,404 224,404z" stroke="#000000" stroke-width="12.0" id="path_0"/><path fill="#f94b58" d="M332,116m-31,0a31,31 0,1 1,62 0a31,31 0,1 1,-62 0" id="path_1"/><path fill="none" d="M424,501c-0,-1 -18,-40 -48,-49c-19,-6 -29,-5 -43,-3c-7,0 -17,1 -32,1c-14,0 -25,-5 -32,-15c-4,-7 -6,-15 -7,-22" stroke="#000000" stroke-width="12.0" id="path_2"/></svg>