<svg id="vector" xmlns="http://www.w3.org/2000/svg" width="24.0d" height="24.0d" viewBox="0 0 512.0 512.0"><path fill="#7db723" d="m140,18c23,31 30,71 20,108l-2,7c-1,3 -4,6 -8,7 -3,0 -7,-1 -9,-4l-4,-6c-21,-32 -25,-73 -12,-109 2,-7 12,-8 16,-2z" stroke="#000000" stroke-width="12.0" id="path_0"/><path fill="#89c627" d="m28,148c31,-23 71,-30 108,-20l7,2c3,1 6,4 7,8 0,3 -1,7 -4,9l-6,4c-32,21 -73,25 -109,12 -7,-2 -8,-12 -2,-16z" stroke="#000000" stroke-width="12.0" id="path_1"/><path fill="#b9ea6a" d="m310,156c-12,-38 -12,-93 0,-132 0,-9 -7,-16 -16,-16h-79c-6,0 -12,5 -12,12v4c12,38 12,93 0,132 -1,4 -0,9 3,12 2,2 2,5 0,7 -3,3 -4,7 -3,12 12,38 12,93 0,132 -1,4 -0,9 3,12 2,2 2,5 0,7 -3,3 -4,7 -3,12 12,38 12,93 0,132 0,9 7,16 16,16h79c8,0 14,-7 11,-20 -11,-38 -10,-91 1,-129 1,-4 0,-9 -3,-12 -2,-2 -2,-5 0,-7 3,-3 4,-7 3,-12 -12,-38 -12,-93 0,-132 1,-4 0,-9 -3,-12 -2,-2 -2,-5 0,-7 3,-3 4,-7 3,-12z" stroke="#000000" stroke-width="12.0" id="path_2"/><path fill="#7db723" d="m366,262 l-0,0c-24,32 -31,74 -20,113l2,7c1,3 4,6 8,7 4,0 8,-1 10,-4l4,-6c21,-34 26,-76 13,-114l-0,-0c-2,-7 -12,-8 -16,-2z" stroke="#000000" stroke-width="12.0" id="path_3"/><path fill="#89c627" d="m482,399 l-0,-0c-32,-24 -74,-31 -113,-20l-7,2c-3,1 -6,4 -7,8 -0,4 1,8 4,10l6,4c34,21 76,26 114,13l0,-0c7,-2 8,-12 2,-16z" stroke="#000000" stroke-width="12.0" id="path_4"/><path fill="none" d="M200,172h100 M200,342h104 M160,142l46,46 M300,422l46,-36" stroke="#000000" stroke-width="12.0" id="path_5"/></svg>