<svg width="100" height="100" viewBox="0 0 100 100" fill="none" xmlns="http://www.w3.org/2000/svg">
<g clip-path="url(#clip0_8_44)">
<path d="M14.2578 5.66406H85.3516V98.2422H14.2578V5.66406Z" fill="#E4E3E1" stroke="black" stroke-width="0.5625"/>
<path d="M65.4297 92.9688H85.3516V98.4375H65.4297V92.9688ZM14.2578 92.9688H34.375V98.4375H14.2578V92.9688Z" fill="#525468" stroke="black" stroke-width="0.5625"/>
<path d="M71.4844 41.7969H27.9297C26.9531 41.7969 25.9766 42.5781 25.9766 43.75V55.2734C25.9766 56.25 26.7578 57.2266 27.9297 57.2266H71.4844C72.4609 57.2266 73.4375 56.4453 73.4375 55.2734V43.75C73.4375 42.7734 72.6562 41.7969 71.4844 41.7969Z" fill="#D362FF" stroke="black" stroke-width="0.5625"/>
<path d="M65.2344 68.5547H34.375C33.7891 68.5547 33.2031 68.9453 33.2031 69.7266V98.2422H66.6016V69.7266C66.6016 69.1406 66.2109 68.5547 65.4297 68.5547H65.2344ZM29.8828 12.3047H39.6484V23.4375H29.8828V12.3047ZM59.7656 23.4375H50V12.3047H59.7656V23.4375ZM69.7266 12.3047H78.9062C79.1016 12.3047 79.4922 12.5 79.4922 12.8906V22.6562C79.4922 22.8516 79.2969 23.2422 78.9062 23.2422H69.7266V12.3047Z" fill="#B4E1F9" stroke="black" stroke-width="0.5625"/>
<path d="M49.8047 68.5547H34.375C33.7891 68.5547 33.2031 68.9453 33.2031 69.7266V98.2422H49.8047V68.5547ZM39.8438 12.3047H49.6094V23.4375H39.8438V12.3047ZM29.8828 12.3047H20.7031C20.5078 12.3047 20.1172 12.5 20.1172 12.8906V22.6562C20.1172 22.8516 20.3125 23.2422 20.7031 23.2422H29.8828V12.3047ZM69.7266 23.4375H59.9609V12.3047H69.7266V23.4375Z" fill="#9FDEFF" stroke="black" stroke-width="0.5625"/>
<path d="M86.5234 29.2969H12.8906C12.3047 29.2969 11.9141 29.6875 11.9141 30.2734V33.5938C11.9141 34.1797 12.3047 34.5703 12.8906 34.5703H86.5234C87.1094 34.5703 87.5 34.1797 87.5 33.5938V30.2734C87.5 29.6875 87.1094 29.2969 86.5234 29.2969ZM86.5234 1.36719H12.8906C12.3047 1.36719 11.9141 1.75781 11.9141 2.34375V5.66406C11.9141 6.25 12.3047 6.64062 12.8906 6.64062H86.5234C87.1094 6.64062 87.5 6.25 87.5 5.66406V2.34375C87.5 1.75781 87.1094 1.36719 86.5234 1.36719Z" fill="#E4E3E1" stroke="black" stroke-width="0.5625"/>
<path d="M54.4922 79.1016V83.9844M45.1172 79.1016V83.9844" stroke="black" stroke-width="0.5625"/>
<path d="M31.7585 54V45.2727H35.2528C35.8949 45.2727 36.4304 45.3679 36.8594 45.5582C37.2884 45.7486 37.6108 46.0128 37.8267 46.3509C38.0426 46.6861 38.1506 47.0724 38.1506 47.5099C38.1506 47.8509 38.0824 48.1506 37.946 48.4091C37.8097 48.6648 37.6222 48.875 37.3835 49.0398C37.1477 49.2017 36.8778 49.3168 36.5739 49.3849V49.4702C36.9063 49.4844 37.2173 49.5781 37.5071 49.7514C37.7997 49.9247 38.0369 50.1676 38.2188 50.4801C38.4006 50.7898 38.4915 51.1591 38.4915 51.5881C38.4915 52.0511 38.3764 52.4645 38.1463 52.8281C37.919 53.1889 37.5824 53.4744 37.1364 53.6847C36.6903 53.8949 36.1406 54 35.4872 54H31.7585ZM33.6037 52.4915H35.108C35.6222 52.4915 35.9972 52.3935 36.233 52.1974C36.4688 51.9986 36.5866 51.7344 36.5866 51.4048C36.5866 51.1634 36.5284 50.9503 36.4119 50.7656C36.2955 50.581 36.1293 50.4361 35.9134 50.331C35.7003 50.2259 35.446 50.1733 35.1506 50.1733H33.6037V52.4915ZM33.6037 48.9247H34.9716C35.2244 48.9247 35.4489 48.8807 35.6449 48.7926C35.8438 48.7017 36 48.5739 36.1136 48.4091C36.2301 48.2443 36.2884 48.0469 36.2884 47.8168C36.2884 47.5014 36.1761 47.2472 35.9517 47.054C35.7301 46.8608 35.4148 46.7642 35.0057 46.7642H33.6037V48.9247ZM41.5245 54.1236C41.1069 54.1236 40.7347 54.0511 40.408 53.9062C40.0813 53.7585 39.8228 53.5412 39.6325 53.2543C39.445 52.9645 39.3512 52.6037 39.3512 52.1719C39.3512 51.8082 39.418 51.5028 39.5515 51.2557C39.685 51.0085 39.8668 50.8097 40.0969 50.6591C40.3271 50.5085 40.5884 50.3949 40.881 50.3182C41.1765 50.2415 41.4862 50.1875 41.81 50.1562C42.1907 50.1165 42.4975 50.0795 42.7305 50.0455C42.9634 50.0085 43.1325 49.9545 43.2376 49.8835C43.3427 49.8125 43.3952 49.7074 43.3952 49.5682V49.5426C43.3952 49.2727 43.31 49.0639 43.1396 48.9162C42.9719 48.7685 42.7333 48.6946 42.4237 48.6946C42.0969 48.6946 41.837 48.767 41.6438 48.9119C41.4506 49.054 41.3228 49.233 41.2603 49.4489L39.5813 49.3125C39.6665 48.9148 39.8342 48.571 40.0842 48.2812C40.3342 47.9886 40.6566 47.7642 41.0515 47.608C41.4492 47.4489 41.9094 47.3693 42.4322 47.3693C42.7958 47.3693 43.1438 47.4119 43.4762 47.4972C43.8114 47.5824 44.1083 47.7145 44.3668 47.8935C44.6282 48.0724 44.8342 48.3026 44.9847 48.5838C45.1353 48.8622 45.2106 49.196 45.2106 49.5852V54H43.489V53.0923H43.4379C43.3327 53.2969 43.1921 53.4773 43.016 53.6335C42.8398 53.7869 42.6282 53.9077 42.381 53.9957C42.1339 54.081 41.8484 54.1236 41.5245 54.1236ZM42.0444 52.8707C42.3114 52.8707 42.5472 52.8182 42.7518 52.7131C42.9563 52.6051 43.1168 52.4602 43.2333 52.2784C43.3498 52.0966 43.408 51.8906 43.408 51.6605V50.9659C43.3512 51.0028 43.2731 51.0369 43.1737 51.0682C43.0771 51.0966 42.9677 51.1236 42.8455 51.1491C42.7234 51.1719 42.6012 51.1932 42.479 51.2131C42.3569 51.2301 42.2461 51.2457 42.1467 51.2599C41.9336 51.2912 41.7475 51.3409 41.5884 51.4091C41.4293 51.4773 41.3058 51.5696 41.2177 51.6861C41.1296 51.7997 41.0856 51.9418 41.0856 52.1122C41.0856 52.3594 41.1751 52.5483 41.354 52.679C41.5359 52.8068 41.766 52.8707 42.0444 52.8707ZM48.4343 50.2159V54H46.619V47.4545H48.3491V48.6094H48.4258C48.5707 48.2287 48.8136 47.9276 49.1545 47.706C49.4954 47.4815 49.9087 47.3693 50.3945 47.3693C50.8491 47.3693 51.2454 47.4688 51.5835 47.6676C51.9215 47.8665 52.1843 48.1506 52.3718 48.5199C52.5593 48.8864 52.6531 49.3239 52.6531 49.8324V54H50.8377V50.1562C50.8406 49.7557 50.7383 49.4432 50.5309 49.2188C50.3235 48.9915 50.038 48.8778 49.6744 48.8778C49.43 48.8778 49.2141 48.9304 49.0266 49.0355C48.842 49.1406 48.6971 49.294 48.592 49.4957C48.4897 49.6946 48.4371 49.9347 48.4343 50.2159ZM57.0412 54.1278C56.3707 54.1278 55.794 53.9858 55.3111 53.7017C54.831 53.4148 54.4616 53.017 54.2031 52.5085C53.9474 52 53.8196 51.4148 53.8196 50.7528C53.8196 50.0824 53.9489 49.4943 54.2074 48.9886C54.4688 48.4801 54.8395 48.0838 55.3196 47.7997C55.7997 47.5128 56.3707 47.3693 57.0327 47.3693C57.6037 47.3693 58.1037 47.473 58.5327 47.6804C58.9616 47.8878 59.3011 48.179 59.5511 48.554C59.8011 48.929 59.9389 49.3693 59.9645 49.875H58.2514C58.2031 49.5483 58.0753 49.2855 57.8679 49.0866C57.6634 48.8849 57.3949 48.7841 57.0625 48.7841C56.7812 48.7841 56.5355 48.8608 56.3253 49.0142C56.1179 49.1648 55.956 49.3849 55.8395 49.6747C55.723 49.9645 55.6648 50.3153 55.6648 50.7273C55.6648 51.1449 55.7216 51.5 55.8352 51.7926C55.9517 52.0852 56.1151 52.3082 56.3253 52.4616C56.5355 52.6151 56.7812 52.6918 57.0625 52.6918C57.2699 52.6918 57.456 52.6491 57.6207 52.5639C57.7884 52.4787 57.9261 52.3551 58.0341 52.1932C58.1449 52.0284 58.2173 51.831 58.2514 51.6009H59.9645C59.9361 52.1009 59.7997 52.5412 59.5554 52.9219C59.3139 53.2997 58.9801 53.5952 58.554 53.8082C58.1278 54.0213 57.6236 54.1278 57.0412 54.1278ZM64.0842 54.1278C63.4222 54.1278 62.8498 53.9872 62.3668 53.706C61.8867 53.4219 61.516 53.027 61.2546 52.5213C60.9933 52.0128 60.8626 51.4233 60.8626 50.7528C60.8626 50.0767 60.9933 49.4858 61.2546 48.9801C61.516 48.4716 61.8867 48.0767 62.3668 47.7955C62.8498 47.5114 63.4222 47.3693 64.0842 47.3693C64.7461 47.3693 65.3171 47.5114 65.7972 47.7955C66.2802 48.0767 66.6523 48.4716 66.9137 48.9801C67.1751 49.4858 67.3058 50.0767 67.3058 50.7528C67.3058 51.4233 67.1751 52.0128 66.9137 52.5213C66.6523 53.027 66.2802 53.4219 65.7972 53.706C65.3171 53.9872 64.7461 54.1278 64.0842 54.1278ZM64.0927 52.7216C64.3938 52.7216 64.6452 52.6364 64.8469 52.4659C65.0487 52.2926 65.2006 52.0568 65.3029 51.7585C65.408 51.4602 65.4606 51.1207 65.4606 50.7401C65.4606 50.3594 65.408 50.0199 65.3029 49.7216C65.2006 49.4233 65.0487 49.1875 64.8469 49.0142C64.6452 48.8409 64.3938 48.7543 64.0927 48.7543C63.7887 48.7543 63.533 48.8409 63.3256 49.0142C63.1211 49.1875 62.9663 49.4233 62.8612 49.7216C62.7589 50.0199 62.7077 50.3594 62.7077 50.7401C62.7077 51.1207 62.7589 51.4602 62.8612 51.7585C62.9663 52.0568 63.1211 52.2926 63.3256 52.4659C63.533 52.6364 63.7887 52.7216 64.0927 52.7216Z" fill="black"/>
</g>
<defs>
<clipPath id="clip0_8_44">
<rect width="100" height="100" fill="white"/>
</clipPath>
</defs>
</svg>
