<svg id="vector" xmlns="http://www.w3.org/2000/svg" width="24.0d" height="24.0d" viewBox="0 0 512.0 512.0"><path fill="#f1cb66" d="m359,132c-20,0 -40,-4 -56,-9v160s-21,-17 -54,-28v51s46,38 110,38 110,-38 110,-38v-212s-46,38 -110,38z" stroke-linejoin="round" stroke="#000000" stroke-width="12.0" id="path_0"/><path fill="#f7e471" d="m83,283s46,-38 110,-38c63,0 110,38 110,38v-215s-46,-38 -110,-38c-63,0 -110,38 -110,38z" stroke-linejoin="round" stroke="#000000" stroke-width="12.0" id="path_1"/><path fill="#9d7d52" d="M73,504h-21c-5,0 -10,-4 -10,-10v-465c0,-11 9,-20 20,-20 11,0 20,9 20,20v465c0,5 -4,10 -10,10zM249,306 l54,-23s-21,-17 -54,-28z" stroke-linejoin="round" stroke="#000000" stroke-width="12.0" id="path_2"/></svg>