<svg id="vector" xmlns="http://www.w3.org/2000/svg" width="24.0d" height="24.0d" viewBox="0 0 512.0 512.0"><path fill="#cc722e" d="M503,227v59c0,91 -79,146 -235,146c-68,0 -125,-10 -169,-27c-56,-22 -89,-57 -89,-96v-59l89,-3L503,227z" stroke="#000000" stroke-width="12.0" id="path_0"/><path fill="#ffa91f" d="M8,249c0,69 103,124 259,124s235,-54 235,-146S435,77 382,77s-101,23 -132,62s-61,78 -120,58S8,179 8,249z" stroke="#000000" stroke-width="12.0" id="path_1"/><path fill="#b25719" d="M267,344c-144,0 -230,-48 -230,-95c0,-13 2,-21 8,-26c6,-5 17,-6 25,-6c13,0 30,3 49,9c13,4 26,7 39,7c53,0 85,-40 111,-72l1,-2c25,-32 67,-51 109,-51c18,0 41,12 58,31c21,23 33,55 33,89c0,36 -15,63 -45,82C393,332 337,344 267,344z" stroke="#000000" stroke-width="12.0" id="path_2"/><path fill="none" d="M102,224l12,36 M122,284l12,36 M206,224l42,112 M286,154l38,100 M332,284l20,48" stroke-linecap="round" stroke="#000000" stroke-width="16.0" id="path_3"/></svg>