<svg id="vector" xmlns="http://www.w3.org/2000/svg" width="24.0d" height="24.0d" viewBox="0 0 512.0 512.0"><path fill="#5cd0b3" d="m457,72c-8,29 -46,43 -46,43s-24,-32 -15,-62c8,-29 46,-43 46,-43s24,32 15,62z" stroke="#000000" stroke-width="16.0" id="path_0"/><path fill="#d1a184" d="m120,155c-19,-19 -15,-51 8,-64 77,-43 181,-30 252,39s86,172 44,251c-12,24 -45,28 -64,9z" stroke="#000000" stroke-width="16.0" id="path_1"/><path fill="#e8d0c1" d="m365,394 l-25,25c-35,36 -73,57 -110,69 -11,3 -24,6 -40,9 -14,2 -28,2 -40,2 -64,-0 -110,-22 -110,-22s-82,-164 52,-302l25,-25z" stroke="#000000" stroke-width="16.0" id="path_2"/><path fill="none" d="M370,120 c40,0 80,-20 130,10 M190,80v140 M280,80v230 M370,120v270 M120,132h240 M190,222h240 M280,310h160" stroke-linecap="round" stroke="#000000" stroke-width="16.0" id="path_3"/></svg>