<svg id="vector" xmlns="http://www.w3.org/2000/svg" width="24.0d" height="24.0d" viewBox="0 0 512.0 512.0"><path fill="#ffe6b4" d="m95,206v295h322v-322c47,0 85,-38 85,-85 0,-47 -38,-85 -85,-85h-322c-47,0 -85,38 -85,85 0,47 38,85 85,85z" stroke="#000000" stroke-width="16.0" id="path_0"/><path fill="#b3e9b7" d="m312,190c-25,0 -45,13 -45,38 -0,21 54,32 54,59 0,11 8,18 18,18 12,-0 27,-11 27,-35 0,-28 -19,-18 -27,-52 -3,-13 -14,-28 -27,-28z" stroke="#000000" stroke-width="16.0" id="path_1"/><path fill="#b3e9b7" d="m95,502s-31,-38 0,-72c0,0 -30,-36 0,-75 0,0 -30,-6 -30,-28 0,-5 3,-16 8,-24 14,-23 51,-56 85,-56 21,-0 36,8 49,35 29,63 44,0 88,59 56,77 119,15 119,73v87z" stroke="#000000" stroke-width="16.0" id="path_2"/><path fill="#000000" d="m452,95c0,5 4,10 10,10s10,-4 10,-10c0,-30 -24,-55 -55,-55 -5,0 -10,4 -10,10s4,10 10,10c19,0 35,15 35,35z" id="path_3"/><path fill="#000000" d="m105,50c0,-5 -4,-10 -10,-10 -30,0 -55,24 -55,55 0,5 4,10 10,10s10,-4 10,-10c0,-19 15,-35 35,-35 5,0 10,-4 10,-10z" id="path_4"/><path fill="none" d="M141,305h0M167,350h0M230,370h0M141,455h0M130,390h0M372,462h0M236,442h0M335,424h0M299,457h0M280,404h0M189,404h0M167,51h0M230,71h0M180,180h0M332,138h0M130,91h0M382,98h0M236,143h0M105,132h0M345,60h0M309,93h0M280,51h0M189,105h0" stroke-linecap="round" stroke="#000000" stroke-width="16.0" id="path_5"/></svg>