<svg id="vector" xmlns="http://www.w3.org/2000/svg" width="24.0d" height="24.0d" viewBox="0 0 512.0 512.0"><path fill="#ab5436" d="M157,361h-47c-0,0 -0,0 -0,0H96l-20,-20c-3,-3 -7,-3 -10,0c-3,3 -3,7 0,10l10,10h-18c-4,0 -7,3 -7,7c0,4 3,7 7,7h34l-2,2c-3,3 -3,7 0,10c1,1 3,2 5,2c2,0 3,-0 5,-2l12,-12h44c4,0 7,-3 7,-7C164,364 161,361 157,361z" id="path_0"/><path fill="#ef5a50" d="M395,38c-19,-14 -40,-19 -45,-12c-0,0 -30,29 -51,50c14,2 33,10 52,23c18,12 31,27 39,40c13,-26 31,-64 31,-63C427,69 415,52 395,38z" id="path_1"/><path fill="#c73627" d="M272,99c54,0 100,38 112,89c7,-15 13,-25 13,-25c9,-13 -9,-42 -42,-66c-32,-23 -67,-31 -76,-18c-0,0 -8,8 -20,21l0,0C262,100 267,99 272,99z" id="path_2"/><path fill="#b1e8ff" d="M107,471c-4,-2 -9,-3 -15,-3c-18,0 -33,15 -40,36h104c-14,-20 -22,-45 -24,-71C119,439 110,454 107,471z" id="path_3"/><path fill="#b1e8ff" d="M416,467c-3,0 -7,0 -10,1c-4,12 -10,24 -17,34h68C449,483 434,467 416,467z" id="path_4"/><path fill="#d7f4ff" d="M358,294c19,-20 31,-48 31,-79c0,-64 -52,-117 -117,-117c-64,0 -117,52 -117,117c0,30 11,58 31,79H358z" id="path_5"/><path fill="#d7f4ff" d="M392,343c-0,0 -1,0 -2,0H151c-15,22 -23,49 -23,79c0,30 9,57 24,80H391c15,-23 24,-50 24,-80C416,394 407,366 392,343z" id="path_6"/><path fill="none" d="M301,189h0M214,189h0M233,390h0M225,426h0M233,463h0" stroke-linecap="round" stroke="#463f8e" stroke-width="16.0" id="path_7"/><path fill="none" d="M322,163l-19,-5M199,163l19,-5" stroke-linecap="round" stroke="#ab5436" stroke-width="16.0" id="path_8"/><path fill="#289e48" d="M392,339c1,2 -0,4 -2,4H151c-2,0 -4,-2 -3,-4l16,-40c1,-2 4,-4 7,-4H365c2,0 6,2 7,4L392,339z" id="path_9"/><path fill="#64bf70" d="M298,294h-87c-2,0 -5,2 -6,5l-10,40c-0,2 1,5 3,4h100V294z" id="path_10"/><path fill="#289e48" d="M298,294c-0,-0 -0,-0 -0,-0H259c-2,0 -5,2 -5,5l-3,40c-0,2 1,5 4,5h43V294z" id="path_11"/><path fill="#ff9f3d" d="M265,229c0,11 -9,20 -20,19c-11,0 -117,-9 -117,-19s106,-20 117,-19C256,209 265,218 265,229z" id="path_12"/><path fill="#ab5436" d="M482,361h-18l10,-10c3,-3 3,-7 0,-10c-3,-3 -7,-3 -10,0l-20,20h-60c-4,0 -7,3 -7,7c0,4 3,7 7,7h44l12,12c1,1 3,2 5,2s3,-0 5,-2c3,-3 3,-7 0,-10l-2,-2h34c4,0 7,-3 7,-7C490,364 486,361 482,361z" id="path_13"/><path fill="#74b9df" d="M490,512H21c-4,0 -7,-3 -7,-7c0,-4 3,-7 7,-7H490c4,0 7,3 7,7C498,508 494,512 490,512z" id="path_14"/><path fill="none" d="M307,407v-19M327,407v-19M346,407v-19" stroke-linecap="round" stroke="#289e48" stroke-width="12.0" id="path_15"/><path fill="#64bf70" d="M355,389c0,2 -2,5 -5,5h-46c-2,0 -5,-2 -5,-5v-98c0,-2 2,-5 5,-5h46c2,0 5,2 5,5V389z" id="path_16"/><path fill="#289e48" d="M298,321h56v38h-57z" id="path_17"/></svg>