<svg id="vector" xmlns="http://www.w3.org/2000/svg" width="24.0d" height="24.0d" viewBox="0 0 512.0 512.0"><path fill="#f2d1a5" d="m225,454c-14,-1 -24,-14 -23,-28 3,-33 17,-75 42,-99 10,-9 26,-9 36,0 10,10 9,26 -0,36 -10,10 -23,37 -26,66 -1,14 -13,24 -28,23z" id="path_0"/><path fill="#f2d1a5" d="m335,272c-10,-9 -10,-26 -0,-36 23,-24 65,-38 99,-42 14,-1 27,9 28,23 1,14 -9,27 -23,28 -29,2 -56,15 -66,26 -10,10 -26,10 -36,0z" id="path_1"/><path fill="#f2d1a5" d="m376,492c-10,-37 -34,-72 -44,-90 -7,-12 -2,-28 9,-35 12,-7 28,-2 35,9 9,16 37,56 49,102 3,13 -4,28 -18,31 -13,3 -28,-4 -31,-18z" id="path_2"/><path fill="#f2d1a5" d="m456,429c-20,-33 -53,-58 -68,-72 -10,-9 -11,-26 -1,-36 9,-10 26,-11 36,-1 14,13 52,43 77,83 7,12 4,28 -8,35 -12,7 -28,4 -35,-8z" id="path_3"/><path fill="#f5ed85" d="m405,397c23,-23 46,-50 67,-80 10,-15 0,-36 -18,-37 -27,-1 -56,-11 -86,-32 -23,-16 -65,-22 -100,12s-29,77 -12,100c21,29 31,58 32,86 0,18 22,29 37,18 30,-21 57,-44 80,-67z" id="path_4"/><path fill="#efb060" d="M295,287c18,47 -55,108 -66,41zM295,287c47,18 108,-55 41,-66z" id="path_5"/><path fill="#e06e7e" d="m102,201c0,-26 -21,-47 -47,-47 -27,-0 -48,23 -47,50 1,37 29,62 25,107 -1,14 13,24 26,18 32,-16 67,-53 42,-128z" id="path_6"/><path fill="#e06e7e" d="m209,94c-26,0 -47,-21 -47,-47 -0,-27 23,-48 50,-47 37,1 62,29 107,25 14,-1 24,13 18,26 -16,32 -53,67 -128,42z" id="path_7"/><path fill="#f2d1a5" d="m315,109c-43,-43 -109,-48 -177,18 -55,75 -13,249 152,163 1,-1 2,-2 4,-4 68,-68 63,-134 20,-178z" id="path_8"/><path fill="#f2bb88" d="m291,291c-160,14 -162,-111 -152,-163 -0,0 -0,0 -1,1 -68,68 -63,134 -20,178 42,42 107,48 174,-16z" id="path_9"/><path fill="#e48895" d="m130,115c30,-53 100,-61 133,-47 8,3 10,14 4,20 -26,26 -76,56 -98,66 -3,1 -6,4 -7,7 -9,22 -39,72 -66,98 -6,6 -17,4 -20,-4 -13,-33 -6,-103 47,-133 3,-1 5,-4 7,-7z" id="path_10"/><path fill="#eda1ab" d="M155,306a24,30 45,1 0,42 -42a24,30 45,1 0,-42 42zM271,190a24,30 45,1 0,42 -42a24,30 45,1 0,-42 42z" id="path_11"/><path fill="#4f5c6f" d="m173,263c-2,0 -3,-0 -5,-2l-8,-8c-3,-3 -3,-7 0,-10 3,-3 7,-3 10,0l8,8c3,3 3,7 0,10 -1,1 -3,2 -5,2z" id="path_12"/><path fill="#4f5c6f" d="m264,172c-2,0 -3,-0 -5,-2l-8,-8c-3,-3 -3,-7 0,-10 3,-3 7,-3 10,0l8,8c3,3 3,7 0,10 -1,1 -3,2 -5,2z" id="path_13"/><path fill="#4f5c6f" d="m207,229c-0,0 -1,-0 -2,-0 -4,-0 -7,-3 -7,-8s3,-7 8,-7c4,0 8,-1 11,-4 3,-3 4,-7 4,-11 -0,-4 2,-7 7,-8 4,-0 7,2 8,7 0,8 -2,17 -8,23 -5,5 -13,8 -21,8z" id="path_14"/></svg>