<svg id="vector" xmlns="http://www.w3.org/2000/svg" width="24.0d" height="24.0d" viewBox="0 0 464.0 464.0"><path fill="#394d5c" d="m456,222 l-102,-17c-17,-3 -33,-13 -43,-28 -17,-25 -47,-41 -78,-41s-61,15 -78,41c-10,15 -25,25 -43,28l-102,17c-4,0 -7,4 -7,9 -0,4 3,8 7,9l102,17c17,3 33,13 43,28 17,25 47,41 78,41s61,-15 78,-41c9,-15 25,-25 43,-28l102,-17c4,-0 7,-4 7,-9 0,-4 -3,-8 -7,-9z" id="path_0"/><path fill="#db527d" d="m347,184c-3,0 -5,-1 -7,-4 -20,-41 -62,-67 -108,-67 -4,0 -8,-3 -8,-8s3,-8 8,-8c52,-0 99,29 122,76 1,2 1,5 -0,7 -1,2 -4,3 -6,3z" id="path_1"/><path fill="#db527d" d="m121,176c-1,0 -2,-0 -4,-1 -3,-2 -5,-7 -3,-11 16,-29 43,-50 75,-61 2,-1 5,-0 7,1 2,2 3,4 2,7 -0,2 -2,5 -5,6 -28,9 -51,28 -66,54 -1,2 -4,4 -7,4z" id="path_2"/><path fill="#db527d" d="m232,368c-49,-0 -95,-26 -119,-70 -2,-3 -0,-8 3,-10 3,-2 8,-0 10,3 21,38 61,61 105,61 33,0 64,-13 87,-37 3,-3 8,-3 11,-0 3,3 3,8 0,11 -25,27 -61,42 -98,42z" id="path_3"/><path fill="#db527d" d="m337,312c-3,-0 -5,-1 -7,-4 -1,-2 -1,-5 0,-8 4,-7 8,-14 12,-22 1,-2 3,-4 6,-5 2,-0 5,0 7,3 1,2 2,5 1,8 -3,9 -8,17 -13,25 -1,2 -4,3 -6,3z" id="path_4"/><path fill="#aabece" d="M280,232c0,26 -21,48 -48,48s-48,-21 -48,-48 21,-48 48,-48 48,21 48,48zM424,400c0,13 -10,24 -24,24s-24,-10 -24,-24 10,-24 24,-24 24,10 24,24zM120,72c0,17 -14,32 -32,32s-32,-14 -32,-32 14,-32 32,-32 32,14 32,32z" id="path_5"/><path fill="none" d="M88,360 h0M120,360 h0M264,56 h0M296,72 h0M312,40 h0" stroke-linecap="round" stroke="#fdbd40" stroke-width="12.0" id="path_6"/></svg>