<svg id="vector" xmlns="http://www.w3.org/2000/svg" width="24.0d" height="24.0d" viewBox="0 0 512.0 512.0"><path fill="#d8fc7e" d="m458,479.8h-430v-100.8c0,-28 19,-52.4 47,-58.5l93,-20.5h150l93,20.5c27,6 47,30.4 47,58.5z" id="path_0"/><path fill="#8ae897" d="m291,364 l-47,-19 -47,19c-13,5.2 -27,-4.4 -27,-18.5v-45.5c0,-16.5 13,-30 30,-30h90c16,0 30,13.4 30,30v45.5c0,14 -14,23.8 -27,18.5z" id="path_1"/><path fill="#e07f66" d="m268,253.4h-50c-4,0 -8,-0.5 -11,-1.4v27.5c0,16 6,31.6 18,43l18,18.3 18,-18.3c11,-11.2 18,-26.8 18,-43v-27.5c-3,1 -7,1.4 -12,1.4z" id="path_2"/><path fill="#e07f66" d="m328,177.7h-170c-11,0 -20,-9 -20,-20v-19.3h210v19.3c0,11 -9,20 -20,20z" id="path_3"/><path fill="#ffceb7" d="m268,253.4h-50c-27,0 -50,-22.3 -50,-50v-65h150v65c0,27.6 -22,50 -50,50z" id="path_4"/><path fill="#d8fc7e" d="m359,138.4h-232.4c-10,0 -18,-8.4 -18,-18.7 0,-10.3 8,-18.7 18,-18.7h232.4c10,0 18,8.4 18,18.7 -0,10.3 -8,18.7 -18,18.7z" id="path_5"/><path fill="#d8fc7e" d="m333,99.8h-179.8v-22.3c0,-33 26,-70 60,-70h59.8c33,0 60,36.8 60,70z" id="path_6"/><path fill="#bcbcc0" d="m75,320.3 l11,-2.4v-168h-38v184.3c7,-6.6 16,-11.5 27,-13.8z" id="path_7"/><path fill="#000000" d="m466,404.8v-25.8c0,-15.3 -5,-30.3 -14,-42.2 -9,-12 -23,-20.3 -38,-23.6l-87,-19.3c-3,-17.7 -18,-31.3 -37,-31.3h-0.5v-4.7c22,-8 38,-29.2 38,-54v-18.2h2.5c15,0 27,-12.3 27,-27.5v-11.8h3.7c14,0 26,-11.7 26,-26.2s-11,-26.2 -26,-26.2h-18.7v-15.8c0,-18 -7,-37 -19,-52 -13,-16.3 -30,-25.3 -48,-25.3h-59.8c-17,0 -35,9 -48,25.3 -12,15 -19,34 -19,52v15.8h-18.8c-14,0 -26,11.7 -26,26.2s11,26.2 26,26.2h3.7v11.8c0,15 12,27.5 27,27.5h2.5v18.2c0,25 16,46 38,54v4.7h-0.6c-18,0 -34,13.5 -37,31.3l-67,14.9v-166h-53v22.4h-16.8v15h16.8v151c-1,1.7 -3,3.6 -5,5.6 -9,12 -14,27 -14,42.2v108.3h445v-67.5h-15v52.5h-40v-59,-22.5h-110v82h-50v-116.3l37,15c3,1.3 6,2 10,2 5,-0 10,-1.6 15,-4.7 7,-5 12,-13.6 12,-22.7v-36l83,18.5c24,5.3 41,26.4 41,51.2v25.8h15zM316,405.3h80v7.5c0,12.4 -10,22.5 -22,22.5h-35c-12,0 -22,-10 -22,-22.5zM316,442.8c6,4.7 14,7.5 22,7.5h35c8,0 16,-2.8 22,-7.5v29.4h-80zM341,157.7c0,6.8 -5,12.5 -12,12.5h-2.5v-24.3h15zM213,15h59.8c21,0 39,17.8 47,38.3h-154.7c8,-20.5 26,-38.3 47,-38.3zM127,131c-6,0 -11,-5 -11,-11.2s5,-11.2 11,-11.2h56.3v-15h-22.5v-15.8c0,-3 0,-6 0,-9h163.3c0,3 0,6 0,9v15.8h-128v15h161.7c6,0 11,5 11,11.2s-5,11.2 -11,11.2h-232.4zM158,170.2c-6,0 -12,-5.6 -12,-12.5v-11.8h15v24.3zM176,203.4v-57.5h135v57.5c0,23.4 -19,42.5 -42,42.5h-50c-23,0 -42,-19 -42,-42.5zM176,299.8c0,-12.4 10,-22.5 22,-22.5h0.6v2.2c0,7 1,14.2 3,21l14,-4.6c-1,-5.3 -2,-10.8 -2,-16.4v-18.8c1,0 3,0 4,0h50c1,0 3,-0 4,-0v18.7c0,14 -5,27.8 -15,37.6l-13,13.2 -13,-13.2c-2,-2.6 -5,-5.6 -7,-9l-12,8c2,4 5,8 9,11.4l13,13 -39,16c-4,1.5 -8,1 -11,-1.2 -3,-2.3 -5,-6 -5,-10.3v-45.5zM79,157.4v154.4l-5,1c-6,1.3 -12,3.6 -18,6.7v-162.4zM94,472.3v-29.4c6,4.7 14,7.5 22,7.5h35c8,0 16,-2.8 22,-7.5v29.4zM174,412.8c0,12.4 -10,22.5 -22,22.5h-35c-12,0 -22,-10 -22,-22.5v-7.5h80zM189,472.3v-82h-110v22,59.4h-43v-93.3c0,-24.8 17,-45.8 41,-51.2l83,-18.5v36c0,9 4,17.6 12,22.7s17,6 25,2.7l37,-14.9v116.3h-46.8zM311,345.3c0,4.2 -2,8 -5,10.3 -3,2.3 -7,2.8 -11,1.2l-39,-16 13,-13c13,-12.6 20,-30.2 20,-48.3v-2.2h0.5c12,0 22,10 22,22.5z" id="path_8"/><path fill="#000000" d="m198,158.8h15v15h-15z" id="path_9"/><path fill="#000000" d="m273,158.8h15v15h-15z" id="path_10"/><path fill="#000000" d="m270,217.4 l7,-13.2 -33,-17.8 -34,16.7 6,13.4 27,-13.3z" id="path_11"/></svg>