<svg id="vector" xmlns="http://www.w3.org/2000/svg" width="24.0d" height="24.0d" viewBox="0 0 512.0 512.0"><path fill="#f5dcb4" d="M432,51h-80c-29,11 -35,-8 -96,-8s-67,19 -96,8H79L69,253c6,79 55,122 94,137h185c38,-15 87,-58 94,-137L432,51z" stroke="#000000" stroke-width="12.0" id="path_0"/><path fill="#965a50" d="M352,51c90,27 41,166 99,226c8,8 23,4 26,-6c4,-15 9,-39 8,-73c-1,-47 18,-50 18,-50S480,35 408,35C384,35 352,51 352,51z" stroke="#000000" stroke-width="12.0" id="path_1"/><path fill="#4b3f4e" d="M171,260L171,260c-15,0 -28,-12 -28,-28v-16c0,-15 12,-28 28,-28l0,0c15,0 28,12 28,28v16C199,247 187,260 171,260z" stroke="#000000" stroke-width="12.0" id="path_2"/><path fill="#4b3f4e" d="M340,260L340,260c-15,0 -28,-12 -28,-28v-16c0,-15 12,-28 28,-28l0,0c15,0 28,12 28,28v16C368,247 355,260 340,260z" stroke="#000000" stroke-width="12.0" id="path_3"/><path fill="#ffffff" d="M171,207m-12,0a12,12 0,1 1,24 0a12,12 0,1 1,-24 0M340,207m-12,0a12,12 0,1 1,24 0a12,12 0,1 1,-24 0" id="path_4"/><path fill="#965a50" d="M159,51C69,78 118,218 60,278c-8,8 -23,4 -26,-6c-4,-15 -9,-39 -8,-73c1,-47 -18,-50 -18,-50S31,35 103,35C127,35 159,51 159,51z" stroke="#000000" stroke-width="12.0" id="path_5"/><path fill="#bc8e78" d="M167,396a88,64 0,1 0,176 0a88,64 0,1 0,-176 0z" stroke="#000000" stroke-width="12.0" id="path_6"/><path fill="#ff8087" d="M216,396v40c0,22 18,40 40,40s40,-18 40,-40v-40H216z" stroke="#000000" stroke-width="12.0" id="path_7"/><path fill="#d4af91" d="M308,324H204c-33,0 -60,19 -60,44c0,24 27,44 60,44c16,0 31,-5 42,-13c2,-2 6,-3 9,-3c3,0 6,1 9,3c10,8 26,13 42,13c33,0 60,-19 60,-44C368,343 341,324 308,324z" stroke="#000000" stroke-width="12.0" id="path_8"/><path fill="#5d5360" d="M256,292c26,0 48,14 48,32c0,17 -20,26 -34,32c-8,3 -18,3 -26,0c-14,-6 -34,-15 -34,-32C208,306 229,292 256,292z" stroke="#000000" stroke-width="12.0" id="path_9"/></svg>