<svg id="vector" xmlns="http://www.w3.org/2000/svg" width="24.0d" height="24.0d" viewBox="0 0 682.6 682.6"><path fill="#df75a5" d="m115,620l0,-0c-11.9,-0 -21.5,-9.6 -21.5,-21.5l0,-102.5c0,-27.3 10.6,-53 29.9,-72.3l135.8,-135.8c11,-11 17.3,-26 17.3,-41.9l0,-122.7c0,-38.6 -31.4,-70 -70,-70l0,-43.1c62.3,-0 113,50.7 113,113l0,122.7c0,27.3 -10.6,53 -29.9,72.3L153.9,454C142.7,465.3 136.6,480.2 136.6,496L136.6,598.5C136.6,610.4 126.9,620 115,620" id="path_0"/><path fill="#df75a5" d="m298.2,620l0,-0c11.9,-0 21.5,-9.6 21.5,-21.5l0,-102.5c0,-27.3 -10.6,-53 -29.9,-72.3l-135.8,-135.8c-11,-11 -17.3,-26 -17.3,-41.9l0,-122.7c0,-38.6 31.4,-70 70,-70l0,-43.1c-62.3,-0 -113,50.7 -113,113l0,122.7c0,27.3 10.6,53 29.9,72.3L259.3,454c11,11 17.3,26 17.3,41.9L276.6,598.5C276.6,610.4 286.3,620 298.2,620" id="path_1"/><path fill="#90d8f9" d="m384.4,62.5l0,-0c-11.9,-0 -21.5,9.6 -21.5,21.5l0,102.5c0,27.3 10.6,53 29.9,72.3l135.8,135.8c11,11 17.3,26 17.3,41.9l0,122.7c0,38.6 -31.4,70 -70,70l0,43.1c62.3,-0 113,-50.7 113,-113l0,-122.7c0,-27.3 -10.6,-53 -29.9,-72.3L423.3,228.5c-11,-11 -17.3,-26 -17.3,-41.9l0,-102.5C405.9,72 396.3,62.5 384.4,62.5" id="path_2"/><path fill="#90d8f9" d="m567.6,62.5l0,-0c11.9,-0 21.5,9.6 21.5,21.5l0,102.5c0,27.3 -10.6,53 -29.9,72.3l-135.8,135.8c-11,11 -17.3,26 -17.3,41.9l0,122.7c0,38.6 31.4,70 70,70l0,43.1c-62.3,-0 -113,-50.7 -113,-113l0,-122.7c0,-27.3 10.6,-53 29.9,-72.3l135.8,-135.8c11,-11 17.3,-26 17.3,-41.9l0,-102.5C546,72 555.7,62.5 567.6,62.5" id="path_3"/><path fill="none" d="m136.6,568.6l0,29.9c0,5.9 -2.4,11.3 -6.3,15.2 -3.8,3.8 -9.2,6.3 -15.2,6.3 -11.8,-0 -21.5,-9.6 -21.5,-21.5l0,-102.5c0,-27.3 10.6,-53 29.9,-72.3l52.6,-52.6 -52.6,-52.6c-19.3,-19.3 -29.9,-45 -29.9,-72.3l0,-122.7c0,-62.3 50.7,-113 113,-113 62.3,-0 113,50.7 113,113l0,20.8m0,46.6l0,55.3c0,27.3 -10.6,53 -29.9,72.3l-52.6,52.6 52.6,52.6c19.3,19.3 29.9,45 29.9,72.3l0,102.5c0,5.9 -2.4,11.3 -6.3,15.2 -3.8,3.8 -9.2,6.3 -15.2,6.3 -11.8,-0 -21.5,-9.6 -21.5,-21.5l0,-102.5c0,-15.8 -6,-30.7 -17.3,-41.9L206.6,401.4 153.9,454C142.7,465.3 136.6,480.2 136.6,496L136.6,521.9m140,-276c0,15.8 -6,30.7 -17.3,41.9l-52.6,52.6 -52.6,-52.6c-11,-11 -17.3,-26 -17.3,-41.9l0,-122.7c0,-38.6 31.4,-70 70,-70 38.6,-0 70,31.4 70,70z" stroke-linecap="round" stroke="#000000" stroke-width="20.0" id="path_4"/><path fill="none" d="M206.6,340.4 L237,370.9 M176,370.9 L206.6,401.4 M115,620L115,672.6 M298.2,620L298.2,672.6" stroke-linecap="round" stroke="#000000" stroke-width="20.0" id="path_5"/><path fill="none" d="m589,512.6l0,46.8c0,62.3 -50.7,113 -113,113 -62.3,-0 -113,-50.7 -113,-113l0,-122.7c0,-27.3 10.6,-53 29.9,-72.3l52.6,-52.6 -52.6,-52.6c-19.3,-19.3 -29.9,-45 -29.9,-72.3l0,-102.5c0,-5.9 2.4,-11.3 6.3,-15.2 3.8,-3.8 9.2,-6.3 15.2,-6.3 11.8,-0 21.5,9.6 21.5,21.5L405.9,186.6c0,15.8 6,30.7 17.3,41.9l52.6,52.6 52.6,-52.6c11,-11.2 17.3,-26 17.3,-41.9l0,-102.5c0,-5.9 2.4,-11.3 6.3,-15.2 3.8,-3.8 9.2,-6.3 15.2,-6.3 11.8,-0 21.5,9.6 21.5,21.5L589,186.6C589,213.9 578.5,239.6 559,259L506.4,311.7 559,364.3C578.5,383.7 589,409.4 589,436.7L589,465.9m-43.1,93.5c0,38.6 -31.4,70 -70,70 -38.6,-0 -70,-31.4 -70,-70l0,-122.7c0,-15.8 6,-30.7 17.3,-41.9l52.6,-52.6 52.6,52.6c11,11 17.3,26 17.3,41.9z" stroke-linecap="round" stroke="#000000" stroke-width="20.0" id="path_6"/><path fill="none" d="M476,342 L506.5,311.7 M445.5,311.7 L476,281.2 M384.4,62.5L384.4,10 M567.6,62.5L567.6,10" stroke-linecap="round" stroke="#000000" stroke-width="20.0" id="path_7"/></svg>