<svg id="vector" xmlns="http://www.w3.org/2000/svg" width="24.0d" height="24.0d" viewBox="0 0 512.0 512.0"><path fill="#ffd88a" d="m301,502h117v-258c-10,-13 -27,-23 -44,-30 -24,-9 -49,-14 -75,-14h-86c-25,0 -51,4 -75,14 -17,7 -34,17 -44,30v258h119l-0,-0z" stroke="#000000" stroke-width="12.0" id="path_0"/><path fill="#868eaf" d="m381,134v80c-2,-1 -4,-1 -6,-2 -14,-6 -30,-10 -46,-12v-65c0,-40 -32,-72 -72,-72 -40,0 -72,32 -72,72v65c-15,2 -31,6 -46,12 -2,0 -4,1 -6,2v-80c0,-68 56,-125 125,-125s125,56 125,125z" stroke="#000000" stroke-width="12.0" id="path_1"/><path fill="#ffc135" d="m276,353c11,-6 18,-19 18,-32 0,-21 -17,-38 -38,-38s-38,17 -38,38c0,13 7,26 18,32l-15,61h73z" stroke="#000000" stroke-width="12.0" id="path_2"/></svg>