<svg id="vector" xmlns="http://www.w3.org/2000/svg" width="24.0d" height="24.0d" viewBox="0 0 512.0 512.0"><path fill="#d39c72" d="M502,107l-61,62l-0,-0l-0,0l-185,-99l62,-62z" stroke="#000000" stroke-width="12.0" id="path_0"/><path fill="#e2ae83" d="M256,69l-185,99l-0,-0l-0,0l-61,-62l184,-99zM441,169l0,235l-185,99l0,-235z" stroke="#000000" stroke-width="12.0" id="path_1"/><path fill="#f2c397" d="M256,269l0,235l-185,-99l0,-235zM441,169l61,62l-61,33l-123,66l-62,-62l185,-99l0,0zM441,169l61,62l-61,33l-123,66l-62,-62l185,-99l0,0z" stroke="#000000" stroke-width="12.0" id="path_2"/><path fill="#ffd2a6" d="M256,269l-62,62l-123,-66l-61,-33l61,-62l0,0l0,-0z" stroke="#000000" stroke-width="12.0" id="path_3"/><path fill="#c48d69" d="M441,169l-185,99l-185,-99l185,-99z" stroke="#000000" stroke-width="12.0" id="path_4"/></svg>