<svg id="vector" xmlns="http://www.w3.org/2000/svg" width="24.0d" height="24.0d" viewBox="0 0 512.0 512.0"><path fill="#cbf4fb" d="m292,328h129,80v-33,-44 -0,-44 -14c0,-40 -33,-73 -73,-73h-28v48c9,6 14,17 14,29 0,20 -16,36 -36,36s-36,-16 -36,-36c0,-12 5,-22 14,-29v-48h-137c40,0 73,33 73,73v3,17 116z" stroke="#000000" stroke-width="16.0" id="path_0"/><path fill="#ffd47b" d="m126,218v42,42 24h78,87v-116l-72,57 -93,-74z" stroke-linejoin="round" stroke="#000000" stroke-width="16.0" id="path_1"/><path fill="#fff1d8" d="m292,194h-147,-18l93,74 72,-57z" stroke-linejoin="round" stroke="#000000" stroke-width="16.0" id="path_2"/><path fill="#ff6c8a" d="m355,116v48c-9,6 -14,17 -14,29 0,20 16,36 36,36s36,-16 36,-36c0,-12 -5,-22 -14,-29v-48,-53h35c5,0 9,-4 9,-9v-33c0,-5 -4,-9 -9,-9h-35,-43v53z" stroke="#000000" stroke-width="16.0" id="path_3"/><path fill="#cfd3df" d="m292,328h-87v22c0,12 10,22 22,22h53,65 53c12,0 22,-10 22,-22v-22z" stroke="#000000" stroke-width="16.0" id="path_4"/><path fill="#98eaf9" d="m218,117c-40,0 -73,33 -73,73v3h147v-3c0,-40 -33,-73 -73,-73z" stroke="#000000" stroke-width="16.0" id="path_5"/><path fill="#9ea6bf" d="m280,373h65v129h-65z" stroke="#000000" stroke-width="16.0" id="path_6"/></svg>