<svg id="vector" xmlns="http://www.w3.org/2000/svg" width="24.0d" height="24.0d" viewBox="0 0 512.0 512.0"><path fill="#a0a0a0" d="m303,12 l103,53 22,112 -46,54 20,108 -29,58 -45,31 -36,73 -44,-12 48,-102 34,-9 24,-33 -30,-118 22,-32 8,-90z" id="path_0"/><path fill="#e0e0e0" d="m263,32 l-80,-25 -99,159 39,53 3,80 71,69 50,121 48,-102 34,-9 24,-33 -30,-118 22,-32 8,-90 -51,-92z" id="path_1"/><path fill="#000000" d="m403,303c-0,-4 -4,-6 -8,-6 -4,0 -6,4 -6,8l6,34 -27,54 -43,30c-1,0 -1,1 -2,2l-34,67 -29,-8 43,-91 31,-8c1,-0 3,-1 4,-2l24,-33c1,-1 1,-4 1,-6l-29,-115 20,-29c0,-1 1,-2 1,-3l2,-27c0,-4 -2,-7 -6,-8 -4,-0 -7,2 -8,6l-2,25 -21,31c-1,1 -1,4 -1,6l29,115 -20,28 -32,8c-2,0 -3,2 -4,4l-41,87 -43,-105c-0,-1 -1,-1 -1,-2l-27,-26c-3,-2 -7,-2 -10,0 -2,3 -2,7 0,10l26,25 49,120c0,2 2,3 4,4l44,12c3,1 7,-0 8,-3l35,-71 43,-30c1,-0 1,-1 2,-2l29,-58c0,-1 1,-3 0,-4z" id="path_2"/><path fill="#000000" d="m436,177 l-22,-112c-0,-2 -1,-4 -4,-5l-103,-53c-2,-1 -4,-1 -6,-0l-37,18 -78,-24c-3,-1 -6,0 -8,3l-99,159c-1,2 -1,6 0,8l38,51 3,78c0,2 0,3 2,5l22,21c3,3 8,2 11,-0 2,-3 2,-7 -0,-9l-20,-19 -2,-63 29,18c2,1 5,1 8,-0l18,-12 25,-4c4,-0 6,-4 6,-8 -0,-4 -4,-6 -8,-6l-26,5c-1,0 -1,0 -2,1l-16,10 -35,-22 -36,-48 93,-150 75,23c1,0 3,0 5,-0l33,-16 46,84 -2,30c-0,4 2,7 6,8 4,0 7,-2 8,-6l3,-33c0,-1 -0,-3 -1,-4l-39,-70 78,40 20,105 -43,51c-1,1 -2,4 -1,6l7,40c0,4 5,6 9,6 3,-0 6,-4 5,-8l-6,-37 43,-51c1,-1 2,-4 1,-6z" id="path_3"/></svg>