<svg id="vector" xmlns="http://www.w3.org/2000/svg" width="24.0d" height="24.0d" viewBox="0 0 512.0 512.0"><path fill="#fee372" d="m245,156s-36,-27 -47,-9c-11,18 -10,30 5,46" stroke="#000000" stroke-width="12.0" id="path_0"/><path fill="#cce6f6" d="m494,317c0,31 -42,53 -93,53h-272c-24,0 -45,-2 -61,-6 -40,-9 -59,-25 -59,-25l18,-43 44,2z" stroke="#000000" stroke-width="12.0" id="path_1"/><path fill="#fb6572" d="m494,317s-49,18 -117,18c-48,0 -213,-21 -298,-33 -32,-4 -53,-7 -53,-7 -12,-17 12,-79 26,-110 7,-16 22,-28 40,-30 1,-0 3,-0 5,-0 9,0 14,15 23,29 8,13 18,26 37,26 37,0 86,-55 86,-55 96,66 170,95 170,95s62,0 77,15c15,15 13,43 1,51z" stroke="#000000" stroke-width="12.0" id="path_2"/><path fill="#4695bc" d="m278,177 l-91,101c-31,-18 -75,-33 -108,-43 -24,-7 -42,-11 -43,-11 3,-8 6,-16 9,-24l40,13 11,3c13,4 27,2 39,-4l8,-5c4,1 8,3 14,3 37,0 86,-55 86,-55 11,7 22,15 33,21z" stroke="#000000" stroke-width="12.0" id="path_3"/><path fill="#fee372" d="m380,276c-30,2 -70,39 -70,54v0c-26,-2 -56,-6 -86,-9 0,-15 -14,-29 -36,-41v-0l91,-101c79,50 137,73 137,73 14,14 -6,22 -36,24z" stroke="#000000" stroke-width="12.0" id="path_4"/><path fill="none" d="M300,210l16,-16 M320,220l16,-16 M340,230l16,-16 M360,240l16,-16" stroke-linecap="round" stroke="#000000" stroke-width="16.0" id="path_5"/></svg>