<svg id="vector" xmlns="http://www.w3.org/2000/svg" width="24.0d" height="24.0d" viewBox="0 0 512.0 512.0"><path fill="#c68a65" d="m85,244h416v56h-416z" stroke="#000000" stroke-width="16.0" id="path_0"/><path fill="#89df8f" d="m89,244c0,106 58,167 130,167 5,0 9,-2 12,-6 5,-6 12,-9 20,-9 22,0 35,26 21,43 -12,15 -32,25 -54,25 -116,0 -210,-94 -210,-210 0,-116 95,-210 211,-209 48,0 93,17 129,45v-34c31,0 58,21 66,51l13,3c42,10 71,48 71,91 0,22 -18,40 -40,40h-135z" stroke="#000000" stroke-width="16.0" id="path_1"/><path fill="#89df8f" d="m308,256c-6,0 -12,-3 -16,-8l-25,-37c-11,-16 -7,-39 8,-50l27,-19c9,-6 21,-4 28,4 6,9 4,21 -4,28l-24,17 23,34c6,9 4,21 -5,28 -3,2 -7,3 -11,3z" stroke="#000000" stroke-width="16.0" id="path_2"/><path fill="#ffcd69" d="M391,166a28,28 0,1 0,40 -39a28,28 0,1 0,-40 39z" stroke="#000000" stroke-width="16.0" id="path_3"/><path fill="#89df8f" d="m136,168 l38,-17c20,-9 43,9 36,31l-14,55c-2,11 -12,18 -23,18 -15,0 -27,-14 -23,-30l3,-15z" stroke="#000000" stroke-width="16.0" id="path_4"/><path fill="#89df8f" d="m408,369v-22h22c19,0 34,15 34,34v22h-22c-19,0 -34,-15 -34,-34z" stroke="#000000" stroke-width="16.0" id="path_5"/><path fill="none" d="M206,99h-6M152,123h-6M244,138h-6M286,111h-6 M366,309l40,35 M426,149h0 M476,209h20" stroke-linecap="round" stroke="#000000" stroke-width="12.0" id="path_6"/></svg>