<svg id="vector" xmlns="http://www.w3.org/2000/svg" width="24.0d" height="24.0d" viewBox="0 0 512.0 512.0"><path fill="#ffffff" d="m462,128h-412c-22,0 -40,18 -40,40v240c0,22 18,40 40,40h412c22,0 40,-18 40,-40v-240c0,-22 -18,-40 -40,-40z" stroke="#000000" stroke-width="12.0" id="path_0"/><path fill="#a7bcce" d="m499,400h-123,-213 -144v-184h144,213 123z" stroke="#000000" stroke-width="12.0" id="path_1"/><path fill="#c3d3dd" d="m131,267h-39c-7,0 -14,6 -14,14v54c0,7 6,14 14,14h39z" stroke="#000000" stroke-width="12.0" id="path_2"/><path fill="#a0c8ff" d="M267,308m-140,0a140,140 0,1 1,280 0a140,140 0,1 1,-280 0" stroke="#000000" stroke-width="12.0" id="path_3"/><path fill="#dfecff" d="M267,308m-89,0a89,89 0,1 1,179 0a89,89 0,1 1,-179 0" stroke="#000000" stroke-width="12.0" id="path_4"/><path fill="#ff7b79" d="m64,84h48v44h-48z" stroke="#000000" stroke-width="12.0" id="path_5"/><path fill="#a7bcce" d="m368,128 l-19,-64h-163l-19,64z" stroke="#000000" stroke-width="12.0" id="path_6"/></svg>