<svg id="vector" xmlns="http://www.w3.org/2000/svg" width="24.0d" height="24.0d" viewBox="0 0 512.0 512.0"><path fill="#8d9ca8" d="m89,356 l-44,-122c-0,-1 -0,-3 0,-5l41,-113c1,-4 -0,-8 -4,-10l-10,-3c-4,-1 -8,0 -10,4l-44,122c-0,1 -0,3 0,5l47,131c1,4 6,6 10,4l10,-3c4,-1 6,-6 4,-10z" stroke="#000000" stroke-width="12.0" id="path_0"/><path fill="#fea613" d="m22,386h381v-70h-373c-4,0 -8,3 -8,8z" stroke="#000000" stroke-width="12.0" id="path_1"/><path fill="#fad448" d="m489,264v113h-112v-202c0,-4 3,-8 8,-8h56c3,0 6,1 7,4l12,27 27,61 1,2c0,0 0,0 0,0z" stroke="#000000" stroke-width="12.0" id="path_2"/><path fill="#99e6fc" d="m488,261h-68c-4,0 -8,-3 -8,-8v-45c0,-4 3,-8 8,-8h41z" stroke="#000000" stroke-width="12.0" id="path_3"/><path fill="#fea613" d="m376,190 l-45,123c-0,1 -2,2 -4,2l-109,-14 -37,-5c-0,-0 -1,-0 -1,-0l-32,-20 -92,-58c-0,-0 -0,-0 -0,-0 -0,-1 -1,-2 -0,-4l45,-123c0,-0 0,-0 0,-0 0,-0 0,-0 0,-0 0,-1 2,-2 4,-2l108,14 38,5c0,0 1,0 1,0l32,20 93,58c1,1 2,2 1,4z" stroke="#000000" stroke-width="12.0" id="path_4"/><path fill="#9facba" d="m281,126 l-63,175 -37,-5c-0,-0 -1,-0 -1,-0l-32,-20 63,-174 38,5c0,0 1,0 1,0z" stroke="#000000" stroke-width="12.0" id="path_5"/><path fill="#d8ecfe" d="m500,407h-489c-2,0 -4,-1 -4,-4v-27c0,-2 1,-4 4,-4h489c2,0 4,1 4,4v27c0,2 -1,4 -4,4z" stroke="#000000" stroke-width="12.0" id="path_6"/><path fill="#fb8801" d="m119,88 l-50,138 -17,-10c-0,-1 -1,-2 -0,-4l45,-123c0,-0 0,-0 0,-0 0,-0 0,-0 0,-0 0,-1 2,-2 4,-2z" stroke="#000000" stroke-width="12.0" id="path_7"/><path fill="#8d9ca8" d="M222,389m-45,0a45,45 0,1 1,90 0a45,45 0,1 1,-90 0M419,389m-45,0a45,45 0,1 1,90 0a45,45 0,1 1,-90 0M92,389m-45,0a45,45 0,1 1,90 0a45,45 0,1 1,-90 0" stroke="#000000" stroke-width="12.0" id="path_8"/><path fill="#d8ecfe" d="M222,389m-15,0a15,15 0,1 1,30 0a15,15 0,1 1,-30 0M420,389m-15,0a15,15 0,1 1,30 0a15,15 0,1 1,-30 0M92,389m-15,0a15,15 0,1 1,30 0a15,15 0,1 1,-30 0" stroke="#000000" stroke-width="12.0" id="path_9"/><path fill="#fd8087" d="m489,286v33h-35c-2,0 -4,-1 -4,-4v-25c0,-2 1,-4 4,-4z" stroke="#000000" stroke-width="12.0" id="path_10"/></svg>