<svg id="vector" xmlns="http://www.w3.org/2000/svg" width="24.0d" height="24.0d" viewBox="0 0 512.0 512.0"><path fill="#59c36a" d="m211,207c9,-12 15,-26 15,-41l-30,-15h-30,-30l-30,15c0,14 5,29 15,41v97c-9,12 -15,26 -15,41l30,15h30,30l30,-15c0,-14 -5,-29 -15,-41z" id="path_0"/><path fill="#00a66c" d="m226,346c0,-14 -5,-29 -15,-41v-97c9,-12 15,-26 15,-41l-30,-15h-30v210h30z" id="path_1"/><path fill="#97de3d" d="M106,346c0,14 5,29 15,41v109c0,8 6,15 15,15h30,30c8,0 15,-6 15,-15v-109c9,-12 15,-26 15,-41h-60zM226,166c0,-14 -5,-29 -15,-41v-109c0,-8 -6,-15 -15,-15h-30,-30c-8,0 -15,6 -15,15v109c-9,12 -15,26 -15,41h60z" id="path_2"/><path fill="#59c36a" d="M211,124v-109c0,-8 -6,-15 -15,-15h-30v166h60c0,-14 -5,-29 -15,-41zM211,497v-109c9,-12 15,-26 15,-41h-60v166h30c8,0 15,-6 15,-15z" id="path_3"/><path fill="#59c36a" d="m391,207c9,-12 15,-26 15,-41l-30,-15h-30,-30l-30,15c0,14 5,29 15,41v97c-9,12 -15,26 -15,41l30,15h30,30l30,-15c0,-14 -5,-29 -15,-41z" id="path_4"/><path fill="#00a66c" d="M166,166h-15c-58,0 -105,-47 -105,-105v-15c0,-8 6,-15 15,-15 58,0 105,47 105,105zM406,346c0,-14 -5,-29 -15,-41v-97c9,-12 15,-26 15,-41l-30,-15h-30v210h30z" id="path_5"/><path fill="#97de3d" d="M286,346c0,14 5,29 15,41v109c0,8 6,15 15,15h30,30c8,0 15,-6 15,-15v-109c9,-12 15,-26 15,-41h-60zM406,166c0,-14 -5,-29 -15,-41v-109c0,-8 -6,-15 -15,-15h-30,-30c-8,0 -15,6 -15,15v109c-9,12 -15,26 -15,41h60z" id="path_6"/><path fill="#59c36a" d="M391,124v-109c0,-8 -6,-15 -15,-15h-30v166h60c0,-14 -5,-29 -15,-41zM391,497v-109c9,-12 15,-26 15,-41h-60v166h30c8,0 15,-6 15,-15z" id="path_7"/><path fill="#97de3d" d="m346,346h15c58,0 105,-47 105,-105v-15c0,-8 -6,-15 -15,-15 -58,0 -105,47 -105,105z" id="path_8"/></svg>