<svg id="vector" xmlns="http://www.w3.org/2000/svg" width="24.0d" height="24.0d" viewBox="0 0 512.0 512.0"><path fill="#ffad95" d="M103,273h-58l-34,77 55,-37h70zM137,313 l-74,42 9,82 27,-58 64,-37zM182,362 l-46,46 33,76 8,-60 39,-39M409,273h58l34,77 -55,-37h-70zM375,313 l74,42 -9,82 -27,-58 -64,-37zM329,362 l46,46 -33,76 -8,-60 -39,-39zM402,230 l47,-17v-43l43,8v4c0,23 -14,44 -36,52l-51,20zM109,230 l-47,-17v-43l-43,8v24c0,23 14,44 36,52l51,20z" stroke="#000000" stroke-width="12.0" id="path_0"/><path fill="#ff9171" d="M71,99 l15,-72c-44,15 -76,57 -76,107 0,15 3,30 8,44 0,0 0,0 0,0 62,0 113,-50 114,-113 -30,16 -61,34 -61,34zM440,99 l-15,-72c44,15 76,57 76,107 0,15 -3,30 -8,44 -0,0 -0,0 -0,0 -62,0 -113,-50 -114,-113 30,16 61,34 61,34zM393,294 l-65,65c-39,39 -103,39 -143,0l-65,-65c-21,-21 -21,-55 0,-76 75,-75 198,-75 274,0 21,21 21,55 0,76z" stroke="#000000" stroke-width="12.0" id="path_1"/><path fill="#8aa8bd" d="M330,154m-20,0a20,20 0,1 1,40 0a20,20 0,1 1,-40 0M182,154m-20,0a20,20 0,1 1,40 0a20,20 0,1 1,-40 0" stroke="#000000" stroke-width="12.0" id="path_2"/></svg>