<svg id="vector" xmlns="http://www.w3.org/2000/svg" width="24.0d" height="24.0d" viewBox="0 0 512.0 512.0"><path fill="#5d647f" d="M472,72H40C18,72 0,90 0,112v288c0,22 18,40 40,40h432c22,0 40,-18 40,-40V112C512,90 494,72 472,72z" id="path_0"/><path fill="#ffd100" d="M176,232H80c-8,0 -16,-7 -16,-16v-64c0,-8 7,-16 16,-16h96c8,0 16,7 16,16v64C192,224 184,232 176,232z" id="path_1"/><path fill="#b8bac0" d="M120,336H80c-8,0 -16,-7 -16,-16v-8c0,-8 7,-16 16,-16h40c8,0 16,7 16,16v8C136,328 128,336 120,336z" id="path_2"/><path fill="#b8bac0" d="M224,336h-40c-8,0 -16,-7 -16,-16v-8c0,-8 7,-16 16,-16h40c8,0 16,7 16,16v8C240,328 232,336 224,336z" id="path_3"/><path fill="#b8bac0" d="M328,336h-40c-8,0 -16,-7 -16,-16v-8c0,-8 7,-16 16,-16h40c8,0 16,7 16,16v8C344,328 336,336 328,336z" id="path_4"/><path fill="#b8bac0" d="M432,336h-40c-8,0 -16,-7 -16,-16v-8c0,-8 7,-16 16,-16h40c8,0 16,7 16,16v8C448,328 440,336 432,336z" id="path_5"/><path fill="none" d="M232,384H72 M336,384h-72" stroke-linecap="round" stroke="#8a8895" stroke-width="16.0" id="path_6"/><path fill="#ff4f19" d="M368,216C359,225 346,232 332,232c-26,0 -48,-21 -48,-48s21,-48 48,-48c14,0 27,6 35,15" id="path_7"/><path fill="#ff9500" d="M192,192l-80,0l0,-16l80,0l0,-16l-80,0l0,-24l-16,0l0,96l16,0l0,-24l80,0z" id="path_8"/><path fill="#ffd100" d="M400,184m-48,0a48,48 0,1 1,96 0a48,48 0,1 1,-96 0" id="path_9"/></svg>