<svg id="vector" xmlns="http://www.w3.org/2000/svg" width="24.0d" height="24.0d" viewBox="0 0 512.0 512.0"><path fill="#aa5d24" d="M477,280V170h-68H188H53c-25,0 -45,-20 -45,-45v45v271c0,25 20,45 45,45h424V374" stroke="#000000" stroke-width="16.0" id="path_0"/><path fill="#7c3d1e" d="M152,79H49c-23,0 -42,18 -42,42v6c0,23 18,42 42,42h380V79H316" stroke="#000000" stroke-width="16.0" id="path_1"/><path fill="#78aa17" d="M205,25l-144,144l57,0l116,-116z" stroke="#000000" stroke-width="16.0" id="path_2"/><path fill="#f99608" d="M489,374h-85c-26,0 -47,-21 -47,-47l0,0c0,-26 21,-47 47,-47h85c8,0 15,6 15,15v64C504,368 497,374 489,374z" stroke="#000000" stroke-width="16.0" id="path_3"/><path fill="#ffd039" d="M410,327m-17,0a17,17 0,1 1,34 0a17,17 0,1 1,-34 0" stroke="#000000" stroke-width="16.0" id="path_4"/><path fill="#8acc19" d="M407,170l-144,-144l-144,144z" stroke="#000000" stroke-width="16.0" id="path_5"/><path fill="#78a017" d="M364,170l-80,-80c-11,11 -31,11 -43,0l-80,80H364z" stroke="#000000" stroke-width="16.0" id="path_6"/></svg>