<svg width="100" height="100" viewBox="0 0 100 100" fill="none" xmlns="http://www.w3.org/2000/svg">
<g clip-path="url(#clip0_8_44)">
<path d="M87.1094 41.0156V97.6562H12.6953V41.0156L50 4.6875L87.1094 41.0156Z" fill="#E9EAEF" stroke="black" stroke-width="0.5625"/>
<path d="M68.9453 21.0938V10.7422H87.5V38.8672" fill="#CC7039"/>
<path d="M68.9453 21.0938V10.7422H87.5V38.8672" stroke="black" stroke-width="0.5625"/>
<path d="M50 12.5L7.61719 52.9297L1.75781 48.0469L47.0703 4.88281L50 2.14844L52.9297 4.88281L98.2422 48.0469L92.3828 52.9297L50 12.5Z" fill="#CC7039" stroke="black" stroke-width="0.5625"/>
<path d="M53.5156 55.2734H81.4453V79.6875H53.5156V55.2734Z" fill="#A0D9F2" stroke="black" stroke-width="0.5625"/>
<path d="M21.875 55.2734H46.2891V97.6562H21.875V55.2734Z" fill="#C97523"/>
<path d="M81.4453 62.6953V55.2734H53.5156V62.6953M21.875 55.2734H46.2891V97.6562H21.875V55.2734Z" stroke="black" stroke-width="0.5625"/>
<line x1="67.5" y1="55" x2="67.5" y2="80" stroke="black"/>
<line x1="54" y1="67.5" x2="81" y2="67.5" stroke="black"/>
<circle cx="43.5" cy="78.5" r="1.5" fill="#D9D9D9"/>
</g>
<defs>
<clipPath id="clip0_8_44">
<rect width="100" height="100" fill="white"/>
</clipPath>
</defs>
</svg>
