<svg id="vector" xmlns="http://www.w3.org/2000/svg" width="24.0d" height="24.0d" viewBox="0 0 512.0 512.0"><path fill="#fed2a4" d="m442,442h-372v-232l186,-124 186,124z" stroke="#000000" stroke-width="12.0" id="path_0"/><path fill="#af6e5a" d="M69,380h124v62h-124zM318,380h124v62h-124zM69,245h372v72h-132,-107 -132zM167,162h176l-88,-58z" stroke="#000000" stroke-width="12.0" id="path_1"/><path fill="#6f6571" d="m489,256c-2,0 -6,-0 -8,-2l-224,-149 -224,149c-7,4 -16,2 -21,-4 -4,-7 -2,-16 4,-21l232,-155c5,-3 12,-3 17,0l232,155c7,4 9,14 4,21 -3,4 -7,6 -13,6z" stroke="#000000" stroke-width="12.0" id="path_2"/><path fill="#f9f7f8" d="m332,230c4,-3 7,-9 7,-15 0,-11 -9,-20 -20,-20s-20,9 -20,20h-82c0,-11 -9,-20 -20,-20s-20,9 -20,20c0,6 2,11 7,15 -4,3 -7,9 -7,15 0,11 9,20 20,20s20,-9 20,-20h82c0,11 9,20 20,20s20,-9 20,-20c0,-6 -2,-11 -7,-15z" stroke="#000000" stroke-width="12.0" id="path_3"/><path fill="#824641" d="m318,442h-124v-93c0,-34 27,-62 62,-62 34,0 62,27 62,62v93z" stroke="#000000" stroke-width="12.0" id="path_4"/></svg>