<svg id="vector" xmlns="http://www.w3.org/2000/svg" width="24.0d" height="24.0d" viewBox="0 0 512.0 512.0"><path fill="#f07507" d="m186,343.8c0,-17.6 -7,-34.6 -19,-47l-25,-25.7c-32,-33.3 -51,-68 -51,-114.7 0,-9 -3,-17.7 -10,-24l-56,-51.8c-6,-6 -9,-22.8 -9,-22.8v-29.5c0,-11.2 9,-20.4 20,-20.4h88c17,0 36,2 50,13 29,24 47,47.6 87,47.6 127,0 210,86 210,204.6v154.3h-285z" stroke="#000000" stroke-width="12.0" id="path_0"/><path fill="#566496" d="m41,19v-11.6h-6.4c-11,0 -20,9 -20,20.4v4.4h13.6c7,0 13,-6 13,-13.2z" stroke="#000000" stroke-width="12.0" id="path_1"/><path fill="#f07507" d="m236,213.4c-47,-0.5 -87,37.6 -88,85.3 -0,30 14,56.6 36,72.7 3,2.6 2,8.6 -2,8.6h-34.7c-26,0 -47,21 -47,47h128.6c12,0 21,-9.6 21,-21.6v-19.3" stroke="#000000" stroke-width="12.0" id="path_2"/><path fill="#f07507" d="m109,178.6h-43c-10,0 -20,6 -24,15.6l-6,14c-9,20 19,33.5 28,14.7l5,-9c1,-3.3 5,-5.4 9,-5.4h43.4" stroke="#000000" stroke-width="12.0" id="path_3"/><path fill="#f0f4ff" d="m14,57.5v33.6c0,7.7 6,14 14,14 7,0 14,-6.2 14,-14v-33.6z" stroke="#000000" stroke-width="12.0" id="path_4"/><path fill="#8696cf" d="m470,287.3c39,51 35,123.2 -10,169l-25,25.2c-32,33 -86,29.7 -115,-6.7 -28,-36.4 -18,-89.6 21,-113z" stroke="#000000" stroke-width="12.0" id="path_5"/><path fill="#060606" d="m164,86.6c-7,2.3 -14,-1.4 -16,-8.3 -3,-9 -17,-4.4 -14,4.7 4,11.7 15,19.2 26,19.2 10,0 20,-6 25,-15.6 3,-6.7 3,-14.4 1,-21.5 -5,-14.7 -21,-22.7 -35,-17.7 -9,3 -4,17.3 4,14.2 10,-3.6 21,8.3 16,18.4 -1,3 -4,5.5 -7,6.6z" id="path_6"/><path fill="#060606" d="m85,36.2c-6,6.8 3,17.4 10,10.6 4,-4.3 11,-4.3 15,0 6,6.8 17,-3.7 10,-10.6 -10,-10 -26,-10 -37,0z" id="path_7"/><path fill="#060606" d="m367,463.7c-9,-3 -14,11 -4,14.2 5,1.8 11,2.7 17,2.7 15,0 31,-6.3 42,-18 6,-6.8 -3,-17.4 -10,-10.6 -12,12 -29,16.6 -44,11.6z" id="path_8"/></svg>