<svg width="100" height="100" viewBox="0 0 100 100" fill="none" xmlns="http://www.w3.org/2000/svg">
<g clip-path="url(#clip0_8_44)">
<path d="M59.1892 19.4595C60.748 19.3907 62.1806 19.7022 63.5135 20.5405C63.7414 20.763 63.9669 20.9881 64.1892 21.2162C64.358 21.3063 64.5302 21.3904 64.7044 21.4696C65.3542 21.7724 65.8347 22.2129 66.3514 22.7027C66.4684 22.8086 66.5855 22.9145 66.7061 23.0237C66.9769 23.323 67.1751 23.5979 67.3902 23.9358C67.7092 24.4301 68.0601 24.8502 68.4628 25.2787C69.0351 25.8935 69.5542 26.5333 70.0591 27.2044C70.1278 27.2949 70.1964 27.3854 70.2672 27.4787C70.947 28.3929 71.3552 29.1132 71.2162 30.2703C71.0855 30.9025 70.9368 31.3573 70.4814 31.8243C69.8271 32.2074 69.1239 32.2582 68.3784 32.1622C67.9516 31.9116 67.755 31.7204 67.5244 31.2844C67.2541 30.8815 67.0694 30.7938 66.6206 30.6234C66.4871 30.5719 66.3537 30.5205 66.2162 30.4674C66.0769 30.4163 65.9375 30.3652 65.7939 30.3125C65.5896 30.2335 65.5896 30.2335 65.3811 30.1528C64.5853 29.8513 63.8083 29.6218 62.973 29.4595C63.0436 32.5495 63.1742 34.902 65.0676 37.4324C65.5913 38.1324 66.0662 38.8267 66.4742 39.6012C66.6671 39.9462 66.903 40.243 67.1622 40.5405C68.1153 40.4406 68.9849 40.0379 69.8694 39.6901C69.9977 39.6415 70.126 39.5929 70.2581 39.5429C70.374 39.4977 70.4898 39.4526 70.6092 39.4061C71.1972 39.2633 71.5525 39.4211 72.0719 39.7091C72.2293 39.8079 72.3861 39.9077 72.5422 40.0084C72.6634 40.0849 72.6634 40.0849 72.7869 40.1629C72.9847 40.2878 73.1816 40.4141 73.3784 40.5405C73.3526 41.9815 73.1114 43.3442 72.8129 44.7521C72.534 46.0682 72.402 47.3302 72.3863 48.6753C72.3671 49.2307 72.3381 49.5291 72.0381 50.0111C71.7568 50.2703 71.7568 50.2703 71.4865 50.2703C71.4814 50.3959 71.4764 50.5215 71.4712 50.6509C71.379 52.3848 70.9818 53.1504 69.7297 54.3243C69.5492 54.5041 69.369 54.6843 69.1892 54.8649C69.0504 54.3363 68.9132 53.8073 68.7776 53.278C68.7313 53.098 68.6845 52.9182 68.6372 52.7385C68.5693 52.4798 68.5031 52.2207 68.437 51.9616C68.3966 51.8059 68.3563 51.6502 68.3147 51.4898C68.2475 51.1055 68.245 50.9009 68.3784 50.5405C68.4676 50.5405 68.5568 50.5405 68.6487 50.5405C68.4257 49.827 68.2027 49.1135 67.973 48.3784C68.2406 48.2446 68.5081 48.1108 68.7838 47.973C69.1184 47.3287 69.0866 46.6711 69.071 45.9628C69.0691 45.804 69.0691 45.804 69.0673 45.6419C69.0641 45.3829 69.0593 45.1239 69.0541 44.8649C68.6287 44.9484 68.3402 45.0899 67.9846 45.3357C67.883 45.4055 67.7814 45.4753 67.6767 45.5473C67.514 45.661 67.514 45.661 67.348 45.777C67.2347 45.8553 67.1215 45.9335 67.0048 46.0142C66.2248 46.5555 65.455 47.1102 64.6875 47.6689C64.297 47.9516 63.9056 48.233 63.5135 48.5135C63.3777 48.611 63.3777 48.611 63.2392 48.7105C62.9863 48.8901 62.7312 49.0656 62.4747 49.2399C62.332 49.3385 62.1893 49.4371 62.0423 49.5386C61.5243 49.7739 61.2215 49.7223 60.6757 49.5946C60.6504 49.6845 60.6252 49.7744 60.5991 49.867C60.3213 50.4454 59.9089 50.8566 59.4679 51.3176C59.3305 51.4621 59.3305 51.4621 59.1903 51.6095C58.4708 52.356 57.7312 53.0374 56.8919 53.6487C56.8218 53.7004 56.7516 53.7521 56.6794 53.8054C54.7378 55.2216 52.5164 56.3182 50.2703 57.1622C50.1551 57.2056 50.0399 57.249 49.9213 57.2937C49.5172 57.4454 49.1127 57.5955 48.7078 57.7449C48.5756 57.7939 48.4435 57.8429 48.3074 57.8934C48.1207 57.9613 48.1207 57.9613 47.9302 58.0305C47.7621 58.092 47.7621 58.092 47.5905 58.1547C47.2973 58.2432 47.2973 58.2432 46.8919 58.2432C46.8982 58.3969 46.9044 58.5505 46.9109 58.7088C46.9968 61.6741 45.8558 63.5732 44.1669 65.8953C43.7091 66.5271 43.2784 67.1743 42.8547 67.8294C42.7936 67.9237 42.7325 68.018 42.6695 68.1152C42.5533 68.296 42.4383 68.4775 42.3244 68.6597C42.2183 68.8293 42.1099 68.9974 41.9989 69.1639C41.6301 69.7454 41.5153 70.1299 41.6216 70.8108C41.8309 71.3453 42.09 71.8485 42.3564 72.3564C42.4294 72.4999 42.5023 72.6434 42.5774 72.7912C42.9607 73.5385 43.3644 74.2665 43.7991 74.9849C44.2892 75.7969 44.538 76.2834 44.3085 77.2371C44.3399 77.8921 44.917 78.3717 45.3489 78.8292C45.6224 79.1305 45.7937 79.3582 45.946 79.7297C44.61 80.3841 43.1561 80.2534 41.7568 79.8649C41.7555 79.7872 41.7542 79.7096 41.7529 79.6296C41.7456 79.2744 41.7343 78.9193 41.723 78.5642C41.7211 78.4421 41.7191 78.32 41.7172 78.1942C41.6885 77.4075 41.5691 76.9913 41.0811 76.3514C40.8977 75.9901 40.7417 75.6175 40.5828 75.2449C40.4889 75.0296 40.3947 74.8144 40.3004 74.5993C40.2516 74.4882 40.2029 74.3771 40.1526 74.2626C39.8952 73.6829 39.6279 73.1079 39.3581 72.5338C39.3089 72.4277 39.2596 72.3215 39.2089 72.2122C38.7629 71.1588 38.7629 71.1588 37.973 70.4054C37.4279 71.768 37.8069 72.7059 38.353 73.9949C38.4141 74.1433 38.4752 74.2916 38.5381 74.4444C38.7827 75.037 39.0313 75.6261 39.2985 76.2088C39.4591 76.6208 39.4959 76.9019 39.4933 77.3395C39.5414 78.1163 39.8371 78.5616 40.312 79.1633C40.5211 79.4342 40.67 79.6894 40.8108 80C39.7722 80.5688 38.5279 80.7634 37.3665 80.4497C37.1142 80.3548 36.8671 80.2463 36.6216 80.1351C36.5934 79.4427 36.696 78.9044 36.8919 78.2432C36.9595 77.8939 36.9595 77.8939 36.8919 77.5676C36.8102 77.4752 36.7285 77.3829 36.6443 77.2878C36.2611 76.77 36.1204 76.2539 35.9375 75.6419C35.4808 74.1917 34.8886 72.8182 34.2636 71.4337C34.2057 71.3052 34.1478 71.1768 34.0882 71.0444C33.9782 70.8049 33.8654 70.5667 33.7491 70.3302C33.3829 69.5692 33.3829 69.5692 33.3636 69.1031C33.5916 68.6175 33.9305 68.2567 34.2905 67.8632C35.4101 66.5956 36.3406 65.3418 36.2806 63.5668C36.1862 63.0924 35.9537 62.8185 35.6456 62.4546C34.9008 61.5478 34.4098 60.4894 33.9949 59.4003C33.9599 59.3092 33.9249 59.2181 33.8888 59.1243C33.7109 58.6353 33.6075 58.2236 33.6487 57.7027C33.5595 57.7027 33.4703 57.7027 33.3784 57.7027C33.3422 57.8114 33.3059 57.9201 33.2686 58.0321C33.182 58.2918 33.0949 58.5513 33.0047 58.8097C32.9513 58.9641 32.9513 58.9641 32.897 59.1216C32.8633 59.2178 32.8297 59.3139 32.7951 59.413C32.5854 60.1319 32.5547 60.8122 32.5686 61.5583C32.571 61.7564 32.5733 61.9545 32.5755 62.1527C32.5796 62.4598 32.5844 62.7668 32.5907 63.0739C32.6427 65.7378 32.1704 68.0927 30.321 70.1182C29.3959 70.9459 29.3959 70.9459 29.0541 70.9459C29.0095 70.8568 28.9649 70.7676 28.9189 70.6757C28.8648 70.7802 28.8106 70.8847 28.7548 70.9924C27.8062 72.7304 26.6095 73.6509 24.7551 74.299C23.945 74.5289 23.132 74.4948 22.2973 74.4595C22.7443 74.0034 23.2158 73.588 23.7014 73.1741C23.7732 73.1077 23.845 73.0414 23.9189 72.973C23.9189 72.9284 23.9189 72.8838 23.9189 72.8378C23.7182 72.9382 23.7182 72.9382 23.5135 73.0405C22.2783 73.4991 20.7256 73.3934 19.5291 72.8811C18.3872 72.2818 17.4999 71.4761 16.6216 70.5405C16.8919 70.4054 16.8919 70.4054 17.216 70.5105C17.3487 70.5622 17.4815 70.6139 17.6182 70.6672C18.6476 71.0214 19.6991 71.1859 20.7264 70.7348C21.7398 70.1356 22.3386 69.1254 22.6763 68.0236C22.8844 67.2001 23.0074 66.3819 23.1108 65.5399C23.4225 63.0197 24.2246 60.7461 25.6757 58.6486C25.4802 58.7464 25.4802 58.7464 25.2808 58.8461C24.6016 59.1857 23.9224 59.5253 23.2432 59.8649C23.914 57.4579 25.7257 55.5359 27.8657 54.3124C27.9529 54.2636 28.04 54.2147 28.1298 54.1644C28.2232 54.1119 28.3166 54.0594 28.4129 54.0054C29.1238 53.6121 29.8472 53.2522 30.5817 52.9054C30.7407 52.8302 30.7407 52.8302 30.9028 52.7535C31.3362 52.5493 31.7698 52.3458 32.2049 52.1453C33.5322 51.5317 34.655 50.942 35.6757 49.8649C35.7481 49.7924 35.8206 49.7198 35.8952 49.6451C36.0722 49.4674 36.2457 49.2862 36.4189 49.1047C37.0689 48.4502 37.7328 47.9211 38.5135 47.4324C38.629 47.3582 38.7445 47.284 38.8635 47.2076C39.6905 46.6995 40.5405 46.2947 41.4274 45.9037C45.4078 44.1626 45.4078 44.1626 48.5135 41.2162C48.4188 41.2194 48.324 41.2225 48.2264 41.2257C47.4114 41.2412 46.7264 41.1816 45.946 40.9459C46.0379 40.8735 46.1299 40.801 46.2247 40.7264C46.3557 40.6204 46.4867 40.5145 46.6216 40.4054C46.695 40.3544 46.7683 40.3033 46.8439 40.2507C47.9895 39.3948 48.5339 37.958 48.9189 36.6216C48.7935 36.6885 48.7935 36.6885 48.6655 36.7568C47.3168 37.1884 45.871 36.8093 44.6453 36.1993C44.4023 36.0714 44.1599 35.9425 43.9189 35.8108C43.9189 35.7662 43.9189 35.7216 43.9189 35.6757C44.0781 35.6605 44.0781 35.6605 44.2404 35.6451C44.3824 35.6273 44.5243 35.6095 44.6706 35.5912C44.8101 35.5755 44.9497 35.5599 45.0934 35.5437C46.1173 35.227 46.7081 34.3558 47.3058 33.5135C47.799 32.8239 48.2892 32.1933 48.9189 31.6216C49.0081 31.6216 49.0973 31.6216 49.1892 31.6216C49.1892 31.5324 49.1892 31.4432 49.1892 31.3514C49.0777 31.3291 48.9662 31.3068 48.8514 31.2838C47.7061 30.793 47.2075 29.8899 46.7568 28.7838C46.9331 28.7916 47.1093 28.7995 47.291 28.8075C49.8219 28.888 51.1511 28.1854 52.973 26.4865C53.0622 26.3973 53.1514 26.3081 53.2433 26.2162C53.1699 26.1835 53.0966 26.1507 53.021 26.117C52.0337 25.6545 52.0337 25.6545 51.7568 25.1351C51.7568 25.0459 51.7568 24.9568 51.7568 24.8649C51.9073 24.8342 52.0578 24.8035 52.2128 24.772C53.5454 24.4231 54.4552 23.7229 55.467 22.8222C57.6674 20.8634 57.6674 20.8634 59.1216 20.7855C59.2331 20.7938 59.3446 20.8022 59.4595 20.8108C59.3703 20.3649 59.2811 19.9189 59.1892 19.4595Z" fill="#BE6F32"/>
<path d="M59.1892 19.4595C60.748 19.3907 62.1806 19.7022 63.5135 20.5405C63.7414 20.763 63.9669 20.9881 64.1892 21.2162C64.358 21.3063 64.5302 21.3904 64.7044 21.4696C65.3542 21.7724 65.8347 22.2129 66.3514 22.7027C66.4684 22.8086 66.5855 22.9145 66.7061 23.0237C66.9769 23.323 67.1751 23.5979 67.3902 23.9358C67.7092 24.4301 68.0601 24.8502 68.4628 25.2787C69.0351 25.8935 69.5542 26.5333 70.0591 27.2044C70.1278 27.2949 70.1964 27.3854 70.2672 27.4787C70.947 28.3929 71.3552 29.1132 71.2162 30.2703C71.0855 30.9025 70.9368 31.3573 70.4814 31.8243C69.8271 32.2074 69.1239 32.2582 68.3784 32.1622C67.9516 31.9116 67.755 31.7204 67.5244 31.2844C67.2541 30.8815 67.0694 30.7938 66.6206 30.6234C66.4871 30.5719 66.3537 30.5205 66.2162 30.4674C66.0769 30.4163 65.9375 30.3652 65.7939 30.3125C65.5896 30.2335 65.5896 30.2335 65.3811 30.1528C64.5853 29.8513 63.8083 29.6218 62.973 29.4595C63.0436 32.5495 63.1742 34.902 65.0676 37.4324C65.5913 38.1324 66.0662 38.8267 66.4742 39.6012C66.6671 39.9462 66.903 40.243 67.1622 40.5405C68.1153 40.4406 68.9849 40.0379 69.8694 39.6901C69.9977 39.6415 70.126 39.5929 70.2581 39.5429C70.374 39.4977 70.4898 39.4526 70.6092 39.4061C71.1972 39.2633 71.5525 39.4211 72.0719 39.7091C72.2293 39.8079 72.3861 39.9077 72.5422 40.0084C72.6634 40.0849 72.6634 40.0849 72.7869 40.1629C72.9847 40.2878 73.1816 40.4141 73.3784 40.5405C73.3526 41.9815 73.1114 43.3442 72.8129 44.7521C72.534 46.0682 72.402 47.3302 72.3863 48.6753C72.3671 49.2307 72.3381 49.5291 72.0381 50.0111C71.7568 50.2703 71.7568 50.2703 71.4865 50.2703C71.4814 50.3959 71.4764 50.5215 71.4712 50.6509C71.379 52.3848 70.9818 53.1504 69.7297 54.3243C69.5492 54.5041 69.369 54.6843 69.1892 54.8649C69.0504 54.3363 68.9132 53.8073 68.7776 53.278C68.7313 53.098 68.6845 52.9182 68.6372 52.7385C68.5693 52.4798 68.5031 52.2207 68.437 51.9616C68.3966 51.8059 68.3563 51.6502 68.3147 51.4898C68.2475 51.1055 68.245 50.9009 68.3784 50.5405C68.4676 50.5405 68.5568 50.5405 68.6487 50.5405C68.4257 49.827 68.2027 49.1135 67.973 48.3784C68.2406 48.2446 68.5081 48.1108 68.7838 47.973C69.1184 47.3287 69.0866 46.6711 69.071 45.9628C69.0691 45.804 69.0691 45.804 69.0673 45.6419C69.0641 45.3829 69.0593 45.1239 69.0541 44.8649C68.6287 44.9484 68.3402 45.0899 67.9846 45.3357C67.883 45.4055 67.7814 45.4753 67.6767 45.5473C67.514 45.661 67.514 45.661 67.348 45.777C67.2347 45.8553 67.1215 45.9335 67.0048 46.0142C66.2248 46.5555 65.455 47.1102 64.6875 47.6689C64.297 47.9516 63.9056 48.233 63.5135 48.5135C63.3777 48.611 63.3777 48.611 63.2392 48.7105C62.9863 48.8901 62.7312 49.0656 62.4747 49.2399C62.332 49.3385 62.1893 49.4371 62.0423 49.5386C61.5243 49.7739 61.2215 49.7223 60.6757 49.5946C60.6504 49.6845 60.6252 49.7744 60.5991 49.867C60.3213 50.4454 59.9089 50.8566 59.4679 51.3176C59.3305 51.4621 59.3305 51.4621 59.1903 51.6095C58.4708 52.356 57.7312 53.0374 56.8919 53.6487C56.8218 53.7004 56.7516 53.7521 56.6794 53.8054C54.7378 55.2216 52.5164 56.3182 50.2703 57.1622C50.1551 57.2056 50.0399 57.249 49.9213 57.2937C49.5172 57.4454 49.1127 57.5955 48.7078 57.7449C48.5756 57.7939 48.4435 57.8429 48.3074 57.8934C48.1207 57.9613 48.1207 57.9613 47.9302 58.0305C47.7621 58.092 47.7621 58.092 47.5905 58.1547C47.2973 58.2432 47.2973 58.2432 46.8919 58.2432C46.8982 58.3969 46.9044 58.5505 46.9109 58.7088C46.9968 61.6741 45.8558 63.5732 44.1669 65.8953C43.7091 66.5271 43.2784 67.1743 42.8547 67.8294C42.7936 67.9237 42.7325 68.018 42.6695 68.1152C42.5533 68.296 42.4383 68.4775 42.3244 68.6597C42.2183 68.8293 42.1099 68.9974 41.9989 69.1639C41.6301 69.7454 41.5153 70.1299 41.6216 70.8108C41.8309 71.3453 42.09 71.8485 42.3564 72.3564C42.4294 72.4999 42.5023 72.6434 42.5774 72.7912C42.9607 73.5385 43.3644 74.2665 43.7991 74.9849C44.2892 75.7969 44.538 76.2834 44.3085 77.2371C44.3399 77.8921 44.917 78.3717 45.3489 78.8292C45.6224 79.1305 45.7937 79.3582 45.946 79.7297C44.61 80.3841 43.1561 80.2534 41.7568 79.8649C41.7555 79.7872 41.7542 79.7096 41.7529 79.6296C41.7456 79.2744 41.7343 78.9193 41.723 78.5642C41.7211 78.4421 41.7191 78.32 41.7172 78.1942C41.6885 77.4075 41.5691 76.9913 41.0811 76.3514C40.8977 75.9901 40.7417 75.6175 40.5828 75.2449C40.4889 75.0296 40.3947 74.8144 40.3004 74.5993C40.2516 74.4882 40.2029 74.3771 40.1526 74.2626C39.8952 73.6829 39.6279 73.1079 39.3581 72.5338C39.3089 72.4277 39.2596 72.3215 39.2089 72.2122C38.7629 71.1588 38.7629 71.1588 37.973 70.4054C37.4279 71.768 37.8069 72.7059 38.353 73.9949C38.4141 74.1433 38.4752 74.2916 38.5381 74.4444C38.7827 75.037 39.0313 75.6261 39.2985 76.2088C39.4591 76.6208 39.4959 76.9019 39.4933 77.3395C39.5414 78.1163 39.8371 78.5616 40.312 79.1633C40.5211 79.4342 40.67 79.6894 40.8108 80C39.7722 80.5688 38.5279 80.7634 37.3665 80.4497C37.1142 80.3548 36.8671 80.2463 36.6216 80.1351C36.5934 79.4427 36.696 78.9044 36.8919 78.2432C36.9595 77.8939 36.9595 77.8939 36.8919 77.5676C36.8102 77.4752 36.7285 77.3829 36.6443 77.2878C36.2611 76.77 36.1204 76.2539 35.9375 75.6419C35.4808 74.1917 34.8886 72.8182 34.2636 71.4337C34.2057 71.3052 34.1478 71.1768 34.0882 71.0444C33.9782 70.8049 33.8654 70.5667 33.7491 70.3302C33.3829 69.5692 33.3829 69.5692 33.3636 69.1031C33.5916 68.6175 33.9305 68.2567 34.2905 67.8632C35.4101 66.5956 36.3406 65.3418 36.2806 63.5668C36.1862 63.0924 35.9537 62.8185 35.6456 62.4546C34.9008 61.5478 34.4098 60.4894 33.9949 59.4003C33.9599 59.3092 33.9249 59.2181 33.8888 59.1243C33.7109 58.6353 33.6075 58.2236 33.6487 57.7027C33.5595 57.7027 33.4703 57.7027 33.3784 57.7027C33.3422 57.8114 33.3059 57.9201 33.2686 58.0321C33.182 58.2918 33.0949 58.5513 33.0047 58.8097C32.9513 58.9641 32.9513 58.9641 32.897 59.1216C32.8633 59.2178 32.8297 59.3139 32.7951 59.413C32.5854 60.1319 32.5547 60.8122 32.5686 61.5583C32.571 61.7564 32.5733 61.9545 32.5755 62.1527C32.5796 62.4598 32.5844 62.7668 32.5907 63.0739C32.6427 65.7378 32.1704 68.0927 30.321 70.1182C29.3959 70.9459 29.3959 70.9459 29.0541 70.9459C29.0095 70.8568 28.9649 70.7676 28.9189 70.6757C28.8648 70.7802 28.8106 70.8847 28.7548 70.9924C27.8062 72.7304 26.6095 73.6509 24.7551 74.299C23.945 74.5289 23.132 74.4948 22.2973 74.4595C22.7443 74.0034 23.2158 73.588 23.7014 73.1741C23.7732 73.1077 23.845 73.0414 23.9189 72.973C23.9189 72.9284 23.9189 72.8838 23.9189 72.8378C23.7182 72.9382 23.7182 72.9382 23.5135 73.0405C22.2783 73.4991 20.7256 73.3934 19.5291 72.8811C18.3872 72.2818 17.4999 71.4761 16.6216 70.5405C16.8919 70.4054 16.8919 70.4054 17.216 70.5105C17.3487 70.5622 17.4815 70.6139 17.6182 70.6672C18.6476 71.0214 19.6991 71.1859 20.7264 70.7348C21.7398 70.1356 22.3386 69.1254 22.6763 68.0236C22.8844 67.2001 23.0074 66.3819 23.1108 65.5399C23.4225 63.0197 24.2246 60.7461 25.6757 58.6486C25.4802 58.7464 25.4802 58.7464 25.2808 58.8461C24.6016 59.1857 23.9224 59.5253 23.2432 59.8649C23.914 57.4579 25.7257 55.5359 27.8657 54.3124C27.9529 54.2636 28.04 54.2147 28.1298 54.1644C28.2232 54.1119 28.3166 54.0594 28.4129 54.0054C29.1238 53.6121 29.8472 53.2522 30.5817 52.9054C30.7407 52.8302 30.7407 52.8302 30.9028 52.7535C31.3362 52.5493 31.7698 52.3458 32.2049 52.1453C33.5322 51.5317 34.655 50.942 35.6757 49.8649C35.7481 49.7924 35.8206 49.7198 35.8952 49.6451C36.0722 49.4674 36.2457 49.2862 36.4189 49.1047C37.0689 48.4502 37.7328 47.9211 38.5135 47.4324C38.629 47.3582 38.7445 47.284 38.8635 47.2076C39.6905 46.6995 40.5405 46.2947 41.4274 45.9037C45.4078 44.1626 45.4078 44.1626 48.5135 41.2162C48.4188 41.2194 48.324 41.2225 48.2264 41.2257C47.4114 41.2412 46.7264 41.1816 45.946 40.9459C46.0379 40.8735 46.1299 40.801 46.2247 40.7264C46.3557 40.6204 46.4867 40.5145 46.6216 40.4054C46.695 40.3544 46.7683 40.3033 46.8439 40.2507C47.9895 39.3948 48.5339 37.958 48.9189 36.6216C48.7935 36.6885 48.7935 36.6885 48.6655 36.7568C47.3168 37.1884 45.871 36.8093 44.6453 36.1993C44.4023 36.0714 44.1599 35.9425 43.9189 35.8108C43.9189 35.7662 43.9189 35.7216 43.9189 35.6757C44.0781 35.6605 44.0781 35.6605 44.2404 35.6451C44.3824 35.6273 44.5243 35.6095 44.6706 35.5912C44.8101 35.5755 44.9497 35.5599 45.0934 35.5437C46.1173 35.227 46.7081 34.3558 47.3058 33.5135C47.799 32.8239 48.2892 32.1933 48.9189 31.6216C49.0081 31.6216 49.0973 31.6216 49.1892 31.6216C49.1892 31.5324 49.1892 31.4432 49.1892 31.3514C49.0777 31.3291 48.9662 31.3068 48.8514 31.2838C47.7061 30.793 47.2075 29.8899 46.7568 28.7838C46.9331 28.7916 47.1093 28.7995 47.291 28.8075C49.8219 28.888 51.1511 28.1854 52.973 26.4865C53.0622 26.3973 53.1514 26.3081 53.2433 26.2162C53.1699 26.1835 53.0966 26.1507 53.021 26.117C52.0337 25.6545 52.0337 25.6545 51.7568 25.1351C51.7568 25.0459 51.7568 24.9568 51.7568 24.8649C51.9073 24.8342 52.0578 24.8035 52.2128 24.772C53.5454 24.4231 54.4552 23.7229 55.467 22.8222C57.6674 20.8634 57.6674 20.8634 59.1216 20.7855C59.2331 20.7938 59.3446 20.8022 59.4595 20.8108C59.3703 20.3649 59.2811 19.9189 59.1892 19.4595ZM60.1351 20.2703C60.3734 21.3291 61.1726 22.0813 62.027 22.7027C61.8793 22.6804 61.7316 22.6581 61.5794 22.6351C60.4187 22.6413 59.4938 23.7269 58.7078 24.4764C56.0988 27.1745 54.3519 30.9951 53.9362 34.7187C53.814 35.7542 53.5016 36.3739 52.7173 37.0624C52.06 37.6406 51.5578 38.2852 51.0473 38.9949C50.9668 39.1063 50.8864 39.2176 50.8035 39.3324C50.5795 39.6442 50.357 39.957 50.1351 40.2703C47.9022 43.4114 45.1738 44.9607 41.7587 46.5741C38.5725 48.0828 35.7987 50.0029 34.4373 53.3974C34.1538 54.2046 34.0903 54.951 34.0963 55.8024C34.0973 55.9489 34.0983 56.0955 34.0993 56.2465C34.1687 58.5786 35.1258 60.5726 36.4865 62.4324C36.5881 62.5281 36.6896 62.6237 36.7942 62.7222C37.0857 63.0361 37.0927 63.1843 37.0777 63.6064C37.0659 63.846 37.049 64.0854 37.027 64.3243C37.019 64.4207 37.011 64.517 37.0028 64.6162C36.7634 66.178 35.6821 67.5172 34.5951 68.5943C34.2904 68.9596 34.2295 69.1261 34.1892 69.5946C34.3024 69.9668 34.3024 69.9668 34.4975 70.3436C34.5663 70.4876 34.6351 70.6316 34.706 70.78C34.7808 70.9323 34.8555 71.0846 34.9324 71.2416C35.0832 71.5582 35.2335 71.8751 35.3832 72.1923C35.4934 72.4256 35.4934 72.4256 35.6059 72.6637C35.881 73.2603 36.1316 73.8636 36.3683 74.4764C36.423 74.6162 36.423 74.6162 36.4788 74.7589C36.6504 75.2104 36.7868 75.6524 36.893 76.1238C36.99 76.6457 36.99 76.6457 37.3987 77.0017C37.7027 77.4324 37.7027 77.4324 37.6863 77.7893C37.6365 78.0464 37.5798 78.3024 37.5153 78.5563C37.4327 78.9179 37.4084 79.2252 37.4324 79.5946C37.5896 79.7826 37.5896 79.7826 38.0242 79.7429C38.2126 79.742 38.4011 79.7404 38.5895 79.7382C38.6856 79.7376 38.7817 79.737 38.8807 79.7363C39.1186 79.7347 39.3566 79.7323 39.5946 79.7297C39.4288 79.1581 39.4288 79.1581 39.1152 78.6603C38.8847 78.3292 38.8718 78.151 38.8619 77.7523C38.8046 76.9781 38.5467 76.3843 38.2095 75.6926C38.0988 75.4565 37.9883 75.2204 37.878 74.9842C37.8246 74.8713 37.7712 74.7585 37.7162 74.6422C37.5211 74.2248 37.3398 73.8035 37.1622 73.3784C37.112 73.2585 37.0618 73.1387 37.0101 73.0152C36.7181 72.2435 36.5695 71.5139 36.9062 70.7359C37.6404 69.427 38.5717 68.2337 39.4595 67.027C42.1538 63.3536 43.5981 60.3696 42.897 55.7586C42.8775 55.642 42.8579 55.5255 42.8378 55.4054C43.2564 56.2467 43.5015 57.0453 43.6487 57.973C43.9882 57.8384 44.3264 57.7018 44.6622 57.5581C44.7737 57.511 44.8851 57.464 45 57.4155C45.1672 57.3439 45.1672 57.3439 45.3378 57.2709C45.6952 57.1559 45.9785 57.1422 46.3514 57.1622C46.1875 57.2382 46.1875 57.2382 46.0204 57.3158C44.9264 57.8352 44.9264 57.8352 44.0541 58.6486C44.0987 58.7378 44.1433 58.827 44.1892 58.9189C44.3593 58.8183 44.3593 58.8183 44.5328 58.7157C45.5392 58.1404 46.5385 57.7007 47.6436 57.348C48.777 56.986 49.8656 56.5824 50.946 56.0811C51.062 56.0281 51.1781 55.9751 51.2976 55.9205C54.4234 54.4894 58.5719 52.3896 60.2703 49.1892C60.2538 48.6493 59.8883 48.3103 59.5524 47.9139C59.447 47.7886 59.3416 47.6634 59.233 47.5343C59.0775 47.3501 59.0775 47.3501 58.9189 47.1622C58.8257 47.0427 58.7325 46.9232 58.6365 46.8C58.4158 46.5319 58.2136 46.3319 57.9392 46.1233C57.7552 45.9686 57.7552 45.9686 57.5676 45.8108C57.5676 45.7216 57.5676 45.6324 57.5676 45.5405C57.6345 45.5991 57.7014 45.6576 57.7703 45.7179C58.1133 45.9772 58.1133 45.9772 58.6064 46.0726C59.478 46.3761 59.9002 47.251 60.4054 47.973C60.668 48.2964 60.9398 48.6071 61.2162 48.9189C62.4561 48.4685 63.5229 47.5642 64.5946 46.8074C64.6897 46.7405 64.7848 46.6736 64.8829 46.6047C65.4364 46.2144 65.9851 45.8184 66.5303 45.4165C66.7719 45.2411 67.0135 45.0656 67.2551 44.8902C67.3682 44.8052 67.4814 44.7201 67.5979 44.6325C68.4003 44.0544 68.4003 44.0544 68.9722 44.0525C69.3243 44.1892 69.3243 44.1892 69.7297 44.4595C70.0845 44.482 70.0845 44.482 70.4054 44.4595C70.3905 44.9832 70.3729 45.5068 70.3547 46.0304C70.3506 46.1783 70.3464 46.3262 70.3421 46.4786C70.3156 47.2065 70.2784 47.8308 70 48.5135C69.9517 49.0323 69.9713 49.1462 70.2703 49.5946C70.3443 49.9991 70.3697 50.4004 70.4054 50.8108C70.0041 50.9 69.6027 50.9892 69.1892 51.0811C69.2048 51.3148 69.222 51.5485 69.2399 51.7821C69.2493 51.9122 69.2587 52.0423 69.2684 52.1764C69.3246 52.5696 69.4323 52.8823 69.5946 53.2432C70.0435 52.9891 70.2506 52.8514 70.5406 52.4324C70.6809 51.9253 70.7416 51.4065 70.7904 50.8835C70.8796 50.0633 70.8796 50.0633 71.2917 49.6701C71.7872 49.1508 71.6938 48.6811 71.6808 47.9899C71.694 46.4142 71.9681 44.94 72.2981 43.4067C72.3526 43.1494 72.3526 43.1494 72.4082 42.8869C72.4589 42.6576 72.4589 42.6576 72.5106 42.4236C72.5644 42.0492 72.5782 41.8326 72.4324 41.4865C72.1487 41.3262 72.1487 41.3262 71.799 41.2416C71.6842 41.2072 71.5694 41.1729 71.4511 41.1376C70.5246 40.9961 69.9327 41.3826 69.1808 41.8581C67.6794 42.7762 66.2431 43.4023 64.4679 43.4037C64.36 43.4054 64.2521 43.407 64.1409 43.4087C63.5546 43.4102 63.1017 43.3811 62.5676 43.1081C62.6148 43.041 62.662 42.974 62.7106 42.9049C63.1272 42.283 63.3316 41.8294 63.3784 41.0811C63.385 41.1966 63.3916 41.3121 63.3984 41.4311C63.4136 41.655 63.4136 41.655 63.4291 41.8834C63.4432 42.1069 63.4432 42.1069 63.4576 42.3348C63.476 42.4562 63.4945 42.5776 63.5135 42.7027C63.9133 42.9026 64.2768 42.8556 64.7213 42.8547C64.974 42.8553 64.974 42.8553 65.2317 42.8558C65.6766 42.8584 65.6766 42.8584 66.0811 42.7027C66.2338 40.4088 65.3726 39.0542 64.0541 37.2973C62.3735 35.0348 62.2982 32.59 62.2082 29.8762C62.204 29.7554 62.1998 29.6346 62.1954 29.5101C62.1922 29.4025 62.189 29.2948 62.1856 29.1839C62.1776 28.9084 62.1776 28.9084 62.027 28.6487C62.1608 28.7378 62.2946 28.827 62.4324 28.9189C62.7166 28.9204 63.0008 28.9098 63.2844 28.8925C64.3872 28.8775 65.2309 29.1787 66.2331 29.6115C66.3941 29.6756 66.555 29.7397 66.7209 29.8057C68.1299 30.3942 68.1299 30.3942 68.5135 31.2162C68.6778 31.4097 68.6778 31.4097 69.1639 31.3936C69.5455 31.384 69.7161 31.3587 70.0591 31.174C70.4074 30.575 70.4672 30.0104 70.4054 29.3243C69.8649 27.7268 68.1911 26.2027 67.0693 24.9747C66.6911 24.5597 66.4632 24.1543 66.2162 23.6487C65.9956 23.4629 65.7696 23.2834 65.5405 23.1081C65.4291 23.0158 65.3176 22.9235 65.2027 22.8283C65.0912 22.7367 64.9797 22.6451 64.8649 22.5507C64.7534 22.4584 64.6419 22.366 64.527 22.2709C64.1955 22.0315 63.8922 21.9038 63.5135 21.7568C63.416 21.6536 63.3184 21.5505 63.2179 21.4443C62.3328 20.5985 61.3404 20.2985 60.1351 20.2703Z" fill="#112B3C"/>
<path d="M34.1892 52.1622C33.9201 53.3878 32.8618 54.0156 31.9174 54.7342C29.3275 56.7063 27.3305 58.8179 26.7568 62.1622C26.7568 62.2959 26.7568 62.4297 26.7568 62.5676C26.7864 62.4287 26.816 62.2899 26.8465 62.1468C27.5562 58.9822 29.6104 56.7812 32.1659 54.8944C32.5836 54.5826 32.9806 54.2556 33.3784 53.9189C33.5122 53.9858 33.5122 53.9858 33.6487 54.054C33.6271 54.1448 33.6055 54.2356 33.5832 54.3291C33.5012 54.8003 33.4932 55.2568 33.4797 55.7348C33.4402 56.555 33.294 56.9625 32.7027 57.5676C32.4844 58.0509 32.3194 58.5479 32.1622 59.054C32.1158 59.1919 32.0695 59.3298 32.0218 59.4718C31.8521 60.071 31.8542 60.6531 31.8549 61.2722C31.8522 61.5197 31.8494 61.7673 31.8465 62.0149C31.8435 62.4 31.8412 62.7851 31.8404 63.1702C31.8323 65.5016 31.581 67.8172 29.8649 69.5946C29.7757 69.5946 29.6865 69.5946 29.5946 69.5946C29.55 68.0784 29.5054 66.5622 29.4595 65C29.3045 65.7746 29.1659 66.4826 29.0794 67.2551C28.8612 68.808 28.4057 70.2363 27.4324 71.4865C27.3544 71.6035 27.2764 71.7206 27.1959 71.8412C26.5272 72.5471 25.6849 73.1522 24.7297 73.3784C24.8512 73.0646 24.974 72.7549 25.1241 72.4535C25.5103 71.6603 25.6945 70.8696 25.8631 70.0053C25.9459 69.5946 25.9459 69.5946 26.0811 69.1892C26.1116 68.8659 26.1363 68.542 26.1571 68.2179C26.1684 68.046 26.1797 67.874 26.1914 67.6969C26.2037 67.4991 26.2037 67.4991 26.2162 67.2973C26.127 67.2973 26.0378 67.2973 25.9459 67.2973C25.9343 67.376 25.9226 67.4548 25.9106 67.5359C25.6007 69.3441 24.872 70.923 23.3784 72.027C22.8728 72.3617 22.3596 72.3375 21.7737 72.3311C21.6798 72.3321 21.5859 72.3332 21.4891 72.3342C20.8969 72.332 20.415 72.2443 19.8649 72.027C19.8649 71.9378 19.8649 71.8486 19.8649 71.7568C19.9987 71.7261 20.1324 71.6954 20.2703 71.6638C21.3692 71.3419 22.1297 70.7151 22.7027 69.7297C23.2836 68.5342 23.6203 67.3533 23.782 66.0397C24.1939 62.7096 25.3161 59.625 27.8378 57.2973C26.9841 57.3524 26.329 57.5189 25.5495 57.8727C25.4574 57.9058 25.3652 57.9389 25.2703 57.973C25.1365 57.9061 25.1365 57.9061 25 57.8378C26.8558 55.7028 31.1671 52.1622 34.1892 52.1622Z" fill="#552C17"/>
<path d="M46.7568 28.7838C47.5595 28.873 48.3622 28.9622 49.1892 29.0541C49.1446 29.1432 49.1 29.2324 49.0541 29.3243C49.277 29.3689 49.5 29.4135 49.7297 29.4595C49.7297 29.5041 49.7297 29.5486 49.7297 29.5946C49.2392 29.6392 48.7487 29.6838 48.2433 29.7297C48.856 30.4182 48.856 30.4182 49.6886 30.7021C49.832 30.6989 49.9753 30.6958 50.123 30.6926C50.357 30.6894 50.357 30.6894 50.5957 30.6862C50.8402 30.681 50.8402 30.681 51.0895 30.6757C51.412 30.6688 51.7346 30.6631 52.0571 30.6588C52.2719 30.6541 52.2719 30.6541 52.4911 30.6493C52.8378 30.6757 52.8378 30.6757 53.1081 30.9459C52.8952 30.9927 52.8952 30.9927 52.6779 31.0404C50.9505 31.4105 50.9505 31.4105 49.5128 32.3855C49.3243 32.5676 49.3243 32.5676 49.0541 32.5676C49.0175 32.6458 48.981 32.724 48.9434 32.8046C48.7826 33.1104 48.6029 33.3664 48.3921 33.6397C48.3162 33.7385 48.2402 33.8374 48.162 33.9392C48.0829 34.0412 48.0038 34.1432 47.9223 34.2483C47.8443 34.3498 47.7662 34.4513 47.6858 34.5558C47.291 35.0683 46.8928 35.5777 46.4865 36.0811C48.0674 36.0656 48.0674 36.0656 49.4595 35.4054C49.6911 35.1406 49.9168 34.8704 50.1351 34.5946C50.7674 34.0747 51.2337 33.9736 52.027 33.9189C51.9088 34.0569 51.7905 34.1948 51.6723 34.3328C51.561 34.4647 51.561 34.4647 51.4474 34.5993C51.2162 34.8649 51.2162 34.8649 51.0104 35.067C50.3153 35.775 50.0288 36.6694 49.6901 37.5809C48.9669 39.526 48.9669 39.526 48.2433 40.2703C48.4565 40.2285 48.4565 40.2285 48.674 40.1858C49.1887 40.1352 49.4147 40.1735 49.8649 40.4054C49.7757 40.4946 49.6865 40.5838 49.5946 40.6757C49.5801 40.7988 49.5657 40.922 49.5508 41.0489C49.2659 42.4143 47.4342 43.5978 46.3514 44.3243C44.8736 45.2289 43.3234 45.97 41.7587 46.7092C38.6998 48.1576 36.1233 49.8934 34.7297 53.1081C34.6569 53.267 34.5841 53.4258 34.5091 53.5895C34.2298 54.3466 34.258 55.1312 34.2483 55.9291C34.2437 56.2328 34.2379 56.5365 34.2309 56.8402C34.2292 56.9734 34.2276 57.1066 34.2259 57.2439C34.1892 57.5676 34.1892 57.5676 33.9189 57.8378C33.8297 57.9716 33.7405 58.1054 33.6487 58.2432C33.6487 58.0649 33.6487 57.8865 33.6487 57.7027C33.5595 57.7027 33.4703 57.7027 33.3784 57.7027C33.3422 57.8114 33.3059 57.9201 33.2686 58.0321C33.182 58.2918 33.0949 58.5513 33.0047 58.8097C32.9513 58.9641 32.9513 58.9641 32.897 59.1216C32.8633 59.2178 32.8297 59.3139 32.7951 59.413C32.5854 60.1319 32.5547 60.8122 32.5686 61.5583C32.571 61.7564 32.5733 61.9545 32.5755 62.1527C32.5796 62.4598 32.5844 62.7668 32.5907 63.0739C32.6427 65.7378 32.1704 68.0927 30.321 70.1182C29.3959 70.9459 29.3959 70.9459 29.0541 70.9459C29.0095 70.8568 28.9649 70.7676 28.9189 70.6757C28.8648 70.7802 28.8106 70.8847 28.7548 70.9924C27.8062 72.7304 26.6095 73.6509 24.7551 74.299C23.945 74.5289 23.132 74.4948 22.2973 74.4595C22.7443 74.0034 23.2158 73.588 23.7014 73.1741C23.7732 73.1077 23.845 73.0414 23.9189 72.973C23.9189 72.9284 23.9189 72.8838 23.9189 72.8378C23.7182 72.9382 23.7182 72.9382 23.5135 73.0405C22.2783 73.4991 20.7256 73.3934 19.5291 72.8811C18.3872 72.2818 17.4999 71.4761 16.6216 70.5405C16.8919 70.4054 16.8919 70.4054 17.216 70.5105C17.3487 70.5622 17.4815 70.6139 17.6182 70.6672C18.6476 71.0214 19.6991 71.1859 20.7264 70.7348C21.7398 70.1356 22.3386 69.1254 22.6763 68.0237C22.8844 67.2001 23.0074 66.3819 23.1108 65.5399C23.4225 63.0197 24.2246 60.7461 25.6757 58.6486C25.4802 58.7464 25.4802 58.7464 25.2808 58.8461C24.6016 59.1857 23.9224 59.5253 23.2432 59.8649C23.914 57.4579 25.7257 55.5359 27.8657 54.3124C27.9529 54.2636 28.04 54.2147 28.1298 54.1644C28.2232 54.1119 28.3166 54.0594 28.4129 54.0054C29.1238 53.6121 29.8472 53.2522 30.5817 52.9054C30.7407 52.8302 30.7407 52.8302 30.9028 52.7535C31.3362 52.5493 31.7698 52.3458 32.2049 52.1453C33.5322 51.5317 34.655 50.942 35.6757 49.8649C35.7481 49.7924 35.8206 49.7198 35.8952 49.6451C36.0722 49.4674 36.2457 49.2862 36.4189 49.1047C37.0689 48.4502 37.7328 47.9211 38.5135 47.4324C38.629 47.3582 38.7445 47.284 38.8635 47.2076C39.6905 46.6995 40.5405 46.2947 41.4274 45.9037C45.4078 44.1626 45.4078 44.1626 48.5135 41.2162C48.4188 41.2194 48.324 41.2225 48.2264 41.2257C47.4114 41.2412 46.7264 41.1816 45.946 40.9459C46.0379 40.8735 46.1299 40.801 46.2247 40.7264C46.3557 40.6204 46.4867 40.5145 46.6216 40.4054C46.695 40.3544 46.7683 40.3033 46.8439 40.2507C47.9895 39.3948 48.5339 37.958 48.9189 36.6216C48.7935 36.6885 48.7935 36.6885 48.6655 36.7568C47.3168 37.1884 45.871 36.8093 44.6453 36.1993C44.4023 36.0714 44.1599 35.9425 43.9189 35.8108C43.9189 35.7662 43.9189 35.7216 43.9189 35.6757C44.025 35.6656 44.1311 35.6555 44.2404 35.6451C44.3824 35.6273 44.5243 35.6095 44.6706 35.5912C44.8101 35.5755 44.9497 35.5599 45.0934 35.5437C46.1173 35.227 46.7081 34.3558 47.3058 33.5135C47.799 32.8238 48.2892 32.1933 48.9189 31.6216C49.0081 31.6216 49.0973 31.6216 49.1892 31.6216C49.1892 31.5324 49.1892 31.4432 49.1892 31.3514C49.0777 31.3291 48.9662 31.3068 48.8514 31.2838C47.9526 30.8986 47.3545 30.2111 46.9595 29.3243C46.8926 29.1459 46.8257 28.9676 46.7568 28.7838ZM33.1361 52.5084C32.9765 52.5822 32.817 52.6559 32.6526 52.7319C32.4806 52.8121 32.3087 52.8925 32.1368 52.973C32.0506 53.0132 31.9645 53.0535 31.8757 53.095C27.8235 54.821 27.8235 54.821 25 57.973C25.0753 57.9468 25.1505 57.9207 25.228 57.8938C26.9762 57.2973 26.9762 57.2973 27.8378 57.2973C27.7739 57.3534 27.71 57.4095 27.6441 57.4673C26.7619 58.2893 26.1466 59.2398 25.5405 60.2703C25.4651 60.3966 25.3897 60.5229 25.312 60.653C24.3136 62.475 23.9128 64.5455 23.6535 66.5853C23.4488 68.1508 22.9928 69.8625 21.7483 70.9375C21.1048 71.3893 20.658 71.6645 19.8649 71.7568C19.8649 71.8459 19.8649 71.9351 19.8649 72.027C20.8647 72.4148 22.1502 72.5217 23.1857 72.1838C23.4669 72.0197 23.6845 71.8473 23.9189 71.6216C24.0015 71.5446 24.0841 71.4676 24.1691 71.3883C25.1394 70.385 25.946 68.7174 25.946 67.2973C26.0351 67.2973 26.1243 67.2973 26.2162 67.2973C26.1716 68.3512 26.085 69.3335 25.7765 70.3447C25.6873 70.6374 25.6201 70.9256 25.5574 71.2247C25.4187 71.8021 25.1472 72.303 24.868 72.8241C24.71 73.096 24.71 73.096 24.7297 73.3784C26.2469 72.9312 27.3313 71.8947 28.1081 70.5405C28.7765 69.1099 29.0545 67.7008 29.2302 66.148C29.2765 65.745 29.3307 65.3862 29.4595 65C29.5041 66.5162 29.5487 68.0324 29.5946 69.5946C30.3115 69.3556 30.591 68.6089 30.946 67.973C31.5229 66.7586 31.774 65.7679 31.7805 64.4347C31.7837 64.1868 31.7869 63.939 31.7903 63.6911C31.795 63.3043 31.799 62.9174 31.8008 62.5305C31.8123 60.4948 31.832 58.3031 33.3784 56.7568C33.4072 56.4324 33.4293 56.1105 33.446 55.7855C33.4807 55.1531 33.5324 54.5417 33.6487 53.9189C33.1088 54.1516 32.6695 54.5104 32.2128 54.8733C32.129 54.9397 32.0452 55.006 31.9588 55.0744C31.2344 55.6525 30.5401 56.2568 29.8649 56.8919C29.7609 56.9856 29.6569 57.0793 29.5497 57.1759C27.976 58.6504 27.1668 60.4832 26.7568 62.5676C27.0776 59.8664 28.4768 57.4647 30.5743 55.7348C30.8318 55.533 31.091 55.3332 31.3514 55.1351C33.1461 53.9293 33.1461 53.9293 34.1892 52.1622C33.7868 52.1622 33.5004 52.3399 33.1361 52.5084ZM49.4595 40.1351C49.7297 40.2703 49.7297 40.2703 49.7297 40.2703L49.4595 40.1351Z" fill="#0E2B3D"/>
<path d="M33.9189 57.1622C33.9635 57.296 34.0081 57.4297 34.0541 57.5676C34.1432 57.5676 34.2324 57.5676 34.3243 57.5676C34.3769 57.7376 34.4295 57.9076 34.4837 58.0828C35.0126 59.7245 35.6404 61.5085 36.9294 62.7222C37.2208 63.0362 37.2278 63.1843 37.2128 63.6064C37.201 63.846 37.1842 64.0854 37.1622 64.3243C37.1542 64.4207 37.1461 64.517 37.1379 64.6162C36.8985 66.178 35.8173 67.5172 34.7303 68.5943C34.4255 68.9596 34.3647 69.1261 34.3243 69.5946C34.4376 69.9668 34.4376 69.9668 34.6326 70.3437C34.7014 70.4877 34.7703 70.6316 34.8412 70.78C34.9532 71.0085 34.9532 71.0085 35.0676 71.2416C35.2184 71.5582 35.3686 71.8751 35.5184 72.1923C35.6286 72.4256 35.6286 72.4256 35.741 72.6637C36.0161 73.2603 36.2667 73.8637 36.5034 74.4764C36.5399 74.5696 36.5764 74.6628 36.614 74.7589C36.7855 75.2104 36.9219 75.6524 37.0281 76.1239C37.1251 76.6457 37.1251 76.6457 37.5338 77.0017C37.8378 77.4324 37.8378 77.4324 37.8215 77.7893C37.7716 78.0464 37.7149 78.3024 37.6504 78.5563C37.5425 78.9667 37.5425 78.9667 37.5676 79.5946C38.2365 79.6392 38.9054 79.6838 39.5946 79.7297C39.4636 79.5346 39.3326 79.3395 39.1976 79.1385C38.8771 78.6612 38.7625 78.3026 38.7262 77.7386C38.669 76.9709 38.4087 76.3786 38.0743 75.6926C37.9637 75.4565 37.8532 75.2204 37.7428 74.9842C37.6894 74.8713 37.636 74.7585 37.581 74.6422C37.3859 74.2248 37.2046 73.8036 37.027 73.3784C36.9518 73.1986 36.9518 73.1986 36.875 73.0152C36.583 72.2435 36.4344 71.5139 36.771 70.7359C37.5052 69.427 38.4366 68.2337 39.3243 67.027C40.9393 64.9128 40.9393 64.9128 42.1622 62.5676C42.2883 62.263 42.2883 62.263 42.4324 62.027C42.569 61.9852 42.7056 61.9434 42.8463 61.9003C42.9773 61.853 43.1083 61.8056 43.2432 61.7568C43.3801 61.4262 43.4596 61.0942 43.5473 60.7475C43.8263 59.806 44.5647 59.4066 45.3642 58.9327C45.6757 58.7838 45.6757 58.7838 46.0811 58.7838C46.1725 60.9509 45.8138 62.2531 44.5434 64.0356C43.9551 64.8631 43.3908 65.7066 42.8267 66.5507C42.6466 66.8198 42.4656 67.0884 42.2846 67.3569C41.9676 67.8289 41.6575 68.3047 41.3514 68.7838C41.2836 68.8894 41.2158 68.9949 41.1459 69.1037C40.8185 69.6714 40.7421 70.1177 40.8503 70.7499C41.0459 71.4273 41.3713 72.0383 41.6976 72.6605C41.7703 72.8035 41.843 72.9466 41.9179 73.094C42.2785 73.7973 42.6556 74.4812 43.0748 75.151C43.5885 75.9733 43.6986 76.4055 43.5098 77.3496C43.5164 77.9765 43.9434 78.3448 44.3534 78.7843C44.5946 79.0541 44.5946 79.0541 44.5946 79.3243C44.4595 79.4595 44.3243 79.5946 44.1892 79.7297C44.1446 79.8635 44.1 79.9973 44.0541 80.1351C43.8739 80.1427 43.6937 80.1478 43.5135 80.152C43.4132 80.1552 43.3128 80.1583 43.2095 80.1615C42.7036 80.1256 42.2464 79.9966 41.7568 79.8649C41.7549 79.7484 41.7549 79.7484 41.7529 79.6296C41.7456 79.2744 41.7343 78.9194 41.723 78.5642C41.7211 78.4421 41.7191 78.32 41.7172 78.1942C41.6885 77.4075 41.5691 76.9913 41.0811 76.3514C40.8977 75.9901 40.7417 75.6175 40.5828 75.2449C40.4889 75.0296 40.3947 74.8144 40.3004 74.5994C40.2272 74.4327 40.2272 74.4327 40.1526 74.2626C39.8952 73.6829 39.6279 73.1079 39.3581 72.5338C39.2842 72.3746 39.2842 72.3746 39.2089 72.2122C38.7629 71.1588 38.7629 71.1588 37.973 70.4054C37.4279 71.768 37.8069 72.7059 38.353 73.9949C38.4141 74.1433 38.4752 74.2916 38.5381 74.4444C38.7827 75.037 39.0313 75.6261 39.2985 76.2088C39.4591 76.6208 39.4959 76.9019 39.4932 77.3395C39.5414 78.1163 39.8371 78.5616 40.312 79.1633C40.5211 79.4342 40.67 79.6894 40.8108 80C39.7722 80.5688 38.5279 80.7634 37.3665 80.4498C37.1142 80.3548 36.8671 80.2463 36.6216 80.1351C36.5934 79.4427 36.696 78.9044 36.8919 78.2433C36.9595 77.8939 36.9595 77.8939 36.8919 77.5676C36.7693 77.4291 36.7693 77.4291 36.6443 77.2878C36.2611 76.77 36.1204 76.2539 35.9375 75.6419C35.4808 74.1917 34.8886 72.8183 34.2636 71.4337C34.1768 71.241 34.1768 71.241 34.0882 71.0444C33.9782 70.8049 33.8654 70.5667 33.7491 70.3302C33.3829 69.5692 33.3829 69.5692 33.3636 69.1032C33.5916 68.6176 33.9305 68.2567 34.2905 67.8632C35.4101 66.5956 36.3406 65.3418 36.2806 63.5668C36.1862 63.0924 35.9537 62.8185 35.6456 62.4546C34.7352 61.3461 33.622 59.4629 33.6587 57.9703C33.7331 57.6351 33.7331 57.6351 33.9189 57.1622Z" fill="#112A3C"/>
<path d="M59.2821 21.6132C59.4164 21.6144 59.5507 21.6156 59.6891 21.6169C59.843 21.6192 59.843 21.6192 60 21.6216C60.1338 21.9561 60.1338 21.9561 60.2703 22.2973C60.1607 22.3858 60.0511 22.4743 59.9382 22.5655C56.5096 25.3722 54.705 28.9073 53.6233 33.1503C53.5885 33.286 53.5885 33.286 53.553 33.4244C53.4248 33.9428 53.3521 34.4441 53.3024 34.9747C53.1772 35.7029 52.7979 36.0599 52.2612 36.5464C51.5745 37.1745 51.0408 37.894 50.4973 38.6469C49.393 40.1496 49.393 40.1496 48.4544 40.3885C48.3401 40.3941 48.2258 40.3997 48.1081 40.4054C48.1638 40.331 48.2196 40.2566 48.277 40.18C48.9489 39.2127 49.3485 38.2211 49.7273 37.1101C50.1026 36.0477 50.6565 35.2401 51.4696 34.4595C51.5501 34.3814 51.6305 34.3034 51.7135 34.223C51.7723 34.1672 51.8312 34.1115 51.8919 34.0541C50.8847 34.2208 50.3232 34.4481 49.679 35.2787C49.2784 35.7271 48.9622 35.9657 48.3784 36.0811C47.7461 36.1123 47.1189 36.1048 46.4865 36.0811C46.6985 35.5984 46.993 35.2336 47.3311 34.8311C47.704 34.3828 48.0683 33.9338 48.4122 33.4628C49.0874 32.5514 49.8632 31.8317 50.9206 31.402C51.0525 31.3473 51.1843 31.2926 51.3202 31.2363C51.8217 31.058 52.3199 30.9329 52.8378 30.8108C52.7364 30.8143 52.6349 30.8179 52.5303 30.8215C52.067 30.8356 51.6037 30.8444 51.1402 30.853C50.9805 30.8587 50.8209 30.8644 50.6564 30.8702C49.3233 30.8889 49.3233 30.8889 48.7379 30.4872C48.6192 30.371 48.5006 30.2548 48.3784 30.1351C48.3784 30.0459 48.3784 29.9568 48.3784 29.8649C48.4993 29.8434 48.6202 29.822 48.7447 29.7999C50.5668 29.4483 51.6423 28.8442 52.973 27.5676C55.0714 25.6068 55.0714 25.6068 56.0811 25.2703C55.8839 25.3121 55.6869 25.3544 55.4899 25.397C55.3801 25.4205 55.2704 25.444 55.1573 25.4682C54.8609 25.5302 54.8609 25.5302 54.5946 25.6757C54.3864 25.6851 54.1779 25.6871 53.9696 25.6841C53.8039 25.6823 53.8039 25.6823 53.6349 25.6804C53.5503 25.6789 53.4656 25.6773 53.3784 25.6757C53.3115 25.475 53.3115 25.475 53.2432 25.2703C53.327 25.2321 53.4108 25.194 53.4971 25.1547C54.4647 24.6744 55.2109 24.0724 56.0126 23.3565C57.9867 21.5979 57.9867 21.5979 59.2821 21.6132Z" fill="#552C17"/>
<path d="M46.0811 58.7838C46.1725 60.9509 45.8138 62.2531 44.5434 64.0356C43.9551 64.8631 43.3908 65.7066 42.8267 66.5507C42.6466 66.8198 42.4656 67.0883 42.2846 67.3568C41.9676 67.8288 41.6575 68.3047 41.3514 68.7838C41.2497 68.9421 41.2497 68.9421 41.1459 69.1037C40.8185 69.6714 40.7421 70.1177 40.8503 70.7499C41.0459 71.4273 41.3713 72.0383 41.6976 72.6605C41.7703 72.8035 41.843 72.9466 41.9179 73.094C42.2785 73.7973 42.6556 74.4811 43.0748 75.151C43.5885 75.9733 43.6986 76.4055 43.5098 77.3496C43.5164 77.9765 43.9434 78.3448 44.3534 78.7843C44.5946 79.0541 44.5946 79.0541 44.5946 79.3243C43.8811 79.3243 43.1676 79.3243 42.4324 79.3243C42.4403 79.1581 42.4481 78.992 42.4562 78.8207C42.4625 78.6001 42.4687 78.3794 42.4747 78.1588C42.4803 78.0496 42.486 77.9403 42.4918 77.8278C42.5035 77.2528 42.5019 76.9815 42.14 76.515C42.0784 76.452 42.0169 76.3889 41.9534 76.324C41.4964 75.7595 41.2678 75.0222 40.9882 74.3581C40.4497 73.1084 39.8821 71.9015 39.1938 70.7273C38.6989 69.8807 38.6989 69.8807 38.6487 69.4595C38.7667 69.2155 38.7667 69.2156 38.958 68.9648C39.0287 68.87 39.0994 68.7753 39.1722 68.6776C39.2503 68.5761 39.3284 68.4745 39.4088 68.3699C39.5716 68.1509 39.7342 67.9316 39.8965 67.7122C39.9808 67.5992 40.065 67.4862 40.1518 67.3697C41.549 65.4818 42.8302 63.6527 43.3953 61.3429C43.6811 60.1996 44.0158 59.7715 45.0169 59.1385C45.6154 58.7838 45.6154 58.7838 46.0811 58.7838Z" fill="#BE6F32"/>
<path d="M72.3055 39.8556C72.3836 39.9061 72.4617 39.9565 72.5422 40.0085C72.623 40.0594 72.7037 40.1104 72.7869 40.1629C72.9846 40.2878 73.1816 40.4141 73.3784 40.5405C73.3526 41.9815 73.1114 43.3442 72.8129 44.7521C72.534 46.0682 72.4019 47.3302 72.3862 48.6753C72.3671 49.2307 72.338 49.5291 72.0381 50.0111C71.7568 50.2703 71.7568 50.2703 71.4865 50.2703C71.4814 50.3959 71.4764 50.5215 71.4712 50.6509C71.379 52.3848 70.9818 53.1504 69.7297 54.3243C69.5492 54.5041 69.3689 54.6843 69.1892 54.8649C69.0504 54.3363 68.9132 53.8074 68.7776 53.278C68.7313 53.098 68.6845 52.9182 68.6372 52.7385C68.5693 52.4798 68.5031 52.2207 68.437 51.9616C68.3966 51.8059 68.3563 51.6502 68.3147 51.4898C68.2475 51.1055 68.245 50.9009 68.3784 50.5405C68.4676 50.5405 68.5568 50.5405 68.6486 50.5405C68.4257 49.827 68.2027 49.1135 67.973 48.3784C68.2405 48.2446 68.5081 48.1108 68.7838 47.973C69.1054 47.3392 69.1101 46.661 69.1385 45.9628C69.1437 45.8569 69.149 45.751 69.1543 45.6419C69.167 45.3829 69.1782 45.1239 69.1892 44.8649C69.6065 44.6264 69.7612 44.5946 70.2703 44.5946C70.2703 48.1474 70.2703 48.1474 70.1858 48.6571C70.078 49.1959 70.078 49.1959 70.4054 49.5946C70.4318 49.9002 70.4318 49.9002 70.4223 50.228C70.4199 50.3373 70.4174 50.4465 70.4149 50.559C70.4118 50.6421 70.4086 50.7252 70.4054 50.8108C69.9499 51.0133 69.7021 51.0811 69.1892 51.0811C69.323 51.7054 69.4568 52.3297 69.5946 52.973C69.8843 52.999 69.8843 52.999 70.1399 52.7782C70.5704 52.2176 70.5621 51.5852 70.6337 50.8977C70.7419 50.0656 70.7419 50.0656 71.1581 49.669C71.652 49.1505 71.5585 48.6796 71.5456 47.9899C71.563 46.0799 71.9594 44.2675 72.3601 42.4083C72.445 42.0253 72.445 42.0253 72.4324 41.6216C72.2217 41.5529 72.0104 41.4856 71.799 41.4189C71.6814 41.3813 71.5638 41.3437 71.4427 41.3049C71.0852 41.1998 71.0852 41.1998 70.7237 41.2289C70.4054 41.2162 70.4054 41.2162 70.1605 41.0135C70.1075 40.9466 70.0546 40.8797 70 40.8108C68.7506 41.4179 68.7506 41.4179 67.5338 42.0862C67.1622 42.2973 67.1622 42.2973 66.8919 42.2973C66.8919 42.0743 66.8919 41.8514 66.8919 41.6216C67.6054 41.3541 68.3189 41.0865 69.0541 40.8108C68.8757 40.7662 68.6973 40.7216 68.5135 40.6757C68.4243 40.6311 68.3351 40.5865 68.2432 40.5405C68.4907 40.0456 69.1304 39.955 69.6284 39.772C69.7446 39.7269 69.8608 39.6819 69.9805 39.6355C70.0935 39.5936 70.2066 39.5517 70.3231 39.5086C70.4262 39.4699 70.5294 39.4313 70.6357 39.3915C71.2936 39.249 71.7536 39.5096 72.3055 39.8556Z" fill="#0E283C"/>
<path d="M72.3055 39.8556C72.3836 39.9061 72.4617 39.9565 72.5422 40.0085C72.623 40.0594 72.7037 40.1104 72.7869 40.1629C72.9846 40.2878 73.1816 40.4141 73.3784 40.5405C73.3526 41.9815 73.1114 43.3442 72.8129 44.7521C72.534 46.0682 72.4019 47.3302 72.3862 48.6753C72.3621 49.3766 72.2811 49.7564 71.7568 50.2703C71.623 50.2257 71.4892 50.1811 71.3514 50.1351C71.3514 50.046 71.3514 49.9568 71.3514 49.8649C71.2176 49.798 71.2176 49.798 71.0811 49.7297C71.1802 49.6471 71.1802 49.6471 71.2812 49.5628C71.5361 49.2667 71.5333 49.1375 71.5271 48.7521C71.5278 48.6346 71.5284 48.517 71.529 48.3959C71.5289 48.2675 71.5288 48.1391 71.5287 48.0068C71.5635 46.0942 71.9586 44.271 72.3601 42.4083C72.445 42.0253 72.445 42.0253 72.4324 41.6216C72.2217 41.5529 72.0104 41.4856 71.799 41.4189C71.6814 41.3813 71.5638 41.3437 71.4427 41.3049C71.0852 41.1998 71.0852 41.1998 70.7237 41.2289C70.4054 41.2162 70.4054 41.2162 70.1605 41.0135C70.1075 40.9466 70.0546 40.8797 70 40.8108C68.7506 41.4179 68.7506 41.4179 67.5338 42.0862C67.1622 42.2973 67.1622 42.2973 66.8919 42.2973C66.8919 42.0743 66.8919 41.8514 66.8919 41.6216C67.6054 41.3541 68.3189 41.0865 69.0541 40.8108C68.8757 40.7662 68.6973 40.7216 68.5135 40.6757C68.4243 40.6311 68.3351 40.5865 68.2432 40.5405C68.4907 40.0456 69.1304 39.955 69.6284 39.772C69.7446 39.7269 69.8608 39.6819 69.9805 39.6355C70.0935 39.5936 70.2066 39.5517 70.3231 39.5086C70.4262 39.4699 70.5294 39.4313 70.6357 39.3915C71.2936 39.249 71.7536 39.5096 72.3055 39.8556Z" fill="#132938"/>
<path d="M37.973 70.4054C38.7581 70.6671 39.0985 71.72 39.4595 72.4324C39.7505 73.029 40.033 73.6293 40.3125 74.2314C40.417 74.4561 40.417 74.4561 40.5236 74.6853C40.8962 75.5 41.2222 76.3061 41.4865 77.1622C40.8622 77.1622 40.2378 77.1622 39.5946 77.1622C39.0325 75.927 38.4812 74.6874 37.973 73.429C37.9321 73.3317 37.8913 73.2343 37.8492 73.134C37.5204 72.3035 37.4066 71.5919 37.7703 70.7432C37.8372 70.6317 37.9041 70.5203 37.973 70.4054Z" fill="#F2F6F7"/>
<path d="M34.3243 53.2432C34.4506 53.65 34.4655 53.7657 34.3243 54.1892C34.3045 54.399 34.291 54.6095 34.2816 54.82C34.2731 55.0009 34.2731 55.0009 34.2644 55.1855C34.2591 55.3111 34.2538 55.4366 34.2483 55.5659C34.2396 55.7565 34.2396 55.7565 34.2306 55.951C34.2163 56.2646 34.2025 56.5782 34.1892 56.8919C34.0554 56.8027 33.9216 56.7135 33.7838 56.6216C33.65 56.6885 33.65 56.6885 33.5135 56.7568C33.4871 56.433 33.4619 56.1093 33.4375 55.7855C33.4261 55.6489 33.4261 55.6489 33.4145 55.5097C33.3771 54.9977 33.3831 54.5516 33.5135 54.0541C33.1513 54.3221 32.7916 54.5928 32.4324 54.8649C32.2901 54.9715 32.1478 55.0781 32.0012 55.1879C29.1488 57.3523 27.5054 59.5409 26.7568 63.1081C26.7122 63.1081 26.6676 63.1081 26.6216 63.1081C26.645 61.8124 26.8923 60.7708 27.4324 59.5946C27.4878 59.4711 27.5432 59.3476 27.6003 59.2203C28.4544 57.4944 29.8378 56.1533 31.3514 55C31.515 54.8673 31.6783 54.7341 31.8412 54.6004C32.0101 54.4633 32.179 54.3262 32.348 54.1892C32.4268 54.1241 32.5056 54.059 32.5868 53.9919C33.0162 53.649 33.3579 53.3942 33.9189 53.3784C34.0081 53.4676 34.0973 53.5568 34.1892 53.6486C34.2338 53.5149 34.2784 53.3811 34.3243 53.2432Z" fill="#172635"/>
<path d="M33.9189 55C33.9635 55 34.0081 55 34.0541 55C34.0845 55.4222 34.1118 55.8445 34.1385 56.2669C34.1472 56.3871 34.1559 56.5073 34.1649 56.6311C34.1754 56.8036 34.1754 56.8036 34.186 56.9795C34.1931 57.0857 34.2002 57.1918 34.2075 57.3012C34.1892 57.5676 34.1892 57.5676 33.9189 57.8378C33.8297 57.9716 33.7405 58.1054 33.6487 58.2432C33.6487 58.0649 33.6487 57.8865 33.6487 57.7027C33.5595 57.7027 33.4703 57.7027 33.3784 57.7027C33.3422 57.8114 33.3059 57.9201 33.2686 58.0321C33.182 58.2918 33.0949 58.5513 33.0047 58.8096C32.9513 58.9641 32.9513 58.9641 32.897 59.1216C32.8465 59.2659 32.8465 59.2659 32.7951 59.413C32.5466 60.265 32.528 61.1293 32.4916 62.0101C32.4857 62.1418 32.4799 62.2735 32.4739 62.4092C32.4596 62.7322 32.4458 63.0553 32.4324 63.3784C32.3878 63.3784 32.3432 63.3784 32.2973 63.3784C32.2973 62.4865 32.2973 61.5946 32.2973 60.6757C32.1635 60.6757 32.0297 60.6757 31.8919 60.6757C31.8092 59.214 32.2121 58.0454 33.1081 56.8919C33.1527 56.8473 33.1973 56.8027 33.2432 56.7568C33.2749 56.4843 33.2991 56.211 33.3193 55.9375C33.3306 55.7882 33.3419 55.6389 33.3536 55.4851C33.3618 55.3696 33.3699 55.2541 33.3784 55.1351C33.423 55.1351 33.4676 55.1351 33.5135 55.1351C33.5581 55.5365 33.6027 55.9378 33.6487 56.3514C33.6932 56.3514 33.7378 56.3514 33.7838 56.3514C33.8284 55.9054 33.873 55.4595 33.9189 55Z" fill="#0C1F34"/>
<path d="M71.6216 39.4595C71.4432 39.5041 71.2649 39.5486 71.0811 39.5946C71.0811 39.7284 71.0811 39.8622 71.0811 40C71.1703 40.0446 71.2595 40.0892 71.3514 40.1351C71.2176 40.1351 71.0838 40.1351 70.9459 40.1351C70.9459 40.2243 70.9459 40.3135 70.9459 40.4054C71.0797 40.45 71.2135 40.4946 71.3514 40.5405C71.2622 40.5405 71.173 40.5405 71.0811 40.5405C71.0811 40.6297 71.0811 40.7189 71.0811 40.8108C71.1703 40.8108 71.2595 40.8108 71.3514 40.8108C71.3514 40.9 71.3514 40.9892 71.3514 41.0811C70.9037 41.174 70.9037 41.174 70.4054 41.2162C70.1716 41.0162 70.1716 41.0162 70 40.8108C68.7506 41.4179 68.7506 41.4179 67.5338 42.0861C67.1622 42.2973 67.1622 42.2973 66.8919 42.2973C66.8919 42.0743 66.8919 41.8514 66.8919 41.6216C67.6054 41.3541 68.3189 41.0865 69.0541 40.8108C68.8757 40.7662 68.6973 40.7216 68.5135 40.6757C68.4243 40.6311 68.3351 40.5865 68.2432 40.5405C68.4907 40.0456 69.1304 39.955 69.6284 39.772C69.7446 39.7269 69.8608 39.6819 69.9805 39.6355C70.0935 39.5936 70.2066 39.5517 70.3231 39.5086C70.4262 39.4699 70.5294 39.4313 70.6357 39.3915C71.0036 39.3118 71.2607 39.364 71.6216 39.4595Z" fill="#113040"/>
<path d="M71.0811 39.5946C72.072 39.5123 72.5813 39.9962 73.3784 40.5405C73.3338 41.2095 73.2892 41.8784 73.2432 42.5676C73.1095 42.5676 72.9757 42.5676 72.8378 42.5676C72.7486 42.7014 72.6595 42.8351 72.5676 42.973C72.523 42.527 72.4784 42.0811 72.4324 41.6216C71.9865 41.4878 71.5405 41.3541 71.0811 41.2162C71.1703 41.1716 71.2595 41.127 71.3513 41.0811C71.3513 40.9919 71.3513 40.9027 71.3513 40.8108C71.2622 40.8108 71.173 40.8108 71.0811 40.8108C70.9669 40.3543 70.9313 40.044 71.0811 39.5946Z" fill="#133345"/>
<path d="M70.2703 44.5946C70.2703 45.7658 70.2703 46.9369 70.2703 48.1081C70.1811 48.1081 70.0919 48.1081 70 48.1081C70 48.1973 70 48.2865 70 48.3784C69.9108 48.3784 69.8216 48.3784 69.7297 48.3784C69.7715 48.5832 69.7715 48.5832 69.8142 48.7922C69.8712 49.3912 69.7886 49.711 69.5946 50.2703C69.3243 50.1351 69.3243 50.1351 69.2092 49.8263C69.1748 49.7025 69.1403 49.5786 69.1047 49.451C69.0695 49.3268 69.0343 49.2026 68.9981 49.0746C68.972 48.9787 68.9458 48.8827 68.9189 48.7838C69.0527 48.7392 69.1865 48.6946 69.3243 48.6486C69.4234 48.3763 69.4234 48.3763 69.4595 48.1081C69.5486 48.1081 69.6378 48.1081 69.7297 48.1081C69.6851 47.5284 69.6405 46.9486 69.5946 46.3513C69.55 46.3513 69.5054 46.3513 69.4595 46.3513C69.4149 46.5743 69.3703 46.7973 69.3243 47.027C69.2797 47.027 69.2351 47.027 69.1892 47.027C69.1892 46.3135 69.1892 45.6 69.1892 44.8649C69.7297 44.5946 69.7297 44.5946 70.2703 44.5946Z" fill="#BE6F32"/>
<path d="M31.7568 60C31.8013 60 31.8459 60 31.8919 60C31.8919 60.223 31.8919 60.4459 31.8919 60.6757C32.0257 60.6757 32.1595 60.6757 32.2973 60.6757C32.2973 61.5676 32.2973 62.4595 32.2973 63.3784C32.3865 63.3784 32.4757 63.3784 32.5676 63.3784C32.5712 63.6543 32.5739 63.9302 32.576 64.2061C32.5776 64.3597 32.5791 64.5134 32.5808 64.6717C32.5683 65.1099 32.5154 65.5161 32.4324 65.9459C32.1706 65.853 32.1706 65.853 31.8919 65.6757C31.7097 65.0773 31.7395 64.4598 31.7436 63.8403C31.7438 63.6752 31.7438 63.6752 31.7441 63.5069C31.7449 63.1572 31.7466 62.8075 31.7483 62.4578C31.749 62.22 31.7496 61.9822 31.7502 61.7444C31.7516 61.1629 31.754 60.5815 31.7568 60Z" fill="#162B3E"/>
<path d="M60.8108 25.9459C60.8554 25.9459 60.9 25.9459 60.9459 25.9459C60.9479 26.0334 60.9499 26.1209 60.9519 26.211C61.0254 29.1569 61.1839 32.2059 62.272 34.9831C62.3249 35.1225 62.3779 35.2618 62.4324 35.4054C62.3655 35.5392 62.3655 35.5392 62.2973 35.6757C61.5256 34.3471 61.1459 32.9759 60.8108 31.4865C60.7861 31.3844 60.7615 31.2823 60.7361 31.1772C60.6593 30.7117 60.6563 30.2539 60.6577 29.7836C60.6576 29.6865 60.6575 29.5894 60.6573 29.4894C60.6572 29.2852 60.6575 29.081 60.658 28.8768C60.6588 28.5643 60.6581 28.2517 60.6572 27.9392C60.6573 27.7403 60.6575 27.5415 60.6577 27.3427C60.6574 27.2494 60.6572 27.156 60.6569 27.0599C60.6589 26.6505 60.6802 26.3376 60.8108 25.9459Z" fill="#25282F"/>
<path d="M61.8919 28.5135C62.0024 28.5765 62.0024 28.5765 62.1152 28.6407C62.585 28.8526 63.0658 28.8939 63.5732 28.9648C63.9462 29.0611 64.0855 29.1643 64.3243 29.4595C63.277 29.6115 63.277 29.6115 62.973 29.4595C62.973 29.8162 62.973 30.173 62.973 30.5405C62.9284 30.5405 62.8838 30.5405 62.8378 30.5405C62.8378 31.2541 62.8378 31.9676 62.8378 32.7027C62.7041 32.7027 62.5703 32.7027 62.4324 32.7027C62.3878 32.7919 62.3432 32.8811 62.2973 32.973C62.1544 31.9693 62.116 30.9709 62.0803 29.9586C62.0728 29.7666 62.0728 29.7666 62.065 29.5708C62.0609 29.4553 62.0568 29.3398 62.0526 29.2207C62.037 28.8958 62.037 28.8958 61.8919 28.5135Z" fill="#16354A"/>
<path d="M46.7568 28.7838C47.5595 28.873 48.3622 28.9622 49.1892 29.0541C49.1446 29.1432 49.1 29.2324 49.0541 29.3243C49.3885 29.3912 49.3885 29.3912 49.7297 29.4595C49.7297 29.5041 49.7297 29.5486 49.7297 29.5946C49.2392 29.6392 48.7487 29.6838 48.2432 29.7297C48.7002 30.227 49.1115 30.5376 49.7297 30.8108C49.7297 30.8554 49.7297 30.9 49.7297 30.9459C49.5068 30.9459 49.2838 30.9459 49.0541 30.9459C49.0541 31.0351 49.0541 31.1243 49.0541 31.2162C48.219 31.1116 47.8066 30.638 47.2973 30C47.0755 29.5996 46.9182 29.2143 46.7568 28.7838Z" fill="#0C2A3B"/>
<path d="M37.4324 70C37.6436 70.152 37.6436 70.152 37.8378 70.4054C37.7956 70.7686 37.7956 70.7686 37.7027 71.2162C37.6669 71.9676 37.7356 72.5311 37.973 73.2432C37.8392 73.2432 37.7054 73.2432 37.5676 73.2432C37.523 73.1986 37.4784 73.1541 37.4324 73.1081C37.3878 73.2419 37.3432 73.3757 37.2973 73.5135C37.2081 73.5135 37.1189 73.5135 37.027 73.5135C36.3861 71.6517 36.3861 71.6517 36.7341 70.8087C37.0763 70.1781 37.0763 70.1781 37.4324 70Z" fill="#0F2B3D"/>
<path d="M70.4054 49.8649C70.5392 49.9095 70.673 49.9541 70.8108 50C70.698 52.1968 70.698 52.1968 70.312 52.7745C70.0507 52.9899 70.0507 52.9899 69.5946 53.2432C69.1292 51.8414 69.1292 51.8414 69.1892 51.0811C69.5905 50.9919 69.9919 50.9027 70.4054 50.8108C70.4054 50.4987 70.4054 50.1865 70.4054 49.8649Z" fill="#BE6F32"/>
<path d="M52.027 34.0541C51.8901 34.1839 51.8901 34.1839 51.7504 34.3164C51.0918 34.9551 50.5324 35.5207 50.1351 36.3514C49.6892 36.3068 49.2432 36.2622 48.7838 36.2162C48.7392 36.0824 48.6946 35.9487 48.6487 35.8108C48.8284 35.7356 48.8284 35.7356 49.0118 35.6588C49.5209 35.3706 49.7675 35.045 50.1351 34.5946C50.8065 34.0877 51.212 33.8326 52.027 34.0541Z" fill="#0A2C41"/>
<path d="M29.8649 56.2162C30.0432 56.2608 30.2216 56.3054 30.4054 56.3514C30.2939 56.4823 30.1824 56.6133 30.0676 56.7483C29.9934 56.8358 29.9192 56.9232 29.8427 57.0133C29.6788 57.2009 29.5106 57.3848 29.3381 57.5644C27.7787 59.2101 27.211 60.9374 26.7568 63.1081C26.7122 63.1081 26.6676 63.1081 26.6216 63.1081C26.645 61.8124 26.8923 60.7708 27.4324 59.5946C27.4878 59.4711 27.5432 59.3476 27.6003 59.2203C28.168 58.0732 29.0141 57.1592 29.8649 56.2162Z" fill="#1D2B39"/>
<path d="M29.3243 64.7297C29.5946 65 29.5946 65 29.6274 65.3177C29.6266 65.5129 29.6266 65.5129 29.6257 65.7121C29.6255 65.8545 29.6252 65.9969 29.625 66.1436C29.6233 66.293 29.6216 66.4424 29.6199 66.5963C29.6199 66.7441 29.6198 66.8919 29.6197 67.0442C29.6161 67.6896 29.6035 68.2875 29.4595 68.9189C29.3257 68.9635 29.1919 69.0081 29.0541 69.0541C29.0095 69.1878 28.9649 69.3216 28.9189 69.4595C28.8297 69.4595 28.7405 69.4595 28.6487 69.4595C28.6041 69.5487 28.5595 69.6378 28.5135 69.7297C28.5782 69.2233 28.6572 68.7315 28.7753 68.2348C28.9366 67.5193 29.0394 66.799 29.1385 66.0726C29.1566 65.9428 29.1748 65.8129 29.1934 65.6791C29.2375 65.3627 29.2811 65.0463 29.3243 64.7297Z" fill="#0F1F29"/>
<path d="M67.973 30.6757C68.0176 30.7649 68.0622 30.8541 68.1081 30.9459C68.5642 31.2507 68.9547 31.2448 69.4932 31.2331C69.7117 31.2294 69.7117 31.2294 69.9345 31.2257C70.0453 31.2226 70.1561 31.2194 70.2703 31.2162C70.2703 31.6216 70.2703 31.6216 70.1351 32.027C69.5804 32.2346 68.9606 32.2361 68.3784 32.1622C67.789 31.829 67.5621 31.424 67.2973 30.8108C67.5203 30.7662 67.7432 30.7216 67.973 30.6757Z" fill="#0D2739"/>
<path d="M46.2162 35.5405C46.3054 35.5851 46.3946 35.6297 46.4865 35.6757C46.4865 35.8095 46.4865 35.9432 46.4865 36.0811C46.6158 36.0787 46.6158 36.0787 46.7478 36.0763C46.8594 36.0751 46.9711 36.0739 47.0861 36.0726C47.1975 36.0711 47.3088 36.0695 47.4235 36.0679C47.7027 36.0811 47.7027 36.0811 47.8378 36.2162C48.108 36.2217 48.3784 36.222 48.6486 36.2162C48.6486 36.35 48.6486 36.4838 48.6486 36.6216C47.9087 37.1149 47.0021 36.9298 46.1571 36.7737C45.7186 36.685 45.5188 36.6071 45.1351 36.3514C45.1351 36.2622 45.1351 36.173 45.1351 36.0811C45.4473 36.1257 45.7595 36.1703 46.0811 36.2162C46.1257 35.9932 46.1703 35.7703 46.2162 35.5405Z" fill="#1A3347"/>
<path d="M29.4595 60.6757C29.504 60.6757 29.5486 60.6757 29.5946 60.6757C29.6003 60.9909 29.6001 61.3064 29.5946 61.6216C29.55 61.6662 29.5054 61.7108 29.4595 61.7568C29.4191 62.0338 29.3862 62.3119 29.3565 62.5903C28.9136 66.4622 28.9136 66.4622 28.1081 67.7027C27.9743 67.7696 27.9743 67.7696 27.8378 67.8378C27.8964 67.6845 27.9549 67.5312 28.0152 67.3733C28.4173 66.1613 28.5738 64.8693 28.75 63.608C28.767 63.4882 28.784 63.3684 28.8015 63.245C28.8339 63.0132 28.8651 62.7813 28.8949 62.5492C28.9906 61.8607 29.157 61.3025 29.4595 60.6757Z" fill="#1B2136"/>
<path d="M72.1622 46.7568C72.2068 46.7568 72.2514 46.7568 72.2973 46.7568C72.3131 47.2156 72.3226 47.6744 72.3311 48.1334C72.3379 48.328 72.3379 48.328 72.3448 48.5264C72.3583 49.4985 72.3583 49.4985 72.0249 50.0238C71.9364 50.1051 71.8479 50.1865 71.7568 50.2703C71.623 50.2257 71.4892 50.1811 71.3514 50.1351C71.3514 50.0459 71.3514 49.9568 71.3514 49.8649C71.2622 49.8203 71.173 49.7757 71.0811 49.7297C71.1466 49.6746 71.212 49.6195 71.2795 49.5628C71.5312 49.2728 71.5422 49.1315 71.5556 48.7526C71.5604 48.6442 71.5652 48.5358 71.5702 48.424C71.5732 48.3114 71.5763 48.1988 71.5794 48.0828C71.584 47.9686 71.5886 47.8544 71.5934 47.7368C71.6045 47.4552 71.6133 47.1735 71.6216 46.8919C71.7554 47.0257 71.8892 47.1595 72.027 47.2973C72.0716 47.1189 72.1162 46.9405 72.1622 46.7568Z" fill="#0E2232"/>
<path d="M44.7297 78.2432C45.221 78.7072 45.5893 79.1618 45.9459 79.7297C45.2797 80.0054 44.7865 80.1901 44.054 80.1351C44.0986 79.9568 44.1432 79.7784 44.1892 79.5946C43.7878 79.55 43.3865 79.5054 42.973 79.4595C42.973 79.4149 42.973 79.3703 42.973 79.3243C43.5081 79.3243 44.0432 79.3243 44.5946 79.3243C44.5054 79.1013 44.4162 78.8784 44.3243 78.6486C44.4581 78.5149 44.5919 78.3811 44.7297 78.2432Z" fill="#0C273C"/>
<path d="M63.2432 40.8108C63.5135 41.0811 63.5135 41.0811 63.5399 41.4622C63.5352 41.6833 63.5352 41.6833 63.5304 41.9088C63.528 42.0568 63.5255 42.2049 63.523 42.3575C63.5199 42.4714 63.5167 42.5853 63.5135 42.7027C63.6027 42.7027 63.6919 42.7027 63.7838 42.7027C63.7838 42.7919 63.7838 42.8811 63.7838 42.973C64.4081 42.973 65.0324 42.973 65.6757 42.973C64.9094 43.5476 64.1841 43.5359 63.2432 43.5135C62.8691 43.4207 62.6309 43.3067 62.2973 43.1081C62.4689 42.9058 62.6404 42.7034 62.812 42.5011C63.097 42.1403 63.1392 41.8517 63.1841 41.402C63.1954 41.2916 63.2068 41.1811 63.2184 41.0674C63.2266 40.9827 63.2348 40.898 63.2432 40.8108Z" fill="#20374C"/>
<path d="M36.7568 75.946C36.8459 76.0797 36.9351 76.2135 37.027 76.3514C37.1326 76.4621 37.1326 76.4621 37.2403 76.5752C37.6098 76.9827 37.8369 77.2545 37.8399 77.8194C37.7377 78.404 37.6288 78.8271 37.2973 79.3243C37.2973 79.0122 37.2973 78.7 37.2973 78.3784C37.1635 78.5122 37.0297 78.646 36.8919 78.7838C36.8966 78.6615 36.8966 78.6615 36.9014 78.5367C36.9038 78.4287 36.9063 78.3207 36.9088 78.2095C36.9119 78.1029 36.9151 77.9962 36.9183 77.8864C36.9118 77.564 36.9118 77.564 36.7525 77.2931C36.5285 76.8378 36.6752 76.4353 36.7568 75.946Z" fill="#122937"/>
<path d="M50.4054 28.6487C50.4054 28.7378 50.4054 28.827 50.4054 28.9189C50.6284 28.9189 50.8514 28.9189 51.0811 28.9189C51.1257 29.0081 51.1703 29.0973 51.2162 29.1892C50.24 29.6341 49.3056 29.8613 48.2432 30C48.2432 29.9108 48.2432 29.8216 48.2432 29.7297C48.4662 29.6851 48.6892 29.6405 48.9189 29.5946C48.9635 29.4608 49.0081 29.327 49.0541 29.1892C48.6973 29.1446 48.3405 29.1 47.973 29.0541C47.973 29.0095 47.973 28.9649 47.973 28.9189C48.0756 28.9107 48.1782 28.9025 48.2839 28.8941C48.4182 28.8828 48.5525 28.8715 48.6909 28.8598C48.8241 28.8488 48.9574 28.8379 49.0947 28.8265C49.5666 28.7712 49.9192 28.6487 50.4054 28.6487Z" fill="#233A48"/>
<path d="M71.8919 44.8649C72.2973 44.8649 72.2973 44.8649 72.7027 45C72.6135 45.6689 72.5243 46.3378 72.4324 47.027C72.3878 47.027 72.3432 47.027 72.2973 47.027C72.2527 47.25 72.2081 47.473 72.1622 47.7027C71.5872 46.8403 71.5872 46.8403 71.6638 46.2331C71.6785 46.114 71.6931 45.9948 71.7082 45.872C71.7578 45.5333 71.8141 45.1984 71.8919 44.8649Z" fill="#1B3242"/>
<path d="M40 79.1892C40.3543 79.3309 40.5127 79.4121 40.7095 79.7466C40.7429 79.8302 40.7764 79.9138 40.8108 80C40.1629 80.3726 39.6505 80.4775 38.9189 80.5405C38.8743 80.4513 38.8297 80.3622 38.7838 80.2703C38.4423 80.1817 38.4423 80.1817 38.1081 80.1351C38.0635 80.0013 38.0189 79.8676 37.973 79.7297C38.0853 79.7247 38.1977 79.7196 38.3135 79.7144C38.4603 79.7055 38.6072 79.6966 38.7584 79.6875C38.9043 79.6797 39.0501 79.6718 39.2003 79.6637C39.6182 79.5904 39.7473 79.5199 40 79.1892Z" fill="#0C283B"/>
<path d="M68.5135 43.9189C69.0283 43.9627 69.2951 44.0346 69.7297 44.3243C69.9534 44.3763 70.1787 44.4227 70.4054 44.4595C70.4132 44.9944 70.418 45.5292 70.4223 46.0642C70.4246 46.2166 70.4268 46.369 70.4292 46.5261C70.43 46.6715 70.4309 46.817 70.4318 46.9668C70.4332 47.1013 70.4346 47.2358 70.4361 47.3743C70.4054 47.7027 70.4054 47.7027 70.1351 47.973C70.0905 47.8392 70.0459 47.7054 70 47.5676C70.0892 47.5676 70.1784 47.5676 70.2703 47.5676C70.2703 46.5865 70.2703 45.6054 70.2703 44.5946C69.8689 44.6838 69.4676 44.773 69.0541 44.8649C68.6402 44.8818 68.6402 44.8818 68.3784 44.8649C68.2939 44.5439 68.2939 44.5439 68.2432 44.1892C68.3324 44.1 68.4216 44.0108 68.5135 43.9189Z" fill="#0B202B"/>
<path d="M52.8378 30.6757C52.927 30.7649 53.0162 30.8541 53.1081 30.946C50.7907 31.59 50.7907 31.59 49.5946 31.4865C49.5946 31.3973 49.5946 31.3081 49.5946 31.2162C49.5054 31.1716 49.4162 31.127 49.3243 31.0811C50.489 30.7227 51.6174 30.5462 52.8378 30.6757Z" fill="#03283B"/>
<path d="M67.027 23.6487C67.0988 23.7412 67.1706 23.8336 67.2445 23.929C67.6169 24.3847 68.0111 24.8146 68.4122 25.2449C68.4871 25.3257 68.562 25.4064 68.6392 25.4896C68.8223 25.687 69.0057 25.884 69.1892 26.0811C69.1 26.1703 69.0108 26.2595 68.9189 26.3514C68.8743 26.2176 68.8297 26.0838 68.7838 25.9459C68.6779 25.9069 68.572 25.8679 68.4628 25.8277C68.0193 25.6376 67.9143 25.4232 67.7027 25C67.5689 25.1338 67.4351 25.2676 67.2973 25.4054C66.7711 24.8298 66.7711 24.8298 66.7061 24.375C66.7568 24.0541 66.7568 24.0541 67.027 23.6487Z" fill="#1A3040"/>
<path d="M47.2973 57.1622C47.3419 57.2513 47.3865 57.3405 47.4324 57.4324C47.2704 57.4915 47.2704 57.4915 47.1051 57.5517C46.0513 57.945 45.05 58.3967 44.054 58.9189C44.3919 58.1248 45.1338 57.667 45.9037 57.3226C46.9023 56.9647 46.9023 56.9647 47.2973 57.1622Z" fill="#BE6F32"/>
<path d="M69.3243 40.6757C69.4581 40.7203 69.5919 40.7649 69.7297 40.8108C69.3588 41.0343 68.9869 41.2563 68.6149 41.478C68.5098 41.5414 68.4048 41.6047 68.2966 41.6699C68.1437 41.7607 68.1437 41.7607 67.9878 41.8534C67.8943 41.9093 67.8009 41.9652 67.7047 42.0228C67.434 42.1614 67.1889 42.2364 66.8919 42.2973C66.8919 42.0743 66.8919 41.8514 66.8919 41.6216C67.0448 41.5647 67.1978 41.5077 67.3554 41.449C67.5556 41.3742 67.7558 41.2995 67.9561 41.2247C68.0569 41.1871 68.1578 41.1496 68.2617 41.1109C68.801 40.912 68.801 40.912 69.3243 40.6757Z" fill="#BE6F32"/>
<path d="M41.8919 53.2432C43.4714 54.5269 43.4714 54.5269 43.6486 55.4054C42.9508 54.8603 42.3585 54.2723 41.8919 53.5135C41.8919 53.4243 41.8919 53.3351 41.8919 53.2432Z" fill="#1E2D3E"/>
<path d="M24.3243 60.946C24.3689 60.946 24.4135 60.946 24.4595 60.946C24.5486 61.3919 24.6378 61.8378 24.7297 62.2973C24.6405 62.2973 24.5513 62.2973 24.4595 62.2973C24.4149 62.3865 24.3703 62.4757 24.3243 62.5676C24.1919 62.7053 24.057 62.8409 23.9189 62.973C23.7582 62.4119 23.8122 62.1098 24.0456 61.5794C24.097 61.4601 24.1484 61.3407 24.2013 61.2178C24.2419 61.1281 24.2825 61.0384 24.3243 60.946Z" fill="#1E3645"/>
<path d="M60.8108 29.1892C60.9 29.2338 60.9892 29.2784 61.0811 29.3243C61.1465 29.6389 61.1465 29.6389 61.1824 30.0338C61.1957 30.1627 61.2089 30.2916 61.2225 30.4244C61.2157 30.8408 61.1232 31.1129 60.9459 31.4865C60.9013 31.4865 60.8568 31.4865 60.8108 31.4865C60.6307 29.9295 60.6307 29.9295 60.8108 29.1892Z" fill="#1D3248"/>
<path d="M56.2162 25.2703C55.0633 26.0456 55.0633 26.0456 54.4595 26.0811C54.3703 26.0365 54.2811 25.9919 54.1892 25.946C54.1892 25.8568 54.1892 25.7676 54.1892 25.6757C54.425 25.581 54.6616 25.4885 54.8987 25.397C55.0303 25.3452 55.162 25.2935 55.2977 25.2402C55.6811 25.1336 55.8506 25.1318 56.2162 25.2703Z" fill="#29383D"/>
<path d="M61.8919 19.7297C61.9365 19.8635 61.9811 19.9973 62.027 20.1351C61.8932 20.2689 61.7595 20.4027 61.6216 20.5405C61.577 20.4514 61.5324 20.3622 61.4865 20.2703C61.1992 20.2072 61.1992 20.2072 60.8699 20.1858C60.7583 20.1757 60.6466 20.1656 60.5316 20.1552C60.4453 20.1486 60.3591 20.142 60.2703 20.1351C60.5405 19.7297 60.5405 19.7297 60.777 19.6284C61.1684 19.5849 61.5079 19.6512 61.8919 19.7297Z" fill="#193142"/>
<path d="M68.5135 51.6216C68.6027 51.6216 68.6919 51.6216 68.7838 51.6216C68.8486 51.7933 68.9134 51.9651 68.978 52.1368C69.0321 52.2803 69.0321 52.2803 69.0873 52.4266C69.3374 53.1042 69.2936 53.4814 69.1892 54.1892C68.9629 53.772 68.8238 53.363 68.6993 52.9054C68.6641 52.7786 68.629 52.6518 68.5927 52.5211C68.5135 52.1622 68.5135 52.1622 68.5135 51.6216Z" fill="#0F2334"/>
<path d="M70.9459 39.3243C71.1724 39.363 71.3978 39.4078 71.6216 39.4595C71.4432 39.5041 71.2649 39.5486 71.0811 39.5946C71.0811 39.7284 71.0811 39.8622 71.0811 40C71.1703 40.0446 71.2595 40.0892 71.3514 40.1351C71.2176 40.1351 71.0838 40.1351 70.9459 40.1351C70.9459 40.2243 70.9459 40.3135 70.9459 40.4054C71.0797 40.45 71.2135 40.4946 71.3514 40.5405C71.2622 40.5405 71.173 40.5405 71.0811 40.5405C71.0811 40.6297 71.0811 40.7189 71.0811 40.8108C71.1703 40.8108 71.2595 40.8108 71.3514 40.8108C71.3514 40.9 71.3514 40.9892 71.3514 41.0811C71.022 41.0304 71.022 41.0304 70.6757 40.9459C70.6311 40.8568 70.5865 40.7676 70.5405 40.6757C70.6297 40.6757 70.7189 40.6757 70.8108 40.6757C70.8092 40.5894 70.8077 40.5032 70.8061 40.4144C70.8048 40.3027 70.8036 40.1911 70.8024 40.076C70.8008 39.9647 70.7992 39.8534 70.7976 39.7387C70.8108 39.4595 70.8108 39.4595 70.9459 39.3243Z" fill="#0A2332"/>
<path d="M29.4595 68.2432C29.5041 68.2432 29.5486 68.2432 29.5946 68.2432C29.55 68.6892 29.5054 69.1351 29.4595 69.5946C29.2811 69.6392 29.1027 69.6838 28.9189 69.7297C28.7812 69.8622 28.6456 69.997 28.5135 70.1351C28.4243 70.1351 28.3351 70.1351 28.2432 70.1351C28.353 69.8733 28.353 69.8733 28.5135 69.5946C28.6473 69.55 28.7811 69.5054 28.9189 69.4595C28.9692 69.2807 29.0144 69.1004 29.0541 68.9189C29.1432 68.8743 29.2324 68.8297 29.3243 68.7838C29.4124 68.5102 29.4124 68.5102 29.4595 68.2432Z" fill="#1E3A47"/>
<path d="M61.0811 30.8108C61.332 31.2448 61.4071 31.6141 61.4527 32.1115C61.4659 32.2414 61.4792 32.3714 61.4928 32.5053C61.4865 32.8378 61.4865 32.8378 61.2162 33.1081C60.9177 32.3003 60.9551 31.6568 61.0811 30.8108Z" fill="#172434"/>
<path d="M29.3243 64.7297C29.5946 65 29.5946 65 29.6129 65.316C29.6058 65.4448 29.5987 65.5736 29.5914 65.7063C29.5845 65.8457 29.5775 65.985 29.5703 66.1286C29.5616 66.2746 29.5529 66.4206 29.5439 66.571C29.5362 66.718 29.5286 66.865 29.5207 67.0165C29.5015 67.3804 29.4811 67.7443 29.4595 68.1081C29.1145 67.5907 29.1542 67.1695 29.1638 66.571C29.1639 66.4689 29.164 66.3668 29.1641 66.2616C29.1683 65.7341 29.1961 65.2447 29.3243 64.7297Z" fill="#1B3A4D"/>
<path d="M65.4054 24.1892C65.6284 24.1892 65.8513 24.1892 66.0811 24.1892C66.1655 24.4426 66.1655 24.4426 66.2162 24.7297C66.127 24.8189 66.0378 24.9081 65.9459 25C65.6588 24.9493 65.6588 24.9493 65.4054 24.8649C65.4054 24.6419 65.4054 24.4189 65.4054 24.1892Z" fill="#22303C"/>
<path d="M69.054 48.6487C69.1432 48.6487 69.2324 48.6487 69.3243 48.6487C69.632 49.7346 69.632 49.7346 69.4595 50.2703C69.3649 50.0768 69.2724 49.8823 69.1807 49.6875C69.129 49.5793 69.0773 49.4711 69.024 49.3597C68.9189 49.0541 68.9189 49.0541 69.054 48.6487Z" fill="#CBD3D7"/>
<path d="M65.9459 27.7027C66.0351 27.7473 66.1243 27.7919 66.2162 27.8378C65.8266 28.4073 65.5347 28.6163 64.8649 28.7838C65.2252 28.4234 65.5856 28.0631 65.9459 27.7027Z" fill="#1A1D1D"/>
</g>
<defs>
<clipPath id="clip0_8_44">
<rect width="100" height="100" fill="white"/>
</clipPath>
</defs>
</svg>
