<svg id="vector" xmlns="http://www.w3.org/2000/svg" width="24.0d" height="24.0d" viewBox="0 0 512.0 512.0"><path fill="#685e67" d="m165,339 l31,-32h117l29,32 -88,90z" stroke="#000000" stroke-width="12.0" id="path_0"/><path fill="#f2eff2" d="m439,313h-96c-11,0 -22,5 -29,13 -9,11 -27,27 -58,40v-0c-30,-12 -48,-29 -58,-40 -7,-8 -18,-13 -29,-13h-96s-19,89 45,145c66,57 138,44 138,44v0s72,12 138,-44c64,-55 45,-145 45,-145z" stroke="#000000" stroke-width="12.0" id="path_1"/><path fill="#3351c5" d="M159,307 l-10,35c-2,9 2,19 12,22 9,2 19,-2 22,-12l13,-45h-37zM352,307 l10,35c2,9 -2,19 -12,22 -9,2 -19,-2 -22,-12l-13,-45h37z" stroke="#000000" stroke-width="12.0" id="path_2"/><path fill="#cbc5cb" d="M70,405c33,-33 66,-66 99,-99 4,-4 4,-10 0,-14 -15,-15 -37,-25 -61,-23 -41,1 -75,35 -77,77 -1,24 8,45 24,61 4,4 10,4 14,-0zM442,405c-33,-33 -66,-66 -99,-99 -4,-4 -4,-10 -0,-14 15,-15 37,-25 61,-23 41,1 75,35 77,77 1,24 -8,45 -24,61 -4,4 -10,4 -14,-0z" stroke="#000000" stroke-width="12.0" id="path_3"/><path fill="#f89f8e" d="M257,329h-1c-15,0 -28,-12 -28,-28v-35h58v35c0,15 -12,28 -28,28z" stroke="#000000" stroke-width="12.0" id="path_4"/><path fill="#fdb0a0" d="M344,147v48c0,1 -0,2 -0,3 -2,47 -40,84 -88,84 -47,0 -86,-37 -88,-84 -0,-1 -0,-2 -0,-3v-48z" stroke="#000000" stroke-width="12.0" id="path_5"/><path fill="#5169cd" d="m333,29c0,-11 -9,-21 -21,-21h-31c-11,0 -21,9 -21,21v43h67v19c0,11 9,21 21,21h31c11,0 21,-9 21,-21v-32c0,-5 -4,-10 -10,-10h-37c-10,0 -19,-8 -19,-19z" stroke="#000000" stroke-width="12.0" id="path_6"/><path fill="#f2eff2" d="m358,171h-205v-29c0,-56 46,-102 102,-102 56,0 102,46 102,102v29z" stroke="#000000" stroke-width="12.0" id="path_7"/><path fill="#cbc5cb" d="m249,124c-26,23 -70,30 -89,32 -5,0 -9,5 -9,10v24c0,4 3,8 7,9l95,30c2,0 4,0 6,0l95,-30c4,-1 7,-5 7,-9v-24c0,-5 -4,-9 -9,-10 -19,-1 -63,-8 -89,-32 -4,-3 -10,-3 -13,0z" stroke="#000000" stroke-width="12.0" id="path_8"/><path fill="#000000" d="M188,168v10zM215,163v21zM242,158v31zM269,158v31zM298,163v21zM323,168v10z" stroke-linejoin="round" stroke="#000000" stroke-width="12.0" id="path_9"/></svg>