<svg id="vector" xmlns="http://www.w3.org/2000/svg" width="24.0d" height="24.0d" viewBox="0 0 512.0 512.0"><path fill="#fa9664" d="m359,396 l20,40h-60v-40z" stroke="#000000" stroke-width="12.0" id="path_0"/><path fill="#fabe50" d="M138,161 l-46,-39 -82,63v151l53,-46v-60l49,-33zM326,153 l82,-120h-85l-84,120z" stroke="#000000" stroke-width="12.0" id="path_1"/><path fill="#fad296" d="m502,10 l-42,11h-58l-79,115h-180l-39,40v80l42,56h229l48,-76 -0,-64 10,-51 16,6 19,32 34,-16 -16,-89z" stroke="#000000" stroke-width="12.0" id="path_2"/><path fill="#96786e" d="M10,437h492v40h-492zM169,396 l20,40h-60v-40zM189,136h140v120h-140z" stroke="#000000" stroke-width="12.0" id="path_3"/><path fill="#fa9664" d="M140,457c0,24 -20,45 -45,45s-45,-20 -45,-45c0,-24 20,-45 45,-45s45,20 45,45zM462,457c0,24 -20,45 -45,45s-45,-20 -45,-45c0,-24 20,-45 45,-45s45,20 45,45z" stroke="#000000" stroke-width="12.0" id="path_4"/><path fill="#fa9664" d="m229,216h60v40h-60z" stroke="#000000" stroke-width="12.0" id="path_5"/><path fill="#fad296" d="M320,296v100h39l20,-100zM130,296v100h39l20,-100z" stroke="#000000" stroke-width="12.0" id="path_6"/><path fill="#000000" d="m229,186h60c5,0 10,-4 10,-10 0,-5 -4,-10 -10,-10h-60c-5,0 -10,4 -10,10 0,5 4,10 10,10z" id="path_7"/><path fill="none" d="M95,457h0M417,457h0M364,154h0M149,186h0M458,66 h0" stroke-linecap="round" stroke="#000000" stroke-width="16.0" id="path_8"/></svg>