<svg id="vector" xmlns="http://www.w3.org/2000/svg" width="24.0d" height="24.0d" viewBox="0 0 512.0 512.0"><path fill="#a0a0a0" d="m504,422h-488l27,-173 42,-20 24,-105 69,-19 76,-51 121,61 52,108 53,44z" stroke="#000000" stroke-width="12.0" id="path_0"/><path fill="#5a5a5a" d="m343,422 l-20,-99 -57,-59 -79,57 -25,102z" stroke="#000000" stroke-width="12.0" id="path_1"/><path fill="#e0e0e0" d="M88,443 l-45,12 -35,-15 4,-46 30,-20 42,9 21,31zM394,449 l-17,10h-54l4,-24 35,-30 25,16zM104,449h49l16,-11 -19,-25 -26,-9 -27,17 -7,23z" stroke="#000000" stroke-width="12.0" id="path_2"/></svg>