<svg width="100" height="100" viewBox="0 0 100 100" fill="none" xmlns="http://www.w3.org/2000/svg">
<g clip-path="url(#clip0_8_44)">
<path d="M46.8333 0.242172C44.5475 0.406235 42.1681 0.820297 40.2879 1.37498C36.3482 2.53905 31.878 5.20311 27.6418 8.91405C24.6149 11.5703 21.1199 15.5312 18.9433 18.7812L18.5298 19.3984L18.5454 20.0312C18.5532 20.3828 18.522 20.8515 18.4752 21.0859C18.2333 22.3515 17.3284 23.3203 16.2986 23.4219L15.9397 23.4531L15.8071 23.0937C15.4248 22.0625 14.4418 21.5703 13.3964 21.8906C12.9518 22.0234 12.5149 22.4375 12.2418 22.9844C11.9376 23.5781 11.9298 23.9844 12.195 24.4609C12.2964 24.6484 12.5305 25.0859 12.7099 25.4297C13.4277 26.8047 14.3092 27.8437 15.2064 28.3515C15.4404 28.4844 15.7135 28.6797 15.8149 28.7812C15.9865 28.9609 15.9865 28.9687 15.8539 29.3672C15.6979 29.8437 15.7369 30.539 15.9319 30.9297C16.2518 31.539 16.9383 32.1172 18.1475 32.789L18.8964 33.1953L18.873 33.6172C18.834 34.5625 19.4503 35.4922 20.4567 35.9765C21.4787 36.4609 22.7113 36.6875 24.7475 36.7578L25.8865 36.8047L27.1894 37.6094C29.8184 39.2265 34.2262 41.5547 36.4028 42.4687C37.0738 42.75 37.1284 42.7969 37.1986 43.0547C37.2688 43.2969 37.2298 43.4453 36.9099 44.3047C36.5667 45.2187 36.5511 45.3203 36.5511 46.0547C36.5511 46.9375 36.7227 47.7344 37.3156 49.6094C38.0177 51.8203 38.2752 53.164 38.1816 54.1719C38.1191 54.8437 37.6042 56.8437 36.9255 59.0859C35.7787 62.875 34.3511 66.7344 32.7362 70.3672C32.0418 71.9531 31.9794 72.1953 32.2603 72.2969C32.5021 72.3906 32.7518 72.1015 33.7894 70.5312C35.4667 68 36.8865 65.4062 37.8617 63.0859C38.361 61.8828 38.4624 61.7187 38.4 62.1172C38.3844 62.2656 38.2596 63.2265 38.1347 64.25C37.7057 67.7031 37.2532 70.3203 36.8007 71.914C36.4574 73.1328 36.4496 73.25 36.6447 73.3515C36.8865 73.4844 37.0816 73.3437 37.222 72.9531C37.2844 72.7656 37.8383 71.1562 38.4468 69.375C39.9291 65.0625 39.7808 65.3594 39.734 66.7578C39.695 68.0547 39.5546 69.0859 39.266 70.289C39.1645 70.7344 39.0943 71.1406 39.1177 71.2109C39.1489 71.2734 39.2581 71.3515 39.3674 71.3828C39.6248 71.4453 39.7496 71.289 40.2957 70.1953C40.9199 68.9531 41.5986 67.125 41.7702 66.2109C41.7936 66.0547 41.8326 65.9453 41.8482 65.9609C41.8716 65.9765 41.9574 66.9297 42.0433 68.0781L42.1993 70.1562L41.3801 73.0312C39.9915 77.8828 38.361 83.0469 36.7851 87.5781C36.2702 89.0625 35.8333 90.375 35.8177 90.5078C35.7475 91 37.2298 92.9062 38.2596 93.6406C39.0241 94.1875 39.5078 94.3437 40.9511 94.5312C42.3553 94.7109 42.995 94.8515 43.4709 95.0937C43.939 95.3359 44.6099 95.875 45.0312 96.3672C45.8816 97.3594 46.6773 97.6172 49.6808 97.8515C52.4738 98.0703 53.3631 98.3047 54.5567 99.1172C55.3681 99.6797 55.7581 99.7969 56.7411 99.7969C57.7787 99.7969 58.2 99.6719 60.0957 98.7734C62.0929 97.8281 62.9511 97.5547 65.1901 97.1719C66.0092 97.0312 66.4773 97 67.9362 97C69.9801 97 70.4014 97.0703 72.1489 97.7187C74.0837 98.4375 76.3383 98.8281 79.9113 99.0547C81.0894 99.1328 81.2766 99.1015 81.2766 98.789C81.2766 98.5859 81.2688 98.5781 80.3248 98.0469C79.0064 97.3047 77.2433 95.7812 76.1042 94.3906C74.934 92.9531 73.6936 90.7344 73.1709 89.1484C72.6326 87.5156 72.4142 86.3906 71.9929 83.0078C71.3376 77.7187 70.7993 76.0469 68.8723 73.3203C67.8816 71.914 66.0638 69.2422 66.0638 69.1875C66.0638 69.1719 66.2667 69.3437 66.5163 69.5859C69.0908 72.0703 72.5702 73.7344 76.7908 74.4844C78.0702 74.7187 79.8411 74.9297 79.9972 74.8672C80.161 74.8047 80.2234 74.4609 80.0986 74.3359C80.0362 74.2812 79.6617 74.1484 79.2638 74.0312C76.8766 73.3594 74.2865 72.0234 72.5078 70.5469C72.1099 70.2187 71.9383 70.0312 71.9851 69.9687C72.1411 69.7734 72.2347 69.2187 72.1567 68.9297C72.1099 68.7734 72.0865 68.6328 72.0943 68.625C72.1021 68.6094 72.5624 68.8281 73.1163 69.1015C75.8858 70.4922 79.1546 71.0078 81.8773 70.4765C83.9993 70.0625 86.5191 68.8515 88.3291 67.3672C88.9688 66.8515 89.0468 66.7109 88.8596 66.4844L88.7113 66.2969L87.5099 66.664C84.1787 67.664 81.3156 68.1484 79.8099 67.9687C77.805 67.7187 76.3305 66.9531 74.7 65.2969C74.1851 64.789 73.7872 64.3437 73.8106 64.3281C73.834 64.3047 74.0603 64.4453 74.3177 64.6328C75.3241 65.375 76.9546 66.0781 78.273 66.3359C79.0844 66.5 81.144 66.4765 81.9631 66.3047C83.7106 65.9297 85.6142 65.2578 86.7298 64.6328C87.4709 64.2109 88.3681 63.4219 88.6411 62.9375C89.039 62.25 89.0858 61.5312 88.7347 61.4375C88.6021 61.4062 88.3759 61.5156 87.8532 61.8672C87.073 62.3984 86.1525 62.7969 85.2163 63.0156C84.3737 63.2187 82.5872 63.2187 81.6901 63.0234C79.6539 62.5859 77.8518 61.6562 76.5879 60.3984C76.0652 59.875 75.3475 58.9219 75.3475 58.7422C75.3475 58.7109 75.5503 58.75 75.8 58.8359C76.0418 58.9219 77.2276 59.2344 78.4369 59.5312C81.0191 60.1797 82.7823 60.7109 84.2801 61.3047C84.8808 61.539 85.4737 61.7422 85.5986 61.75C85.8716 61.7578 86.0354 61.5547 85.9106 61.3437C85.7234 61.0547 83.3362 59.375 80.8553 57.8125C77.6645 55.7969 77.8206 55.9219 79.3106 56.5937C81.2922 57.4922 83.3908 58.1406 85.1773 58.3984C85.8326 58.5 86.4255 58.5234 87.3851 58.5C88.6645 58.4765 88.7113 58.4687 88.8518 58.289C89.1326 57.9453 88.9454 57.8281 87.5021 57.4531C83.4688 56.4062 80.1142 54.9297 78.0156 53.2578C77.7425 53.0469 76.9312 52.2344 76.2135 51.4531C74.1851 49.2734 72.5702 47.914 71.0489 47.1094C69.7773 46.4453 69.1688 46.2578 66.7894 45.7812C65.7284 45.5703 65.6581 45.5469 65.0886 45.1484C64.3397 44.6328 63.4738 43.789 63.0135 43.125C62.8184 42.8437 62.4518 42.2265 62.2021 41.7578C61.1957 39.8515 60.1816 38.3515 59.1518 37.2656L58.4808 36.5625L58.4028 35.9687C58.3092 35.289 58.3716 34.9922 58.8865 33.5937C59.2844 32.4922 59.456 31.6797 59.417 31.0234C59.3936 30.5469 59.3468 30.4297 58.9489 29.7578C58.7071 29.3515 58.317 28.5312 58.083 27.9297C57.8489 27.3281 57.5213 26.4844 57.3574 26.0547C57.1936 25.625 56.8269 24.8125 56.5461 24.2578C56.078 23.3203 56.0156 23.2265 55.6801 23.0469C55.4851 22.9375 55.1262 22.7031 54.8922 22.5234C54.2525 22.0234 53.9872 21.9375 52.8014 21.8672C51.873 21.8125 51.6234 21.7656 50.734 21.4765C49.4702 21.0703 48.7993 21.0234 48.4794 21.3203C48.3702 21.4297 48.2766 21.5469 48.2766 21.5937C48.2766 21.6406 48.0269 21.9922 47.7149 22.3828C46.7475 23.6172 46.0688 24.6953 45.8191 25.3906C45.7645 25.5469 45.4837 26.2031 45.2028 26.8437C44.095 29.375 43.9546 30.9844 44.6489 33.1953L44.844 33.7969L43.6894 34.9687C43.0496 35.6094 42.1525 36.6015 41.6844 37.1719C41.0915 37.9062 40.7404 38.2656 40.522 38.375C40.3425 38.4609 40.1397 38.5859 40.0695 38.6484C39.9525 38.75 39.8355 38.75 39.0553 38.625C38.5716 38.5469 38.0021 38.4844 37.7837 38.4844C37.3234 38.4922 36.6759 38.75 36.4574 39.0234L36.2936 39.2187L34.5461 38.3359C32.4943 37.2969 31.3475 36.664 29.1709 35.3672C27.5794 34.414 27.4468 34.3125 26.9241 33.6875C26.6042 33.3047 26.2298 33.0937 25.7617 33.0156C25.3326 32.9375 24.4355 32.289 24.1234 31.8281C23.8425 31.4062 23.3355 31.0312 22.6567 30.7344L22.1652 30.5234L22.2355 30.2422C22.4305 29.539 22.1106 28.6484 21.4085 27.9219C21.1823 27.6875 21.0184 27.4844 21.0418 27.4687C21.3539 27.2734 22.1262 27.375 22.8752 27.7109C23.1872 27.8515 23.3667 27.8984 23.4447 27.8437C23.5071 27.8047 23.7255 27.3125 23.9284 26.7578C25.2312 23.2031 27.322 19.3984 29.5844 16.4844C31.566 13.9219 34.0702 11.4922 36.5433 9.71873C42.839 5.22655 52.4269 2.78123 62.9433 2.99998C64.2539 3.02342 65.6738 3.07811 66.095 3.12498C66.9376 3.21092 67.078 3.17186 67.078 2.85155C67.078 2.60155 66.9766 2.53905 66.0638 2.28123C63.7312 1.60155 62.3816 1.31248 61.1879 1.23436C60.5482 1.1953 59.3702 1.06248 58.5745 0.937485C54.1901 0.242172 50.1801 0.00779724 46.8333 0.242172Z" fill="black"/>
</g>
<g clip-path="url(#clip1_8_44)">
<path d="M47.2992 30.216C46.6647 29.6142 46.2212 28.5699 46.1597 27.4422C46.0929 26.1994 46.7637 24.9654 47.769 24.2619C48.8953 23.4885 50.7785 23.2746 51.9495 23.3324C52.7427 23.3329 54.5094 23.7341 55.1331 24.1872C56.2271 24.9632 56.8137 26.0646 56.8544 27.32C56.9145 28.5809 56.3701 29.5414 55.7035 30.1408" fill="white"/>
<path d="M47.2992 30.216C46.6647 29.6142 46.2212 28.5699 46.1597 27.4422C46.0929 26.1994 46.7637 24.9654 47.769 24.2619C48.8953 23.4885 50.7785 23.2746 51.9495 23.3324C52.7427 23.3329 54.5094 23.7341 55.1331 24.1872C56.2271 24.9632 56.8137 26.0646 56.8544 27.32C56.9145 28.5809 56.3701 29.5414 55.7035 30.1408" stroke="black" stroke-miterlimit="5"/>
<path d="M47.3622 30.0038C47.3622 30.0038 46.5953 32.269 48.0731 32.6552L48.6119 35.6848C49.1806 38.0694 53.7313 38.071 54.4011 35.6848L54.9399 32.6552C56.4552 32.2606 55.6859 30.0028 55.6859 30.0028L47.3622 30.0038Z" fill="white"/>
<path d="M47.3377 26.6807C47.0807 26.9001 47.1131 27.2298 47.1594 27.722C47.196 28.0959 47.4405 28.464 47.4534 28.8056C47.5433 29.5265 47.3249 30.2473 47.2221 30.8365C47.1514 31.5135 47.3506 32.0964 47.6076 32.3221C47.8646 32.5446 48.1963 32.6368 48.5449 32.7405C48.8616 32.8213 49.0258 32.9618 49.2653 33.136C49.5507 33.4316 49.6187 33.676 49.6123 33.9769" stroke="black"/>
<path d="M55.7065 26.6619C55.9636 26.8813 55.9311 27.211 55.8848 27.7032C55.8483 28.0771 55.6037 28.4452 55.5909 28.7868C55.5009 29.5077 55.7194 30.2285 55.8222 30.8177C55.8929 31.4947 55.6937 32.0776 55.4367 32.3033C55.1797 32.5258 54.7093 32.6453 54.4994 32.7217C54.2548 32.8052 54.0047 32.9565 53.7789 33.1307C53.5074 33.3859 53.4255 33.6572 53.432 33.9581" stroke="black"/>
<path d="M48.0725 32.6549C48.3025 33.198 48.5464 33.7276 48.5694 34.2842C48.4636 34.733 48.4958 35.2626 48.6108 35.6846C48.758 36.2636 49.3331 36.9503 49.9083 37.1792C50.4972 37.3879 50.8653 37.4418 51.5232 37.4418" stroke="black"/>
<path d="M54.9393 32.6549C54.7093 33.198 54.4655 33.7276 54.4424 34.2842C54.5483 34.733 54.5161 35.2626 54.401 35.6846C54.2538 36.2636 53.6718 36.9301 53.0966 37.159C52.5215 37.3879 52.1535 37.4418 51.4956 37.4418" stroke="black"/>
<path d="M51.3906 30.9972C51.0691 31.2357 50.9976 31.3157 50.82 31.5797C50.7557 31.6815 50.6356 31.9196 50.6028 32.0793C50.57 32.2389 50.5454 32.4706 50.5455 32.5933C50.5459 33.009 50.6816 33.2698 50.8297 33.2607C50.9621 33.2459 51.1305 33.1113 51.3857 32.8054" fill="black"/>
<path d="M51.3906 30.9972C51.0691 31.2357 50.9976 31.3157 50.82 31.5797C50.7557 31.6815 50.6356 31.9196 50.6028 32.0793C50.57 32.2389 50.5454 32.4706 50.5455 32.5933C50.5459 33.009 50.6816 33.2698 50.8297 33.2607C50.9621 33.2459 51.1305 33.1113 51.3857 32.8054" stroke="black"/>
<path d="M51.6221 31.0039C51.9436 31.2424 52.0151 31.3225 52.1928 31.5864C52.2571 31.6882 52.3771 31.9263 52.41 32.086C52.4428 32.2456 52.4673 32.4773 52.4672 32.6C52.4668 33.0158 52.3312 33.2766 52.183 33.2675C52.0507 33.2527 51.8822 33.118 51.627 32.8122" fill="black"/>
<path d="M51.6221 31.0039C51.9436 31.2424 52.0151 31.3225 52.1928 31.5864C52.2571 31.6882 52.3771 31.9263 52.41 32.086C52.4428 32.2456 52.4673 32.4773 52.4672 32.6C52.4668 33.0158 52.3312 33.2766 52.183 33.2675C52.0507 33.2527 51.8822 33.118 51.627 32.8122" stroke="black"/>
<path d="M48.6579 29.1809C49.1042 29.1046 49.5366 29.0552 49.9829 29.0059C50.5673 28.8622 50.8617 29.5131 50.7007 30.0023C50.4983 30.4377 50.213 30.8192 49.8863 31.1873C49.6333 31.4655 49.3318 31.5106 49.0444 31.4161C48.8123 31.3534 48.598 31.2142 48.368 30.891C48.2668 30.6127 48.1794 30.4691 48.0505 30.1235C47.9494 29.8048 48.1067 29.3277 48.6579 29.1809Z" fill="black" stroke="black"/>
<path d="M54.3636 29.1809C53.9173 29.1046 53.4848 29.0552 53.0386 29.0059C52.4542 28.8622 52.1598 29.5131 52.3208 30.0023C52.5232 30.4377 52.8085 30.8192 53.1351 31.1873C53.3882 31.4655 53.6897 31.5106 53.9771 31.4161C54.2092 31.3534 54.4235 31.2142 54.6535 30.891C54.7547 30.6127 54.8421 30.4691 54.9709 30.1235C55.0721 29.8048 54.9147 29.3277 54.3636 29.1809Z" fill="black" stroke="black"/>
<path d="M48.6498 32.8997C48.8384 33.3314 48.8968 33.4954 49.0328 33.9257C49.1488 34.3232 49.1914 34.566 49.263 35.1309" stroke="black"/>
<path d="M54.3479 32.8759C54.1593 33.3076 54.1009 33.4716 53.9649 33.9019C53.849 34.2994 53.8063 34.5422 53.7347 35.1071" stroke="black"/>
<path d="M49.455 33.909C49.943 34.201 50.7866 34.2461 51.5424 34.2328C52.3844 34.2286 53.1052 34.1693 53.5785 33.89" stroke="black"/>
<path d="M49.6257 34.6708C50.1641 35.0009 50.7973 35.1142 51.5265 35.0874C52.2839 35.0694 52.8644 35.0072 53.3833 34.6613" stroke="black"/>
<path d="M49.2354 35.0707C49.8112 35.7483 50.6149 35.8659 51.5289 35.8895C52.5077 35.9244 53.4907 35.5452 53.7444 35.0707" stroke="black"/>
<path d="M49.6183 34.0554L49.6046 35.3884Z" fill="black"/>
<path d="M49.6183 34.0554L49.6046 35.3884" stroke="black"/>
<path d="M50.0669 34.1968L50.06 35.6241Z" fill="black"/>
<path d="M50.0669 34.1968L50.06 35.6241" stroke="black"/>
<g opacity="0.1">
<path d="M50.5638 34.2573L50.55 35.752Z" fill="black"/>
<path d="M50.5638 34.2573L50.55 35.752" stroke="black"/>
</g>
<path d="M51.0124 34.291L51.0055 35.8059Z" fill="black"/>
<path d="M51.0124 34.291L51.0055 35.8059" stroke="black"/>
<path d="M51.5162 34.3045V35.8193Z" fill="black"/>
<path d="M51.5162 34.3045V35.8193" stroke="black"/>
<path d="M51.9993 34.2977L52.0062 35.8126Z" fill="black"/>
<path d="M51.9993 34.2977L52.0062 35.8126" stroke="black"/>
<path d="M52.4341 34.2573L52.4479 35.7453Z" fill="black"/>
<path d="M52.4341 34.2573L52.4479 35.7453" stroke="black"/>
<path d="M52.9379 34.1766L52.9448 35.6039Z" fill="black"/>
<path d="M52.9379 34.1766L52.9448 35.6039" stroke="black"/>
<path d="M53.3934 34.0015L53.4072 35.348Z" fill="black"/>
<path d="M53.3934 34.0015L53.4072 35.348" stroke="black"/>
<path d="M49.6092 34.6674C50.8032 35.1644 52.0514 35.2378 53.3822 34.6674" stroke="black"/>
<path d="M53.5315 34.5871V34.0179L53.5923 33.9908C53.6433 33.9682 53.6553 33.9404 53.6666 33.8195C53.6851 33.6207 53.7614 33.4668 53.9164 33.3155C53.9887 33.245 54.052 33.1913 54.0571 33.1962C54.0621 33.2012 54.0203 33.3348 53.9642 33.4931C53.8144 33.9159 53.7416 34.207 53.6702 34.67C53.6307 34.9255 53.5921 35.0971 53.5689 35.1198C53.5361 35.1519 53.5315 35.0861 53.5315 34.5871Z" fill="black"/>
<path d="M49.4634 35.396C49.4172 35.3561 49.3577 35.1608 49.2962 34.8473C49.1746 34.2272 48.8933 33.4413 48.6011 32.9054C48.4793 32.682 49.1158 33.1407 49.2666 33.385C49.3264 33.4818 49.3884 33.6444 49.4044 33.7464C49.4237 33.8686 49.4622 33.949 49.5175 33.982C49.5968 34.0294 49.5995 34.0701 49.5682 34.7451C49.5376 35.4059 49.5299 35.4536 49.4634 35.396Z" fill="black"/>
<path d="M53.4426 34.7402C53.3438 34.0574 53.3457 33.9968 53.468 33.9252C53.549 33.8779 53.633 33.7351 53.685 33.5565C53.748 33.34 53.8319 33.2132 54.0117 33.0626C54.2358 32.8751 54.4485 32.7382 54.4932 32.7528C54.5035 32.7562 54.4064 32.9828 54.2773 33.2563C53.9855 33.8747 53.9213 34.0657 53.7713 34.7616C53.7055 35.0668 53.6287 35.3529 53.6005 35.3973C53.5709 35.4442 53.5047 35.1687 53.4426 34.7402Z" fill="black"/>
<path d="M51.3758 31.0072L51.4938 30.9285L51.6521 31.024L51.6492 32.1615L51.3614 32.1587L51.3758 31.0072Z" stroke="black"/>
<path d="M51.4738 32.1423L51.3892 32.1416L51.3905 31.5834L51.3918 31.0252L51.4031 31.0139C51.4127 31.0045 51.4905 30.9508 51.4946 30.9508C51.4983 30.9508 51.6055 31.0172 51.6124 31.0238L51.6204 31.0313L51.6223 31.5879L51.6241 32.1445L51.5913 32.1438C51.5732 32.1434 51.5203 32.1428 51.4738 32.1423Z" fill="black"/>
<path d="M51.3767 32.8325C51.3737 32.8298 51.3733 32.6272 51.3748 31.9231L51.3768 31.0171L51.3915 31.0001C51.411 30.9774 51.4688 30.919 51.4811 30.9095C51.4909 30.902 51.491 30.9021 51.5207 30.9275C51.5665 30.9667 51.6285 31.0263 51.6298 31.0324C51.6304 31.0354 51.6317 31.4424 51.6326 31.937L51.6343 32.8361L51.5287 32.769C51.459 32.7689 51.3789 32.8344 51.3767 32.8325Z" fill="black"/>
</g>
<defs>
<clipPath id="clip0_8_44">
<rect width="77" height="100" fill="white" transform="translate(12)"/>
</clipPath>
<clipPath id="clip1_8_44">
<rect width="17" height="16" fill="white" transform="translate(43 23)"/>
</clipPath>
</defs>
</svg>
