<svg width="100" height="100" viewBox="0 0 100 100" fill="none" xmlns="http://www.w3.org/2000/svg">
<g clip-path="url(#clip0_8_44)">
<path d="M90.6878 12.3333L87.8347 15.3333L79.597 20C79.5123 20 79.3892 19.9224 79.2892 19.8045L79.2353 19.7641L79.1661 19.7083C79.1052 19.6589 79.0523 19.6037 79.0083 19.5438C78.8159 19.4507 78.6736 19.3141 78.689 19.2334L85.1085 11L87.1214 10L87.8347 10.283C88.0598 10.7264 85.5336 12.2142 85.3382 12.6667L80.1703 18.1534L85.3382 13.3333C85.3382 13.3333 88.6004 10.6039 88.9046 10.6667L89.2613 11L86.7648 13.6667L81.0586 18.3333L86.0515 15.3333L90.3312 12L90.6878 12.3333Z" fill="#09A481"/>
<path d="M10.6078 88.87C10.5222 88.8308 10.4443 88.7766 10.3778 88.71C5.42782 84.33 50.3778 23.26 71.3778 17.08C77.5978 15.25 81.9878 18.16 81.5278 23.69C81.4843 24.2638 81.3906 24.8326 81.2478 25.39C76.5978 45.05 17.0078 91.83 10.6078 88.87Z" fill="#F27D3B"/>
<g opacity="0.5">
<path d="M10.6078 88.87L21.8178 81.76L16.9578 75.53L22.8378 80L33.8378 72.06L26.2278 63.34L34.5278 70L37.6078 67.85L33.7678 64L40.1778 66.28L51.4978 56.71L45.1078 47.3L52.9978 53.82L61.1678 46.32L52.5178 35.76L62.7578 44.08L70.2378 37.26L66.1778 31.83L71.5178 35L76.8478 26L71.7578 20.37L80.2178 22.64L81.5478 23.64C81.5043 24.2137 81.4106 24.7826 81.2678 25.34C76.5978 45.05 17.0078 91.83 10.6078 88.87Z" fill="#AC5D2A"/>
</g>
</g>
<defs>
<clipPath id="clip0_8_44">
<rect width="100" height="100" fill="white"/>
</clipPath>
</defs>
</svg>
