<svg id="vector" xmlns="http://www.w3.org/2000/svg" width="24.0d" height="24.0d" viewBox="0 0 494.0 494.0"><path fill="#eec57b" d="m297,121c0,-23 0,-40 0,-40 10,-35 49,-44 49,-44v-29h-99,-99v29s39,9 49,44v40s-117,69 -117,180c0,88 56,153 80,176 6,6 14,9 22,9h130c8,0 16,-3 22,-9 23,-23 80,-88 80,-176 0,-111 -117,-157 -117,-180z" stroke="#000000" stroke-width="12.0" id="path_0"/><path fill="#cf6346" d="m404,247c-4,-0 -9,-1 -16,-1 -34,0 -34,20 -68,20 -34,0 -34,-20 -68,-20 -34,0 -34,20 -68,20 -34,0 -34,-20 -68,-20 -11,0 -19,1 -25,3 -5,15 -9,32 -9,52 0,22 3,43 9,63 6,2 13,3 25,3 34,0 34,-20 68,-20 34,0 34,20 68,20 34,0 34,-20 68,-20 34,0 34,20 68,20 6,0 11,-0 15,-1 6,-19 10,-41 10,-65 0,-20 -4,-38 -10,-54z" stroke-linejoin="round" stroke="#000000" stroke-width="12.0" id="path_1"/><path fill="#ffffff" d="M247,307m-30,0a30,30 0,1 1,60 0a30,30 0,1 1,-60 0M127,307c0,-16 -13,-30 -30,-30 -6,0 -11,1 -16,5 -0,6 -1,12 -1,19 0,10 0,21 2,31 4,2 9,4 15,4 16,0 30,-13 30,-30zM367,307c0,-16 13,-30 30,-30 6,0 11,1 16,5 0,6 1,12 1,19 0,10 -0,21 -2,31 -4,2 -9,4 -15,4 -16,0 -30,-13 -30,-30z" stroke="#000000" stroke-width="12.0" id="path_2"/></svg>