<svg id="vector" xmlns="http://www.w3.org/2000/svg" width="24.0d" height="24.0d" viewBox="0 0 512.0 512.0"><path fill="#ad6643" d="M288,112H240a32,32 0,0 0,-32 32h0v16H320V144h0A32,32 0,0 0,288 112Z" stroke="#000000" stroke-width="12.0" id="path_0"/><path fill="#734b39" d="M144,336H88A32,32 0,0 1,57 312L24,192H56ZM424,208H376v48a16,16 0,0 1,16 -16h32a32,32 0,0 1,32 32h0a32,32 0,0 1,-32 32H392a16,16 0,0 1,-16 -16v48h48a64,64 0,0 0,64 -64h0A64,64 0,0 0,424 208ZM96,384H432a0,0 0,0 1,0 0v16a16,16 0,0 1,-16 16H112a16,16 0,0 1,-16 -16V384a0,0 0,0 1,0 0Z" stroke="#000000" stroke-width="12.0" id="path_1"/><path fill="#ad6643" d="M432,384H96V328A168,168 0,0 1,264 160h0A168,168 0,0 1,432 328Z" stroke="#000000" stroke-width="12.0" id="path_2"/><path fill="#734b39" d="M216,144h96a48,48 0,0 1,48 48v0a0,0 0,0 1,0 0H168a0,0 0,0 1,0 0v0A48,48 0,0 1,216 144ZM264,96m-16,0a16,16 0,1 1,32 0a16,16 0,1 1,-32 0" stroke="#000000" stroke-width="12.0" id="path_3"/><path fill="#e09f2c" d="M240,320H192v48a16,16 0,0 1,16 -16h32a16,16 0,0 1,0 32H208a16,16 0,0 1,-16 -16v48h48a48,48 0,0 0,48 -48h0A48,48 0,0 0,240 320Z" stroke="#000000" stroke-width="12.0" id="path_4"/><path fill="#f7b030" d="M145,432H110A80,80 0,0 1,31 361L24,304H232l-7,57A80,80 0,0 1,145 432Z" stroke="#000000" stroke-width="12.0" id="path_5"/></svg>