<svg id="vector" xmlns="http://www.w3.org/2000/svg" width="24.0d" height="24.0d" viewBox="0 0 512.0 512.0"><path fill="#f5d996" d="m270,280 l92,-92 48,48 30,-30 -19,-19 30,-30 19,19 30,-30 -48,-48 33,-33c3,-3 3,-9 0,-13l-30,-30c-3,-3 -9,-3 -13,0l-217,217z" stroke="#000000" stroke-width="16.0" id="path_0"/><path fill="#f5d996" d="m150,215c-77,0 -140,62 -140,140s62,140 140,140 140,-62 140,-140 -62,-140 -140,-140zM150,445c-49,0 -89,-40 -89,-89 0,-49 40,-89 89,-89 49,0 89,40 89,89s-40,89 -89,89z" stroke="#000000" stroke-width="16.0" id="path_1"/></svg>