<svg id="vector" xmlns="http://www.w3.org/2000/svg" width="24.0d" height="24.0d" viewBox="0 0 512.0 512.0"><path fill="#ffe07d" d="m222,460 l-101,-130 26,-87c3,-10 11,-19 22,-21 56,-14 115,-14 172,0 10,2 19,11 22,21l26,87 -101,130c-17,22 -50,22 -67,0z" stroke="#000000" stroke-width="12.0" id="path_0"/><path fill="#ffd064" d="m255,446c-2,0 -6,-0 -10,-4l-91,-117 21,-72c0,-0 0,-1 1,-1 25,-6 52,-9 78,-9s52,3 78,9c0,0 1,0 1,1l21,72 -91,117c-3,4 -7,4 -10,4z" stroke="#000000" stroke-width="12.0" id="path_1"/><path fill="#c19d8e" d="m220,329c-86,-30 -133,-122 -110,-210 40,6 81,-17 96,-57 2,-8 -1,-17 -9,-20s-17,1 -20,9c-10,29 -42,44 -71,33 -17,-6 -30,-20 -35,-37 -2,-8 -11,-13 -19,-11 -8,2 -13,11 -11,19 6,22 21,41 41,52 -10,38 -9,78 1,114 -20,-5 -37,-22 -41,-44 -1,-8 -9,-14 -18,-13s-14,9 -13,18c3,22 16,42 34,56 7,5 14,9 22,12 9,3 19,5 28,5 8,17 20,34 33,48 -21,9 -46,4 -63,-13 -6,-6 -16,-6 -22,-0 -6,6 -6,16 -0,22 9,10 21,18 34,23 8,2 16,4 25,5 18,0 36,-4 51,-13 16,12 35,23 56,31 8,2 17,-1 20,-9 2,-8 -1,-17 -9,-20z" stroke="#000000" stroke-width="12.0" id="path_2"/><path fill="#c19d8e" d="m504,184c-3,22 -16,42 -34,56 -7,5 -14,9 -22,12 -9,3 -19,5 -28,5 -8,17 -20,34 -33,48 21,9 46,4 63,-13 6,-6 16,-6 22,-0 6,6 6,16 0,22 -9,10 -21,18 -34,23 -8,2 -16,4 -25,5 -18,0 -36,-4 -51,-13 -16,12 -35,23 -56,31 -8,2 -17,-1 -20,-9 -0,-0 -0,-1 -0,-2 -1,-7 2,-15 10,-18 86,-30 133,-122 110,-210 -40,6 -81,-17 -96,-57 -2,-8 1,-17 9,-20s17,1 20,9c10,29 42,44 71,33 0,-0 1,-0 1,-0 16,-6 28,-20 33,-37 2,-8 11,-13 19,-11 8,2 13,11 11,19 -6,22 -21,41 -41,52 10,38 9,78 -1,114 20,-5 37,-22 41,-44 1,-8 9,-14 18,-13 8,1 14,9 13,18z" stroke="#000000" stroke-width="12.0" id="path_3"/></svg>