<svg id="vector" xmlns="http://www.w3.org/2000/svg" width="24.0d" height="24.0d" viewBox="0 0 512.0 512.0"><path fill="#95adc0" d="M40,120h32v48h-32zM40,232h32v48h-32zM40,344h32v48h-32zM120,439.9h48v32h-48zM232,439.9h48v32h-48zM344,439.9h48v32h-48zM439.9,344h32v48h-32zM439.9,232h32v48h-32zM439.9,120h32v48h-32zM344,40h48v32h-48zM232,40h48v32h-48zM120,40h48v32h-48z" stroke="#000000" stroke-width="12.0" id="path_0"/><path fill="#d9eef7" d="M440,392v48h-48h-48h-64h-48h-64h-48H72v-48v-48v-64v-48v-64v-48V72h48h48h64h48h64h48h48v48v48v64v48v64V392H440zM400,400v-288h-288v288H400z" stroke="#000000" stroke-width="12.0" id="path_1"/><path fill="#31e8bb" d="M112,112h288v288h-288z" stroke="#000000" stroke-width="12.0" id="path_2"/><path fill="#ffe451" d="M152,151.9h208v48h-208z" stroke="#000000" stroke-width="12.0" id="path_3"/><path fill="#ffffff" d="M144,232.4h223.9v15h-223.9z" id="path_4"/><path fill="#231f20" d="M144,272.5h16v15h-16z" id="path_5"/><path fill="#ffffff" d="M176,272.5h16v15h-16z" id="path_6"/><path fill="#231f20" d="M352,272.5h16v15h-16z" id="path_7"/><path fill="#231f20" d="M184,352.4l-24.5,0l0,-24.4l-15,0l0,39.5l39.5,0z" id="path_8"/><path fill="#ffffff" d="M328.4,368l15,0l0,-24.4l24.4,0l0,-15l-39.5,0z" id="path_9"/></svg>