<svg id="vector" xmlns="http://www.w3.org/2000/svg" width="24.0d" height="24.0d" viewBox="0 0 512.0 512.0"><path fill="#cca75e" d="M392,451l-3,15h-44c-2,0 -4,-2 -4,-4l2,-25l12,-128l50,-6l-25,128l12,9z" stroke="#000000" stroke-width="12.0" id="path_0"/><path fill="#cca75e" d="M261,470H225c-1,0 -3,-0 -3,-2l-13,-24l-19,-34l-10,-35l-9,-38l73,-13l-15,73l12,37c0,0 0,0 0,0c0,1 1,1 2,2l18,9c1,0 1,1 2,2l4,16C265,467 263,470 261,470z" stroke="#000000" stroke-width="12.0" id="path_1"/><path fill="#f2e5cb" d="M261,470H225c-1,0 -3,-0 -3,-2l-13,-24l31,-9l18,9c1,0 1,1 2,2l4,16C265,467 263,470 261,470z" stroke="#000000" stroke-width="12.0" id="path_2"/><path fill="#f2e5cb" d="M396,451l-3,15c-0,2 -2,3 -4,3h-44c-2,0 -4,-2 -4,-4l2,-25l37,-5l12,9C395,448 396,450 396,451z" stroke="#000000" stroke-width="12.0" id="path_3"/><path fill="#cca75e" d="M147,280h-26c-62,0 -112,-50 -112,-112S58,54 120,54h90c6,0 11,5 11,11c0,6 -5,11 -11,11h-90c-49,0 -89,40 -89,89c0,49 40,89 89,89h26c6,0 11,5 11,11S153,280 147,280z" stroke="#000000" stroke-width="12.0" id="path_4"/><path fill="#fbd476" d="M504,103v21c0,17 -13,30 -30,30h-16l-12,111c-1,9 -1,19 0,28l3,22l16,111c0,0 0,0 0,0c0,1 1,1 1,2l20,12c1,0 2,2 2,3l-2,18c0,2 -2,4 -4,4h-44c-2,0 -3,-1 -4,-3l-6,-26c0,0 -14,-54 -24,-102c-73,13 -115,-4 -115,-4s-79,9 -81,11l-24,32c-10,13 -26,21 -43,21h-24c-2,0 -4,2 -4,4v34l9,7c0,0 1,1 1,2l3,14c0,2 -1,5 -4,5H86c-2,0 -4,-2 -4,-4v-90c0,-1 1,-3 2,-3l29,-13c1,-0 2,-2 2,-3v-57c0,-34 25,-63 60,-68l134,-17c19,-2 36,-15 43,-34l39,-105l49,-3c12,-1 24,4 31,15c2,3 4,6 4,6z" stroke="#000000" stroke-width="12.0" id="path_5"/><path fill="#f2e5cb" d="M121,470H86v-24l26,-3l9,7l3,14C125,467 123,470 121,470z" stroke="#000000" stroke-width="12.0" id="path_6"/><path fill="#f2e5cb" d="M444,295l3,22c-16,5 -35,12 -46,20c-73,13 -115,-4 -115,-4s-79,9 -81,11l31,-26c0,0 62,-11 95,-9c16,1 34,0 49,0c16,-0 30,-12 33,-27c7,-34 20,-94 22,-117c0,0 8,-8 19,-8l-12,111z" stroke="#000000" stroke-width="12.0" id="path_7"/><path fill="#f2e5cb" d="M432,467l-6,-26l37,-11c0,1 1,1 1,2l20,12c1,0 2,2 2,3l-2,18h-44C434,470 432,468 432,466" stroke="#000000" stroke-width="12.0" id="path_8"/><path fill="#cca75e" d="M420,47l4,20c2,13 -7,26 -22,31l-5,1c-5,1 -10,-2 -9,-6l3,-28C392,44 416,35 420,47z" stroke="#000000" stroke-width="12.0" id="path_9"/><path fill="none" d="M454,94h0M394,151h0M417,191h0M365,206h0M314,239h0M240,247h0M203,288h0M149,308h0M394,247h0M365,284h0M289,284h0" stroke-linecap="round" stroke="#000000" stroke-width="12.0" id="path_10"/></svg>