<svg id="vector" xmlns="http://www.w3.org/2000/svg" width="24.0d" height="24.0d" viewBox="0 0 512.0 512.0"><path fill="#935b45" d="m194,498 l-181,-181l306,-306l181,181l-280,280z" stroke-linejoin="round" stroke="#000000" stroke-width="12.0" id="path_0"/><path fill="#b2785b" d="M311,60 l49,49l-52,52l-49,-49l52,-52z M401,150 l49,49l-52,52l-49,-49l52,-52z" stroke-linejoin="round" stroke="#000000" stroke-width="12.0" id="path_1"/><path fill="#b2785b" d="M219,153 l49,49l-52,52l-49,-49l52,-52z M308,242 l49,49l-52,52l-49,-49l52,-52z" stroke-linejoin="round" stroke="#000000" stroke-width="12.0" id="path_2"/><path fill="#b2785b" d="M126,245 l49,49l-52,52l-49,-49l52,-52z M216,335 l49,49l-52,52l-49,-49l52,-52z" stroke-linejoin="round" stroke="#000000" stroke-width="12.0" id="path_3"/></svg>