<svg id="vector" xmlns="http://www.w3.org/2000/svg" width="24.0d" height="24.0d" viewBox="0 0 512.0 512.0"><path fill="#79e59b" d="M445,40m-30,0a30,30 0,1 1,60 0a30,30 0,1 1,-60 0" stroke="#000000" stroke-width="12.0" id="path_0"/><path fill="#79e59b" d="M415,152h0c34,8 60,40 60,77c0,44 -35,80 -80,80s-80,-35 -80,-80c-44,0 -80,-35 -80,-80c0,-11 -9,-20 -20,-20h-39v-0l-0,-19c0,-33 26,-60 60,-60c7,0 14,1 20,3c-0,-1 -0,-2 -0,-3c0,-22 18,-40 40,-40s40,18 40,40c0,7 -2,14 -5,20c24,-1 46,7 62,23c14,14 23,34 23,56C415,150 415,151 415,152z" stroke="#000000" stroke-width="12.0" id="path_1"/><path fill="#79e59b" d="M312,473c6,13 -3,28 -18,28H56c-14,0 -24,-15 -18,-28l74,-152l0,0h124l0,-0L312,473z" stroke="#000000" stroke-width="12.0" id="path_2"/><path fill="#d4e9ff" d="M135,170c-11,0 -20,-9 -20,-20c0,-11 9,-20 20,-20c4,0 75,0 80,0c11,0 20,9 20,20c0,11 -9,20 -20,20v106l22,45l-0,0h-124l-0,-0l22,-45V170z" stroke="#000000" stroke-width="12.0" id="path_3"/><path fill="#d4e9ff" d="M175,362c11,0 20,9 20,20s-9,20 -20,20s-20,-9 -20,-20S164,362 175,362z" id="path_4"/><path fill="#000000" d="M235,472c5,0 10,-4 10,-10s-4,-10 -10,-10s-10,4 -10,10S230,472 235,472z" id="path_5"/><path fill="#000000" d="M135,472h60c5,0 10,-4 10,-10s-4,-10 -10,-10h-60c-5,0 -10,4 -10,10S130,472 135,472z" id="path_6"/></svg>