<svg width="100" height="100" viewBox="0 0 100 100" fill="none" xmlns="http://www.w3.org/2000/svg">
<g clip-path="url(#clip0_8_44)">
<g clip-path="url(#clip1_8_44)">
<path d="M92 100H87.7321H8C8 96.1548 8.194 92.9167 8.96998 90.0833C10.9099 83 15.9538 79.1548 26.2356 77.3333C29.7275 76.7262 34.1894 76.5238 39.2333 76.3214C44.0831 72.0714 41.5612 66 41.5612 66H57.6628C57.6628 66 55.3349 72.0714 59.9908 76.3214C65.0346 76.3214 69.3025 76.7262 72.9885 77.3333C83.0762 78.9524 88.3141 82.7976 90.254 90.0833C91.03 92.7143 91.224 96.1548 91.224 100H92Z" fill="#EAB58E" stroke="black" stroke-width="0.5625"/>
<path d="M75.1953 43.75C75.1953 44.3359 75.1953 44.9219 75.1953 45.7031C74.8047 53.9062 71.2891 61.5234 60.9375 64.4531C58.0078 65.2344 54.2969 65.8203 50 65.8203C49.4141 65.8203 48.6328 65.8203 47.8516 65.8203C44.5312 65.8203 41.6016 65.2344 39.0625 64.6484C28.9062 61.7188 25.3906 54.2969 25 45.8984C25 45.3125 25 44.7266 25 43.9453C25 41.7969 25 39.4531 25 37.5L25.5859 25.1953C26.9531 11.9141 30.8594 5.85938 38.0859 3.32031C40.8203 2.53906 43.9453 1.95312 47.8516 1.95312C48.4375 1.95312 49.2188 1.95312 49.8047 1.95312C54.4922 1.95312 58.3984 2.34375 61.5234 3.32031C68.75 5.66406 72.4609 11.9141 74.0234 25.1953L74.6094 37.5C74.6094 39.4531 74.6094 41.6016 74.6094 43.9453L75.1953 43.75Z" fill="#EAB58E" stroke="black" stroke-width="0.5625"/>
<path d="M75.1953 45.7031C74.8047 53.9062 71.2891 61.5234 60.9375 64.4531C60.9375 63.8672 60.9375 63.2812 60.9375 62.6953C61.5234 55.8594 63.0859 50.7812 63.0859 50.7812C65.8203 50.1953 68.3594 49.2188 70.5078 48.2422C73.2422 47.0703 75 45.8984 75 45.8984L75.1953 45.7031Z" fill="#949494" stroke="black" stroke-width="0.5625"/>
<path d="M38.8672 64.4531C28.7109 61.5234 25.1953 54.1016 24.8047 45.7031C25.1953 45.8984 30.4688 49.2188 36.5234 50.5859C36.5234 50.5859 38.0859 56.4453 38.8672 64.2578V64.4531Z" fill="#949494" stroke="black" stroke-width="0.5625"/>
<path d="M61.7188 2.92969C61.7188 2.92969 60.1562 10.7422 56.8359 16.9922C56.8359 16.9922 52.9297 17.1875 50 17.1875C47.0703 17.1875 43.1641 16.9922 43.1641 16.9922C40.0391 10.7422 38.2812 2.92969 38.2812 2.92969C41.4062 1.95312 45.3125 1.5625 50 1.5625C54.6875 1.5625 58.5938 1.95312 61.7188 2.92969Z" fill="#949494" stroke="black" stroke-width="0.5625"/>
<path d="M77.5391 37.1094C77.5391 37.1094 76.1719 37.1094 73.4375 37.3047C64.8437 37.6953 44.1406 38.4766 22.4609 37.1094C21.6797 31.25 22.4609 25.1953 22.4609 25.1953C22.4609 25.1953 46.4844 23.6328 73.2422 25C74.6094 25 75.9766 25 77.5391 25.1953C78.3203 31.0547 77.5391 37.1094 77.5391 37.1094Z" fill="black" stroke="black" stroke-width="0.5625"/>
<path d="M90.1875 89.5C90.1875 89.5 87.8438 89.5 84.9141 90.0859C83.3516 90.2812 81.3984 90.6719 79.6406 91.2578C79.6406 91.2578 79.0547 87.5469 76.3203 82.4688C75.5391 80.9062 74.8672 79.4531 73.5 77.5C83.6562 79.0625 88.4297 82.2734 90.3828 89.3047L90.1875 89.5Z" fill="#949494" stroke="black" stroke-width="0.5625"/>
<path d="M23.5 77.875C18.2266 85.2969 19.5312 92.9531 19.5312 92.9531C14.6484 91.3906 8.78906 91 8.78906 91C10.7422 84.1641 13.1484 79.6328 23.5 77.875Z" fill="#949494" stroke="black" stroke-width="0.5625"/>
<path d="M71.2891 31.0547C71.2891 30.2734 70.7031 29.6875 69.9219 29.6875H30.0781C28.3203 29.6875 28.3203 32.4219 30.0781 32.6172H69.9219C70.7031 32.6172 71.2891 32.0312 71.2891 31.25V31.0547Z" fill="#FF0000"/>
<path d="M56.4234 55H43.5766C41.4745 55 41.4745 55.9333 43.5766 56H56.4234C58.5255 56 58.5255 55.0667 56.4234 55Z" fill="black"/>
</g>
</g>
<defs>
<clipPath id="clip0_8_44">
<rect width="100" height="100" fill="white"/>
</clipPath>
<clipPath id="clip1_8_44">
<rect width="100" height="100" fill="white"/>
</clipPath>
</defs>
</svg>
