<svg id="vector" xmlns="http://www.w3.org/2000/svg" width="24.0d" height="24.0d" viewBox="0 0 682.6 682.6"><path fill="#e8eaf0" d="m107.5,38.8c-50.8,50.8 -23.3,160.7 61.3,245.5 84.7,84.7 194.6,112.2 245.5,61.3 50.8,-50.8 23.3,-160.7 -61.3,-245.5C268.3,15.4 158.4,-11.9 107.5,38.8m103.7,33.4c38.7,11.5 75.6,37.3 104,65.6 28.3,28.3 54,65.2 65.6,104 5,17.4 10,46 -1.2,62.4 -0.9,1.2 -1.9,2.5 -3,3.6 -1,1 -2.3,2 -3.6,3 -16.2,11.2 -45,6.4 -62.4,1.2 -38.7,-11.5 -75.6,-37.3 -104,-65.6 -28.3,-28.3 -54,-65.2 -65.6,-104 -5,-17.4 -10,-46.2 1.2,-62.4 0.9,-1.2 1.9,-2.5 3,-3.6 1,-1 2.3,-2 3.6,-3 16.2,-11.2 45,-6.4 62.4,-1.2" id="path_0"/><path fill="#cfd3df" d="m315.3,137.9c-28.3,-28.3 -65.2,-54 -104,-65.6 -17.4,-5 -46.2,-10 -62.4,1.2 -1.2,0.9 -2.5,1.9 -3.6,3 -1,1 -2,2.3 -3,3.6 -11.2,16.2 -6.4,45 -1.2,62.4 11.5,38.7 37.3,75.6 65.6,104 28.3,28.3 65.2,54 104,65.6 17.4,5 46.2,10 62.4,-1.2 1.2,-0.9 2.5,-1.9 3.6,-3 1,-1 2,-2.3 3,-3.6 11.2,-16.2 6.4,-45 1.2,-62.4C369.5,203.2 343.7,166.3 315.3,137.9" id="path_1"/><path fill="#c68a65" d="m168.9,284.3c-84.7,-84.7 -112.2,-194.6 -61.3,-245.5l-30.6,30.6c-84.7,84.7 -84.7,222 0,306.8 84.7,84.7 222,84.7 306.8,-0l30.6,-30.6C363.6,396.6 253.7,369 168.9,284.3" id="path_2"/><path fill="#ffffff" d="m520.6,251.6c1.7,1.2 3.4,2.6 4.9,4 1.5,1.5 2.9,3 4,4.9 14,20.2 8.8,54 2.3,75.9 -13.2,44.7 -42.8,87 -75.5,119.8 -32.7,32.7 -75,62.3 -119.8,75.5 -21.9,6.5 -55.6,11.7 -75.9,-2.3 -1.7,-1.2 -3.4,-2.6 -4.9,-4 -1.5,-1.5 -2.9,-3 -4,-4.9 -14,-20.2 -8.8,-54 -2.3,-75.9 13.2,-44.7 42.8,-87 75.5,-119.8 32.7,-32.7 75,-62.3 119.8,-75.5C466.5,242.7 500.3,237.5 520.6,251.6m-26.3,242.6c95.3,-95.3 126.2,-219 69,-276.2 -57.2,-57.2 -180.8,-26.2 -276.2,69 -95.3,95.3 -126.2,219 -69,276.2 57.2,57.2 180.8,26.2 276.2,-69" id="path_3"/><path fill="#e8eaf0" d="m456.5,456.5c32.7,-32.7 62.3,-75 75.5,-119.8 6.5,-21.9 11.7,-55.6 -2.3,-75.9 -1.2,-1.7 -2.6,-3.4 -4,-4.9 -1.5,-1.5 -3,-2.9 -4.9,-4 -20.2,-14 -54,-8.8 -75.9,-2.3 -44.7,13.2 -87,42.8 -119.8,75.5 -32.7,32.7 -62.3,75 -75.5,119.8 -6.5,21.9 -11.7,55.6 2.3,75.9 1.2,1.7 2.6,3.4 4,4.9 1.5,1.5 3,2.9 4.9,4 20.2,14 54,8.8 75.9,2.3C381.3,518.8 423.8,489.2 456.5,456.5" id="path_4"/><path fill="#c68a65" d="m563.3,218c57.2,57.2 26.2,180.8 -69,276.2 -95.3,95.3 -219,126.2 -276.2,69l34.5,34.5c95.3,95.3 249.9,95.3 345.2,-0 95.3,-95.3 95.3,-249.9 0,-345.2z" id="path_5"/><path fill="none" d="m563.3,218c57.2,57.2 26.2,180.8 -69,276.2 -95.3,95.3 -219,126.2 -276.2,69 -57.2,-57.2 -26.2,-180.8 69,-276.2C382.4,191.7 506.1,160.8 563.3,218Z" stroke-linecap="round" stroke="#000000" stroke-width="26.6" id="path_6"/><path fill="none" d="m286,370.7c-16,22.9 -29.2,48 -36.9,73.9 -7.4,24.9 -13.7,67.5 11.4,85 20.2,14 54,8.8 75.9,2.3 84,-24.9 170.4,-111.4 195.4,-195.4 7.4,-24.9 13.7,-67.5 -11.5,-85 -20.2,-14 -54,-8.8 -75.9,-2.3C418.7,256.9 393.6,270.1 370.7,286" stroke-linecap="round" stroke="#000000" stroke-width="26.6" id="path_7"/><path fill="none" d="m218,563.3 l34.5,34.5c95.3,95.3 249.9,95.3 345.2,-0 95.3,-95.3 95.3,-249.9 0,-345.2l-34.5,-34.5" stroke-linecap="round" stroke="#000000" stroke-width="26.6" id="path_8"/><path fill="none" d="M340,587C355,597.7 370.4,606.7 386,614" stroke-linecap="round" stroke="#000000" stroke-width="26.6" id="path_9"/><path fill="none" d="M574,496.6C564.2,480.5 552.3,463.4 538.5,445.7M511.2,582.5c40.5,22.3 72.6,29 86.5,15.2" stroke-linecap="round" stroke="#000000" stroke-width="26.6" id="path_10"/><path fill="none" d="M587,340C597.7,355 606.7,370.4 614,386" stroke-linecap="round" stroke="#000000" stroke-width="26.6" id="path_11"/><path fill="none" d="m422.2,199.6c-14.6,-33.7 -38,-68.3 -69,-99.4 -84.7,-84.7 -194.6,-112.2 -245.5,-61.3 -50.8,50.8 -23.3,160.7 61.3,245.5 22.6,22.6 47,41.2 71.8,55.3" stroke-linecap="round" stroke="#000000" stroke-width="26.6" id="path_12"/><path fill="none" d="m373,220.4c-13.3,-30.7 -34.7,-59.4 -57.7,-82.4 -28.3,-28.3 -65.2,-54 -104,-65.6 -19,-5.6 -55.3,-11.8 -69,7.9 -11.2,16.2 -6.4,45 -1.2,62.4 11.5,38.7 37.3,75.6 65.6,104 19.3,19.3 42.6,37.4 67.7,50.7" stroke-linecap="round" stroke="#000000" stroke-width="26.6" id="path_13"/><path fill="none" d="m194.1,436.9c-42.9,-7.2 -84,-27.3 -117.2,-60.5 -84.7,-84.7 -84.7,-222 0,-306.8l30.6,-30.6" stroke-linecap="round" stroke="#000000" stroke-width="26.6" id="path_14"/><path fill="none" d="M98,286.5C106.7,272.2 117.3,256.9 129.6,241.2M153.8,362.8C117.7,382.7 89.2,388.8 76.8,376.4" stroke-linecap="round" stroke="#000000" stroke-width="26.6" id="path_15"/><path fill="none" d="M86.3,147.2C76.9,160.5 68.9,174.3 62.4,188.3 M324.8,324.8L324.8,324.8" stroke-linecap="round" stroke="#000000" stroke-width="26.6" id="path_16"/></svg>