<svg id="vector" xmlns="http://www.w3.org/2000/svg" width="24.0d" height="24.0d" viewBox="0 0 497.0 497.0"><path fill="#685e68" d="m445,448h-18l-32,10 -32,-10h-229l-32,10 -32,-10h-20c-13,0 -25,-11 -25,-25v-70l10,-40 -10,-40v-97l10,-40 -10,-39v-70c0,-13 11,-25 25,-25h396c13,0 25,11 25,25l2,150 -10,48 10,48 -2,150c0,13 -11,25 -25,25z" id="path_0"/><path fill="#b5adb6" d="m470,273h-43l-10,-48 10,-48h43z" id="path_1"/><path fill="#a79ba7" d="m442,176h32v97h-30z" id="path_2"/><path fill="#b5adb6" d="m415,403h-336c-5,0 -10,-4 -10,-10v-338c0,-5 4,-10 10,-10h336c5,0 10,4 10,10v338c0,5 -4,10 -10,10z" id="path_3"/><path fill="#a79ba7" d="m417,45h-26c5,0 10,4 10,10v338c0,5 -4,10 -10,10h26c5,0 10,-4 10,-10v-338c0,-5 -4,-10 -10,-10z" id="path_4"/><path fill="#fed402" d="m84,353h-60v-80h60c5,0 10,4 10,10v60c0,5 -4,10 -10,10z" id="path_5"/><path fill="#fed402" d="m84,175h-60v-80h60c5,0 10,4 10,10v60c0,5 -4,10 -10,10z" id="path_6"/><path fill="#b98080" d="m123,497h-44c-5,0 -10,-4 -10,-10v-38h64v38c0,5 -4,10 -10,10z" id="path_7"/><path fill="#b98080" d="m417,497h-44c-5,0 -10,-4 -10,-10v-38h64v38c0,5 -4,10 -10,10z" id="path_8"/><path fill="#fac600" d="m257,143c-4,0 -7,-3 -7,-7v-22c0,-4 3,-7 7,-7s7,3 7,7v22c0,4 -3,7 -7,7z" id="path_9"/><path fill="#fac600" d="m257,343c-4,0 -7,-3 -7,-7v-22c0,-4 3,-7 7,-7s7,3 7,7v22c0,4 -3,7 -7,7z" id="path_10"/><path fill="#fac600" d="m168,231h-22c-4,0 -7,-3 -7,-7s3,-7 7,-7h22c4,0 7,3 7,7s-3,7 -7,7z" id="path_11"/><path fill="#fac600" d="m369,231h-22c-4,0 -7,-3 -7,-7s3,-7 7,-7h22c4,0 7,3 7,7s-3,7 -7,7z" id="path_12"/><path fill="#fac600" d="m320,169c-1,0 -3,-0 -5,-2 -2,-2 -2,-7 0,-10l16,-16c2,-2 7,-2 10,0 2,2 2,7 0,10l-16,16c-1,1 -3,2 -5,2z" id="path_13"/><path fill="#fac600" d="m178,310c-1,0 -3,-0 -5,-2 -2,-2 -2,-7 0,-10l16,-16c2,-2 7,-2 10,0 2,2 2,7 0,10l-16,16c-1,1 -3,2 -5,2z" id="path_14"/><path fill="#fac600" d="m194,169c-1,0 -3,-0 -5,-2l-16,-16c-2,-2 -2,-7 0,-10 2,-2 7,-2 10,0l16,16c2,2 2,7 0,10 -1,1 -3,2 -5,2z" id="path_15"/><path fill="#fac600" d="m336,310c-1,0 -3,-0 -5,-2l-16,-16c-2,-2 -2,-7 0,-10 2,-2 7,-2 10,0l16,16c2,2 2,7 0,10 -1,1 -3,2 -5,2z" id="path_16"/><path fill="#fed402" d="m344,224c0,49 -37,88 -86,88s-88,-39 -88,-88 39,-88 88,-88 86,39 86,88z" id="path_17"/><path fill="#b98080" d="m308,231h-19c-4,0 -7,-3 -7,-7s3,-7 7,-7h19c4,0 7,3 7,7s-3,7 -7,7z" id="path_18"/><path fill="#b98080" d="m287,224c0,17 -13,31 -30,31s-31,-14 -31,-31 14,-31 31,-31 30,14 30,31z" id="path_19"/></svg>