<svg id="vector" xmlns="http://www.w3.org/2000/svg" width="24.0d" height="24.0d" viewBox="0 0 512.0 512.0"><path fill="#ff7bac" d="M490,279l-21,-6c-5,-1 -9,-5 -10,-10c-24,-76 -113,-112 -204,-112c-105,0 -191,48 -191,154c0,61 30,104 76,129c1,0 2,1 2,3l10,54c1,5 5,8 10,8h35c5,0 9,-3 10,-8l5,-30c0,-2 2,-3 4,-3c11,1 23,2 35,2c16,0 32,-1 47,-3c2,-0 4,1 4,3l6,31c1,5 5,8 10,8h35c5,0 9,-3 10,-8l10,-57c0,-1 1,-2 2,-3c27,-14 50,-34 65,-59c2,-3 5,-6 8,-7l33,-10c8,-2 14,-10 14,-19v-34C504,289 498,281 490,279z" stroke="#000000" stroke-width="12.0" id="path_0"/><path fill="#e8679c" d="M336,168c1,-5 4,-9 9,-11c18,-8 64,-28 76,-22c14,7 7,92 -15,104C384,252 321,241 336,168z" stroke="#000000" stroke-width="12.0" id="path_1"/><path fill="#ffb125" d="M230,106m-94,0a94,94 0,1 1,188 0a94,94 0,1 1,-188 0" stroke="#000000" stroke-width="12.0" id="path_2"/><path fill="#dd7219" d="M228,153c-16,-0 -27,-9 -27,-15c0,-3 2,-7 6,-7c4,0 7,9 21,10v-30c-11,-4 -25,-9 -25,-25c0,-16 12,-23 25,-24V56c0,-1 1,-3 3,-3c2,0 4,1 4,3v3c9,0 21,3 21,9c0,2 -1,7 -5,7c-3,0 -6,-4 -15,-4v26c11,4 24,9 24,27c0,16 -9,25 -24,27v4c0,1 -2,3 -4,3c-2,0 -3,-1 -3,-3L228,153L228,153zM229,95V71c-7,1 -12,4 -12,11C216,90 222,93 229,95zM235,112v27c7,-1 11,-5 11,-13C247,119 242,115 235,112z" id="path_3"/><path fill="#000000" d="M430,278c0,-4 -3,-7 -7,-7s-7,3 -7,7c0,5 -4,9 -9,9c-5,0 -9,-4 -9,-9c0,-4 -3,-7 -7,-7s-7,3 -7,7c0,13 11,24 24,24C419,302 430,291 430,278z" id="path_4"/></svg>