<svg id="vector" xmlns="http://www.w3.org/2000/svg" width="24.0d" height="24.0d" viewBox="0 0 512.0 512.0"><path fill="#a0d755" d="M328,151v120h66c7,0 14,-5 15,-13l21,-130h-80C339,127 328,138 328,151zM52,111c-8,0 -16,3 -22,9L7,143l24,24l24,-24h128v-32H52z" stroke="#000000" stroke-width="12.0" id="path_0"/><path fill="#ffdc64" d="M312,111h-144v64h160v-48C328,118 321,111 312,111z" stroke="#000000" stroke-width="12.0" id="path_1"/><path fill="#7f8499" d="M312,272l-0,48l104,64l0,-32z" stroke-linejoin="round" stroke="#000000" stroke-width="12.0" id="path_2"/><path fill="#00d7ff" d="M427,159l-66,0l0,80l53,0z" stroke="#000000" stroke-width="12.0" id="path_3"/><path fill="#a0d755" d="M71,368h272v-96H79c-4,0 -8,3 -8,8V368z" stroke="#000000" stroke-width="12.0" id="path_4"/><path fill="#b4e66e" d="M328,272H87v-88c0,-4 3,-8 8,-8h232L328,272L328,272zM408,352v36c0,6 5,12 12,12h84l-77,-57C419,336 408,342 408,352z" stroke="#000000" stroke-width="12.0" id="path_5"/><path fill="#5b5d6e" d="M312,352m-48,0a48,48 0,1 1,96 0a48,48 0,1 1,-96 0M87,368m-32,0a32,32 0,1 1,64 0a32,32 0,1 1,-64 0" stroke="#000000" stroke-width="12.0" id="path_6"/><path fill="#ffdc64" d="M312,352m-16,0a16,16 0,1 1,32 0a16,16 0,1 1,-32 0" stroke="#000000" stroke-width="12.0" id="path_7"/><path fill="#000000" d="M87,360h-0c-4,0 -7,3 -7,7s3,7 7,7s7,-3 7,-7S91,360 87,360z" id="path_8"/></svg>