<svg id="vector" xmlns="http://www.w3.org/2000/svg" width="24.0d" height="24.0d" viewBox="0 0 512.0 512.0"><path fill="#c68a65" d="m319,30 l-35,42c-1,2 -4,3 -7,3h-241c-13,0 -25,11 -25,25s11,25 25,25h266c12,0 23,-5 31,-15l25,-31c1,-2 4,-3 7,-3h136v-60h-152c-11,0 -23,5 -30,14z" stroke="#000000" stroke-width="12.0" id="path_0"/><path fill="#ffd89e" d="M326,276h-220c-16,0 -30,-13 -30,-30s13,-30 30,-30h220c16,0 30,13 30,30s-13,30 -30,30zM256,166h-80v-10c0,-16 13,-30 30,-30h20c16,0 30,13 30,30z6" stroke="#000000" stroke-width="12.0" id="path_1"/><path fill="#ffc15a" d="m341,276h-250c-19,0 -35,15 -35,35s15,35 35,35h15c-16,0 -30,13 -30,30s13,30 30,30h220c16,0 30,-13 30,-30s-13,-30 -30,-30h15c19,0 35,-15 35,-35s-15,-35 -35,-35z" stroke-linejoin="round" stroke="#000000" stroke-width="12.0" id="path_2"/><path fill="#ffd89e" d="m291,456h-150c-13,0 -25,-11 -25,-25s11,-25 25,-25h150c13,0 25,11 25,25s-11,25 -25,25z" stroke="#000000" stroke-width="12.0" id="path_3"/><path fill="#ffc15a" d="M291,216h-150c-13,0 -25,-11 -25,-25s11,-25 25,-25h150c13,0 25,11 25,25s-11,25 -25,25zM226,496h-20c-16,0 -30,-13 -30,-30v-10h80v10c0,16 -13,30 -30,30z" stroke="#000000" stroke-width="12.0" id="path_4"/></svg>