<svg id="vector" xmlns="http://www.w3.org/2000/svg" width="24.0d" height="24.0d" viewBox="0 0 512.0 512.0"><path fill="#ff7d43" d="m370,359 l-126,-126 -14,23 -15,-52 -56,-56 -31,78 -17,-9 -49,131v0l1,40 -18,4v0l-37,100c-2,6 -0,12 3,15 3,3 9,5 15,3l79,-29 3,-18 28,6 61,-23v-23l32,11 59,-22 6,-17 24,6h0l43,-16c10,-3 13,-17 5,-24z" id="path_0"/><path fill="#f0f7ff" d="m321,400 l-31,11c-31,-32 -54,-73 -66,-118 -7,-28 -10,-59 -8,-90l29,29c0,12 1,24 4,36 9,50 35,96 72,131z" id="path_1"/><path fill="#f0f7ff" d="m230,434 l-32,12c-22,-20 -41,-44 -56,-70 -26,-48 -38,-104 -32,-159l23,-63c3,-10 17,-13 24,-5l0,0c-30,68 -26,143 5,205 15,31 38,59 66,80z" id="path_2"/><path fill="#f0f7ff" d="m136,469 l-31,11c-11,-11 -22,-23 -31,-37 -10,-15 -21,-33 -29,-52v-0l16,-44c6,27 18,53 34,75 11,17 25,33 41,46z" id="path_3"/><path fill="#8cd96b" d="m237,163c-5,-5 -5,-15 0,-21 56,-56 39,-111 38,-112 -2,-7 1,-16 9,-19 7,-2 16,1 19,9 1,3 23,73 -46,142 -5,5 -15,5 -21,0z" id="path_4"/><path fill="#5ab267" d="m353,280c5,5 15,5 21,0 56,-56 111,-39 112,-38 7,2 16,-1 19,-9 2,-7 -1,-16 -9,-19 -3,-1 -73,-23 -142,46 -5,5 -5,15 -0,21z" id="path_5"/><path fill="#ff7d43" d="m499,70c-13,13 -36,-0 -45,2 -3,8 10,31 -2,45 -13,13 -36,-0 -45,2 -3,8 10,31 -2,45s-36,-0 -45,2c-3,8 10,31 -2,45 -13,13 -37,-1 -45,2 -4,3 -9,5 -14,3 -2,-0 -4,-2 -6,-3 -5,-5 -5,-15 0,-21 11,-11 27,-9 39,-7 0,0 0,0 1,0 -0,-0 -0,-0 -0,-1 -2,-11 -4,-27 7,-39 11,-11 27,-9 39,-7 0,0 0,0 1,0 -0,-0 -0,-0 -0,-1 -2,-11 -4,-27 7,-39 11,-11 27,-9 39,-7 0,0 0,0 1,0 -0,-0 -0,-0 -0,-1 -2,-11 -4,-27 7,-39 11,-11 27,-9 39,-7 0,0 0,0 1,0 -0,-0 -0,-0 -0,-1 -2,-11 -4,-27 7,-39 5,-5 15,-5 21,0 2,2 3,4 3,6 1,5 0,10 -3,14 -3,7 10,31 -2,45z" id="path_6"/><path fill="#ffe470" d="M470,163m-15,0a15,15 0,1 1,30 0a15,15 0,1 1,-30 0M449,311m-15,0a15,15 0,1 1,30 0a15,15 0,1 1,-30 0M364,57m-15,0a15,15 0,1 1,30 0a15,15 0,1 1,-30 0M216,78m-15,0a15,15 0,1 1,30 0a15,15 0,1 1,-30 0" id="path_7"/></svg>