<svg id="vector" xmlns="http://www.w3.org/2000/svg" width="24.0d" height="24.0d" viewBox="0 0 512.0 512.0"><path fill="#f5b97d" d="M491,287c-3,0 -7,0 -11,0c-35,0 -66,-23 -76,-55c-1,-5 -6,-9 -12,-10c-59,-11 -104,-63 -104,-126c0,-26 8,-50 21,-71c3,-4 0,-11 -5,-12c-15,-3 -31,-4 -48,-4C118,7 7,118 7,256c0,137 111,248 248,248c123,0 226,-90 245,-208C502,290 497,286 491,287z" stroke="#000000" stroke-width="12.0" id="path_0"/><path fill="#f5b97d" d="M359,72l-2,13c-1,11 4,22 15,26l20,7c13,5 28,-2 31,-16l7,-29c4,-18 -12,-34 -30,-28l-25,7C367,56 360,63 359,72z" stroke="#000000" stroke-width="12.0" id="path_1"/><path fill="#f5b97d" d="M440,159l-9,4c-7,3 -11,12 -7,20l7,18c4,11 19,13 27,4l12,-15c5,-7 4,-17 -2,-23l-10,-7C452,157 445,157 440,159zM488,111m-16,0a16,16 0,1 1,32 0a16,16 0,1 1,-32 0" stroke="#000000" stroke-width="12.0" id="path_2"/><path fill="#cd916e" d="M143,175m-32,0a32,32 0,1 1,64 0a32,32 0,1 1,-64 0M159,336m-24,0a24,24 0,1 1,48 0a24,24 0,1 1,-48 0M312,360m-32,0a32,32 0,1 1,64 0a32,32 0,1 1,-64 0M247,215m-16,0a16,16 0,1 1,32 0a16,16 0,1 1,-32 0" stroke="#000000" stroke-width="12.0" id="path_3"/><path fill="#000000" d="M400,335l-8,-16zM312,287l16,-8zM89,267l-8,-16zM212,393l-16,8zM221,90l-8,-8czM186,266l8,8zM280,440v8zM245,149l8,-8z" stroke-linejoin="round" stroke="#000000" stroke-width="16.0" id="path_4"/></svg>