<svg id="vector" xmlns="http://www.w3.org/2000/svg" width="24.0d" height="24.0d" viewBox="0 0 512.0 512.0"><path fill="#e7a561" d="m266,499c21,-27 75,-79 156,-49 2,1 5,0 7,-2l34,-46c1,-2 1,-4 0,-6 -52,-91 -48,-188 0,-288 1,-2 0,-4 -0,-6l-35,-47c-1,-1 -3,-2 -6,-2 -50,8 -96,-1 -114,-39 -1,-2 -3,-3 -5,-3h-95c-2,0 -4,1 -5,3 -17,37 -64,47 -114,39 -2,-0 -4,0 -6,2l-35,47c-1,1 -1,4 -0,6 48,100 53,196 0,288 -1,2 -1,4 0,6l34,45c1,2 5,3 7,1 78,-37 135,21 156,50 5,6 15,6 20,0z" stroke="#000000" stroke-width="16.0" id="path_0"/><path fill="#000000" d="m264,440c-2,2 -4,4 -7,6 -2,-2 -4,-4 -6,-6 -3,-2 -7,-2 -10,0s-2,7 0,10c3,3 7,7 11,11 1,1 3,2 5,2 0,0 0,0 0,0 2,0 3,-0 5,-2 3,-3 7,-7 11,-10 3,-2 3,-7 0,-10 -2,-3 -7,-3 -10,-0z" id="path_1"/><path fill="#000000" d="M237,133h43 M224,168h73" stroke-linecap="round" stroke="#000000" stroke-width="16.0" id="path_2"/></svg>