<svg width="100" height="96" viewBox="0 0 100 96" fill="none" xmlns="http://www.w3.org/2000/svg">
<path d="M25.2892 43.2959C21.5569 39.6855 18.9484 33.4196 18.5864 26.6532C18.1934 19.1967 22.1396 11.7925 28.0531 7.57145C34.6784 2.93112 45.7562 1.64775 52.6442 1.99408C57.3098 1.9973 67.7025 4.40459 71.3711 7.12316C77.8062 11.7792 81.2573 18.3875 81.4964 25.9198C81.85 33.4856 78.6476 39.2482 74.7263 42.8447" fill="white"/>
<path d="M25.2892 43.2959C21.5569 39.6855 18.9484 33.4196 18.5864 26.6532C18.1934 19.1967 22.1396 11.7925 28.0531 7.57145C34.6784 2.93112 45.7562 1.64775 52.6442 1.99408C57.3098 1.9973 67.7025 4.40459 71.3711 7.12316C77.8062 11.7792 81.2573 18.3875 81.4964 25.9198C81.85 33.4856 78.6476 39.2482 74.7263 42.8447" stroke="black" stroke-miterlimit="5"/>
<path d="M25.6601 42.0226C25.6601 42.0226 21.1489 55.614 29.8418 57.9313L33.0112 76.1088C36.3562 90.4163 63.1255 90.426 67.0653 76.1088L70.2347 57.9313C79.1481 55.5635 74.6232 42.0167 74.6232 42.0167L25.6601 42.0226Z" fill="white"/>
<path d="M25.5162 22.0842C24.0042 23.4004 24.195 25.3791 24.4673 28.332C24.6822 30.5756 26.1208 32.784 26.1965 34.8337C26.7255 39.1587 25.4405 43.4838 24.8357 47.0191C24.4199 51.0808 25.5919 54.5786 27.1036 55.9325C28.6154 57.2677 30.5668 57.8207 32.617 58.4431C34.4799 58.9279 35.4459 59.771 36.8549 60.8163C38.5334 62.5896 38.9338 64.0562 38.896 65.8616" stroke="black"/>
<path d="M74.7442 21.9713C76.2562 23.2876 76.0655 25.2662 75.7932 28.2192C75.5782 30.4627 74.1396 32.6711 74.0639 34.7208C73.535 39.0459 74.8199 43.371 75.4247 46.9063C75.8406 50.968 74.6686 54.4657 73.1568 55.8196C71.645 57.1549 68.8782 57.872 67.6434 58.3302C66.2046 58.8311 64.7334 59.7389 63.4056 60.7842C61.8082 62.3151 61.3266 63.9434 61.3645 65.7487" stroke="black"/>
<path d="M29.8381 57.9291C31.1913 61.1877 32.6256 64.3656 32.761 67.7049C32.1386 70.398 32.328 73.5758 33.0046 76.1074C33.8708 79.5814 37.2537 83.7018 40.6369 85.0753C44.101 86.3275 46.2662 86.6508 50.1362 86.6508" stroke="black"/>
<path d="M70.2314 57.9291C68.8782 61.1877 67.4439 64.3656 67.3085 67.7049C67.9309 70.398 67.7415 73.5758 67.0649 76.1074C66.1987 79.5814 62.7752 83.5807 59.392 84.9542C56.009 86.3277 53.8441 86.6508 49.9739 86.6508" stroke="black"/>
<path d="M49.3566 47.9829C47.4655 49.4139 47.0448 49.8944 45.9998 51.4779C45.6216 52.0891 44.9153 53.5173 44.7222 54.4755C44.5293 55.4335 44.3848 56.8235 44.3854 57.5596C44.3877 60.0541 45.1857 61.619 46.0571 61.5644C46.8357 61.4756 47.8265 60.6676 49.3279 58.8326" fill="black"/>
<path d="M49.3566 47.9829C47.4655 49.4139 47.0448 49.8944 45.9998 51.4779C45.6216 52.0891 44.9153 53.5173 44.7222 54.4755C44.5293 55.4335 44.3848 56.8235 44.3854 57.5596C44.3877 60.0541 45.1857 61.619 46.0571 61.5644C46.8357 61.4756 47.8265 60.6676 49.3279 58.8326" stroke="black"/>
<path d="M50.7184 48.0233C52.6095 49.4543 53.0302 49.9348 54.0752 51.5183C54.4534 52.1295 55.1597 53.5577 55.3527 54.5159C55.5456 55.4739 55.6902 56.8639 55.6896 57.6C55.6872 60.0945 54.8893 61.6594 54.0179 61.6048C53.2393 61.5159 52.2485 60.708 50.7471 58.873" fill="black"/>
<path d="M50.7184 48.0233C52.6095 49.4543 53.0302 49.9348 54.0752 51.5183C54.4534 52.1295 55.1597 53.5577 55.3527 54.5159C55.5456 55.4739 55.6902 56.8639 55.6896 57.6C55.6872 60.0945 54.8893 61.6594 54.0179 61.6048C53.2393 61.5159 52.2485 60.708 50.7471 58.873" stroke="black"/>
<path d="M33.2817 37.0854C35.9069 36.6275 38.4509 36.3314 41.0761 36.0352C44.5133 35.1733 46.2455 39.0784 45.2982 42.0138C44.1074 44.6261 42.4295 46.9153 40.508 49.1235C39.0194 50.7932 37.2461 51.0634 35.5551 50.4969C34.1902 50.1203 32.9296 49.2852 31.5765 47.3462C30.9812 45.6763 30.4671 44.8144 29.7091 42.7409C29.1139 40.8288 30.0397 37.9665 33.2817 37.0854Z" fill="black" stroke="black"/>
<path d="M66.8447 37.0854C64.2195 36.6275 61.6755 36.3314 59.0503 36.0352C55.6131 35.1733 53.8809 39.0784 54.8282 42.0138C56.019 44.6261 57.6969 46.9153 59.6184 49.1235C61.107 50.7932 62.8803 51.0634 64.5713 50.4969C65.9362 50.1203 67.1968 49.2852 68.5499 47.3462C69.1452 45.6763 69.6593 44.8144 70.4173 42.7409C71.0125 40.8288 70.0867 37.9665 66.8447 37.0854Z" fill="black" stroke="black"/>
<path d="M33.234 59.3985C34.3437 61.9883 34.687 62.9725 35.4873 65.5543C36.1691 67.9394 36.4198 69.3959 36.841 72.7854" stroke="black"/>
<path d="M66.7525 59.2557C65.6428 61.8455 65.2995 62.8297 64.4992 65.4115C63.8174 67.7966 63.5668 69.2531 63.1455 72.6425" stroke="black"/>
<path d="M37.9703 65.4542C40.8409 67.2062 45.8034 67.4763 50.2493 67.3967C55.2022 67.3717 59.4422 67.0158 62.2266 65.3401" stroke="black"/>
<path d="M38.975 70.0248C42.142 72.0052 45.8665 72.6852 50.1559 72.5241C54.611 72.4162 58.026 72.0432 61.0784 69.9677" stroke="black"/>
<path d="M36.6786 72.424C40.0658 76.4896 44.7938 77.1954 50.1701 77.3371C55.9275 77.5461 61.7099 75.2711 63.2026 72.4242" stroke="black"/>
<path d="M38.9315 66.3322L38.8504 74.3306Z" fill="black"/>
<path d="M38.9315 66.3322L38.8504 74.3306" stroke="black"/>
<path d="M41.5702 67.1805L41.5296 75.7445Z" fill="black"/>
<path d="M41.5702 67.1805L41.5296 75.7445" stroke="black"/>
<g opacity="0.1">
<path d="M44.4931 67.544L44.4119 76.5121Z" fill="black"/>
<path d="M44.4931 67.544L44.4119 76.5121" stroke="black"/>
</g>
<path d="M47.132 67.7461L47.0912 76.8352Z" fill="black"/>
<path d="M47.132 67.7461L47.0912 76.8352" stroke="black"/>
<path d="M50.0954 67.8268V76.916Z" fill="black"/>
<path d="M50.0954 67.8268V76.916" stroke="black"/>
<path d="M52.9372 67.7865L52.9777 76.8756Z" fill="black"/>
<path d="M52.9372 67.7865L52.9777 76.8756" stroke="black"/>
<path d="M55.4947 67.544L55.5758 76.4717Z" fill="black"/>
<path d="M55.4947 67.544L55.5758 76.4717" stroke="black"/>
<path d="M58.4582 67.0594L58.4988 75.6234Z" fill="black"/>
<path d="M58.4582 67.0594L58.4988 75.6234" stroke="black"/>
<path d="M61.1375 66.0091L61.2188 74.0882Z" fill="black"/>
<path d="M61.1375 66.0091L61.2188 74.0882" stroke="black"/>
<path d="M38.8776 70.0047C45.901 72.9864 53.2437 73.4267 61.0715 70.0047" stroke="black"/>
<path d="M61.95 69.5229V66.1071L62.3079 65.9449C62.6076 65.809 62.6785 65.6421 62.7446 64.917C62.8533 63.7245 63.3023 62.8006 64.2141 61.8932C64.6395 61.4699 65.0119 61.1478 65.0416 61.1774C65.0713 61.207 64.8255 62.0086 64.4954 62.9588C63.6139 65.4955 63.186 67.2422 62.7657 70.0197C62.5336 71.553 62.3065 72.5825 62.1702 72.7186C61.9772 72.9114 61.95 72.5166 61.95 69.5229Z" fill="black"/>
<path d="M38.0199 74.3761C37.748 74.1363 37.398 72.9645 37.0365 71.0839C36.3213 67.3633 34.6666 62.6479 32.9478 59.4324C32.2312 58.0918 35.9751 60.8439 36.8625 62.3101C37.2139 62.8906 37.5786 63.8664 37.6731 64.4785C37.7862 65.2119 38.013 65.6939 38.338 65.8918C38.8048 66.1762 38.8208 66.4208 38.6366 70.4704C38.4564 74.4355 38.4113 74.7213 38.0199 74.3761Z" fill="black"/>
<path d="M61.4273 70.4415C60.846 66.3445 60.8571 65.9805 61.5766 65.5513C62.0529 65.2672 62.5472 64.4104 62.8527 63.3393C63.2234 62.0398 63.7169 61.2789 64.775 60.3756C66.0928 59.2505 67.3444 58.4291 67.6072 58.517C67.6678 58.5372 67.0962 59.8966 66.3371 61.5377C64.6209 65.2479 64.2431 66.3942 63.3607 70.5693C62.9736 72.401 62.5216 74.1176 62.3562 74.3838C62.1815 74.665 61.7921 73.012 61.4273 70.4415Z" fill="black"/>
<path d="M49.2691 48.043L49.9635 47.5712L50.8949 48.1441L50.8779 54.9688L49.1845 54.9519L49.2691 48.043Z" stroke="black"/>
<path d="M49.846 54.8541L49.3484 54.8493L49.3559 51.5002L49.3634 48.151L49.4301 48.0836C49.4863 48.0268 49.9439 47.705 49.9684 47.705C49.9899 47.705 50.6205 48.1034 50.6613 48.1427L50.7081 48.1878L50.7191 51.5273L50.7302 54.8667L50.5369 54.8627C50.4305 54.8606 50.1196 54.8567 49.846 54.8541Z" fill="black"/>
<path d="M49.275 58.9949C49.2572 58.9786 49.2547 57.7632 49.2638 53.5384L49.2756 48.1028L49.3618 48.0004C49.4765 47.8641 49.8162 47.5139 49.8888 47.4572C49.9464 47.4121 49.947 47.4124 50.1216 47.5648C50.3911 47.8002 50.7557 48.1576 50.7635 48.1942C50.7673 48.2122 50.7748 50.6546 50.7802 53.6219L50.7898 59.0168L50.1691 58.6137C49.7588 58.6135 49.2876 59.0065 49.275 58.9949Z" fill="black"/>
</svg>
