<svg id="vector" xmlns="http://www.w3.org/2000/svg" width="24.0d" height="24.0d" viewBox="0 0 682.6 682.6"><path fill="#fed402" d="m570.3,331.3c0,126.5 -102.5,229 -229,229 -126.5,-0 -229,-102.5 -229,-229 0,-126.5 102.5,-229 229,-229C467.8,102.3 570.3,204.8 570.3,331.3" id="path_0"/><path fill="none" d="m518.9,186.6c32,39.4 51.4,89.8 51.4,144.6 0,126.5 -102.5,229 -229,229 -126.5,-0 -229,-102.5 -229,-229 0,-126.5 102.5,-229 229,-229 54.5,-0 104.6,19 144,50.9" stroke-linecap="round" stroke="#000000" stroke-width="20.0" id="path_1"/><path fill="#a44f3e" d="m497,583.7l0,-291.7c0,-56.4 -46,-102.5 -102.5,-102.5 -56.4,-0 -102.5,46 -102.5,102.5L291.8,583.7Z" stroke="#000000" stroke-width="20.0" id="path_2"/><path fill="#bb5d4c" d="M390.7,501.3L390.7,258C390.7,213.6 354.4,177.3 309.9,177.3l-21.7,-0c-56.4,-0 -102.5,46 -102.5,102.5L185.6,664Z" stroke="#000000" stroke-width="20.0" id="path_3"/><path fill="#c8effe" d="m544,672.6l-405.3,-0c-3.6,-0 -6.6,-2.9 -6.6,-6.6l0,-45.3c0,-34.2 27.7,-62 62,-62l294.6,-0C522.9,558.6 550.6,586.4 550.6,620.6L550.6,666C550.6,669.6 547.6,672.6 544,672.6" id="path_4"/><path fill="none" d="m210.6,672.6l-72,-0c-3.6,-0 -6.6,-2.9 -6.6,-6.6l0,-45.3c0,-34.2 27.7,-62 62,-62l294.6,-0C522.9,558.6 550.6,586.4 550.6,620.6L550.6,666c0,3.6 -2.9,6.6 -6.6,6.6L258.6,672.6" stroke-linecap="round" stroke="#000000" stroke-width="20.0" id="path_5"/><path fill="#ffbd86" d="m481.3,432.3l-280,-0c-14.7,-0 -26.6,-11.9 -26.6,-26.6l0,-28c0,-14.7 11.9,-26.6 26.6,-26.6L481.3,351c14.7,-0 26.6,11.9 26.6,26.6L508,405.6C508,420.4 496,432.3 481.3,432.3" stroke="#000000" stroke-width="20.0" id="path_6"/><path fill="#f6a96c" d="m375.7,609.3l-68.8,-0c-7.3,-0 -13.3,-5.9 -13.3,-13.3L293.5,495.5L389,495.5L389,596C389,603.4 383,609.3 375.7,609.3" stroke="#000000" stroke-width="20.0" id="path_7"/><path fill="#ffbd86" d="m285.2,273.7l112,-0c35.3,-0 64,28.6 64,64l0,97.7c0,51.3 -41.5,92.9 -92.9,92.9l-54.4,-0c-51.3,-0 -92.9,-41.5 -92.9,-92.9l0,-97.7C221.2,302.4 249.8,273.7 285.2,273.7" stroke="#000000" stroke-width="20.0" id="path_8"/><path fill="none" d="M279,356L279,376.7 M403.6,356L403.6,376.7 M327.4,365.6l0,29c0,3.8 3.1,6.9 6.9,6.9l20.7,-0" stroke-linecap="round" stroke="#000000" stroke-width="20.0" id="path_9"/><path fill="none" d="M348.8,10L348.8,51.3 M572.7,108.9 L543.5,138.2 M661,337.2L619.7,337.2 M21.5,322.2L62.9,322.2" stroke-linecap="round" stroke="#000000" stroke-width="20.0" id="path_10"/><path fill="none" d="M120.5,98.3 L149.8,127.6 M470.6,37.2 L454.8,75.4 M639.6,214.3 L601.4,230 M633.8,459 L595.6,443.2" stroke-linecap="round" stroke="#000000" stroke-width="20.0" id="path_11"/><path fill="none" d="M43,445 L81.2,429.3 M48.7,200.4 L87,216.2 M225.9,31.4 L241.7,69.6" stroke-linecap="round" stroke="#000000" stroke-width="20.0" id="path_12"/><path fill="#925cb4" d="M389,558.6 L324.8,672.6L488.6,672.6L488.6,558.6Z" id="path_13"/><path fill="none" d="m488.6,597.3l0,-38.6l-99.5,-0l-64.2,114L488.6,672.6L488.6,644" stroke-linecap="round" stroke="#000000" stroke-width="20.0" id="path_14"/><path fill="#883f2e" d="M404.5,469.6C401,471.1 397.1,469 396.2,465.5 392,448.1 376.3,435 357.6,435L324.9,435C306.3,435 290.6,448.1 286.4,465.5 285.5,469 281.5,471.1 278,469.6 244.6,455.6 221.2,422.5 221.2,384L221.2,444.4c0,51.3 41.5,92.9 92.9,92.9l54.4,-0c51.3,-0 92.9,-41.5 92.9,-92.9L461.4,384C461.4,422.5 437.9,455.6 404.5,469.6" stroke="#000000" stroke-width="20.0" id="path_15"/><path fill="none" d="M314.5,474.6C329.3,489.5 353.3,489.5 368,474.6" stroke-linecap="round" stroke="#000000" stroke-width="20.0" id="path_16"/></svg>