<svg id="vector" xmlns="http://www.w3.org/2000/svg" width="24.0d" height="24.0d" viewBox="0 0 512.0 512.0"><path fill="#105c6e" d="M150,101l-29,-29c-7,-7 -16,-10 -26,-10c-9,0 -19,3 -26,10L46,93c-14,14 -14,37 0,51l30,30c3,3 6,4 10,4c3,0 7,-1 10,-4c5,-5 46,-46 52,-52C155,117 155,107 150,101z" id="path_0"/><path fill="#26879c" d="M256,3c-8,0 -15,6 -15,15v48c0,8 6,15 15,15c8,0 15,-6 15,-15V18C271,9 264,3 256,3z" id="path_1"/><path fill="#de513c" d="M293,0h-74c-8,0 -15,6 -15,15s6,15 15,15h74c8,0 15,-6 15,-15S301,0 293,0z" id="path_2"/><path fill="#fc6249" d="M256,0h-37c-8,0 -15,6 -15,15s6,15 15,15h37V0z" id="path_3"/><path fill="#de513c" d="M418,118C375,75 317,51 256,51S136,75 93,118c-43,43 -67,101 -67,163s24,119 67,162C136,488 194,512 256,512s119,-24 162,-67c43,-43 67,-101 67,-162S462,162 418,118z" id="path_4"/><path fill="#fc6249" d="M256,51c-61,0 -119,24 -162,67c-43,43 -67,101 -67,163s24,119 67,162C136,488 194,512 256,512V51z" id="path_5"/><path fill="#96d1d9" d="M256,108c-95,0 -172,77 -172,173S160,454 256,454s172,-77 172,-173S351,108 256,108z" id="path_6"/><path fill="#f4f2e6" d="M256,108c-95,0 -172,77 -172,173S160,454 256,454V108z" id="path_7"/><path fill="#105c6e" d="M256,146c8,0 15,-6 15,-15v-21c-5,-0 -10,-0 -15,-0c-5,0 -10,0 -15,0v21C241,139 247,146 256,146z" id="path_8"/><path fill="#105c6e" d="M256,417c-8,0 -15,6 -15,15v21c5,0 10,0 15,0c5,0 10,-0 15,-0v-21C271,423 264,417 256,417z" id="path_9"/><path fill="#105c6e" d="M428,266h-21c-8,0 -15,6 -15,15s6,15 15,15h21c0,-5 0,-9 0,-15S428,271 428,266z" id="path_10"/><path fill="#105c6e" d="M120,281c0,-8 -6,-15 -15,-15H84c-0,5 -0,9 -0,15s0,10 0,15h21C113,296 120,289 120,281z" id="path_11"/><path fill="#105c6e" d="M293,272h-21V212c0,-8 -6,-15 -15,-15c-8,0 -15,6 -15,15v75c0,8 6,15 15,15H293c8,0 15,-6 15,-15S301,272 293,272z" id="path_12"/></svg>