<svg id="vector" xmlns="http://www.w3.org/2000/svg" width="24.0d" height="24.0d" viewBox="0 0 501.0 501.0"><path fill="#0ed1b2" d="m501,250.5c0,135 -109.6,245 -245,245s-245,-109.6 -245,-245 109.6,-245 245,-245 245,109.6 245,245z" id="path_0"/><path fill="#5de0c3" d="m470,222c0,98 -80.4,177.5 -179.6,177.5s-179.6,-79.4 -179.6,-177.5 80.4,-177.5 179.6,-177.5 179.6,79.4 179.6,177.5z" id="path_1"/><path fill="#89e9d9" d="m290,119.5c0,8 -6.7,15 -15,15h-260.3c-8,0 -15,-6.7 -15,-15 0,-8 6.7,-15 15,-15h260.3c8,0 15,6.7 15,15zM315,44.5h-90c-8,0 -15,6.7 -15,15s6.7,15 15,15h90c8,0 15,-6.7 15,-15s-6.7,-15 -15,-15zM475,214.5h-90c-8,0 -15,6.7 -15,15 0,8 6.7,15 15,15h90c8,0 15,-6.7 15,-15 0,-8 -6.7,-15 -15,-15z" id="path_2"/><path fill="#fff2b4" d="m307,315.8c-61.6,0 -111.5,-50.5 -111.5,-113s50,-113 111.5,-113 111.5,50.5 111.5,113 -50,113 -111.5,113z" id="path_3"/><path fill="#fdbf43" d="m256,495.5c-133.7,0 -242.5,-107 -245,-240.4 56,-21 85.8,-53 111.6,-54 10,-0.4 39,16 71.6,37 85,55.5 184.5,85.4 286,85 0,-0 0.7,-0 1,-0h8c-31,99.7 -124,172 -234,172z" id="path_4"/><path fill="#fd8f01" d="m134.6,250.5c0,-4 3,-7.5 7.5,-7.5s7.5,3 7.5,7.5 -3,7.5 -7.5,7.5 -7.5,-3 -7.5,-7.5zM142,342c4,0 7.5,-3 7.5,-7.5s-3,-7.5 -7.5,-7.5 -7.5,3 -7.5,7.5 3,7.5 7.5,7.5zM177,293c4,0 7.5,-3 7.5,-7.5s-3,-7.5 -7.5,-7.5 -7.5,3 -7.5,7.5 3,7.5 7.5,7.5zM88.8,382.5c-15,-37.6 -11,-80.4 9.4,-114.6 1,1 3,1.8 4.8,1.8 4,0 7.5,-3 7.5,-7.5 0,-2.8 -1.6,-5 -4,-6.6 12,-15.8 28.6,-29 48.7,-38 1,-0.4 2,-0.8 3,-1 -16.4,-9 -29.4,-15 -35.6,-15 -25.8,1 -55,32.6 -111.6,54 0.8,46.8 14.8,90.5 38.5,127.4h39z" id="path_5"/><path fill="#e27500" d="m402.4,278c32,-0 64,4 95,13 -19.4,115.8 -120,204 -241.5,204 -102,0 -190,-62.8 -226.7,-152l0,0c80,42 177.8,33.6 249.4,-22 35.4,-27.5 78.8,-43 123.6,-43.4z" id="path_6"/><path fill="#fd8f01" d="m438,279.6c-12,1.5 -24,5.4 -35,11 2.7,1 4.6,3.8 4.6,7 0,4 -3,7.5 -7.5,7.5s-7.5,-3 -7.5,-7.5c0,-0 0,-0.6 0,-1 -24.4,15.7 -46,40 -68,67 1.7,1 3,3.5 3,6 0,4 -3,7.5 -7.5,7.5 -1.7,0 -3.4,-0.6 -4.7,-1.6 -3.7,4.8 -7.5,9.6 -11,14.5 -10,13 -20,26 -31,39 1,1 1.8,3 1.8,4.8 0,4 -3,7.5 -7.5,7.5 -1.4,0 -2.7,-0 -3.8,-1 -16,18.5 -33,35.7 -52,49 -0.4,0 -0.8,0.6 -1,1 15,2.8 30,4 46,4 121,0 222,-88 241.5,-204 -19.5,-5.8 -39.4,-9.7 -59.5,-11.7zM320,442c-4,0 -7.5,-3 -7.5,-7.5s3,-7.5 7.5,-7.5 7.5,3 7.5,7.5 -3,7.5 -7.5,7.5zM380,349.6c-4,0 -7.5,-3 -7.5,-7.5s3,-7.5 7.5,-7.5 7.5,3 7.5,7.5 -3,7.5 -7.5,7.5zM432,342c-4,0 -7.5,-3 -7.5,-7.5s3,-7.5 7.5,-7.5 7.5,3 7.5,7.5 -3,7.5 -7.5,7.5z" id="path_7"/></svg>