<svg id="vector" xmlns="http://www.w3.org/2000/svg" width="24.0d" height="24.0d" viewBox="0 0 512.0 512.0"><path fill="#f79e8c" d="M495,58c11,-11 11,-30 0,-42L184,299l35,35C220,334 484,70 495,58z" id="path_0"/><path fill="#fbcfc6" d="M453,16c-11,11 -275,275 -275,275l21,21L495,16C484,4 465,4 453,16z" id="path_1"/><path fill="#cf2500" d="M243,332l27,-27l-21,-21L109,402l107,72C255,436 264,379 243,332z" id="path_2"/><path fill="#ef3d19" d="M221,311l27,-27l-42,-42l-27,27c-47,-21 -104,-12 -142,26l72,107l86,51C234,415 243,358 221,311z" id="path_3"/><path fill="#ef3d19" d="M220,479l-21,-21l-21,21l21,21c5,5 15,5 21,0S226,484 220,479z" id="path_4"/><path fill="#f76549" d="M199,479c5,-5 5,-15 0,-21L33,291c-5,-5 -15,-5 -21,0c-5,5 -5,15 0,21l166,166C184,484 193,484 199,479z" id="path_5"/></svg>