<svg id="vector" xmlns="http://www.w3.org/2000/svg" width="24.0d" height="24.0d" viewBox="0 0 512.0 512.0"><path fill="#4d5578" d="M470,84l-68,-68c-3,-3 -8,-5 -14,-5C370,10 75,10 56,10c-11,0 -20,8 -20,20v452c0,11 8,20 20,20c20,0 339,0 400,0c11,0 20,-8 20,-20V98C476,92 473,87 470,84z" stroke="#000000" stroke-width="12.0" id="path_0"/><path fill="#ff5249" d="M96,442h320v60h-320z" stroke="#000000" stroke-width="12.0" id="path_1"/><path fill="#ffffff" d="M416,282v160H96V282c0,-11 8,-20 20,-20h280C407,262 416,270 416,282z" stroke="#000000" stroke-width="12.0" id="path_2"/><path fill="#ffffff" d="M376,10v120c0,11 -8,20 -20,20H156c-11,0 -20,-8 -20,-20V10C148,10 364,10 376,10z" stroke="#000000" stroke-width="12.0" id="path_3"/><path fill="#4d5578" d="M276,10h40v100h-40z" stroke="#000000" stroke-width="12.0" id="path_4"/><path fill="none" d="M356,312H196 M356,372H156" stroke-linecap="round" stroke="#000000" stroke-width="12.0" id="path_5"/></svg>