<svg id="vector" xmlns="http://www.w3.org/2000/svg" width="24.0d" height="24.0d" viewBox="0 0 512.0 512.0"><path fill="#fef48b" d="M268,256m-75,0a75,75 0,1 1,150 0a75,75 0,1 1,-150 0z" stroke="#000000" stroke-width="12.0" id="path_0"/><path fill="none" d="M290,186l-50,68h60l-50,68" stroke-linejoin="round" stroke-linecap="round" stroke="#000000" stroke-width="16.0" id="path_1"/><path fill="none" d="M72,256 a32,64 45, 1 1,  364 0 a32,64 45, 1 1, -364 0z" stroke="#000000" stroke-width="12.0" id="path_2"/><path fill="none" d="M72,256 a32,64 -45, 1 1,  364 0 a32,64 -45, 1 1, -364 0z" stroke="#000000" stroke-width="12.0" id="path_3"/><path fill="#60b7ff" d="M467,105m-30,0a30,30 0,1 1,60 0a30,30 0,1 1,-60 0z" stroke="#000000" stroke-width="12.0" id="path_4"/><path fill="#fd8087" d="M50,191m-30,0a30,30 0,1 1,60 0a30,30 0,1 1,-60 0z" stroke="#000000" stroke-width="12.0" id="path_5"/><path fill="#97d729" d="M318,474m-30,0a30,30 0,1 1,60 0a30,30 0,1 1,-60 0z" stroke="#000000" stroke-width="12.0" id="path_6"/></svg>