<svg id="vector" xmlns="http://www.w3.org/2000/svg" width="24.0d" height="24.0d" viewBox="0 0 512.0 512.0"><path fill="#efedef" d="M497,224L497,287L459,282L445,334L480,349L448,404L418,380L380,418L404,448L349,480L334,445L282,459L287,497L224,497L229,459L177,445L162,480L107,448L131,418L93,380L63,404L31,349L66,334L52,282L14,287L14,224L52,229L66,177L31,162L63,107L93,131L131,93L107,63L162,31L177,66L229,52L224,14L287,14L282,52L334,66L349,31L404,63L380,93L418,131L448,107L480,162L445,177L459,229z" stroke="#000000" stroke-width="12.0" id="path_0"/><path fill="#e5e1e5" d="m256,88c92.6,0 167.6,75 167.6,167.6s-75,167.6 -167.6,167.6 -167.6,-75 -167.6,-167.6 75,-167.6 167.6,-167.6zM391.4,256c0,-74.8 -60.6,-135.5 -135.5,-135.5s-135.5,60.6 -135.5,135.5 60.6,135.5 135.5,135.5 135.5,-60.6 135.5,-135.5z" stroke="#000000" stroke-width="12.0" id="path_1"/><path fill="#d7d0d6" d="m256,120.3c74.8,0 135.5,60.6 135.5,135.5s-60.6,135.5 -135.5,135.5 -135.5,-60.6 -135.5,-135.5 60.6,-135.5 135.5,-135.5zM323,256c0,-37 -30,-67 -67,-67s-67,30 -67,67 30,67 67,67 67,-30 67,-67z" id="path_2"/></svg>