<svg id="vector" xmlns="http://www.w3.org/2000/svg" width="24.0d" height="24.0d" viewBox="0 0 512.0 512.0"><path fill="#d96330" d="M302,242c-19,-18 -18,-49 0,-68c5,-5 15,-5 21,0c5,5 5,15 0,21c-7,7 -7,18 0,25s18,7 25,0c5,-5 15,-5 21,0c5,5 5,15 0,21C352,261 321,261 302,242z" id="path_0"/><path fill="#d96330" d="M236,231c-1,-1 -2,-2 -3,-4c-11,-25 -15,-52 -10,-80c4,-28 17,-53 38,-73c20,-20 47,-34 76,-38c28,-4 57,0 82,13c7,3 10,13 6,20c-3,7 -13,10 -20,6c-41,-21 -90,-13 -123,19c-31,31 -39,79 -21,119c3,7 0,16 -7,20C247,237 241,236 236,231z" id="path_1"/><path fill="#ffda68" d="M261,95c-5,-5 -5,-15 0,-21c20,-20 47,-34 76,-38c28,-4 57,0 82,13c7,3 10,13 6,20c-4,9 -11,18 -18,25C367,135 301,135 261,95z" id="path_2"/><path fill="#a2400e" d="M313,308c-4,-4 -5,-11 -3,-17c3,-7 12,-11 20,-7c40,18 88,9 119,-21c32,-32 40,-82 19,-123c-3,-7 -0,-16 6,-20c7,-3 16,-0 20,6c13,25 17,54 13,82c-4,29 -17,55 -38,76c-20,20 -45,33 -73,38c-27,4 -55,1 -80,-10C316,311 315,310 313,308z" id="path_3"/><path fill="#ffa426" d="M450,284c-40,-40 -40,-106 0,-147c7,-7 16,-14 25,-18c7,-3 16,-0 20,6c13,25 17,54 13,82c-4,29 -17,55 -38,76C465,290 456,290 450,284z" id="path_4"/><path fill="none" d="M188,284l-30,-15l-10-30M218,244l-25,-20l0-30M158,324l-30,-15l-10-30" stroke-linejoin="round" stroke-linecap="round" stroke="#d96330" stroke-width="28.0" id="path_5"/><path fill="none" d="M305,341l15,15h35M260,361l15,25l35,15M220,391l5,25l35,15" stroke-linejoin="round" stroke-linecap="round" stroke="#a2400e" stroke-width="28.0" id="path_6"/><path fill="#d96330" d="M42,458c-10,-10 -17,-25 -20,-43c-3,-20 0,-38 0,-39l30,5c-0,0 -2,14 -0,29c2,17 11,28 24,33c10,3 20,3 29,-1c27,-14 46,-59 51,-76l29,9c-0,2 -22,71 -67,94c-17,8 -35,9 -53,3C57,471 49,465 42,458z" id="path_7"/><path fill="#ffda68" d="M163,382c-15,-15 -11,-42 12,-87c16,-31 38,-61 49,-73c27,-27 71,-27 98,0c27,27 27,71 0,98c-11,11 -42,33 -73,49C206,393 178,397 163,382z" id="path_8"/><path fill="#ffda68" d="M12,381c-1,-1 -2,-2 -3,-4c-6,-8 -9,-19 -8,-30c2,-16 26,-53 37,-68c3,-4 8,-7 14,-6c5,0 10,4 12,10c6,17 19,59 17,75l0,0c-3,22 -23,38 -46,35C26,391 18,387 12,380z" id="path_9"/></svg>