<svg id="vector" xmlns="http://www.w3.org/2000/svg" width="24.0d" height="24.0d" viewBox="0 0 682.6 682.6"><path fill="#818181" d="m672.6,341.3c0,182.9 -148.3,331.3 -331.3,331.3 -182.9,-0 -331.3,-148.3 -331.3,-331.3 0,-182.9 148.3,-331.3 331.3,-331.3C524.3,10 672.6,158.3 672.6,341.3" id="path_0"/><path fill="#595959" d="m545.2,80c43.9,56.2 70,127 70,203.9 0,182.9 -148.3,331.3 -331.3,331.3 -76.9,-0 -147.6,-26.2 -203.9,-70 60.6,77.5 155,127.4 261,127.4 182.9,-0 331.3,-148.3 331.3,-331.3C672.6,235.2 622.8,140.8 545.2,80" id="path_1"/><path fill="none" d="m571,580c-59.5,57.3 -140.5,92.6 -229.7,92.6 -182.9,-0 -331.3,-148.3 -331.3,-331.3 0,-89 35,-170 92.4,-229.5" stroke-linecap="round" stroke="#000000" stroke-width="20.0" id="path_2"/><path fill="none" d="m137.4,80c56.2,-43.9 127,-70 203.9,-70 182.9,-0 331.3,148.3 331.3,331.3 0,76.9 -26.2,147.8 -70.3,204" stroke-linecap="round" stroke="#000000" stroke-width="20.0" id="path_3"/></svg>