<svg id="vector" xmlns="http://www.w3.org/2000/svg" width="24.0d" height="24.0d" viewBox="0 0 512.0 512.0"><path fill="#27536b" d="M255,255m-255,0a255,255 0,1 1,511 0a255,255 0,1 1,-511 0" id="path_0"/><path fill="#ffffff" d="M141,129l48,-5l-48,-5l-5,-48l-5,48l-48,5l48,5l5,48z" id="path_1"/><path fill="#ffffff" d="M367,280l37,-4l-37,-4l-4,-37l-4,37l-37,4l37,4l4,37z" id="path_2"/><path fill="#ffffff" d="M164,364l28,-3l-28,-3l-3,-28l-3,28l-28,3l28,3l3,28z" id="path_3"/><path fill="none" d="M179,178l1,1M275,372l1,1M396,136l1,1M285,185l1,1M439,231l1,1M355,74l1,1M79,391l1,1M258,40l1,1M362,472l1,1M62,151l1,1" stroke-linecap="square" stroke="#ffffff" stroke-width="16.0" id="path_4"/></svg>