<svg id="vector" xmlns="http://www.w3.org/2000/svg" width="24.0d" height="24.0d" viewBox="0 0 512.0 512.0"><path fill="#d88a55" d="M118,121h-74c-2,0 -5,2 -5,5v18c0,2 2,5 5,5h74zM468,121h-74v28h74c2,0 5,-2 5,-5v-18c0,-2 -2,-5 -5,-5zM242,379h28v124h-28z" stroke="#000000" stroke-width="12.0" id="path_0"/><path fill="#fed402" d="m300,121c-10,13 -26,22 -44,22s-34,-8 -44,-22h-92v60c0,2 2,5 5,5h39c2,0 5,2 5,5v21h175v-21c0,-2 2,-5 5,-5h39c2,0 5,-2 5,-5v-60z" stroke="#000000" stroke-width="12.0" id="path_1"/><path fill="#89a8ec" d="M218,213v-84c-2,-2 -4,-4 -6,-7h-18v92h25zM318,213v-92h-18c-2,2 -4,5 -6,7v84zM333,379h-155c-5,0 -10,-4 -10,-10v-155h175v155c0,5 -4,9 -10,9z" stroke="#000000" stroke-width="12.0" id="path_2"/><path fill="#d88a55" d="m201,81c-0,2 -0,4 -0,7 0,30 24,55 55,55s55,-24 55,-55c0,-2 -0,-5 -0,-7z" stroke="#000000" stroke-width="12.0" id="path_3"/><path fill="#fed402" d="m316,54v-17c0,-16 -13,-30 -30,-30h-60c-16,0 -30,13 -30,30v17z" stroke="#000000" stroke-width="12.0" id="path_4"/><path fill="#fac600" d="m353,81h-194c-2,0 -5,-2 -5,-5v-17c0,-2 2,-5 5,-5h194c2,0 5,2 5,5v17c0,2 -2,5 -5,5z" stroke="#000000" stroke-width="12.0" id="path_5"/><path fill="#ffffff" d="m291,287h-71c-2,0 -5,-2 -5,-5v-27c0,-2 2,-5 5,-5h71c2,0 5,2 5,5v27c0,2 -2,5 -5,5z" stroke="#000000" stroke-width="12.0" id="path_6"/></svg>