<svg id="vector" xmlns="http://www.w3.org/2000/svg" width="24.0d" height="24.0d" viewBox="0 0 512.0 511.0"><path fill="#000000" d="m447,115c-63,-63 -155,-91 -245,-73 -91,17 -165,79 -202,168l27,11c33,-79 99,-134 180,-150 79,-15 161,8 218,65 113,113 38,309 -105,309 -39,0 -77,-15 -105,-43 -45,-45 -45,-117 0,-163 34,-34 91,-34 126,0 40,40 13,111 -36,111 -23,0 -47,-17 -47,-42 0,-17 12,-35 30,-35 7,0 14,2 19,8l21,-21c-10,-10 -25,-16 -40,-16 -53,0 -82,71 -40,113 15,15 35,23 57,23 76,0 117,-102 57,-163 -46,-46 -122,-46 -168,0 -27,27 -42,63 -42,102 0,38 15,75 42,102 33,33 78,52 126,52 113,0 190,-101 190,-206 0,-58 -22,-113 -64,-154z" id="path_0"/></svg>