<svg id="vector" xmlns="http://www.w3.org/2000/svg" width="24.0d" height="24.0d" viewBox="0 0 512.0 512.0"><path fill="#a3defe" d="M121,138a49,49 0,1 0,70 -70a49,49 0,1 0,-70 70z" id="path_0"/><path fill="#a3defe" d="M124,298m-65,0a65,65 0,1 1,131 0a65,65 0,1 1,-131 0" id="path_1"/><path fill="#7acefa" d="m124,364c36,0 65,-29 65,-65 0,-11 -3,-22 -8,-31 -27,1 -53,12 -74,31 -16,-2 -33,-1 -49,2 0,35 29,64 65,64z" id="path_2"/><path fill="#a3defe" d="m240,347c0,-46 38,-85 84,-85 25,0 48,11 63,29 3,4 9,5 14,3 10,-3 21,-5 32,-4 43,2 78,37 80,80 2,48 -36,88 -84,88h-191z" id="path_3"/><path fill="#7acefa" d="m392,295c-2,-0 -5,-2 -7,-4 -15,-18 -38,-29 -63,-29 -46,-0 -84,39 -84,85v111h191c10,0 19,-1 28,-4 -67,-31 -74,-110 -64,-158z" id="path_4"/><path fill="#ceeafb" d="m380,411c-0,-0 -0,-0 -0,-1 -2,-44 -38,-80 -82,-83 -10,-0 -20,0 -29,3 -5,1 -11,-0 -14,-4 -16,-17 -39,-28 -65,-28 -25,0 -48,10 -64,28 -3,3 -8,5 -13,4 -8,-2 -17,-3 -26,-2 -44,2 -80,38 -83,83 -0,0 -0,0 -0,1 -1,25 19,46 44,46h290c25,0 45,-21 44,-46z" id="path_5"/><path fill="#a3defe" d="M288,225a58,58 58,1 0,27 -114a58,58 58,1 0,-27 114z" id="path_6"/><path fill="#7acefa" d="m287,225c4,1 9,1 14,1 32,0 58,-26 58,-58 0,-9 -2,-18 -6,-26 -35,12 -62,44 -66,83z" id="path_7"/><path fill="#ceeafb" d="M372,306a70,70 58,1 0,33 -137a70,70 58,1 0,-33 137z" id="path_8"/><path fill="#a3defe" d="m150,458c-61,-35 -56,-96 -45,-129 -6,-1 -14,-1 -21,-1 -44,2 -80,38 -83,83 -0,0 -0,0 -0,1 -1,25 19,46 44,46h105z" id="path_9"/><path fill="#ffffff" d="M82,412a29,23 0,1 0,59 0a29,23 0,1 0,-59 0z" id="path_10"/><path fill="#ffffff" d="M243,412a29,23 0,1 0,59 0a29,23 0,1 0,-59 0z" id="path_11"/></svg>