<svg width="100" height="100" viewBox="0 0 100 100" fill="none" xmlns="http://www.w3.org/2000/svg">
<g clip-path="url(#clip0_8_44)">
<path d="M71.42 90.33H24.28C22.938 90.33 21.85 91.418 21.85 92.76V97.57C21.85 98.9121 22.938 100 24.28 100H71.42C72.7621 100 73.85 98.9121 73.85 97.57V92.76C73.85 91.418 72.7621 90.33 71.42 90.33Z" fill="#E0E0E0"/>
<path d="M73.85 73.09H21.85V95.17H73.85V73.09Z" fill="#EEEEEE"/>
<path d="M71.42 68.88H24.28C22.938 68.88 21.85 69.968 21.85 71.31V76.12C21.85 77.4621 22.938 78.55 24.28 78.55H71.42C72.7621 78.55 73.85 77.4621 73.85 76.12V71.31C73.85 69.968 72.7621 68.88 71.42 68.88Z" fill="#E0E0E0"/>
<path d="M36.14 36.47H36.05H35.99L35.84 36.53C35.96 36.53 36.08 36.46 36.2 36.42L36.14 36.47Z" fill="white"/>
<path d="M60.4217 82H35.5783C34.7066 82 34 82.5212 34 83.1641V91.8359C34 92.4788 34.7066 93 35.5783 93H60.4217C61.2934 93 62 92.4788 62 91.8359V83.1641C62 82.5212 61.2934 82 60.4217 82Z" fill="#FFC640"/>
<path d="M56.61 84.84H40.09C40.0182 84.84 39.96 84.8982 39.96 84.97V85.24C39.96 85.3118 40.0182 85.37 40.09 85.37H56.61C56.6818 85.37 56.74 85.3118 56.74 85.24V84.97C56.74 84.8982 56.6818 84.84 56.61 84.84Z" fill="#F37D3B"/>
<path d="M56.61 86.85H40.09C40.0182 86.85 39.96 86.9082 39.96 86.98V87.25C39.96 87.3218 40.0182 87.38 40.09 87.38H56.61C56.6818 87.38 56.74 87.3218 56.74 87.25V86.98C56.74 86.9082 56.6818 86.85 56.61 86.85Z" fill="#F37D3B"/>
<path d="M56.61 90.39H40.09C40.0182 90.39 39.96 90.4482 39.96 90.52V90.79C39.96 90.8618 40.0182 90.92 40.09 90.92H56.61C56.6818 90.92 56.74 90.8618 56.74 90.79V90.52C56.74 90.4482 56.6818 90.39 56.61 90.39Z" fill="#F37D3B"/>
<path d="M53.5195 43.3242C54.4766 43.3242 55.2969 42.9141 55.9805 42.2305L57.0742 41C57.8945 40.1797 58.3047 38.9492 58.3047 37.7188V34.7109C58.3047 33.3438 57.3477 31.9766 55.9805 31.7031L50.375 30.1992C49.8281 30.0625 49.418 29.5156 49.418 28.9688V26.6445H49.0078C51.1953 25.0039 52.6992 21.8594 52.6992 18.0313C52.6992 14.4766 51.4688 11.0586 49.418 9.14453C46.957 6.41016 39.8477 7.77735 38.6172 10.5117C34.3789 10.7852 32.875 14.3398 35.6094 17.8945C35.6094 22.8164 39.8477 23.2266 39.8477 23.2266C39.8477 23.2266 39.8477 23.2266 39.9844 23.2266C40.668 24.8672 41.8984 26.0977 43.2656 26.918H42.7188V29.2422C42.7188 29.5156 42.582 29.7891 42.3086 29.9258L33.2852 34.1641C31.6445 34.8477 30.6875 36.4883 30.6875 38.4023V44.0078C30.6875 44.9648 31.3711 45.6484 32.3281 45.6484H34.3789V42.3672H34.5156L36.9766 51.6641C36.9766 51.6641 33.9688 59.0469 33.9688 62.7383C33.9688 66.4297 38.6172 74.6328 38.6172 74.6328H54.2031C54.2031 74.6328 58.5781 63.832 56.8008 57.9531C56.1172 55.4922 52.5625 50.8437 52.5625 50.8437L53.2461 43.4609L53.5195 43.3242Z" fill="#EFEEEE" stroke="black" stroke-width="0.5625"/>
<path d="M53.5195 43.3242C54.4766 43.3242 55.2969 42.9141 55.9805 42.2305L57.0742 41C57.8945 40.1797 58.3047 38.9492 58.3047 37.7188V34.7109C58.3047 33.3438 57.3477 31.9766 55.9805 31.7031L50.375 30.1992C49.8281 30.0625 49.418 29.5156 49.418 28.9688V26.918C47.2305 27.4648 44.9062 27.7383 42.7188 27.1914H42.582V29.5156C42.582 29.7891 42.4453 30.0625 42.1719 30.1992L33.1484 34.4375C31.5078 35.1211 30.5508 36.7617 30.5508 38.6758V44.2812C30.5508 45.2383 31.2344 45.9219 32.1914 45.9219H34.2422V42.6406H34.3789L36.8398 51.9375C36.8398 51.9375 33.832 59.3203 33.832 63.0117C33.832 66.7031 38.7539 74.4961 38.7539 74.4961H54.2031C54.2031 74.4961 58.5781 63.6953 56.8008 57.8164C56.1172 55.3555 52.5625 50.707 52.5625 50.707L53.2461 43.3242H53.3828H53.5195Z" fill="#D1D3D4" stroke="black" stroke-width="0.5625"/>
<path d="M40.3945 72.1719C41.7617 71.7617 42.7188 71.0781 43.8125 70.1211C44.7695 69.3008 45.7266 68.3438 46.6836 67.3867C47.5039 66.7031 48.3242 65.8828 49.0078 64.9258C50.2383 63.2852 51.0586 61.2344 51.6055 59.1836C52.1523 57.1328 52.9727 55.082 53.793 53.0312C53.6562 52.7578 53.3828 52.4844 53.2461 52.2109C52.6992 52.6211 52.1523 53.0312 51.6055 53.4414C48.5977 55.7656 46.2734 59.1836 43.1289 61.5078C40.3945 63.5586 37.25 64.5156 33.832 64.9258C34.5156 67.5234 36.293 71.0781 37.5234 72.9922C38.6172 72.7188 39.4375 72.582 40.3945 72.1719Z" fill="#EFEEEE" stroke="black" stroke-width="0.5625"/>
<path d="M40.5313 45.9219H39.0273C38.3438 45.9219 37.6602 45.375 37.6602 44.5547C37.6602 43.8711 38.207 43.1875 39.0273 43.1875H40.5313C41.4883 43.1875 42.4453 42.7773 42.9922 41.8203L43.4023 41.1367C43.8125 40.5898 44.6328 40.3164 45.1797 40.7266C45.7266 41.1367 46 41.957 45.5898 42.5039L45.1797 43.1875C44.3594 44.9648 42.582 45.9219 40.5313 45.9219Z" fill="black"/>
<path d="M39.9844 22.9531C41.3516 21.5859 43.2656 20.2188 41.625 18.0312C47.0938 16.6641 46 15.2969 46.5469 12.5625C52.0156 13.9297 50.9219 15.2969 52.5625 18.0312M47.6406 43.4609H53.1094" stroke="black" stroke-width="0.75" stroke-linecap="round" stroke-linejoin="round"/>
</g>
<defs>
<clipPath id="clip0_8_44">
<rect width="100" height="100" fill="white"/>
</clipPath>
</defs>
</svg>
