<svg id="vector" xmlns="http://www.w3.org/2000/svg" width="24.0d" height="24.0d" viewBox="0 0 512.0 512.0"><path fill="#995f9f" d="M176,232l40,64c0,0 -64,48 -152,16C159,288 176,232 176,232z" id="path_0"/><path fill="#c5a3c8" d="M63,312c-24,-8 -80,-48 -24,-128l56,32C95,216 55,248 63,312z" id="path_1"/><path fill="#f6c053" d="M272,15l56,0l6,128l40,104l57,-112l-1,-128l57,0l-8,136l-88,160l16,88l-8,112l-49,0l9,-128l-16,-80l-64,-144z" id="path_2"/><path fill="#000000" d="M497,121l-7,-0l1,-17l6,-0c4,-0 7,-4 6,-8c-0,-4 -4,-7 -8,-6l-3,0l4,-79C496,3 492,0 488,0h-57c-4,0 -7,3 -7,7l0,47c-0,0 -0,0 -0,0c-18,19 -47,49 -82,81l-1,-23l2,-0c4,-0 7,-4 7,-8c-0,-4 -4,-7 -8,-7l-1,0l-0,-17l7,-2c4,-1 6,-5 5,-9c-1,-4 -5,-6 -9,-5l-4,1l-2,-50c-0,-4 -3,-7 -7,-7h-56c-4,0 -7,3 -7,8l2,34c-44,23 -117,64 -169,110c-1,-0 -2,-0 -3,0l-56,16c-1,0 -3,1 -4,3c-23,33 -30,63 -21,90c9,28 35,44 49,49c23,8 44,11 63,11c20,0 37,-3 50,-7c27,-8 44,-20 45,-21c1,-1 2,-2 2,-4l15,-52c17,-13 36,-28 55,-45l43,97l15,78l-9,127c-0,4 3,8 7,8h49c4,0 7,-3 7,-7l8,-112c0,-0 0,-1 -0,-1l-15,-85l54,-98c2,-3 0,-8 -3,-10c-3,-2 -8,-0 -10,3l-55,100c-0,1 -1,3 -0,5l15,87l-7,104h-34l9,-120c0,-0 0,-1 -0,-2l-16,-80c-0,-0 -0,-1 -0,-1l-63,-143l-2,-32l40,-3l1,29c0,0 0,1 0,2l40,104c1,2 3,4 6,4c3,0 5,-1 7,-4l57,-112c0,-1 0,-2 0,-3l-0,-5l33,3l-0,7l-16,30c-2,3 -0,8 3,10c3,2 8,0 10,-3l17,-32c0,-1 0,-2 1,-3l0,-9l7,0c0,0 0,0 0,0c3,0 7,-3 7,-6C504,125 501,121 497,121zM321,23l2,46l-40,10l-3,-56H321zM58,186l16,-4c-3,3 -5,6 -8,9L58,186zM88,189v13l-7,-4C82,195 85,192 88,189zM25,265c-6,-20 -1,-44 16,-71l41,23c-11,12 -29,39 -28,82C44,293 31,282 25,265zM90,312c53,-18 76,-47 86,-64L205,293C190,302 147,324 90,312zM190,241l23,3c-5,3 -9,7 -14,10L190,241zM213,277l-6,-9c3,-2 7,-5 11,-7L213,277zM272,152c0,1 0,1 0,2l14,31c-19,17 -38,32 -56,46l-54,-7c-3,-0 -7,1 -8,5c-0,0 -15,49 -98,72c-1,-21 3,-41 12,-58c8,-14 17,-22 17,-22c1,-1 2,-3 2,-5v-40c48,-44 118,-85 164,-109l1,17l-7,1c-4,1 -6,5 -5,9c0,3 4,5 7,5c0,0 1,-0 2,-0l4,-1l0,4l-6,0c-4,0 -7,4 -7,8c0,4 3,7 7,7c0,0 0,-0 0,-0l6,-0L272,152zM284,102l-0,-7l39,-10l0,14L284,102zM480,15l-4,74L439,93l-1,-78H480zM424,134l-49,95l-29,-76c31,-29 58,-56 78,-76l0,19l-7,1c-4,0 -7,4 -6,8c0,3 3,6 7,6c0,0 0,-0 0,-0l6,-0l0,3l-6,-0c-4,-0 -7,2 -8,6c-0,4 2,7 6,8l7,0L424,134zM439,115l-0,-6l35,-4l-0,14L439,115z" id="path_3"/></svg>