<svg id="vector" xmlns="http://www.w3.org/2000/svg" width="24.0d" height="24.0d" viewBox="0 0 512.0 512.0"><path fill="#ff6e37" d="M175,23l40,38c35,33 89,39 130,13l47,-29c29,-18 64,13 49,44l-23,50c-21,44 -9,96 27,128l42,36c26,22 7,65 -27,61l-55,-7c-48,-6 -95,20 -113,65l-21,51c-13,32 -60,27 -66,-7l-10,-54c-9,-48 -49,-84 -97,-87l-55,-4c-34,-2 -44,-48 -14,-65l48,-26c42,-23 64,-72 53,-120l-12,-54C109,23 150,-0 175,23z" stroke="#000000" stroke-width="12.0" id="path_0"/><path fill="none" d="M200,153l-8,-13M179,105l-8,-13M240,211l-8,-13M152,248l-15,3M198,257l15,-3M93,263l-15,3M247,237l-1,16M335,167l11,-11M278,197l11,-11M260,315l1,-16M377,123l11,-11M255,376l1,-16M239,446l1,-16M433,315l-14,-6M303,253l14,6M358,279l14,6" stroke-linecap="round" stroke="#000000" stroke-width="16.0" id="path_1"/><path fill="none" d="M46,117h0M80,156h0M35,187h0" stroke-linecap="round" stroke="#000000" stroke-width="16.0" id="path_2"/></svg>