<svg id="vector" xmlns="http://www.w3.org/2000/svg" width="24.0d" height="24.0d" viewBox="0 0 512.0 512.0"><path fill="#665e68" d="m344,205c-214,-73 -70,-161 3,-196 1,-0 0,-2 -0,-1h-52c-8,0 -16,2 -23,5 -82,40 -249,138 -114,220 154,94 -11,217 -97,270h339c45,-64 139,-233 -53,-299z" stroke="#000000" stroke-width="16.0" id="path_0"/><path fill="#ffd301" d="m361,187c-204,-63 -86,-135 -10,-172 3,-1 2,-7 -1,-7h-2c-71,33 -226,123 -7,198 193,66 99,234 53,299h38c9,0 18,-5 23,-15 43,-89 84,-247 -93,-301z" stroke="#000000" stroke-width="16.0" id="path_1"/><path fill="#ffc20c" d="m158,234c-99,-60 -36,-130 37,-178 -82,46 -177,122 -66,191 130,79 -6,180 -106,241 -7,4 -4,17 4,16h33c86,-52 251,-176 97,-270z" stroke="#000000" stroke-width="16.0" id="path_2"/><path fill="#050402" d="m230,62c-2,-3 -6,-4 -10,-2 -0,0 -2,1 -5,3 -3,2 -4,7 -2,10 2,3 7,4 10,2 2,-1 4,-3 4,-3 3,-2 4,-6 2,-10z" id="path_3"/><path fill="#050402" d="m292,415c-2,3 -5,6 -8,9 -2,3 -2,7 0,10 3,2 7,2 10,-0 2,-3 5,-6 8,-9 2,-3 2,-7 -0,-10 -3,-2 -7,-2 -10,0z" id="path_4"/><path fill="#050402" d="m331,369c-3,-1 -8,-0 -10,3 -1,3 -3,6 -5,10 -2,3 -0,8 2,10 3,2 8,0 10,-2 2,-3 4,-7 6,-11 1,-3 0,-8 -3,-10z" id="path_5"/><path fill="#050402" d="m346,337c0,-2 0,-4 0,-7 0,-2 -0,-4 -0,-6 -0,-4 -3,-7 -8,-7 -4,0 -7,3 -7,8 0,1 0,3 0,5 0,2 -0,4 -0,6 -0,4 2,7 6,8 4,0 7,-2 8,-6z" id="path_6"/><path fill="#050402" d="m324,272c-2,-3 -7,-3 -10,-0s-3,7 -0,10c2,3 4,6 6,9 2,3 7,4 10,2 3,-2 4,-7 2,-10 -2,-3 -5,-7 -8,-10z" id="path_7"/><path fill="#050402" d="m291,244c-3,-2 -7,-4 -10,-6 -3,-2 -8,-0 -10,2s-0,8 2,10c3,2 6,4 10,6 3,2 8,1 10,-2 2,-3 1,-8 -2,-10z" id="path_8"/><path fill="#050402" d="m233,214c-3,-2 -8,-0 -10,3 -2,3 -0,8 3,10 3,2 7,4 11,5 3,1 8,0 10,-3 1,-3 0,-8 -3,-10 -3,-1 -7,-3 -10,-5z" id="path_9"/><path fill="#050402" d="m191,203c3,2 7,2 10,-0 2,-3 2,-7 -0,-10 -3,-2 -5,-5 -8,-7 -2,-3 -7,-3 -10,-0s-3,7 -0,10c2,3 6,6 9,8z" id="path_10"/><path fill="#050402" d="m166,135c-4,-0 -7,3 -7,7 -0,0 -0,1 -0,1 0,4 0,8 1,12 0,4 4,6 8,5 4,-0 6,-4 5,-8 -0,-3 -1,-6 -1,-9 0,-0 0,-0 0,-1 0,-4 -3,-7 -7,-7z" id="path_11"/><path fill="#050402" d="m175,111c3,2 8,1 10,-1 2,-3 4,-6 7,-8 2,-3 2,-7 -0,-10 -3,-2 -7,-2 -10,0 -3,3 -5,6 -8,10 -2,3 -1,8 1,10z" id="path_12"/><path fill="#050402" d="m255,451c-2,2 -4,3 -4,3 -3,2 -4,7 -1,10 2,3 7,4 10,1 0,-0 1,-1 5,-4 3,-2 3,-7 1,-10 -2,-3 -7,-3 -10,-1z" id="path_13"/></svg>