<svg id="vector" xmlns="http://www.w3.org/2000/svg" width="24.0d" height="24.0d" viewBox="0 0 682.0 682.0"><path fill="#feb541" d="m657,230l0,262c0,7 -5,13 -13,13L287,505c-7,-0 -13,-5 -13,-13L273,230c0,-7 5,-13 13,-13L643,216C651,216 657,222 657,230" stroke="#000000" stroke-width="20.0" id="path_0"/><path fill="#fd9a01" d="m629,256c0,-0 24,11 41,33 4,5 -1,14 -8,11 -10,-3 -19,-5 -38,-2z" id="path_1"/><path fill="none" d="M574,204 L561,517 M370,204L370,517 M666,361 L264,381 M629,256c0,-0 24,11 41,33 4,5 -1,14 -8,11 -10,-3 -19,-5 -38,-2" stroke-linecap="round" stroke="#000000" stroke-width="20.0" id="path_2"/><path fill="#ffd693" d="m436,190l0,302c0,7 -5,13 -13,13L66,505c-7,-0 -13,-5 -13,-13L53,190c0,-7 5,-13 13,-13L423,176C430,176 436,182 436,190" stroke="#000000" stroke-width="20.0" id="path_3"/><path fill="none" d="M413,456C413,456 441,460 464,477 M442,437C442,437 464,439 480,448 M156,164 L142,517 M327,164 L340,517 M44,341L445,341" stroke-linecap="round" stroke="#000000" stroke-width="20.0" id="path_4"/><path fill="#ffd693" d="m71,370c0,-0 -38,17 -60,52 -3,5 2,12 8,9 14,-5 36,-11 68,-6" stroke-linecap="round" stroke="#000000" stroke-width="20.0" id="path_5"/><path fill="#fdc266" d="m415,240c0,-0 38,17 60,52 3,5 -2,12 -8,9 -14,-5 -36,-11 -68,-6z" id="path_6"/><path fill="none" d="m415,240c0,-0 38,17 60,52 3,5 -2,12 -8,9 -14,-5 -36,-11 -68,-6" stroke-linecap="round" stroke="#000000" stroke-width="20.0" id="path_7"/><path fill="#ffd693" d="m212,312c0,-0 -9,16 -5,72 0,6 9,8 12,2 11,-19 32,-49 64,-74z" id="path_8"/><path fill="none" d="M212,312c0,-0 -9,16 -5,72 0,6 9,8 12,2 11,-19 32,-49 64,-74 M149,273C149,273 115,285 96,305 M149,254C149,254 130,252 107,259 M438,248C438,248 450,246 473,248 M53,430C53,430 36,436 21,464 M196,429 L194,441 M224,432 L223,441 M278,221 L280,233 M250,224 L252,233 M377,376 L379,389 M438,213C438,213 453,196 472,190 M502,309 L500,321 M530,312 L528,321" stroke-linecap="round" stroke="#000000" stroke-width="20.0" id="path_9"/></svg>