<svg id="vector" xmlns="http://www.w3.org/2000/svg" width="24.0d" height="24.0d" viewBox="0 0 512.0 512.0"><path fill="#2bbdc4" d="m487,416c19,19 19,51 0,70 -19,19 -51,19 -70,0l-133,-145 59,-59zM487,416" stroke="#000000" stroke-width="16.0" id="path_0"/><path fill="#495d85" d="m313,256 l29,27 -59,59 -27,-29zM313,256" stroke="#000000" stroke-width="16.0" id="path_1"/><path fill="#e9eef0" d="m497,71 l-44,44h-28l-27,-28v-28l43,-44c-9,-3 -18,-4 -28,-4 -61,0 -104,60 -85,118l-85,85 -0,-0 -132,-132v-28l-70,-42 -28,28 42,70 28,0 132,133 0,0 -84,84c-58,-19 -118,23 -118,85 0,10 1,19 4,28l44,-44h28l28,28v28l-44,44c9,3 18,4 28,4 61,0 104,-60 85,-118 41,-41 157,-157 198,-198 9,3 18,4 28,4 49,0 90,-40 90,-90 0,-10 -1,-19 -4,-28zM497,71" stroke="#000000" stroke-width="16.0" id="path_2"/></svg>