<svg id="vector" xmlns="http://www.w3.org/2000/svg" width="24.0d" height="24.0d" viewBox="0 0 512.0 512.0"><path fill="#acacac" d="m496,225 l-94,-162c-10,-18 -30,-30 -52,-30h-188c-21,0 -41,11 -52,30l-94,162c-10,18 -10,41 0,60l94,162c10,18 30,30 52,30h188c21,0 41,-11 52,-30l94,-162c10,-18 10,-41 0,-60zM256,331c-41,0 -75,-34 -75,-75s34,-75 75,-75 75,34 75,75 -34,75 -75,75z" stroke="#000000" stroke-width="12.0" id="path_0"/><path fill="#acacac" d="m496,225 l-94,-162c-10,-18 -30,-30 -52,-30h-188c-21,0 -41,11 -52,30l-94,162c-10,18 -10,41 0,60l94,162c10,18 30,30 52,30h188c21,0 41,-11 52,-30l94,-162c10,-18 10,-41 0,-60zM256,331c-41,0 -75,-34 -75,-75s34,-75 75,-75 75,34 75,75 -34,75 -75,75z" stroke="#000000" stroke-width="12.0" id="path_1"/><path fill="#444444" d="m256,180c41,0 75,34 75,75s-34,75 -75,75 -75,-34 -75,-75 34,-75 75,-75m0,-35c-29,0 -57,11 -78,32s-32,48 -32,78 11,57 32,78 48,32 78,32 57,-11 78,-32 32,-48 32,-78 -11,-57 -32,-78 -48,-32 -78,-32z" stroke="#000000" stroke-width="12.0" id="path_2"/><path fill="#e49280" d="m129,387c12,-15 7,-38 -10,-46l-8,-3c-5,-2 -10,-6 -13,-11l-18,-30c-4,-7 -5,-16 -2,-24l12,-37c3,-10 0,-21 -7,-29l-32,-32 -31,54c-10,18 -10,41 0,60l81,140z" stroke="#000000" stroke-width="12.0" id="path_3"/><path fill="#e49280" d="m402,62c-10,-18 -30,-30 -52,-30h-94v37c0,5 2,11 7,14l22,16c3,2 7,3 11,3l36,-2c7,-0 15,4 17,11l18,52c1,5 6,9 11,11l19,5c5,1 10,5 12,11l3,11c3,10 14,14 24,10l38,-18z" stroke="#000000" stroke-width="12.0" id="path_4"/></svg>