<svg id="vector" xmlns="http://www.w3.org/2000/svg" width="24.0d" height="24.0d" viewBox="0 0 512.0 512.0"><path fill="#00cdf4" d="m10,10h492v492h-492z" stroke="#000000" stroke-width="16.0" id="path_0"/><path fill="#66e1f8" d="m418.7,458h-325.5c-21.6,0 -39.2,-17.5 -39.2,-39.2v-325.5c0,-21.6 17.5,-39.2 39.2,-39.2h325.5c21.6,0 39.2,17.5 39.2,39.2v325.5c0,21.6 -17.5,39.2 -39.2,39.2z" stroke="#000000" stroke-width="16.0" id="path_1"/><path fill="#000000" d="m299.6,194.2c18.4,0 33.5,-15 33.5,-33.5 0,-18.4 -15,-33.5 -33.5,-33.5 -0.6,0 -1.2,0 -1.9,0 6.5,-9.9 13.3,-15.2 13.5,-15.4 4.4,-3.3 5.3,-9.5 2,-13.9 -3.3,-4.4 -9.5,-5.3 -13.9,-2 -1,0.8 -28,21.3 -32.7,59.6 -0.2,1.7 -0.4,3.4 -0.4,5.2 0,18.4 15,33.5 33.5,33.5zM313,160.7c0,7.4 -6,13.5 -13.5,13.5s-13.5,-6 -13.5,-13.5 6,-13.5 13.5,-13.5 13.5,6 13.5,13.5z" id="path_2"/><path fill="#000000" d="m186.8,130c5.4,1 10.6,-2.4 11.7,-7.8 0.9,-4.7 5,-8 9.9,-8 5.7,0 10,5.4 10,10 0,4 -3.7,9.8 -6.9,14.3 -24.8,35.3 -27.8,39.4 -27.9,39.5 -2.2,3 -2.5,7 -0.8,10.4 1.7,3.3 5,5.4 8.9,5.4h40c5.5,0 10,-4.4 10,-10s-4.4,-10 -10,-10h-20.8c4,-5.7 9.4,-13.4 16.8,-23.9 5.5,-7.8 10.5,-16.3 10.5,-25.9 0,-16.3 -13.8,-30 -30,-30 -14.3,0 -26.8,10.2 -29.5,24.3 -1,5.4 2.4,10.6 7.8,11.7z" id="path_3"/><path fill="#000000" d="m165.4,396c5.5,0 10,-4.4 10,-10v-66.8h46.3c5.5,0 10,-4.4 10,-10s-4.4,-10 -10,-10h-46.3v-54h51c5.5,0 10,-4.4 10,-10s-4.4,-10 -10,-10h-61c-5.5,0 -10,4.4 -10,10v150.8c0,5.5 4.4,10 10,10z" id="path_4"/><path fill="#000000" d="m259,342.6c0,0 -0,0 -0,0 0,29.4 23.9,53.3 53.3,53.3 11.7,0 22.2,-3.8 30.4,-11 1.6,-1.4 3,-3 4.5,-4.6 3.5,-4.2 2.9,-10.5 -1.2,-14 -4.2,-3.5 -10.5,-2.9 -14,1.2 -0.7,0.9 -1.6,1.8 -2.5,2.5 -4.5,4 -10.3,6 -17,6 -14.4,0 -26.7,-9.2 -31.4,-22l65.5,0h0c2.6,0 5,-1 7,-2.9 1.8,-1.8 2.9,-4.4 2.9,-7v-6c0,-26.9 -21.9,-48.8 -48.8,-48.8s-48.8,21.9 -48.8,48.9c-0,0 0,4.4 0,4.4zM307.7,309.2c14.5,0 26.6,10.8 28.5,24.8l-57.1,-0c2,-13.9 14,-24.7 28.5,-24.7z" id="path_5"/></svg>