<svg id="vector" xmlns="http://www.w3.org/2000/svg" width="24.0d" height="24.0d" viewBox="0 0 512.0 512.0"><path fill="#4073c8" d="m469,110 l-20,-74c-4,-16 -20,-28 -38,-28h-18c18,0 27,21 14,33l-392,383c-0,0 -0,2 1,2l75,-0c0,-0 1,0 1,1l0,75c0,1 1,1 2,1l364,-356c9,-9 13,-24 10,-37z" stroke="#000000" stroke-width="12.0" id="path_0"/><path fill="#4073c8" d="m105,41 l80,78h140l80,-78c12,-12 3,-33 -14,-33h-272c-18,0 -27,21 -14,33z" stroke="#000000" stroke-width="12.0" id="path_1"/><path fill="#4073c8" d="m175,267 l81,-79 -150,-147c-12,-12 -3,-33 14,-33h-18c-17,0 -33,11 -38,28l-20,74c-3,13 0,27 10,37z" stroke="#000000" stroke-width="12.0" id="path_2"/><path fill="#4073c8" d="m498,424 l-161,-157 -81,79 161,157c0,0 2,0 2,-1l0,-75c0,-0 0,-1 1,-1l75,0c1,0 1,-1 1,-2z" stroke="#000000" stroke-width="12.0" id="path_3"/></svg>