<svg id="vector" xmlns="http://www.w3.org/2000/svg" width="24.0d" height="24.0d" viewBox="0 0 512.0 512.0"><path fill="#ffccbc" d="M205,46C91,46 0,108 0,185s91,138 205,138s205,-62 205,-138S318,46 205,46zM205,230c-40,0 -72,-20 -72,-45s32,-45 72,-45c40,0 72,20 72,45S245,230 205,230z" stroke="#000000" stroke-width="12.0" id="path_0"/><path fill="#78909c" d="M205,106c-60,0 -107,34 -107,78c0,44 47,78 107,78c60,0 107,-34 107,-78C312,141 265,106 205,106zM205,230c-40,0 -72,-20 -72,-45s32,-45 72,-45c40,0 72,20 72,45S245,230 205,230z" stroke="#000000" stroke-width="12.0" id="path_1"/><path fill="#37474f" d="M150,215c29,-20 80,-20 109,0c11,-8 18,-18 18,-29c0,-25 -32,-45 -72,-45c-40,0 -72,20 -72,45C132,196 138,207 150,215z" stroke="#000000" stroke-width="12.0" id="path_2"/><path fill="#ff7043" d="M209,324h200V185C409,261 320,322 209,324z" stroke="#000000" stroke-width="12.0" id="path_3"/><path fill="#ff7043" d="M509,459l-6,-15c-0,-1 -0,-2 0,-3l8,-20c0,-1 0,-2 0,-3l-8,-20c-0,-1 -0,-2 0,-3l8,-20c0,-1 0,-2 0,-3l-8,-20c-0,-1 -0,-2 0,-3l6,-15c1,-2 -0,-6 -4,-5H200C89,322 0,261 0,185v141c0,75 89,137 199,138c0,0 262,0 306,0C509,465 511,462 509,459z" stroke="#000000" stroke-width="12.0" id="path_4"/></svg>