<svg id="vector" xmlns="http://www.w3.org/2000/svg" width="24.0d" height="24.0d" viewBox="0 0 512.0 512.0"><path fill="#fae076" d="M463,113c18,-38 35,-61 44,-72c4,-5 5,-13 1,-19l-2,-4c-3,-4 -7,-9 -11,-11l-4,-2c-6,-3 -14,-3 -19,1c-11,9 -34,25 -72,44c-21,10 -34,30 -43,52l14,42l42,14C433,148 453,134 463,113z" stroke="#000000" stroke-width="4.0" id="path_0"/><path fill="#fae076" d="M369,142l-42,-14l-215,215l14,42l42,14l215,-215z" stroke="#000000" stroke-width="4.0" id="path_1"/><path fill="#fae076" d="M140,428l-14,-42l-42,-14c0,0 -15,24 -49,35l21,49l49,21C116,443 140,428 140,428z" stroke="#000000" stroke-width="4.0" id="path_2"/><path fill="#edbd4e" d="M411,157l-56,-56c-7,-7 -20,-7 -28,0l0,0c-7,7 -7,20 0,28l56,56c7,7 20,7 28,0l0,0C419,177 419,164 411,157z" stroke="#000000" stroke-width="4.0" id="path_3"/><path fill="#edbd4e" d="M168,400l-56,-56c-7,-7 -20,-7 -28,0l0,0c-7,7 -7,20 0,28l56,56c7,7 20,7 28,0l0,0C176,420 176,408 168,400z" stroke="#000000" stroke-width="4.0" id="path_4"/><path fill="#edbd4e" d="M104,478l-70,-70c-7,-7 -20,-7 -28,0l0,0c-7,7 -7,20 0,28l70,70c7,7 20,7 28,0l0,0C112,498 112,485 104,478z" stroke="#000000" stroke-width="4.0" id="path_5"/><path fill="#596674" d="M247,264m-14,0a14,14 0,1 1,28 0a14,14 0,1 1,-28 0zM285,226m-14,0a14,14 0,1 1,28 0a14,14 0,1 1,-28 0zM322,189m-14,0a14,14 0,1 1,28 0a14,14 0,1 1,-28 0zM210,301m-14,0a14,14 0,1 1,28 0a14,14 0,1 1,-28 0zM172,339m-14,0a14,14 0,1 1,28 0a14,14 0,1 1,-28 0zM90,421m-14,0a14,14 0,1 1,28 0a14,14 0,1 1,-28 0z" id="path_6"/><path fill="#596674" d="M454,73l-15,-15c-3,-3 -8,-3 -11,0L415,69c-7,7 -7,19 0,26c7,7 19,7 26,0l12,-12C457,81 457,76 454,73z" id="path_7"/></svg>