<svg id="vector" xmlns="http://www.w3.org/2000/svg" width="24.0d" height="24.0d" viewBox="0 0 512.0 512.0"><path fill="#c68a65" d="m28,404c16,-4 34,13 42,40s-0,51 -16,56l201,-54 186,-49c2,-0 3,-1 5,-2 12,-8 17,-30 10,-53 -7,-26 -26,-44 -42,-40l-23,6 -82,22 -54,14 -191,51z" stroke="#000000" stroke-width="12.0" id="path_0"/><path fill="#ddb9a3" d="M12,460a50,30 75,1 0,58 -15a50,30 75,1 0,-58 15zM457,501a50,30 105,1 0,26 -96a50,30 105,1 0,-26 96z" stroke="#000000" stroke-width="12.0" id="path_1"/><path fill="#d1a184" d="M447,395c-0,0 -0,0 0,0zM442,397 L256,447 457,501c-16,-4 -23,-29 -16,-56s26,-44 42,-40l-35,-9c-1,1 -3,1 -5,2zM64,395 l191,-51 -66,-17 -64,-17 -29,-8c-16,-4 -34,13 -42,40 -6,23 -1,45 10,53z" stroke="#000000" stroke-width="12.0" id="path_2"/><path fill="#ff9346" d="m189,326 l66,17 54,-14c17,-71 -14,-118 -37,-140 7,58 -42,94 -42,94 -17,-13 -19,-40 -19,-40 -22,22 -31,47 -21,83z" stroke="#000000" stroke-width="12.0" id="path_3"/><path fill="#ffc144" d="m189,326c-9,-35 -1,-60 21,-83 0,0 2,27 19,40 0,0 49,-35 42,-94 23,22 55,69 37,140l82,-22c39,-106 -25,-195 -25,-195 -8,44 -45,62 -45,62 30,-136 -71,-164 -71,-164 45,82 -33,75 -33,165 0,-36 -11,-64 -44,-86 24,99 -115,106 -47,220z" stroke="#000000" stroke-width="12.0" id="path_4"/></svg>