<svg width="100" height="100" viewBox="0 0 100 100" fill="none" xmlns="http://www.w3.org/2000/svg">
<g clip-path="url(#clip0_8_44)">
<path d="M55.704 0.164084C43.1863 0.640646 33.6563 2.69534 25.5155 6.67972C22.0543 8.36722 18.6009 10.6016 15.8537 12.9141C15.1009 13.5469 14.9457 13.7188 15.2018 13.6407C15.5665 13.5313 19.2528 12.625 20.898 12.2344C31.8093 9.6719 41.1763 8.27347 50.5355 7.81253C52.5843 7.71097 58.3115 7.71097 60.2051 7.81253C65.0787 8.07815 69.4091 8.6094 73.5144 9.46097C74.5388 9.67972 77.3869 10.3438 77.6042 10.4219C77.6663 10.4453 77.6741 10.5469 77.6197 10.7813C77.5499 11.0938 77.5577 11.1094 77.9767 11.6407L78.4035 12.1797L77.9767 14.2735C77.7361 15.4219 77.3869 17.1016 77.2007 18.0078C77.0144 18.9063 75.8814 24.3594 74.6863 30.1172C73.4911 35.875 71.1863 46.9844 69.5643 54.8047C67.9424 62.625 65.5443 74.1719 64.2406 80.4688C62.9368 86.7657 61.5244 93.5547 61.1053 95.5625C60.694 97.5782 60.3603 99.2188 60.3681 99.2188C60.5155 99.2188 62.3004 99.5938 63.0532 99.7813C63.5965 99.9219 64.0698 100.008 64.0931 99.9766C64.1242 99.9453 65.1175 95.2578 66.3049 89.5469C67.4845 83.8438 69.5798 73.7657 70.9534 67.1485C72.3193 60.5313 73.6851 53.9532 73.98 52.5391C74.2749 51.1172 75.5011 45.2344 76.6962 39.4532C79.684 25.0313 79.9091 23.9688 80.3437 21.875C81.5776 15.9453 82.1286 13.2735 82.1286 13.1797C82.1286 13.125 82.2916 12.8438 82.4856 12.5469L82.8426 12.0078L83.9446 6.52347C84.5421 3.50003 85.0233 1.01565 85 0.992209C84.9767 0.976584 83.9291 0.796896 82.6718 0.593771C81.4146 0.390646 80.2894 0.210959 80.173 0.187521C79.9867 0.148459 79.9557 0.171896 79.9557 0.328146C79.9557 0.679709 79.9401 0.679709 77.9767 0.578146C71.1397 0.218771 66.4834 0.0781462 61.5244 0.0937712C59.1807 0.0937712 56.5576 0.132834 55.704 0.164084Z" fill="#B9B9B9"/>
<path d="M77.5 11.5L82.3907 12.5396L63.8629 99.7063L58.9721 98.6667L77.5 11.5Z" fill="#844E27"/>
</g>
<defs>
<clipPath id="clip0_8_44">
<rect width="70" height="100" fill="white" transform="translate(15)"/>
</clipPath>
</defs>
</svg>
