<svg id="vector" xmlns="http://www.w3.org/2000/svg" width="24.0d" height="24.0d" viewBox="0 0 512.0 512.0"><path fill="#8cd96b" d="m510,9c0,0 0,1 0,2 -0,-0 -0,-1 -0,-2zM509,6c0,0 0,1 1,1 -0,-0 -0,-1 -1,-1zM511,22 L497,14 489,1c-290,48 -275,45 -290,49l-12,10 -17,0c-0,0 -28,11 -55,34 -94,82 -96,226 -12,314 2,2 4,4 6,6 51,48 403,-394 403,-394z" id="path_0"/><path fill="#5ab267" d="m479,233 l-7,16 2,13c0,0 0,-0 -4,29 -20,137 -162,219 -290,169 -1,-0 -10,-4 -14,-6 -24,-11 -47,-28 -63,-45l395,-395 13,7z" id="path_1"/><path fill="#fed843" d="m136,354 l-132,132c-5,5 -5,15 0,21 5,5 15,5 21,0l125,-125c-7,-6 -8,-20 -14,-27z" id="path_2"/><path fill="#fabe2c" d="m25,507 l127,-127c-3,-3 -6,-7 -10,-11l-139,139c5,5 15,5 21,0z" id="path_3"/><path fill="#5ab267" d="m475,263 l4,-30h-179c291,-291 43,-43 210,-210l0,-4c1,-10 -7,-18 -17,-17l-4,0 -138,138v-44c0,-8 -6,-15 -15,-15s-15,6 -15,15v74c-3,3 -113,113 -122,122v-241c-10,2 -20,6 -30,10v260l-77,77c6,7 13,15 20,21l157,-157z" id="path_4"/><path fill="#288c64" d="m112,420 l157,-157h204l4,-30h-179c291,-291 43,-43 210,-210l0,-4c0,-4 -0,-9 -4,-12l-406,406c3,3 7,7 10,10z" id="path_5"/></svg>