<svg width="100" height="100" viewBox="0 0 100 100" fill="none" xmlns="http://www.w3.org/2000/svg">
<g clip-path="url(#clip0_8_44)">
<g clip-path="url(#clip1_8_44)">
<path d="M94.5311 32.5494C87.902 38.0642 94.4538 41.3309 89.2931 45.3352C84.1324 49.3396 78.1303 50.2178 75.8633 47.1969C73.5964 44.1761 75.9492 38.4593 81.1013 34.4111C86.2534 30.3628 97.4162 30.152 94.5311 32.5494Z" fill="#D76F34"/>
<path d="M70.49 97.0069C69.8933 97.0069 69.321 96.7651 68.899 96.3347C68.477 95.9043 68.24 95.3206 68.24 94.7119V60.7663H62.61C62.0379 60.7274 61.5016 60.4682 61.1099 60.0411C60.7182 59.614 60.5002 59.0511 60.5002 58.4662C60.5002 57.8814 60.7182 57.3184 61.1099 56.8913C61.5016 56.4642 62.0379 56.205 62.61 56.1661H70.49C71.0877 56.1661 71.661 56.4076 72.0845 56.8377C72.5081 57.2678 72.7474 57.8515 72.75 58.4611V94.7119C72.7474 95.3215 72.5081 95.9052 72.0845 96.3353C71.661 96.7654 71.0877 97.0069 70.49 97.0069Z" fill="#B25C29"/>
<path d="M61.14 97.0069C60.5433 97.0069 59.971 96.7651 59.549 96.3347C59.1271 95.9043 58.89 95.3206 58.89 94.7119V60.7663H53.26C52.9512 60.7873 52.6415 60.7434 52.3501 60.6373C52.0587 60.5312 51.7917 60.3652 51.5657 60.1495C51.3398 59.9339 51.1596 59.6732 51.0365 59.3837C50.9133 59.0941 50.8497 58.7818 50.8497 58.4662C50.8497 58.1506 50.9133 57.8383 51.0365 57.5487C51.1596 57.2592 51.3398 56.9985 51.5657 56.7829C51.7917 56.5672 52.0587 56.4012 52.3501 56.2951C52.6415 56.189 52.9512 56.1451 53.26 56.1661H61.14C61.7367 56.1661 62.309 56.4079 62.731 56.8383C63.1529 57.2687 63.39 57.8524 63.39 58.4611V94.7119C63.39 95.3206 63.1529 95.9043 62.731 96.3347C62.309 96.7651 61.7367 97.0069 61.14 97.0069Z" fill="#B25C29"/>
<path d="M39.7669 65.1735C41.3105 73.1696 35.0257 81.6755 25.7383 84.1643C16.451 86.6531 4 75.3786 4 75.3786C4 75.3786 10.8616 57.6871 20.1574 55.2083C29.4533 52.7295 38.2317 57.1873 39.7669 65.1735Z" fill="#3E3E3F"/>
<path d="M81.2719 58.6114C89.2861 53.5902 92.6781 44.3638 88.8481 38.0037C85.018 31.6436 75.4163 30.5581 67.402 35.5793C59.3877 40.6005 55.9957 49.8268 59.8258 56.1869C63.6559 62.5471 73.2576 63.6325 81.2719 58.6114Z" fill="#F37D3B"/>
<path d="M48.1574 77.8223C52.1752 76.892 54.0685 70.0099 52.3862 62.4508C50.7038 54.8917 46.0829 49.518 42.0651 50.4484C38.0473 51.3787 36.154 58.2607 37.8364 65.8198C39.5187 73.3789 44.1396 78.7526 48.1574 77.8223Z" fill="#F37D3B"/>
<path d="M60.2411 75.0313C64.2589 74.101 66.1522 67.2189 64.4699 59.6598C62.7875 52.1007 58.1666 46.727 54.1488 47.6574C50.131 48.5877 48.2377 55.4697 49.9201 63.0288C51.6024 70.5879 56.2233 75.9616 60.2411 75.0313Z" fill="#F37D3B"/>
<path d="M30.32 97.0069C29.7233 97.0069 29.151 96.7651 28.729 96.3347C28.3071 95.9043 28.07 95.3206 28.07 94.7119V66.8761C28.07 66.2674 28.3071 65.6837 28.729 65.2533C29.151 64.8229 29.7233 64.5811 30.32 64.5811H38.21C38.7821 64.62 39.3184 64.8792 39.7101 65.3063C40.1018 65.7334 40.3198 66.2963 40.3198 66.8812C40.3198 67.466 40.1018 68.029 39.7101 68.4561C39.3184 68.8832 38.7821 69.1424 38.21 69.1813H32.57V94.6813C32.574 94.9853 32.5187 95.287 32.4074 95.569C32.2961 95.8509 32.131 96.1076 31.9217 96.3239C31.7124 96.5403 31.463 96.7121 31.188 96.8293C30.9131 96.9466 30.618 97.0069 30.32 97.0069Z" fill="#D76F34"/>
<path d="M41.17 97.0069C40.5733 97.0069 40.001 96.7651 39.579 96.3347C39.1571 95.9043 38.92 95.3206 38.92 94.7119V63.0919C38.92 62.4832 39.1571 61.8995 39.579 61.4691C40.001 61.0387 40.5733 60.7969 41.17 60.7969H49.06C49.6567 60.7969 50.229 61.0387 50.651 61.4691C51.0729 61.8995 51.31 62.4832 51.31 63.0919C51.31 63.7006 51.0729 64.2843 50.651 64.7147C50.229 65.1451 49.6567 65.3869 49.06 65.3869H43.43V94.7119C43.4274 95.3215 43.1881 95.9052 42.7645 96.3353C42.341 96.7654 41.7677 97.0069 41.17 97.0069Z" fill="#D76F34"/>
<path d="M51.25 97.0069C50.6533 97.0069 50.081 96.7651 49.659 96.3347C49.2371 95.9043 49 95.3206 49 94.7119V58.4611C49 57.8524 49.2371 57.2687 49.659 56.8383C50.081 56.4079 50.6533 56.1661 51.25 56.1661H59.14C59.7121 56.205 60.2483 56.4642 60.6401 56.8913C61.0318 57.3184 61.2498 57.8814 61.2498 58.4662C61.2498 59.0511 61.0318 59.614 60.6401 60.0411C60.2483 60.4682 59.7121 60.7274 59.14 60.7663H53.51V94.7119C53.5074 95.3215 53.2681 95.9052 52.8445 96.3353C52.421 96.7654 51.8477 97.0069 51.25 97.0069Z" fill="#D76F34"/>
<path d="M66.06 40.1113C65.8219 40.1142 65.5857 40.0678 65.3657 39.9749C65.1456 39.8819 64.9464 39.7445 64.78 39.5707L55.78 30.3907C55.6107 30.22 55.4763 30.0166 55.3845 29.7925C55.2928 29.5684 55.2455 29.328 55.2455 29.0851C55.2455 28.8422 55.2928 28.6018 55.3845 28.3777C55.4763 28.1536 55.6107 27.9503 55.78 27.7795L66.78 16.5595C66.9494 16.384 67.151 16.2443 67.3734 16.1483C67.5957 16.0523 67.8344 16.0019 68.0759 16.0001C68.3173 15.9982 68.5567 16.0448 68.7805 16.1373C69.0043 16.2298 69.208 16.3663 69.38 16.5391C69.552 16.7119 69.689 16.9176 69.7831 17.1443C69.8772 17.3711 69.9266 17.6146 69.9285 17.8609C69.9303 18.1071 69.8846 18.3514 69.7939 18.5796C69.7033 18.8078 69.5694 19.0156 69.4 19.1911L59.66 29.1361L67.33 36.9697C67.499 37.1396 67.6332 37.342 67.7248 37.5653C67.8164 37.7886 67.8636 38.0282 67.8636 38.2702C67.8636 38.5122 67.8164 38.7518 67.7248 38.9751C67.6332 39.1984 67.499 39.4008 67.33 39.5707C67.1651 39.7437 66.9676 39.8808 66.7493 39.9737C66.531 40.0666 66.2965 40.1134 66.06 40.1113Z" fill="#F37D3B"/>
<path d="M75 40.1113C74.7619 40.1142 74.5257 40.0678 74.3057 39.9749C74.0856 39.882 73.8864 39.7445 73.72 39.5707L64.72 30.3907C64.5069 30.1701 64.3506 29.8991 64.2651 29.6018C64.1796 29.3046 64.1675 28.9904 64.23 28.6873C64.2958 28.3853 64.4346 28.1049 64.6337 27.8716C64.8328 27.6382 65.0859 27.4593 65.37 27.3511L81 21.4453C81.2226 21.3582 81.4598 21.3167 81.6981 21.3232C81.9364 21.3296 82.1712 21.3839 82.3889 21.4829C82.6067 21.5819 82.8032 21.7236 82.9672 21.9001C83.1313 22.0765 83.2596 22.2842 83.345 22.5112C83.4304 22.7382 83.471 22.9802 83.4647 23.2233C83.4584 23.4664 83.4052 23.7058 83.3082 23.9279C83.2111 24.15 83.0722 24.3505 82.8992 24.5178C82.7262 24.6851 82.5226 24.816 82.3 24.9031L69.3 29.8603L76.3 37.0003C76.541 37.2616 76.7021 37.5889 76.7636 37.9421C76.8252 38.2953 76.7845 38.6591 76.6466 38.9891C76.5087 39.3191 76.2796 39.601 75.9871 39.8003C75.6947 39.9996 75.3517 40.1077 75 40.1113Z" fill="#F37D3B"/>
<path d="M66.66 43.3957C67.378 43.3957 67.96 42.802 67.96 42.0697C67.96 41.3374 67.378 40.7437 66.66 40.7437C65.942 40.7437 65.36 41.3374 65.36 42.0697C65.36 42.802 65.942 43.3957 66.66 43.3957Z" fill="#171717"/>
<path d="M99.643 39.2126C90.7855 40.3598 95.8983 36.8344 89.2053 37.9341C82.5123 39.0339 83.06 40.1745 83.4711 44.0757C83.4711 44.0757 81.6304 46.3537 88.3478 45.292C95.0651 44.2303 103.496 38.7112 99.643 39.2126Z" fill="#D76F34"/>
</g>
</g>
<defs>
<clipPath id="clip0_8_44">
<rect width="100" height="100" fill="white"/>
</clipPath>
<clipPath id="clip1_8_44">
<rect width="100" height="102" fill="white" transform="translate(0 6)"/>
</clipPath>
</defs>
</svg>
