<svg id="vector" xmlns="http://www.w3.org/2000/svg" width="24.0d" height="24.0d" viewBox="0 0 512.0 512.0"><path fill="#f7b239" d="M337,369l-290,134l-16,-34l290,-134" stroke="#000000" stroke-width="8.0" id="path_0"/><path fill="#e03f20" d="M401,368c-4,2 -11,4 -17,5c-23,4 -54,-0 -62,-17c-10,-22 19,-58 42,-69c11,-5 24,-5 35,-1c10,4 19,12 24,22C433,331 423,357 401,368z" stroke="#000000" stroke-width="8.0" id="path_1"/><path fill="#f95428" d="M360,9c0,119 -84,99 -82,179c0,35 24,59 55,70c8,3 17,-6 12,-14c-12,-24 -21,-64 28,-98c2,45 40,53 40,86c0,4 -0,8 -0,11c-1,8 7,14 14,10c26,-12 46,-34 50,-67C492,78 360,9 360,9z" stroke="#000000" stroke-width="8.0" id="path_2"/></svg>