<svg id="vector" xmlns="http://www.w3.org/2000/svg" width="24.0d" height="24.0d" viewBox="0 0 505.0 505.0"><path fill="#bfe8f7" d="M321,187V76H183v111c-55,26 -93,82 -93,147c0,89 72,162 162,162s162,-72 162,-162C415,269 376,213 321,187z" stroke="#000000" stroke-width="12.0" id="path_0"/><path fill="#91d3e2" d="M358,42c0,19 -15,34 -34,34H181c-9,0 -18,-3 -24,-10c-6,-6 -10,-14 -10,-24c0,-19 15,-34 34,-34h141c9,0 18,3 24,10C354,23 358,32 358,42z" stroke="#000000" stroke-width="12.0" id="path_1"/></svg>