<svg id="vector" xmlns="http://www.w3.org/2000/svg" width="24.0d" height="24.0d" viewBox="0 0 682.6 682.6"><path fill="#fe9738" d="m610.7,403.8c0,148.7 -120.6,269.3 -269.3,269.3 -148.7,-0 -269.3,-120.6 -269.3,-269.3 0,-148.7 120.6,-269.3 269.3,-269.3C490,134.4 610.7,255 610.7,403.8" stroke="#000000" stroke-width="20.0" id="path_0"/><path fill="#00c27a" d="m438.4,147.9c10.8,-5.7 20.6,-13.7 28.9,-22.7 12.9,-14 21.5,-31.7 23.6,-50.8 0.2,-2 -0.8,-4 -2.6,-5.2 -16.3,-9.4 -35.3,-12.9 -54.2,-11 -15.3,1.5 -31,5.9 -43.9,14.7 -20.3,14 -36.9,35 -42,59.7 -0.8,3.9 -3.5,13.4 1.2,15.9 4.7,2.5 9.6,4.6 14.7,6.3C388,162.4 416,159.7 438.4,147.9" stroke="#000000" stroke-width="20.0" id="path_1"/><path fill="#d77f4a" d="m317.4,162c-3.4,-23.7 -8,-87.9 -3.7,-127.2 1.9,-17.7 19.4,-29.3 36.5,-24 0.2,0 0.4,0 0.7,0.2C364.4,15 372.8,28.8 370.3,42.9 365.9,67.7 360.3,126.9 359.9,159 359.7,170.8 350.2,180.3 338.5,180.3 327.9,180.3 318.9,172.5 317.4,162" stroke="#000000" stroke-width="20.0" id="path_2"/><path fill="none" d="M306.1,207.3C324,222.7 353.5,222.3 371,206.4" stroke-linecap="round" stroke="#000000" stroke-width="20.0" id="path_3"/></svg>