<svg width="100" height="100" viewBox="0 0 100 100" fill="none" xmlns="http://www.w3.org/2000/svg">
<g clip-path="url(#clip0_8_44)">
<path d="M11.875 31.875C14.6875 36.4062 17.8125 37.0312 20 34.375C23.4375 30.3125 19.6875 25.1562 15.625 23.75C8.90625 21.0937 3.125 28.5937 3.125 28.5937C3.125 28.5937 9.53125 27.9687 11.875 31.875Z" fill="#F29A2E"/>
<path d="M48.4367 96.6875L46.25 94.5L34 96.6875C34 94.8125 44 99.5 44 82C45.9071 94.5 48.4367 94.8125 48.4367 96.6875Z" fill="#F4BC58"/>
<path d="M66.875 15.9375C54.8437 22.9687 64.8437 39.8437 43.125 44.375L66.25 55.7813C70.9375 63.9063 83.9063 64.5312 83.9063 64.5312C83.9063 64.5312 87.1875 54.8437 84.5312 47.6562C91.7187 47.6562 96.7188 43.2813 96.7188 43.2813C96.7188 43.2813 92.6563 28.9062 80.3125 28.9062C92.5 23.9062 94.6875 13.5937 94.6875 13.5937C94.6875 13.5937 83.9062 6.09375 66.875 15.9375Z" fill="#E1EAF2"/>
<path d="M51.75 97.8482L49.5633 95.6607L37.3133 97.8482C37.3133 95.9732 47.3133 100.661 47.3133 83.1607C49.2204 95.6607 51.75 95.9732 51.75 97.8482Z" fill="#F4BC58"/>
<path d="M77.1875 47.8125C77.1875 65.7812 62.5 84.2187 44.375 84.2187C26.25 84.2187 11.5625 65.7812 11.5625 47.8125C11.5625 35.7812 37.5 44.2187 44.375 44.2187C62.5 44.0625 77.1875 29.6875 77.1875 47.8125Z" fill="#D1DCE6"/>
<path d="M56.875 76.875C56.875 80.4687 51.7188 88.2812 47.1875 88.2812C42.6563 88.2812 37.5 82.9687 37.5 79.375C37.5 75.7812 56.875 75.1562 56.875 76.875Z" fill="#D1DCE6"/>
<path d="M10.1562 41.0937C10.1562 45.7812 11.0937 59.375 11.0937 59.375L15.3125 54.0625L20.3125 60L21.4062 51.7187L29.0625 57.1875L27.6563 49.0625L36.875 50L32.6562 45L39.0625 40.7812C39.0625 40.7812 31.25 42.5 31.4063 37.6562C31.5625 32.8125 35.4688 19.0625 30.625 17.0312C21.7188 13.75 10.1562 21.25 10.1562 41.0937Z" fill="#E1EAF2"/>
<path d="M10.1562 25.625C10.7603 25.625 11.25 25.4151 11.25 25.1563C11.25 24.8974 10.7603 24.6875 10.1562 24.6875C9.55219 24.6875 9.0625 24.8974 9.0625 25.1563C9.0625 25.4151 9.55219 25.625 10.1562 25.625Z" fill="#3E4347"/>
<path d="M17.9688 28.4375C19.2632 28.4375 20.3125 27.3882 20.3125 26.0938C20.3125 24.7993 19.2632 23.75 17.9688 23.75C16.6743 23.75 15.625 24.7993 15.625 26.0938C15.625 27.3882 16.6743 28.4375 17.9688 28.4375Z" fill="#3E4347"/>
<path d="M12.1875 36.875C12.1875 41.875 8.90625 38.2812 8.90625 38.2812C7.8125 38.2812 3.28125 41.7188 4.84375 35.9375C6.875 28.4375 14.6875 23.4375 14.6875 23.4375C14.6875 23.4375 12.1875 27.8125 12.1875 36.875Z" fill="#E24B4B"/>
<path d="M32.5 16.5625V14.6875C32.1875 10.7812 37.8125 9.21875 37.1875 7.1875C36.25 4.53125 28.9063 6.25 25.3125 12.0312C24.8438 12.6562 24.5313 13.4375 24.375 14.375C24.2188 13.75 24.0625 13.125 23.75 12.5C22.0313 8.90625 27.1875 5.625 25.625 3.90625C23.5938 1.5625 17.5 5.625 16.0938 12.3437C15.7813 13.75 15.7812 15.1562 16.25 16.5625C16.0937 16.4062 15.9375 16.25 15.7813 16.25C13.125 14.2187 15.7813 10 13.9063 9.0625C11.0938 7.8125 8.59375 13.4375 10 18.9062C10.9375 22.0312 14.375 25.3125 17.1875 22.6562C18.125 21.875 20.3125 20.625 21.5625 20.1562C22.5 19.8437 25 20 26.5625 21.0937C27.9688 22.0312 29.0625 23.9062 31.0938 23.9062C40 24.2187 44.8438 15.625 41.5625 13.75C39.8438 12.5 37.1875 15.625 32.5 16.5625Z" fill="#E24B4B"/>
<path d="M66.4062 68.5938C65 65.1563 60.9375 63.2812 60.9375 63.2812C65.1562 61.0937 67.6562 56.4062 67.6562 56.4062C65.4687 55.4687 57.0312 54.8437 57.0312 54.8437C58.9062 52.9687 60.4687 50.3125 60.4687 50.3125C60.4687 50.3125 50.7812 47.9687 42.6562 52.3437C32.0312 58.2812 35.1563 72.3437 47.1875 73.9062C60.4687 75.625 66.4062 68.5938 66.4062 68.5938Z" fill="#E1EAF2"/>
</g>
<defs>
<clipPath id="clip0_8_44">
<rect width="100" height="100" fill="white"/>
</clipPath>
</defs>
</svg>
