<svg id="vector" xmlns="http://www.w3.org/2000/svg" width="24.0d" height="24.0d" viewBox="0 0 682.6 682.6"><path fill="#a6b6c4" d="m518.3,472.7c0,110.2 -89.7,199.9 -199.9,199.9 -110.2,-0 -199.9,-89.7 -199.9,-199.9 0,-37.2 10.2,-72 28,-101.9 17.8,-29.9 43.2,-54.8 73.5,-72 8.4,-4.7 18.9,1.2 18.9,10.9L238.8,447.5c0,5.7 -6.9,8.6 -11,4.5l-22.5,-22.5c-4.6,-4.6 -12.6,-2.6 -14.5,3.6 -3.8,12.5 -5.9,25.7 -5.9,39.5 0,73.7 59.9,133.6 133.6,133.6 73.4,-0 133.2,-59.5 133.6,-132.9L452,141.8L518.3,141.8Z" stroke="#000000" stroke-width="20.0" id="path_0"/><path fill="#a6b6c4" d="m485.2,117c-15.5,-0 -28,-12.5 -28,-28 0,-15.5 12.5,-28 28,-28 15.5,-0 28,12.5 28,28C513.3,104.5 500.7,117 485.2,117m0,-107c-43.6,-0 -79,35.3 -79,79 0,43.6 35.3,79 79,79 43.6,-0 79,-35.3 79,-79 0,-43.6 -35.3,-79 -79,-79" stroke="#000000" stroke-width="20.0" id="path_1"/></svg>