<svg id="vector" xmlns="http://www.w3.org/2000/svg" width="24.0d" height="24.0d" viewBox="0 0 512.0 512.0"><path fill="#00a763" d="m504.7,302.8c-5,-3.7 -12,-3.7 -17,-0l-9.8,7c-60.4,42 -96.5,111.6 -96.5,185.3v2h100v-2c0,-51.6 7.5,-102.8 22,-152.3l7,-23.3c1.8,-6 -0.4,-12.7 -5.5,-16.4z" id="path_0"/><path fill="#a2e786" d="m34.4,309.6 l-9.8,-7c-5,-3.6 -12,-3.6 -17,0s-7.4,10 -5.5,16.4l7,23.3c14.8,49.4 22,100.6 22,152.3v2h100v-2c0,-73.7 -36,-143 -96.5,-185.3z" id="path_1"/><path fill="#00cb75" d="m177,309.4c-28.6,-57 -71,-108 -122,-146.4 -5.6,-4 -13.4,-4 -18.7,0.6 -5,4.5 -6.7,12 -3.4,18.4 44.6,82.8 68,176.4 68,270.5v44.3h120v-2c0,-64 -15,-128 -43.8,-185.5z" id="path_2"/><path fill="#007845" d="m475.7,163.6c-5,-4.5 -13,-4.8 -18.7,-0.6 -51,38.4 -93.5,89 -122,146.4 -28.6,57 -43.8,121.5 -43.8,185.5v2h120v-44.3c0,-94 23.5,-187.6 68,-270.5 3,-6 2,-13.8 -3.4,-18.4z" id="path_3"/><path fill="#00a763" d="m414.7,2.8c-6,-4 -14,-3.6 -19,1.5l-2,2c-65,65.4 -116,142 -151,227.8 -0.7,1.7 -1,3.7 -1,5.6v255h80v-56c0,-144 34,-288 98.4,-416.8 3,-6.5 1,-14.5 -4.6,-18.8z" id="path_4"/><path fill="#a2e786" d="m268.4,230.5c-35,-84 -85,-159.6 -149.7,-224l-2,-2c-5,-5 -13.4,-5.8 -19,-1.5 -6,4 -8,12 -4.6,18.8 64,128.7 98.4,273 98.4,416.8v58h130v-2c0,-91 -17.6,-180 -52.5,-264.4z" id="path_5"/><path fill="#00cb75" d="m256,202.4v294.5h65v-2c0,-91 -17.6,-180 -52.5,-264.4 -4,-9.4 -8,-18.8 -12.4,-28z" id="path_6"/><path fill="#af8663" d="m497,512h-482c-8,0 -15,-6.7 -15,-15s6.7,-15 15,-15h482c8,0 15,6.7 15,15s-6.7,15 -15,15z" id="path_7"/><path fill="#896645" d="m497,482h-241v30h241c8,0 15,-6.7 15,-15s-6.7,-15 -15,-15z" id="path_8"/></svg>