<svg id="vector" xmlns="http://www.w3.org/2000/svg" width="24.0d" height="24.0d" viewBox="0 0 512.0 512.0"><path fill="#d3effd" d="m456,104c-3,-19 -20,-33 -40,-33 -0,0 -0,0 -0,0 -3,-12 -15,-22 -29,-22 0,-22 -18,-41 -41,-41 -21,0 -39,16 -41,37 -2,-0 -5,-0 -8,-0 -19,0 -35,12 -39,30 -35,1 -64,30 -64,66 0,36 29,66 66,66h194c28,0 51,-23 51,-51 0,-27 -21,-49 -48,-51z" stroke="#000000" stroke-width="12.0" id="path_0"/><path fill="#e6f7fe" d="m313,143c1,-3 2,-7 2,-11 0,-20 -16,-36 -36,-36 -6,0 -12,1 -18,4 -16,-18 -41,-29 -67,-29 -42,0 -77,28 -89,66 -20,1 -38,14 -47,31 -1,-0 -3,-0 -4,-0 -24,0 -44,19 -44,44s19,44 44,44h234c33,0 59,-26 59,-59 0,-23 -13,-43 -32,-53z" stroke="#000000" stroke-width="12.0" id="path_1"/><path fill="#91dafa" d="M118,335h-32l-16,27 16,28h32l16,-28zM272,335h-32l-16,27 16,28h32l16,-28zM425,335h-32l-16,27 16,28h32l16,-28zM185,448h-32l-16,28 16,27h32l16,-27zM339,448h-32l-16,28 16,27h32l16,-27z" stroke="#000000" stroke-width="12.0" id="path_2"/><path fill="#000000" d="M95,282 l-9,20M127,282 l-9,20M238,312 l9,-20M274,313 l9,-20M395,313 l9,-20M428,313 l9,-20M152,425 l9,-20M187,426 l9,-20M309,426 l9,-20M341,426 l9,-20" stroke-linecap="round" stroke="#000000" stroke-width="12.0" id="path_3"/></svg>