<svg width="100" height="100" viewBox="0 0 100 100" fill="none" xmlns="http://www.w3.org/2000/svg">
<g clip-path="url(#clip0_8_44)">
<g clip-path="url(#clip1_8_44)">
<path d="M77.5475 8.99968C77.5478 15.0461 79.5585 33.0461 80.9126 39.8312C82.2667 46.6163 94.6985 45.9911 93.0688 37.7686C93.0688 37.7686 89.8033 13.0394 87.9395 7.54605C86.0756 2.05267 77.5473 2.95332 77.5475 8.99968Z" fill="#150A03"/>
<path d="M77.2394 36.9696C72.5824 33.1133 57.4366 23.181 51.3472 19.8961C45.2578 16.6113 37.81 26.5848 45.1822 30.5742C45.1822 30.5742 66.311 43.8321 71.7307 45.9004C77.1504 47.9688 81.8963 40.826 77.2394 36.9696Z" fill="#150A03"/>
<path d="M13.3194 32.1519C8.10288 35.209 -6.41056 46.0444 -11.58 50.6431C-16.7495 55.2418 -9.92474 65.6516 -3.65446 60.0884C-3.65446 60.0884 16.0303 44.7683 19.8276 40.3829C23.6248 35.9975 18.536 29.0947 13.3194 32.1519Z" fill="#150A03"/>
<path d="M63.2784 8.3025C57.782 5.78286 40.5817 0.109038 33.8495 -1.48784C27.1174 -3.08473 22.5047 8.47661 30.6583 10.422C30.6583 10.422 54.4985 17.7596 60.2688 18.3548C66.0392 18.9499 68.7747 10.8221 63.2784 8.3025Z" fill="#150A03"/>
<path d="M20.6626 17.2759C17.1624 12.3456 5.10335 -1.16824 0.0716162 -5.91723C-4.96012 -10.6662 -14.7355 -2.96016 -8.64701 2.80139C-8.64701 2.80139 8.33041 21.076 13.0301 24.4766C17.7298 27.8772 24.1627 22.2061 20.6626 17.2759Z" fill="#150A03"/>
<path d="M37.6626 89.2759C34.1624 84.3456 22.1034 70.8318 17.0716 66.0828C12.0399 61.3338 2.2645 69.0398 8.35299 74.8014C8.35299 74.8014 25.3304 93.076 30.0301 96.4766C34.7298 99.8772 41.1627 94.2061 37.6626 89.2759Z" fill="#150A03"/>
<path d="M57.9231 46.9326C54.0667 51.5896 44.1345 66.7354 40.8496 72.8248C37.5647 78.9142 47.5383 86.362 51.5277 78.9898C51.5277 78.9898 64.7856 57.861 66.8539 52.4413C68.9223 47.0216 61.7794 42.2757 57.9231 46.9326Z" fill="#150A03"/>
<path d="M94.5189 45.2225C88.8508 47.3273 72.6763 55.4778 66.7868 59.109C60.8973 62.7401 65.8107 74.1769 72.9518 69.7871C72.9518 69.7871 94.9978 58.118 99.4989 54.4586C104 50.7992 100.187 43.1176 94.5189 45.2225Z" fill="#150A03"/>
<path d="M95.7088 79.8651C89.7476 78.8539 71.6648 77.8252 64.7488 78.0251C57.8328 78.225 56.3695 90.5863 64.7488 90.3551C64.7488 90.3551 89.6758 91.2724 95.4035 90.3538C101.131 89.4352 101.67 80.8763 95.7088 79.8651Z" fill="#150A03"/>
<path d="M24.9192 28.5392C26.0078 34.4867 31.2258 51.8308 33.7791 58.2614C36.3324 64.6919 48.4486 61.8391 45.3655 54.0442C45.3655 54.0442 37.7019 30.3068 34.8797 25.2387C32.0575 20.1705 23.8306 22.5916 24.9192 28.5392Z" fill="#150A03"/>
</g>
</g>
<defs>
<clipPath id="clip0_8_44">
<rect width="100" height="100" fill="white"/>
</clipPath>
<clipPath id="clip1_8_44">
<rect width="100" height="100" fill="white"/>
</clipPath>
</defs>
</svg>
