<svg id="vector" xmlns="http://www.w3.org/2000/svg" width="24.0d" height="24.0d" viewBox="0 0 512.0 512.0"><path fill="#bded7e" d="M65,64.9m-55,0a55,55 0,1 1,109.9 0a55,55 0,1 1,-109.9 0" stroke="#000000" stroke-width="16.0" id="path_0"/><path fill="#ffcb79" d="M256,256m-246,0a246,246 0,1 1,492 0a246,246 0,1 1,-492 0" stroke="#000000" stroke-width="16.0" id="path_1"/><path fill="#ffdfad" d="M189,366.8m-48,0a48,48 0,1 1,96 0a48,48 0,1 1,-96 0M242,96.8m-31.8,0a31.8,31.8 0,1 1,63.7 0a31.8,31.8 0,1 1,-63.7 0M385,180m-45.8,0a45.8,45.8 0,1 1,91.6 0a45.8,45.8 0,1 1,-91.6 0" stroke="#000000" stroke-width="12.0" id="path_2"/><path fill="#fe7a77" d="M430,430m-72,0a72,72 0,1 1,144 0a72,72 0,1 1,-144 0" stroke="#000000" stroke-width="12.0" id="path_3"/><path fill="none" d="M20,190h20.6h17.4c17.8,0 34.5,-7 47,-19.5c8.8,-8.8 20.5,-13.6 33,-13.6h2.6c12.4,0 24,4.8 33,13.6l2,2c12.6,12.6 29,19.5 47,19.5H287" stroke-linecap="round" stroke="#000000" stroke-width="16.0" id="path_4"/><path fill="#000000" d="M392.4,293.7h22c5.5,0 10,-4.4 10,-10s-4.4,-10 -10,-10h-22c-11,0 -22,4.4 -29,12.4c-4,4 -9.8,6.5 -15.8,6.5H328c-6,0 -12,-2.4 -16.4,-6.8c-8,-8 -19,-12.6 -30.5,-12.6H242c-5.5,0 -10,4.4 -10,10s4.4,10 10,10h39c6,0 12,2.4 16.4,6.8c8,8 19,12.6 30.5,12.6h18.5c11,0 22,-4.4 30,-12.4C380.8,296 386.4,293.7 392.4,293.7z" id="path_5"/><path fill="#000000" d="M216.8,446h-27.4c-5.5,0 -10,4.4 -10,10s4.4,10 10,10h27.4c10.4,0 20,-4 27.8,-11l9.5,-9c3.7,-3.6 8.7,-5.6 14,-5.6H320c5.5,0 10,-4.4 10,-10s-4.4,-10 -10,-10h-51.6c-10.4,0 -20,4 -27.8,11l-9.5,9C227,444 222,446 216.8,446z" id="path_6"/></svg>