<svg id="vector" xmlns="http://www.w3.org/2000/svg" width="24.0d" height="24.0d" viewBox="0 0 512.0 512.0"><path fill="#ffd15b" d="M329,351a41,137 98,1 0,12 -82a41,137 98,1 0,-12 82z" stroke="#000000" stroke-width="12.0" id="path_0"/><path fill="#68ca44" d="m212,195s166,23 278,27c10,0 16,10 12,19 -13,30 -49,87 -133,79 -114,-10 -183,-36 -183,-36z" stroke="#000000" stroke-width="12.0" id="path_1"/><path fill="#68ca44" d="m249,270c0,21 -62,43 -116,26s-73,-79 -73,-103c0,-35 41,-45 95,-27s94,42 94,104z" stroke="#000000" stroke-width="12.0" id="path_2"/><path fill="#97da7b" d="m83,217c-23,28 -37,51 -56,43s-25,-38 -13,-70 39,-44 59,-40c21,4 31,40 10,66z" stroke="#000000" stroke-width="12.0" id="path_3"/><path fill="#97da7b" d="m399,99c13,13 -56,106 -112,162s-77,54 -90,40 -15,-34 40,-90 148,-126 162,-112z" stroke="#000000" stroke-width="12.0" id="path_4"/><path fill="none" d="M32,160 v-60 M52,150 v-50 M140,300l-20-60l-70,80l-30,10 M140,300l88-23l30,100l30,10 M400,100v290l40,10" stroke-linejoin="round" stroke-linecap="round" stroke="#000000" stroke-width="12.0" id="path_5"/></svg>