<svg id="vector" xmlns="http://www.w3.org/2000/svg" width="24.0d" height="24.0d" viewBox="0 0 512.0 512.0"><path fill="#f75632" d="M323,102c0,122 -70,125 -158,125s-158,-3 -158,-125c0,-65 70,-94 158,-94s158,29 158,94zM492,290c43,131 -31,159 -125,190s-171,53 -214,-78c-23,-69 42,-126 136,-157s180,-24 203,45z" stroke="#000000" stroke-width="12.0" id="path_0"/><path fill="#e33629" d="M89,68a75,24 0,1 0,151 0a75,24 0,1 0,-151 0zM228,337a27,85 71,1 0,162 -53a27,85 71,1 0,-162 53z" stroke="#000000" stroke-width="12.0" id="path_1"/></svg>