<svg id="vector" xmlns="http://www.w3.org/2000/svg" width="24.0d" height="24.0d" viewBox="0 0 512.0 512.0"><path fill="#3f5666" d="M125,223H79c-23,0 -42,19 -42,42v43l0,0c-15,0 -28,-12 -28,-28v-25c0,-30 25,-55 55,-55h38C115,200 125,210 125,223L125,223z" stroke="#000000" stroke-width="12.0" id="path_0"/><path fill="#825732" d="M317,429l-3,16c-0,2 -2,3 -4,3h-47c-2,0 -4,-2 -4,-5l2,-27l13,-138l60,-23l-34,154c-0,0 -0,1 -0,1c0,1 0,2 1,3l13,10C317,425 317,427 317,429z" stroke="#000000" stroke-width="12.0" id="path_1"/><path fill="#825732" d="M213,448H174c-1,0 -3,-0 -4,-2l-14,-26l-21,-37c-0,-0 -0,-0 -0,-1l-10,-38l-10,-41l79,-15l-16,79c-0,0 -0,1 0,2l13,40c0,0 0,0 0,0c0,1 1,1 2,2l19,10c1,0 2,1 2,3l4,17C218,446 216,448 213,448z" stroke="#000000" stroke-width="12.0" id="path_2"/><path fill="#f2e5cb" d="M213,448H174c-1,0 -3,-0 -4,-2l-14,-26l33,-10c0,1 1,1 2,2l19,10c1,0 2,1 2,3l4,17C218,446 216,448 213,448z" stroke="#000000" stroke-width="12.0" id="path_3"/><path fill="#f2e5cb" d="M317,429l-3,16c-0,2 -2,3 -4,3h-47c-2,0 -4,-2 -4,-5l2,-27l39,-5c0,1 0,2 1,3l13,10C317,425 317,427 317,429z" stroke="#000000" stroke-width="12.0" id="path_4"/><path fill="#fbb071" d="M504,131v3c0,15 -10,44 -25,44l-13,0l-43,1l-53,47c-1,10 -1,20 0,31l20,144c0,0 0,0 0,1c0,1 1,1 2,2l22,13c1,0 2,2 2,4l-3,19c0,2 -2,4 -4,4H360c-2,0 -4,-1 -4,-3l-6,-28l-22,-93c-0,-2 -2,-3 -4,-3l-164,-7c-1,-0 -2,0 -3,1l-60,56c-0,0 -2,1 -3,1H53c-2,0 -4,2 -4,4v36c0,0 0,1 0,1c0,0 0,1 1,2l10,8c0,0 1,1 1,2l4,15c0,2 -1,5 -4,5H24c-2,0 -4,-2 -4,-4v-98c0,-1 1,-3 2,-4l31,-14c1,-0 2,-2 2,-4v-62c0,-37 27,-68 64,-73l126,-35c6,-1 12,-4 18,-8c23,-14 88,-54 96,-55h50c8,0 15,3 21,8l6,6c5,5 13,17 21,17l4,0l34,5C502,126 504,128 504,131z" stroke="#000000" stroke-width="12.0" id="path_5"/><path fill="#f2e5cb" d="M62,448H24c-2,0 -4,-2 -4,-4V418l28,-3c0,1 0,1 1,2l10,8c0,0 1,1 1,2l4,15C67,446 65,448 62,448z" stroke="#000000" stroke-width="12.0" id="path_6"/><path fill="#f2e5cb" d="M416,424l-3,19c0,2 -2,4 -4,4h-48c-2,0 -4,-1 -4,-3l-6,-28l40,-11c0,1 1,1 2,2l22,12C415,421 416,423 416,424z" stroke="#000000" stroke-width="12.0" id="path_7"/><path fill="#3f5666" d="M504,131v3c0,15 -10,44 -25,44l-13,0c-1,-18 -0,-41 0,-58l34,5C502,126 504,128 504,131z" stroke="#000000" stroke-width="12.0" id="path_8"/><path fill="#825732" d="M345,63l34,19c11,5 15,22 9,38l-2,6c-1,5 -7,7 -10,4l-39,-25C322,91 333,59 345,63z" stroke="#000000" stroke-width="12.0" id="path_9"/><path fill="none" d="M425,117h0M295,161h0M195,200h0M223,241h0M254,200h0M303,203h0M338,161h0M165,238h0" stroke-linecap="round" stroke="#000000" stroke-width="16.0" id="path_10"/></svg>