<svg id="vector" xmlns="http://www.w3.org/2000/svg" width="24.0d" height="24.0d" viewBox="0 0 512.0 512.0"><path fill="#a29aa5" d="m386,451c5,6 0,16 -7,16h-50l-33,-92c-42,6 -111,27 -159,12 -12,14 -25,21 -25,21v23l13,26c2,4 -0,8 -5,8h-45c-22,-15 -31,-86 -31,-112 -7,-10 -60,-89 -15,-173 44,-84 117,-50 134,-50h211l28,177c-8,16 -41,53 -43,64 4,28 10,56 10,56z" stroke="#000000" stroke-width="12.0" id="path_0"/><path fill="#a29aa5" d="M274,48c-14,-18 -41,25 -10,51 25,20 61,-0 61,-0l11,-19c-25,6 -51,-18 -62,-31zM479,48c14,-18 41,25 10,51 -25,20 -61,-0 -61,-0l-11,-19c25,6 51,-18 62,-31z" stroke="#000000" stroke-width="12.0" id="path_1"/><path fill="#b5adb7" d="M421,68c-18,-11 -69,-9 -89,0 -37,18 -75,103 -61,144h213c13,-41 -25,-124 -61,-144zM300,286a76,40 0,1 0,152 0a76,40 0,1 0,-152 0z" stroke="#000000" stroke-width="12.0" id="path_2"/><path fill="#f7f3f1" d="M315,328h-19c-4,0 -8,-3 -8,-7v-52h35v52c0,4 -3,8 -8,8zM458,328h-19c-4,0 -8,-3 -8,-7v-52h35v52c0,4 -3,8 -8,8z" stroke="#000000" stroke-width="12.0" id="path_3"/><path fill="#968d97" d="m492,223v40c0,14 -11,25 -25,25h-40c-2,0 -5,-0 -7,-2 -11,-7 -25,-12 -41,-12 -16,0 -30,4 -41,12 -2,1 -5,2 -7,2h-40c-14,0 -25,-11 -25,-25v-40c0,-14 11,-25 25,-25h5c3,0 7,-2 8,-6 0,-0 0,-0 0,-0 5,-14 23,-21 40,-15 7,2 13,7 17,13 2,4 7,7 13,7h11c5,0 10,-2 13,-7 3,-6 9,-11 17,-13 16,-6 35,0 40,15l0,1c1,3 4,4 7,4h5c14,0 25,11 25,25z" stroke="#000000" stroke-width="12.0" id="path_4"/><path fill="#000000" d="M317,136c0,4 3,7 7,7s7,-3 7,-7v-9c0,-4 -3,-7 -7,-7s-7,3 -7,7zM428,144c4,0 7,-3 7,-7v-9c0,-4 -3,-7 -7,-7s-7,3 -7,7v9c0,4 3,7 7,7z" id="path_5"/><path fill="#000000" d="m332,200c-2,-3 -7,-4 -10,-1 -3,2 -4,7 -1,10l3,3c1,2 3,3 6,3 1,0 3,-0 4,-1 3,-2 4,-7 1,-10zM432,199c-3,-2 -8,-1 -10,1l-3,3c-2,3 -1,8 1,10 1,1 3,1 4,1 2,0 4,-1 6,-3l3,-3c2,-3 1,-8 -1,-10z" id="path_6"/></svg>