<svg id="vector" xmlns="http://www.w3.org/2000/svg" width="24.0d" height="24.0d" viewBox="0 0 512.0 512.0"><path fill="#fff0af" d="m275,100c0,-3 -4,-8 -9,-12 -3,-1 -6,-1 -10,-1 -17,0 -31,13 -31,31 0,3 0,7 1,10 4,6 10,9 14,9 17,0 34,-19 34,-36z" id="path_0"/><path fill="#ffe07d" d="m266,87c1,3 1,6 1,10 0,17 -13,31 -31,31 -3,0 -7,-0 -10,-1 4,12 15,20 29,20 17,0 31,-13 31,-31 0,-13 -8,-25 -20,-29z" id="path_1"/><path fill="#b3e59f" d="m489,147 l-38,-32c-0,0 -0,0 -1,1l-163,191 197,2 15,-84z" id="path_2"/><path fill="#95d6a4" d="m504,310v-151l-31,-41c-5,-7 -16,-8 -22,-1l30,39c2,2 3,5 3,9v145z" id="path_3"/><path fill="#b3e59f" d="m38,117 l-31,41v171l191,-29 -79,-112 -79,-74c-0,0 -1,1 -1,1z" id="path_4"/><path fill="#95d6a4" d="m62,116c-5,-6 -15,-7 -21,-1l158,186 18,-2z" id="path_5"/><path fill="#ccf49f" d="m7,310v143l11,11 476,0 -0,-137 -10,-22c-63,-12 -142,-19 -228,-19 -95,0 -181,8 -248,23z" id="path_6"/><path fill="#b3e59f" d="m504,310c-6,-1 -13,-2 -20,-4v147h-476v12c0,4 3,7 7,7h482c4,0 7,-3 7,-7z" id="path_7"/><path fill="#000000" d="m504,229c4,0 7,-3 7,-7v-62c0,-1 -0,-3 -1,-4l-31,-41c-4,-5 -10,-8 -17,-9 -7,-0 -13,2 -18,8l-143,169c-14,-0 -29,-0 -44,-0 -15,0 -29,0 -44,0l-143,-169c-4,-5 -11,-8 -18,-8 -7,0 -13,3 -17,9l-31,41c-1,1 -1,2 -1,4v307c0,8 6,15 15,15h125c4,0 7,-3 7,-7s-3,-7 -7,-7h-125v-49c67,-14 153,-21 241,-21 88,0 173,7 241,21v49h-326c-4,0 -7,3 -7,7s3,7 7,7h326c8,0 15,-6 15,-15v-214c0,-4 -3,-7 -7,-7s-7,3 -7,7v49c-51,-10 -112,-17 -177,-19l136,-160c1,-1 3,-2 6,-2 2,0 4,1 5,3l29,39v60c0,4 3,7 7,7zM15,161 L44,121c1,-1 3,-3 5,-3 2,-0 4,0 6,2l136,160c-64,2 -125,9 -177,19v-139zM256,379c-87,0 -172,7 -241,21v-54c67,-14 153,-21 241,-21 46,0 91,2 134,6 4,0 7,-2 8,-6 0,-4 -2,-7 -6,-8 -43,-4 -89,-6 -135,-6 -87,0 -172,7 -241,21v-14c67,-14 153,-21 241,-21s173,7 241,21v14c-23,-4 -47,-8 -74,-11 -4,-0 -7,2 -8,6s2,7 6,8c27,3 52,7 76,12v54c-68,-13 -153,-21 -241,-21z" id="path_8"/><path fill="#000000" d="m256,155c21,0 38,-17 38,-38s-17,-38 -38,-38 -38,17 -38,38 17,38 38,38zM256,93c13,0 23,10 23,23s-10,23 -23,23c-13,0 -23,-10 -23,-23s10,-23 23,-23z" id="path_9"/><path fill="#000000" d="m256,62c4,0 7,-3 7,-7v-16c0,-4 -3,-7 -7,-7 -4,0 -7,3 -7,7v16c0,4 3,7 7,7z" id="path_10"/><path fill="#000000" d="m248,177v16c0,4 3,7 7,7 4,0 7,-3 7,-7v-16c0,-4 -3,-7 -7,-7 -4,0 -7,3 -7,7z" id="path_11"/><path fill="#000000" d="m207,78c1,1 3,2 5,2s3,-0 5,-2c3,-3 3,-7 0,-10l-11,-11c-3,-3 -7,-3 -10,0 -3,3 -3,7 0,10z" id="path_12"/><path fill="#000000" d="m304,154c-3,-3 -7,-3 -10,0 -3,3 -3,7 -0,10l11,11c1,1 3,2 5,2 2,0 3,-0 5,-2 3,-3 3,-7 0,-10z" id="path_13"/><path fill="#000000" d="m177,124h16c4,0 7,-3 7,-7s-3,-7 -7,-7h-16c-4,0 -7,3 -7,7s3,7 7,7z" id="path_14"/><path fill="#000000" d="m309,116c0,4 3,7 7,7h16c4,0 7,-3 7,-7s-3,-7 -7,-7h-16c-4,0 -7,3 -7,7z" id="path_15"/><path fill="#000000" d="m207,154 l-11,11c-3,3 -3,7 0,10 1,1 3,2 5,2s3,-0 5,-2l11,-11c3,-3 3,-7 0,-10 -3,-3 -7,-3 -10,0z" id="path_16"/><path fill="#000000" d="m299,80c2,0 3,-0 5,-2l11,-11c3,-3 3,-7 -0,-10 -3,-3 -7,-3 -10,0l-11,11c-3,3 -3,7 0,10 1,1 3,2 5,2z" id="path_17"/></svg>