<svg id="vector" xmlns="http://www.w3.org/2000/svg" width="24.0d" height="24.0d" viewBox="0 0 512.0 512.0"><path fill="#61362b" d="m153,413h30v98h-30z" id="path_0"/><path fill="#4d2c21" d="m224,413h30v98h-30z" id="path_1"/><path fill="#4d2c21" d="m391,292h-76l-87,-114 23,-18 78,102h61z" id="path_2"/><path fill="#61362b" d="m152,329 l-85,-72 90,-98 22,20 -69,75 61,52z" id="path_3"/><path fill="#774132" d="m205,133c-35,0 -64,28 -64,64v113l64,28 27,-128z" id="path_4"/><path fill="#61362b" d="m205,133v206l64,-28v-113c0,-35 -28,-64 -64,-64z" id="path_5"/><path fill="#f5d844" d="m205,311h-64l-17,117h81l25,-73z" id="path_6"/><path fill="#774132" d="m205,0c-30,0 -55,24 -55,55v25c0,30 24,55 55,55l9,-68z" id="path_7"/><path fill="#61362b" d="m205,0v136c30,0 55,-24 55,-55v-25c0,-30 -24,-55 -55,-55z" id="path_8"/><path fill="#ebd5ae" d="m399,167h-15l-46,-46 43,-89h21l43,89z" id="path_9"/><path fill="#ecbd2c" d="m269,311h-64v117h81z" id="path_10"/><path fill="#ba9779" d="m376,160h30v351h-30z" id="path_11"/></svg>