<svg id="vector" xmlns="http://www.w3.org/2000/svg" width="24.0d" height="24.0d" viewBox="0 0 512.0 512.0"><path fill="#ecf5ff" d="m472,211 l-64,-100c-3,-5 -12,-6 -16,-0 -7,9 -14,19 -21,28 -16,-17 -32,-35 -48,-53 -4,-5 -13,-4 -16,2l-17,33 -63,-103c-4,-6 -13,-6 -17,0l-35,60 -8,-14c-3,-6 -12,-6 -16,-0l-108,147z" stroke="#000000" stroke-width="12.0" id="path_0"/><path fill="#9dc6fb" d="m472,211 l-90,137c-3,4 -9,6 -14,2l-60,-41 -76,167c-3,8 -15,7 -18,-0l-39,-95 -23,46c-3,7 -14,7 -18,-0l-92,-215z" stroke="#000000" stroke-width="12.0" id="path_1"/><path fill="none" d="M20,212h480" stroke-linecap="round" stroke="#000000" stroke-width="16.0" id="path_2"/></svg>