<svg id="vector" xmlns="http://www.w3.org/2000/svg" width="24.0d" height="24.0d" viewBox="0 0 512.0 512.0"><path fill="#b38a82" d="M258,319c-9,0 -18,-5 -22,-14c-12,-26 -18,-57 -17,-90c0,-28 6,-59 16,-89c4,-12 18,-19 30,-15c12,4 19,18 15,30c-18,54 -18,106 -1,144c5,12 0,26 -12,32C265,318 262,319 258,319z" stroke="#000000" stroke-width="12.0" id="path_0"/><path fill="#8adba1" d="M394,159c-10,-9 -33,-24 -68,-24c-0,0 -0,0 -0,0c0,-0 0,-0 0,-0c24,-24 30,-51 31,-65c0,-5 -3,-9 -9,-9c-13,1 -41,6 -65,31c-0,0 -0,0 -0,0c0,-0 0,-0 0,-0c0,-35 -15,-58 -24,-68c-3,-4 -9,-4 -12,0c-9,10 -24,33 -24,68c0,0 0,0 0,0c-0,-0 -0,-0 -0,-0c-24,-24 -51,-30 -65,-31c-5,-0 -9,3 -9,9c1,13 6,41 31,65c0,0 0,0 0,0c-0,-0 -0,-0 -0,-0c-35,0 -58,15 -68,24c-4,3 -4,9 0,12c10,9 33,24 68,24c33,0 56,-14 67,-23c4,-3 10,-3 15,0c11,9 33,23 67,23c35,0 58,-15 68,-24C398,168 398,162 394,159z" stroke="#000000" stroke-width="12.0" id="path_1"/><path fill="#f5d7b7" d="M81,371h354c-39,-55 -104,-91 -177,-90S120,316 81,372z" stroke="#000000" stroke-width="12.0" id="path_2"/><path fill="#b9e8ef" d="M439,492H73c-36,0 -65,-29 -65,-65v-33c0,-12 9,-22 22,-22h453c12,0 22,9 22,22v33C504,463 475,492 439,492z" stroke="#000000" stroke-width="12.0" id="path_3"/></svg>