<svg id="vector" xmlns="http://www.w3.org/2000/svg" width="24.0d" height="24.0d" viewBox="0 0 512.0 512.0"><path fill="#fbc640" d="M256,349l-28,69l-33,-98v-0c-6,-43 39,-67 40,-67l2,-1l0,2c3,14 12,22 14,23c37,-13 31,-76 31,-76l-0,-5l3,3c0,0 22,20 38,47c21,36 22,70 3,98l-2,3l-9,-28l-33,98L256,349z" id="path_0"/><path fill="#ff7d46" d="M325,343l0,-0c18,-26 17,-58 -4,-94c-11,-20 -27,-36 -33,-43c0,6 0,17 -2,29c-4,24 -16,40 -33,46l-0,0l-0,-0c-0,-0 -12,-7 -16,-24c-8,5 -40,26 -35,62l-4,1l-0,-0l-33,98l-28,-69l-28,69l-33,-98l-19,56l-2,-5c-8,-23 -9,-48 -3,-73c4,-20 14,-41 27,-62c23,-35 51,-58 51,-58l1,-1l25,40c6,-6 30,-29 53,-61c24,-34 52,-85 46,-136l-0,-4l3,2c0,0 27,16 56,45c26,26 59,69 68,122c8,-2 43,-13 58,-55l1,-3l2,2c1,1 22,24 36,66c8,24 11,50 10,77c-1,33 -10,67 -27,101l-2,4l-18,-55l-33,98l-28,-69l-28,69L325,343z" stroke-linejoin="round" stroke="#000000" stroke-width="12.0" id="path_1"/><path fill="#44c973" d="M376,497l28,-85l0,-0l35,-104l64,190zM130,497l64,-190l64,190zM253,497l64,-190l12,36l52,154zM7,497l64,-190l35,105l0,0l28,85z" stroke-linejoin="round" stroke="#000000" stroke-width="12.0" id="path_2"/><path fill="#248a48" d="M103,413l0,-0l0,-0l29,-73l30,74l-30,89zM226,412l30,-74l30,74l-30,89zM348,412l30,-74l30,73l0,0l-30,88z" stroke-linejoin="round" stroke="#000000" stroke-width="12.0" id="path_3"/></svg>