<svg id="vector" xmlns="http://www.w3.org/2000/svg" width="24.0d" height="24.0d" viewBox="0 0 512.0 512.0"><path fill="#96c8ef" d="m256,10c132,0 246,113 246,246s-113,246 -246,246c-47,0 -97,-13 -134,-37l-111,37 37,-111c-23,-37 -37,-86 -37,-134 0,-132 113,-246 246,-246zM256,10" stroke="#000000" stroke-width="12.0" id="path_0"/><path fill="#ffffff" d="m306,356v40h-100v-40h20v-100h-20v-40h80v140zM306,356" stroke="#000000" stroke-width="12.0" id="path_1"/><path fill="#ffffff" d="m286,146c0,16 -13,30 -30,30 -16,0 -30,-13 -30,-30 0,-16 13,-30 30,-30 16,0 30,13 30,30zM286,146" stroke="#000000" stroke-width="12.0" id="path_2"/></svg>