<svg id="vector" xmlns="http://www.w3.org/2000/svg" width="24.0d" height="24.0d" viewBox="0 0 512.0 512.0"><path fill="#c9f3ff" d="M10,66h491v395h-492z" stroke="#000000" stroke-width="16.0" id="path_0"/><path fill="#d8fb93" d="M409,288c0,0 1,-34 30,-48l10,-5l0,0c-8,18 -12,37 -12,57v1l-13,20L409,288z" stroke="#000000" stroke-width="8.0" id="path_1"/><path fill="#62cd4d" d="M420,334L420,335c0,-32 -18,-61 -47,-75l-15,-7l1,1c14,25 23,53 28,81l21,45L420,335z" stroke="#000000" stroke-width="8.0" id="path_2"/><path fill="#a0e557" d="M402,380L402,381c0,-27 -15,-53 -39,-65l-13,-6l0,1c11,21 19,46 24,69h28V381z" stroke="#000000" stroke-width="8.0" id="path_3"/><path fill="#a0e557" d="M415,380v-4c0,-49 23,-95 63,-124l0,0l-0,0c-19,33 -31,88 -31,129h-31V381z" stroke="#000000" stroke-width="8.0" id="path_4"/><path fill="#ffffff" d="M10,10h491v55h-492z" stroke="#000000" stroke-width="16.0" id="path_5"/><path fill="none" d="M96,500v0 M126,500h360 M256,68v392 M68,266l94-94 M188,146h0 M14,420l186-186" stroke-linecap="round" stroke="#000000" stroke-width="16.0" id="path_6"/><path fill="#ffb954" d="M450,501h-80c-6,0 -11,-5 -11,-11V381h103v108C462,496 456,502 450,502z" stroke="#000000" stroke-width="8.0" id="path_7"/></svg>