<svg id="vector" xmlns="http://www.w3.org/2000/svg" width="24.0d" height="24.0d" viewBox="0 0 682.0 682.0"><path fill="#7fb3fa" d="m322,254c-112,-34 -232,28 -266,141 -34,112 28,232 141,266 62,19 127,8 178,-24l87,-245C442,329 391,276 322,254" stroke="#000000" stroke-width="20.0" id="path_0"/><path fill="#ff94d5" d="M467,393c-77,-0 -139,62 -139,139 0,77 62,139 139,139 77,-0 139,-62 139,-139C606,455 544,393 467,393 M538,39c0,16 -13,29 -29,29 -16,-0 -29,-13 -29,-29 0,-16 13,-29 29,-29C525,10 538,23 538,39" stroke="#000000" stroke-width="20.0" id="path_1"/><path fill="#ff94d5" d="m635,98c0,16 -13,29 -29,29 -16,-0 -29,-13 -29,-29 0,-16 13,-29 29,-29C622,68 635,81 635,98" stroke="#000000" stroke-width="20.0" id="path_2"/><path fill="none" d="M427,399c-35,33 -57,81 -57,133 0,52 22,100 57,133 M478,393c-39,33 -63,83 -63,139 0,55 24,105 63,139 M515,401c-34,33 -55,79 -55,131 0,51 21,97 55,131" stroke-linecap="round" stroke="#000000" stroke-width="20.0" id="path_3"/><path fill="none" d="M476,609C525,606 570,587 604,556 M330,561C344,573 361,583 378,591 M461,557c1,0 2,0 3,0 53,-0 101,-19 139,-52 M329,508C341,518 354,527 369,534 M462,505c0,0 1,0 2,0 46,-0 89,-15 124,-40 M343,467C353,474 364,480 375,485" stroke-linecap="round" stroke="#000000" stroke-width="20.0" id="path_4"/><path fill="none" d="M261,245c-67,33 -120,92 -144,169 -23,77 -12,156 24,221 M178,456C161,530 175,606 214,667 M339,260C274,288 221,340 192,409 M389,288c-64,33 -116,91 -139,167 -22,75 -12,152 21,216" stroke-linecap="round" stroke="#000000" stroke-width="20.0" id="path_5"/><path fill="none" d="M241,493c1,0 3,1 4,1 27,8 55,12 82,13 M264,417C266,417 267,418 269,418 302,428 336,433 369,432 M258,500 L205,561 M587,120 L319,429 M323,510 L282,623 M498,67 L356,432" stroke-linecap="round" stroke="#000000" stroke-width="20.0" id="path_6"/></svg>