<svg id="vector" xmlns="http://www.w3.org/2000/svg" width="24.0d" height="24.0d" viewBox="0 0 512.0 512.0"><path fill="#bddbff" d="m478,409c0,-52 -99,-94 -222,-94 -122,0 -222,42 -222,94 0,52 99,94 222,94 122,0 222,-42 222,-94z" id="path_0"/><path fill="#d7fc7e" d="M342,224 l-50,-75h34l-46,-68h23l-46,-68 -46,68h23l-46,68h34l-50,75zM125,205h-29l39,-58h-19l39,-57 36,53 -3,4h-13l24,35 -27,41h26l30,45h-145z" id="path_1"/><path fill="#ffb655" d="M233,224h46v90h-46zM135,329v-60h39v51c-13,2 -26,5 -39,8z" id="path_2"/><path fill="#c6c5ca" d="M392,291h-18c-4,4 -6,6 -11,11v23c14,3 28,7 41,12v-35c-4,-4 -6,-6 -11,-11zM362,325v-37c-4,-4 -7,-7 -12,-12h-26c-4,4 -7,7 -12,12v29c18,2 35,4 51,8z" stroke="#000000" stroke-width="8.0" id="path_3"/><path fill="#ff8243" d="M233,224h20v90h-20zM155,269h-20v60c6,-1 13,-3 20,-5z" id="path_4"/><path fill="#000000" d="m416,335c-43,-18 -99,-28 -160,-28 -60,0 -117,10 -160,28 -45,19 -69,45 -69,73 0,28 24,54 69,73 43,18 99,28 160,28 60,0 117,-10 160,-28 45,-19 69,-45 69,-73 0,-28 -24,-54 -69,-73zM410,469c-41,17 -96,27 -154,27 -58,0 -113,-9 -154,-27 -38,-16 -60,-38 -60,-60 0,-21 22,-43 60,-60 41,-17 96,-27 154,-27 58,0 113,9 154,27 38,16 60,38 60,60 0,21 -22,43 -60,59z" id="path_5"/><path fill="#000000" d="m172,156h34l-28,41h-30v15h19l-12,18h69v63h15v-63h31v63h15v-63h69l-50,-75h34l-46,-68h23l-60,-89 -60,89h23zM256,25 L288,72h-23l46,68h-34l50,75h-143l40,-60h37v-15h-62l36,-53h13v-15h-26z" id="path_6"/><path fill="#000000" d="m127,277v31h15v-31h24v23h15v-23h28v-15h-114l43,-63h-29l39,-58h-19l25,-37 17,26 12,-8 -30,-44 -53,78h19l-39,58h29l-43,63z" id="path_7"/><path fill="#ffffff" d="m307,391c-0,0 -1,-0 -2,-0l0,-15c0,0 1,0 2,0 11,0 17,-1 23,-3 6,-2 13,-4 27,-4 14,0 21,2 27,4 6,2 11,3 23,3v15c-14,0 -21,-2 -27,-4 -6,-2 -11,-3 -23,-3 -11,0 -17,1 -23,3 -6,2 -13,4 -27,4 -0,0 -0,0 -0,0zM294,390c-6,-0 -10,-2 -14,-3l-1,-0 4,-14 1,0c3,1 7,2 12,3zM270,384c-4,-0 -8,-1 -13,-1v-15c6,0 11,0 16,1z" id="path_8"/><path fill="#ffffff" d="m208,439c-14,0 -21,-2 -27,-4 -6,-2 -11,-3 -23,-3 -0,0 -1,0 -2,0l-0,-15c0,-0 1,-0 2,-0 14,0 21,2 27,4 6,2 11,3 23,3 11,0 17,-1 23,-3 6,-2 13,-4 27,-4v15c-11,0 -17,1 -23,3 -6,2 -13,4 -27,4zM106,439v-15c5,0 9,-0 13,-1l2,14c-4,1 -10,1 -16,1zM133,435 L128,421 129,420c4,-1 8,-2 14,-3l2,14c-4,0 -8,1 -12,3z" id="path_9"/></svg>