<svg width="100" height="100" viewBox="0 0 100 100" fill="none" xmlns="http://www.w3.org/2000/svg">
<g clip-path="url(#clip0_8_44)">
<path d="M59.2308 33.9038C37.476 34.2644 28.4615 49.7692 28.4615 49.7692C28.4615 49.7692 37.476 65.1538 59.2308 65.6346C80.9856 65.274 90 49.7692 90 49.7692C90 49.7692 80.9856 34.3846 59.2308 33.9038Z" fill="#D8ECFE"/>
<path d="M43.3654 49.7692C43.3654 45.5774 45.0306 41.5573 47.9946 38.5932C50.9587 35.6291 54.9788 33.9639 59.1707 33.9639C63.3625 33.9639 67.3826 35.6291 70.3467 38.5932C73.3108 41.5573 74.9759 45.5774 74.9759 49.7692C74.9759 53.9611 73.3108 57.9812 70.3467 60.9453C67.3826 63.9093 63.3625 65.5745 59.1707 65.5745C54.9788 65.5745 50.9587 63.9093 47.9946 60.9453C45.0306 57.9812 43.3654 53.9611 43.3654 49.7692Z" fill="#0182FC"/>
<path d="M59.2308 58.5433C54.4231 58.5433 50.4567 54.5769 50.4567 49.7692C50.4567 44.9615 54.4231 40.9952 59.2308 40.9952C64.0385 40.9952 68.0048 44.9615 68.0048 49.7692C68.0048 54.5769 64.0385 58.5433 59.2308 58.5433Z" fill="#465A61"/>
<path d="M64.5192 48.6875C62.2356 48.6875 60.3125 46.7644 60.3125 44.4808C60.3125 42.1971 62.2356 40.274 64.5192 40.274C66.8029 40.274 68.726 42.1971 68.726 44.4808C68.726 46.7644 66.8029 48.6875 64.5192 48.6875Z" fill="#D8ECFE"/>
</g>
<path d="M36.4 63.8596C36.4 68.5498 32.6805 72.352 28.0923 72.352C23.5041 72.352 19.7846 68.5498 19.7846 63.8596C19.7846 59.1695 30.1231 46.1366 28.0923 51.8596C26.6154 46.1366 36.4 59.1695 36.4 63.8596Z" fill="#7285FF"/>
<defs>
<clipPath id="clip0_8_44">
<rect width="61.5385" height="61.5385" fill="white" transform="translate(28.4615 19)"/>
</clipPath>
</defs>
</svg>
