<svg id="vector" xmlns="http://www.w3.org/2000/svg" width="24.0d" height="24.0d" viewBox="0 0 512.0 512.0"><path fill="#613d5c" d="M121,196h270v210h-270zM391,196h-270c0,-57 108,-97 130,-105 1,-0 3,-1 4,-1s3,0 4,1c21,7 130,47 130,105zM391,406c0,57 -108,97 -130,105 -1,0 -3,1 -4,1s-3,-0 -4,-1c-21,-7 -130,-47 -130,-105z" id="path_0"/><path fill="#4b2746" d="M256,196h135v210h-135zM256,406h135c0,57 -108,97 -130,105 -1,0 -3,1 -4,1zM391,196h-135v-106c1,0 3,0 4,1 21,7 130,47 130,105z" id="path_1"/><path fill="#fed843" d="M151,196h90v210h-90zM271,196h90v210h-90z" id="path_2"/><path fill="none" d="M16,389l42,-20M426,246l42,-20M65,252 l-42,-20M475,396 l-42,-20M76,316h-61M497,316h-61" stroke-linecap="round" stroke="#fed843" stroke-width="16.0" id="path_3"/><path fill="#4b2746" d="M421,196c0,8 -6,15 -15,15h-300c-8,0 -15,-6 -15,-15 0,-8 6,-15 15,-15h300c8,0 15,6 15,15zM421,406c0,8 -6,15 -15,15h-300c-8,0 -15,-6 -15,-15 0,-8 6,-15 15,-15h300c8,0 15,6 15,15z" id="path_4"/><path fill="#351b33" d="M421,406c0,8 -6,15 -15,15h-150v-30h150c8,0 15,6 15,15zM406,211h-150v-30h150c8,0 15,6 15,15 0,8 -6,15 -15,15z" id="path_5"/><path fill="#613d5c" d="m256,0c-25,0 -45,20 -45,45s20,45 45,45 45,-20 45,-45 -20,-45 -45,-45zM256,60c-8,0 -15,-6 -15,-15s6,-15 15,-15 15,6 15,15 -6,15 -15,15z" id="path_6"/><path fill="#4b2746" d="m301,45c0,25 -20,45 -45,45v-30c8,0 15,-6 15,-15s-6,-15 -15,-15v-30c25,0 45,20 45,45z" id="path_7"/></svg>