<svg id="vector" xmlns="http://www.w3.org/2000/svg" width="24.0d" height="24.0d" viewBox="0 0 512.0 512.0"><path fill="#ad8761" d="M32,501l-21,-21l344,-344l21,21z" stroke="#000000" stroke-width="12.0" id="path_0"/><path fill="#b0bec5" d="M499,12l-113,42l-2,42l-33,33l31,31l33,-33l42,-2z" stroke="#000000" stroke-width="12.0" id="path_1"/><path fill="#ed593b" d="M435,254c0,0 -13,-3 -29,-10c-5,-2 -11,-6 -17,-10c3,-9 6,-20 6,-30c0,-15 -2,-27 -6,-36c8,4 16,12 25,22c0,0 0,0 1,1C434,214 435,254 435,254zM369,268c0,0 -25,-32 -25,-65s11,-52 25,-52c13,0 25,19 25,52S369,268 369,268z" stroke="#000000" stroke-width="12.0" id="path_2"/></svg>