<svg id="vector" xmlns="http://www.w3.org/2000/svg" width="24.0d" height="24.0d" viewBox="0 0 512.0 512.0"><path fill="#655e67" d="m293,311 l-93,-93 39,-86 139,139z" id="path_0"/><path fill="#f7e782" d="M379,272 l-139,-139 66,-66c4,-4 11,-4 15,0l124,124c4,4 4,11 0,15zM9,455 l46,46c12,12 33,12 46,0l190,-190 -93,-93 -190,190c-12,12 -12,33 0,46z" id="path_1"/><path fill="#e5979d" d="m163,372 l-23,-23c-2,-2 -2,-5 0,-7l15,-15c2,-2 5,-2 7,0l23,23c2,2 2,5 0,7l-15,15c-2,2 -5,2 -7,0z" stroke="#000000" stroke-width="8.0" id="path_2"/><path fill="#b3e59f" d="m116,418 l-23,-23c-2,-2 -2,-5 0,-7l15,-15c2,-2 5,-2 7,0l23,23c2,2 2,5 0,7l-15,15c-2,2 -5,2 -7,0z" stroke="#000000" stroke-width="8.0" id="path_3"/><path fill="none" d="M419,100l38,-38M384,65l27,-50M453,135l50,-27" stroke-linecap="round" stroke="#f7e782" stroke-width="16.0" id="path_4"/><path fill="#655e67" d="m448,213 l-150,-149c-2,-2 -2,-7 0,-10l11,-11c2,-2 7,-2 10,0l150,149c2,2 2,7 0,10l-11,11c-2,2 -7,2 -10,0z" id="path_5"/></svg>