<svg id="vector" xmlns="http://www.w3.org/2000/svg" width="24.0d" height="24.0d" viewBox="0 0 682.0 682.0"><path fill="#fdc266" d="M518,531 L509,489L509,411L459,411L459,489l11,79c0,3 3,5 6,5l60,-0c10,-0 16,-10 11,-19C542,542 531,534 518,531z" stroke="#000000" stroke-width="20.0" id="path_0"/><path fill="none" d="M153,261C153,261 48,306 111,427 M107,490C107,490 107,531 54,531" stroke="#000000" stroke-width="20.0" id="path_1"/><path fill="#935b44" d="m40,567l-15,-0c-8,-0 -15,-6 -15,-15 0,-15 12,-27 27,-27L52,524c8,-0 15,6 15,15C68,555 56,567 40,567" stroke="#000000" stroke-width="20.0" id="path_2"/><path fill="#fdc266" d="M386,367L250,367L250,383L206,452l36,117c0,2 3,4 6,4l49,-0c10,-0 16,-11 11,-20 -5,-10 -15,-17 -27,-20l-17,-56c0,-0 91,-16 121,-108" stroke="#000000" stroke-width="20.0" id="path_3"/><path fill="#ffd693" d="m487,573 l-53,0c-3,0 -5,-2 -6,-5l-19,-79l0,-91c0,-0 -44,22 -157,12 -52,58 -96,65 -96,65l16,55c13,2 24,10 31,22C206,562 200,573 190,573l-52,0c-2,0 -5,-1 -6,-4l-32,-105c-2,-7 -1,-15 3,-22l37,-57l0,-81c0,-31 24,-60 56,-60 30,0 76,8 120,8 52,-0 142,-43 142,-43L459,489l8,42C481,534 492,542 498,553 503,562 497,573 487,573" stroke="#000000" stroke-width="20.0" id="path_4"/><path fill="#aa6a50" d="m496,435l-93,-0c-7,-0 -13,-5 -13,-13l0,-182c0,-72 58,-130 130,-130l54,-0c16,-0 29,13 29,29L604,327C604,387 556,435 496,435" stroke="#000000" stroke-width="20.0" id="path_5"/><path fill="#ffd693" d="m627,196 l-0,-7c-0,-9 -7,-16 -16,-17l-39,-4c-6,-0 -12,3 -14,9 -12,44 -5,84 -0,103 1,6 7,10 14,9 24,-2 58,-4 74,-4 5,-0 10,-3 12,-9l13,-40c1,-5 -0,-11 -4,-15C654,210 640,202 627,196z" stroke="#000000" stroke-width="20.0" id="path_6"/><path fill="none" d="M596,202L596,202 M480,361 L484,371 M450,366 L446,378 M472,180 L465,192 M499,190 L502,203 M518,306 L522,319 M250,410 L266,347" stroke-linecap="round" stroke="#000000" stroke-width="20.0" id="path_7"/></svg>