<svg id="vector" xmlns="http://www.w3.org/2000/svg" width="24.0d" height="24.0d" viewBox="0 0 512.0 512.0"><path fill="#ff5a58" d="m474,462.8c2.9,9 4.8,16 5.6,21s-0,9 -2.9,11.9c-2.8,2.5 -7.7,4 -14.7,4.8 -6.9,0.6 -16.7,0.9 -28.9,0.9 -12.8,0 -22.8,-0 -29.9,-0.5 -7.2,-0 -12.6,-1 -16,-2 -3.7,-1 -6.3,-2.7 -7.8,-4.7 -1.5,-1.9 -2.8,-4.6 -3.7,-7.8l-32,-97.9h-183.7l-30.7,95c-1,3.6 -2,6.5 -3.9,8.8 -1.5,2 -4,4 -7.8,5.6 -3.6,1 -8.7,2 -15,2.8 -6.6,0.5 -15,0.7 -26,0.7 -11.5,0 -20.5,-0 -27,-1 -6.5,-0.7 -11,-2.5 -13,-5.4 -2.5,-2.9 -3,-7 -2.7,-12s2.7,-12 5.6,-21l150,-432c1,-4 3,-7.7 5,-10 1.9,-2.7 5,-4.6 9.5,-6 4.5,-1 10.5,-2 18,-2.7 7.7,-0 17.9,-0.5 30.8,-0.5 14.7,0 26.6,0 35,0.5 8.8,0 15.6,1 20.5,2.7s8,3 10.5,6c2,2.8 3.9,6.5 5.4,11zM250.6,104.9h-0l-67.8,207h136.7z" stroke="#000000" stroke-width="12.0" id="path_0"/></svg>