<svg id="vector" xmlns="http://www.w3.org/2000/svg" width="24.0d" height="24.0d" viewBox="0 0 682.6 682.6"><path fill="#b8ebfa" d="m407.2,133.1c0,-36.3 -29.4,-65.8 -65.8,-65.8 -36.3,-0 -65.8,29.4 -65.8,65.8 0,36.3 29.4,65.8 65.8,65.8C377.7,198.9 407.2,169.4 407.2,133.1" id="path_0"/><path fill="#dcf5fc" d="m669.3,488.8c0,69.9 -146.8,126.6 -328,126.6 -181,-0 -328,-56.7 -328,-126.6 0,-69.9 146.8,-126.6 328,-126.6C522.4,362 669.3,418.8 669.3,488.8" id="path_1"/><path fill="none" d="m407.2,133.1c0,-36.3 -29.4,-65.8 -65.8,-65.8 -36.3,-0 -65.8,29.4 -65.8,65.8 0,36.3 29.4,65.8 65.8,65.8C377.7,198.9 407.2,169.4 407.2,133.1Z" stroke="#84b6ff" stroke-width="26.6" id="path_2"/><path fill="none" d="m377.5,362.9c164,6.9 291.7,60.6 291.7,125.8 0,69.9 -146.8,126.6 -328,126.6 -181,-0 -328,-56.6 -328,-126.6 0,-65.2 127.6,-118.8 291.6,-125.8" stroke="#84b6ff" stroke-width="26.6" id="path_3"/><path fill="#b8ebfa" d="M374.2,348.6L374.2,298.5C374.2,280 359,264.5 340.7,264.8 322.8,265 308.4,279.8 308.4,297.7L308.4,348.6c0,40.3 -29.2,74.7 -69.1,81.1 -68.3,10.8 -114.8,32.2 -114.8,56.8 0,35.5 97,64.4 216.9,64.4 119.8,-0 216.9,-28.8 216.9,-64.4 0,-24.6 -46.5,-46 -114.8,-56.8C403.5,423.4 374.2,388.9 374.2,348.6" id="path_4"/><path fill="none" d="M374.2,348.6L374.2,298.5C374.2,280 359,264.5 340.7,264.8 322.8,265 308.4,279.8 308.4,297.7L308.4,348.6c0,40.3 -29.2,74.7 -69.1,81.1 -68.3,10.8 -114.8,32.2 -114.8,56.8 0,35.5 97,64.4 216.9,64.4 119.8,-0 216.9,-28.8 216.9,-64.4 0,-24.6 -46.5,-46 -114.8,-56.8C403.5,423.4 374.2,388.9 374.2,348.6Z" stroke="#84b6ff" stroke-width="26.6" id="path_5"/></svg>