<svg id="vector" xmlns="http://www.w3.org/2000/svg" width="24.0d" height="24.0d" viewBox="0 0 512.0 512.0"><path fill="#2d9547" d="m318,488h-64c21,-12 13,-26 35,-39 22,-13 30,0 53,-12s14,-26 37,-39 30,0 53,-12c8,-4 12,-9 15,-14a21,21 0,1 1,34 25c-9,10 -8,20 -25,30 -22,13 -30,-0 -53,12s-14,26 -37,39c-20,12 -29,0 -48,9z" stroke="#000000" stroke-width="12.0" id="path_0"/><path fill="#2d9547" d="m318,361c-8,24 6,30 -2,54s-23,18 -32,43c-4,12 -2,20 -1,28h-44c2,-16 -7,-23 0,-44 8,-24 23,-18 32,-43s-6,-30 2,-54 23,-18 32,-43 -6,-30 2,-54 23,-18 32,-43 -6,-29 2,-54c6,-18 17,-20 25,-30a21,21 0,0 1,24 -6,21 21,0 0,1 6,35c-4,3 -8,8 -11,17 -8,24 6,29 -2,54s-23,18 -32,43 6,30 -2,54 -23,18 -32,43z" stroke="#000000" stroke-width="12.0" id="path_1"/><path fill="#85bb40" d="m364,398c-16,19 -4,30 -21,50s-28,9 -45,29a46,46 0,0 0,-6 10h-45c7,-14 1,-24 15,-40 16,-19 28,-9 45,-29s4,-30 21,-50 28,-9 45,-29 4,-30 21,-50 28,-9 45,-29a47,47 0,0 0,6 -9c7,-15 29,-15 38,-1a22,22 0,0 1,2 14c-1,8 -1,15 -10,26 -16,19 -28,9 -45,29s-4,30 -21,50 -28,9 -45,29z" stroke="#000000" stroke-width="12.0" id="path_2"/><path fill="#2d9547" d="m193,488h64c-21,-12 -13,-26 -35,-39 -22,-13 -30,0 -53,-12s-14,-26 -37,-39 -30,0 -53,-12c-8,-4 -12,-9 -15,-14a21,21 0,1 0,-34 25c9,10 8,20 25,30 22,13 30,-0 53,12s14,26 37,39c20,12 29,0 48,9z" stroke="#000000" stroke-width="12.0" id="path_3"/><path fill="#2d9547" d="m193,361c8,24 -6,30 2,54s23,18 32,43c4,12 2,20 1,28h44c-2,-16 7,-23 -0,-44 -8,-24 -23,-18 -32,-43s6,-30 -2,-54 -23,-18 -32,-43 6,-30 -2,-54 -23,-18 -32,-43 6,-29 -2,-54c-6,-18 -17,-20 -25,-30a21,21 0,0 0,-24 -6,21 21,0 0,0 -6,35c4,3 8,8 11,17 8,24 -6,29 2,54s23,18 32,43 -6,30 2,54 23,18 32,43z" stroke="#000000" stroke-width="12.0" id="path_4"/><path fill="#85bb40" d="m147,398c16,19 4,30 21,50s28,9 45,29a46,46 0,0 1,6 10h45c-7,-14 -1,-24 -15,-40 -16,-19 -28,-9 -45,-29s-4,-30 -21,-50 -28,-9 -45,-29 -4,-30 -21,-50 -28,-9 -45,-29a47,47 0,0 1,-6 -9c-7,-15 -29,-15 -38,-1a22,22 0,0 0,-2 14c1,8 1,15 10,26 16,19 28,9 45,29s4,30 21,50 28,9 45,29z" stroke="#000000" stroke-width="12.0" id="path_5"/><path fill="#85bb40" d="m274,488c4,-11 13,-16 13,-36 0,-26 -16,-26 -16,-52s16,-26 16,-52 -16,-26 -16,-52 16,-26 16,-52 -16,-26 -16,-52 16,-26 16,-52c0,-20 -9,-24 -13,-37a21,21 0,0 0,-20 -14,21 21,0 0,0 -18,31c2,5 4,11 4,20 0,26 -16,26 -16,52s16,26 16,52 -16,26 -16,52 16,26 16,52 -16,26 -16,52 16,26 16,52c0,19 -8,24 -13,36z" stroke="#000000" stroke-width="12.0" id="path_6"/></svg>