<svg id="vector" xmlns="http://www.w3.org/2000/svg" width="24.0d" height="24.0d" viewBox="0 0 682.0 682.0"><path fill="#ffd15b" d="m656,463c-8,29 -94,30 -191,2 -97,-28 -168,-74 -160,-104 8,-29 94,-30 191,-2C592,386 664,433 656,463" stroke="#000000" stroke-width="20.0" id="path_0"/><path fill="#68ca44" d="M292,284c0,-0 216,58 363,83 13,2 20,16 13,28 -22,38 -79,106 -189,82 -150,-33 -221,-140 -221,-140z M324,359c-1,16 -75,-13 -136,-66 -60,-53 -79,-114 -77,-132 2,-27 51,-3 112,49C283,263 329,312 324,359" stroke="#000000" stroke-width="20.0" id="path_1"/><path fill="#68ca44" d="M324,359c-1,16 -75,-13 -136,-66 -60,-53 -79,-114 -77,-132 2,-27 51,-3 112,49C283,263 329,312 324,359" stroke="#000000" stroke-width="20.0" id="path_2"/><path fill="#97da7b" d="M117,211c-30,30 -50,54 -71,43 -21,-11 -23,-49 -4,-84C59,135 92,123 115,131 139,140 145,184 117,211" stroke="#000000" stroke-width="20.0" id="path_3"/><path fill="#685e68" d="m72,168c-1,12 -12,20 -24,19 -12,-1 -20,-12 -19,-24 1,-12 12,-20 24,-19C65,145 73,156 72,168" stroke="#000000" stroke-width="20.0" id="path_4"/><path fill="#97da7b" d="M215,334c-14,61 -43,136 -57,133 -13,-3 -5,-83 9,-145 14,-61 30,-80 43,-77C224,248 230,272 215,334 M41,386C-0,346 8,337 17,327 27,317 48,318 91,359 133,399 179,464 170,473 161,483 83,427 41,386" stroke="#000000" stroke-width="20.0" id="path_5"/><path fill="none" d="M58,141C52,129 42,105 50,71 M76,134C73,123 67,93 87,60 M10,340 l26,196c0,-0 -29,22 -12,49 M305,390c-0,15 -3,32 -11,39l-55,-17 -24,174 -42,17 M340,418c0,15 2,35 9,49 0,1 141,-29 141,-29l33,174 37,8" stroke-linecap="round" stroke="#000000" stroke-width="20.0" id="path_6"/></svg>