<svg width="100" height="100" viewBox="0 0 100 100" fill="none" xmlns="http://www.w3.org/2000/svg">
<g clip-path="url(#clip0_8_44)">
<path d="M1.5625 49.8047C1.5625 43.4566 2.81285 37.1707 5.24215 31.3058C7.67146 25.441 11.2321 20.112 15.7209 15.6233C20.2097 11.1345 25.5386 7.5738 31.4035 5.1445C37.2683 2.71519 43.5543 1.46484 49.9023 1.46484C56.2504 1.46484 62.5363 2.71519 68.4012 5.1445C74.2661 7.5738 79.595 11.1345 84.0838 15.6233C88.5725 20.112 92.1332 25.441 94.5625 31.3058C96.9918 37.1707 98.2422 43.4566 98.2422 49.8047C98.2422 56.1528 96.9918 62.4387 94.5625 68.3035C92.1332 74.1684 88.5725 79.4974 84.0838 83.9861C79.595 88.4749 74.2661 92.0356 68.4012 94.4649C62.5363 96.8942 56.2504 98.1445 49.9023 98.1445C43.5543 98.1445 37.2683 96.8942 31.4035 94.4649C25.5386 92.0356 20.2097 88.4749 15.7209 83.9861C11.2321 79.4974 7.67146 74.1684 5.24215 68.3035C2.81285 62.4387 1.5625 56.1528 1.5625 49.8047Z" fill="#FEF0AE" stroke="black" stroke-width="0.5625"/>
<path d="M98.0469 50.5859C98.0469 57.4219 96.4844 64.0625 93.5547 70.1172C89.8438 68.75 87.3047 65.0391 87.3047 60.7422C87.3047 55.2734 91.7969 50.5859 97.4609 50.5859C97.6562 50.5859 97.8516 50.5859 98.0469 50.5859Z" fill="#FEE97D" stroke="black" stroke-width="0.5625"/>
<path d="M49.8047 90.4297C53.9062 90.4297 57.4219 93.1641 58.3984 97.0703C55.6641 97.4609 52.7344 97.8516 49.8047 97.8516C46.875 97.8516 43.9453 97.6562 41.2109 97.0703C42.1875 93.1641 45.7031 90.4297 49.8047 90.4297Z" fill="#FEDF30" stroke="black" stroke-width="0.5625"/>
<path d="M61.3281 68.9453C64.4531 68.9453 67.1875 71.4844 67.1875 74.8047C67.1875 77.9297 64.6484 80.6641 61.3281 80.6641C58.2031 80.6641 55.4688 78.125 55.4688 74.8047C55.4688 71.6797 58.0078 68.9453 61.3281 68.9453ZM67.9688 59.375C67.9687 58.2872 68.4009 57.2439 69.1701 56.4748C69.9393 55.7056 70.9825 55.2734 72.0703 55.2734C73.1581 55.2734 74.2014 55.7056 74.9706 56.4748C75.7397 57.2439 76.1719 58.2872 76.1719 59.375C76.1719 60.4628 75.7397 61.5061 74.9706 62.2752C74.2014 63.0444 73.1581 63.4766 72.0703 63.4766C70.9825 63.4766 69.9393 63.0444 69.1701 62.2752C68.4009 61.5061 67.9688 60.4628 67.9688 59.375ZM51.9531 36.9141C51.9531 33.9356 53.1363 31.079 55.2425 28.9729C57.3486 26.8668 60.2051 25.6836 63.1836 25.6836C66.1621 25.6836 69.0186 26.8668 71.1247 28.9729C73.2309 31.079 74.4141 33.9356 74.4141 36.9141C74.4141 39.8926 73.2309 42.7491 71.1247 44.8552C69.0186 46.9613 66.1621 48.1445 63.1836 48.1445C60.2051 48.1445 57.3486 46.9613 55.2425 44.8552C53.1363 42.7491 51.9531 39.8926 51.9531 36.9141Z" fill="#FEE97D" stroke="black" stroke-width="0.5625"/>
<path d="M23.8281 59.1797C23.8281 57.4703 24.5072 55.8309 25.7159 54.6222C26.9246 53.4134 28.564 52.7344 30.2734 52.7344C31.9828 52.7344 33.6222 53.4134 34.831 54.6222C36.0397 55.8309 36.7188 57.4703 36.7188 59.1797C36.7188 60.8891 36.0397 62.5285 34.831 63.7372C33.6222 64.9459 31.9828 65.625 30.2734 65.625C28.564 65.625 26.9246 64.9459 25.7159 63.7372C24.5072 62.5285 23.8281 60.8891 23.8281 59.1797Z" fill="#FEE45A" stroke="black" stroke-width="0.5625"/>
<path d="M18.3594 38.8672C20.5078 38.8672 22.2656 40.625 22.2656 42.7734C22.2656 44.9219 20.5078 46.6797 18.3594 46.6797C16.2109 46.6797 14.4531 44.9219 14.4531 42.7734C14.4531 40.625 16.2109 38.8672 18.3594 38.8672ZM35.1562 3.51562C35.5469 5.07812 35.7422 6.83594 35.7422 8.59375C35.7422 19.1406 27.1484 27.9297 16.4062 27.9297C13.2812 27.9297 10.3516 27.1484 7.61719 25.7812C13.4766 15.4297 23.2422 7.22656 35.1562 3.71094V3.51562Z" fill="#FEDF30" stroke="black" stroke-width="0.5625"/>
</g>
<defs>
<clipPath id="clip0_8_44">
<rect width="100" height="100" fill="white"/>
</clipPath>
</defs>
</svg>
