<svg id="vector" xmlns="http://www.w3.org/2000/svg" width="24.0d" height="24.0d" viewBox="0 0 512.0 512.0"><path fill="#ad712c" d="M87,364c-24,-41 -70,-44 -79,-5c-4,22 7,51 28,68c3,3 10,8 20,10C91,447 114,408 87,364z" stroke="#000000" stroke-width="12.0" id="path_0"/><path fill="#915729" d="M87,364c-10,-17 -24,-27 -37,-31c-6,-1 -13,1 -16,7c-1,3 -2,6 -3,10c-4,22 7,51 28,68c3,3 10,8 20,10c0,0 0,0 0,0c6,1 12,-1 15,-7C101,407 101,386 87,364z" stroke="#000000" stroke-width="12.0" id="path_1"/><path fill="#ad712c" d="M169,277L48,348c-3,1 -5,5 -6,10c-2,10 2,24 10,35l138,-80L169,277z" id="path_2"/><path fill="#915729" d="M52,394c2,3 5,6 8,8c8,6 16,8 22,5l121,-70l-13,-23L52,394z" id="path_3"/><path fill="#c98a2e" d="M194,320l-3,-6l-3,-6L48,387c-0,0 -0,0 -0,0c1,2 2,4 4,6c1,2 3,4 5,5l137,-79C194,320 194,320 194,320z" id="path_4"/><path fill="#915729" d="M156,321c5,10 13,20 21,27c14,11 28,14 37,8l145,-84l-30,-52L156,321z" id="path_5"/><path fill="#ad712c" d="M304,173l-145,84c-5,3 -9,8 -11,17c-2,13 1,31 9,46l174,-101L304,173z" id="path_6"/><path fill="#c98a2e" d="M338,233c0,-0 0,-0 0,-0l-7,-13l-7,-12L150,307c1,4 3,9 6,13c2,4 5,8 8,12L338,233z" id="path_7"/><path fill="#ad712c" d="M373,106l-81,47c-7,4 -13,12 -15,24c-2,11 -1,24 2,38l117,-68L373,106z" id="path_8"/><path fill="#915729" d="M279,215c6,24 21,49 41,65c19,16 39,19 52,12l81,-47l-57,-98L279,215z" id="path_9"/><path fill="#c98a2e" d="M397,146l-12,-21L275,188c-0,8 1,17 3,26c2,7 5,15 9,23l121,-70L397,146z" id="path_10"/><path fill="#915729" d="M483,133c-20,-33 -49,-56 -77,-59c-21,-2 -33,6 -37,9c-13,10 -17,27 -19,33c-7,41 14,95 53,127c6,5 19,14 35,19c28,7 52,-5 62,-32C509,203 503,166 483,133z" id="path_11"/><path fill="#ad712c" d="M403,97L403,97c2,-1 4,-1 8,-1c1,0 2,0 3,0c15,1 37,16 55,45c0,0 0,0 0,0c2,4 10,1 8,-3c-2,-8 -6,-17 -10,-26c-18,-21 -40,-36 -61,-38c-21,-2 -33,6 -37,9c-13,10 -17,27 -19,33c-4,24 1,52 14,78c5,6 11,13 18,18c6,5 19,14 35,19c0,0 0,0 0,0c19,5 35,-16 25,-33l-54,-94L403,97z" id="path_12"/><path fill="#3e474c" d="M453,234c-2,0 -5,-0 -7,-1c-11,-2 -20,-9 -23,-13c-15,-12 -27,-30 -35,-48c-7,-17 -10,-35 -7,-49c1,-3 3,-12 7,-15c2,-1 5,-4 12,-4c1,0 2,0 3,0c15,1 37,16 55,45c15,25 21,53 14,72c-2,6 -7,14 -18,14C453,234 453,234 453,234z" id="path_13"/><path fill="#7f8383" d="M423,171c-1,0 -2,-0 -3,-0c-4,-1 -8,-4 -9,-5c-6,-5 -11,-11 -14,-19c-3,-7 -4,-13 -3,-19c0,-1 1,-4 3,-6c0,-0 2,-1 4,-1c0,0 1,0 1,0c5,0 14,6 21,18c6,10 8,21 5,28C430,168 428,171 423,171L423,171z" id="path_14"/><path fill="#000000" d="M450,125c-16,-19 -34,-28 -46,-30h-0c-1,-0 -3,-0 -4,-0c-9,0 -14,3 -16,5c-6,4 -9,13 -10,19l-0,0c-2,15 0,34 8,53c8,20 21,38 37,51c3,3 14,11 26,14c3,0 6,1 9,1c12,0 21,-7 25,-19c7,-20 1,-50 -15,-78C459,137 455,131 450,125zM464,218c-2,8 -8,9 -11,9c-1,0 -3,-0 -5,-0c-9,-2 -17,-8 -21,-11c-14,-11 -26,-28 -33,-46c-6,-16 -9,-32 -7,-44c2,-8 4,-10 5,-11c1,-1 3,-2 7,-2c0,0 1,0 2,0c12,1 33,15 49,41C465,176 470,201 464,218z" id="path_15"/></svg>