<svg id="vector" xmlns="http://www.w3.org/2000/svg" width="24.0d" height="24.0d" viewBox="0 0 512.0 512.0"><path fill="#a7eedc" d="m249,67c-4,-4 -10,-7 -17,-7 -13,0 -25,11 -25,25v-28c0,-7 -2,-13 -7,-17 -4,-4 -10,-7 -17,-7 -13,0 -25,11 -25,25v-23c0,-7 -2,-13 -7,-17s-10,-7 -17,-7c-13,0 -25,11 -25,25v29c0,-7 -2,-13 -7,-17 -4,-4 -10,-7 -17,-7 -13,0 -25,11 -25,25v96l-0,28 23,78 6,124 -4,81h150v-98l9,-14c10,-14 15,-32 15,-49v-132,-91c0,-7 -2,-13 -7,-17z" stroke="#000000" stroke-width="12.0" id="path_0"/><path fill="#a7eedc" d="m126,307v171h-80l0,-26 -0,-0v-88l-25,-33c-8,-11 -13,-25 -13,-39v-116c0,-7 3,-14 7,-18s11,-7 18,-7c9,0 17,4 21,11 3,4 4,9 4,15v52l15,5c30,11 51,41 51,74z" stroke="#000000" stroke-width="12.0" id="path_1"/><path fill="#a7eedc" d="m231,452c13,1 24,12 24,26 0,7 -3,14 -7,19s-11,7 -19,7h-180c-14,0 -26,-12 -26,-26 0,-7 3,-14 7,-19 4,-4 10,-7 16,-7 0,-0 184,-0 185,0z" stroke="#000000" stroke-width="12.0" id="path_2"/><path fill="#a7eedc" d="m407,63c0,-7 2,-13 7,-17 4,-4 10,-7 17,-7 13,0 25,11 25,25v96,329h-173l-2,-36v-79l-9,-14c-10,-14 -15,-32 -15,-49v-132,-91c0,-7 2,-13 7,-17 4,-4 10,-7 17,-7 13,0 25,11 25,25v-28c0,-7 2,-13 7,-17 4,-4 10,-7 17,-7 13,0 25,11 25,25v-23c0,-7 2,-13 7,-17s10,-7 17,-7c13,0 25,11 25,25z" stroke="#000000" stroke-width="12.0" id="path_3"/><path fill="#a7eedc" d="m506,174v116c0,14 -4,28 -13,39l-25,33 -0,115h-79v-171c0,-33 20,-62 51,-74l15,-5v-52c0,-14 11,-26 26,-26 7,0 14,3 18,7s7,11 7,18z" stroke="#000000" stroke-width="12.0" id="path_4"/><path fill="#a7eedc" d="m284,505h180c14,0 26,-12 26,-26 0,-14 -12,-26 -26,-26h-180c-14,0 -26,12 -26,26 -0,14 12,26 26,26z" stroke="#000000" stroke-width="12.0" id="path_5"/><path fill="none" d="M108,60v120 M157,60v120 M207,60v120 M307,60v120 M357,60v120 M407,60v120" stroke-linecap="round" stroke="#000000" stroke-width="12.0" id="path_6"/></svg>