<svg id="vector" xmlns="http://www.w3.org/2000/svg" width="24.0d" height="24.0d" viewBox="0 0 512.0 512.0"><path fill="#c68a65" d="m326,482h-152c-46,0 -84,-38 -84,-84v-211c0,-10 -8,-20 -19,-20 -11,-0 -20,8 -20,19v50c0,10 -8,20 -19,20 -11,0 -20,-8 -20,-19v-50c0,-33 26,-60 59,-61 33,-0 61,26 61,59v211c0,24 20,44 44,44h47z" stroke="#000000" stroke-width="12.0" id="path_0"/><path fill="#c68a65" d="m482,244c-13,-34 -30,-56 -37,-64l-0,-0c15,-16 24,-38 24,-61 0,-49 -40,-89 -89,-89h-68c-49,0 -89,40 -89,89 0,23 9,45 25,62 -47,32 -75,86 -75,144 0,86 70,156 156,156h81l44,-82c-2,11 5,22 16,25 12,3 24,-5 26,-17 12,-71 -1,-127 -15,-162z" stroke="#000000" stroke-width="12.0" id="path_1"/><path fill="#ffe6b4" d="m425,119c0,-25 -20,-45 -45,-45h-68c-25,0 -45,20 -45,45 0,16 9,31 22,39 0,31 26,56 57,56 31,0 57,-25 57,-57 12,-8 21,-22 21,-38z" stroke="#000000" stroke-width="12.0" id="path_2"/><path fill="#ff9eb1" d="M472,58m-28,0a28,28 0,1 1,56 0a28,28 0,1 1,-56 0M219,58m-28,0a28,28 0,1 1,56 0a28,28 0,1 1,-56 0" stroke="#000000" stroke-width="12.0" id="path_3"/><path fill="#ffcd69" d="m433,413c-13,-13 -19,-31 -18,-48 0,-8 -8,-12 -14,-7 -12,11 -20,28 -20,46 -0,34 28,62 62,62 18,0 35,-8 46,-20 5,-6 0,-15 -7,-14 -17,1 -35,-5 -48,-18z" stroke="#000000" stroke-width="12.0" id="path_4"/><path fill="#c68a65" d="m255,239c0,19 15,35 34,35 18,-0 33,-15 33,-34v-15c0,-12 9,-22 22,-22 12,0 22,9 22,22v15c0,43 -35,78 -79,78" stroke="#000000" stroke-width="12.0" id="path_5"/><path fill="#000000" d="m314,115c-2,0 -5,1 -7,3 -1,1 -3,4 -3,7 0,2 1,5 3,7 1,1 4,3 7,3 2,0 5,-1 7,-3 1,-1 3,-4 3,-7s-1,-5 -3,-7c-1,-1 -4,-3 -7,-3z" id="path_6"/><path fill="#000000" d="m376,135c2,0 5,-1 7,-3 1,-1 3,-4 3,-7s-1,-5 -3,-7c-1,-1 -4,-3 -7,-3s-5,1 -7,3c-1,1 -3,4 -3,7 0,2 1,5 3,7 1,1 4,3 7,3z" id="path_7"/><path fill="#000000" d="m358,161c0,-5 -4,-10 -10,-10h-6c-5,0 -10,4 -10,10s4,10 10,10h6c5,0 10,-4 10,-10z" id="path_8"/></svg>