<svg id="vector" xmlns="http://www.w3.org/2000/svg" width="24.0d" height="24.0d" viewBox="0 0 512.0 512.0"><path fill="#d1a184" d="m411,90 l-235,235c-31,31 -53,72 -61,117 -1,8 -5,15 -11,21 -16,16 -42,16 -58,0l-21,-21c-16,-16 -16,-42 0,-58l342,-342c13,-13 34,-13 47,0 13,13 13,34 0,47z" stroke="#000000" stroke-width="12.0" id="path_0"/><path fill="#c5d3de" d="m320,310c76,-16 142,-64 181,-130l-165,-129c-10,-8 -25,-7 -35,2l-77,77c-10,10 -10,27 0,37l63,63c20,20 32,48 33,78z" stroke="#000000" stroke-width="12.0" id="path_1"/><path fill="#ffffff" d="m310,265c63,-13 118,-52 152,-109l3,-4 35,27c-39,65 -105,114 -181,130 -0,-15 -3,-30 -9,-44z" stroke="#000000" stroke-width="12.0" id="path_2"/></svg>