<svg id="vector" xmlns="http://www.w3.org/2000/svg" width="24.0d" height="24.0d" viewBox="0 0 517.0 517.0"><path fill="#a7eedc" d="m441,152c24,77 24,148 0,212 -1,2 -2,4 -5,5 -118,47 -236,47 -354,0 -2,-1 -4,-2 -5,-5 -25,-70 -25,-141 -0,-212 1,-2 3,-4 5,-5 124,-45 242,-45 354,-0 2,1 4,3 5,5z" id="path_0"/><path fill="#000000" d="m511,165 l-1,-3c-7,-12 -19,-20 -33,-22 -10,-1 -20,0 -29,5 -1,-2 -4,-5 -7,-6 -12,-5 -26,-9 -39,-13 -4,-1 -8,1 -9,5 -1,4 1,8 5,9 12,3 25,8 38,13 0,0 0,0 0,1 1,5 3,11 5,17 -114,-21 -235,-20 -361,1 1,-6 3,-12 6,-18 0,-0 0,-0 1,-0 48,-17 96,-28 143,-31 46,-3 92,-0 136,9 4,1 8,-1 9,-5 1,-4 -1,-8 -5,-9 -91,-21 -188,-13 -288,22 -3,1 -6,3 -8,6 -9,-5 -19,-7 -30,-6 -14,2 -26,10 -33,22l-1,3c-7,12 -8,27 -2,41 0,0 60,141 60,141 2,6 4,12 6,19 1,4 5,8 9,9 59,23 120,35 180,35h0c59,-0 120,-12 180,-35 4,-1 7,-5 9,-9 3,-9 6,-18 9,-27l56,-132c5,-13 4,-28 -2,-41zM445,328c-99,19 -197,23 -297,11 -4,-0 -7,2 -8,6s2,7 6,8c38,4 75,6 113,6 60,0 120,-5 181,-17 -1,5 -3,11 -6,17 -0,0 -0,0 -0,0 -58,23 -116,34 -174,34 -0,0 -0,0 -0,0 -57,-0 -116,-11 -174,-34 -0,-0 -0,-0 -0,-0 -2,-5 -4,-11 -5,-17 12,2 24,4 35,6 0,0 0,0 1,0 3,0 6,-2 7,-6 0,-4 -2,-8 -6,-8 -14,-2 -28,-4 -42,-7 -4,-18 -7,-37 -8,-56h224c4,0 7,-3 7,-7s-3,-7 -7,-7h-224c0,-7 0,-14 0,-21 0,-4 -2,-7 -6,-8 -4,-0 -7,2 -8,6 -1,15 -1,30 -0,45l-33,-79c-3,-9 -3,-19 1,-27l1,-3c4,-8 13,-13 22,-15 8,-1 16,1 22,5 -4,13 -8,27 -10,41 -0,4 2,8 6,8 0,0 1,0 1,0 3,0 6,-2 7,-6 1,-5 2,-10 3,-15 129,-23 253,-23 369,-0 5,23 8,46 8,69h-127c-4,0 -7,3 -7,7s3,7 7,7h127c-0,19 -3,38 -7,56zM500,201 L467,279c1,-37 -3,-77 -15,-118 6,-4 14,-6 22,-5 9,1 17,6 22,15l1,3c5,8 5,18 1,27z" id="path_1"/></svg>