<svg id="vector" xmlns="http://www.w3.org/2000/svg" width="24.0d" height="24.0d" viewBox="0 0 512.0 512.0"><path fill="#f4e7df" d="m453,226c0,-16 -13,-30 -30,-30h-39c-16,0 -30,-13 -30,-30 0,-16 -13,-30 -30,-30h-240c-16,0 -30,13 -30,30 0,16 13,30 30,30h39c16,0 30,13 30,30 0,16 -13,30 -30,30h-39c-16,0 -30,13 -30,30 0,16 13,30 30,30h39c16,0 30,13 30,30 0,16 13,30 30,30h240c16,0 30,-13 30,-30 0,-16 -13,-30 -30,-30h-2c-16,0 -30,-13 -30,-30 0,-16 13,-30 30,-30h2c16,0 30,-13 30,-30z" stroke="#000000" stroke-width="16.0" id="path_0"/><path fill="#ffffff" d="M9,473l79,-79l28,28l-79,79zM394,89l79,-79l28,28l-79,79z" stroke="#000000" stroke-width="16.0" id="path_1"/><path fill="#d0a084" d="M96,343l247,-247l72,72l-247,247zM74,379l28,-28l57,57l-28,28zM350,103l28,-28l57,57l-28,28z" stroke="#000000" stroke-width="16.0" id="path_2"/></svg>