<svg id="vector" xmlns="http://www.w3.org/2000/svg" width="24.0d" height="24.0d" viewBox="0 0 128.0 128.0"><path fill="#ffdfb3" d="M84.8,60.3V48h-8.3v-17h-13v-20c-1.8,-0.2 -3.6,-0.3 -5.4,-0.3c-24.2,0 -43.7,19.6 -43.7,43.7L2.2,75.2L14.4,79v5.3c0,7.8 6.3,14 14,14h7.6v27.5h37.4V95.5c15,-5.7 25.9,-19.2 28,-35.2H84.8z" id="path_0"/><path fill="#ff525f" d="M84.8,60.3V48h-8.3v-17h-13v-7.8c-5.5,-2.2 -11.8,-0.9 -15.9,3.4c-6.7,-1.5 -13.4,2.7 -14.9,9.5c-0.4,1.8 -0.4,3.7 0,5.5c-3.9,1.5 -6.5,5.3 -6.3,9.5c0.4,5.2 4.7,9.2 9.9,9.2h40.2c1.3,0 2.3,1 2.3,2.3c0,0.7 -0.3,1.4 -0.9,1.8l-7.8,6c-1.3,1 -1.6,2.9 -0.6,4.2c1,1.3 2.8,1.6 4,0.6l7.8,-5.4c3.4,-2.3 5.9,-5.7 7.3,-9.5H84.8z" id="path_1"/><path fill="#ffdf40" d="M71.9,10h12.2v12.2h-12.2z" id="path_2"/><path fill="#804080" d="M84,29.8h11v11h-11z" id="path_3"/><path fill="#6cd9d9" d="M111.4,12.9h14.3v14.3h-14.3z" id="path_4"/><path fill="#ff525f" d="M101.5,36.2h16.5v16.5h-16.5z" id="path_5"/><path fill="#ffbe40" d="M91,2.2h13.9v13.9h-13.9z" id="path_6"/><path fill="#000000" d="M76.5,51.3h-9c-0.7,0 -1.3,-0.6 -1.3,-1.3v-1.7c0,-2.7 -2.2,-4.8 -4.8,-4.8h-5c-1,0 -1.7,0.8 -1.7,1.7s0.8,1.7 1.7,1.7h5c0.7,0 1.3,0.6 1.3,1.3v1.7c0,2.7 2.2,4.8 4.8,4.8h9c1,0 1.7,-0.8 1.7,-1.7S77.5,51.3 76.5,51.3z" id="path_7"/></svg>