<svg id="vector" xmlns="http://www.w3.org/2000/svg" width="24.0d" height="24.0d" viewBox="0 0 512.0 512.0"><path fill="#ffffff" d="m361,120h-210l-40,23c-12,7 -19,20 -19,34v284c0,22 18,40 40,40h250c22,0 40,-18 40,-40v-284c0,-14 -7,-27 -19,-34z" stroke="#000000" stroke-width="12.0" id="path_0"/><path fill="#cad7e2" d="m269,442c10,31 92,3 92,60 0,0 -142,0 -160,0 -33,0 -60,-26 -60,-60s26,-60 60,-60 57,27 68,60z" stroke="#000000" stroke-width="12.0" id="path_1"/><path fill="#e2e9ee" d="m151,80h210c11,0 20,9 20,20 0,11 -9,20 -20,20h-210c-11,0 -20,-9 -20,-20 0,-11 9,-20 20,-20z" stroke="#000000" stroke-width="12.0" id="path_2"/><path fill="#ddb9a3" d="M361,80h-210l-14,-25c-3,-6 -5,-12 -5,-19v-24h250v24c0,7 -1,13 -5,19zM173,120h165l-20,40h-125z" stroke="#000000" stroke-width="12.0" id="path_3"/><path fill="#000000" d="m236,309c5,0 10,-4 10,-10v-80c0,-5 -4,-10 -10,-10s-10,4 -10,10v30h-20v-30c0,-5 -4,-10 -10,-10s-10,4 -10,10v80c0,5 4,10 10,10s10,-4 10,-10v-30h20v30c0,5 4,10 10,10z" id="path_4"/><path fill="#000000" d="m316,249c-2,0 -5,1 -7,3 -4,-1 -8,-3 -13,-3 -16,0 -30,13 -30,30s13,30 30,30c3,0 6,-0 10,-1v12c0,5 -4,10 -10,10 -8,0 -12,-2 -12,-2 -5,-2 -10,-0 -13,4s-0,11 4,13c1,0 8,4 21,4 16,0 30,-13 30,-30v-61c0,-5 -4,-10 -10,-10zM296,289c-5,0 -10,-4 -10,-10s4,-10 10,-10 10,4 10,10 -4,10 -10,10z" id="path_5"/></svg>