<svg id="vector" xmlns="http://www.w3.org/2000/svg" width="24.0d" height="24.0d" viewBox="0 0 512.0 512.0"><path fill="#ecf4ff" d="M276,102c-6,0 -12,-1 -17,-3v69c5,-1 11,-1 17,-1 6,0 11,0 17,1v-69c-5,2 -11,3 -17,3zM168,259h-69c2,5 3,11 3,17 0,6 -1,12 -3,17h69c-1,-5 -1,-11 -1,-17 0,-6 0,-11 1,-17z" stroke="#000000" stroke-width="12.0" id="path_0"/><path fill="#ecf4ff" d="M153,400c4,4 7,9 10,14l49,-49c-9,-6 -17,-15 -24,-24l-49,49c5,2 10,5 14,9zM423,423c4,-4 9,-7 14,-9l-72,-72c-6,9 -15,17 -24,24l72,72c2,-5 5,-10 10,-14z" stroke="#000000" stroke-width="12.0" id="path_1"/><path fill="#e5646e" d="M269,101a47,47 99,1 0,15 -93a47,47 99,1 0,-15 93zM120,433m-47,0a47,47 0,1 1,94 0a47,47 0,1 1,-94 0M456,456m-47,0a47,47 0,1 1,94 0a47,47 0,1 1,-94 0M8,284a47,47 80,1 0,93 -15a47,47 80,1 0,-93 15z" stroke="#000000" stroke-width="12.0" id="path_2"/><path fill="#ffe07d" d="M276,276m-109,0a109,109 0,1 1,218 0a109,109 0,1 1,-218 0" stroke="#000000" stroke-width="12.0" id="path_3"/><path fill="#000000" d="m281,243c6,0 13,2 18,5 3,2 8,1 10,-2 2,-3 1,-8 -2,-10 -8,-5 -17,-8 -27,-8 -26,0 -48,21 -48,48 0,26 21,48 48,48 10,0 20,-3 27,-10 1,-1 2,-2 4,-4 2,-3 2,-8 -1,-10 -3,-2 -8,-2 -10,1 -0,1 -1,1 -2,2 -4,4 -10,6 -17,6 -18,0 -33,-15 -33,-33 0,-18 15,-33 33,-33z" id="path_4"/></svg>