<svg id="vector" xmlns="http://www.w3.org/2000/svg" width="24.0d" height="24.0d" viewBox="0 0 512.0 512.0"><path fill="#8690af" d="m462,256c0,-113 -92,-206 -206,-206s-206,92 -206,206v225h71l26,-45c-19,-8 -32,-27 -31,-49l2,-50 1,-38 4,-100c1,-20 16,-36 36,-36h34v-20c0,-11 9,-20 20,-20h80c11,0 20,9 20,20v20h34c20,0 35,16 36,36l4,100 1,38 2,50c1,21 -12,40 -31,49l26,45h71z" stroke="#000000" stroke-width="12.0" id="path_0"/><path fill="#b6bccf" d="m256,50c113,0 206,92 206,206v226,20h40v-246c0,-135 -110,-246 -246,-246s-246,110 -246,246v246h40v-20,-226c0,-113 92,-206 206,-206z" stroke="#000000" stroke-width="12.0" id="path_1"/><path fill="#b6bccf" d="m316,142c0,-11 -9,-20 -20,-20h-80c-11,0 -20,9 -20,20v20h120z" stroke="#000000" stroke-width="12.0" id="path_2"/><path fill="#ffffff" d="m316,161h-120,-34c-20,0 -35,16 -36,36h130,130c-1,-20 -16,-36 -36,-36z" stroke="#000000" stroke-width="12.0" id="path_3"/><path fill="#a0c8ff" d="M256,198h-130l-4,100h135zM256,198v100h135l-4,-100z" stroke="#000000" stroke-width="12.0" id="path_4"/><path fill="#ffc144" d="M393,337h-67c-13,0 -25,11 -25,25s11,25 25,25h70zM211,362c0,-13 -11,-25 -25,-25h-67l-2,50h70c13,0 25,-11 25,-25z" stroke="#000000" stroke-width="12.0" id="path_5"/><path fill="#ffffff" d="m186,337c13,0 25,11 25,25s-11,25 -25,25h-70c-1,21 12,40 31,49 7,3 15,5 23,5h24,122 24c8,0 16,-1 23,-5 19,-8 32,-27 31,-49h-70c-13,0 -25,-11 -25,-25 0,-13 11,-25 25,-25h67l-1,-38h-135,-135l-1,38z" stroke="#000000" stroke-width="12.0" id="path_6"/><path fill="#8690af" d="m194,442 l-23,40h168l-23,-40z" stroke="#000000" stroke-width="12.0" id="path_7"/><path fill="#b6bccf" d="M170,442c-8,0 -16,-1 -23,-5l-26,45 -11,20h50l11,-20 23,-40zM317,442 l23,40 11,20h50l-11,-20 -26,-45c-7,3 -15,5 -23,5h-24z" stroke="#000000" stroke-width="12.0" id="path_8"/></svg>