<svg id="vector" xmlns="http://www.w3.org/2000/svg" width="24.0d" height="24.0d" viewBox="0 0 512.0 512.0"><path fill="none" d="M325,248h0M227,171h0M227,98ch0M407,157ch0M425,316h0M319,435h0M117,368h0M88,196h0" stroke-linecap="round" stroke="#000000" stroke-width="156.0" id="path_0"/><path fill="none" d="M325,248h0M227,171h0M227,98ch0M407,157ch0M425,316h0M319,435h0M117,368h0M88,196h0" stroke-linecap="round" stroke="#ff9d6c" stroke-width="128.0" id="path_1"/><path fill="none" d="M305,228h0M207,151h0M207,78ch0M387,137ch0M425,296h0M299,415h0M97,368h0M68,176h0" stroke-linecap="round" stroke="#000000" stroke-width="16.0" id="path_2"/></svg>