<svg id="vector" xmlns="http://www.w3.org/2000/svg" width="24.0d" height="24.0d" viewBox="0 0 512.0 512.0"><path fill="#bceaf9" d="m371,248 l-262,247c-23,22 -60,21 -83,-1l-8,-8c-23,-23 -23,-59 -1,-83l247,-262c5,-6 15,-6 21,-0 10,10 76,76 87,87 6,6 5,15 -0,21z" id="path_0"/><path fill="#78b7ea" d="m371,248 l-262,247c-23,22 -60,21 -83,-1l-4,-4 306,-306 43,43c6,6 5,15 -0,21z" id="path_1"/><path fill="#425796" d="m512,128c0,28 -10,56 -28,78 -6,7 -13,15 -21,21 -21,16 -48,27 -78,27 -32,0 -65,-12 -89,-37 -46,-46 -49,-118 -10,-168 3,-3 6,-7 10,-11 3,-3 7,-7 11,-10 50,-40 120,-37 168,10 24,24 38,56 38,89z" id="path_2"/><path fill="#283758" d="m484,206c-6,7 -13,15 -21,21l-89,-89 -89,-89c3,-3 6,-7 10,-11 3,-3 7,-7 11,-10z" id="path_3"/><path fill="#182135" d="m484,206c-6,7 -13,15 -21,21l-89,-89 21,-21z" id="path_4"/><path fill="#dd5958" d="m266,266 l-40,40c-5,5 -15,5 -21,0 -5,-5 -5,-15 0,-21l40,-40c5,-5 15,-5 21,0 5,5 5,15 0,21z" id="path_5"/><path fill="#d8225b" d="m266,266 l-40,40c-5,5 -15,5 -21,0l61,-61c5,5 5,15 0,21z" id="path_6"/></svg>