<svg id="vector" xmlns="http://www.w3.org/2000/svg" width="24.0d" height="24.0d" viewBox="0 0 510.0 510.0"><path fill="#3f568d" d="M333,320 l-78,-174 -45,68 -36,-49h-90l-69,104 43,86 -56,41v97h110l47,-39 -13,39h110zM60,108v-93h85l23,71z" id="path_0"/><path fill="#fff060" d="M189,405h35v-30h-54l-49,98 -11,21h33l4,-8zM195,49l28,-9l15,45l-28,9z" id="path_1"/><path fill="#003968" d="M390,138v-93h85l23,71zM510,431 l-31,-62 -32,-96 -49,-12 -21,25v-48l-50,-101h-62l-7,10v229,30 90h255z" id="path_2"/><path fill="#ffd830" d="M300,85l15,-45l28,9l-15,45zM358,336 l38,-76 -11,-2 -10,-20 -43,86z" id="path_3"/></svg>