<svg id="vector" xmlns="http://www.w3.org/2000/svg" width="24.0d" height="24.0d" viewBox="0 0 512.0 512.0"><path fill="#fdbf00" d="m256,512c-141,0 -256,-114 -256,-256s114,-256 256,-256 256,114 256,256 -114,256 -256,256z" id="path_0"/><path fill="#ff9100" d="m256,0v512c141,0 256,-114 256,-256s-114,-256 -256,-256z" id="path_1"/><path fill="#ffde46" d="m317,437 l-130,-0c-4,-0 -7,-1 -10,-4l-97,-97c-2,-2 -4,-6 -4,-10l0,-137c0,-4 1,-7 4,-10l97,-97c2,-2 6,-4 10,-4h0l129,0 30,15 30,30 17,38 12,-8 25,25c2,2 4,6 4,10l-0,137c-0,4 -1,7 -4,10l-25,25 -15,-6 -15,36 -30,29z" id="path_2"/><path fill="#ffcd00" d="m432,177 l-25,-25 -12,8 -17,-38 -30,-30 -30,-15 -61,-0v361l61,0 30,-16 30,-30 15,-36 15,6 25,-25c2,-2 4,-6 4,-10l0,-137c0,-4 -1,-7 -4,-10z" id="path_3"/><path fill="#fdbf00" d="M377,390 l30,-29v-209l-30,-30zM347,420v-329l-11,-11c-2,-2 -6,-4 -10,-4l-8,-0v361l7,0h0c4,0 7,-1 10,-4z" id="path_4"/></svg>