<svg id="vector" xmlns="http://www.w3.org/2000/svg" width="24.0d" height="24.0d" viewBox="0 0 512.0 512.0"><path fill="#89b4c9" d="M55,384h27v44h-27zM440,384h27v44h-27z" stroke="#000000" stroke-width="12.0" id="path_0"/><path fill="#385f82" d="M7,70h497v322h-497z" stroke="#000000" stroke-width="12.0" id="path_1"/><path fill="#00d8e0" d="M7,70h497v285h-497z" stroke="#000000" stroke-width="12.0" id="path_2"/><path fill="#89b4c9" d="M15,421h482v19h-482z" stroke="#000000" stroke-width="12.0" id="path_3"/><path fill="#000000" d="M382,325c0,4 3,7 7,7h84c4,0 7,-3 7,-7v-86c0,-4 -3,-7 -7,-7s-7,3 -7,7v78H390C385,317 382,320 382,325z" id="path_4"/><path fill="#000000" d="M451,309c4,0 7,-3 7,-7s-3,-7 -7,-7h-16c-4,0 -7,3 -7,7s3,7 7,7H451z" id="path_5"/><path fill="#000000" d="M451,274h-16c-4,0 -7,3 -7,7s3,7 7,7h16c4,0 7,-3 7,-7S455,274 451,274z" id="path_6"/></svg>