<svg id="vector" xmlns="http://www.w3.org/2000/svg" width="24.0d" height="24.0d" viewBox="0 0 512.0 512.0"><path fill="#9dc6fb" d="m7.5,466h497v38.3h-497z" stroke="#000000" stroke-width="12.0" id="path_0"/><path fill="#ffe07d" d="M290,268m-74.7,0a74.7,74.7 0,1 1,149.5 0a74.7,74.7 0,1 1,-149.5 0" stroke="#000000" stroke-width="12.0" id="path_1"/><path fill="#95d6a4" d="m504.5,466 l-132,-264.7c-3.7,-7.4 -14,-7.4 -18,0l-132,264.7z" stroke="#000000" stroke-width="12.0" id="path_2"/><path fill="#b3e59f" d="m379,466 l-175,-350c-4.4,-9 -17,-9 -21.6,0l-175,350z" stroke="#000000" stroke-width="12.0" id="path_3"/><path fill="#f9f6f9" d="m135,242c3.8,2.6 9,2 12.6,-1l13.8,-12.8c4.4,-4 11.6,-3.4 15,1.6l8,12c4,5.7 12.5,5.7 16.5,0l8,-12c3.5,-5 10.6,-5.8 15,-1.6l13.8,12.8c3.4,3 8.7,3.6 12.6,1l11.7,-8c-21.8,-43.7 -45.6,-91 -59,-118 -4.4,-9 -17,-9 -21.6,0l-59,118z" stroke="#000000" stroke-width="12.0" id="path_4"/><path fill="#dfdde2" d="m318.8,295.8c3,2 7,1.7 9.6,-0.6l10.5,-9.7c3.4,-3 8.8,-2.5 11.5,1l6,9c3,4 9.5,4 12.6,0l6,-9c2.6,-3.8 8,-4.4 11.5,-1l10.5,9.7c2.6,2.4 6.6,2.7 9.6,0.6l9,-6c-16,-32.4 -33.8,-67.6 -44,-88 -3.7,-7.4 -14,-7.4 -18,0l-44,88.3z" stroke="#000000" stroke-width="12.0" id="path_5"/><path fill="#ddeafb" d="m476,92.3c-5,-14 -18.4,-24 -34,-24s-29,10 -34,24c-13,0.5 -23,11 -23,24 0,13 10.8,24 24,24h66.6c13,0 24,-10.8 24,-24 0,-13 -10,-23.7 -23,-24z" stroke="#000000" stroke-width="12.0" id="path_6"/><path fill="#ddeafb" d="m306,31.7c-5,-14 -18.4,-24 -34,-24s-29,10 -34,24c-13,0.5 -23,11 -23,24 0,13 10.8,24 24,24h66.6c13,0 24,-10.8 24,-24 0,-13 -10,-23.7 -23,-24z" stroke="#000000" stroke-width="12.0" id="path_7"/><path fill="#ddeafb" d="m99,64c-5,-14 -18.4,-24 -34,-24s-29,10 -34,24c-13,0.5 -23,11 -23,24 0,13 10.8,24 24,24h66.6c13,0 24,-10.8 24,-24 0,-13 -10,-23.7 -23,-24z" stroke="#000000" stroke-width="12.0" id="path_8"/></svg>