<svg id="vector" xmlns="http://www.w3.org/2000/svg" width="24.0d" height="24.0d" viewBox="0 0 512.0 512.0"><path fill="#965a50" d="M290,264l69,-36l8,-144c0,0 48,-40 136,-64c0,0 -24,64 0,144c0,0 -56,56 -56,136c0,0 -64,15 -144,131" stroke="#000000" stroke-width="12.0" id="path_0"/><path fill="#965a50" d="M221,264l-69,-36l-8,-144c0,0 -48,-40 -136,-64c0,0 24,64 0,144c0,0 56,56 56,136c0,0 64,15 144,131" stroke="#000000" stroke-width="12.0" id="path_1"/><path fill="#824d51" d="M191,109c-6,-7 -18,-3 -19,6c-1,19 -4,48 19,80l48,-34L191,109zM321,109c6,-7 18,-3 19,6c1,19 4,48 -19,80l-48,-34L321,109zM328,252l-144,0c10,5 15,20 10,31c-6,15 -10,34 -10,56c0,75 44,125 63,144c5,4 12,4 17,0c19,-18 63,-69 63,-144c0,-21 -4,-41 -10,-56C313,272 317,258 328,252z" stroke="#000000" stroke-width="12.0" id="path_2"/><path fill="#965a50" d="M256,147c39,0 72,20 72,56s-41,72 -72,72s-72,-36 -72,-72S216,147 256,147z" stroke="#000000" stroke-width="12.0" id="path_3"/><path fill="#af6e5a" d="M232,243a24,32 0,1 0,48 0a24,32 0,1 0,-48 0z" stroke="#000000" stroke-width="12.0" id="path_4"/><path fill="none" d="M216,219v-16 M296,219v-16" stroke-linecap="round" stroke="#000000" stroke-width="12.0" id="path_5"/></svg>