<svg width="100" height="100" viewBox="0 0 100 100" fill="none" xmlns="http://www.w3.org/2000/svg">
<path d="M65.6441 82.3085L77.9855 88.691C80.9084 91.2225 80.1777 92.946 82.2075 94.5081C84.2102 96.3395 85.4823 96.6356 86.673 94.9122C87.6203 92.9462 87.4309 90.9801 87.7287 88.8526C89.1088 87.5331 90.2457 86.8598 91.3824 85.5403C92.6274 84.1668 92.573 82.7933 90.6514 81.8238C89.0546 81.1776 87.5392 80.8542 85.6176 81.4198C84.3996 81.7969 83.1006 82.0123 81.4769 81.339L68.1611 75.1987L30.306 62.1405C25.2155 59.6648 20.9862 57.8176 15.953 55.0564C13.2164 52.8854 14.0968 50.4287 10.786 48.4293C9.33157 47.7058 8.27903 47.3821 7.11165 49.3435C6.36529 51.0956 6.42271 52.9617 6.30789 54.7709C5.00656 56.1609 3.53299 56.9799 2.4613 58.7128C0.911172 61.1885 3.26504 62.0073 4.5281 62.312C8.12588 63.207 9.4272 61.5883 12.7379 62.2548C19.1873 65.2446 25.6939 68.3485 31.9135 71.3954L65.6441 82.3085Z" fill="white" stroke="black" stroke-linejoin="round"/>
<path d="M68.4047 71.159L86.8354 62.5143C90.3267 61.1408 90.8139 63.0798 93.8992 62.5143C96.2538 62.4873 98.2024 61.5718 98.0401 59.3636C96.8492 57.6128 95.7394 56.5087 93.6556 54.5966C93.7639 52.5498 93.3849 50.5838 92.6001 48.618C91.7881 47.4599 90.3267 46.9481 88.1346 49.0219C85.9152 50.6915 86.6188 52.9269 83.8312 55.2429C79.2844 57.4781 75.1437 59.4711 70.1097 61.9487L31.7868 75.118C27.3482 77.4609 23.3158 79.6422 18.2277 81.5813C14.0868 82.6046 14.2493 80.0733 9.2153 81.7429C7.78089 82.874 7.80797 84.4897 8.97174 85.7016C10.325 87.0213 11.2722 87.8562 12.4631 89.0143C12.8421 90.684 12.8961 92.1112 13.1126 94.1041C13.9245 96.5549 15.7107 96.4202 17.2533 95.2353C17.9299 94.4004 18.769 93.6464 19.2831 92.7307C19.9868 91.5189 20.7716 90.1454 21.719 89.0143L33.979 82.5509L68.4047 71.159Z" fill="white" stroke="black" stroke-linejoin="round"/>
<path d="M25.2892 45.2959C21.5569 41.6855 18.9484 35.4196 18.5864 28.6532C18.1934 21.1967 22.1396 13.7925 28.0531 9.57145C34.6784 4.93112 45.7562 3.64775 52.6442 3.99408C57.3098 3.9973 67.7025 6.40459 71.3711 9.12316C77.8062 13.7792 81.2573 20.3875 81.4964 27.9198C81.85 35.4856 78.6476 41.2482 74.7263 44.8447" fill="white"/>
<path d="M25.2892 45.2959C21.5569 41.6855 18.9484 35.4196 18.5864 28.6532C18.1934 21.1967 22.1396 13.7925 28.0531 9.57145C34.6784 4.93112 45.7562 3.64775 52.6442 3.99408C57.3098 3.9973 67.7025 6.40459 71.3711 9.12316C77.8062 13.7792 81.2573 20.3875 81.4964 27.9198C81.85 35.4856 78.6476 41.2482 74.7263 44.8447" stroke="black" stroke-miterlimit="5"/>
<path d="M25.6601 44.0226C25.6601 44.0226 21.1489 57.614 29.8418 59.9313L33.0112 78.1088C36.3562 92.4163 63.1255 92.426 67.0653 78.1088L70.2347 59.9313C79.1481 57.5635 74.6232 44.0167 74.6232 44.0167L25.6601 44.0226Z" fill="white"/>
<path d="M25.5162 24.0842C24.0042 25.4004 24.195 27.3791 24.4673 30.332C24.6822 32.5756 26.1208 34.784 26.1965 36.8337C26.7255 41.1587 25.4405 45.4838 24.8357 49.0191C24.4199 53.0808 25.5919 56.5786 27.1036 57.9325C28.6154 59.2677 30.5668 59.8207 32.617 60.4431C34.4799 60.9279 35.4459 61.771 36.8549 62.8163C38.5334 64.5896 38.9338 66.0562 38.896 67.8616" stroke="black"/>
<path d="M74.7442 23.9713C76.2562 25.2876 76.0655 27.2662 75.7932 30.2192C75.5782 32.4627 74.1396 34.6711 74.0639 36.7208C73.535 41.0459 74.8199 45.371 75.4247 48.9063C75.8406 52.968 74.6686 56.4657 73.1568 57.8196C71.645 59.1549 68.8782 59.872 67.6434 60.3302C66.2046 60.8311 64.7334 61.7389 63.4056 62.7842C61.8082 64.3151 61.3266 65.9434 61.3645 67.7487" stroke="black"/>
<path d="M29.8381 59.9291C31.1913 63.1877 32.6256 66.3656 32.761 69.7049C32.1386 72.398 32.328 75.5758 33.0046 78.1074C33.8708 81.5814 37.2537 85.7018 40.6369 87.0753C44.101 88.3275 46.2662 88.6508 50.1362 88.6508" stroke="black"/>
<path d="M70.2314 59.9291C68.8782 63.1877 67.4439 66.3656 67.3085 69.7049C67.9309 72.398 67.7415 75.5758 67.0649 78.1074C66.1987 81.5814 62.7752 85.5807 59.392 86.9542C56.009 88.3277 53.8441 88.6508 49.9739 88.6508" stroke="black"/>
<path d="M49.3566 49.9829C47.4655 51.4139 47.0448 51.8944 45.9998 53.4779C45.6216 54.0891 44.9153 55.5173 44.7222 56.4755C44.5293 57.4335 44.3848 58.8235 44.3854 59.5596C44.3877 62.0541 45.1857 63.619 46.0571 63.5644C46.8357 63.4756 47.8265 62.6676 49.3279 60.8326" fill="black"/>
<path d="M49.3566 49.9829C47.4655 51.4139 47.0448 51.8944 45.9998 53.4779C45.6216 54.0891 44.9153 55.5173 44.7222 56.4755C44.5293 57.4335 44.3848 58.8235 44.3854 59.5596C44.3877 62.0541 45.1857 63.619 46.0571 63.5644C46.8357 63.4756 47.8265 62.6676 49.3279 60.8326" stroke="black"/>
<path d="M50.7184 50.0233C52.6095 51.4543 53.0302 51.9348 54.0752 53.5183C54.4534 54.1295 55.1597 55.5577 55.3527 56.5159C55.5456 57.4739 55.6902 58.8639 55.6896 59.6C55.6872 62.0945 54.8893 63.6594 54.0179 63.6048C53.2393 63.5159 52.2485 62.708 50.7471 60.873" fill="black"/>
<path d="M50.7184 50.0233C52.6095 51.4543 53.0302 51.9348 54.0752 53.5183C54.4534 54.1295 55.1597 55.5577 55.3527 56.5159C55.5456 57.4739 55.6902 58.8639 55.6896 59.6C55.6872 62.0945 54.8893 63.6594 54.0179 63.6048C53.2393 63.5159 52.2485 62.708 50.7471 60.873" stroke="black"/>
<path d="M33.2817 39.0854C35.9069 38.6275 38.4509 38.3314 41.0761 38.0352C44.5133 37.1733 46.2455 41.0784 45.2982 44.0138C44.1074 46.6261 42.4295 48.9153 40.508 51.1235C39.0194 52.7932 37.2461 53.0634 35.5551 52.4969C34.1902 52.1203 32.9296 51.2852 31.5765 49.3462C30.9812 47.6763 30.4671 46.8144 29.7091 44.7409C29.1139 42.8288 30.0397 39.9665 33.2817 39.0854Z" fill="black" stroke="black"/>
<path d="M66.8447 39.0854C64.2195 38.6275 61.6755 38.3314 59.0503 38.0352C55.6131 37.1733 53.8809 41.0784 54.8282 44.0138C56.019 46.6261 57.6969 48.9153 59.6184 51.1235C61.107 52.7932 62.8803 53.0634 64.5713 52.4969C65.9362 52.1203 67.1968 51.2852 68.5499 49.3462C69.1452 47.6763 69.6593 46.8144 70.4173 44.7409C71.0125 42.8288 70.0867 39.9665 66.8447 39.0854Z" fill="black" stroke="black"/>
<path d="M33.234 61.3985C34.3437 63.9883 34.687 64.9725 35.4873 67.5543C36.1691 69.9394 36.4198 71.3959 36.841 74.7854" stroke="black"/>
<path d="M66.7525 61.2557C65.6428 63.8455 65.2995 64.8297 64.4992 67.4115C63.8174 69.7966 63.5668 71.2531 63.1455 74.6425" stroke="black"/>
<path d="M37.9703 67.4542C40.8409 69.2062 45.8034 69.4763 50.2493 69.3967C55.2022 69.3717 59.4422 69.0158 62.2266 67.3401" stroke="black"/>
<path d="M38.975 72.0248C42.142 74.0052 45.8665 74.6852 50.1559 74.5241C54.611 74.4162 58.026 74.0432 61.0784 71.9677" stroke="black"/>
<path d="M36.6786 74.424C40.0658 78.4896 44.7938 79.1954 50.1701 79.3371C55.9275 79.5461 61.7099 77.2711 63.2026 74.4242" stroke="black"/>
<path d="M38.9315 68.3322L38.8504 76.3306Z" fill="black"/>
<path d="M38.9315 68.3322L38.8504 76.3306" stroke="black"/>
<path d="M41.5702 69.1805L41.5296 77.7445Z" fill="black"/>
<path d="M41.5702 69.1805L41.5296 77.7445" stroke="black"/>
<g opacity="0.1">
<path d="M44.4931 69.544L44.4119 78.5121Z" fill="black"/>
<path d="M44.4931 69.544L44.4119 78.5121" stroke="black"/>
</g>
<path d="M47.132 69.7461L47.0912 78.8352Z" fill="black"/>
<path d="M47.132 69.7461L47.0912 78.8352" stroke="black"/>
<path d="M50.0954 69.8268V78.916Z" fill="black"/>
<path d="M50.0954 69.8268V78.916" stroke="black"/>
<path d="M52.9372 69.7865L52.9777 78.8756Z" fill="black"/>
<path d="M52.9372 69.7865L52.9777 78.8756" stroke="black"/>
<path d="M55.4947 69.544L55.5758 78.4717Z" fill="black"/>
<path d="M55.4947 69.544L55.5758 78.4717" stroke="black"/>
<path d="M58.4582 69.0594L58.4988 77.6234Z" fill="black"/>
<path d="M58.4582 69.0594L58.4988 77.6234" stroke="black"/>
<path d="M61.1375 68.0091L61.2188 76.0882Z" fill="black"/>
<path d="M61.1375 68.0091L61.2188 76.0882" stroke="black"/>
<path d="M38.8776 72.0047C45.901 74.9864 53.2437 75.4267 61.0715 72.0047" stroke="black"/>
<path d="M61.95 71.5229V68.1071L62.3079 67.9449C62.6076 67.809 62.6785 67.6421 62.7446 66.917C62.8533 65.7245 63.3023 64.8006 64.2141 63.8932C64.6395 63.4699 65.0119 63.1478 65.0416 63.1774C65.0713 63.207 64.8255 64.0086 64.4954 64.9588C63.6139 67.4955 63.186 69.2422 62.7657 72.0197C62.5336 73.553 62.3065 74.5825 62.1702 74.7186C61.9772 74.9114 61.95 74.5166 61.95 71.5229Z" fill="black"/>
<path d="M38.0199 76.3761C37.748 76.1363 37.398 74.9645 37.0365 73.0839C36.3213 69.3633 34.6666 64.6479 32.9478 61.4324C32.2312 60.0918 35.9751 62.8439 36.8625 64.3101C37.2139 64.8906 37.5786 65.8664 37.6731 66.4785C37.7862 67.2119 38.013 67.6939 38.338 67.8918C38.8048 68.1762 38.8208 68.4208 38.6366 72.4704C38.4564 76.4355 38.4113 76.7213 38.0199 76.3761Z" fill="black"/>
<path d="M61.4273 72.4415C60.846 68.3445 60.8571 67.9805 61.5766 67.5513C62.0529 67.2672 62.5472 66.4104 62.8527 65.3393C63.2234 64.0398 63.7169 63.2789 64.775 62.3756C66.0928 61.2505 67.3444 60.4291 67.6072 60.517C67.6678 60.5372 67.0962 61.8966 66.3371 63.5377C64.6209 67.2479 64.2431 68.3942 63.3607 72.5693C62.9736 74.401 62.5216 76.1176 62.3562 76.3838C62.1815 76.665 61.7921 75.012 61.4273 72.4415Z" fill="black"/>
<path d="M49.2691 50.043L49.9635 49.5712L50.8949 50.1441L50.8779 56.9688L49.1845 56.9519L49.2691 50.043Z" stroke="black"/>
<path d="M49.846 56.8541L49.3484 56.8493L49.3559 53.5002L49.3634 50.151L49.4301 50.0836C49.4863 50.0268 49.9439 49.705 49.9684 49.705C49.9899 49.705 50.6205 50.1034 50.6613 50.1427L50.7081 50.1878L50.7191 53.5273L50.7302 56.8667L50.5369 56.8627C50.4305 56.8606 50.1196 56.8567 49.846 56.8541Z" fill="black"/>
<path d="M49.275 60.9949C49.2572 60.9786 49.2547 59.7632 49.2638 55.5384L49.2756 50.1028L49.3618 50.0004C49.4765 49.8641 49.8162 49.5139 49.8888 49.4572C49.9464 49.4121 49.947 49.4124 50.1216 49.5648C50.3911 49.8002 50.7557 50.1576 50.7635 50.1942C50.7673 50.2122 50.7748 52.6546 50.7802 55.6219L50.7898 61.0168L50.1691 60.6137C49.7588 60.6135 49.2876 61.0065 49.275 60.9949Z" fill="black"/>
</svg>
