<svg id="vector" xmlns="http://www.w3.org/2000/svg" width="24.0d" height="24.0d" viewBox="0 0 512.0 512.0"><path fill="#dcfaff" d="m341,241c-6,-11 -13,-21 -20,-30h-128c-7,9 -14,19 -20,30 -65,105 -72,199 -38,216 20,9 51,-1 80,-32h0c18,-20 33,-45 43,-71 10,25 24,50 43,71h0c28,31 59,41 80,32 34,-16 27,-109 -38,-216z" stroke="#000000" stroke-width="12.0" id="path_0"/><path fill="#6d6d6d" d="m295,181h-77c-9,8 -17,18 -25,29 10,53 35,90 64,90 28,0 53,-37 64,-90 -7,-10 -16,-20 -25,-29z" stroke="#000000" stroke-width="12.0" id="path_1"/><path fill="#e09532" d="m256,91c33,0 60,38 60,60 0,12 -8,23 -21,30 -10,6 -24,9 -39,9 -14,0 -28,-3 -39,-9 -12,-7 -21,-18 -21,-30 0,-22 26,-60 60,-59z" stroke="#000000" stroke-width="12.0" id="path_2"/><path fill="#6d6d6d" d="m256,354 l-43,71c13,4 28,6 43,6 15,0 29,-2 43,-6z" stroke="#000000" stroke-width="12.0" id="path_3"/><path fill="none" d="M256,48v40M206,190vl-88,-36l-24,-64M306,190vl88,-36l24,-64M346,240h68l44,-44h40M166,240h-68l-44,-44h-40M136,300l-60,20l-10,60l-56,20M376,300l60,20l10,60l56,20M256,306v56" stroke-linecap="round" stroke="#000000" stroke-width="16.0" id="path_4"/></svg>