<svg id="vector" xmlns="http://www.w3.org/2000/svg" width="24.0d" height="24.0d" viewBox="0 0 510.0 510.0"><path fill="#495979" d="m75,330h-45l-10,-43 10,-46h45l10,45z" id="path_0"/><path fill="#3d4566" d="M0,210h30v150h-30zM435,375h45l10,-45 -10,-45h-45l-10,45z" id="path_1"/><path fill="#2e3754" d="m480,255h30v150h-30z" id="path_2"/><path fill="#495979" d="M210,120v45l22,10 22,-10 10,-22 -10,-22 -22,-10zM210,45c-24,0 -45,20 -45,45l45,10 45,-10 15,-22 -15,-22c-15,0 -30,0 -45,0z" id="path_3"/><path fill="#3d4566" d="M300,120 l-22,-10 -22,10v45l22,10 22,-10zM300,45c-15,0 -30,0 -45,0v45l45,10 45,-10c0,-24 -20,-45 -45,-45zM165,90v30h90l10,-15 -10,-15z" id="path_4"/><path fill="#2e3754" d="m255,90h90v30h-90z" id="path_5"/><path fill="#ff637b" d="m128,165 l-53,45v255h180l10,-150 -10,-150z" id="path_6"/><path fill="#e63950" d="m321,420h68l10,-112 -10,-112 -38,-30h-96v300h21z" id="path_7"/><path fill="#d00709" d="m390,195h45v225h-45z" id="path_8"/><path fill="#495979" d="M159,308 l55,-0 40,-26 10,-18 -10,-18zM220,393 l35,-28 10,-19 -10,-19 -16,13z" id="path_9"/><path fill="#3d4566" d="M276,231 l-21,13v35l1,-0zM276,308 l-21,17v38l71,-58z" id="path_10"/><path fill="#fff4f4" d="M187,352m-52,0a52,52 0,1 1,105 0a52,52 0,1 1,-105 0M331,301c8,-8 13,-19 13,-31 0,-24 -20,-45 -45,-45 -12,0 -23,5 -31,13 -17,17 -17,46 0,63 17,17 46,17 63,0z" id="path_11"/><path fill="#3d4566" d="M187,352m-22,0a22,22 0,1 1,45 0a22,22 0,1 1,-45 0M289,259c-5,5 -5,15 0,21 5,5 15,5 21,0 5,-5 5,-15 0,-21 -5,-5 -15,-5 -21,0z" id="path_12"/></svg>