<svg width="100" height="100" viewBox="0 0 100 100" fill="none" xmlns="http://www.w3.org/2000/svg">
<g clip-path="url(#clip0_8_44)">
<g clip-path="url(#clip1_8_44)">
<path d="M79.1538 42.6288L75.4627 38.9377C75.244 38.719 74.8895 38.719 74.6708 38.9377L73.8647 39.7438C73.646 39.9625 73.646 40.317 73.8647 40.5357L77.5558 44.2268C77.7745 44.4455 78.129 44.4455 78.3477 44.2268L79.1538 43.4207C79.3725 43.202 79.3725 42.8475 79.1538 42.6288Z" fill="#171717"/>
<path d="M80.4594 41.3117L76.7683 37.6206C76.5496 37.4019 76.195 37.4019 75.9763 37.6206L75.1702 38.4267C74.9515 38.6454 74.9515 39 75.1702 39.2187L78.8613 42.9097C79.08 43.1284 79.4346 43.1284 79.6533 42.9098L80.4594 42.1036C80.6781 41.885 80.6781 41.5304 80.4594 41.3117Z" fill="#171717"/>
<path d="M81.7649 40.0188L78.0738 36.3277C77.8551 36.109 77.5005 36.109 77.2818 36.3277L76.4757 37.1338C76.2571 37.3524 76.2571 37.707 76.4757 37.9257L80.1668 41.6168C80.3855 41.8355 80.7401 41.8355 80.9588 41.6168L81.7649 40.8107C81.9836 40.592 81.9836 40.2374 81.7649 40.0188Z" fill="#171717"/>
<path d="M83.0705 38.7017L79.3794 35.0106C79.1607 34.7919 78.8061 34.7919 78.5874 35.0106L77.7813 35.8167C77.5626 36.0354 77.5626 36.39 77.7813 36.6086L81.4724 40.2997C81.6911 40.5184 82.0457 40.5184 82.2644 40.2997L83.0705 39.4936C83.2892 39.275 83.2892 38.9204 83.0705 38.7017Z" fill="#171717"/>
<path d="M68.258 79.2579C55.1754 92.3405 44.4512 102.827 30.9594 89.3356C17.4677 75.8438 27.6055 64.7706 40.6881 51.6881C53.7706 38.6055 64.8438 28.4677 78.3356 41.9594C91.8274 55.4512 81.3405 66.1754 68.258 79.2579Z" fill="#3B3B3B"/>
<path d="M74 40.5C71.3961 37.9111 67.8793 36.4488 64.2075 36.4282C60.5357 36.4076 57.0027 37.8304 54.37 40.39L64.3 50.32L74 40.56V40.5Z" fill="#323037"/>
<path d="M63.09 51.51L53.17 41.59C53.0112 41.4315 52.886 41.2427 52.8019 41.0349C52.7177 40.827 52.6762 40.6043 52.68 40.38C52.6811 39.9295 52.8609 39.498 53.18 39.18C56.1351 36.3194 60.0937 34.7308 64.2065 34.7551C68.3194 34.7794 72.2589 36.4146 75.18 39.31C75.2318 39.3585 75.2787 39.4121 75.32 39.47C75.5869 39.797 75.7251 40.2103 75.7086 40.632C75.692 41.0538 75.5218 41.455 75.23 41.76L65.47 51.51C65.1535 51.8239 64.7257 52 64.28 52C63.8342 52 63.4065 51.8239 63.09 51.51ZM56.85 40.51L64.29 47.95L71.58 40.65C69.4676 39.0446 66.8944 38.1622 64.2415 38.1334C61.5885 38.1046 58.9967 38.9309 56.85 40.49V40.51Z" fill="#323037"/>
<path d="M78.59 45.1C81.1789 47.7039 82.6412 51.2207 82.6618 54.8925C82.6824 58.5643 81.2596 62.0973 78.7 64.73L68.77 54.8L78.53 45L78.59 45.1Z" fill="#323037"/>
<path d="M77.5 65.92L67.58 56C67.2631 55.6831 67.085 55.2532 67.085 54.805C67.085 54.3568 67.2631 53.9269 67.58 53.61L77.33 43.85C77.6324 43.5486 78.0376 43.3729 78.4643 43.358C78.8909 43.3432 79.3074 43.4904 79.63 43.77L79.78 43.9C82.6753 46.8211 84.3106 50.7606 84.3349 54.8735C84.3592 58.9863 82.7706 62.9449 79.91 65.9C79.592 66.2191 79.1604 66.3989 78.71 66.4C78.4863 66.4062 78.2637 66.3669 78.0557 66.2844C77.8477 66.2019 77.6586 66.0779 77.5 65.92ZM71.16 54.8L78.6 62.24C80.162 60.0954 80.9918 57.5048 80.9665 54.8518C80.9413 52.1989 80.0624 49.6245 78.46 47.51L71.16 54.8Z" fill="#323037"/>
<path d="M76.5647 43.9982L75.101 42.5345C74.7027 42.1362 74.0568 42.1362 73.6585 42.5345L66.2692 49.9238C65.8709 50.3221 65.8709 50.9679 66.2692 51.3663L67.733 52.83C68.1313 53.2283 68.7771 53.2283 69.1755 52.83L76.5647 45.4407C76.9631 45.0424 76.9631 44.3966 76.5647 43.9982Z" fill="#171717"/>
<path d="M81.42 38.6L79.49 36.67C82.2613 33.8979 84.1489 30.3668 84.9144 26.5225C85.6798 22.6782 85.2888 18.6933 83.7907 15.0711C82.2926 11.449 79.7547 8.35203 76.4974 6.17151C73.2402 3.99099 69.4097 2.82471 65.49 2.82C62.8881 2.81382 60.3108 3.32419 57.9076 4.32153C55.5043 5.31886 53.323 6.78332 51.49 8.63L49.52 6.7C53.7745 2.58849 59.4739 0.312854 65.3902 0.363404C71.3065 0.413954 76.9661 2.78664 81.1498 6.97025C85.3334 11.1539 87.7061 16.8135 87.7566 22.7298C87.8072 28.6461 85.5315 34.3455 81.42 38.6Z" fill="#171717"/>
<path d="M49.5212 6.70604L24.532 31.6952L26.4553 33.6185L51.4445 8.62937L49.5212 6.70604Z" fill="#171717"/>
<path d="M16.5731 35.8711L11.991 40.4532L17.4782 45.9403L22.0602 41.3583L16.5731 35.8711Z" fill="#7D7D7D"/>
<path d="M23.9739 26.5971L15.1705 35.4005C14.1629 36.4081 14.1629 38.0417 15.1705 39.0492L18.8616 42.7403C19.8691 43.7479 21.5027 43.7479 22.5102 42.7403L31.3137 33.9368C32.3213 32.9293 32.3213 31.2957 31.3137 30.2882L27.6226 26.5971C26.6151 25.5895 24.9815 25.5895 23.9739 26.5971Z" fill="#171717"/>
</g>
</g>
<defs>
<clipPath id="clip0_8_44">
<rect width="100" height="100" fill="white"/>
</clipPath>
<clipPath id="clip1_8_44">
<rect width="100" height="100" fill="white"/>
</clipPath>
</defs>
</svg>
