<svg id="vector" xmlns="http://www.w3.org/2000/svg" width="24.0d" height="24.0d" viewBox="0 0 512.0 512.0"><path fill="#ffce54" d="M487,380l-39,-34l-58,-17l-38,-25l-1,-27l-1,-25l17,-37l17,-52l-8,-64l-28,-49l-55,-34l-56,0l-42,11l-47,53l-18,56l25,72l5,33l7,27l-6,28l-23,23l-46,20l-49,21l-20,23l4,119l469,-4z" id="path_0"/><path fill="#4fc2e9" d="M217,135c0,8 -7,15 -15,15c-8,0 -15,-7 -15,-15c0,-8 7,-15 15,-15C210,120 217,127 217,135zM324,137c0,8 -7,15 -15,15c-8,0 -15,-7 -15,-15c0,-8 7,-15 15,-15C317,121 324,128 324,137z" id="path_1"/><path fill="#000000" d="M460,343l-1,-0c-26,-7 -35,-14 -47,-18c-41,-16 -52,-27 -55,-32c-0,-0 -0,-0 -0,-0l-0,-36c22,-30 38,-67 38,-106C393,59 332,0 256,0c-76,0 -137,59 -137,148c0,38 16,76 38,106l-0,36c-0,0 -0,0 -0,0c-2,5 -13,17 -55,32c-11,4 -20,11 -47,18l-1,0c-24,8 -40,30 -40,55v112h244h244V399C500,373 484,351 460,343zM352,219l-144,58c-7,-6 -15,-13 -22,-20l178,-64C361,201 357,210 352,219zM256,299c-7,0 -16,-2 -25,-7l100,-40c-0,1 -1,2 -2,2c-12,14 -26,25 -39,33C276,295 264,299 256,299zM260,320l-31,29l-58,-42c1,-2 3,-4 4,-6c0,-0 0,-1 0,-1l1,-4l0,-4l0,-12c25,25 55,41 78,41C257,320 258,320 260,320zM370,167l-198,72c-5,-7 -9,-14 -13,-21l146,-47c1,0 2,0 4,0c8,0 16,-3 21,-8l41,-13C372,154 371,160 370,167zM298,138c0,-5 4,-10 10,-10s10,4 10,10c0,5 -4,10 -10,10S298,144 298,138zM370,126l-29,9c-0,-8 -4,-16 -10,-21l34,-11C368,110 369,118 370,126zM357,83l-125,42c-3,-8 -11,-15 -20,-17l135,-40C351,72 354,77 357,83zM213,138c0,5 -4,10 -10,10c-5,0 -10,-4 -10,-10c0,-5 4,-10 10,-10C208,127 213,132 213,138zM332,49l-19,5l-19,-28C307,31 320,39 332,49zM256,21c2,0 4,0 7,0l28,40l-27,8l-35,-45C236,22 246,21 256,21zM206,32l34,44l-28,8L180,49C188,42 197,36 206,32zM149,95c4,-11 10,-21 16,-30l24,27l-44,13C146,102 147,98 149,95zM139,148c0,-6 0,-13 1,-19l37,-11c-4,5 -7,12 -7,20c0,2 0,5 1,7l-31,10C139,154 139,151 139,148zM149,198c-2,-6 -4,-13 -6,-20l40,-13c5,3 11,6 18,6c14,0 26,-9 30,-22l44,-15c-0,1 -0,3 -0,5c0,6 1,12 4,16L149,198zM154,322l58,42l-27,26l-68,-50C130,335 143,329 154,322zM94,350l75,55l-25,24l-82,-68C77,358 87,354 94,350zM32,448l51,41l-1,1H32V448zM32,420v-21c0,-9 3,-18 10,-25l86,72l-29,28L32,421zM115,487l214,-205l-0,-0c1,-1 2,-2 3,-3l0,12l0,4l1,4c0,0 0,1 0,1c2,4 6,8 10,12l-184,176h-43L115,487zM249,490h-56l171,-163c12,7 26,13 38,17c0,0 1,0 2,1L249,490zM280,490l147,-135c6,2 14,5 25,8l1,0c5,1 10,5 14,8L326,490H280zM479,490h-41l41,-36V490zM479,426l-72,64h-47l119,-98c0,2 0,4 0,7V426z" id="path_2"/></svg>