<svg id="vector" xmlns="http://www.w3.org/2000/svg" width="24.0d" height="24.0d" viewBox="0 0 512.0 512.0"><path fill="#ce857a" d="m380,182c-20,0 -37,-16 -37,-37v-13c0,-20 -16,-37 -37,-37 -13,0 -25,7 -32,18l-29,50c-6,11 -18,18 -32,18h-29l-50,233h313v-233z" stroke="#000000" stroke-width="12.0" id="path_0"/><path fill="#fce3a0" d="M387,299a58,116 0,1 0,116 0a58,116 0,1 0,-116 0z" stroke="#000000" stroke-width="12.0" id="path_1"/><path fill="#70dcba" d="m162,387c0,-16 13,-29 29,-29h32c16,0 29,-13 29,-29 0,-16 13,-29 29,-29h14c16,0 29,-13 29,-29 0,-16 -13,-29 -29,-29h-54c-16,0 -29,-13 -29,-29 0,-16 -13,-29 -29,-29h-117c-32,0 -58,52 -58,116s26,116 58,116h66c16,-0 29,-13 30,-29z" stroke="#000000" stroke-width="12.0" id="path_2"/><path fill="#0caf7b" d="M77,344m-20,0a20,20 0,1 1,40 0a20,20 0,1 1,-40 0" stroke="#000000" stroke-width="12.0" id="path_3"/><path fill="#30cd9c" d="M163,233m-15,0a15,15 0,1 1,30 0a15,15 0,1 1,-30 0" stroke="#000000" stroke-width="12.0" id="path_4"/><path fill="#000000" d="m439,236c-3,-1 -8,0 -9,4 -6,16 -9,37 -9,59s3,42 9,59c1,3 3,4 7,4 0,0 1,-0 2,-0 3,-1 5,-5 4,-9 -5,-14 -8,-34 -8,-53s3,-38 8,-53c1,-3 -0,-8 -4,-9z" id="path_5"/><path fill="none" d="M137,322h0M215,267h0M82,226h0" stroke-linecap="round" stroke="#000000" stroke-width="16.0" id="path_6"/></svg>