<svg id="vector" xmlns="http://www.w3.org/2000/svg" width="24.0d" height="24.0d" viewBox="0 0 512.0 512.0"><path fill="#ff7b3d" d="m233,36h30v363h-30z" stroke="#000000" stroke-width="12.0" id="path_0"/><path fill="#fff5e5" d="m53,112h381v182h-381z" stroke="#000000" stroke-width="12.0" id="path_1"/><path fill="#ffba48" d="m414,97h-361c-8,0 -15,6 -15,15s6,15 15,15h385c8,0 15,-6 15,-15s-6,-15 -15,-15z" stroke="#000000" stroke-width="12.0" id="path_2"/><path fill="#ffba48" d="m480,339h-75v60l75,-30c8,0 15,-6 15,-15s-6,-15 -15,-15z" stroke="#000000" stroke-width="12.0" id="path_3"/><path fill="#c75b31" d="m203,369 l-82,45 -82,-45c-19,0 -31,0 -31,0v-45h151c0,24 20,45 45,45z" stroke="#000000" stroke-width="12.0" id="path_4"/><path fill="#913721" d="m460,369v30l-60,30 30,-60z" stroke="#000000" stroke-width="12.0" id="path_5"/><path fill="#ad4c2d" d="m38,369v30l391,75v-105z" stroke="#000000" stroke-width="12.0" id="path_6"/><path fill="#c75b31" d="m460,399v30l-60,30 30,-60z" stroke="#000000" stroke-width="12.0" id="path_7"/><path fill="#e76c38" d="m430,399v75h-196l45,-75z" stroke="#000000" stroke-width="12.0" id="path_8"/><path fill="#ff7b3d" d="M278,399v75h-105l45,-75zM158,399v75h-105l45,-75z" stroke="#000000" stroke-width="12.0" id="path_9"/><path fill="#ff9a42" d="M218,399v75h-105l45,-75zM98,399v60l-60,-30v-30z" stroke="#000000" stroke-width="12.0" id="path_10"/><path fill="#c75b31" d="m38,429v75h346c41,0 75,-33 75,-75z" stroke="#000000" stroke-width="12.0" id="path_11"/><path fill="#fff5e5" d="m187,7h111v61h-111z" stroke="#000000" stroke-width="12.0" id="path_12"/></svg>