<svg id="vector" xmlns="http://www.w3.org/2000/svg" width="24.0d" height="24.0d" viewBox="0 0 512.0 512.0"><path fill="#75e6fb" d="m132,228c40,10 70,30 97,56 26,-25 57,-45 97,-56 -4,-20 -7,-38 -7,-56 0,-17 2,-36 7,-56 -40,-10 -70,-30 -97,-56 -26,25 -57,45 -97,56 4,20 7,38 7,56 -0,17 -2,36 -7,56zM259,172c0,16 -13,30 -30,30s-30,-13 -30,-30 13,-30 30,-30 30,13 30,30z" stroke="#000000" stroke-width="12.0" id="path_0"/><path fill="#ffef8a" d="M229,172m-30,0a30,30 0,1 1,60 0a30,30 0,1 1,-60 0" stroke="#000000" stroke-width="12.0" id="path_1"/><path fill="#ffef8a" d="m274,474v30h45v-30zM229,307c-8,0 -15,6 -15,15v32h30v-32c0,-8 -6,-15 -15,-15zM244,399h-30v45h30z" stroke="#000000" stroke-width="12.0" id="path_2"/><path fill="#75e6fb" d="m319,474v30h26c8,0 15,-6 15,-15s-6,-15 -15,-15zM244,354h-30v45h30zM244,444h-30c0,33 26,60 60,60v-30c-16,0 -30,-13 -30,-30z" stroke="#000000" stroke-width="12.0" id="path_3"/><path fill="none" d="M230,4v60 M230,40l30,-18 M230,40l-30,-18" stroke="#000000" stroke-width="16.0" id="path_4"/><g transform="rotate(60.0)" id="g_0"><path fill="none" d="M230,4v60 M230,40l30,-18 M230,40l-30,-18" stroke="#000000" stroke-width="16.0"/></g><g transform="rotate(120.0)" id="g_1"><path fill="none" d="M230,4v60 M230,40l30,-18 M230,40l-30,-18" stroke="#000000" stroke-width="16.0"/></g><g transform="rotate(240.0)" id="g_2"><path fill="none" d="M230,4v60 M230,40l30,-18 M230,40l-30,-18" stroke="#000000" stroke-width="16.0"/></g><g transform="rotate(300.0)" id="g_3"><path fill="none" d="M230,4v60 M230,40l30,-18 M230,40l-30,-18" stroke="#000000" stroke-width="16.0"/></g><path fill="none" d="M230,280v30" stroke="#000000" stroke-width="16.0" id="path_5"/><path fill="none" d="M360,490h70 M390,490l25-25M390,490l25,25" stroke="#000000" stroke-width="16.0" id="path_6"/></svg>