<svg width="100" height="100" viewBox="0 0 100 100" fill="none" xmlns="http://www.w3.org/2000/svg">
<g clip-path="url(#clip0_8_44)">
<path d="M100 42.7734C100 50.5859 93.75 57.0312 85.7422 57.0312H78.7109C75.5859 61.3281 70.3125 64.2578 64.4531 64.2578C58.5938 64.2578 53.5156 61.5234 50.1953 57.2266H21.6797C9.96094 57.2266 0.390625 47.6562 0.390625 35.9375C0.390625 24.4141 9.57031 14.8438 21.0938 14.6484C24.0234 6.44531 31.8359 0.390625 41.2109 0.390625C44.3359 0.390625 47.4609 0.976562 50.1953 2.34375C53.9062 4.10156 57.2266 7.03125 59.375 10.5469L58.9844 14.2578L61.7188 15.8203C63.6719 15.0391 66.0156 14.4531 68.5547 14.4531C77.1484 14.4531 84.375 20.5078 85.9375 28.7109C93.5547 28.9062 99.8047 35.1562 99.8047 42.9688L100 42.7734Z" fill="#CCEAF2"/>
<g clip-path="url(#clip1_8_44)">
<path d="M5.784 63L6.892 63.639L6.077 63.858C6.03167 63.8687 5.98895 63.8884 5.95137 63.9159C5.91379 63.9434 5.88212 63.9782 5.85823 64.0182C5.83434 64.0582 5.81872 64.1025 5.81229 64.1487C5.80586 64.1948 5.80876 64.2417 5.82081 64.2867C5.83286 64.3317 5.85382 64.3738 5.88244 64.4106C5.91107 64.4473 5.94678 64.4779 5.98745 64.5006C6.02813 64.5233 6.07294 64.5376 6.11924 64.5426C6.16555 64.5477 6.21239 64.5434 6.257 64.53L7.687 64.147C7.7038 64.1416 7.72018 64.1349 7.736 64.127L9.302 65.027H9.311L9.32 65.032L7.793 65.913C7.76491 65.893 7.73387 65.8774 7.701 65.867L6.271 65.484C6.22681 65.4722 6.18072 65.4692 6.13537 65.4752C6.09002 65.4812 6.0463 65.496 6.00669 65.5189C5.96709 65.5418 5.93238 65.5723 5.90455 65.6086C5.87672 65.6449 5.85632 65.6863 5.8445 65.7305C5.83268 65.7747 5.82968 65.8208 5.83567 65.8661C5.84166 65.9115 5.85653 65.9552 5.87942 65.9948C5.90231 66.0344 5.93277 66.0691 5.96907 66.0969C6.00538 66.1248 6.04681 66.1452 6.091 66.157L6.965 66.391L5.819 67.053C5.74649 67.1026 5.69545 67.1779 5.67612 67.2636C5.65679 67.3493 5.6706 67.4392 5.71479 67.5151C5.75897 67.5911 5.83024 67.6475 5.91431 67.6731C5.99837 67.6987 6.089 67.6915 6.168 67.653L7.275 67.013L7.057 67.828C7.04468 67.8722 7.0412 67.9184 7.04676 67.9639C7.05231 68.0094 7.06678 68.0534 7.08935 68.0934C7.11192 68.1333 7.14214 68.1684 7.17829 68.1967C7.21443 68.2249 7.25579 68.2458 7.3 68.258C7.34419 68.2698 7.39027 68.2727 7.4356 68.2667C7.48093 68.2607 7.52463 68.2457 7.56419 68.2228C7.60376 68.1999 7.63841 68.1693 7.66618 68.133C7.69394 68.0967 7.71427 68.0552 7.726 68.011L8.109 66.581C8.11049 66.5644 8.11049 66.5476 8.109 66.531L9.672 65.631V67.373C9.64061 67.387 9.61186 67.4063 9.587 67.43L8.547 68.477C8.51339 68.509 8.48652 68.5474 8.46798 68.59C8.44943 68.6325 8.43959 68.6783 8.43902 68.7248C8.43846 68.7712 8.44718 68.8172 8.46468 68.8602C8.48218 68.9032 8.5081 68.9423 8.54092 68.9751C8.57374 69.0079 8.6128 69.0338 8.65579 69.0513C8.69877 69.0688 8.74483 69.0775 8.79124 69.077C8.83765 69.0764 8.88348 69.0666 8.92603 69.048C8.96858 69.0295 9.00699 69.0026 9.039 68.969L9.679 68.329V69.652C9.679 69.7448 9.71587 69.8339 9.78151 69.8995C9.84715 69.9651 9.93617 70.002 10.029 70.002C10.1218 70.002 10.2108 69.9651 10.2765 69.8995C10.3421 69.8339 10.379 69.7448 10.379 69.652V68.372L10.979 68.972C11.0334 69.0261 11.104 69.0608 11.1801 69.0709C11.2561 69.081 11.3333 69.0659 11.4 69.028C11.4262 69.0123 11.4503 68.9935 11.472 68.972C11.5372 68.9067 11.5739 68.8183 11.5739 68.726C11.5739 68.6337 11.5372 68.5453 11.472 68.48L10.418 67.43C10.4048 67.4192 10.3908 67.4095 10.376 67.401V65.64L11.9 66.521C11.899 66.538 11.899 66.555 11.9 66.572L12.287 68C12.3109 68.0892 12.3692 68.1654 12.4492 68.2116C12.5292 68.2578 12.6243 68.2704 12.7135 68.2465C12.8027 68.2226 12.8789 68.1643 12.9251 68.0843C12.9713 68.0043 12.9839 67.9092 12.96 67.82L12.742 67.005L13.85 67.646C13.9028 67.6769 13.9628 67.6933 14.024 67.6933C14.0852 67.6933 14.1452 67.6769 14.198 67.646C14.251 67.6159 14.2949 67.572 14.325 67.519C14.3715 67.4393 14.3845 67.3444 14.3611 67.2551C14.3376 67.1658 14.2797 67.0895 14.2 67.043L13.052 66.382L13.926 66.147C13.9557 66.1396 13.9843 66.1282 14.011 66.113C14.0849 66.0711 14.141 66.0036 14.1686 65.9233C14.1962 65.8429 14.1934 65.7552 14.1608 65.6767C14.1282 65.5983 14.0681 65.5344 13.9916 65.4973C13.9152 65.4601 13.8278 65.4522 13.746 65.475L12.316 65.858C12.2832 65.8681 12.2521 65.8833 12.224 65.903L10.714 65.031L10.724 65.026H10.716L12.268 64.126C12.2825 64.1347 12.2975 64.1423 12.313 64.149L13.743 64.532C13.8321 64.5558 13.927 64.5433 14.0069 64.4972C14.0868 64.451 14.1451 64.3751 14.169 64.286C14.1809 64.2418 14.1841 64.1957 14.1782 64.1503C14.1722 64.1049 14.1574 64.0611 14.1346 64.0215C14.1117 63.9818 14.0813 63.947 14.045 63.9191C14.0087 63.8913 13.9672 63.8708 13.923 63.859L13.109 63.641L14.216 63C14.2876 62.9501 14.3379 62.8751 14.3568 62.7898C14.3758 62.7046 14.3619 62.6154 14.3181 62.5398C14.2743 62.4643 14.2037 62.408 14.1203 62.3821C14.037 62.3562 13.9469 62.3626 13.868 62.4L12.723 63.062L12.957 62.188C12.9688 62.1438 12.9718 62.0977 12.9658 62.0524C12.9598 62.007 12.945 61.9633 12.9221 61.9237C12.8992 61.8841 12.8687 61.8494 12.8324 61.8216C12.7961 61.7937 12.7547 61.7733 12.7105 61.7615C12.6663 61.7497 12.6202 61.7467 12.5749 61.7527C12.5295 61.7587 12.4858 61.7735 12.4462 61.7964C12.4066 61.8193 12.3719 61.8498 12.3441 61.8861C12.3162 61.9224 12.2958 61.9638 12.284 62.008L11.9 63.437C11.8926 63.4698 11.8902 63.5035 11.893 63.537L10.367 64.422V62.6C10.3818 62.5901 10.3959 62.5791 10.409 62.567L11.456 61.524C11.4884 61.4917 11.5141 61.4533 11.5316 61.4111C11.5491 61.3689 11.5582 61.3236 11.5582 61.2779C11.5583 61.2321 11.5493 61.1868 11.5319 61.1446C11.5144 61.1023 11.4888 61.0639 11.4565 61.0315C11.4242 60.9991 11.3858 60.9734 11.3436 60.9559C11.3014 60.9384 11.2561 60.9293 11.2104 60.9293C11.1646 60.9292 11.1193 60.9382 11.0771 60.9556C11.0348 60.9731 10.9964 60.9987 10.964 61.031L10.364 61.631V60.348C10.364 60.2552 10.3271 60.1662 10.2615 60.1005C10.1958 60.0349 10.1068 59.998 10.014 59.998C9.92117 59.998 9.83215 60.0349 9.76651 60.1005C9.70087 60.1662 9.664 60.2552 9.664 60.348V61.671L9.025 61.031C8.99323 60.9961 8.9547 60.9679 8.91173 60.9483C8.86877 60.9287 8.82227 60.918 8.77506 60.9168C8.72784 60.9157 8.68088 60.9242 8.63703 60.9417C8.59319 60.9593 8.55336 60.9856 8.51996 61.019C8.48656 61.0524 8.46029 61.0922 8.44274 61.136C8.42518 61.1799 8.41671 61.2268 8.41784 61.2741C8.41896 61.3213 8.42966 61.3678 8.44928 61.4107C8.46891 61.4537 8.49705 61.4922 8.532 61.524L9.585 62.57C9.61012 62.5945 9.63878 62.615 9.67 62.631V64.431L8.109 63.531C8.11018 63.4974 8.10681 63.4637 8.099 63.431L7.716 62C7.69199 61.9108 7.63352 61.8347 7.55345 61.7886C7.47337 61.7424 7.37824 61.73 7.289 61.754C7.19975 61.778 7.1237 61.8365 7.07756 61.9166C7.03143 61.9966 7.01899 62.0918 7.043 62.181L7.277 63.055L6.132 62.391C6.05343 62.3565 5.96491 62.3522 5.88336 62.3789C5.80181 62.4055 5.73293 62.4613 5.68988 62.5355C5.64683 62.6097 5.63264 62.6972 5.65 62.7812C5.66736 62.8652 5.71506 62.9399 5.784 62.991V63Z" fill="#CCEAF2"/>
</g>
<g clip-path="url(#clip2_8_44)">
<path d="M18.784 69L19.892 69.639L19.077 69.858C19.0317 69.8687 18.9889 69.8884 18.9514 69.9159C18.9138 69.9434 18.8821 69.9782 18.8582 70.0182C18.8343 70.0582 18.8187 70.1025 18.8123 70.1487C18.8059 70.1948 18.8088 70.2417 18.8208 70.2867C18.8329 70.3317 18.8538 70.3738 18.8824 70.4106C18.9111 70.4473 18.9468 70.4779 18.9875 70.5006C19.0281 70.5233 19.0729 70.5376 19.1192 70.5426C19.1655 70.5477 19.2124 70.5434 19.257 70.53L20.687 70.147C20.7038 70.1416 20.7202 70.1349 20.736 70.127L22.302 71.027H22.311L22.32 71.032L20.793 71.913C20.7649 71.893 20.7339 71.8774 20.701 71.867L19.271 71.484C19.2268 71.4722 19.1807 71.4692 19.1354 71.4752C19.09 71.4812 19.0463 71.496 19.0067 71.5189C18.9671 71.5418 18.9324 71.5723 18.9046 71.6086C18.8767 71.6449 18.8563 71.6863 18.8445 71.7305C18.8327 71.7747 18.8297 71.8208 18.8357 71.8661C18.8417 71.9115 18.8565 71.9552 18.8794 71.9948C18.9023 72.0344 18.9328 72.0691 18.9691 72.0969C19.0054 72.1248 19.0468 72.1452 19.091 72.157L19.965 72.391L18.819 73.053C18.7465 73.1026 18.6955 73.1779 18.6761 73.2636C18.6568 73.3493 18.6706 73.4392 18.7148 73.5151C18.759 73.5911 18.8302 73.6475 18.9143 73.6731C18.9984 73.6987 19.089 73.6915 19.168 73.653L20.275 73.013L20.057 73.828C20.0447 73.8722 20.0412 73.9184 20.0468 73.9639C20.0523 74.0094 20.0668 74.0534 20.0894 74.0934C20.1119 74.1333 20.1421 74.1684 20.1783 74.1967C20.2144 74.2249 20.2558 74.2458 20.3 74.258C20.3442 74.2698 20.3903 74.2727 20.4356 74.2667C20.4809 74.2607 20.5246 74.2457 20.5642 74.2228C20.6038 74.1999 20.6384 74.1693 20.6662 74.133C20.6939 74.0967 20.7143 74.0552 20.726 74.011L21.109 72.581C21.1105 72.5644 21.1105 72.5476 21.109 72.531L22.672 71.631V73.373C22.6406 73.387 22.6119 73.4063 22.587 73.43L21.547 74.477C21.5134 74.509 21.4865 74.5474 21.468 74.59C21.4494 74.6325 21.4396 74.6783 21.439 74.7248C21.4385 74.7712 21.4472 74.8172 21.4647 74.8602C21.4822 74.9032 21.5081 74.9423 21.5409 74.9751C21.5737 75.0079 21.6128 75.0338 21.6558 75.0513C21.6988 75.0688 21.7448 75.0775 21.7912 75.077C21.8377 75.0764 21.8835 75.0666 21.926 75.048C21.9686 75.0295 22.007 75.0026 22.039 74.969L22.679 74.329V75.652C22.679 75.7448 22.7159 75.8339 22.7815 75.8995C22.8471 75.9651 22.9362 76.002 23.029 76.002C23.1218 76.002 23.2108 75.9651 23.2765 75.8995C23.3421 75.8339 23.379 75.7448 23.379 75.652V74.372L23.979 74.972C24.0334 75.0261 24.104 75.0608 24.1801 75.0709C24.2561 75.081 24.3333 75.0659 24.4 75.028C24.4262 75.0123 24.4503 74.9935 24.472 74.972C24.5372 74.9067 24.5739 74.8183 24.5739 74.726C24.5739 74.6337 24.5372 74.5453 24.472 74.48L23.418 73.43C23.4048 73.4192 23.3908 73.4095 23.376 73.401V71.64L24.9 72.521C24.899 72.538 24.899 72.555 24.9 72.572L25.287 74C25.3109 74.0892 25.3692 74.1654 25.4492 74.2116C25.5292 74.2578 25.6243 74.2704 25.7135 74.2465C25.8027 74.2226 25.8789 74.1643 25.9251 74.0843C25.9713 74.0043 25.9839 73.9092 25.96 73.82L25.742 73.005L26.85 73.646C26.9028 73.6769 26.9628 73.6933 27.024 73.6933C27.0852 73.6933 27.1452 73.6769 27.198 73.646C27.251 73.6159 27.2949 73.572 27.325 73.519C27.3715 73.4393 27.3845 73.3444 27.3611 73.2551C27.3376 73.1658 27.2797 73.0895 27.2 73.043L26.052 72.382L26.926 72.147C26.9557 72.1396 26.9843 72.1282 27.011 72.113C27.0849 72.0711 27.141 72.0036 27.1686 71.9233C27.1962 71.8429 27.1934 71.7552 27.1608 71.6767C27.1282 71.5983 27.0681 71.5344 26.9916 71.4973C26.9152 71.4601 26.8278 71.4522 26.746 71.475L25.316 71.858C25.2832 71.8681 25.2521 71.8833 25.224 71.903L23.714 71.031L23.724 71.026H23.716L25.268 70.126C25.2825 70.1347 25.2975 70.1423 25.313 70.149L26.743 70.532C26.8321 70.5558 26.927 70.5433 27.0069 70.4972C27.0868 70.451 27.1451 70.3751 27.169 70.286C27.1809 70.2418 27.1841 70.1957 27.1782 70.1503C27.1722 70.1049 27.1574 70.0611 27.1346 70.0215C27.1117 69.9818 27.0813 69.947 27.045 69.9191C27.0087 69.8913 26.9672 69.8708 26.923 69.859L26.109 69.641L27.216 69C27.2876 68.9501 27.3379 68.8751 27.3568 68.7898C27.3758 68.7046 27.3619 68.6154 27.3181 68.5398C27.2743 68.4643 27.2037 68.408 27.1203 68.3821C27.037 68.3562 26.9469 68.3626 26.868 68.4L25.723 69.062L25.957 68.188C25.9688 68.1438 25.9718 68.0977 25.9658 68.0524C25.9598 68.007 25.945 67.9633 25.9221 67.9237C25.8992 67.8841 25.8687 67.8494 25.8324 67.8216C25.7961 67.7937 25.7547 67.7733 25.7105 67.7615C25.6663 67.7497 25.6202 67.7467 25.5749 67.7527C25.5295 67.7587 25.4858 67.7735 25.4462 67.7964C25.4066 67.8193 25.3719 67.8498 25.3441 67.8861C25.3162 67.9224 25.2958 67.9638 25.284 68.008L24.9 69.437C24.8926 69.4698 24.8902 69.5035 24.893 69.537L23.367 70.422V68.6C23.3818 68.5901 23.3959 68.5791 23.409 68.567L24.456 67.524C24.4884 67.4917 24.5141 67.4533 24.5316 67.4111C24.5491 67.3689 24.5582 67.3236 24.5582 67.2779C24.5583 67.2321 24.5493 67.1868 24.5319 67.1446C24.5144 67.1023 24.4888 67.0639 24.4565 67.0315C24.4242 66.9991 24.3858 66.9734 24.3436 66.9559C24.3014 66.9384 24.2561 66.9293 24.2104 66.9293C24.1646 66.9292 24.1193 66.9382 24.0771 66.9556C24.0348 66.9731 23.9964 66.9987 23.964 67.031L23.364 67.631V66.348C23.364 66.2552 23.3271 66.1662 23.2615 66.1005C23.1958 66.0349 23.1068 65.998 23.014 65.998C22.9212 65.998 22.8321 66.0349 22.7665 66.1005C22.7009 66.1662 22.664 66.2552 22.664 66.348V67.671L22.025 67.031C21.9932 66.9961 21.9547 66.9679 21.9117 66.9483C21.8688 66.9287 21.8223 66.918 21.7751 66.9168C21.7278 66.9157 21.6809 66.9242 21.637 66.9417C21.5932 66.9593 21.5534 66.9856 21.52 67.019C21.4866 67.0524 21.4603 67.0922 21.4427 67.136C21.4252 67.1799 21.4167 67.2268 21.4178 67.2741C21.419 67.3213 21.4297 67.3678 21.4493 67.4107C21.4689 67.4537 21.497 67.4922 21.532 67.524L22.585 68.57C22.6101 68.5945 22.6388 68.615 22.67 68.631V70.431L21.109 69.531C21.1102 69.4974 21.1068 69.4637 21.099 69.431L20.716 68C20.692 67.9108 20.6335 67.8347 20.5534 67.7886C20.4734 67.7424 20.3782 67.73 20.289 67.754C20.1998 67.778 20.1237 67.8365 20.0776 67.9166C20.0314 67.9966 20.019 68.0918 20.043 68.181L20.277 69.055L19.132 68.391C19.0534 68.3565 18.9649 68.3522 18.8834 68.3789C18.8018 68.4055 18.7329 68.4613 18.6899 68.5355C18.6468 68.6097 18.6326 68.6972 18.65 68.7812C18.6674 68.8652 18.7151 68.9399 18.784 68.991V69Z" fill="#CCEAF2"/>
</g>
<g clip-path="url(#clip3_8_44)">
<path d="M6.784 79L7.892 79.639L7.077 79.858C7.03167 79.8687 6.98895 79.8884 6.95137 79.9159C6.91379 79.9434 6.88212 79.9782 6.85823 80.0182C6.83434 80.0582 6.81872 80.1025 6.81229 80.1487C6.80586 80.1948 6.80876 80.2417 6.82081 80.2867C6.83286 80.3317 6.85382 80.3738 6.88244 80.4106C6.91107 80.4473 6.94678 80.4779 6.98745 80.5006C7.02813 80.5233 7.07294 80.5376 7.11924 80.5426C7.16555 80.5477 7.21239 80.5434 7.257 80.53L8.687 80.147C8.7038 80.1416 8.72018 80.1349 8.736 80.127L10.302 81.027H10.311L10.32 81.032L8.793 81.913C8.76491 81.893 8.73387 81.8774 8.701 81.867L7.271 81.484C7.22681 81.4722 7.18072 81.4692 7.13537 81.4752C7.09002 81.4812 7.0463 81.496 7.00669 81.5189C6.96709 81.5418 6.93238 81.5723 6.90455 81.6086C6.87672 81.6449 6.85632 81.6863 6.8445 81.7305C6.83268 81.7747 6.82968 81.8208 6.83567 81.8661C6.84166 81.9115 6.85653 81.9552 6.87942 81.9948C6.90231 82.0344 6.93277 82.0691 6.96907 82.0969C7.00538 82.1248 7.04681 82.1452 7.091 82.157L7.965 82.391L6.819 83.053C6.74649 83.1026 6.69545 83.1779 6.67612 83.2636C6.65679 83.3493 6.6706 83.4392 6.71479 83.5151C6.75897 83.5911 6.83024 83.6475 6.91431 83.6731C6.99837 83.6987 7.089 83.6915 7.168 83.653L8.275 83.013L8.057 83.828C8.04468 83.8722 8.0412 83.9184 8.04676 83.9639C8.05231 84.0094 8.06678 84.0534 8.08935 84.0934C8.11192 84.1333 8.14214 84.1684 8.17829 84.1967C8.21443 84.2249 8.25579 84.2458 8.3 84.258C8.34419 84.2698 8.39027 84.2727 8.4356 84.2667C8.48093 84.2607 8.52463 84.2457 8.56419 84.2228C8.60376 84.1999 8.63841 84.1693 8.66618 84.133C8.69394 84.0967 8.71427 84.0552 8.726 84.011L9.109 82.581C9.11049 82.5644 9.11049 82.5476 9.109 82.531L10.672 81.631V83.373C10.6406 83.387 10.6119 83.4063 10.587 83.43L9.547 84.477C9.51339 84.509 9.48652 84.5474 9.46798 84.59C9.44943 84.6325 9.43959 84.6783 9.43902 84.7248C9.43846 84.7712 9.44718 84.8172 9.46468 84.8602C9.48218 84.9032 9.5081 84.9423 9.54092 84.9751C9.57374 85.0079 9.6128 85.0338 9.65579 85.0513C9.69877 85.0688 9.74483 85.0775 9.79124 85.077C9.83765 85.0764 9.88348 85.0666 9.92603 85.048C9.96858 85.0295 10.007 85.0026 10.039 84.969L10.679 84.329V85.652C10.679 85.7448 10.7159 85.8339 10.7815 85.8995C10.8471 85.9651 10.9362 86.002 11.029 86.002C11.1218 86.002 11.2108 85.9651 11.2765 85.8995C11.3421 85.8339 11.379 85.7448 11.379 85.652V84.372L11.979 84.972C12.0334 85.0261 12.104 85.0608 12.1801 85.0709C12.2561 85.081 12.3333 85.0659 12.4 85.028C12.4262 85.0123 12.4503 84.9935 12.472 84.972C12.5372 84.9067 12.5739 84.8183 12.5739 84.726C12.5739 84.6337 12.5372 84.5453 12.472 84.48L11.418 83.43C11.4048 83.4192 11.3908 83.4095 11.376 83.401V81.64L12.9 82.521C12.899 82.538 12.899 82.555 12.9 82.572L13.287 84C13.3109 84.0892 13.3692 84.1654 13.4492 84.2116C13.5292 84.2578 13.6243 84.2704 13.7135 84.2465C13.8027 84.2226 13.8789 84.1643 13.9251 84.0843C13.9713 84.0043 13.9839 83.9092 13.96 83.82L13.742 83.005L14.85 83.646C14.9028 83.6769 14.9628 83.6933 15.024 83.6933C15.0852 83.6933 15.1452 83.6769 15.198 83.646C15.251 83.6159 15.2949 83.572 15.325 83.519C15.3715 83.4393 15.3845 83.3444 15.3611 83.2551C15.3376 83.1658 15.2797 83.0895 15.2 83.043L14.052 82.382L14.926 82.147C14.9557 82.1396 14.9843 82.1282 15.011 82.113C15.0849 82.0711 15.141 82.0036 15.1686 81.9233C15.1962 81.8429 15.1934 81.7552 15.1608 81.6767C15.1282 81.5983 15.0681 81.5344 14.9916 81.4973C14.9152 81.4601 14.8278 81.4522 14.746 81.475L13.316 81.858C13.2832 81.8681 13.2521 81.8833 13.224 81.903L11.714 81.031L11.724 81.026H11.716L13.268 80.126C13.2825 80.1347 13.2975 80.1423 13.313 80.149L14.743 80.532C14.8321 80.5558 14.927 80.5433 15.0069 80.4972C15.0868 80.451 15.1451 80.3751 15.169 80.286C15.1809 80.2418 15.1841 80.1957 15.1782 80.1503C15.1722 80.1049 15.1574 80.0611 15.1346 80.0215C15.1117 79.9818 15.0813 79.947 15.045 79.9191C15.0087 79.8913 14.9672 79.8708 14.923 79.859L14.109 79.641L15.216 79C15.2876 78.9501 15.3379 78.8751 15.3568 78.7898C15.3758 78.7046 15.3619 78.6154 15.3181 78.5398C15.2743 78.4643 15.2037 78.408 15.1203 78.3821C15.037 78.3562 14.9469 78.3626 14.868 78.4L13.723 79.062L13.957 78.188C13.9688 78.1438 13.9718 78.0977 13.9658 78.0524C13.9598 78.007 13.945 77.9633 13.9221 77.9237C13.8992 77.8841 13.8687 77.8494 13.8324 77.8216C13.7961 77.7937 13.7547 77.7733 13.7105 77.7615C13.6663 77.7497 13.6202 77.7467 13.5749 77.7527C13.5295 77.7587 13.4858 77.7735 13.4462 77.7964C13.4066 77.8193 13.3719 77.8498 13.3441 77.8861C13.3162 77.9224 13.2958 77.9638 13.284 78.008L12.9 79.437C12.8926 79.4698 12.8902 79.5035 12.893 79.537L11.367 80.422V78.6C11.3818 78.5901 11.3959 78.5791 11.409 78.567L12.456 77.524C12.4884 77.4917 12.5141 77.4533 12.5316 77.4111C12.5491 77.3689 12.5582 77.3236 12.5582 77.2779C12.5583 77.2321 12.5493 77.1868 12.5319 77.1446C12.5144 77.1023 12.4888 77.0639 12.4565 77.0315C12.4242 76.9991 12.3858 76.9734 12.3436 76.9559C12.3014 76.9384 12.2561 76.9293 12.2104 76.9293C12.1646 76.9292 12.1193 76.9382 12.0771 76.9556C12.0348 76.9731 11.9964 76.9987 11.964 77.031L11.364 77.631V76.348C11.364 76.2552 11.3271 76.1662 11.2615 76.1005C11.1958 76.0349 11.1068 75.998 11.014 75.998C10.9212 75.998 10.8321 76.0349 10.7665 76.1005C10.7009 76.1662 10.664 76.2552 10.664 76.348V77.671L10.025 77.031C9.99323 76.9961 9.9547 76.9679 9.91173 76.9483C9.86877 76.9287 9.82227 76.918 9.77506 76.9168C9.72784 76.9157 9.68088 76.9242 9.63703 76.9417C9.59319 76.9593 9.55336 76.9856 9.51996 77.019C9.48656 77.0524 9.46029 77.0922 9.44274 77.136C9.42518 77.1799 9.41671 77.2268 9.41784 77.2741C9.41896 77.3213 9.42966 77.3678 9.44928 77.4107C9.46891 77.4537 9.49705 77.4922 9.532 77.524L10.585 78.57C10.6101 78.5945 10.6388 78.615 10.67 78.631V80.431L9.109 79.531C9.11018 79.4974 9.10681 79.4637 9.099 79.431L8.716 78C8.69199 77.9108 8.63352 77.8347 8.55345 77.7886C8.47337 77.7424 8.37824 77.73 8.289 77.754C8.19975 77.778 8.1237 77.8365 8.07756 77.9166C8.03143 77.9966 8.01899 78.0918 8.043 78.181L8.277 79.055L7.132 78.391C7.05343 78.3565 6.96491 78.3522 6.88336 78.3789C6.80181 78.4055 6.73293 78.4613 6.68988 78.5355C6.64683 78.6097 6.63264 78.6972 6.65 78.7812C6.66736 78.8652 6.71506 78.9399 6.784 78.991V79Z" fill="#CCEAF2"/>
</g>
<g clip-path="url(#clip4_8_44)">
<path d="M47.784 70L48.892 70.639L48.077 70.858C48.0317 70.8687 47.9889 70.8884 47.9514 70.9159C47.9138 70.9434 47.8821 70.9782 47.8582 71.0182C47.8343 71.0582 47.8187 71.1025 47.8123 71.1487C47.8059 71.1948 47.8088 71.2417 47.8208 71.2867C47.8329 71.3317 47.8538 71.3738 47.8824 71.4106C47.9111 71.4473 47.9468 71.4779 47.9875 71.5006C48.0281 71.5233 48.0729 71.5376 48.1192 71.5426C48.1655 71.5477 48.2124 71.5434 48.257 71.53L49.687 71.147C49.7038 71.1416 49.7202 71.1349 49.736 71.127L51.302 72.027H51.311L51.32 72.032L49.793 72.913C49.7649 72.893 49.7339 72.8774 49.701 72.867L48.271 72.484C48.2268 72.4722 48.1807 72.4692 48.1354 72.4752C48.09 72.4812 48.0463 72.496 48.0067 72.5189C47.9671 72.5418 47.9324 72.5723 47.9046 72.6086C47.8767 72.6449 47.8563 72.6863 47.8445 72.7305C47.8327 72.7747 47.8297 72.8208 47.8357 72.8661C47.8417 72.9115 47.8565 72.9552 47.8794 72.9948C47.9023 73.0344 47.9328 73.0691 47.9691 73.0969C48.0054 73.1248 48.0468 73.1452 48.091 73.157L48.965 73.391L47.819 74.053C47.7465 74.1026 47.6955 74.1779 47.6761 74.2636C47.6568 74.3493 47.6706 74.4392 47.7148 74.5151C47.759 74.5911 47.8302 74.6475 47.9143 74.6731C47.9984 74.6987 48.089 74.6915 48.168 74.653L49.275 74.013L49.057 74.828C49.0447 74.8722 49.0412 74.9184 49.0468 74.9639C49.0523 75.0094 49.0668 75.0534 49.0894 75.0934C49.1119 75.1333 49.1421 75.1684 49.1783 75.1967C49.2144 75.2249 49.2558 75.2458 49.3 75.258C49.3442 75.2698 49.3903 75.2727 49.4356 75.2667C49.4809 75.2607 49.5246 75.2457 49.5642 75.2228C49.6038 75.1999 49.6384 75.1693 49.6662 75.133C49.6939 75.0967 49.7143 75.0552 49.726 75.011L50.109 73.581C50.1105 73.5644 50.1105 73.5476 50.109 73.531L51.672 72.631V74.373C51.6406 74.387 51.6119 74.4063 51.587 74.43L50.547 75.477C50.5134 75.509 50.4865 75.5474 50.468 75.59C50.4494 75.6325 50.4396 75.6783 50.439 75.7248C50.4385 75.7712 50.4472 75.8172 50.4647 75.8602C50.4822 75.9032 50.5081 75.9423 50.5409 75.9751C50.5737 76.0079 50.6128 76.0338 50.6558 76.0513C50.6988 76.0688 50.7448 76.0775 50.7912 76.077C50.8377 76.0764 50.8835 76.0666 50.926 76.048C50.9686 76.0295 51.007 76.0026 51.039 75.969L51.679 75.329V76.652C51.679 76.7448 51.7159 76.8339 51.7815 76.8995C51.8471 76.9651 51.9362 77.002 52.029 77.002C52.1218 77.002 52.2108 76.9651 52.2765 76.8995C52.3421 76.8339 52.379 76.7448 52.379 76.652V75.372L52.979 75.972C53.0334 76.0261 53.104 76.0608 53.1801 76.0709C53.2561 76.081 53.3333 76.0659 53.4 76.028C53.4262 76.0123 53.4503 75.9935 53.472 75.972C53.5372 75.9067 53.5739 75.8183 53.5739 75.726C53.5739 75.6337 53.5372 75.5453 53.472 75.48L52.418 74.43C52.4048 74.4192 52.3908 74.4095 52.376 74.401V72.64L53.9 73.521C53.899 73.538 53.899 73.555 53.9 73.572L54.287 75C54.3109 75.0892 54.3692 75.1654 54.4492 75.2116C54.5292 75.2578 54.6243 75.2704 54.7135 75.2465C54.8027 75.2226 54.8789 75.1643 54.9251 75.0843C54.9713 75.0043 54.9839 74.9092 54.96 74.82L54.742 74.005L55.85 74.646C55.9028 74.6769 55.9628 74.6933 56.024 74.6933C56.0852 74.6933 56.1452 74.6769 56.198 74.646C56.251 74.6159 56.2949 74.572 56.325 74.519C56.3715 74.4393 56.3845 74.3444 56.3611 74.2551C56.3376 74.1658 56.2797 74.0895 56.2 74.043L55.052 73.382L55.926 73.147C55.9557 73.1396 55.9843 73.1282 56.011 73.113C56.0849 73.0711 56.141 73.0036 56.1686 72.9233C56.1962 72.8429 56.1934 72.7552 56.1608 72.6767C56.1282 72.5983 56.0681 72.5344 55.9916 72.4973C55.9152 72.4601 55.8278 72.4522 55.746 72.475L54.316 72.858C54.2832 72.8681 54.2521 72.8833 54.224 72.903L52.714 72.031L52.724 72.026H52.716L54.268 71.126C54.2825 71.1347 54.2975 71.1423 54.313 71.149L55.743 71.532C55.8321 71.5558 55.927 71.5433 56.0069 71.4972C56.0868 71.451 56.1451 71.3751 56.169 71.286C56.1809 71.2418 56.1841 71.1957 56.1782 71.1503C56.1722 71.1049 56.1574 71.0611 56.1346 71.0215C56.1117 70.9818 56.0813 70.947 56.045 70.9191C56.0087 70.8913 55.9672 70.8708 55.923 70.859L55.109 70.641L56.216 70C56.2876 69.9501 56.3379 69.8751 56.3568 69.7898C56.3758 69.7046 56.3619 69.6154 56.3181 69.5398C56.2743 69.4643 56.2037 69.408 56.1203 69.3821C56.037 69.3562 55.9469 69.3626 55.868 69.4L54.723 70.062L54.957 69.188C54.9688 69.1438 54.9718 69.0977 54.9658 69.0524C54.9598 69.007 54.945 68.9633 54.9221 68.9237C54.8992 68.8841 54.8687 68.8494 54.8324 68.8216C54.7961 68.7937 54.7547 68.7733 54.7105 68.7615C54.6663 68.7497 54.6202 68.7467 54.5749 68.7527C54.5295 68.7587 54.4858 68.7735 54.4462 68.7964C54.4066 68.8193 54.3719 68.8498 54.3441 68.8861C54.3162 68.9224 54.2958 68.9638 54.284 69.008L53.9 70.437C53.8926 70.4698 53.8902 70.5035 53.893 70.537L52.367 71.422V69.6C52.3818 69.5901 52.3959 69.5791 52.409 69.567L53.456 68.524C53.4884 68.4917 53.5141 68.4533 53.5316 68.4111C53.5491 68.3689 53.5582 68.3236 53.5582 68.2779C53.5583 68.2321 53.5493 68.1868 53.5319 68.1446C53.5144 68.1023 53.4888 68.0639 53.4565 68.0315C53.4242 67.9991 53.3858 67.9734 53.3436 67.9559C53.3014 67.9384 53.2561 67.9293 53.2104 67.9293C53.1646 67.9292 53.1193 67.9382 53.0771 67.9556C53.0348 67.9731 52.9964 67.9987 52.964 68.031L52.364 68.631V67.348C52.364 67.2552 52.3271 67.1662 52.2615 67.1005C52.1958 67.0349 52.1068 66.998 52.014 66.998C51.9212 66.998 51.8321 67.0349 51.7665 67.1005C51.7009 67.1662 51.664 67.2552 51.664 67.348V68.671L51.025 68.031C50.9932 67.9961 50.9547 67.9679 50.9117 67.9483C50.8688 67.9287 50.8223 67.918 50.7751 67.9168C50.7278 67.9157 50.6809 67.9242 50.637 67.9417C50.5932 67.9593 50.5534 67.9856 50.52 68.019C50.4866 68.0524 50.4603 68.0922 50.4427 68.136C50.4252 68.1799 50.4167 68.2268 50.4178 68.2741C50.419 68.3213 50.4297 68.3678 50.4493 68.4107C50.4689 68.4537 50.497 68.4922 50.532 68.524L51.585 69.57C51.6101 69.5945 51.6388 69.615 51.67 69.631V71.431L50.109 70.531C50.1102 70.4974 50.1068 70.4637 50.099 70.431L49.716 69C49.692 68.9108 49.6335 68.8347 49.5534 68.7886C49.4734 68.7424 49.3782 68.73 49.289 68.754C49.1998 68.778 49.1237 68.8365 49.0776 68.9166C49.0314 68.9966 49.019 69.0918 49.043 69.181L49.277 70.055L48.132 69.391C48.0534 69.3565 47.9649 69.3522 47.8834 69.3789C47.8018 69.4055 47.7329 69.4613 47.6899 69.5355C47.6468 69.6097 47.6326 69.6972 47.65 69.7812C47.6674 69.8652 47.7151 69.9399 47.784 69.991V70Z" fill="#CCEAF2"/>
</g>
<g clip-path="url(#clip5_8_44)">
<path d="M79.784 69L80.892 69.639L80.077 69.858C80.0317 69.8687 79.9889 69.8884 79.9514 69.9159C79.9138 69.9434 79.8821 69.9782 79.8582 70.0182C79.8343 70.0582 79.8187 70.1025 79.8123 70.1487C79.8059 70.1948 79.8088 70.2417 79.8208 70.2867C79.8329 70.3317 79.8538 70.3738 79.8824 70.4106C79.9111 70.4473 79.9468 70.4779 79.9875 70.5006C80.0281 70.5233 80.0729 70.5376 80.1192 70.5426C80.1655 70.5477 80.2124 70.5434 80.257 70.53L81.687 70.147C81.7038 70.1416 81.7202 70.1349 81.736 70.127L83.302 71.027H83.311L83.32 71.032L81.793 71.913C81.7649 71.893 81.7339 71.8774 81.701 71.867L80.271 71.484C80.2268 71.4722 80.1807 71.4692 80.1354 71.4752C80.09 71.4812 80.0463 71.496 80.0067 71.5189C79.9671 71.5418 79.9324 71.5723 79.9046 71.6086C79.8767 71.6449 79.8563 71.6863 79.8445 71.7305C79.8327 71.7747 79.8297 71.8208 79.8357 71.8661C79.8417 71.9115 79.8565 71.9552 79.8794 71.9948C79.9023 72.0344 79.9328 72.0691 79.9691 72.0969C80.0054 72.1248 80.0468 72.1452 80.091 72.157L80.965 72.391L79.819 73.053C79.7465 73.1026 79.6955 73.1779 79.6761 73.2636C79.6568 73.3493 79.6706 73.4392 79.7148 73.5151C79.759 73.5911 79.8302 73.6475 79.9143 73.6731C79.9984 73.6987 80.089 73.6915 80.168 73.653L81.275 73.013L81.057 73.828C81.0447 73.8722 81.0412 73.9184 81.0468 73.9639C81.0523 74.0094 81.0668 74.0534 81.0894 74.0934C81.1119 74.1333 81.1421 74.1684 81.1783 74.1967C81.2144 74.2249 81.2558 74.2458 81.3 74.258C81.3442 74.2698 81.3903 74.2727 81.4356 74.2667C81.4809 74.2607 81.5246 74.2457 81.5642 74.2228C81.6038 74.1999 81.6384 74.1693 81.6662 74.133C81.6939 74.0967 81.7143 74.0552 81.726 74.011L82.109 72.581C82.1105 72.5644 82.1105 72.5476 82.109 72.531L83.672 71.631V73.373C83.6406 73.387 83.6119 73.4063 83.587 73.43L82.547 74.477C82.5134 74.509 82.4865 74.5474 82.468 74.59C82.4494 74.6325 82.4396 74.6783 82.439 74.7248C82.4385 74.7712 82.4472 74.8172 82.4647 74.8602C82.4822 74.9032 82.5081 74.9423 82.5409 74.9751C82.5737 75.0079 82.6128 75.0338 82.6558 75.0513C82.6988 75.0688 82.7448 75.0775 82.7912 75.077C82.8377 75.0764 82.8835 75.0666 82.926 75.048C82.9686 75.0295 83.007 75.0026 83.039 74.969L83.679 74.329V75.652C83.679 75.7448 83.7159 75.8339 83.7815 75.8995C83.8471 75.9651 83.9362 76.002 84.029 76.002C84.1218 76.002 84.2108 75.9651 84.2765 75.8995C84.3421 75.8339 84.379 75.7448 84.379 75.652V74.372L84.979 74.972C85.0334 75.0261 85.104 75.0608 85.1801 75.0709C85.2561 75.081 85.3333 75.0659 85.4 75.028C85.4262 75.0123 85.4503 74.9935 85.472 74.972C85.5372 74.9067 85.5739 74.8183 85.5739 74.726C85.5739 74.6337 85.5372 74.5453 85.472 74.48L84.418 73.43C84.4048 73.4192 84.3908 73.4095 84.376 73.401V71.64L85.9 72.521C85.899 72.538 85.899 72.555 85.9 72.572L86.287 74C86.3109 74.0892 86.3692 74.1654 86.4492 74.2116C86.5292 74.2578 86.6243 74.2704 86.7135 74.2465C86.8027 74.2226 86.8789 74.1643 86.9251 74.0843C86.9713 74.0043 86.9839 73.9092 86.96 73.82L86.742 73.005L87.85 73.646C87.9028 73.6769 87.9628 73.6933 88.024 73.6933C88.0852 73.6933 88.1452 73.6769 88.198 73.646C88.251 73.6159 88.2949 73.572 88.325 73.519C88.3715 73.4393 88.3845 73.3444 88.3611 73.2551C88.3376 73.1658 88.2797 73.0895 88.2 73.043L87.052 72.382L87.926 72.147C87.9557 72.1396 87.9843 72.1282 88.011 72.113C88.0849 72.0711 88.141 72.0036 88.1686 71.9233C88.1962 71.8429 88.1934 71.7552 88.1608 71.6767C88.1282 71.5983 88.0681 71.5344 87.9916 71.4973C87.9152 71.4601 87.8278 71.4522 87.746 71.475L86.316 71.858C86.2832 71.8681 86.2521 71.8833 86.224 71.903L84.714 71.031L84.724 71.026H84.716L86.268 70.126C86.2825 70.1347 86.2975 70.1423 86.313 70.149L87.743 70.532C87.8321 70.5558 87.927 70.5433 88.0069 70.4972C88.0868 70.451 88.1451 70.3751 88.169 70.286C88.1809 70.2418 88.1841 70.1957 88.1782 70.1503C88.1722 70.1049 88.1574 70.0611 88.1346 70.0215C88.1117 69.9818 88.0813 69.947 88.045 69.9191C88.0087 69.8913 87.9672 69.8708 87.923 69.859L87.109 69.641L88.216 69C88.2876 68.9501 88.3379 68.8751 88.3568 68.7898C88.3758 68.7046 88.3619 68.6154 88.3181 68.5398C88.2743 68.4643 88.2037 68.408 88.1203 68.3821C88.037 68.3562 87.9469 68.3626 87.868 68.4L86.723 69.062L86.957 68.188C86.9688 68.1438 86.9718 68.0977 86.9658 68.0524C86.9598 68.007 86.945 67.9633 86.9221 67.9237C86.8992 67.8841 86.8687 67.8494 86.8324 67.8216C86.7961 67.7937 86.7547 67.7733 86.7105 67.7615C86.6663 67.7497 86.6202 67.7467 86.5749 67.7527C86.5295 67.7587 86.4858 67.7735 86.4462 67.7964C86.4066 67.8193 86.3719 67.8498 86.3441 67.8861C86.3162 67.9224 86.2958 67.9638 86.284 68.008L85.9 69.437C85.8926 69.4698 85.8902 69.5035 85.893 69.537L84.367 70.422V68.6C84.3818 68.5901 84.3959 68.5791 84.409 68.567L85.456 67.524C85.4884 67.4917 85.5141 67.4533 85.5316 67.4111C85.5491 67.3689 85.5582 67.3236 85.5582 67.2779C85.5583 67.2321 85.5493 67.1868 85.5319 67.1446C85.5144 67.1023 85.4888 67.0639 85.4565 67.0315C85.4242 66.9991 85.3858 66.9734 85.3436 66.9559C85.3014 66.9384 85.2561 66.9293 85.2104 66.9293C85.1646 66.9292 85.1193 66.9382 85.0771 66.9556C85.0348 66.9731 84.9964 66.9987 84.964 67.031L84.364 67.631V66.348C84.364 66.2552 84.3271 66.1662 84.2615 66.1005C84.1958 66.0349 84.1068 65.998 84.014 65.998C83.9212 65.998 83.8321 66.0349 83.7665 66.1005C83.7009 66.1662 83.664 66.2552 83.664 66.348V67.671L83.025 67.031C82.9932 66.9961 82.9547 66.9679 82.9117 66.9483C82.8688 66.9287 82.8223 66.918 82.7751 66.9168C82.7278 66.9157 82.6809 66.9242 82.637 66.9417C82.5932 66.9593 82.5534 66.9856 82.52 67.019C82.4866 67.0524 82.4603 67.0922 82.4427 67.136C82.4252 67.1799 82.4167 67.2268 82.4178 67.2741C82.419 67.3213 82.4297 67.3678 82.4493 67.4107C82.4689 67.4537 82.497 67.4922 82.532 67.524L83.585 68.57C83.6101 68.5945 83.6388 68.615 83.67 68.631V70.431L82.109 69.531C82.1102 69.4974 82.1068 69.4637 82.099 69.431L81.716 68C81.692 67.9108 81.6335 67.8347 81.5534 67.7886C81.4734 67.7424 81.3782 67.73 81.289 67.754C81.1998 67.778 81.1237 67.8365 81.0776 67.9166C81.0314 67.9966 81.019 68.0918 81.043 68.181L81.277 69.055L80.132 68.391C80.0534 68.3565 79.9649 68.3522 79.8834 68.3789C79.8018 68.4055 79.7329 68.4613 79.6899 68.5355C79.6468 68.6097 79.6326 68.6972 79.65 68.7812C79.6674 68.8652 79.7151 68.9399 79.784 68.991V69Z" fill="#CCEAF2"/>
</g>
<g clip-path="url(#clip6_8_44)">
<path d="M63.784 82L64.892 82.639L64.077 82.858C64.0317 82.8687 63.9889 82.8884 63.9514 82.9159C63.9138 82.9434 63.8821 82.9782 63.8582 83.0182C63.8343 83.0582 63.8187 83.1025 63.8123 83.1487C63.8059 83.1948 63.8088 83.2417 63.8208 83.2867C63.8329 83.3317 63.8538 83.3738 63.8824 83.4106C63.9111 83.4473 63.9468 83.4779 63.9875 83.5006C64.0281 83.5233 64.0729 83.5376 64.1192 83.5426C64.1655 83.5477 64.2124 83.5434 64.257 83.53L65.687 83.147C65.7038 83.1416 65.7202 83.1349 65.736 83.127L67.302 84.027H67.311L67.32 84.032L65.793 84.913C65.7649 84.893 65.7339 84.8774 65.701 84.867L64.271 84.484C64.2268 84.4722 64.1807 84.4692 64.1354 84.4752C64.09 84.4812 64.0463 84.496 64.0067 84.5189C63.9671 84.5418 63.9324 84.5723 63.9046 84.6086C63.8767 84.6449 63.8563 84.6863 63.8445 84.7305C63.8327 84.7747 63.8297 84.8208 63.8357 84.8661C63.8417 84.9115 63.8565 84.9552 63.8794 84.9948C63.9023 85.0344 63.9328 85.0691 63.9691 85.0969C64.0054 85.1248 64.0468 85.1452 64.091 85.157L64.965 85.391L63.819 86.053C63.7465 86.1026 63.6955 86.1779 63.6761 86.2636C63.6568 86.3493 63.6706 86.4392 63.7148 86.5151C63.759 86.5911 63.8302 86.6475 63.9143 86.6731C63.9984 86.6987 64.089 86.6915 64.168 86.653L65.275 86.013L65.057 86.828C65.0447 86.8722 65.0412 86.9184 65.0468 86.9639C65.0523 87.0094 65.0668 87.0534 65.0894 87.0934C65.1119 87.1333 65.1421 87.1684 65.1783 87.1967C65.2144 87.2249 65.2558 87.2458 65.3 87.258C65.3442 87.2698 65.3903 87.2727 65.4356 87.2667C65.4809 87.2607 65.5246 87.2457 65.5642 87.2228C65.6038 87.1999 65.6384 87.1693 65.6662 87.133C65.6939 87.0967 65.7143 87.0552 65.726 87.011L66.109 85.581C66.1105 85.5644 66.1105 85.5476 66.109 85.531L67.672 84.631V86.373C67.6406 86.387 67.6119 86.4063 67.587 86.43L66.547 87.477C66.5134 87.509 66.4865 87.5474 66.468 87.59C66.4494 87.6325 66.4396 87.6783 66.439 87.7248C66.4385 87.7712 66.4472 87.8172 66.4647 87.8602C66.4822 87.9032 66.5081 87.9423 66.5409 87.9751C66.5737 88.0079 66.6128 88.0338 66.6558 88.0513C66.6988 88.0688 66.7448 88.0775 66.7912 88.077C66.8377 88.0764 66.8835 88.0666 66.926 88.048C66.9686 88.0295 67.007 88.0026 67.039 87.969L67.679 87.329V88.652C67.679 88.7448 67.7159 88.8339 67.7815 88.8995C67.8471 88.9651 67.9362 89.002 68.029 89.002C68.1218 89.002 68.2108 88.9651 68.2765 88.8995C68.3421 88.8339 68.379 88.7448 68.379 88.652V87.372L68.979 87.972C69.0334 88.0261 69.104 88.0608 69.1801 88.0709C69.2561 88.081 69.3333 88.0659 69.4 88.028C69.4262 88.0123 69.4503 87.9935 69.472 87.972C69.5372 87.9067 69.5739 87.8183 69.5739 87.726C69.5739 87.6337 69.5372 87.5453 69.472 87.48L68.418 86.43C68.4048 86.4192 68.3908 86.4095 68.376 86.401V84.64L69.9 85.521C69.899 85.538 69.899 85.555 69.9 85.572L70.287 87C70.3109 87.0892 70.3692 87.1654 70.4492 87.2116C70.5292 87.2578 70.6243 87.2704 70.7135 87.2465C70.8027 87.2226 70.8789 87.1643 70.9251 87.0843C70.9713 87.0043 70.9839 86.9092 70.96 86.82L70.742 86.005L71.85 86.646C71.9028 86.6769 71.9628 86.6933 72.024 86.6933C72.0852 86.6933 72.1452 86.6769 72.198 86.646C72.251 86.6159 72.2949 86.572 72.325 86.519C72.3715 86.4393 72.3845 86.3444 72.3611 86.2551C72.3376 86.1658 72.2797 86.0895 72.2 86.043L71.052 85.382L71.926 85.147C71.9557 85.1396 71.9843 85.1282 72.011 85.113C72.0849 85.0711 72.141 85.0036 72.1686 84.9233C72.1962 84.8429 72.1934 84.7552 72.1608 84.6767C72.1282 84.5983 72.0681 84.5344 71.9916 84.4973C71.9152 84.4601 71.8278 84.4522 71.746 84.475L70.316 84.858C70.2832 84.8681 70.2521 84.8833 70.224 84.903L68.714 84.031L68.724 84.026H68.716L70.268 83.126C70.2825 83.1347 70.2975 83.1423 70.313 83.149L71.743 83.532C71.8321 83.5558 71.927 83.5433 72.0069 83.4972C72.0868 83.451 72.1451 83.3751 72.169 83.286C72.1809 83.2418 72.1841 83.1957 72.1782 83.1503C72.1722 83.1049 72.1574 83.0611 72.1346 83.0215C72.1117 82.9818 72.0813 82.947 72.045 82.9191C72.0087 82.8913 71.9672 82.8708 71.923 82.859L71.109 82.641L72.216 82C72.2876 81.9501 72.3379 81.8751 72.3568 81.7898C72.3758 81.7046 72.3619 81.6154 72.3181 81.5398C72.2743 81.4643 72.2037 81.408 72.1203 81.3821C72.037 81.3562 71.9469 81.3626 71.868 81.4L70.723 82.062L70.957 81.188C70.9688 81.1438 70.9718 81.0977 70.9658 81.0524C70.9598 81.007 70.945 80.9633 70.9221 80.9237C70.8992 80.8841 70.8687 80.8494 70.8324 80.8216C70.7961 80.7937 70.7547 80.7733 70.7105 80.7615C70.6663 80.7497 70.6202 80.7467 70.5749 80.7527C70.5295 80.7587 70.4858 80.7735 70.4462 80.7964C70.4066 80.8193 70.3719 80.8498 70.3441 80.8861C70.3162 80.9224 70.2958 80.9638 70.284 81.008L69.9 82.437C69.8926 82.4698 69.8902 82.5035 69.893 82.537L68.367 83.422V81.6C68.3818 81.5901 68.3959 81.5791 68.409 81.567L69.456 80.524C69.4884 80.4917 69.5141 80.4533 69.5316 80.4111C69.5491 80.3689 69.5582 80.3236 69.5582 80.2779C69.5583 80.2321 69.5493 80.1868 69.5319 80.1446C69.5144 80.1023 69.4888 80.0639 69.4565 80.0315C69.4242 79.9991 69.3858 79.9734 69.3436 79.9559C69.3014 79.9384 69.2561 79.9293 69.2104 79.9293C69.1646 79.9292 69.1193 79.9382 69.0771 79.9556C69.0348 79.9731 68.9964 79.9987 68.964 80.031L68.364 80.631V79.348C68.364 79.2552 68.3271 79.1662 68.2615 79.1005C68.1958 79.0349 68.1068 78.998 68.014 78.998C67.9212 78.998 67.8321 79.0349 67.7665 79.1005C67.7009 79.1662 67.664 79.2552 67.664 79.348V80.671L67.025 80.031C66.9932 79.9961 66.9547 79.9679 66.9117 79.9483C66.8688 79.9287 66.8223 79.918 66.7751 79.9168C66.7278 79.9157 66.6809 79.9242 66.637 79.9417C66.5932 79.9593 66.5534 79.9856 66.52 80.019C66.4866 80.0524 66.4603 80.0922 66.4427 80.136C66.4252 80.1799 66.4167 80.2268 66.4178 80.2741C66.419 80.3213 66.4297 80.3678 66.4493 80.4107C66.4689 80.4537 66.497 80.4922 66.532 80.524L67.585 81.57C67.6101 81.5945 67.6388 81.615 67.67 81.631V83.431L66.109 82.531C66.1102 82.4974 66.1068 82.4637 66.099 82.431L65.716 81C65.692 80.9108 65.6335 80.8347 65.5534 80.7886C65.4734 80.7424 65.3782 80.73 65.289 80.754C65.1998 80.778 65.1237 80.8365 65.0776 80.9166C65.0314 80.9966 65.019 81.0918 65.043 81.181L65.277 82.055L64.132 81.391C64.0534 81.3565 63.9649 81.3522 63.8834 81.3789C63.8018 81.4055 63.7329 81.4613 63.6899 81.5355C63.6468 81.6097 63.6326 81.6972 63.65 81.7812C63.6674 81.8652 63.7151 81.9399 63.784 81.991V82Z" fill="#CCEAF2"/>
</g>
<g clip-path="url(#clip7_8_44)">
<path d="M30.784 81L31.892 81.639L31.077 81.858C31.0317 81.8687 30.9889 81.8884 30.9514 81.9159C30.9138 81.9434 30.8821 81.9782 30.8582 82.0182C30.8343 82.0582 30.8187 82.1025 30.8123 82.1487C30.8059 82.1948 30.8088 82.2417 30.8208 82.2867C30.8329 82.3317 30.8538 82.3738 30.8824 82.4106C30.9111 82.4473 30.9468 82.4779 30.9875 82.5006C31.0281 82.5233 31.0729 82.5376 31.1192 82.5426C31.1655 82.5477 31.2124 82.5434 31.257 82.53L32.687 82.147C32.7038 82.1416 32.7202 82.1349 32.736 82.127L34.302 83.027H34.311L34.32 83.032L32.793 83.913C32.7649 83.893 32.7339 83.8774 32.701 83.867L31.271 83.484C31.2268 83.4722 31.1807 83.4692 31.1354 83.4752C31.09 83.4812 31.0463 83.496 31.0067 83.5189C30.9671 83.5418 30.9324 83.5723 30.9046 83.6086C30.8767 83.6449 30.8563 83.6863 30.8445 83.7305C30.8327 83.7747 30.8297 83.8208 30.8357 83.8661C30.8417 83.9115 30.8565 83.9552 30.8794 83.9948C30.9023 84.0344 30.9328 84.0691 30.9691 84.0969C31.0054 84.1248 31.0468 84.1452 31.091 84.157L31.965 84.391L30.819 85.053C30.7465 85.1026 30.6955 85.1779 30.6761 85.2636C30.6568 85.3493 30.6706 85.4392 30.7148 85.5151C30.759 85.5911 30.8302 85.6475 30.9143 85.6731C30.9984 85.6987 31.089 85.6915 31.168 85.653L32.275 85.013L32.057 85.828C32.0447 85.8722 32.0412 85.9184 32.0468 85.9639C32.0523 86.0094 32.0668 86.0534 32.0894 86.0934C32.1119 86.1333 32.1421 86.1684 32.1783 86.1967C32.2144 86.2249 32.2558 86.2458 32.3 86.258C32.3442 86.2698 32.3903 86.2727 32.4356 86.2667C32.4809 86.2607 32.5246 86.2457 32.5642 86.2228C32.6038 86.1999 32.6384 86.1693 32.6662 86.133C32.6939 86.0967 32.7143 86.0552 32.726 86.011L33.109 84.581C33.1105 84.5644 33.1105 84.5476 33.109 84.531L34.672 83.631V85.373C34.6406 85.387 34.6119 85.4063 34.587 85.43L33.547 86.477C33.5134 86.509 33.4865 86.5474 33.468 86.59C33.4494 86.6325 33.4396 86.6783 33.439 86.7248C33.4385 86.7712 33.4472 86.8172 33.4647 86.8602C33.4822 86.9032 33.5081 86.9423 33.5409 86.9751C33.5737 87.0079 33.6128 87.0338 33.6558 87.0513C33.6988 87.0688 33.7448 87.0775 33.7912 87.077C33.8377 87.0764 33.8835 87.0666 33.926 87.048C33.9686 87.0295 34.007 87.0026 34.039 86.969L34.679 86.329V87.652C34.679 87.7448 34.7159 87.8339 34.7815 87.8995C34.8471 87.9651 34.9362 88.002 35.029 88.002C35.1218 88.002 35.2108 87.9651 35.2765 87.8995C35.3421 87.8339 35.379 87.7448 35.379 87.652V86.372L35.979 86.972C36.0334 87.0261 36.104 87.0608 36.1801 87.0709C36.2561 87.081 36.3333 87.0659 36.4 87.028C36.4262 87.0123 36.4503 86.9935 36.472 86.972C36.5372 86.9067 36.5739 86.8183 36.5739 86.726C36.5739 86.6337 36.5372 86.5453 36.472 86.48L35.418 85.43C35.4048 85.4192 35.3908 85.4095 35.376 85.401V83.64L36.9 84.521C36.899 84.538 36.899 84.555 36.9 84.572L37.287 86C37.3109 86.0892 37.3692 86.1654 37.4492 86.2116C37.5292 86.2578 37.6243 86.2704 37.7135 86.2465C37.8027 86.2226 37.8789 86.1643 37.9251 86.0843C37.9713 86.0043 37.9839 85.9092 37.96 85.82L37.742 85.005L38.85 85.646C38.9028 85.6769 38.9628 85.6933 39.024 85.6933C39.0852 85.6933 39.1452 85.6769 39.198 85.646C39.251 85.6159 39.2949 85.572 39.325 85.519C39.3715 85.4393 39.3845 85.3444 39.3611 85.2551C39.3376 85.1658 39.2797 85.0895 39.2 85.043L38.052 84.382L38.926 84.147C38.9557 84.1396 38.9843 84.1282 39.011 84.113C39.0849 84.0711 39.141 84.0036 39.1686 83.9233C39.1962 83.8429 39.1934 83.7552 39.1608 83.6767C39.1282 83.5983 39.0681 83.5344 38.9916 83.4973C38.9152 83.4601 38.8278 83.4522 38.746 83.475L37.316 83.858C37.2832 83.8681 37.2521 83.8833 37.224 83.903L35.714 83.031L35.724 83.026H35.716L37.268 82.126C37.2825 82.1347 37.2975 82.1423 37.313 82.149L38.743 82.532C38.8321 82.5558 38.927 82.5433 39.0069 82.4972C39.0868 82.451 39.1451 82.3751 39.169 82.286C39.1809 82.2418 39.1841 82.1957 39.1782 82.1503C39.1722 82.1049 39.1574 82.0611 39.1346 82.0215C39.1117 81.9818 39.0813 81.947 39.045 81.9191C39.0087 81.8913 38.9672 81.8708 38.923 81.859L38.109 81.641L39.216 81C39.2876 80.9501 39.3379 80.8751 39.3568 80.7898C39.3758 80.7046 39.3619 80.6154 39.3181 80.5398C39.2743 80.4643 39.2037 80.408 39.1203 80.3821C39.037 80.3562 38.9469 80.3626 38.868 80.4L37.723 81.062L37.957 80.188C37.9688 80.1438 37.9718 80.0977 37.9658 80.0524C37.9598 80.007 37.945 79.9633 37.9221 79.9237C37.8992 79.8841 37.8687 79.8494 37.8324 79.8216C37.7961 79.7937 37.7547 79.7733 37.7105 79.7615C37.6663 79.7497 37.6202 79.7467 37.5749 79.7527C37.5295 79.7587 37.4858 79.7735 37.4462 79.7964C37.4066 79.8193 37.3719 79.8498 37.3441 79.8861C37.3162 79.9224 37.2958 79.9638 37.284 80.008L36.9 81.437C36.8926 81.4698 36.8902 81.5035 36.893 81.537L35.367 82.422V80.6C35.3818 80.5901 35.3959 80.5791 35.409 80.567L36.456 79.524C36.4884 79.4917 36.5141 79.4533 36.5316 79.4111C36.5491 79.3689 36.5582 79.3236 36.5582 79.2779C36.5583 79.2321 36.5493 79.1868 36.5319 79.1446C36.5144 79.1023 36.4888 79.0639 36.4565 79.0315C36.4242 78.9991 36.3858 78.9734 36.3436 78.9559C36.3014 78.9384 36.2561 78.9293 36.2104 78.9293C36.1646 78.9292 36.1193 78.9382 36.0771 78.9556C36.0348 78.9731 35.9964 78.9987 35.964 79.031L35.364 79.631V78.348C35.364 78.2552 35.3271 78.1662 35.2615 78.1005C35.1958 78.0349 35.1068 77.998 35.014 77.998C34.9212 77.998 34.8321 78.0349 34.7665 78.1005C34.7009 78.1662 34.664 78.2552 34.664 78.348V79.671L34.025 79.031C33.9932 78.9961 33.9547 78.9679 33.9117 78.9483C33.8688 78.9287 33.8223 78.918 33.7751 78.9168C33.7278 78.9157 33.6809 78.9242 33.637 78.9417C33.5932 78.9593 33.5534 78.9856 33.52 79.019C33.4866 79.0524 33.4603 79.0922 33.4427 79.136C33.4252 79.1799 33.4167 79.2268 33.4178 79.2741C33.419 79.3213 33.4297 79.3678 33.4493 79.4107C33.4689 79.4537 33.497 79.4922 33.532 79.524L34.585 80.57C34.6101 80.5945 34.6388 80.615 34.67 80.631V82.431L33.109 81.531C33.1102 81.4974 33.1068 81.4637 33.099 81.431L32.716 80C32.692 79.9108 32.6335 79.8347 32.5534 79.7886C32.4734 79.7424 32.3782 79.73 32.289 79.754C32.1998 79.778 32.1237 79.8365 32.0776 79.9166C32.0314 79.9966 32.019 80.0918 32.043 80.181L32.277 81.055L31.132 80.391C31.0534 80.3565 30.9649 80.3522 30.8834 80.3789C30.8018 80.4055 30.7329 80.4613 30.6899 80.5355C30.6468 80.6097 30.6326 80.6972 30.65 80.7812C30.6674 80.8652 30.7151 80.9399 30.784 80.991V81Z" fill="#CCEAF2"/>
</g>
</g>
<defs>
<clipPath id="clip0_8_44">
<rect width="100" height="100" fill="white"/>
</clipPath>
<clipPath id="clip1_8_44">
<rect width="10" height="10" fill="white" transform="translate(5 60)"/>
</clipPath>
<clipPath id="clip2_8_44">
<rect width="10" height="10" fill="white" transform="translate(18 66)"/>
</clipPath>
<clipPath id="clip3_8_44">
<rect width="10" height="10" fill="white" transform="translate(6 76)"/>
</clipPath>
<clipPath id="clip4_8_44">
<rect width="10" height="10" fill="white" transform="translate(47 67)"/>
</clipPath>
<clipPath id="clip5_8_44">
<rect width="10" height="10" fill="white" transform="translate(79 66)"/>
</clipPath>
<clipPath id="clip6_8_44">
<rect width="10" height="10" fill="white" transform="translate(63 79)"/>
</clipPath>
<clipPath id="clip7_8_44">
<rect width="10" height="10" fill="white" transform="translate(30 78)"/>
</clipPath>
</defs>
</svg>
