<svg id="vector" xmlns="http://www.w3.org/2000/svg" width="24.0d" height="24.0d" viewBox="0 0 512.0 512.0"><path fill="#493625" d="M23,154c-3,0 -7,-2 -8,-6c-1,-4 1,-9 5,-10c27,-8 64,-0 65,-0c4,1 7,5 6,10c-1,4 -5,7 -10,6l0,0c-0,-0 -33,-7 -57,-0C24,154 24,154 23,154z" id="path_0"/><path fill="#493625" d="M481,154c-1,0 -2,-0 -3,-1c-24,-12 -57,-3 -57,-2c-4,1 -9,-1 -10,-5c-1,-4 1,-9 5,-10c1,-0 39,-12 70,4c4,2 5,7 3,11C487,152 484,154 481,154z" id="path_1"/><path fill="#00a35c" d="M388,339c-2,-1 -5,-2 -7,-1c-23,6 -49,9 -78,11c-1,0 -3,0 -5,2c-31,27 -27,78 -27,80c0,2 1,4 3,6c1,1 3,1 5,1c0,0 1,-0 1,-0c41,-8 71,-24 91,-47c16,-19 19,-37 20,-45C391,344 390,341 388,339z" id="path_2"/><path fill="#00a35c" d="M509,407c-11,-31 -27,-53 -46,-66c-14,-10 -31,-14 -49,-13c-0,0 -1,0 -2,0c-8,3 -18,6 -28,9c-2,0 -4,2 -5,4c-9,18 -9,34 -0,47c11,16 35,26 73,29c10,1 20,1 28,1c13,0 22,-0 23,-0c2,-0 5,-1 6,-3C510,412 510,410 509,407z" id="path_3"/><path fill="#b79274" d="M396,128c-3,-0 -6,0 -8,2c-2,2 -2,5 -2,8c5,19 5,41 -0,61c-1,4 -2,7 -4,11c-26,5 -54,9 -81,12c-2,-2 -3,-4 -5,-7c-1,-2 -3,-3 -6,-4c-2,-0 -5,0 -7,2c-8,7 -19,11 -32,11c-13,0 -24,-3 -32,-11c-2,-1 -4,-2 -7,-2c-2,0 -4,2 -6,4c-1,2 -3,5 -5,7c-28,-2 -55,-6 -81,-12c-1,-3 -2,-7 -3,-10c-5,-18 -5,-40 -1,-58c0,-2 -0,-6 -2,-8c-2,-2 -5,-3 -8,-2C18,154 0,192 0,220c0,41 18,76 52,101C95,352 163,368 256,368c92,0 161,-15 203,-46C494,296 512,261 512,220C512,190 492,150 396,128z" id="path_4"/><path fill="#614b35" d="M78,141c-4,18 -4,40 1,58c1,3 2,7 3,10c26,6 53,10 81,12c1,-1 2,-2 2,-3c-16,-2 -33,-5 -49,-9c-1,-3 -2,-7 -3,-10c-5,-18 -5,-40 -1,-58c0,-2 -0,-6 -2,-8c-2,-2 -5,-3 -8,-2c-9,2 -17,4 -24,7C78,140 78,140 78,141z" id="path_5"/><path fill="#493625" d="M319,322c-19,0 -38,-0 -56,-2c-52,-4 -102,-15 -146,-31C39,260 4,225 2,223c-3,-3 -3,-8 0,-12c3,-3 8,-3 12,0c0,0 35,35 108,62c43,15 90,26 141,30c63,5 133,1 205,-12c4,-0 9,2 9,6c0,4 -2,9 -6,9C420,317 368,322 319,322z" id="path_6"/><path fill="#493625" d="M177,307c-4,0 -8,-3 -8,-8c-0,-4 3,-8 8,-8c232,-9 318,-85 319,-86c3,-3 8,-3 12,0c3,3 3,8 -0,12c-1,0 -23,21 -75,42c-47,19 -130,43 -254,48C177,307 177,307 177,307z" id="path_7"/><path fill="#493625" d="M301,294c-0,0 -0,-0 -0,-0c-0,-0 -27,-2 -57,-7c-41,-7 -69,-15 -81,-25c-3,-2 -4,-8 -1,-11c2,-3 8,-4 11,-1c21,16 101,27 130,29c4,0 8,4 7,9C309,291 305,294 301,294z" id="path_8"/><path fill="#ffdcaf" d="M218,214c-10,-9 -15,-23 -15,-42c0,-10 1,-21 4,-32c0,-2 0,-5 -1,-7c-21,-31 -49,-47 -72,-41c-17,4 -29,21 -36,45c-5,21 -5,46 1,68c1,6 4,12 6,17c1,2 3,3 5,4c29,7 60,12 92,14c0,0 0,0 0,0c2,0 4,-0 5,-2c4,-4 8,-9 10,-14C221,220 221,216 218,214z" stroke="#000000" stroke-width="12.0" id="path_9"/><path fill="#ffdcaf" d="M403,137c-6,-24 -19,-40 -36,-45c-23,-6 -51,9 -72,41c-1,2 -1,4 -1,7c3,10 4,21 4,32c0,18 -5,33 -15,42c-3,2 -3,6 -1,10c2,5 6,10 10,14c1,1 3,2 5,2c0,0 0,-0 0,-0c30,-2 61,-7 91,-13c2,-0 4,-2 5,-4c2,-5 5,-11 7,-18v-0C408,183 408,158 403,137z" stroke="#000000" stroke-width="12.0" id="path_10"/><path fill="#ffdcaf" d="M297,106c-12,-21 -29,-33 -47,-33s-34,12 -47,33c-11,19 -17,43 -17,65c0,22 6,40 19,52c11,11 27,17 45,17c18,0 34,-6 45,-17c12,-12 19,-30 19,-52C315,149 308,124 297,106z" stroke="#000000" stroke-width="12.0" id="path_11"/><path fill="#493625" d="M249,242c-30,0 -58,-2 -80,-5c-71,-9 -114,-28 -116,-29c-4,-2 -6,-7 -4,-11c2,-4 7,-6 11,-4c0,0 43,19 112,28c64,8 164,10 280,-28c4,-1 9,0 10,5c1,4 -0,9 -5,10C379,234 308,242 249,242z" id="path_12"/></svg>