<svg id="vector" xmlns="http://www.w3.org/2000/svg" width="24.0d" height="24.0d" viewBox="0 0 682.6 682.6"><path fill="none" d="M502.7,123.3 L598.1,28 654.6,84.5 559.3,179.9" stroke-linejoin="miter" stroke-linecap="butt" stroke="#000000" stroke-width="40.0" id="path_0"/><path fill="none" d="m531,264.7 l-113,-113c-15.6,-15.6 -15.6,-40.9 0,-56.5 15.6,-15.6 40.9,-15.6 56.5,-0L587.6,208.2C603.2,223.8 603.2,249 587.6,264.7 571.9,280.4 546.6,280.4 531,264.7Z" stroke-linejoin="miter" stroke-linecap="butt" stroke="#000000" stroke-width="40.0" id="path_1"/><path fill="none" d="m474.4,321.3 l-113,-113c-15.6,-15.6 -15.6,-40.9 0,-56.5 15.6,-15.6 40.9,-15.6 56.5,-0L531,264.7C546.6,280.3 546.6,305.7 531,321.3 515.4,336.9 490,336.9 474.4,321.3Z" stroke-linejoin="miter" stroke-linecap="butt" stroke="#000000" stroke-width="40.0" id="path_2"/><path fill="none" d="m474.4,321.3c-24.4,24.4 -40.3,56.2 -45.2,90.5l-10.4,72.8c-4.7,32.9 -15.5,65.3 -34.7,92.4 -73.6,104 -219.4,113 -305.5,27 -86,-86 -77,-231.9 27,-305.5 27,-19.2 59.5,-30 92.4,-34.7l72.8,-10.4c34.2,-4.8 66,-20.7 90.5,-45.2M417.8,264.7C381,301.4 333.5,325.3 282,332.6l-79.2,11.3c-24.8,3.5 -48.7,14.8 -67.8,33.9 -46.8,46.8 -46.8,122.8 0,169.7 46.8,46.8 122.8,46.8 169.7,0 19,-19 30.3,-42.9 33.9,-67.8l11.3,-79.2c7.3,-51.4 31,-99 67.8,-135.7" stroke-linejoin="miter" stroke-linecap="butt" stroke="#000000" stroke-width="40.0" id="path_3"/></svg>