<svg width="100" height="100" viewBox="0 0 100 100" fill="none" xmlns="http://www.w3.org/2000/svg">
<g clip-path="url(#clip0_8_44)">
<g clip-path="url(#clip1_8_44)">
<g clip-path="url(#clip2_8_44)">
<mask id="mask0_8_44" style="mask-type:luminance" maskUnits="userSpaceOnUse" x="0" y="0" width="100" height="100">
<path d="M100 0H0V100H100V0Z" fill="white"/>
</mask>
<g mask="url(#mask0_8_44)">
<mask id="mask1_8_44" style="mask-type:luminance" maskUnits="userSpaceOnUse" x="0" y="0" width="100" height="100">
<path d="M100 0H0V100H100V0Z" fill="white"/>
</mask>
<g mask="url(#mask1_8_44)">
<path d="M74 50C74 63.8071 62.8071 75 49 75C35.1929 75 24 63.8071 24 50C24 36.1929 35.1929 25 49 25C62.8071 25 74 36.1929 74 50Z" fill="#FFC20E"/>
<path d="M54.7477 20C54.5944 19.9869 54.441 19.9737 54.2831 19.9602C52.5844 19.8213 48.4113 19.6613 48.4113 19.6613C48.6744 19.6702 48.433 19.6621 48.4113 19.6613C48.4113 19.6613 47.1689 19.62 46.5477 19.6C46.632 19.436 46.7163 19.2721 46.8031 19.1031C46.9127 18.8876 47.1352 18.45 47.1352 18.45C47.7568 17.1206 48.1459 15.2182 47.6477 13.8375C47.2151 12.8287 46.5887 12.0174 45.9281 11.1477C44.783 9.49925 44.3749 7.58389 44.5477 5.6C44.8631 3.89971 46.7477 1.7 47.2477 1.2C47.7477 0.699997 48.2977 0.149997 48.7477 0.199997C48.8137 0.331997 48.2477 1.2 48.2477 1.2C48.2477 1.2 47.5316 4.20801 47.9516 5.35859C48.2477 5.7 50.3477 7.99999 50.7477 8.2C50.7477 8.2 51.8492 9.089 51.9852 9.225C54.4751 11.7149 54.4751 12.9149 54.7477 14.2C54.6793 15.9677 55.3481 18.3241 54.7477 20Z" fill="#FFC20E"/>
<path d="M20 45.2523C19.9869 45.4056 19.9737 45.559 19.9602 45.7169C19.8213 47.4156 19.6613 51.5887 19.6613 51.5887C19.6702 51.3256 19.6621 51.567 19.6613 51.5887C19.6613 51.5887 19.62 52.8311 19.6 53.4523C19.436 53.368 19.2721 53.2837 19.1031 53.1969C18.8876 53.0873 18.45 52.8648 18.45 52.8648C17.1206 52.2432 15.2182 51.8541 13.8375 52.3523C12.8287 52.7849 12.0174 53.4113 11.1477 54.0719C9.49925 55.217 7.58389 55.6251 5.6 55.4523C3.89971 55.1369 1.7 53.2523 1.2 52.7523C0.699997 52.2523 0.149997 51.7023 0.199997 51.2523C0.331997 51.1863 1.2 51.7523 1.2 51.7523C1.2 51.7523 4.20801 52.4684 5.35859 52.0484C5.7 51.7523 7.99999 49.6523 8.2 49.2523C8.2 49.2523 9.089 48.1508 9.225 48.0148C11.7149 45.5249 12.9149 45.5249 14.2 45.2523C15.9677 45.3207 18.3241 44.6519 20 45.2523Z" fill="#FFC20E"/>
<path d="M45.2523 80C45.4056 80.0131 45.559 80.0263 45.7169 80.0398C47.4156 80.1787 51.5887 80.3387 51.5887 80.3387C51.567 80.3379 51.3256 80.3298 51.5887 80.3387C51.5887 80.3387 52.8311 80.38 53.4523 80.4C53.368 80.564 53.2837 80.7279 53.1969 80.8969C53.0873 81.1124 52.8648 81.55 52.8648 81.55C52.2432 82.8794 51.8541 84.7818 52.3523 86.1625C52.7849 87.1713 53.4113 87.9826 54.0719 88.8523C55.217 90.5007 55.6251 92.4161 55.4523 94.4C55.1369 96.1003 53.2523 98.3 52.7523 98.8C52.2523 99.3 51.7023 99.85 51.2523 99.8C51.1863 99.668 51.7523 98.8 51.7523 98.8C51.7523 98.8 52.4684 95.792 52.0484 94.6414C51.7523 94.3 49.6523 92 49.2523 91.8C49.2523 91.8 48.1508 90.911 48.0148 90.775C45.5249 88.2851 45.5249 87.0851 45.2523 85.8C45.3207 84.0323 44.6519 81.6759 45.2523 80Z" fill="#FFC20E"/>
<path d="M80 54.7477C80.0131 54.5944 80.0263 54.441 80.0398 54.2831C80.1787 52.5844 80.3387 48.4113 80.3387 48.4113C80.3379 48.433 80.3298 48.6744 80.3387 48.4113C80.3387 48.4113 80.38 47.1689 80.4 46.5477C80.564 46.632 80.7279 46.7163 80.8969 46.8031C81.1124 46.9127 81.55 47.1352 81.55 47.1352C82.8794 47.7568 84.7818 48.1459 86.1625 47.6477C87.1713 47.2151 87.9826 46.5887 88.8523 45.9281C90.5007 44.783 92.4161 44.3749 94.4 44.5477C96.1003 44.8631 98.3 46.7477 98.8 47.2477C99.3 47.7477 99.85 48.2977 99.8 48.7477C99.668 48.8137 98.8 48.2477 98.8 48.2477C98.8 48.2477 95.792 47.5316 94.6414 47.9516C94.3 48.2477 92 50.3477 91.8 50.7477C91.8 50.7477 90.911 51.8492 90.775 51.9852C88.2851 54.4751 87.0851 54.4751 85.8 54.7477C84.0323 54.6793 81.6759 55.3481 80 54.7477Z" fill="#FFC20E"/>
<path d="M32.1439 25.4297C32.0262 25.5288 31.9085 25.6279 31.7872 25.7301C30.4879 26.833 27.424 29.6707 27.424 29.6707C27.6163 29.4909 27.4398 29.6558 27.424 29.6707C27.424 29.6707 26.5162 30.5199 26.0628 30.9451C26.0065 30.7696 25.9501 30.594 25.8921 30.4131C25.8172 30.1833 25.665 29.7165 25.665 29.7165C25.1646 28.3369 24.0945 26.7166 22.7659 26.0926C21.7467 25.6852 20.7301 25.5544 19.648 25.4065C17.6726 25.0507 16.0297 23.9848 14.7491 22.4598C13.7699 21.0345 13.547 18.1465 13.547 17.4394C13.547 16.7323 13.547 15.9545 13.9006 15.6716C14.0406 15.7183 14.2541 16.7323 14.2541 16.7323C14.2541 16.7323 15.8747 19.3656 16.9853 19.8822C17.4361 19.9143 20.5474 20.0557 20.9716 19.9142C20.9716 19.9142 22.3791 19.764 22.5714 19.764C26.0927 19.764 26.9412 20.6125 28.0427 21.3285C29.2443 22.6268 31.3834 23.82 32.1439 25.4297Z" fill="#FFC20E"/>
<path d="M25.4297 67.8561C25.5288 67.9738 25.6279 68.0915 25.7301 68.2128C26.833 69.5121 29.6707 72.576 29.6707 72.576C29.6558 72.5602 29.4909 72.3837 29.6707 72.576C29.6707 72.576 30.5199 73.4838 30.9451 73.9372C30.7696 73.9935 30.594 74.0499 30.4131 74.1079C30.1833 74.1828 29.7165 74.335 29.7165 74.335C28.3369 74.8354 26.7166 75.9055 26.0926 77.2341C25.6852 78.2533 25.5544 79.2699 25.4065 80.352C25.0507 82.3274 23.9848 83.9703 22.4598 85.2509C21.0345 86.2301 18.1465 86.453 17.4394 86.453C16.7323 86.453 15.9545 86.453 15.6716 86.0994C15.7183 85.9594 16.7323 85.7459 16.7323 85.7459C16.7323 85.7459 19.3656 84.1253 19.8822 83.0147C19.9143 82.5639 20.0557 79.4526 19.9142 79.0284C19.9142 79.0284 19.764 77.6209 19.764 77.4286C19.764 73.9073 20.6125 73.0588 21.3285 71.9573C22.6268 70.7557 23.82 68.6166 25.4297 67.8561Z" fill="#FFC20E"/>
<path d="M67.8561 74.5703C67.9738 74.4712 68.0915 74.3721 68.2128 74.2699C69.5121 73.167 72.576 70.3293 72.576 70.3293C72.5602 70.3442 72.3837 70.5091 72.576 70.3293C72.576 70.3293 73.4838 69.4801 73.9372 69.0549C73.9935 69.2304 74.0499 69.406 74.1079 69.5869C74.1828 69.8167 74.335 70.2835 74.335 70.2835C74.8354 71.6631 75.9055 73.2834 77.2341 73.9074C78.2533 74.3148 79.2699 74.4456 80.352 74.5935C82.3274 74.9493 83.9703 76.0152 85.2509 77.5402C86.2301 78.9655 86.453 81.8535 86.453 82.5606C86.453 83.2677 86.453 84.0455 86.0994 84.3284C85.9594 84.2817 85.7459 83.2677 85.7459 83.2677C85.7459 83.2677 84.1253 80.6344 83.0147 80.1178C82.5639 80.0857 79.4526 79.9443 79.0284 80.0858C79.0284 80.0858 77.6209 80.236 77.4286 80.236C73.9073 80.236 73.0588 79.3875 71.9573 78.6715C70.7557 77.3732 68.6166 76.18 67.8561 74.5703Z" fill="#FFC20E"/>
<path d="M74.5703 32.1439C74.4712 32.0262 74.3721 31.9085 74.2699 31.7872C73.167 30.4879 70.3293 27.424 70.3293 27.424C70.5091 27.6163 70.3442 27.4398 70.3293 27.424C70.3293 27.424 69.4801 26.5162 69.0549 26.0628C69.2304 26.0065 69.406 25.9501 69.5869 25.8921C69.8167 25.8172 70.2835 25.665 70.2835 25.665C71.6631 25.1646 73.2834 24.0945 73.9074 22.7659C74.3148 21.7467 74.4456 20.7301 74.5935 19.648C74.9493 17.6726 76.0152 16.0297 77.5402 14.7491C78.9655 13.7699 81.8535 13.547 82.5606 13.547C83.2677 13.547 84.0455 13.547 84.3284 13.9006C84.2817 14.0406 83.2677 14.2541 83.2677 14.2541C83.2677 14.2541 80.6344 15.8747 80.1178 16.9853C80.0857 17.4361 79.9443 20.5474 80.0858 20.9716C80.0858 20.9716 80.236 22.3791 80.236 22.5714C80.236 26.0927 79.3875 26.9412 78.6715 28.0427C77.3732 29.2443 76.18 31.3834 74.5703 32.1439Z" fill="#FFC20E"/>
</g>
</g>
</g>
<path d="M0 93.3594H100V61.1328C100 59.7656 99.4141 58.7891 97.6562 58.2031C94.5312 57.2266 91.2109 54.6875 87.8906 54.6875C83.7891 54.6875 79.4922 58.7891 75.3906 58.7891C71.2891 58.7891 66.9922 54.6875 62.8906 54.6875C58.7891 54.6875 54.4922 58.7891 50.3906 58.7891C46.2891 58.7891 41.9922 54.6875 37.8906 54.6875C33.7891 54.6875 29.4922 58.7891 25.3906 58.7891C21.2891 58.7891 16.9922 54.6875 12.8906 54.6875C9.76562 54.6875 6.44531 57.0312 3.125 58.2031C1.17188 58.7891 0.78125 60.1562 0.78125 61.1328L0 93.3594Z" fill="#62D9FA"/>
<path d="M0 68.3594V93.1641H100V68.3594C96.0938 68.5547 91.9922 72.2656 87.8906 72.2656C83.7891 72.2656 79.4922 68.1641 75.3906 68.1641C71.2891 68.1641 66.9922 72.2656 62.8906 72.2656C58.7891 72.2656 54.4922 68.1641 50.3906 68.1641C46.2891 68.1641 41.9922 72.2656 37.8906 72.2656C33.7891 72.2656 29.4922 68.1641 25.3906 68.1641C21.2891 68.1641 16.9922 72.2656 12.8906 72.2656C8.98438 72.2656 4.88281 68.5547 0.78125 68.3594H0Z" fill="#98E5FA"/>
<path d="M12.1094 82.2266C8.20312 82.2266 4.10156 85.9375 0 86.1328V93.5547C0 95.3125 0.78125 95.8984 2.34375 95.8984H97.4609C99.0234 95.8984 99.8047 95.1172 99.8047 93.5547V86.1328C95.8984 85.9375 91.7969 82.0312 87.6953 82.0312C83.5938 82.0312 79.2969 86.1328 75.1953 86.1328C71.0938 86.1328 66.7969 82.0312 62.6953 82.0312C58.5938 82.0312 54.2969 86.1328 50.1953 86.1328C46.0938 86.1328 41.7969 82.0312 37.6953 82.0312C33.5938 82.0312 29.2969 86.1328 25.1953 86.1328C21.0938 86.1328 16.7969 82.0312 12.6953 82.0312L12.1094 82.2266Z" fill="#C8EFFC"/>
<path d="M24.6094 63.4766C20.5078 63.4766 16.2109 67.5781 12.1094 67.5781C8.20312 67.5781 4.10156 63.8672 0 63.6719V68.5547C3.90625 68.75 8.00781 72.4609 12.1094 72.4609C16.2109 72.4609 20.5078 68.3594 24.6094 68.3594C28.7109 68.3594 33.0078 72.4609 37.1094 72.4609C38.6719 72.4609 40.2344 71.875 41.9922 71.0938C44.5312 69.9219 47.0703 68.3594 49.6094 68.3594C52.1484 68.3594 54.6875 69.7266 57.2266 71.0938C58.7891 71.6797 60.3516 72.4609 62.1094 72.4609C66.2109 72.4609 70.5078 68.3594 74.6094 68.3594C78.7109 68.3594 83.0078 72.4609 87.1094 72.4609C91.0156 72.4609 95.1172 68.75 99.2188 68.5547V63.6719C95.3125 63.8672 91.2109 67.7734 87.1094 67.7734C83.0078 67.7734 78.7109 63.6719 74.6094 63.6719C71.4844 63.6719 68.1641 66.0156 64.8438 67.1875C64.0625 67.3828 63.0859 67.5781 62.1094 67.5781C58.0078 67.5781 53.7109 63.4766 49.6094 63.4766C45.5078 63.4766 41.2109 67.5781 37.1094 67.5781C36.3281 67.5781 35.3516 67.3828 34.375 67.1875C31.25 66.2109 27.9297 63.6719 24.6094 63.6719V63.4766Z" fill="#52CEF0"/>
<path d="M12.1094 77.3438C8.20312 77.3438 4.10156 81.0547 0 81.25V86.1328C3.90625 85.9375 8.00781 82.0312 12.1094 82.0312C16.2109 82.0312 20.5078 86.1328 24.6094 86.1328C28.7109 86.1328 33.0078 82.0312 37.1094 82.0312C41.2109 82.0312 45.5078 86.1328 49.6094 86.1328C53.7109 86.1328 58.0078 82.0312 62.1094 82.0312C66.2109 82.0312 70.5078 86.1328 74.6094 86.1328C78.7109 86.1328 83.0078 82.0312 87.1094 82.0312C91.0156 82.0312 95.1172 85.7422 99.2188 85.9375V81.0547C95.3125 80.8594 91.2109 76.9531 87.1094 76.9531C83.0078 76.9531 78.7109 81.0547 74.6094 81.0547C70.5078 81.0547 66.2109 76.9531 62.1094 76.9531C58.0078 76.9531 53.7109 81.0547 49.6094 81.0547C45.5078 81.0547 41.2109 76.9531 37.1094 76.9531C33.0078 76.9531 28.7109 81.0547 24.6094 81.0547C20.5078 81.0547 16.2109 76.9531 12.1094 76.9531V77.3438Z" fill="#8BDEF5"/>
</g>
</g>
<defs>
<clipPath id="clip0_8_44">
<rect width="100" height="100" fill="white"/>
</clipPath>
<clipPath id="clip1_8_44">
<rect width="100" height="100" fill="white"/>
</clipPath>
<clipPath id="clip2_8_44">
<rect width="100" height="100" fill="white"/>
</clipPath>
</defs>
</svg>
