<svg id="vector" xmlns="http://www.w3.org/2000/svg" width="24.0d" height="24.0d" viewBox="0 0 512.0 512.0"><path fill="#ece9f7" d="M210,10c11,0 20,9 20,20c0,11 -9,20 -20,20H110c-11,0 -20,-9 -20,-20c0,-11 9,-20 20,-20H210z" stroke="#000000" stroke-width="12.0" id="path_0"/><path fill="#ece9f7" d="M280,291L280,292c0,0 -13,10 -30,10s-30,-10 -30,-10s-13,-10 -30,-10s-30,10 -30,10s-13,10 -30,10s-30,-10 -30,-10s-13,-10 -30,-10s-30,10 -30,10l-0,-0c2,-2 4,-5 6,-7C85,245 110,193 110,138V50h100v88c0,55 24,106 63,146C276,287 278,289 280,291z" stroke="#000000" stroke-width="12.0" id="path_1"/><path fill="#f2d45c" d="M491,130C498,141 502,155 502,170c0,44 -35,80 -80,80s-80,-35 -80,-80c0,-14 3,-28 10,-39L422,10L491,130z" stroke="#000000" stroke-width="12.0" id="path_2"/><path fill="#f2d45c" d="M280,291C298,314 310,341 310,372c0,46 -26,107 -65,130H75C36,479 10,418 10,372c0,-30 11,-58 29,-80L40,292c0,0 13,-10 30,-10s30,10 30,10s13,10 30,10s30,-10 30,-10s13,-10 30,-10s30,10 30,10s13,10 30,10s30,-10 30,-10L280,291z" stroke="#000000" stroke-width="12.0" id="path_3"/><path fill="#000000" d="M270,352c-5,0 -10,4 -10,10s4,10 10,10s10,-4 10,-10S275,352 270,352z" id="path_4"/><path fill="#000000" d="M268,392c-5,-1 -10,1 -12,7c-6,22 -18,44 -30,55c-4,3 -4,9 -1,14c2,2 4,3 7,3c2,0 4,-0 6,-2c15,-13 30,-38 37,-65C276,399 273,393 268,392z" id="path_5"/><path fill="#000000" d="M422,200c-16,0 -30,-13 -30,-30c0,-5 1,-10 4,-15c2,-4 1,-10 -3,-13c-4,-2 -10,-1 -13,3C374,152 372,161 372,170c0,27 22,50 50,50c5,0 10,-4 10,-10S427,200 422,200z" id="path_6"/></svg>