<svg width="100" height="100" viewBox="0 0 100 100" fill="none" xmlns="http://www.w3.org/2000/svg">
<g clip-path="url(#clip0_8_44)">
<path d="M82.8125 58.3984C73.4375 58.3984 65.8203 50.7812 65.8203 41.4062C65.8203 32.0312 73.4375 24.4141 82.8125 24.4141C92.1875 24.4141 99.8047 32.0312 99.8047 41.4062C100 50.7812 92.1875 58.3984 82.8125 58.3984ZM82.8125 30.0781C76.7578 30.0781 71.6797 34.9609 71.6797 41.2109C71.6797 47.2656 76.5625 52.3438 82.8125 52.3438C88.8672 52.3438 93.9453 47.4609 93.9453 41.2109C94.1406 35.1562 89.0625 30.0781 82.8125 30.0781Z" fill="#EE334E"/>
<path d="M66.4062 75.5859C57.0312 75.5859 49.4141 67.9688 49.4141 58.5938C49.4141 49.2188 57.0312 41.6016 66.4062 41.6016C75.7812 41.6016 83.3984 49.2188 83.3984 58.5938C83.3984 67.9688 75.7812 75.5859 66.4062 75.5859ZM66.4062 47.2656C60.3516 47.2656 55.2734 52.1484 55.2734 58.3984C55.2734 64.4531 60.1562 69.5312 66.4062 69.5312C72.4609 69.5312 77.5391 64.6484 77.5391 58.3984C77.5391 52.3438 72.6562 47.2656 66.4062 47.2656Z" fill="#00A651"/>
<path d="M50 58.3984C40.625 58.3984 33.0078 50.7812 33.0078 41.4062C33.0078 32.0312 40.625 24.4141 50 24.4141C59.375 24.4141 66.9922 32.0312 66.9922 41.4062C66.9922 50.7812 59.375 58.3984 50 58.3984ZM50 30.0781C43.9453 30.0781 38.8672 34.9609 38.8672 41.2109C38.8672 47.2656 43.75 52.3438 50 52.3438C56.25 52.3438 61.1328 47.4609 61.1328 41.2109C61.1328 35.1562 56.0547 30.0781 50 30.0781Z" fill="black"/>
<path d="M33.3984 75.5859C24.0234 75.5859 16.4062 67.9688 16.4062 58.5938C16.4062 49.2188 24.0234 41.6016 33.3984 41.6016C42.7734 41.6016 50.3906 49.2188 50.3906 58.5938C50.5859 67.9688 42.7734 75.5859 33.3984 75.5859ZM33.3984 47.2656C27.3438 47.2656 22.2656 52.1484 22.2656 58.3984C22.2656 64.4531 27.1484 69.5312 33.3984 69.5312C39.4531 69.5312 44.5312 64.6484 44.5312 58.3984C44.7266 52.3438 39.6484 47.2656 33.3984 47.2656Z" fill="#FCB131"/>
<path d="M16.9922 58.3984C7.61719 58.3984 0 50.7812 0 41.2109C0 31.8359 7.61719 24.2188 16.9922 24.2188C26.3672 24.2188 33.9844 31.8359 33.9844 41.2109C33.9844 50.7812 26.3672 58.3984 16.9922 58.3984ZM16.9922 30.0781C10.9375 30.0781 5.85938 34.9609 5.85938 41.2109C5.85938 47.4609 10.7422 52.3438 16.9922 52.3438C23.0469 52.3438 28.125 47.4609 28.125 41.2109C28.125 35.1562 23.0469 30.0781 16.9922 30.0781Z" fill="#0081C8"/>
</g>
<defs>
<clipPath id="clip0_8_44">
<rect width="100" height="100" fill="white"/>
</clipPath>
</defs>
</svg>
