<svg id="vector" xmlns="http://www.w3.org/2000/svg" width="24.0d" height="24.0d" viewBox="0 0 512.0 512.0"><path fill="#e8faff" d="M213,49c-61,7.6 -150,69 -191,140.6c65,-26 218,-55.4 223,-54.4l49,-24.6C295,110.6 301,38 213,49z" id="path_0"/><path fill="#b2edff" d="M511,399c0,0 -5,-1.4 -13,-2.7c-131,-22 -322,-120.4 -280,-212.7c15,-33.7 58,-38.6 58,-38.6v-35.6H168l-92,66c23,-5 42,-4 52,2c22,14.7 7,46.8 -32,35.4c-74,-21.4 -90,60 -51,91l13,76.3l237,82l216,-0L511,399z" id="path_1"/><path fill="#00c3ff" d="M426,398.4c-106,-34 -234,-106 -243,-180c-4,-35.7 0,-74 64,-101.3l-9,-8c-48,-14.6 -101,-2 -138,32.3l-41,38.8c0,-0 1,-0 1,-0.6c29,-9.5 56,-9.6 68,-2c22,14.7 7,46.8 -32,35.4c-74,-21.4 -90,60 -51,91l5,33l118,-38.8c14,19 33,36.8 56,53c1,1 3,1.4 4,1.4c2,0 5,-1 6,-3.4c2,-3.6 1,-8.6 -2,-11c-34,-23.8 -58,-51.5 -71,-81c-1,-4 -0,-8.7 3,-10.7c4,-2 8,-0 10,3.6c37,78 167,138.6 243,163.5c0,0 1,0 2,0.3c3,0 6,-2 7,-5.5C432,404 430,399.7 426,398.4z" id="path_2"/><path fill="#d1f4ff" d="M305,104.3c-9,-7 -36,-19 -63,-19c-23,0 -44,4 -63,11c39,4 81,27 100,54.9C301,185 348,135.4 305,104.3z" id="path_3"/><path fill="#00c3ff" d="M142,318.6c0,0 96,133 361,135.7c4,0 8,3.6 8,8l0,0c0,4.4 -3,8 -8,8H180c-36,0 -85,-16 -116,-56c-25,-33.5 -16,-96 -16,-96.3L142,318.6z" id="path_4"/><path fill="#59d8ff" d="M469,426.7c-0,0 -1,-0 -1,-0c-4,-1 -9,-2 -14,-3c-4,-1 -6,-5.4 -5,-9.7c1,-4 5,-7 9,-5.8c4,1 9,2 13,3c4,1 7,5 6,9.5C476,424 473,426.7 469,426.7z" id="path_5"/><path fill="#59d8ff" d="M265,374.5c-1,0 -2,-0 -3,-1c-3,-1.8 -7,-3.8 -10,-5.7c-3,-2 -5,-7 -3,-11c2,-3.8 7,-5 10,-3c3,1.8 6,3.7 10,5.5c4,2 5,6.8 3,10.8C271,373 268,374.5 265,374.5z" id="path_6"/><path fill="#e8faff" d="M33,325.3c-11,47 31,89 31,89s-22,-40 -5,-68.7c11,-19 35,-23 61,4.5c20,21 47,-8.7 35,-31c11,2 23,-2 24,-12.8C185,266 53,239.7 33,325.3z" id="path_7"/><path fill="#d1f4ff" d="M58,345.6c11,-19 35,-23 61,4.5c20,21 47,-8.7 35,-31c-23,-32 -83,-36 -104,-0.8c-21,36.4 -3,75 13,96.3C64,414 41,374.4 58,345.6z" id="path_8"/></svg>