<svg id="vector" xmlns="http://www.w3.org/2000/svg" width="24.0d" height="24.0d" viewBox="0 0 512.0 512.0"><path fill="#585661" d="M357,336c0,0 86,-5 113,-8c36,-4 32,-16 32,-16c0,-7 -23,-46 -57,-64c-27,-14 -69,-28 -113,-32c-36,-2 -35,-54 -65,-79c-11,-9 -29,-13 -24,0c5,13 29,69 0,79S138,231 48,304c0,0 -30,-12 -40,0c-2,3 16,24 16,23S8,358 8,376c0,0 33,-14 40,-39c2,-11 84,-29 146,-16c65,14 105,16 105,15" stroke="#000000" stroke-width="12.0" id="path_0"/><path fill="#f0ebe1" d="M430,288c-5,-10 -25,-25 -65,-24c0,0 7,17 24,23C407,294 430,288 430,288z" stroke-linejoin="round" stroke="#000000" stroke-width="12.0" id="path_1"/><path fill="#f0ebe1" d="M358,336l1,-3c0,0 69,-4 91,-6c23,-2 25,-9 26,-11c-28,1 -71,-14 -100,-2C366,315 367,325 358,336z" stroke="#000000" stroke-width="12.0" id="path_2"/><path fill="#6b676e" d="M304,320c0,0 -8,58 -3,63c4,5 61,-40 65,-63C368,304 320,304 304,320z" stroke="#000000" stroke-width="12.0" id="path_3"/><path fill="#f0ebe1" d="M272,333c-24,-29 -63,-45 -88,-45c-32,0 -72,17 -48,25c14,4 55,0 68,8C233,328 256,331 272,333z" stroke="#000000" stroke-width="12.0" id="path_4"/><path fill="#6b676e" d="M240,248c199,-24 264,64 264,64l0,0c0,-0 -0,-1 -0,-1c0,-7 -23,-46 -57,-64c-27,-14 -69,-28 -113,-32c-36,-2 -35,-54 -65,-79c-11,-9 -29,-13 -24,0c5,13 29,69 0,79c-29,11 -105,15 -195,87C81,319 96,265 240,248z" stroke-linejoin="round" stroke="#000000" stroke-width="12.0" id="path_5"/></svg>