<svg id="vector" xmlns="http://www.w3.org/2000/svg" width="24.0d" height="24.0d" viewBox="0 0 512.0 512.0"><path fill="#ffe565" d="m369,317h-227c-11,0 -20,9 -20,20v9h268v-9c0,-11 -9,-20 -20,-20z" stroke="#000000" stroke-width="12.0" id="path_0"/><path fill="#ebe1dc" d="m71,348h368v156h-368z" stroke="#000000" stroke-width="12.0" id="path_1"/><path fill="#ffe565" d="m260,381 l-4,-4 -4,4c-3,3 -6,5 -10,7 -12,5 -21,18 -21,32v83h71v-83c0,-14 -8,-27 -21,-32 -3,-1 -7,-4 -10,-7z" stroke="#000000" stroke-width="12.0" id="path_2"/><path fill="#bce8f1" d="m128,460h-26c-1,0 -3,-1 -3,-3v-34c0,-12 5,-23 15,-30 0,-0 1,-0 2,0 9,7 15,18 15,30v34c0,1 -1,3 -3,3z" stroke="#000000" stroke-width="12.0" id="path_3"/><path fill="#bce8f1" d="m190,460h-26c-1,0 -3,-1 -3,-3v-34c0,-12 5,-23 15,-30 0,-0 1,-0 2,0 9,7 15,18 15,30v34c0,1 -1,3 -3,3z" stroke="#000000" stroke-width="12.0" id="path_4"/><path fill="#bce8f1" d="m383,460h26c1,0 3,-1 3,-3v-34c0,-12 -5,-23 -15,-30 -0,-0 -1,-0 -2,0 -9,7 -15,18 -15,30v34c0,1 1,3 3,3z" stroke="#000000" stroke-width="12.0" id="path_5"/><path fill="#bce8f1" d="m321,460h26c1,0 3,-1 3,-3v-34c0,-12 -5,-23 -15,-30 -0,-0 -1,-0 -2,0 -9,7 -15,18 -15,30v34c0,1 1,3 3,3z" stroke="#000000" stroke-width="12.0" id="path_6"/><path fill="#a4f7c5" d="m177,317h157c31,-14 51,-36 51,-60 0,-34 -39,-64 -93,-73 -9,-1 -18,-6 -25,-12l-12,-12 -12,12c-6,6 -15,11 -25,12 -53,9 -93,38 -93,73 0,24 20,46 51,60z" stroke="#000000" stroke-width="12.0" id="path_7"/><path fill="#ffe565" d="m74,254h-55c-6,0 -11,-5 -11,-11v-11c0,-2 1,-4 4,-3h69c2,0 4,1 4,3v11c0,6 -5,11 -11,11z" stroke="#000000" stroke-width="12.0" id="path_8"/><path fill="#ffe565" d="m72,92h-51c-5,0 -10,-4 -10,-10v-10c0,-2 1,-3 3,-3h64c2,0 3,1 3,3v10c0,5 -4,10 -10,10z" stroke="#000000" stroke-width="12.0" id="path_9"/><path fill="#a4f7c5" d="m47,23 l-1,-2 -1,2c-3,5 -7,9 -12,13 -6,4 -10,11 -10,19v11h48v-11c0,-8 -4,-15 -10,-19 -5,-3 -9,-8 -12,-13z" stroke="#000000" stroke-width="12.0" id="path_10"/><path fill="#ebe1dc" d="M20,254h50v250h-51zM24,92h43v135h-43zM491,504h-50v-250h51zM487,228h-43v-135h43z" stroke="#000000" stroke-width="12.0" id="path_11"/><path fill="#ffe565" d="m438,254h55c6,0 11,-5 11,-11v-11c0,-2 -1,-4 -4,-3h-69c-2,0 -4,1 -4,3v11c0,6 5,11 11,11z" stroke="#000000" stroke-width="12.0" id="path_12"/><path fill="#ffe565" d="m440,92h51c5,0 10,-4 10,-10v-10c0,-2 -1,-3 -3,-3h-64c-2,0 -3,1 -3,3v10c0,5 4,10 10,10z" stroke="#000000" stroke-width="12.0" id="path_13"/><path fill="#a4f7c5" d="m464,23 l1,-2 1,2c3,5 7,9 12,13 6,4 10,11 10,19v11h-48v-11c0,-8 4,-15 10,-19 5,-3 9,-8 12,-13z" stroke="#000000" stroke-width="12.0" id="path_14"/></svg>