<svg id="vector" xmlns="http://www.w3.org/2000/svg" width="24.0d" height="24.0d" viewBox="0 0 512.0 512.0"><path fill="#7a7a93" d="m504,451v-28c0,-46 -14,-92 -42,-129l-21,-29h-371l-21,29c-27,37 -42,83 -42,129v28c0,18 14,32 32,32h431c18,0 32,-14 32,-32z" stroke="#000000" stroke-width="12.0" id="path_0"/><path fill="#f1f6f7" d="m390,484 l-5,-12c-10,-26 -36,-43 -65,-43h-128c-28,0 -54,17 -65,43l-5,12z" stroke="#000000" stroke-width="12.0" id="path_1"/><path fill="#7a7a93" d="M161,66 l-21,-21c-19,-19 -51,-19 -70,0 -19,19 -19,51 0,70l21,21zM427,136 l21,-21c19,-19 19,-51 0,-70 -19,-19 -51,-19 -70,0l-21,21z" stroke="#000000" stroke-width="12.0" id="path_2"/><path fill="#fd8087" d="M134,79 l-12,-12c-8,-8 -21,-8 -30,0 -8,8 -8,21 0,29l12,12zM413,109 l12,-12c8,-8 8,-21 0,-30 -8,-8 -21,-8 -30,0l-12,12z" stroke="#000000" stroke-width="12.0" id="path_3"/><path fill="#f1f6f7" d="m441,305c31,-48 32,-111 0,-160l-17,-26c-36,-56 -98,-90 -166,-90 -67,0 -129,34 -166,90l-17,26c-31,48 -31,111 0,160 6,10 19,13 29,22 30,24 67,44 105,44h107c49,0 96,-25 123,-66z" stroke="#000000" stroke-width="12.0" id="path_4"/><path fill="#7a7a93" d="m275,280 l10,-7c4,-3 7,-8 7,-13 0,-9 -7,-17 -17,-17h-32c-9,0 -17,7 -17,17 0,5 2,10 7,13l10,7c9,6 22,6 31,0z" stroke="#000000" stroke-width="12.0" id="path_5"/><path fill="#7a7a93" d="m188,111c-11,0 -23,5 -30,14l-43,52c-6,8 -10,18 -10,29 0,25 20,45 45,45l9,-0c37,-0 67,-30 67,-67l-0,-36c-0,-20 -17,-37 -38,-37zM330,111c11,0 23,5 30,14l43,52c6,8 10,18 10,29 -0,25 -20,45 -45,45l-9,-0c-37,-0 -67,-30 -67,-67l0,-36c0,-20 17,-37 38,-37z" stroke="#000000" stroke-width="12.0" id="path_6"/><path fill="#f1f6f7" d="M177,178m-15,0a15,15 0,1 1,31 0a15,15 0,1 1,-31 0M341,178m-15,0a15,15 0,1 1,31 0a15,15 0,1 1,-31 0" stroke="#000000" stroke-width="12.0" id="path_7"/><path fill="#a4e786" d="m180,384 l2,4c3,7 -4,15 -12,11l-4,-2c-15,-7 -28,-20 -35,-35l-2,-4c-3,-7 4,-15 12,-11l4,2c15,7 28,20 35,35z" stroke="#000000" stroke-width="12.0" id="path_8"/><path fill="#a4e786" d="m120,407 l1,4c2,7 13,8 16,1l2,-4c7,-15 8,-33 2,-49l-1,-4c-2,-7 -13,-8 -16,-1l-2,4c-7,15 -8,33 -2,49z" stroke="#000000" stroke-width="12.0" id="path_9"/><path fill="#a4e786" d="m181,319c-34,0 -67,13 -92,38l-11,11c-5,5 -5,14 0,19 5,5 14,5 19,0l8,-8c21,-21 50,-33 80,-33h58c7,0 13,-6 13,-13 0,-7 -6,-13 -13,-13z" stroke="#000000" stroke-width="12.0" id="path_10"/></svg>