<svg id="vector" xmlns="http://www.w3.org/2000/svg" width="24.0d" height="24.0d" viewBox="0 0 512.0 512.0"><path fill="#557aff" d="m196,112v-42c0,-33 -26,-60 -60,-60h-66c-33,0 -60,26 -60,60v372c0,33 26,60 60,60h432v-390c-11,0 -287,0 -306,0z" stroke="#000000" stroke-width="16.0" id="path_0"/><path fill="#eefaff" d="m136,382c33,0 60,26 60,60 0,33 -26,60 -60,60h-66c-33,0 -60,-26 -60,-60 0,-33 26,-60 60,-60z" stroke="#000000" stroke-width="20.0" id="path_1"/><path fill="#000000" d="M66,442h80 M196,120v320 M196,210l290,290 M196,340l160,160 M224,116l276,276 M354,116l146,146" stroke-linecap="round" stroke="#000000" stroke-width="20.0" id="path_2"/></svg>