<svg id="vector" xmlns="http://www.w3.org/2000/svg" width="24.0d" height="24.0d" viewBox="0 0 512.0 512.0"><path fill="#d7aa8b" d="m504,346c0,55 -92,70 -206,70s-206,-15 -206,-71c-0,-55 92,-100 206,-100s206,45 206,101z" stroke="#000000" stroke-width="12.0" id="path_0"/><path fill="#c6855b" d="m178,306c2,10 2,20 1,31 -1,10 6,20 17,21 0,0 1,0 2,0 9,0 18,-7 19,-17 1,-14 0,-28 -2,-42 -3,-15 -8,-30 -15,-42 -13,3 -26,7 -37,12 6,10 12,22 14,37z" stroke="#000000" stroke-width="12.0" id="path_1"/><path fill="#c6855b" d="m297,245c-16,-0 -31,1 -47,2 12,13 26,32 31,58 2,10 2,20 1,31 -1,10 6,20 17,21 0,0 1,0 2,0 9,0 18,-7 19,-17 1,-14 0,-28 -2,-42 -4,-21 -12,-39 -22,-53z" stroke="#000000" stroke-width="12.0" id="path_2"/><path fill="#c6855b" d="m382,306c1,10 1,21 0,31 -1,10 5,20 16,22 0,0 1,0 1,0 9,0 18,-6 19,-16 2,-14 2,-28 -0,-42 -2,-14 -6,-28 -11,-39 -16,-5 -33,-9 -52,-11 11,13 22,32 26,57z" stroke="#000000" stroke-width="12.0" id="path_3"/><path fill="#c6855b" d="m316,111c39,39 -15,115 -96,195s-157,135 -196,96 -5,-136 75,-217c80,-80 178,-114 217,-74z" stroke="#000000" stroke-width="12.0" id="path_4"/><path fill="#f2d59c" d="m58,313c8,5 16,13 23,21 6,8 19,9 27,2 0,-0 1,-0 1,-1 7,-7 7,-18 1,-26 -9,-11 -19,-20 -31,-28 -13,-9 -27,-15 -40,-19 -7,12 -13,23 -17,35 12,2 24,7 36,16z" stroke="#000000" stroke-width="12.0" id="path_5"/><path fill="#f2d59c" d="m98,186c-11,11 -22,23 -31,35 18,0 41,4 63,19 8,5 16,13 23,21 6,8 19,9 27,2 0,-0 1,-0 1,-1 7,-7 7,-18 1,-26 -9,-11 -19,-20 -31,-28 -17,-12 -36,-18 -53,-22z" stroke-linejoin="round" stroke="#000000" stroke-width="12.0" id="path_6"/><path fill="#f2d59c" d="m202,169c8,6 16,13 22,22 6,8 18,10 27,4 0,-0 1,-0 1,-1 7,-6 8,-17 2,-25 -8,-11 -19,-21 -30,-30 -12,-8 -24,-15 -36,-19 -15,7 -30,17 -45,28 17,1 39,7 59,21z" stroke="#000000" stroke-width="12.0" id="path_7"/></svg>