<svg id="vector" xmlns="http://www.w3.org/2000/svg" width="24.0d" height="24.0d" viewBox="0 0 512.0 512.0"><path fill="#ffffff" d="m478,270v-28c0,-32 -8,-63 -24,-92 -9,-17 -16,-36 -20,-56l-8,-43 -174,-20 -24,85c-16,57 -59,104 -116,124l-30,10c-41,15 -69,54 -69,98v0h167c23,0 46,-8 64,-22l42,-33c19,-15 43,-23 67,-23h125" stroke="#000000" stroke-width="12.0" id="path_0"/><path fill="#98eaf9" d="m274,128 l25,-90 0,-1 -50,-7 -24,85c-16,57 -59,104 -116,124l-30,10c-3,1 -7,3 -11,4l0,3 9,12c12,15 32,21 50,14 71,-25 125,-84 146,-156z" stroke="#000000" stroke-width="12.0" id="path_1"/><path fill="#98eaf9" d="m177,393h-123c-24,0 -44,-19 -44,-44h167c23,0 46,-8 64,-22l42,-33c19,-15 43,-23 67,-23h125v44h-125c-14,0 -28,5 -40,14l-42,33c-26,20 -58,32 -92,32z" stroke="#000000" stroke-width="12.0" id="path_2"/><path fill="#98eaf9" d="m353,314h124v79h-124z" stroke="#000000" stroke-width="12.0" id="path_3"/><path fill="#e2e9ee" d="m34,394 l-0,51h20v18h20v18h29,397c0,-26 -21,-48 -48,-48 -9,0 -17,-7 -17,-16v-23h-40v23c0,9 -7,17 -17,16h-161c-9,0 -17,-7 -17,-16v-23h-40v23c0,9 -7,17 -17,16h-28c-20,0 -36,-19 -30,-40z" stroke="#000000" stroke-width="12.0" id="path_4"/></svg>