<svg id="vector" xmlns="http://www.w3.org/2000/svg" width="24.0d" height="24.0d" viewBox="0 0 512.0 512.0"><path fill="#eb914b" d="M87,52L21,69c-6,1 -10,7 -10,13c0,7 6,13 13,13h73L87,52z" stroke="#000000" stroke-width="12.0" id="path_0"/><path fill="#bee86e" d="M475,408c8,0 16,0 25,0c0,0 -64,-192 -312,-208V63c0,-31 -25,-56 -56,-56S75,32 75,63c0,26 21,48 48,48h8c0,72 -64,104 -64,168s56,160 280,160H484c0,0 -1,-12 -8,-32L475,408z" stroke="#000000" stroke-width="12.0" id="path_1"/><path fill="#af6e5a" d="M348,440H484c0,0 -1,-12 -8,-32l-0,-0c8,0 16,0 25,0c0,0 -64,-192 -312,-208v-29c-31,-1 -53,-10 -64,-16c-17,45 -56,76 -56,126C67,344 123,440 348,440z" stroke="#000000" stroke-width="12.0" id="path_2"/><path fill="#ebc9a0" d="M475,408l-0,-0c8,0 16,0 25,0c0,0 -63,-191 -310,-208c-19,6 -62,48 -62,48c-22,53 -12,155 106,181c12,2 26,5 40,7c22,2 46,4 73,3H484C484,440 483,428 475,408z" stroke="#000000" stroke-width="12.0" id="path_3"/><path fill="#965a50" d="M187,199c248,16 312,208 312,208c-392,0 -368,-160 -368,-160C131,224 154,199 187,199z" stroke="#000000" stroke-width="12.0" id="path_4"/><path fill="#ffffff" d="M123,71L123,71c-8,0 -16,-7 -16,-16l0,0c0,-8 7,-16 16,-16l0,0c8,0 16,7 16,16l0,0C139,64 132,71 123,71z" stroke="#000000" stroke-width="12.0" id="path_5"/><path fill="none" d="M240,440v60 M270,440v60 M170,500h120" stroke-linecap="round" stroke="#000000" stroke-width="16.0" id="path_6"/></svg>