<svg width="100" height="100" viewBox="0 0 100 100" fill="none" xmlns="http://www.w3.org/2000/svg">
<g clip-path="url(#clip0_8_44)">
<path d="M0 11C33 11 66 11 100 11C100 36.74 100 62.48 100 89C67 89 34 89 0 89C0 63.26 0 37.52 0 11Z" fill="#FEFEFE"/>
<path d="M40.3885 29.3195C40.6438 29.3196 40.6438 29.3196 40.9042 29.3197C42.6245 29.3277 44.2814 29.4268 45.9628 29.8036C46.1037 29.8342 46.2446 29.8649 46.3898 29.8964C47.3274 30.1021 48.2645 30.3088 49.1892 30.5679C49.3214 30.6049 49.4536 30.6419 49.5898 30.6799C51.6683 31.2923 53.863 32.0705 55.6757 33.2857C55.5035 33.736 55.3094 34.1594 55.0845 34.5852C54.5804 35.5929 54.012 36.7581 54.1892 37.9059C54.5053 38.174 54.7502 38.3393 55.1098 38.5259C55.2027 38.5779 55.2957 38.6298 55.3914 38.6833C55.6647 38.8352 55.9401 38.9823 56.2162 39.1289C56.4612 39.2648 56.7061 39.4006 56.951 39.5366C57.0707 39.6014 57.1904 39.6662 57.3137 39.733C58.6883 40.4795 60.037 41.2671 61.3789 42.0715C63.0721 43.0863 64.7805 44.0692 66.5059 45.028C66.8672 45.2301 67.2263 45.4354 67.585 45.642C69.2017 46.567 70.8663 47.337 72.5791 48.0652C72.9456 48.2217 73.3102 48.3819 73.6745 48.5434C73.8798 48.6328 74.0851 48.7219 74.2905 48.811C74.3814 48.8517 74.4723 48.8925 74.5659 48.9345C75.0952 49.1588 75.3973 49.2061 75.9459 49.0488C77.3055 48.2988 78.6276 47.2425 79.4594 45.9233C79.5961 45.7095 79.5961 45.7095 79.7355 45.4913C80.2087 44.7298 80.6439 43.9501 81.061 43.1562C82.5293 40.3651 84.203 37.7181 87.3752 36.7079C88.4145 36.4156 89.3811 36.3571 90.4561 36.3772C90.6095 36.3779 90.763 36.3786 90.9211 36.3793C91.6223 36.3859 92.282 36.4185 92.973 36.547C92.7992 37.0322 92.5932 37.3973 92.2804 37.804C90.6761 40.0807 90.1825 42.5151 89.9701 45.2461C89.7574 47.8 88.8564 50.1434 86.8919 51.8515C86.6912 52.0112 86.6912 52.0112 86.4865 52.1742C86.6161 52.3003 86.6161 52.3003 86.7483 52.429C86.8865 52.5703 87.0244 52.7119 87.1622 52.8537C87.2538 52.9447 87.3454 53.0358 87.4398 53.1297C88.0648 53.7821 88.5473 54.4449 88.9696 55.2402C89.013 55.3218 89.0564 55.4034 89.1012 55.4875C89.6833 56.6328 89.9611 57.8328 90.2111 59.0875C90.2393 59.2251 90.2674 59.3626 90.2964 59.5042C90.4329 60.1763 90.5614 60.8488 90.6788 61.5245C91.0748 63.7296 92.0736 65.6013 93.3784 67.3937C93.3338 67.4834 93.2892 67.5731 93.2432 67.6655C92.7854 67.7398 92.3543 67.7784 91.8919 67.8014C91.7993 67.806 91.7067 67.8106 91.6113 67.8154C88.5729 67.9459 86.339 67.1822 84.054 65.0836C82.7782 63.8193 81.8551 62.2629 80.9203 60.7397C80.3398 59.8008 79.7103 58.904 79.054 58.0174C78.9885 57.9244 78.923 57.8314 78.8556 57.7356C78.3062 57.013 77.5411 56.5419 76.8058 56.029C76.169 55.5832 75.5698 55.1399 75.1351 54.4843C73.563 54.5811 72.0657 55.2732 70.6165 55.8517C70.5047 55.8963 70.3928 55.9409 70.2775 55.9868C69.778 56.1895 69.2905 56.3991 68.8128 56.6495C68.3653 56.8803 67.9101 57.0631 67.4393 57.2408C66.4491 57.6167 65.4868 58.0455 64.5218 58.4816C63.9886 58.7225 63.4546 58.9617 62.9207 59.2011C62.8123 59.2498 62.7038 59.2985 62.5921 59.3487C57.4607 61.6526 57.4607 61.6526 55.3574 62.4492C54.8929 62.6269 54.4354 62.816 53.978 63.0113C53.3364 63.284 52.691 63.5133 52.027 63.7247C53.3055 64.3642 54.665 64.7684 56.0811 64.9477C56.1771 65.8171 55.9918 66.3078 55.5532 67.0551C54.8448 67.903 53.9105 68.3865 52.9223 68.8375C52.8089 68.8903 52.6955 68.9431 52.5786 68.9974C50.0414 70.1695 47.1025 71.3869 44.3074 70.3748C42.7479 69.6582 41.7089 68.5205 40.9459 66.9861C40.1434 66.9576 39.3635 66.9725 38.5671 67.0835C32.9641 67.8491 27.0048 66.9358 21.9088 64.4711C21.5814 64.3139 21.2537 64.1672 20.9206 64.0231C18.7604 63.0609 16.7478 61.753 14.8649 60.3275C14.7837 60.267 14.7025 60.2065 14.6189 60.1442C13.6401 59.4123 12.725 58.6243 11.8328 57.7881C11.7449 57.7058 11.657 57.6235 11.5664 57.5387C9.63415 55.6965 6.74252 52.6715 6.53716 49.8726C6.63847 47.6991 8.97503 45.5951 10.4054 44.1568C10.6879 43.8319 10.9688 43.5058 11.2474 43.1774C11.3263 43.097 11.4052 43.0166 11.4865 42.9338C11.5757 42.9338 11.6649 42.9338 11.7567 42.9338C11.7912 42.8534 11.8257 42.773 11.8613 42.6902C12.044 42.3595 12.2291 42.1817 12.5169 41.9401C12.6601 41.8187 12.6601 41.8187 12.8062 41.6949C12.9058 41.6104 13.0054 41.526 13.1081 41.439C13.394 41.1807 13.6795 40.922 13.9643 40.6624C14.1892 40.4878 14.1892 40.4878 14.4595 40.4878C14.4595 40.3981 14.4595 40.3084 14.4595 40.216C14.7638 39.96 15.0691 39.7214 15.3885 39.4856C15.4848 39.4139 15.581 39.3421 15.6802 39.2682C16.7785 38.4575 17.9094 37.6972 19.054 36.9547C19.2411 36.8333 19.2411 36.8333 19.432 36.7095C21.0429 35.7038 22.7813 34.9412 24.5307 34.2178C25.4862 33.8206 26.4141 33.394 27.33 32.9113C29.7533 31.6439 32.3333 30.6352 35 30.0244C35.15 29.9874 35.3 29.9505 35.4545 29.9124C35.888 29.8074 36.3198 29.7063 36.7567 29.6167C36.8701 29.5932 36.9835 29.5698 37.1003 29.5456C38.2019 29.3369 39.2697 29.3086 40.3885 29.3195Z" fill="#8CAFCA"/>
<path d="M40.3885 29.3195C40.6438 29.3196 40.6438 29.3196 40.9042 29.3197C42.6246 29.3277 44.2815 29.4268 45.9628 29.8036C46.1037 29.8342 46.2446 29.8649 46.3898 29.8964C47.3275 30.102 48.2645 30.3088 49.1892 30.5679C49.3214 30.6049 49.4536 30.6419 49.5898 30.6799C51.6684 31.2922 53.863 32.0705 55.6757 33.2857C55.5035 33.736 55.3094 34.1594 55.0845 34.5851C54.5804 35.5929 54.012 36.7581 54.1892 37.9059C54.5053 38.174 54.7502 38.3393 55.1098 38.5259C55.2027 38.5779 55.2957 38.6298 55.3915 38.6833C55.6647 38.8352 55.9401 38.9823 56.2162 39.1289C56.4612 39.2648 56.7061 39.4006 56.951 39.5366C57.0707 39.6014 57.1904 39.6662 57.3137 39.733C58.6883 40.4795 60.037 41.2671 61.3789 42.0715C63.0721 43.0863 64.7806 44.0692 66.506 45.028C66.8672 45.2301 67.2264 45.4353 67.585 45.642C68.9854 46.4426 70.412 47.1258 71.8974 47.7542C72.1045 47.8425 72.1045 47.8425 72.3158 47.9325C72.4394 47.9842 72.563 48.0358 72.6904 48.0891C72.973 48.2334 72.973 48.2334 73.1081 48.5052C72.1023 48.5455 71.2013 48.3947 70.2196 48.1825C69.9314 48.1219 69.6432 48.0613 69.3549 48.001C69.2147 47.9712 69.0744 47.9415 68.9299 47.9109C68.5267 47.8285 68.1228 47.7547 67.7175 47.6835C67.1866 47.5881 66.6794 47.4668 66.1655 47.2992C66.018 47.2517 65.8705 47.2043 65.7184 47.1554C65.5705 47.1075 65.4227 47.0597 65.2703 47.0105C64.9804 46.9225 64.6904 46.8347 64.4003 46.7472C63.4627 46.4579 62.5425 46.1262 61.6216 45.7875C61.6216 45.6978 61.6216 45.6081 61.6216 45.5157C61.5326 45.5017 61.4436 45.4877 61.3519 45.4732C60.8333 45.3539 60.3495 45.1694 59.8564 44.9721C59.7433 44.9269 59.6302 44.8818 59.5136 44.8352C58.0427 44.2312 56.6145 43.5293 55.1853 42.8327C53.7968 42.1595 52.3899 41.5729 50.946 41.0314C50.7523 40.9581 50.5587 40.8848 50.3651 40.8116C49.0945 40.3343 47.8312 39.9151 46.5044 39.6289C46.235 39.5702 45.9666 39.5063 45.7 39.4357C40.0264 37.96 33.6216 38.6158 28.0004 39.9901C27.3153 40.1572 26.6473 40.2778 25.9459 40.3519C26.0177 40.4982 26.0895 40.6444 26.1634 40.7951C26.7386 41.9832 27.2487 43.1416 27.5676 44.4286C27.592 44.5199 27.6163 44.6112 27.6415 44.7053C28.0312 46.1926 28.1568 47.6303 28.1588 49.1677C28.159 49.329 28.1592 49.4903 28.1594 49.6566C28.1376 51.4121 27.862 53.0626 27.3818 54.7476C27.3424 54.8931 27.303 55.0386 27.2625 55.1884C27.0403 55.9807 26.7864 56.6414 26.3514 57.338C26.2486 57.6464 26.2486 57.6464 26.2162 57.8815C26.127 57.8815 26.0378 57.8815 25.9459 57.8815C25.9297 58.0192 25.9297 58.0192 25.9132 58.1597C25.781 58.6777 25.5299 59.0954 25.2534 59.5462C25.1987 59.6364 25.1441 59.7266 25.0877 59.8195C24.6533 60.526 24.1821 61.1875 23.6487 61.8223C23.5305 61.9634 23.5305 61.9634 23.4101 62.1073C23.221 62.3308 23.0297 62.5524 22.8378 62.7735C22.7932 62.6838 22.7487 62.5941 22.7027 62.5017C22.8679 62.2008 22.8679 62.2008 23.1166 61.8308C24.1552 60.2291 24.8677 58.5764 25.5405 56.7944C25.5753 56.7054 25.61 56.6165 25.6458 56.5248C26.5892 54.0953 26.8069 51.5654 26.8159 48.9808C26.8171 48.8276 26.8171 48.8276 26.8184 48.6714C26.8396 44.6449 25.4483 40.9541 23.3446 37.5662C23.2468 37.4068 23.2468 37.4068 23.1469 37.2441C22.7458 36.6161 22.3366 36.194 21.7568 35.7317C21.7568 35.642 21.7568 35.5523 21.7568 35.4599C22.8614 34.9183 23.9577 34.3917 25.1182 33.9821C25.9296 33.6927 26.6698 33.3285 27.424 32.912C30.333 31.3162 33.5101 30.2508 36.7568 29.6167C36.8769 29.592 36.997 29.5673 37.1208 29.5419C38.215 29.3345 39.2772 29.3087 40.3885 29.3195Z" fill="#6195B5"/>
<path d="M22 35C22.0669 35.1345 22.0669 35.1345 22.1351 35.2718C22.2603 35.333 22.2603 35.333 22.388 35.3955C24.449 36.4564 25.9008 40.8084 26.5946 42.8815C27.8552 46.9899 27.8617 52.6991 25.9189 56.6063C25.7122 56.7249 25.5 56.834 25.2855 56.9375C25.1707 56.9934 25.0559 57.0493 24.9376 57.1068C24.7544 57.1954 24.7544 57.1954 24.5676 57.2857C24.451 57.3589 24.3345 57.4322 24.2144 57.5076C23.5454 57.7792 22.9177 57.7596 22.2027 57.7528C22.058 57.7522 21.9133 57.7516 21.7643 57.7509C20.7914 57.7327 19.9602 57.6244 19.0402 57.2953C18.7034 57.1783 18.396 57.0986 18.0489 57.0277C17.345 56.8764 16.6897 56.6311 16.0203 56.3685C15.8959 56.3201 15.7716 56.2718 15.6434 56.222C14.0214 55.585 12.4557 54.8533 10.9664 53.9411C10.6516 53.7423 10.6516 53.7423 10.2939 53.6167C9.95355 53.4726 9.82501 53.3321 9.56757 53.0732C9.37082 52.93 9.17067 52.7915 8.96791 52.657C8.86495 52.5882 8.762 52.5193 8.65593 52.4484C8.36486 52.2523 8.36486 52.2523 8.07 52.1522C7.44279 51.7502 7.22685 50.7702 7 50.0836C6.79308 49.1158 7.06601 48.4404 7.56324 47.609C8.50337 46.1697 9.57431 44.9131 10.7838 43.6969C11.0663 43.3719 11.3472 43.0458 11.6257 42.7175C11.7047 42.6371 11.7836 42.5567 11.8649 42.4739C11.9541 42.4739 12.0432 42.4739 12.1351 42.4739C12.1696 42.3935 12.2041 42.3131 12.2397 42.2302C12.4224 41.8996 12.6075 41.7217 12.8953 41.4802C12.9907 41.3993 13.0862 41.3183 13.1845 41.2349C13.2842 41.1505 13.3838 41.0661 13.4865 40.9791C13.7724 40.7208 14.0579 40.4621 14.3427 40.2025C14.5676 40.0279 14.5676 40.0279 14.8378 40.0279C14.8378 39.9382 14.8378 39.8485 14.8378 39.7561C15.1422 39.5001 15.4475 39.2615 15.7669 39.0257C15.8632 38.9539 15.9594 38.8822 16.0586 38.8083C17.957 37.4069 19.9332 36.1345 22 35Z" fill="#A9BFD7"/>
<path d="M90.4561 36.3772C90.6095 36.3779 90.763 36.3786 90.9211 36.3793C91.6223 36.3859 92.282 36.4185 92.973 36.547C92.7992 37.0322 92.5932 37.3973 92.2804 37.804C90.6761 40.0807 90.1825 42.5151 89.9701 45.2461C89.7574 47.8 88.8564 50.1434 86.8919 51.8515C86.7581 51.958 86.6243 52.0645 86.4865 52.1742C86.5729 52.2583 86.6593 52.3424 86.7483 52.429C86.8865 52.5703 87.0244 52.7119 87.1622 52.8537C87.2538 52.9447 87.3454 53.0358 87.4398 53.1297C88.0648 53.7821 88.5473 54.4449 88.9696 55.2402C89.013 55.3218 89.0564 55.4034 89.1012 55.4875C89.6833 56.6328 89.9611 57.8327 90.2111 59.0875C90.2393 59.225 90.2674 59.3626 90.2964 59.5042C90.4329 60.1763 90.5614 60.8488 90.6788 61.5245C91.0748 63.7295 92.0736 65.6013 93.3784 67.3937C93.3338 67.4834 93.2892 67.5731 93.2432 67.6655C92.7854 67.7398 92.3543 67.7784 91.8919 67.8014C91.7993 67.806 91.7067 67.8106 91.6113 67.8154C88.5729 67.9459 86.339 67.1822 84.054 65.0836C82.7782 63.8193 81.8552 62.2629 80.9203 60.7397C80.3398 59.8008 79.7104 58.904 79.054 58.0174C78.9885 57.9244 78.9231 57.8314 78.8556 57.7356C78.3062 57.013 77.5407 56.5421 76.8064 56.0279C75.4519 55.0786 75.4519 55.0786 75.3151 54.5294C75.3003 54.4249 75.2855 54.3203 75.2703 54.2125C75.4317 54.1361 75.4317 54.1361 75.5965 54.0581C76.7114 53.5166 77.6498 53.0501 78.2432 51.9024C78.3446 51.4152 78.3446 51.4152 78.2432 50.9512C77.764 50.4997 77.2258 50.2038 76.647 49.8981C76.49 49.8147 76.333 49.7313 76.1713 49.6454C76.0524 49.5831 75.9334 49.5207 75.8108 49.4564C75.966 48.9882 76.0582 48.9351 76.4532 48.6703C76.5571 48.5989 76.6609 48.5276 76.7679 48.4541C76.8785 48.3785 76.9891 48.3029 77.103 48.225C78.0542 47.5515 78.8297 46.922 79.4595 45.9233C79.5506 45.7808 79.6417 45.6382 79.7355 45.4913C80.2087 44.7298 80.6439 43.95 81.061 43.1562C82.5293 40.3651 84.203 37.7181 87.3752 36.7079C88.4145 36.4156 89.3811 36.3571 90.4561 36.3772Z" fill="#5E94B4"/>
<path d="M43.1229 59.5663C43.4474 59.7471 43.6924 59.8581 44.0541 59.9199C44.0541 60.0095 44.0541 60.0992 44.0541 60.1916C44.2018 60.2056 44.3495 60.2197 44.5017 60.2341C45.0324 60.3336 45.0629 60.3745 45.4054 60.7352C45.6476 60.8776 45.6476 60.8776 45.9143 60.9937C46.0614 61.0616 46.0614 61.0616 46.2115 61.1309C46.3643 61.1999 46.3643 61.1999 46.5203 61.2702C47.2529 61.6039 47.9558 61.9544 48.6486 62.3658C48.851 62.4854 49.0536 62.6044 49.2568 62.7226C49.3968 62.8051 49.3968 62.8051 49.5397 62.8892C49.8656 63.0457 50.1874 63.1403 50.5353 63.2345C51.1013 63.4041 51.6465 63.6355 52.1959 63.8521C53.4712 64.3473 54.7158 64.7952 56.0811 64.9477C56.1771 65.817 55.9918 66.3077 55.5532 67.0551C54.8448 67.903 53.9105 68.3865 52.9223 68.8375C52.8089 68.8903 52.6955 68.9431 52.5786 68.9974C50.0414 70.1694 47.1026 71.3869 44.3074 70.3748C42.0572 69.3408 40.7224 67.0921 39.8733 64.8203C39.2601 63.2007 38.3715 61.5917 36.8296 60.741C36.761 60.6943 36.6923 60.6475 36.6216 60.5993C36.6216 60.5096 36.6216 60.4199 36.6216 60.3275C36.4878 60.2827 36.3541 60.2378 36.2162 60.1916C35.9705 59.8581 35.9456 59.6663 35.9544 59.2489C36.1514 58.6018 36.5556 58.2949 37.0946 57.9155C39.0778 56.9184 41.4435 58.5492 43.1229 59.5663Z" fill="#317AA0"/>
<path d="M92.973 36.8188C92.9172 36.8933 92.8615 36.9677 92.804 37.0444C91.0925 39.407 90.22 41.8772 90.0169 44.7938C89.7938 47.5164 89.0102 50.0097 86.8919 51.8515C86.7581 51.958 86.6243 52.0645 86.4865 52.1742C86.5729 52.2583 86.6593 52.3424 86.7483 52.429C86.8865 52.5703 87.0244 52.7119 87.1622 52.8537C87.2538 52.9447 87.3454 53.0358 87.4398 53.1297C88.0648 53.7821 88.5473 54.4449 88.9696 55.2402C89.013 55.3218 89.0564 55.4034 89.1012 55.4875C89.6833 56.6328 89.9611 57.8327 90.2111 59.0875C90.2393 59.2251 90.2674 59.3626 90.2964 59.5042C90.4329 60.1763 90.5614 60.8488 90.6788 61.5245C91.0748 63.7296 92.0736 65.6013 93.3784 67.3937C93.3338 67.4834 93.2892 67.5731 93.2432 67.6655C92.7854 67.7398 92.3543 67.7784 91.8919 67.8014C91.7993 67.806 91.7067 67.8106 91.6113 67.8154C88.5729 67.9459 86.339 67.1822 84.054 65.0836C82.7782 63.8193 81.8552 62.2629 80.9203 60.7397C80.3398 59.8008 79.7104 58.904 79.054 58.0174C78.9885 57.9244 78.9231 57.8314 78.8556 57.7356C78.3062 57.013 77.5407 56.5421 76.8064 56.0279C75.4519 55.0786 75.4519 55.0786 75.3151 54.5294C75.3003 54.4249 75.2855 54.3203 75.2703 54.2125C75.4317 54.1361 75.4317 54.1361 75.5965 54.0581C76.7114 53.5166 77.6498 53.0501 78.2432 51.9024C78.3446 51.4152 78.3446 51.4152 78.2432 50.9512C77.764 50.4997 77.2258 50.2038 76.647 49.8981C76.49 49.8147 76.333 49.7313 76.1713 49.6454C76.0524 49.5831 75.9334 49.5207 75.8108 49.4564C75.966 48.9882 76.0582 48.9351 76.4532 48.6703C76.5571 48.599 76.6609 48.5276 76.7679 48.4541C76.8785 48.3785 76.9891 48.3029 77.103 48.225C78.0542 47.5516 78.8297 46.9221 79.4595 45.9233C79.5506 45.7808 79.6417 45.6382 79.7355 45.4913C80.2914 44.5969 80.7902 43.6737 81.2842 42.7437C82.9069 39.6946 82.9069 39.6946 83.7838 39.4007C83.6993 40.0295 83.6993 40.0295 83.4607 40.268C82.4013 41.3386 81.8816 43.3674 81.7092 44.8325C81.4767 46.7927 80.9988 49.0931 79.7846 50.6911C79.5542 51.0065 79.49 51.2422 79.4595 51.6307C79.5486 51.7203 79.6378 51.81 79.7297 51.9024C79.7297 52.037 79.7297 52.1715 79.7297 52.3101C79.8189 52.3101 79.9081 52.3101 80 52.3101C80.3278 53.3509 80.5841 54.3739 80.7517 55.4525C80.965 56.8178 81.2403 58.1071 81.7879 59.3816C81.8919 59.6481 81.8919 59.6481 81.8919 59.9199C81.9811 59.9199 82.0703 59.9199 82.1622 59.9199C82.1953 59.9959 82.2284 60.0719 82.2625 60.1502C83.3679 62.5344 85.4243 65.2567 87.8616 66.3661C88.5844 66.6267 89.233 66.7981 90 66.7143C90.0892 66.6694 90.1784 66.6246 90.2703 66.5784C90.1868 66.491 90.1034 66.4036 90.0174 66.3135C88.8035 65.0111 87.8488 63.6046 86.9695 62.0506C86.6998 61.5889 86.4004 61.1633 86.0811 60.7352C86.1257 60.6455 86.1703 60.5558 86.2162 60.4634C87.1603 61.1534 88.0557 61.8576 88.911 62.6583C89.1978 62.9292 89.1978 62.9292 89.5946 63.1812C89.4653 62.7708 89.3304 62.3645 89.1892 61.9582C89.1463 61.8321 89.1035 61.7059 89.0593 61.576C88.2822 59.492 86.6631 57.779 84.8649 56.5226C84.954 56.4778 85.0432 56.433 85.1351 56.3868C85.2039 56.4333 85.2726 56.4799 85.3434 56.5278C85.6595 56.7416 85.9758 56.9549 86.2922 57.1681C86.4003 57.2413 86.5084 57.3146 86.6198 57.39C87.2387 57.8066 87.8616 58.1985 88.5135 58.561C87.9311 57.3336 87.3333 56.1749 86.5498 55.0629C86.3513 54.7561 86.3513 54.7561 86.3513 54.4843C86.2176 54.4395 86.0838 54.3946 85.9459 54.3484C85.7221 54.0857 85.7221 54.0857 85.473 53.7454C84.944 53.0585 84.353 52.4925 83.7051 51.92C83.4509 51.6949 83.2083 51.4676 82.973 51.223C83.1543 51.2007 83.1543 51.2007 83.3393 51.1779C84.6408 51.0063 85.7594 50.8192 86.8919 50.1359C86.223 50.091 85.554 50.0462 84.8649 50C85.0474 49.633 85.2362 49.609 85.6081 49.448C86.7296 48.9002 87.7804 47.8489 88.3784 46.7387C88.4703 46.3111 88.4703 46.3111 88.5135 45.9233C88.3832 45.9936 88.2529 46.0638 88.1187 46.1362C87.9463 46.2267 87.7738 46.3171 87.6013 46.4074C87.5156 46.454 87.4299 46.5005 87.3416 46.5484C86.6958 46.8832 86.6958 46.8832 86.2901 46.8358C86.2211 46.8038 86.1521 46.7717 86.0811 46.7387C86.2065 46.6266 86.3319 46.5145 86.4611 46.399C86.976 45.8823 87.3843 45.3091 87.7956 44.7088C87.8582 44.6181 87.9208 44.5274 87.9853 44.4339C88.398 43.8215 88.7396 43.1943 89.054 42.5261C89.1265 42.3776 89.199 42.229 89.2736 42.076C89.5159 41.4228 89.6247 40.7674 89.7297 40.0801C89.6405 40.0801 89.5513 40.0801 89.4595 40.0801C89.4595 40.1698 89.4595 40.2595 89.4595 40.3519C89.0613 40.6663 88.6217 40.9233 88.1926 41.1927C88.0123 41.3093 88.0123 41.3093 87.8283 41.4281C87.7134 41.5009 87.5984 41.5737 87.4799 41.6487C87.3738 41.716 87.2676 41.7833 87.1583 41.8526C87.0264 41.917 87.0264 41.917 86.8919 41.9826C86.8027 41.9377 86.7135 41.8929 86.6216 41.8467C86.7179 41.7514 86.8143 41.6561 86.9135 41.5579C87.5796 40.8957 88.2263 40.2291 88.8371 39.5143C89.5495 38.695 91.7662 36.2121 92.973 36.8188Z" fill="#327AA1"/>
<path d="M43.1229 59.5663C43.4474 59.7471 43.6924 59.8581 44.0541 59.9199C44.0541 60.0095 44.0541 60.0992 44.0541 60.1916C44.2018 60.2057 44.3495 60.2197 44.5017 60.2341C45.0324 60.3336 45.0629 60.3745 45.4054 60.7352C45.6476 60.8776 45.6476 60.8776 45.9143 60.9937C46.0614 61.0616 46.0614 61.0616 46.2115 61.1309C46.3643 61.1999 46.3643 61.1999 46.5203 61.2703C47.2529 61.6039 47.9558 61.9544 48.6487 62.3659C48.851 62.4854 49.0536 62.6044 49.2568 62.7226C49.3968 62.8051 49.3968 62.8051 49.5397 62.8892C49.8646 63.0452 50.1849 63.1395 50.5317 63.2333C51.2452 63.4474 51.934 63.7458 52.6267 64.0191C52.7483 64.0665 52.8699 64.1138 52.9951 64.1627C53.1045 64.2058 53.2138 64.2489 53.3265 64.2933C53.657 64.407 53.9807 64.4789 54.3243 64.5401C53.787 64.909 53.2245 64.8423 52.6014 64.8288C52.4942 64.8276 52.3871 64.8264 52.2767 64.8251C52.0133 64.8219 51.7499 64.8171 51.4865 64.8118C51.4865 64.7222 51.4865 64.6325 51.4865 64.5401C51.3248 64.5261 51.1632 64.512 50.9966 64.4976C50.4623 64.432 50.0668 64.2616 49.5946 63.9965C49.3939 63.9293 49.3939 63.9293 49.1892 63.8606C49.2531 63.9151 49.3171 63.9696 49.3829 64.0257C50.1192 64.6622 50.8072 65.3376 51.4865 66.0348C50.743 66.2841 50.0101 65.804 49.3243 65.4913C48.2975 64.9388 46.7351 64.0671 46.3514 62.9094C46.2622 62.9094 46.173 62.9094 46.0811 62.9094C46.1482 63 46.2152 63.0905 46.2843 63.1838C46.8512 63.9572 47.3859 64.7397 47.8864 65.5582C48.1083 65.9124 48.1083 65.9124 48.4058 66.2652C48.6487 66.5784 48.6487 66.5784 48.6487 66.8502C48.247 66.6974 47.9278 66.5481 47.5676 66.3066C47.5676 66.2169 47.5676 66.1272 47.5676 66.0348C47.4677 65.9985 47.3679 65.9622 47.265 65.9248C46.901 65.767 46.6385 65.5954 46.3281 65.3501C46.1768 65.2319 46.1768 65.2319 46.0225 65.1112C45.9192 65.0292 45.8159 64.9473 45.7095 64.8628C45.502 64.6994 45.2944 64.5362 45.0866 64.3734C44.9953 64.3011 44.9041 64.2288 44.8101 64.1544C44.6208 63.9832 44.6208 63.9832 44.4595 63.9965C44.5168 64.0725 44.5741 64.1486 44.6331 64.2269C45.1336 64.9149 45.5637 65.6153 45.946 66.3746C45.9885 66.4576 46.031 66.5407 46.0748 66.6262C46.176 66.8325 46.2648 67.0449 46.3514 67.2578C46.3068 67.3475 46.2622 67.4372 46.2162 67.5296C46.1493 67.4371 46.0824 67.3446 46.0135 67.2493C45.7385 66.9244 45.4815 66.6733 45.1605 66.4C44.1179 65.5006 43.2947 64.3866 42.4324 63.3171C42.4831 63.3978 42.5338 63.4786 42.586 63.5618C43.5918 65.1999 44.3856 66.985 44.7297 68.8885C44.6405 68.8885 44.5514 68.8885 44.4595 68.8885C44.27 68.6449 44.27 68.6449 44.0625 68.3195C43.9944 68.2138 43.9263 68.1082 43.8561 67.9994C43.7236 67.7862 43.594 67.5711 43.4681 67.3539C43.1586 66.8475 42.817 66.3663 42.4747 65.882C42.4022 65.7791 42.3298 65.6762 42.2552 65.5702C41.7756 64.8904 41.2902 64.2152 40.7992 63.5437C40.5093 63.1373 40.2346 62.7219 39.9578 62.3064C38.5293 60.211 38.5293 60.211 36.4274 58.9941C36.3131 58.9857 36.1988 58.9773 36.0811 58.9686C36.3552 58.3056 36.8183 58.067 37.4324 57.7456C39.3046 57.0521 41.5778 58.6305 43.1229 59.5663Z" fill="#5E94B4"/>
<path d="M81.2162 55.2997C81.6216 55.4355 81.6216 55.4355 81.8177 55.7739C81.9192 55.9971 81.9192 55.9971 82.0228 56.2249C82.1 56.3915 82.1772 56.5581 82.2545 56.7247C82.2945 56.8124 82.3345 56.9001 82.3758 56.9904C83.1458 58.6716 83.9745 60.2817 85 61.8223C85.0939 61.9649 85.1878 62.1075 85.2845 62.2544C85.9091 63.1595 86.6405 63.9178 87.4324 64.676C87.568 64.8114 87.7034 64.9471 87.8378 65.0836C87.7837 65.0256 87.7295 64.9677 87.6737 64.9079C86.6445 63.7697 85.7985 62.5274 85.1351 61.1429C85.0453 60.9615 84.9552 60.7803 84.8649 60.5993C84.4144 59.6934 83.964 58.7875 83.5135 57.8815C83.9776 57.8815 84.0421 57.9411 84.3919 58.2213C84.8539 58.5831 85.3205 58.9362 85.7939 59.2829C85.919 59.3748 86.0441 59.4668 86.1729 59.5616C86.4704 59.7844 86.4704 59.7844 86.7567 59.9199C86.7567 60.1889 86.7567 60.458 86.7567 60.7352C86.5338 60.6455 86.3108 60.5558 86.0811 60.4634C86.1233 60.5284 86.1655 60.5934 86.209 60.6604C86.4031 60.9597 86.5968 61.2594 86.7905 61.559C86.8901 61.7123 86.8901 61.7123 86.9917 61.8687C87.2904 62.3313 87.5833 62.7933 87.8505 63.2751C88.5444 64.4862 89.4633 65.5562 90.4054 66.5784C89.9005 66.9169 89.6532 66.8881 89.054 66.8502C87.4513 66.5174 86.4064 65.6638 85.2703 64.5401C85.1492 64.4206 85.0281 64.3011 84.9034 64.1781C82.1622 61.2952 82.1622 61.2952 82.1622 59.9199C82.073 59.9199 81.9838 59.9199 81.8919 59.9199C81.7582 59.6005 81.6262 59.2806 81.4949 58.9601C81.4386 58.8263 81.4386 58.8263 81.3812 58.6897C81.05 57.8751 80.9274 57.0897 80.9206 56.2084C80.9187 56.094 80.9168 55.9796 80.9148 55.8618C80.9459 55.5714 80.9459 55.5714 81.2162 55.2997Z" fill="#5E94B5"/>
<path d="M37.0693 31.74C37.1887 31.74 37.3081 31.74 37.4312 31.7399C39.1352 31.7432 40.8163 31.8256 42.5085 32.0287C42.645 32.0447 42.645 32.0447 42.7843 32.061C44.4706 32.2643 46.0726 32.6811 47.7027 33.1498C47.8887 33.1982 48.075 33.2457 48.2617 33.2916C49.8682 33.6958 51.4181 34.2088 52.973 34.7805C52.8838 35.5428 52.7946 36.3052 52.7027 37.0906C52.5243 37.0906 52.346 37.0906 52.1622 37.0906C52.1622 37.0009 52.1622 36.9112 52.1622 36.8188C52.0693 36.8059 51.9765 36.7929 51.8808 36.7795C51.4008 36.6619 51.019 36.4572 50.5828 36.2243C49.9195 35.8783 49.2756 35.609 48.5531 35.4159C48.2303 35.3202 47.94 35.1951 47.6351 35.0523C47.1165 34.8108 46.5974 34.6373 46.0473 34.4827C45.729 34.3886 45.4169 34.2855 45.1029 34.178C44.1491 33.8561 43.1753 33.6113 42.2002 33.3639C41.9379 33.2974 41.676 33.2293 41.4142 33.161C37.4248 32.2007 32.7023 32.1814 28.73 33.2421C28.1935 33.3839 27.7168 33.4475 27.1622 33.4216C27.2514 33.3768 27.3405 33.3319 27.4324 33.2857C27.477 33.196 27.5216 33.1063 27.5676 33.0139C27.8986 32.925 27.8986 32.925 28.3362 32.8483C28.5742 32.8055 28.5742 32.8055 28.817 32.7618C28.9845 32.7329 29.1519 32.704 29.3243 32.6742C29.6509 32.6164 29.9775 32.5584 30.3041 32.5001C30.5416 32.4581 30.5416 32.4581 30.7839 32.4152C31.1312 32.3504 31.4726 32.2773 31.8159 32.1944C33.5586 31.7995 35.2919 31.7362 37.0693 31.74Z" fill="#41789E"/>
<path d="M90 37.2265C90 37.3162 90 37.4059 90 37.4983C89.8678 37.5461 89.7356 37.5939 89.5993 37.6432C88.6197 38.0099 87.7876 38.369 86.9911 39.0721C86.7568 39.2648 86.7568 39.2648 86.3514 39.4007C86.3514 39.4904 86.3514 39.5801 86.3514 39.6725C86.2622 39.6725 86.173 39.6725 86.0811 39.6725C86.0504 39.7425 86.0198 39.8126 85.9882 39.8848C85.8108 40.216 85.8108 40.216 85.5068 40.6152C84.7773 41.6236 84.3482 42.8453 83.902 44.0007C83.7838 44.2927 83.7838 44.2927 83.5557 44.7428C83.3838 45.0968 83.3 45.3994 83.2432 45.7875C83.1541 45.7875 83.0649 45.7875 82.973 45.7875C82.973 46.0117 82.973 46.2359 82.973 46.4669C83.0224 46.3928 83.0719 46.3187 83.1229 46.2424C84.0682 44.9183 85.4124 44.0798 86.7568 43.2056C87.3345 42.8297 87.8569 42.4321 88.3784 41.9826C87.9214 43.3613 86.8641 44.1718 85.7601 45.0231C84.3038 46.1515 82.7429 47.4736 81.7568 49.0488C81.5935 48.5564 81.6834 48.4181 81.8919 47.9617C81.9811 47.9617 82.0703 47.9617 82.1622 47.9617C82.199 47.757 82.199 47.757 82.2366 47.5482C82.8963 43.9195 83.6225 40.2504 86.7224 37.8958C87.6238 37.326 88.9499 36.6985 90 37.2265Z" fill="#337AA1"/>
<path d="M80.946 54.0767C81.4456 54.2759 81.6447 54.5282 81.9341 54.9769C82.8663 56.3591 83.9489 57.3818 85.3463 58.2892C86.1496 58.8152 87.048 59.4168 87.4324 60.3275C87.2095 60.2827 86.9865 60.2378 86.7568 60.1916C86.7568 60.102 86.7568 60.0123 86.7568 59.9199C86.6676 59.8918 86.5784 59.8638 86.4865 59.8349C85.9278 59.5774 85.4816 59.2131 85 58.8328C84.8878 58.7453 84.7756 58.6579 84.6601 58.5679C84.3674 58.3398 84.0754 58.111 83.7838 57.8815C83.7838 58.456 84.0641 58.8597 84.3328 59.3508C84.99 60.5683 84.99 60.5683 85.2486 61.1174C85.8453 62.3823 86.5349 63.515 87.537 64.5013C87.8378 64.8119 87.8378 64.8119 87.8378 65.0836C87.3912 64.9339 87.2955 64.8259 87.0017 64.4721C86.6587 64.0633 86.3078 63.6667 85.946 63.2746C85.3622 62.6113 84.9091 61.9028 84.4595 61.1429C84.4074 61.0572 84.3554 60.9715 84.3018 60.8832C83.4625 59.4988 82.7173 58.0764 82.0186 56.6161C81.9429 56.4581 81.8672 56.3001 81.7892 56.1373C81.4678 55.4574 81.1722 54.7954 80.946 54.0767Z" fill="#337BA1"/>
<path d="M39.5946 59.2404C41.2547 59.9739 42.5606 61.8436 43.5637 63.2964C43.7598 63.6019 43.7598 63.6019 44.054 63.7247C44.0095 63.5902 43.9649 63.4557 43.9189 63.3171C44.0527 63.3619 44.1865 63.4068 44.3243 63.453C44.4217 63.6764 44.5107 63.9035 44.5946 64.1324C44.7362 64.3647 44.883 64.5939 45.0338 64.8203C45.5331 65.5967 46.0105 66.3968 46.3513 67.2578C46.2845 67.3924 46.2845 67.3924 46.2162 67.5296C46.1493 67.4371 46.0824 67.3446 46.0135 67.2493C45.7385 66.9244 45.4815 66.6733 45.1605 66.4C44.5973 65.9146 44.118 65.3883 43.6486 64.8118C43.5697 64.7173 43.4908 64.6227 43.4095 64.5252C43.3351 64.432 43.2608 64.3388 43.1841 64.2428C43.1174 64.1596 43.0507 64.0764 42.9819 63.9907C42.8378 63.7247 42.8378 63.7247 42.8589 63.402C42.8276 62.873 42.508 62.6131 42.1537 62.2554C42.0164 62.111 41.8791 61.9664 41.742 61.8218C41.6748 61.752 41.6077 61.6823 41.5385 61.6104C40.8288 60.8678 40.1959 60.0732 39.5946 59.2404Z" fill="#5C93B4"/>
<path d="M44.5946 60.7352C45.8695 60.9597 46.9836 62.2671 47.8805 63.1396C48.3428 63.5889 48.3428 63.5889 48.9189 63.8606C48.8297 63.6813 48.7405 63.5019 48.6486 63.3171C48.7824 63.3619 48.9162 63.4068 49.054 63.453C49.1209 63.6548 49.1209 63.6548 49.1892 63.8606C49.3996 64.0751 49.3996 64.0751 49.6622 64.2853C50.3065 64.8334 50.8962 65.4289 51.4865 66.0348C50.7438 66.2838 50.0089 65.8051 49.3243 65.4913C48.495 65.0274 47.7349 64.4955 47.027 63.8606C47.1608 63.7709 47.2946 63.6813 47.4324 63.5888C47.477 63.4543 47.5216 63.3198 47.5676 63.1812C47.4784 63.1812 47.3892 63.1812 47.2973 63.1812C47.2973 63.0915 47.2973 63.0018 47.2973 62.9094C47.2025 62.8786 47.1078 62.8477 47.0101 62.816C46.5399 62.6001 46.1929 62.2998 45.8108 61.9582C45.716 61.8769 45.6213 61.7956 45.5236 61.7119C44.7477 61.0431 44.7477 61.0431 44.5946 60.7352Z" fill="#5D94B3"/>
<path d="M42.1622 59.9199C42.2514 59.9199 42.3405 59.9199 42.4324 59.9199C42.4324 60.0095 42.4324 60.0992 42.4324 60.1916C42.5835 60.2437 42.5835 60.2437 42.7376 60.2967C43.1284 60.4725 43.3372 60.6475 43.6318 60.956C43.725 61.0536 43.8182 61.1511 43.9142 61.2517C44.7672 62.1786 45.5606 63.1515 46.3514 64.1324C46.5297 64.0876 46.7081 64.0427 46.8919 63.9965C46.9734 64.126 47.0549 64.2554 47.1389 64.3888C47.248 64.561 47.3571 64.7331 47.4662 64.9053C47.5197 64.9903 47.5732 65.0754 47.6283 65.163C47.8772 65.5549 48.1265 65.9218 48.4185 66.2838C48.6487 66.5784 48.6487 66.5784 48.6487 66.8502C48.247 66.6974 47.9278 66.5481 47.5676 66.3066C47.5676 66.2169 47.5676 66.1272 47.5676 66.0348C47.4678 65.9985 47.3681 65.9622 47.2653 65.9248C46.9008 65.7669 46.6353 65.5943 46.3234 65.3501C46.2219 65.2713 46.1204 65.1924 46.0159 65.1112C45.912 65.0292 45.8081 64.9473 45.701 64.8628C45.5945 64.7798 45.488 64.6967 45.3782 64.6112C45.1165 64.407 44.8553 64.2021 44.5946 63.9965C44.6838 63.9517 44.773 63.9068 44.8649 63.8606C44.9987 63.9055 45.1324 63.9503 45.2703 63.9965C45.3275 63.6881 45.3275 63.6881 45.2703 63.3171C45.0508 63.0403 44.8448 62.8161 44.5904 62.5766C44.5214 62.5088 44.4524 62.4411 44.3813 62.3712C44.1612 62.1554 43.9389 61.9421 43.7162 61.7289C43.494 61.5139 43.2722 61.2984 43.0511 61.0822C42.9135 60.9478 42.7752 60.8142 42.6361 60.6815C42.473 60.5234 42.3169 60.3581 42.1622 60.1916C42.1622 60.102 42.1622 60.0123 42.1622 59.9199Z" fill="#5B94B3"/>
<path d="M81.4865 52.3101C82.118 52.3832 82.5727 52.6686 83.0912 53.015C83.2163 53.0974 83.2163 53.0974 83.3439 53.1815C83.9359 53.5769 84.4901 53.9838 85 54.4843C85 54.574 85 54.6637 85 54.7561C85.0801 54.7883 85.1603 54.8206 85.2428 54.8538C85.6055 55.0659 85.7538 55.286 85.9797 55.6394C86.0853 55.8012 86.0853 55.8012 86.193 55.9664C86.3513 56.2509 86.3513 56.2509 86.3513 56.5226C85.3572 56.2415 84.6632 55.3898 84.0034 54.6372C82.8915 53.3554 82.8915 53.3554 81.4865 52.446C81.4865 52.4011 81.4865 52.3563 81.4865 52.3101Z" fill="#347BA0"/>
<path d="M87.027 47.2822C87.027 47.3719 87.027 47.4616 87.027 47.554C86.3964 48.0462 85.7118 48.3282 84.9747 48.6241C84.1005 48.9831 83.2651 49.3637 82.4498 49.8466C82.1721 49.9947 81.9288 50.0747 81.6216 50.1359C82.1399 49.5428 82.7323 49.1596 83.3984 48.7462C83.8486 48.4647 84.2847 48.1652 84.7202 47.8613C85.4518 47.413 86.1776 47.2822 87.027 47.2822Z" fill="#317A9E"/>
<path d="M39.5946 59.2404C41.2392 59.967 42.5956 61.8186 43.5135 63.3171C43.4689 63.4068 43.4243 63.4964 43.3784 63.5888C43.0599 63.2494 42.7419 62.9096 42.424 62.5697C42.3352 62.4751 42.2465 62.3805 42.155 62.283C40.593 60.6118 40.593 60.6118 39.9409 59.716C39.8742 59.6249 39.8074 59.5339 39.7387 59.44C39.6911 59.3741 39.6436 59.3083 39.5946 59.2404Z" fill="#377DA1"/>
<path d="M37.8378 58.8327C39.3564 59.3418 40.7998 62.1629 41.7567 63.453C41.7122 63.5426 41.6676 63.6323 41.6216 63.7247C41.5854 63.6379 41.5491 63.551 41.5118 63.4615C41.3667 63.1362 41.3667 63.1362 40.9459 63.0453C40.763 62.7754 40.5832 62.5033 40.4054 62.23C40.1809 62.0027 39.9556 61.7763 39.7297 61.5505C39.4702 61.2612 39.2196 60.9649 38.9696 60.6672C38.8729 60.554 38.8729 60.554 38.7743 60.4385C37.8378 59.3268 37.8378 59.3268 37.8378 58.8327Z" fill="#3A7EA1"/>
<path d="M42.1622 59.9199C42.2514 59.9199 42.3405 59.9199 42.4324 59.9199C42.4324 60.0095 42.4324 60.0992 42.4324 60.1916C42.5835 60.2437 42.5835 60.2437 42.7376 60.2967C43.1284 60.4725 43.3372 60.6475 43.6318 60.956C43.725 61.0536 43.8182 61.1511 43.9142 61.2517C44.7672 62.1786 45.5606 63.1515 46.3514 64.1324C45.946 64.1324 45.946 64.1324 45.662 63.8569C45.5494 63.7264 45.4369 63.5959 45.321 63.4615C44.5537 62.5858 43.7355 61.768 42.9038 60.9545C42.8076 60.8593 42.7115 60.7642 42.6124 60.6662C42.5257 60.5812 42.4389 60.4962 42.3495 60.4087C42.1622 60.1916 42.1622 60.1916 42.1622 59.9199Z" fill="#377D9F"/>
<path d="M46.6216 39.5366C46.8142 39.5783 47.0069 39.6195 47.1996 39.6603C47.9241 39.8201 48.6265 40.0405 49.3328 40.267C49.46 40.3066 49.5873 40.3462 49.7184 40.3869C50.3713 40.5953 50.9725 40.8281 51.5774 41.1495C51.9868 41.3495 52.4069 41.5113 52.831 41.6774C53.8765 42.089 54.8856 42.5658 55.897 43.0551C57.5559 43.8566 59.2131 44.616 60.946 45.2439C61.1716 45.3335 61.397 45.4236 61.6216 45.5157C61.6216 45.6054 61.6216 45.6951 61.6216 45.7875C61.734 45.8018 61.8463 45.8162 61.9621 45.831C62.4919 45.935 62.9719 46.1146 63.4713 46.314C64.2216 46.6055 64.965 46.8604 65.7459 47.0588C66.0688 47.1431 66.3811 47.2448 66.6976 47.3502C67.4282 47.5741 68.171 47.6892 68.924 47.8079C69.6012 47.9149 70.2676 48.0446 70.9375 48.191C71.5287 48.3159 72.0415 48.3809 72.6436 48.3439C73.6137 48.3089 74.4155 48.7739 75.2703 49.1847C75.4264 49.2511 75.5824 49.3174 75.7432 49.3858C76.2182 49.5932 76.6719 49.8223 77.1284 50.0679C77.2782 50.1478 77.428 50.2277 77.5824 50.31C77.9082 50.5048 78.1481 50.6519 78.3784 50.9512C78.4037 51.3164 78.4037 51.3164 78.3784 51.6307C78.2167 51.7007 78.0551 51.7708 77.8885 51.843C77.5075 52.0115 77.1372 52.1875 76.7694 52.3839C75.402 53.1131 73.9749 53.601 72.509 54.0933C72.1967 54.2007 71.8879 54.3138 71.5794 54.4318C69.4583 55.2339 67.2279 55.823 65.0019 56.2437C64.5575 56.3001 64.5575 56.3001 64.1892 56.5226C63.9763 56.5676 63.762 56.606 63.5473 56.6415C62.992 56.7367 62.4501 56.8553 61.904 56.994C60.8851 57.2331 59.8669 57.3325 58.826 57.4229C58.4651 57.4551 58.1042 57.4882 57.7434 57.5216C57.5861 57.5354 57.4289 57.5492 57.2669 57.5634C56.8982 57.5876 56.8982 57.5876 56.6216 57.7456C56.2233 57.7595 55.829 57.7648 55.4307 57.7626C55.3109 57.7622 55.191 57.7617 55.0675 57.7612C53.0482 57.7459 51.0502 57.6556 49.0541 57.338C49.0541 57.2483 49.0541 57.1586 49.0541 57.0662C48.9332 57.0694 48.8123 57.0725 48.6877 57.0758C48.5243 57.0782 48.3609 57.0807 48.1926 57.0832C48.0327 57.0863 47.8727 57.0895 47.708 57.0927C47.3019 57.0862 46.9369 57.0227 46.5414 56.9314C45.6642 56.7427 44.7958 56.7538 43.902 56.7605C43.6418 56.7615 43.6418 56.7615 43.3763 56.7626C42.138 56.7751 40.9497 56.8538 39.7297 57.0662C39.6064 57.0827 39.4831 57.0991 39.356 57.1161C37.2864 57.4214 35.4734 58.2794 33.6798 59.3232C33.2738 59.5593 32.8769 59.7639 32.4324 59.9199C32.4324 60.0095 32.4324 60.0992 32.4324 60.1916C31.8239 60.4854 31.3638 60.7024 30.6757 60.5993C29.769 60.1726 29.1809 59.3034 28.788 58.3938C28.6865 58.0893 28.5995 57.7831 28.5135 57.4739C28.4248 57.1988 28.3346 56.9242 28.2433 56.65C28.1981 56.511 28.153 56.3719 28.1065 56.2286C27.9959 55.9093 27.8687 55.6143 27.728 55.3081C27.3513 54.3096 27.681 53.1204 27.8415 52.0999C28.206 49.541 28.112 46.9225 27.4324 44.4286C27.3934 44.2808 27.3934 44.2808 27.3536 44.1301C27.05 43.0026 26.6542 41.9617 26.0996 40.9305C25.946 40.6237 25.946 40.6237 25.946 40.3519C28.3121 39.6385 30.7663 39.2335 33.2095 38.8911C33.3754 38.8676 33.3754 38.8676 33.5447 38.8436C37.9024 38.2655 42.3667 38.4265 46.6216 39.5366Z" fill="#A9BFD8"/>
<path d="M42.5676 39.6725C42.8378 39.8084 42.8378 39.8084 42.9877 40.1051C43.1204 40.527 43.1441 40.8699 43.1419 41.3116C43.1426 41.4505 43.1433 41.5894 43.144 41.7326C43.1082 42.1173 43.0472 42.3411 42.8378 42.662C42.7486 42.7069 42.6595 42.7517 42.5676 42.7979C42.5676 42.8876 42.5676 42.9773 42.5676 43.0697C42.7866 43.2616 42.7866 43.2616 43.0659 43.4519C43.8232 44.0089 44.521 44.5495 44.7297 45.5157C44.7805 46.1813 44.7721 46.7638 44.3734 47.3178C44.1418 47.5507 43.9086 47.7617 43.6486 47.9617C43.7239 48.0177 43.7991 48.0738 43.8767 48.1315C43.9798 48.21 44.0829 48.2885 44.1892 48.3693C44.3035 48.4478 44.4177 48.5263 44.5355 48.6071C45.1198 49.1496 45.2924 49.7334 45.3463 50.5096C45.3232 51.3476 44.952 52.0537 44.4595 52.7178C44.2588 52.785 44.2588 52.785 44.054 52.8537C44.0095 52.9433 43.9649 53.033 43.9189 53.1254C44.0318 53.1759 44.0318 53.1759 44.147 53.2273C44.6001 53.4736 45.0359 53.7412 45.2703 54.2125C45.2884 54.5757 45.2761 54.9358 45.2703 55.2996C45.1811 55.2996 45.0919 55.2996 45 55.2996C44.9638 55.1539 44.9275 55.0082 44.8902 54.858C44.7406 54.3831 44.6574 54.1572 44.3243 53.8049C43.928 53.6229 43.928 53.6229 43.4882 53.4991C43.3413 53.4536 43.1945 53.408 43.0432 53.3611C42.8746 53.3117 42.8746 53.3117 42.7027 53.2613C42.7499 52.8814 42.7996 52.7484 43.1028 52.5054C43.2105 52.441 43.3181 52.3765 43.429 52.3101C43.877 52.0401 44.1902 51.8149 44.4595 51.3589C44.5465 51.0275 44.5465 51.0275 44.5693 50.6794C44.5813 50.5645 44.5933 50.4496 44.6057 50.3312C44.5934 49.9642 44.4955 49.7754 44.3243 49.4564C44.3243 49.3219 44.3243 49.1874 44.3243 49.0488C44.2459 49.0241 44.1675 48.9994 44.0868 48.9739C43.4606 48.7713 42.8787 48.5483 42.2973 48.2334C42.2973 48.0092 42.2973 47.785 42.2973 47.554C42.3706 47.5309 42.444 47.5078 42.5195 47.4839C42.9456 47.3388 43.2985 47.2163 43.6402 46.917C43.9243 46.2952 43.9604 45.7328 43.8345 45.074C43.3837 44.1675 42.3432 43.7941 41.4865 43.3415C41.4865 43.1172 41.4865 42.893 41.4865 42.662C41.7095 42.6172 41.9324 42.5723 42.1622 42.5261C42.1789 42.4533 42.1956 42.3804 42.2128 42.3053C42.2973 41.9826 42.2973 41.9826 42.4409 41.6344C42.6187 40.9787 42.5891 40.3479 42.5676 39.6725Z" fill="#8FB0CB"/>
<path d="M31.6216 42.5261C32.3721 42.41 32.7918 42.6948 33.3805 43.1169C33.7013 43.3856 33.8837 43.6381 34.0541 44.0209C34.1006 44.1039 34.1471 44.187 34.195 44.2725C34.4662 44.8847 34.4332 45.6073 34.2172 46.2344C33.9891 46.7035 33.7304 47.1678 33.3784 47.554C33.2892 47.554 33.2 47.554 33.1081 47.554C33.2137 47.9737 33.2137 47.9737 33.522 48.2419C33.6084 48.3288 33.6948 48.4157 33.7838 48.5052C33.7838 48.5949 33.7838 48.6846 33.7838 48.777C33.9176 48.777 34.0514 48.777 34.1892 48.777C34.3897 49.6842 34.579 50.7523 34.1227 51.5956C33.5299 52.3698 33.5299 52.3698 33.1081 52.5819C33.2544 52.9251 33.3876 53.1345 33.6571 53.3972C33.9292 53.6797 33.9998 53.8304 34.0541 54.2125C34.1432 54.2125 34.2324 54.2125 34.3243 54.2125C34.3988 56.2124 34.3988 56.2124 33.9189 57.0662C33.866 57.1755 33.813 57.2848 33.7585 57.3974C33.7222 57.4675 33.686 57.5376 33.6487 57.6098C33.5595 57.6098 33.4703 57.6098 33.3784 57.6098C33.3432 57.6891 33.308 57.7685 33.2718 57.8502C33.0976 58.1728 32.9088 58.3945 32.652 58.6544C32.5729 58.7362 32.4939 58.818 32.4124 58.9023C32.1451 59.1183 31.9566 59.1848 31.6216 59.2404C31.7108 59.0162 31.8 58.792 31.8919 58.561C32.0257 58.561 32.1595 58.561 32.2973 58.561C32.3517 58.4104 32.3517 58.4104 32.4071 58.2568C32.5624 57.8937 32.7382 57.6271 32.973 57.3125C33.5201 56.5028 33.706 55.6793 33.6233 54.7051C33.5181 54.2333 33.4194 54.0228 33.1081 53.669C33.1081 53.5793 33.1081 53.4896 33.1081 53.3972C33.0022 53.3552 32.8963 53.3131 32.7872 53.2698C32.4324 53.1254 32.4324 53.1254 32.1622 52.9895C32.1622 52.855 32.1622 52.7205 32.1622 52.5819C32.2848 52.5006 32.4074 52.4193 32.5338 52.3356C33.0861 51.9617 33.4237 51.6034 33.5811 50.9369C33.6766 50.2395 33.6262 49.6053 33.5135 48.9129C33.3756 48.8666 33.3756 48.8666 33.2348 48.8195C32.7303 48.5928 32.3349 48.2936 31.8919 47.9617C31.9003 47.6474 31.9003 47.6474 32.027 47.2822C32.1775 47.2178 32.328 47.1533 32.4831 47.0869C33.004 46.9175 33.004 46.9175 33.2348 46.4414C33.2822 46.3153 33.3296 46.1892 33.3784 46.0592C33.4676 46.0592 33.5568 46.0592 33.6487 46.0592C33.6421 44.6947 33.6421 44.6947 33.0738 43.5081C32.7354 43.2416 32.3996 43.0128 32.027 42.7979C31.8932 42.7082 31.7595 42.6185 31.6216 42.5261Z" fill="#90B0CB"/>
<path d="M38.1081 41.3031C39.2658 41.2663 39.2658 41.2663 39.725 41.6758C40.2775 42.4175 40.5253 43.0827 40.4054 44.0209C40.2541 44.4879 40.0685 44.9337 39.8649 45.3798C39.7757 45.3798 39.6865 45.3798 39.5946 45.3798C39.5946 45.5143 39.5946 45.6489 39.5946 45.7875C39.8621 46.0172 40.1324 46.2438 40.4054 46.4669C40.4054 46.5566 40.4054 46.6463 40.4054 46.7387C40.4946 46.7387 40.5838 46.7387 40.6757 46.7387C41.1256 47.4664 41.2565 48.1933 41.2162 49.0488C41.0326 49.7635 40.7907 50.2978 40.2703 50.8153C40.2257 50.9499 40.1811 51.0844 40.1351 51.223C40.216 51.2594 40.2968 51.2959 40.3801 51.3334C40.6781 51.4961 40.8697 51.6368 41.0811 51.9024C41.0811 52.037 41.0811 52.1715 41.0811 52.3101C41.1703 52.3101 41.2595 52.3101 41.3514 52.3101C41.616 53.1417 41.5218 53.9514 41.2162 54.7561C41.0088 55.0529 40.7868 55.3042 40.5405 55.5714C40.3622 55.5266 40.1838 55.4817 40 55.4355C40.1115 55.3262 40.223 55.2169 40.3378 55.1043C40.9368 54.2899 40.7239 53.133 40.6757 52.1742C40.5748 52.1367 40.474 52.0992 40.37 52.0606C39.8692 51.8465 39.4899 51.5495 39.0541 51.223C39.1079 51.1524 39.1617 51.0818 39.2172 51.0091C39.2888 50.9143 39.3604 50.8195 39.4341 50.7219C39.5399 50.5824 39.5399 50.5824 39.6479 50.44C40.1136 49.7872 40.3249 49.3944 40.3125 48.5732C40.3117 48.3483 40.3117 48.3483 40.3109 48.1188C40.271 47.6973 40.1776 47.3918 40 47.0105C39.9108 47.0105 39.8216 47.0105 39.7297 47.0105C39.5045 46.784 39.2793 46.5575 39.0541 46.331C38.7613 46.155 38.7613 46.155 38.5135 46.0592C38.5581 45.8799 38.6027 45.7005 38.6486 45.5157C38.7378 45.5157 38.827 45.5157 38.9189 45.5157C38.9607 45.4316 39.0025 45.3475 39.0456 45.2609C39.1385 45.074 39.2314 44.8872 39.3243 44.7004C39.4135 44.7004 39.5027 44.7004 39.5946 44.7004C39.7398 43.3559 39.7398 43.3559 39.3074 42.1524C38.9219 41.849 38.5593 41.629 38.1081 41.439C38.1081 41.3942 38.1081 41.3493 38.1081 41.3031Z" fill="#90B0CB"/>
<path d="M43.6487 40.8955C44.0175 40.8881 44.3862 40.8827 44.7551 40.8785C44.9109 40.8751 44.9109 40.8751 45.0699 40.8716C45.6507 40.8666 46.0918 40.896 46.6216 41.1673C46.6216 41.2569 46.6216 41.3466 46.6216 41.439C46.747 41.4895 46.747 41.4895 46.875 41.5409C47.2234 41.7471 47.2887 41.8786 47.4324 42.2544C47.4626 42.8846 47.4378 43.4454 47.027 43.936C46.9378 44.0088 46.8487 44.0817 46.7568 44.1568C46.6504 44.4474 46.6504 44.4474 46.6216 44.7004C46.7192 44.7088 46.8167 44.7172 46.9172 44.7258C47.416 44.8707 47.6232 45.1369 47.973 45.5157C48.0705 45.5857 48.1681 45.6558 48.2686 45.728C48.6436 46.0271 48.7636 46.3311 48.8339 46.804C48.8636 48.0212 48.4498 48.7951 47.7027 49.7282C47.4071 49.8981 47.4071 49.8981 47.1622 50C47.2291 50.1345 47.2291 50.1345 47.2973 50.2718C47.3804 50.2903 47.4635 50.3089 47.5491 50.328C47.9129 50.4284 48.0315 50.5758 48.2686 50.8663C48.3374 50.9486 48.4062 51.031 48.4771 51.1158C48.8182 51.5991 48.7984 52.0345 48.7922 52.6074C48.791 52.755 48.7898 52.9027 48.7885 53.0548C48.787 53.1678 48.7854 53.2808 48.7838 53.3972C48.6946 53.3972 48.6054 53.3972 48.5135 53.3972C48.4745 53.5065 48.4355 53.6158 48.3953 53.7284C48.2432 54.0767 48.2432 54.0767 47.973 54.2125C47.9949 54.1157 48.0169 54.0188 48.0395 53.919C48.1869 53.0902 48.2388 52.0249 47.973 51.223C47.6737 51.0752 47.6737 51.0752 47.2973 50.9512C46.9666 50.6964 46.6584 50.4189 46.3514 50.1359C46.4554 49.6223 46.6256 49.3913 47.027 49.0488C47.1162 49.0488 47.2054 49.0488 47.2973 49.0488C47.2973 48.9591 47.2973 48.8694 47.2973 48.777C47.4311 48.7097 47.4311 48.7097 47.5676 48.6411C47.9673 48.0097 47.9171 47.3242 47.8378 46.6028C47.6974 46.1147 47.4755 45.7705 47.0445 45.4828C46.7726 45.3412 46.5009 45.2208 46.2162 45.108C46.0824 45.052 45.9487 44.9959 45.8108 44.9382C45.7216 44.9045 45.6324 44.8709 45.5405 44.8362C45.747 44.3691 46.0138 43.9952 46.3514 43.6132C46.4405 43.6132 46.5297 43.6132 46.6216 43.6132C46.6253 43.3726 46.6279 43.132 46.6301 42.8913C46.6316 42.7573 46.6332 42.6233 46.6348 42.4853C46.6383 42.1049 46.6383 42.1049 46.4865 41.7108C46.1589 41.5519 46.1589 41.5519 45.8108 41.439C45.7216 41.3942 45.6324 41.3493 45.5405 41.3031C45.1965 41.2716 44.8549 41.2462 44.5101 41.2267C44.4147 41.2208 44.3192 41.215 44.2209 41.2089C43.9851 41.1945 43.7493 41.1808 43.5135 41.1673C43.5581 41.0776 43.6027 40.9879 43.6487 40.8955Z" fill="#90B0CB"/>
<path d="M35.6757 39.8084C35.7649 39.8084 35.8541 39.8084 35.9459 39.8084C36.6816 40.7562 36.8831 41.7567 36.7568 42.9338C36.6457 43.3102 36.501 43.6571 36.3513 44.0209C36.3513 44.6259 36.4481 44.7245 36.8528 45.1409C37.4708 45.9883 37.3765 47.1018 37.2973 48.0976C37.198 48.4619 37.0792 48.7191 36.8919 49.0488C36.7581 49.0488 36.6243 49.0488 36.4865 49.0488C36.4419 49.2282 36.3973 49.4075 36.3513 49.5923C36.4318 49.6279 36.5123 49.6635 36.5952 49.7001C36.9086 49.8734 37.0842 50.0412 37.3142 50.3142C37.3814 50.3922 37.4487 50.4701 37.5179 50.5505C38.1166 51.4087 38.101 52.3877 37.973 53.3972C37.6649 54.1327 37.1636 54.7405 36.4865 55.1638C36.3527 55.1638 36.2189 55.1638 36.0811 55.1638C36.2162 54.7561 36.2162 54.7561 36.4611 54.5268C37.0378 53.9138 37.3294 53.2861 37.3564 52.4375C37.3195 51.6317 37.0911 51.059 36.5794 50.4331C36.1945 50.1181 35.8831 49.987 35.4054 49.8641C35.3547 49.5669 35.3547 49.5669 35.4054 49.1847C35.7855 48.8365 35.7855 48.8365 35.9993 48.6831C36.4331 48.3275 36.6066 48.0858 36.6755 47.5163C36.6744 47.3522 36.6734 47.1881 36.6723 47.0189C36.6733 46.8552 36.6744 46.6914 36.6755 46.5226C36.6182 46.0295 36.5113 45.773 36.2162 45.3798C35.9392 45.2178 35.9392 45.2178 35.6757 45.108C35.6311 45.0183 35.5865 44.9286 35.5405 44.8362C35.4068 44.7466 35.273 44.6569 35.1351 44.5645C35.2564 44.3921 35.2564 44.3921 35.3801 44.2162C36.0116 43.2445 36.2105 42.4657 36.0811 41.3031C35.9729 40.9223 35.8314 40.5815 35.6757 40.216C35.6757 40.0815 35.6757 39.947 35.6757 39.8084Z" fill="#8FAFCA"/>
<path d="M27.8378 40.6237C28.2639 40.7189 28.6525 40.8597 29.054 41.0314C29.1425 41.0674 29.231 41.1035 29.3222 41.1407C29.8794 41.473 30.083 42.0612 30.2703 42.662C30.3561 43.5071 30.3943 44.3377 30.1172 45.1478C30.0785 45.2692 30.0398 45.3906 30 45.5157C30.2221 45.877 30.2221 45.877 30.5405 46.1951C30.99 46.7439 31.0281 47.2537 31.014 47.9431C30.887 48.7384 30.5095 49.4311 30.1351 50.1359C30.0459 50.1359 29.9567 50.1359 29.8649 50.1359C29.8649 50.3153 29.8649 50.4946 29.8649 50.6794C29.954 50.6794 30.0432 50.6794 30.1351 50.6794C30.7467 51.8709 30.8934 53.0661 30.5675 54.3755C30.3632 54.9695 30.1566 55.5098 29.7297 55.9791C29.5959 55.9791 29.4622 55.9791 29.3243 55.9791C29.3921 55.6249 29.4944 55.3683 29.6622 55.0449C30.0838 54.1616 30.111 53.1389 30 52.1742C29.8615 51.7985 29.6978 51.468 29.4985 51.1216C29.3108 50.7915 29.153 50.5041 29.054 50.1359C29.1955 49.8652 29.1955 49.8652 29.4257 49.6093C30.0451 48.8471 30.2253 48.0474 30.2164 47.071C30.0643 46.4493 29.5616 46.1315 29.054 45.7875C29.2058 45.4001 29.3641 45.0249 29.5439 44.6494C29.8446 43.8521 29.8017 43.3171 29.4595 42.5516C29.4093 42.4498 29.3591 42.3481 29.3074 42.2432C29.1892 41.9826 29.1892 41.9826 29.1892 41.7108C29.1 41.7108 29.0108 41.7108 28.9189 41.7108C28.9189 41.5763 28.9189 41.4417 28.9189 41.3031C28.7642 41.2779 28.7642 41.2779 28.6064 41.2522C28.2432 41.1672 28.2432 41.1672 27.8378 40.8955C27.8378 40.8058 27.8378 40.7161 27.8378 40.6237Z" fill="#8FAFCA"/>
<path d="M50 42.3902C51.2299 42.4162 51.2299 42.4162 51.6892 42.8319C51.7561 42.9552 51.823 43.0785 51.8919 43.2056C51.9476 43.3065 52.0034 43.4074 52.0608 43.5113C52.2712 44.2872 52.2634 45.0637 51.8919 45.7875C51.8027 45.7875 51.7135 45.7875 51.6216 45.7875C51.6216 45.8771 51.6216 45.9668 51.6216 46.0592C51.5324 46.1041 51.4432 46.1489 51.3514 46.1951C51.5444 46.6563 51.7775 46.9014 52.1622 47.2143C52.7262 47.673 52.9438 47.9629 53.0231 48.699C53.0525 50.4258 53.0525 50.4258 52.5005 51.0377C52.4335 51.0989 52.3664 51.16 52.2973 51.223C52.2261 51.2911 52.1548 51.3593 52.0814 51.4295C51.5541 51.9024 51.5541 51.9024 51.2162 51.9024C51.2608 52.0818 51.3054 52.2612 51.3514 52.446C51.4405 52.446 51.5297 52.446 51.6216 52.446C52.058 53.4196 52.3353 54.1577 52.027 55.2232C51.9601 55.3956 51.9601 55.3956 51.8919 55.5714C51.7572 55.1652 51.7506 54.9227 51.7652 54.5013C51.7705 53.9743 51.7359 53.5991 51.4865 53.1254C51.4475 53.0273 51.4084 52.9292 51.3682 52.8282C51.1778 52.5197 51.0041 52.4502 50.6757 52.3101C50.5419 52.2204 50.4081 52.1307 50.2703 52.0383C50.2703 51.9486 50.2703 51.859 50.2703 51.7666C51.0016 51.223 51.0016 51.223 51.3514 51.223C51.3514 51.1333 51.3514 51.0436 51.3514 50.9512C51.4851 50.8615 51.6189 50.7718 51.7568 50.6794C52.1111 50.0195 52.3156 49.3981 52.1622 48.6411C51.8602 47.955 51.4451 47.4149 50.8108 47.0105C50.3812 46.8398 50.3812 46.8398 50 46.7387C50.0169 46.5094 50.0169 46.5094 50.1351 46.1951C50.3368 46.0276 50.5387 45.8604 50.7438 45.6972C51.3953 45.1122 51.4339 44.2984 51.4865 43.4774C51.3973 43.4774 51.3081 43.4774 51.2162 43.4774C51.1354 43.3708 51.0546 43.2643 50.9713 43.1546C50.6589 42.7776 50.4588 42.6671 50 42.5261C50 42.4813 50 42.4364 50 42.3902Z" fill="#90B0CB"/>
<path d="M54.7297 44.1568C55.851 44.3105 55.851 44.3105 56.2817 44.7858C56.7364 45.4845 56.9114 46.043 56.7568 46.8746C56.4959 47.6894 56.0733 48.1336 55.4054 48.6411C55.3608 48.7308 55.3162 48.8205 55.2703 48.9129C55.365 48.9437 55.4598 48.9746 55.5574 49.0063C56.1772 49.2908 56.6394 49.6227 56.9426 50.2463C57.166 51.3923 57.0167 52.3937 56.3682 53.3717C56.0648 53.6859 55.7606 53.9588 55.4054 54.2125C55.3162 54.2125 55.227 54.2125 55.1351 54.2125C55.1351 54.3022 55.1351 54.3919 55.1351 54.4843C54.8007 54.5516 54.8007 54.5516 54.4595 54.6202C54.5693 54.3569 54.5693 54.3569 54.7297 54.0767C54.9304 54.0094 54.9304 54.0094 55.1351 53.9408C55.1351 53.8511 55.1351 53.7614 55.1351 53.669C55.2243 53.669 55.3135 53.669 55.4054 53.669C55.4054 53.5793 55.4054 53.4896 55.4054 53.3972C55.4946 53.3972 55.5838 53.3972 55.6757 53.3972C55.7175 53.2907 55.7593 53.1842 55.8024 53.0745C55.946 52.7178 55.946 52.7178 56.0811 52.446C56.1703 52.446 56.2595 52.446 56.3514 52.446C56.3655 51.6598 56.3503 50.9114 56.2162 50.1359C56.1187 50.0995 56.0211 50.063 55.9206 50.0255C55.5418 49.8646 55.2132 49.6754 54.8649 49.4565C54.7394 49.3808 54.614 49.3051 54.4848 49.2271C54.3873 49.1683 54.2897 49.1094 54.1892 49.0488C54.2397 48.6957 54.2836 48.541 54.555 48.3025C54.6489 48.2405 54.7428 48.1784 54.8395 48.1146C55.4383 47.6808 55.8563 47.2954 56.0172 46.5402C56.0967 45.9273 56.146 45.5117 55.8108 44.9721C55.4671 44.661 55.1847 44.5103 54.7297 44.4286C54.7297 44.3389 54.7297 44.2492 54.7297 44.1568Z" fill="#90B0CB"/>
<path d="M58.3784 46.331C59.145 46.2911 59.5933 46.3302 60.2703 46.7387C60.2703 46.8284 60.2703 46.918 60.2703 47.0105C60.3595 47.0105 60.4487 47.0105 60.5405 47.0105C60.5405 47.145 60.5405 47.2795 60.5405 47.4181C60.6297 47.4181 60.7189 47.4181 60.8108 47.4181C61.2844 48.1324 61.2765 49.0627 61.1487 49.8981C60.8485 50.4514 60.4594 50.9296 60 51.3589C59.9108 51.3589 59.8216 51.3589 59.7297 51.3589C59.9819 51.8519 59.9819 51.8519 60.4054 52.1742C60.593 52.6699 60.5681 53.196 60.5743 53.7199C60.5778 53.8948 60.5813 54.0696 60.5849 54.2497C60.538 54.7847 60.4038 55.1121 60.1351 55.5714C60 55.1638 60 55.1638 60.1267 54.875C60.3254 54.3344 60.3436 53.8319 60.2703 53.2613C60.0867 52.9351 60.0867 52.9351 59.8649 52.7178C59.8649 52.6281 59.8649 52.5384 59.8649 52.446C59.7896 52.4124 59.7144 52.3787 59.6368 52.3441C59.2703 52.1449 58.9681 51.8984 58.6487 51.6307C58.8056 51.1572 58.906 51.1125 59.3074 50.8493C59.8716 50.4446 60.061 50.1139 60.2703 49.4564C60.3595 49.4564 60.4487 49.4564 60.5405 49.4564C60.4924 48.5188 60.399 47.8413 59.6875 47.1888C59.257 46.8338 58.9311 46.6766 58.3784 46.6028C58.3784 46.5131 58.3784 46.4234 58.3784 46.331Z" fill="#8FB0CA"/>
<path d="M62.1622 48.6411C63.1119 48.7249 63.8377 48.8838 64.5861 49.5244C65.0273 50.111 64.9422 50.7969 64.8649 51.4948C64.7953 51.869 64.7043 52.2166 64.5946 52.5819C64.5054 52.5819 64.4162 52.5819 64.3243 52.5819C64.3243 52.7613 64.3243 52.9406 64.3243 53.1254C64.2351 53.1254 64.1459 53.1254 64.0541 53.1254C63.9997 53.2852 63.9997 53.2852 63.9443 53.4482C63.7838 53.8049 63.7838 53.8049 63.3784 54.0767C63.2446 54.0767 63.1108 54.0767 62.973 54.0767C62.973 54.1663 62.973 54.256 62.973 54.3484C62.7054 54.3484 62.4378 54.3484 62.1622 54.3484C62.1176 54.1691 62.073 53.9897 62.027 53.8049C62.0972 53.7751 62.1674 53.7453 62.2398 53.7146C63.0798 53.3305 63.5477 52.932 63.9611 52.0808C64.1308 51.2588 64.2601 50.4567 63.7922 49.7282C63.2733 49.3875 62.7578 49.2093 62.1622 49.0488C62.1622 48.9142 62.1622 48.7797 62.1622 48.6411Z" fill="#8EB0CA"/>
<path d="M67.5676 49.1847C67.7013 49.1847 67.8351 49.1847 67.973 49.1847C67.973 49.2744 67.973 49.364 67.973 49.4564C68.051 49.4901 68.129 49.5237 68.2095 49.5584C68.7023 49.8337 68.9843 50.121 69.223 50.637C69.4347 51.5771 69.416 52.3128 68.9379 53.1626C68.6788 53.557 68.4387 53.8594 67.9983 54.0427C66.9327 54.1651 66.9327 54.1651 66.4865 53.9408C66.6239 53.5661 66.7021 53.4244 67.0645 53.2443C67.1831 53.2051 67.3018 53.1659 67.424 53.1254C67.9548 52.9493 68.2377 52.8109 68.5135 52.3101C68.6499 51.4955 68.5315 50.8454 68.1081 50.1359C68.1081 50.0462 68.1081 49.9565 68.1081 49.8641C68.0189 49.8641 67.9297 49.8641 67.8378 49.8641C67.7486 49.6399 67.6595 49.4157 67.5676 49.1847Z" fill="#91B0CB"/>
<path d="M71.4865 49.4565C72.0232 49.5798 72.2408 49.7941 72.5253 50.2463C73.0664 51.1976 73.213 51.8609 73.0152 52.9641C72.8378 53.3972 72.8378 53.3972 72.5338 53.5926C72.1295 53.6757 71.763 53.6882 71.3513 53.669C71.3513 53.4448 71.3513 53.2206 71.3513 52.9896C71.5144 52.9265 71.5144 52.9265 71.6807 52.8622C72.0123 52.7499 72.0123 52.7499 72.1622 52.5819C72.1699 51.6264 72.0352 50.8153 71.6 49.965C71.4865 49.7282 71.4865 49.7282 71.4865 49.4565Z" fill="#92B1CB"/>
<path d="M74.1892 49.8641C74.4122 49.8641 74.6351 49.8641 74.8649 49.8641C74.8649 49.9538 74.8649 50.0435 74.8649 50.1359C74.9485 50.1443 75.0321 50.1527 75.1182 50.1614C75.4054 50.2718 75.4054 50.2718 75.5828 50.5436C75.7102 51.1029 75.6544 51.6142 75.5405 52.1742C75.4054 52.3101 75.4054 52.3101 75.0591 52.3186C74.9504 52.3158 74.8417 52.313 74.7297 52.3101C74.7473 52.2132 74.7649 52.1164 74.783 52.0166C74.9229 51.0777 74.9229 51.0777 74.5355 50.2463C74.4212 50.1202 74.3069 49.9941 74.1892 49.8641Z" fill="#90AFC8"/>
<path d="M44.5946 60.7352C46.145 61.0112 47.5615 62.8076 48.6486 63.8606C48.2432 63.8606 48.2432 63.8606 47.973 63.5973C47.8838 63.5049 47.7946 63.4124 47.7027 63.3171C47.5689 63.2722 47.4351 63.2274 47.2973 63.1812C47.2973 63.0915 47.2973 63.0018 47.2973 62.9094C47.2025 62.8786 47.1078 62.8477 47.0101 62.816C46.5399 62.6001 46.1929 62.2998 45.8108 61.9582C45.716 61.8769 45.6213 61.7956 45.5236 61.7119C44.7477 61.0431 44.7477 61.0431 44.5946 60.7352Z" fill="#377DA0"/>
<path d="M24 47C24 49.2091 22.2091 51 20 51C17.7909 51 16 49.2091 16 47C16 44.7909 17.7909 43 20 43C22.2091 43 24 44.7909 24 47Z" fill="#6396B5"/>
<path d="M23 46C23 48.2091 21.2091 50 19 50C16.7909 50 15 48.2091 15 46C15 43.7909 16.7909 42 19 42C21.2091 42 23 43.7909 23 46Z" fill="#FBD850"/>
<path d="M22 46C22 47.6569 20.6569 49 19 49C17.3431 49 16 47.6569 16 46C16 44.3431 17.3431 43 19 43C20.6569 43 22 44.3431 22 46Z" fill="#F8AE26"/>
<path d="M22 46.5C22 47.8807 20.8807 49 19.5 49C18.1193 49 17 47.8807 17 46.5C17 45.1193 18.1193 44 19.5 44C20.8807 44 22 45.1193 22 46.5Z" fill="black"/>
<circle cx="21" cy="45" r="1" fill="#F7F6F5"/>
<circle cx="20.5" cy="46.5" r="0.5" fill="#F7F6F5"/>
</g>
<defs>
<clipPath id="clip0_8_44">
<rect width="100" height="78" fill="white" transform="translate(0 11)"/>
</clipPath>
</defs>
</svg>
