<svg id="vector" xmlns="http://www.w3.org/2000/svg" width="24.0d" height="24.0d" viewBox="0 0 512.0 512.0"><path fill="#ffcbbc" d="m1,417v79c0,8 6,15 15,15h480c8,0 15,-6 15,-15v-79c0,-8 -6,-15 -15,-15l-480,-0c-8,0 -15,6 -15,15z" id="path_0"/><path fill="#ffbca7" d="m511,497v-79c0,-8 -6,-15 -15,-15l-240,-0v109h240c8,0 15,-6 15,-15z" id="path_1"/><path fill="#ffddce" d="m496,280h-480c-8,0 -15,6 -15,15v122c4,-1 9,-2 15,-2 30,0 30,20 60,20s30,-20 60,-20c30,0 30,20 60,20 30,0 30,-20 60,-20s30,20 60,20c30,0 30,-20 60,-20s30,20 60,20 30,-20 60,-20c6,0 10,0 15,2v-122c0,-8 -6,-15 -15,-15z" id="path_2"/><path fill="#ffcbbc" d="m496,280h-240v135c30,0 30,20 60,20 30,0 30,-20 60,-20s30,20 60,20 30,-20 60,-20c6,0 10,0 15,2v-122c0,-8 -6,-15 -15,-15z" id="path_3"/><path fill="#9d5e4a" d="m153,370c-0,0 -0,-0 -1,-0 -29,-0 -54,-25 -54,-55v-68c0,-105 62,-201 158,-244 5,-2 11,-1 14,3 3,4 4,10 0,15 -41,60 -63,131 -63,204v90c0,14 -5,28 -16,39 -10,10 -24,15 -38,15z" id="path_4"/><path fill="#63544f" d="m373,370c-0,0 -0,-0 -1,-0 -29,-0 -54,-25 -54,-55v-68c0,-105 62,-201 158,-244 5,-2 11,-1 14,3 3,4 4,10 0,15 -41,60 -63,131 -63,204v90c0,14 -5,28 -16,39 -10,10 -24,15 -38,15z" id="path_5"/></svg>