<svg id="vector" xmlns="http://www.w3.org/2000/svg" width="24.0d" height="24.0d" viewBox="0 0 512.0 512.0"><path fill="#31a7fb" d="m480,35 l-5,26c-4,24 -15,47 -30,67l-78,99c-0,1 -2,1 -3,2l-31,2c-4,0 -6,6 -2,9l13,8c2,1 3,5 1,7l-19,24c-1,1 -2,1 -3,2 -15,0 -35,2 -48,3 -4,0 -6,6 -2,9l23,16c2,1 3,5 1,7l-28,35c-92,-33 -78,-143 -64,-200l117,-92c1,-1 3,-1 5,-0l18,7c3,1 7,-1 6,-5l-2,-12c-1,-5 1,-11 5,-15 9,-7 20,-14 31,-19 11,-5 23,-9 35,-11l26,-5c20,-4 38,14 34,34z" id="path_0"/><path fill="#fcb44d" d="m271,348 l-43,54c-0,0 -0,0 -1,1 -93,-38 -117,-124 -123,-172l19,-15c1,-1 3,-1 5,-0l23,13c3,1 7,-0 7,-4v-34c0,-1 0,-3 2,-4l49,-38c-13,48 -36,169 60,201z" id="path_1"/><path fill="#fca62f" d="m234,395 l-5,7c-9,11 -23,17 -37,14l-103,-18c-2,-0 -4,-2 -4,-5l5,-132c0,-11 6,-22 15,-29l8,-6c3,42 22,134 122,170z" id="path_2"/><path fill="#1c96f9" d="m401,90 l-201,201c-2,-5 -3,-11 -5,-16l195,-195c3,-3 7,-3 10,0 3,3 3,7 0,10z" id="path_3"/><path fill="#fb9927" d="m206,285 l-59,59c-3,-4 -6,-8 -9,-12l63,-63c1,5 2,11 4,16z" id="path_4"/><path fill="#f98824" d="m153,339 l-43,43c-33,33 -55,76 -63,123 -0,3 -3,6 -7,6 -0,0 -0,-0 -1,-0 -4,-0 -7,-4 -6,-8 8,-50 32,-95 68,-131l45,-45c2,4 5,8 9,12z" id="path_5"/></svg>