<svg id="vector" xmlns="http://www.w3.org/2000/svg" width="24.0d" height="24.0d" viewBox="0 0 512.0 512.0"><path fill="#ffcf99" d="M0,330c0,99 115,181 256,181s256,-81 256,-181H0z" id="path_0"/><path fill="#ffe0b3" d="M452,129c-3,-1 -6,-3 -9,-4c-0,-7 -2,-15 -4,-22c-13,-41 -51,-73 -96,-74c-1,-0 -1,-0 -2,-0c-5,0 -10,0 -15,1c-3,-3 -6,-6 -10,-9c-36,-28 -90,-28 -127,0c-4,2 -7,5 -10,9c-5,-0 -10,-1 -15,-1c-1,0 -1,0 -2,0c-45,0 -83,32 -96,74c-2,7 -4,14 -5,22c-3,1 -6,2 -9,4c-30,14 -52,45 -52,81c0,40 28,75 67,86h378c39,-10 67,-46 67,-86C512,175 490,144 459,130z" id="path_1"/><path fill="#ffcf99" d="M445,297c39,-10 67,-46 67,-86c0,-35 -21,-66 -52,-80c-3,-1 -6,-3 -9,-4c-0,-7 -2,-15 -4,-22c-13,-41 -51,-73 -96,-74c-1,-0 -1,-0 -2,-0c-5,0 -10,0 -15,1c-3,-3 -6,-6 -10,-9C301,7 278,0 256,0v297H445z" id="path_2"/><path fill="#ffc380" d="M459,130l-116,94c-2,1 -6,3 -9,3c-4,0 -9,-2 -12,-6c-5,-6 -3,-16 3,-21l120,-97c2,7 4,15 4,22C453,127 456,128 459,130z" id="path_3"/><path fill="#ffcf99" d="M189,221c-3,4 -7,6 -12,6c-3,0 -6,-1 -9,-3l-116,-94c3,-1 6,-3 9,-4c0,-7 2,-15 5,-22l119,96C193,204 194,214 189,221z" id="path_4"/><path fill="#ffc380" d="M348,29l-56,144c-2,6 -7,10 -14,10c-1,0 -3,-0 -4,-0c-8,-2 -12,-11 -9,-19l55,-142c4,2 7,5 10,9c5,-0 10,-1 15,-1C347,28 347,28 348,29z" id="path_5"/><path fill="#ffcf99" d="M238,182c-1,0 -3,0 -4,0c-6,0 -12,-4 -14,-10l-56,-144c1,-0 1,-0 2,-0c5,0 10,0 15,1c3,-3 6,-6 10,-9l55,142C250,171 246,180 238,182z" id="path_6"/><path fill="#f26b7d" d="M347,246H164C62,259 0,290 0,330c0,59 129,90 256,90s256,-31 256,-90C512,290 450,259 347,246z" id="path_7"/><path fill="#db5c6b" d="M347,246h-91v174c126,0 256,-31 256,-90C512,290 450,259 347,246z" id="path_8"/><path fill="#db5c6b" d="M126,342c-6,-5 -6,-15 -1,-21c0,-0 17,-19 43,-33c7,-4 16,-1 20,5c4,7 1,16 -5,20c-21,11 -35,27 -35,27C141,347 132,347 126,342z" id="path_9"/><path fill="#bf515e" d="M364,340c-0,-0 -14,-15 -35,-27c-7,-4 -9,-13 -5,-20c4,-7 13,-9 20,-5c25,14 42,33 43,33c5,6 5,15 -1,21C379,347 370,347 364,340z" id="path_10"/><path fill="#f2f6ff" d="M256,360c-57,0 -105,-47 -105,-105s47,-105 105,-105s105,47 105,105S313,360 256,360z" id="path_11"/><path fill="#e6eeff" d="M361,255c0,-57 -47,-105 -105,-105v210C313,360 361,313 361,255z" id="path_12"/><path fill="#ffffff" d="M226,270c-8,0 -15,-6 -15,-15c0,-24 20,-45 45,-45c8,0 15,6 15,15s-6,15 -15,15c-8,0 -15,6 -15,15C241,264 234,270 226,270z" id="path_13"/><path fill="#f2f6ff" d="M271,225c0,-8 -6,-15 -15,-15v30C264,240 271,234 271,225z" id="path_14"/></svg>