<svg id="vector" xmlns="http://www.w3.org/2000/svg" width="24.0d" height="24.0d" viewBox="0 0 512.0 512.0"><path fill="#ebf4ff" d="m170,7c173,14 320,160 334,334 0,3 -4,5 -6,2 -40,-54 -91,-114 -153,-177 -62,-62 -123,-113 -177,-153 -2,-2 -1,-6 2,-6z" stroke="#000000" stroke-width="12.0" id="path_0"/><path fill="#4f6d8f" d="m361,215 l-65,-65c-4,-4 -4,-11 0,-15l65,-65c4,-4 11,-4 15,0l65,65c4,4 4,11 0,15l-65,65c-4,4 -11,4 -15,0z" stroke="#000000" stroke-width="12.0" id="path_1"/><path fill="#ce9775" d="m18,494c-14,-14 -14,-37 0,-51l285,-285 51,51 -285,285c-14,14 -37,14 -51,0z" stroke="#000000" stroke-width="12.0" id="path_2"/></svg>