<svg id="vector" xmlns="http://www.w3.org/2000/svg" width="24.0d" height="24.0d" viewBox="0 0 512.0 512.0"><path fill="#b3e59f" d="m96,109h320v344h-320z" stroke="#000000" stroke-width="12.0" id="path_0"/><path fill="#eefaff" d="M230,57h-90v-35c0,-8 6,-15 15,-15h60c8,0 15,6 15,15zM371,57h-90v-35c0,-8 6,-15 15,-15h60c8,0 15,6 15,15z" stroke="#000000" stroke-width="12.0" id="path_1"/><path fill="#548eb5" d="M416,72v37h-320v-37c0,-8 6,-15 15,-15h290c8,0 15,6 15,15zM96,454h320v35c0,8 -6,15 -15,15h-290c-8,0 -15,-6 -15,-15z" stroke="#000000" stroke-width="12.0" id="path_2"/><path fill="#fdf172" d="m256,381v-78h-80l80,-131v79h80z" stroke="#000000" stroke-width="12.0" id="path_3"/></svg>