<svg id="vector" xmlns="http://www.w3.org/2000/svg" width="24.0d" height="24.0d" viewBox="0 0 512.0 512.0"><path fill="#80d4ff" d="m480,72.8 l-31.8,-31.8 -212.4,212 2,62 62,2 212,-212.4z" id="path_0"/><path fill="#6aa9ff" d="m511.8,104.6 l-31.8,-31.8 -242,242 62,2z" id="path_1"/><path fill="#dfe7f4" d="m267.7,285 l-32,-32 -84,84 32,32 32,32 84,-84.3z" id="path_2"/><path fill="#404a80" d="m210,342.4c-28,-28 -77.7,-28 -106,0 -42,42 -84,81.8 -84.4,82l-19.8,16.8 25,8c5.8,2 31,10.5 61.8,16 16.4,3 34,5 52,5 27.8,0 54.4,-5 71,-22 14,-14 22,-33 22,-53s-7.8,-38.8 -22,-53z" id="path_3"/><path fill="#283366" d="m210,448.5c14,-14 22,-33 22,-53s-7.8,-38.8 -22,-53l-123,123.3c16.4,3 34,5 52,5 27.8,-0 54.4,-5 71,-22z" id="path_4"/></svg>