<svg id="vector" xmlns="http://www.w3.org/2000/svg" width="24.0d" height="24.0d" viewBox="0 0 512.0 512.0"><path fill="#88df8e" d="M287,11c51,13 97,40 135,78l47,-47c-50,-24 -124,-34 -183,-30zM470,41 l-47,47c37,37 64,84 78,135 4,-58 -5,-133 -30,-183z" stroke="#000000" stroke-width="12.0" id="path_0"/><path fill="#ffc144" d="M423,89c-37,-37 -84,-64 -135,-78 -10,25 -19,60 -27,99 40,4 81,13 112,29zM423,89 l-50,49c15,31 25,72 29,112 38,-7 74,-17 99,-27 -13,-51 -40,-97 -78,-135z" stroke="#000000" stroke-width="12.0" id="path_1"/><path fill="#88df8e" d="M373,139c-31,-15 -72,-25 -112,-29 -3,15 -5,30 -8,46 28,5 56,13 78,24zM373,139 l-41,41c11,22 19,50 24,78 15,-2 31,-5 46,-8 -4,-40 -13,-81 -29,-112z" stroke="#000000" stroke-width="12.0" id="path_2"/><path fill="#ffc144" d="M331,180c-22,-11 -50,-19 -78,-24 -5,38 -8,77 -8,111zM331,180 l-87,87c33,0 73,-2 111,-8 -5,-28 -13,-56 -24,-78z" stroke="#000000" stroke-width="12.0" id="path_3"/><path fill="#ff5d7d" d="M168,329 l-14,-48 -55,50 47,17 0,1c6,-7 13,-14 21,-21zM168,329c-8,7 -15,14 -21,21l13,47 55,-50 -47,-17z" stroke="#000000" stroke-width="12.0" id="path_4"/><path fill="#60a4ff" d="M98,427 l-21,-45 -46,59 48,9c7,-8 14,-15 19,-23zM98,427c-5,7 -11,15 -19,23l1,0 21,45 46,-59 -49,-9z" stroke="#000000" stroke-width="12.0" id="path_5"/><path fill="#88df8e" d="m275,267c-10,0 -21,0 -31,0 -0,-9 0,-20 0,-31l-1,0 -42,11c-4,1 -7,5 -6,10 3,14 11,27 21,37 10,10 22,17 37,21 4,1 9,-1 10,-6l11,-42z" stroke="#000000" stroke-width="12.0" id="path_6"/><path fill="none" d="M16,500l60,-40 M106,420l40,-66 M176,320l36,-26" stroke-linecap="round" stroke="#000000" stroke-width="16.0" id="path_7"/></svg>