<svg id="vector" xmlns="http://www.w3.org/2000/svg" width="24.0d" height="24.0d" viewBox="0 0 512.0 512.0"><path fill="#fee077" d="M241,293a110,110 0,1 0,155 -155a110,110 0,1 0,-155 155z" stroke="#000000" stroke-width="12.0" id="path_0"/><path fill="#e4b052" d="m372,207 l-110,164h227l-116,-165 -110,164h227z" stroke="#000000" stroke-width="12.0" id="path_1"/><path fill="#eac881" d="m372,207 l-110,164h145l-34,-165 -110,165z" stroke="#000000" stroke-width="12.0" id="path_2"/><path fill="#c48958" d="m504,406h-497v-18c0,-8 7,-15 15,-15h465c8,0 15,7 15,15z" stroke="#000000" stroke-width="12.0" id="path_3"/><path fill="#e4b052" d="m197,130 l-161,241h332l-171,-241 -161,241h332z" stroke="#000000" stroke-width="12.0" id="path_4"/><path fill="#eac881" d="m197,130 l-161,241h212l-50,-241 -161,241z" stroke="#000000" stroke-width="12.0" id="path_5"/></svg>