<svg id="vector" xmlns="http://www.w3.org/2000/svg" width="24.0d" height="24.0d" viewBox="0 0 512.0 512.0"><path fill="#fff5f5" d="m60,95h30v60h-30z" id="path_0"/><path fill="#fff5f5" d="m241,95h30v60h-30z" id="path_1"/><path fill="#fff5f5" d="m421,95h30v60h-30z" id="path_2"/><path fill="#198080" d="m512,80h-256l-10,15 10,15h256z" id="path_3"/><path fill="#24b3b3" d="m0,80h256v30h-256z" id="path_4"/><path fill="#ff4d4d" d="m301,210 l-65,-20 20,240 7,-3c2,-1 68,-36 68,-125 0,-42 -15,-73 -30,-91z" id="path_5"/><path fill="#ff884d" d="m211,210c-14,18 -30,49 -30,91 0,88 65,124 68,125l7,3v-220z" id="path_6"/><path fill="#cc295f" d="m256,315c24,0 45,-20 45,-44v-59l-65,-20z" id="path_7"/><path fill="#ff4d4d" d="m211,210v59c0,24 20,45 45,44v-125z" id="path_8"/><path fill="#ece6f2" d="m256,210h44v-30l-65,-20z" id="path_9"/><path fill="#fff5f5" d="m256,160 l-45,20v30h45z" id="path_10"/><path fill="#d7cfe6" d="m301,180 l0,-39h-45l-10,19 10,19z" id="path_11"/><path fill="#ece6f2" d="m211,140h45v39h-45z" id="path_12"/><path fill="#24b3b3" d="m120,210 l-65,-20 20,240 7,-3c2,-1 68,-36 68,-125 0,-42 -15,-73 -30,-91z" id="path_13"/><path fill="#2ee6e6" d="m30,210c-14,18 -30,49 -30,91 0,88 65,124 68,125l7,3v-220z" id="path_14"/><path fill="#198080" d="m75,315c24,0 45,-20 45,-44v-59l-65,-20z" id="path_15"/><path fill="#24b3b3" d="m30,210v59c0,24 20,45 45,44v-125z" id="path_16"/><path fill="#ece6f2" d="m75,210h45v-30l-65,-20z" id="path_17"/><path fill="#fff5f5" d="m75,160 l-45,20v30h45z" id="path_18"/><path fill="#d7cfe6" d="m120,180v-39h-45l-10,19 10,19z" id="path_19"/><path fill="#ece6f2" d="m30,140h45v39h-45z" id="path_20"/><path fill="#bb3333" d="m481,210 l-65,-20 20,240 7,-3c2,-1 68,-36 68,-125 0,-42 -15,-73 -30,-91z" id="path_21"/><path fill="#dd9999" d="m391,210c-14,18 -30,49 -30,91 0,88 65,124 68,125l7,3v-220z" id="path_22"/><path fill="#ff884d" d="m436,315c24,0 45,-20 45,-44v-59l-65,-20z" id="path_23"/><path fill="#bb3333" d="m391,210v59c0,24 20,45 45,44v-125z" id="path_24"/><path fill="#ece6f2" d="m436,210h44v-30l-65,-20z" id="path_25"/><path fill="#fff5f5" d="m436,160 l-45,20v30h45z" id="path_26"/><path fill="#d7cfe6" d="m481,180 l0,-39h-45l-10,19 10,19z" id="path_27"/><path fill="#ece6f2" d="m391,140h45v39h-45z" id="path_28"/></svg>