<svg id="vector" xmlns="http://www.w3.org/2000/svg" width="24.0d" height="24.0d" viewBox="0 0 512.0 512.0"><path fill="#ffda8f" d="m64,17 l-46,46c-10,10 -10,27 0,37l31,31 7,-7 68,-68 7,-7 -31,-31c-10,-10 -27,-10 -37,0z" stroke="#000000" stroke-width="12.0" id="path_0"/><path fill="#b7eabc" d="m272,113c-55,-55 -105,-15 -127,-37l-19,-19 -68,68 19,19c22,22 -18,72 37,127l24,24 40,-40c1,-20 10,-39 24,-53 13,-13 32,-22 53,-24l40,-40z" stroke="#000000" stroke-width="12.0" id="path_1"/><path fill="#ff7d95" d="m407,249 l-111,-111 -40,40c-20,1 -39,10 -53,24 -13,13 -22,32 -24,53l-40,40 111,111 40,-40c20,-1 39,-10 53,-24 13,-13 22,-32 24,-53z" stroke="#000000" stroke-width="12.0" id="path_2"/><path fill="#b7eabc" d="m342,342c-13,13 -32,22 -53,24l-40,40 81,81c8,8 20,13 32,13 25,0 46,-20 46,-46 25,0 46,-20 46,-46 25,0 46,-20 46,-46 0,-12 -5,-24 -13,-32l-81,-81 -40,40c-1,20 -10,39 -24,53z" stroke="#000000" stroke-width="12.0" id="path_3"/></svg>