<svg id="vector" xmlns="http://www.w3.org/2000/svg" width="24.0d" height="24.0d" viewBox="0 0 512.0 512.0"><path fill="#ffcd34" d="m202,23 l16,67h75l16,-67c2,-8 -4,-15 -12,-15h-83c-8,0 -14,7 -12,15z" stroke="#000000" stroke-width="12.0" id="path_0"/><path fill="#d8e6f0" d="m426,365c-3,-29 -68,-90 -100,-118 -10,-9 -17,-23 -17,-37v-59h4c16,0 29,-13 29,-29 0,-16 -13,-29 -29,-29h-114c-16,0 -29,13 -29,29 0,16 13,29 29,29h4v59c0,14 -6,28 -17,37 -31,28 -97,88 -100,118 -4,42 58,138 100,138h138c42,0 105,-96 102,-138z" stroke="#000000" stroke-width="12.0" id="path_1"/><path fill="#7f56af" d="m399,368c-0,-1 -3,-13 -33,-45 -2,-3 -5,-6 -8,-9 1,9 1,19 -5,26 -7,8 -19,9 -30,8 -36,-2 -72,-11 -108,-20 -23,-5 -56,-14 -71,-0 -27,27 -28,39 -28,40 -0,5 1,18 10,36 8,17 19,34 32,48 17,19 28,23 31,23h138c3,0 14,-4 31,-23 12,-13 24,-31 32,-48 8,-18 10,-31 8,-36z" stroke-linejoin="round" stroke="#000000" stroke-width="12.0" id="path_2"/><path fill="#9e71d3" d="m321,349c11,0 23,-0 30,-8 6,-7 6,-16 5,-26 -8,-8 -38,-37 -126,19 30,7 60,14 91,15z" stroke="#000000" stroke-width="12.0" id="path_3"/><path fill="#9e71d3" d="m201,374c0,7 -5,13 -13,13 -7,0 -13,-5 -13,-13 0,-7 5,-13 13,-13 7,0 13,5 13,14z" stroke="#000000" stroke-width="12.0" id="path_4"/><path fill="#9e71d3" d="m277,433c0,8 -7,15 -15,15 -8,0 -15,-7 -15,-15 0,-8 7,-15 15,-15 8,0 15,7 15,15z" stroke="#000000" stroke-width="12.0" id="path_5"/></svg>