<svg id="vector" xmlns="http://www.w3.org/2000/svg" width="24.0d" height="24.0d" viewBox="0 0 512.0 512.0"><path fill="#67c1b0" d="m354,404c0,-54 -77,-98 -173,-98 -95,0 -173,44 -173,98 0,54 77,98 173,98 95,0 173,-44 173,-98z" id="path_0"/><path fill="#67c1b0" d="m504,206c0,-44 -63,-80 -141,-80 -78,0 -141,35 -141,80 0,44 63,80 141,80 78,0 141,-35 141,-80z" id="path_1"/><path fill="#67c1b0" d="M75,170c-18,9 -31,29 -31,51 0,0 0,1 0,2 1,39 60,39 62,0 0,-0 0,-1 0,-2 0,-22 -12,-42 -31,-51zM75,170M183,6c-18,9 -31,29 -31,51 0,0 0,1 0,2 1,39 60,39 62,0 0,-0 0,-1 0,-2 0,-22 -12,-42 -31,-51zM183,6M433,13c-18,9 -31,29 -31,51 0,0 0,1 0,2 1,39 60,39 62,0 0,-0 0,-1 0,-2 0,-22 -12,-42 -31,-51z" stroke="#000000" stroke-width="12.0" id="path_2"/><path fill="#000000" d="m180,458c-22,0 -44,-4 -62,-11 -3,-1 -8,0 -10,4 -1,3 0,8 4,9 20,8 43,13 68,13 30,0 59,-6 81,-19 23,-13 35,-31 35,-50 0,-5 -1,-11 -3,-16 -1,-4 -6,-5 -9,-4s-5,6 -4,9c1,3 2,7 2,10 0,29 -46,54 -101,54z" id="path_3"/><path fill="#000000" d="m255,350c-20,-10 -47,-15 -74,-15 -30,0 -59,6 -81,19 -23,13 -35,31 -35,50 0,10 3,19 10,28 1,2 3,3 6,3 1,0 3,-0 4,-1 3,-2 4,-7 1,-10 -4,-6 -7,-12 -7,-19 0,-29 46,-54 101,-54 24,0 48,5 67,14 3,1 8,0 10,-3 1,-3 0,-8 -3,-10z" id="path_4"/><path fill="#000000" d="m180,388c9,0 19,2 26,6 3,2 8,0 10,-2 2,-3 0,-8 -2,-10 -9,-5 -21,-8 -33,-8 -27,0 -49,13 -49,31 0,17 21,31 49,31 12,0 24,-2 33,-8 3,-2 5,-6 2,-10 -2,-3 -6,-5 -10,-2 -6,3 -16,6 -26,6 -19,0 -34,-8 -34,-16 0,-7 14,-16 34,-16z" id="path_5"/><path fill="#000000" d="m358,218c-7,0 -15,-1 -20,-4 -3,-2 -8,-0 -10,2 -2,3 -0,8 2,10 7,4 17,6 28,6 23,0 42,-11 42,-27 0,-15 -18,-27 -42,-27 -10,0 -20,2 -28,6 -3,2 -5,6 -2,10 2,3 6,5 10,2 5,-3 12,-4 20,-4 16,0 26,7 26,11 0,4 -10,11 -26,11z" id="path_6"/><path fill="#000000" d="m333,167c9,-2 19,-3 29,-3 22,0 43,4 59,13 1,0 2,1 3,1 2,0 5,-1 6,-3 2,-3 0,-8 -2,-10 -18,-10 -41,-15 -66,-15 -11,0 -22,1 -33,3 -4,0 -6,5 -5,9s5,6 9,5z" id="path_7"/><path fill="#000000" d="m440,181c-3,2 -4,7 -1,10 3,4 5,9 5,15 0,23 -37,42 -81,42 -44,0 -81,-19 -81,-42 0,-4 -3,-7 -7,-7 -4,0 -7,3 -7,7 0,32 42,58 96,58 54,0 96,-25 96,-58 0,-8 -2,-16 -8,-24 -2,-3 -7,-4 -10,-1z" id="path_8"/></svg>