<svg id="vector" xmlns="http://www.w3.org/2000/svg" width="24.0d" height="24.0d" viewBox="0 0 512.0 512.0"><path fill="#fced7e" d="m253,333 l-27,10 -27,-10 -10,-62 37,-14 37,14z" stroke="#000000" stroke-width="12.0" id="path_0"/><path fill="#d98f61" d="M380,100h31v248h-31zM38,100h31v248h-31z" stroke="#000000" stroke-width="12.0" id="path_1"/><path fill="#bd6629" d="m442,116h-434l62,-108h310z" stroke="#000000" stroke-width="12.0" id="path_2"/><path fill="#9bb9c3" d="M427,411v-46l-46,-12 -54,12 -8,38 -54,7v46l54,7 8,38h100v-46l-46,-8v-31zM111,399 l-54,12v46l51,13 15,32h100l10,-46 -54,-9v-28l54,-8 -10,-46 -51,-12 -49,12z" stroke="#000000" stroke-width="12.0" id="path_3"/><path fill="#d98f61" d="m342,178h-234c-3,0 -6,-3 -6,-6v-17c0,-3 3,-6 6,-6h234c3,0 6,3 6,6v17c0,3 -3,6 -6,6z" stroke="#000000" stroke-width="12.0" id="path_4"/><path fill="#ffcf64" d="m176,242h97v28h-97z" stroke="#000000" stroke-width="12.0" id="path_5"/><path fill="#fced7e" d="M488,225m-15,0a15,15 0,1 1,30 0a15,15 0,1 1,-30 0" stroke="#000000" stroke-width="12.0" id="path_6"/><path fill="#607882" d="m372,411h54v46h-54z" stroke="#000000" stroke-width="12.0" id="path_7"/><path fill="#607882" d="m23,504h100v-46h-54v-46h54v-46l-50,-10 -50,10z" stroke="#000000" stroke-width="12.0" id="path_8"/><path fill="#607882" d="m225,411h-54v46h54v46h100v-46h-54v-46h54v-46l-48,-10 -52,10z" stroke="#000000" stroke-width="12.0" id="path_9"/><path fill="#9bb9c3" d="m7,333h434v31h-434z" stroke="#000000" stroke-width="12.0" id="path_10"/><path fill="none" d="M70,160h30 M350,160h30 M410,160h30v64h28 M224,180v60" stroke="#000000" stroke-width="12.0" id="path_11"/><path fill="none" d="M20,412h400 M20,458h400" stroke="#000000" stroke-width="12.0" id="path_12"/></svg>