<svg id="vector" xmlns="http://www.w3.org/2000/svg" width="24.0d" height="24.0d" viewBox="0 0 512.0 512.0"><path fill="#e7ecf6" d="m182,348 l25,67c2,7 11,10 18,6 15,-9 24,-26 24,-44v-40z" stroke="#000000" stroke-width="12.0" id="path_0"/><path fill="#d8e2f1" d="m498,361 l-270,-42 148,-42 125,75c4,3 2,10 -3,9z" stroke="#000000" stroke-width="12.0" id="path_1"/><path fill="#e7ecf6" d="m500,288c5,-1 4,-8 -0,-9 -41,-10 -142,-37 -187,-64 -12,-7 -22,-15 -29,-23 -13,-14 -29,-25 -48,-31l-44,-15c-6,-2 -11,-6 -15,-12l-40,-61c-7,-11 -17,-21 -28,-28 -4,-2 -8,-5 -12,-6 -27,-9 -60,-4 -69,22 -4,11 -1,25 4,36 4,8 21,5 28,11 4,3 8,8 11,22l9,127c-0,41 21,81 59,103 33,19 72,20 105,6z" stroke="#000000" stroke-width="12.0" id="path_2"/><path fill="#365e7d" d="m236,300c0,-1 1,-1 2,-1 3,1 6,2 10,2 15,1 29,-9 34,-23 0,-1 1,-1 2,-1 3,1 7,2 11,2 18,1 34,-12 36,-31l0,-0c0,-1 1,-2 2,-1 2,1 5,1 8,1 9,0 18,-2 25,-8 -22,-8 -42,-16 -56,-25 -4,-2 -8,-5 -12,-8 -4,13 -17,23 -32,23 -1,0 -2,-0 -3,-0 -1,-0 -2,0 -2,2 0,1 0,2 0,3 0,18 -15,33 -33,33 -2,0 -4,-0 -6,-0 -1,-0 -3,0 -3,2l-0,0c-1,17 -15,31 -33,31 -3,0 -6,-0 -9,-1 -1,-0 -2,0 -2,1 -1,12 -10,23 -21,27 -1,0 -1,3 -0,3 3,1 7,2 11,3 12,0 24,-5 30,-15 0,-0 1,-1 2,-0 2,0 3,0 6,1 15,1 28,-8 33,-21z" stroke="#000000" stroke-width="12.0" id="path_3"/><path fill="none" d="M20,80l-10,5 M220,430v20 M150,454h114 M220,450l-40,40" stroke-linecap="round" stroke="#000000" stroke-width="16.0" id="path_4"/></svg>