<svg id="vector" xmlns="http://www.w3.org/2000/svg" width="24.0d" height="24.0d" viewBox="0 0 512.0 512.0"><path fill="#c8e27c" d="M10,359c73,-1 131,47 153,114h191C267,348 136,278 10,281v62V359zM10,252c99,-8 328,31 492,197v-106c-32,-17 -64,-33 -94,-47c-34,-15 -67,-27 -99,-38c-31,-10 -60,-18 -87,-24C110,208 32,212 10,219V252zM407,296c25,-9 61,-13 94,-5v-46c-78,-17 -173,-5 -217,7C315,261 373,281 407,296z" stroke="#000000" stroke-width="12.0" id="path_0"/><path fill="#5bd185" d="M308,258c44,-12 115,-20 193,-3v-36c-38,-12 -189,-32 -281,15C248,240 277,248 308,258zM163,473C141,407 83,357 10,359v114h153V473zM10,297c126,-3 237,50 324,176h167v-23C338,283 109,243 10,251V297zM502,291c-33,-7 -69,-3 -94,6c30,13 62,29 94,46V291z" stroke="#000000" stroke-width="12.0" id="path_1"/><path fill="#ffc16d" d="M171,77m-39,0a39,39 0,1 1,78 0a39,39 0,1 1,-78 0" stroke="#000000" stroke-width="12.0" id="path_2"/></svg>