<svg id="vector" xmlns="http://www.w3.org/2000/svg" width="24.0d" height="24.0d" viewBox="0 0 512.0 512.0"><path fill="#9dc6fb" d="m469,393c-17,0 -17,-12 -35,-12 -17,0 -17,12 -35,12 -17,0 -17,-12 -35,-12 -13,0 -16,7 -25,10l167,83v-94c-17,0 -17,12 -35,12z" stroke="#000000" stroke-width="12.0" id="path_0"/><path fill="#f1d59d" d="m306,376c-85,-42 -185,-46 -273,-10l-25,10v99h497z" stroke="#000000" stroke-width="12.0" id="path_1"/><path fill="#e28086" d="m368,218c-7,-70 -75,-143 -151,-162s-170,14 -209,73z" stroke="#000000" stroke-width="12.0" id="path_2"/><path fill="#f9f6f9" d="M217,56c21,5 31,63 22,130l76,18c-0,-68 -44,-135 -98,-149s-124,25 -156,86l76,18c22,-63 58,-110 80,-105z" stroke="#000000" stroke-width="12.0" id="path_3"/><path fill="none" d="M252,396h-10M267,441h-10M368,439h-10M44,432h-10M157,443h-10 M220,50l3,-10 M190,180l-60,200" stroke-linecap="round" stroke="#000000" stroke-width="12.0" id="path_4"/></svg>