<svg width="100" height="100" viewBox="0 0 100 100" fill="none" xmlns="http://www.w3.org/2000/svg">
<g clip-path="url(#clip0_8_44)">
<path d="M1.95312 1.95312H98.0469V98.0469H1.95312V1.95312Z" fill="#8B8B8B" stroke="black" stroke-width="0.75"/>
<path d="M81.6406 89.4531H18.1641C14.0625 89.4531 10.5469 86.1328 10.5469 81.8359V18.3594C10.5469 14.2578 13.8672 10.7422 18.1641 10.7422H81.6406C85.7422 10.7422 89.2578 14.0625 89.2578 18.3594V81.8359C89.2578 85.9375 85.9375 89.4531 81.6406 89.4531Z" fill="#60615F" stroke="black" stroke-width="0.75"/>
<path d="M43.5753 28.4659V27.0128L47.2188 21.2727H48.4716V23.2841H47.7301L45.4332 26.919V26.9872H50.6108V28.4659H43.5753ZM47.7642 30V28.0227L47.7983 27.3793V21.2727H49.5284V30H47.7642ZM52.1854 30L55.8033 22.8409V22.7812H51.5888V21.2727H57.7124V22.8026L54.0902 30H52.1854Z" fill="white"/>
<path d="M30.5426 72H23.9517L33.9943 42.9091H41.9205L51.9489 72H45.358L38.071 49.5568H37.8438L30.5426 72ZM30.1307 60.5653H45.6989V65.3665H30.1307V60.5653ZM64.1506 80.6364C62.1903 80.6364 60.5095 80.3665 59.108 79.8267C57.7159 79.2964 56.608 78.572 55.7841 77.6534C54.9602 76.7348 54.4252 75.7027 54.179 74.5568L59.7756 73.804C59.946 74.2396 60.2159 74.6468 60.5852 75.0256C60.9545 75.4044 61.4422 75.7074 62.0483 75.9347C62.6638 76.1714 63.4119 76.2898 64.2926 76.2898C65.6089 76.2898 66.6932 75.9678 67.5455 75.3239C68.4072 74.6894 68.8381 73.6241 68.8381 72.1278V68.1364H68.5824C68.3172 68.7424 67.9195 69.3153 67.3892 69.8551C66.8589 70.3949 66.1771 70.8352 65.3438 71.1761C64.5104 71.517 63.5161 71.6875 62.3608 71.6875C60.7225 71.6875 59.2311 71.3087 57.8864 70.5511C56.5511 69.7841 55.4858 68.6146 54.6903 67.0426C53.9044 65.4612 53.5114 63.4631 53.5114 61.0483C53.5114 58.5767 53.9138 56.5123 54.7188 54.8551C55.5237 53.1979 56.5938 51.9574 57.929 51.1335C59.2737 50.3097 60.7462 49.8977 62.3466 49.8977C63.5682 49.8977 64.5909 50.1061 65.4148 50.5227C66.2386 50.9299 66.9015 51.4413 67.4034 52.0568C67.9148 52.6629 68.3078 53.2595 68.5824 53.8466H68.8097V50.1818H74.8182V72.2131C74.8182 74.0691 74.3636 75.6222 73.4545 76.8722C72.5455 78.1222 71.286 79.0597 69.6761 79.6847C68.0758 80.3191 66.2339 80.6364 64.1506 80.6364ZM64.2784 67.142C65.2538 67.142 66.0777 66.9006 66.75 66.4176C67.4318 65.9252 67.9527 65.2244 68.3125 64.3153C68.6818 63.3968 68.8665 62.2983 68.8665 61.0199C68.8665 59.7415 68.6866 58.6335 68.3267 57.696C67.9669 56.7491 67.446 56.0152 66.7642 55.4943C66.0824 54.9735 65.2538 54.7131 64.2784 54.7131C63.2841 54.7131 62.446 54.983 61.7642 55.5227C61.0824 56.053 60.5663 56.7917 60.2159 57.7386C59.8655 58.6856 59.6903 59.7794 59.6903 61.0199C59.6903 62.2794 59.8655 63.3684 60.2159 64.2869C60.5758 65.196 61.0919 65.9015 61.7642 66.4034C62.446 66.8958 63.2841 67.142 64.2784 67.142Z" fill="white"/>
</g>
<defs>
<clipPath id="clip0_8_44">
<rect width="100" height="100" fill="white"/>
</clipPath>
</defs>
</svg>
