<svg id="vector" xmlns="http://www.w3.org/2000/svg" width="24.0d" height="24.0d" viewBox="0 0 512.0 512.0"><path fill="#ed4c74" d="M287,134C235,149 193,200 193,256s42,106 94,121C340,362 383,311 383,256S340,149 287,134z" id="path_0"/><path fill="#000000" d="M34,144c4,2 11,0 13,-4c1,-2 2,-5 4,-7C60,137 70,140 80,140c33,0 60,-27 60,-60s-27,-60 -60,-60S20,47 20,80c0,15 5,29 16,40c-2,3 -4,6 -5,10C27,135 29,141 34,144zM80,40c22,0 40,18 40,40s-18,40 -40,40c-9,0 -17,-3 -25,-8C45,103 40,92 40,80C40,58 58,40 80,40z" id="path_1"/><path fill="none" d="M500,256l-1,21M491,319l-6,20M467,378l-12,17M428,428l-16,14M377,467l-18,10M319,491l-21,5M256,500l-21,-1M193,491l-20,-6M134,467l-17,-12M84,428l-14,-16M45,377l-10,-18M21,319l-5,-21M12,256l1,-21M21,193l6,-20M45,134l12,-17M84,84l16,-14M135,45l18,-10M193,21l21,-5M256,12l21,1M319,21l20,6M378,45l17,12M428,84l14,16M467,135l10,18M491,193l5,21" stroke-linecap="round" stroke="#000000" stroke-width="20.0" id="path_2"/><path fill="#000000" d="M256,120c-71,0 -136,64 -136,136c0,71 64,136 136,136c71,0 137,-64 137,-136C393,184 328,120 256,120zM256,372c-60,0 -116,-55 -116,-116s55,-116 116,-116c61,0 117,55 117,116S317,372 256,372z" id="path_3"/><path fill="#000000" d="M296,246h-30v-30c0,-5 -4,-10 -10,-10s-10,4 -10,10v30h-30c-5,0 -10,4 -10,10s4,10 10,10h30v30c0,5 4,10 10,10c5,0 10,-4 10,-10v-30h30c5,0 10,-4 10,-10S301,246 296,246z" id="path_4"/></svg>