<svg width="100" height="100" viewBox="0 0 100 100" fill="none" xmlns="http://www.w3.org/2000/svg">
<g clip-path="url(#clip0_8_44)">
<g clip-path="url(#clip1_8_44)">
<path fill-rule="evenodd" clip-rule="evenodd" d="M11.53 78.45L34.91 10.23C35.1 9.47999 34.99 9.05999 34.51 8.95999C33.6379 8.79113 32.8512 8.32511 32.2842 7.64133C31.7171 6.95755 31.4046 6.09831 31.4 5.20999C31.4026 4.20033 31.8049 3.23278 32.5188 2.51883C33.2328 1.80489 34.2003 1.40263 35.21 1.39999H64.79C65.7997 1.40263 66.7672 1.80489 67.4812 2.51883C68.1951 3.23278 68.5974 4.20033 68.6 5.20999C68.6047 6.10518 68.2964 6.97387 67.7285 7.66591C67.1607 8.35794 66.3689 8.82982 65.49 8.99999C65.01 9.09999 64.91 9.51999 65.09 10.26L88.47 78.45C91 85.79 89.68 98.6 76.84 98.6H23.16C10.32 98.6 8.99999 85.79 11.53 78.45Z" fill="white"/>
<path d="M43.52 56.97C45.3481 56.97 46.83 55.4881 46.83 53.66C46.83 51.8319 45.3481 50.35 43.52 50.35C41.6919 50.35 40.21 51.8319 40.21 53.66C40.21 55.4881 41.6919 56.97 43.52 56.97Z" fill="#007DF2" fill-opacity="0.88"/>
<path fill-rule="evenodd" clip-rule="evenodd" d="M68.59 58.07C70.1208 58.07 71.6173 58.524 72.8901 59.3744C74.163 60.2249 75.155 61.4337 75.7408 62.848C76.3267 64.2623 76.4799 65.8186 76.1813 67.32C75.8826 68.8214 75.1455 70.2006 74.063 71.283C72.9806 72.3655 71.6014 73.1026 70.1 73.4013C68.5986 73.6999 67.0423 73.5467 65.628 72.9608C64.2137 72.375 63.0049 71.383 62.1544 70.1101C61.304 68.8373 60.85 67.3408 60.85 65.81C60.8527 63.758 61.669 61.7909 63.1199 60.3399C64.5709 58.889 66.538 58.0727 68.59 58.07Z" fill="#007DF2" fill-opacity="0.88"/>
<path fill-rule="evenodd" clip-rule="evenodd" d="M15.94 89.57C14.9145 86.459 14.9356 83.0979 16 80L23.27 58.77H76.77L84 80C85.0516 83.1136 85.0516 86.4864 84 89.6C83.06 91.99 81.2 93.95 76.79 93.95H23.16C18.74 93.92 16.88 92 15.94 89.57Z" fill="#207EFA" fill-opacity="0.76"/>
<path fill-rule="evenodd" clip-rule="evenodd" d="M37.83 53.18C39.3969 53.178 40.9291 53.6408 42.2328 54.5099C43.5366 55.379 44.5533 56.6152 45.1543 58.0622C45.7552 59.5092 45.9135 61.102 45.609 62.639C45.3046 64.176 44.5511 65.5881 43.4438 66.6967C42.3366 67.8054 40.9254 68.5607 39.3888 68.8671C37.8522 69.1735 36.2592 69.0172 34.8115 68.4181C33.3637 67.8189 32.1262 66.8038 31.2555 65.5012C30.3848 64.1985 29.92 62.6669 29.92 61.1C29.9226 59.002 30.7565 56.9906 32.2391 55.5062C33.7217 54.0217 35.732 53.1853 37.83 53.18Z" fill="#206CFA" fill-opacity="0.83"/>
<path fill-rule="evenodd" clip-rule="evenodd" d="M55.26 67.86C56.5851 67.86 57.8805 68.2529 58.9823 68.9892C60.0841 69.7254 60.9429 70.7718 61.45 71.996C61.9571 73.2203 62.0898 74.5674 61.8313 75.8671C61.5727 77.1668 60.9346 78.3606 59.9976 79.2976C59.0606 80.2346 57.8668 80.8727 56.5671 81.1313C55.2674 81.3898 53.9203 81.2571 52.696 80.75C51.4718 80.2429 50.4254 79.3841 49.6891 78.2823C48.9529 77.1805 48.56 75.8851 48.56 74.56C48.5626 72.7839 49.2694 71.0812 50.5253 69.8253C51.7812 68.5694 53.4839 67.8626 55.26 67.86Z" fill="#206CFA" fill-opacity="0.83"/>
<path fill-rule="evenodd" clip-rule="evenodd" d="M58.69 53.65C59.9483 53.65 61.1783 54.0233 62.2245 54.7225C63.2706 55.4218 64.0857 56.4157 64.5668 57.5784C65.0479 58.7412 65.1733 60.0205 64.927 61.2545C64.6808 62.4884 64.0741 63.6217 63.1836 64.5107C62.2932 65.3998 61.159 66.0047 59.9246 66.249C58.6902 66.4933 57.4112 66.3659 56.2492 65.883C55.0872 65.4001 54.0946 64.5834 53.397 63.5361C52.6993 62.4889 52.328 61.2583 52.33 60C52.3326 58.315 53.0039 56.6998 54.1963 55.5093C55.3888 54.3187 57.0049 53.65 58.69 53.65Z" fill="#206CFA" fill-opacity="0.83"/>
<path fill-rule="evenodd" clip-rule="evenodd" d="M48 56.39C48.7314 56.392 49.4457 56.6107 50.0529 57.0184C50.66 57.4262 51.1327 58.0047 51.4112 58.681C51.6897 59.3572 51.7616 60.1009 51.6177 60.8179C51.4738 61.535 51.1206 62.1934 50.6028 62.7098C50.0849 63.2263 49.4256 63.5777 48.7082 63.7196C47.9907 63.8616 47.2473 63.7877 46.5718 63.5074C45.8963 63.227 45.319 62.7528 44.9129 62.1446C44.5068 61.5363 44.29 60.8214 44.29 60.09C44.29 59.6033 44.386 59.1213 44.5726 58.6718C44.7592 58.2222 45.0326 57.8139 45.3772 57.4702C45.7219 57.1265 46.1309 56.8541 46.581 56.6688C47.0311 56.4834 47.5133 56.3887 48 56.39Z" fill="#206CFA" fill-opacity="0.83"/>
<path fill-rule="evenodd" clip-rule="evenodd" d="M10.2 78L33.49 10.05L32.49 9.68C31.5088 9.0926 30.7481 8.19867 30.3253 7.13611C29.9025 6.07355 29.841 4.90139 30.1504 3.80043C30.4597 2.69948 31.1227 1.73089 32.0371 1.04407C32.9515 0.357254 34.0664 -0.00963268 35.21 1.91382e-06H64.79C65.9293 0.00140334 67.0367 0.376189 67.9426 1.06697C68.8486 1.75774 69.5031 2.72643 69.806 3.82467C70.109 4.92292 70.0436 6.09019 69.6199 7.14773C69.1961 8.20526 68.4375 9.09476 67.46 9.68L66.51 10.05L89.8 78C92.49 85.86 91.12 100 76.8 100H23.16C8.78001 100 7.54001 85.75 10.2 78ZM87.14 78.91L63.74 10.62V10.55C63.6583 10.2434 63.6179 9.92728 63.62 9.61C63.6106 9.14211 63.7655 8.68572 64.0579 8.32029C64.3502 7.95485 64.7615 7.7035 65.22 7.61C65.8191 7.51474 66.36 7.19612 66.7337 6.71824C67.1074 6.24036 67.2863 5.63867 67.2343 5.03424C67.1824 4.42981 66.9035 3.86748 66.4537 3.46038C66.0039 3.05328 65.4166 2.83162 64.81 2.84H35.21C34.6034 2.83162 34.0161 3.05328 33.5663 3.46038C33.1166 3.86748 32.8376 4.42981 32.7857 5.03424C32.7337 5.63867 32.9126 6.24036 33.2863 6.71824C33.66 7.19612 34.2009 7.51474 34.8 7.61C35.2586 7.7035 35.6698 7.95485 35.9621 8.32029C36.2545 8.68572 36.4094 9.14211 36.4 9.61C36.4011 9.94699 36.3608 10.2828 36.28 10.61V10.68L12.86 78.91C10.53 85.72 11.76 97.19 23.16 97.19H76.84C88.13 97.19 89.51 85.83 87.14 78.91Z" fill="#121212"/>
<path fill-rule="evenodd" clip-rule="evenodd" d="M71.14 55.09C71.8564 55.09 72.5567 55.3026 73.1522 55.7008C73.7477 56.099 74.2117 56.665 74.4854 57.327C74.7591 57.9891 74.8302 58.7174 74.6897 59.4199C74.5492 60.1224 74.2034 60.7674 73.6962 61.2733C73.1889 61.7791 72.543 62.1231 71.8401 62.2617C71.1372 62.4002 70.409 62.3271 69.7477 62.0516C69.0865 61.776 68.5218 61.3105 68.1252 60.7139C67.7287 60.1173 67.518 59.4164 67.52 58.7C67.52 58.2251 67.6137 57.7548 67.7958 57.3162C67.9778 56.8776 68.2446 56.4791 68.5809 56.1438C68.9172 55.8084 69.3163 55.5427 69.7554 55.3619C70.1946 55.1811 70.6651 55.0887 71.14 55.09Z" fill="#007DF2" fill-opacity="0.88"/>
</g>
</g>
<defs>
<clipPath id="clip0_8_44">
<rect width="100" height="100" fill="white"/>
</clipPath>
<clipPath id="clip1_8_44">
<rect width="100" height="100" fill="white"/>
</clipPath>
</defs>
</svg>
