<svg id="vector" xmlns="http://www.w3.org/2000/svg" width="24.0d" height="24.0d" viewBox="0 0 512.0 512.0"><path fill="#a9db1f" d="m271,181h-78c-65,0 -118,-53 -118,-118v-63h63c65,0 118,53 118,118z" id="path_0"/><path fill="#6bc800" d="m256,181h63c65,0 118,-53 118,-118v-63h-63c-65,0 -118,53 -118,118z" id="path_1"/><path fill="#ffe3c0" d="m241,255v49l-53,53 21,21 31,-31v53l-53,53 21,21 31,-31v68h15l8,-256z" id="path_2"/><path fill="#fcd0a2" d="m271,347 l31,31 21,-21 -53,-53v-49h-15v256h15v-68l31,31 21,-21 -53,-53z" id="path_3"/><path fill="#6bc800" d="m175,80 l-21,21 86,86v67h23l-8,-95z" id="path_4"/><path fill="#00a400" d="M336,80 l-80,80v95h15v-67l86,-86zM0,240v30h256l15,-15 -15,-15z" id="path_5"/><path fill="#006c00" d="m256,240h256v30h-256z" id="path_6"/></svg>