<svg id="vector" xmlns="http://www.w3.org/2000/svg" width="24.0d" height="24.0d" viewBox="0 0 512.0 512.0"><path fill="#54469d" d="m466.1,109.6c28.9,41.4 45.9,91.9 45.9,146.3 0,86.9 -43.3,163.7 -109.5,209.9 -3.7,2.6 -16,-4.8 -20,-2.3 -39,24.3 -74,39.8 -123.5,39.8 -50.7,0 -87.4,-16.4 -127.2,-41.8 -2.9,-1.8 -19.2,6.4 -22.1,4.4 -66.2,-46.2 -109.5,-123 -109.5,-209.9 0,-54.4 16.9,-104.8 45.9,-146.3 1.9,-2.7 418.2,-2.7 420.2,0z" id="path_0"/><path fill="#4bcd5c" d="m446.4,111.2 l-190.4,208.5 -191,-209.5s-1.5,-23.3 8.5,-33.6c11.5,-11.7 24.2,-22.3 37.8,-31.7 0.6,-0.4 288.9,-0.4 289.6,0 13.6,9.3 26.2,20 37.8,31.7 10,10.2 7.8,34.6 7.8,34.6z" id="path_1"/><path fill="#00c53b" d="m243.3,307 l-197.4,-197.4c8.2,-11.7 17.4,-22.8 27.4,-33z" id="path_2"/><path fill="#74d579" d="m438.6,76.6c10,10.2 19.2,21.2 27.4,33l-197.4,197.4z" id="path_3"/><path fill="#ff73c6" d="m321.2,8.3c16,4.2 31.4,9.9 46,17 11.7,5.6 18.2,24.8 18.2,24.8l-129.5,269.5 -127,-267s4,-21.7 15.8,-27.4c14.6,-7 30,-12.7 46,-17 1.2,-0.3 65.2,115.5 65.2,115.5s63.9,-115.8 65.2,-115.5z" id="path_4"/><path fill="#ff4fb8" d="m144.7,25.3 l111.2,294.4 -144.8,-274.9c10.6,-7.3 21.8,-13.8 33.5,-19.4z" id="path_5"/><path fill="#ff94d4" d="m367.2,25.3c11.7,5.6 22.9,12 33.5,19.4l-144.8,274.9z" id="path_6"/><path fill="#fff261" d="m256,0c22.5,0 44.4,2.9 65.2,8.3l-65.2,311.4 -65.2,-311.4c20.8,-5.4 42.6,-8.3 65.2,-8.3z" id="path_7"/><path fill="#fff587" d="m256,0c22.5,0 44.4,2.9 65.2,8.3l-31.7,151.7c-4.2,20.2 -33,20.2 -37.4,0l-32.9,-157.4c12,-1.7 24.4,-2.6 36.9,-2.6z" id="path_8"/><path fill="#fed2a4" d="m146,347.3c-13.8,0 -25,-11 -25,-25v-10c0,-13.8 11,-25 25,-25 13.8,0 25,11 25,25v10c0,13.8 -11,25 -25,25z" id="path_9"/><path fill="#f6a96c" d="m166,437.3h32.5c-28.6,0 -53.2,17.2 -64,41.8 -0.4,0.9 -1.4,1.2 -2.3,0.8 -7.7,-4.3 -15.2,-9 -22.5,-14 12.7,-17.3 33.2,-28.6 56.4,-28.6z" id="path_10"/><path fill="#ffbd86" d="m341,322.3v-10c0,-13.8 11,-25 25,-25s25,11 25,25v10c0,13.8 -11,25 -25,25s-25,-11 -25,-25zM136,327.3v-20c0,-8 3.9,-15.4 10,-20 -13.8,0 -25,11 -25,25v10c0,13.8 11,25 25,25 -6,-4.5 -10,-11.8 -10,-20zM346,437.3h-60v-30h-26.8c-44.3,-15.6 -76,-57.8 -76,-107.5v-41.4c0,-9.3 -0.9,-27 -0.9,-27h-22.6c-4.4,0 -8.4,2.9 -9.6,7.2 -2.5,9.2 -3.8,18.8 -3.8,28.8v40c0,50.3 33.8,92.8 80,105.8v24h-30c-28.8,0 -53.6,17.4 -64.3,42.4 36.8,20.5 79.2,32 124.3,32 54.4,0 104.9,-17 146.4,-46 -12.7,-17.3 -33.2,-28.6 -56.4,-28.6z" id="path_11"/><path fill="#ffffff" d="m263.5,102.5v81c0,4 -3.3,7.5 -7.5,7.5s-7.5,-3.3 -7.5,-7.5v-81c0,-4 3.3,-7.5 7.5,-7.5s7.5,3.3 7.5,7.5zM256,37.7c-4,0 -7.5,3.3 -7.5,7.5v20.6c0,4 3.3,7.5 7.5,7.5s7.5,-3.3 7.5,-7.5v-20.6c0,-4 -3.3,-7.5 -7.5,-7.5z" id="path_12"/><path fill="#afe6af" d="m165.9,181.6 l-54.8,-59.8c-2.8,-3 -7.5,-3.2 -10.6,-0.4 -3,2.8 -3.2,7.5 -0.4,10.6l54.8,59.8c0.9,1 2,1.7 3.2,2 2.4,0.7 5.2,0.2 7.3,-1.6 3,-2.8 3.2,-7.5 0.4,-10.6zM347,192.2c2,1.8 4.8,2.4 7.3,1.6 1.2,-0.3 2.3,-1 3.2,-2l54.8,-59.8c2.8,-3 2.5,-7.8 -0.4,-10.6 -3,-2.8 -7.8,-2.5 -10.6,0.4l-54.8,59.8c-2.8,3 -2.5,7.8 0.4,10.6z" id="path_13"/><path fill="#ffc7e8" d="m187.6,104c-1.2,-3.9 -5.5,-6.1 -9.4,-4.8 -3.9,1.2 -6.1,5.5 -4.8,9.4l11.9,37c0.8,2.6 3,4.4 5.5,5 1.2,0.2 2.5,0.2 3.8,-0.2 3.9,-1.2 6.1,-5.5 4.8,-9.4zM312.8,141c-1.2,3.9 0.8,8 4.8,9.4 1.3,0.4 2.6,0.4 3.8,0.2 2.5,-0.5 4.7,-2.3 5.5,-5l11.9,-37c1.2,-3.9 -0.8,-8 -4.8,-9.4 -3.9,-1.2 -8,0.8 -9.4,4.8z" id="path_14"/><path fill="#fed2a4" d="m352.5,231.2c4.4,0 8.4,2.9 9.6,7.2 2.5,9.2 3.8,18.8 3.8,28.8v40c0,50.7 -34.4,93.5 -81.2,106 -9,2.4 -18.5,2.4 -27.5,0 -46.7,-12.6 -81.2,-55.4 -81.2,-106v-40c0,-12.6 2,-24.8 6,-36z" id="path_15"/><path fill="#ea9b58" d="m234.4,259c2.9,2.9 2.9,7.6 0,10.6 -5.3,5.3 -12.4,8 -19.4,8s-14,-2.6 -19.4,-8c-2.9,-2.9 -2.9,-7.6 0,-10.6 2.9,-2.9 7.6,-2.9 10.6,-0 4.8,4.8 12.8,4.8 17.6,0 2.9,-2.9 7.6,-2.9 10.6,0zM316.4,259c-2.9,-2.9 -7.6,-2.9 -10.6,-0 -4.8,4.8 -12.8,4.8 -17.6,0 -2.9,-2.9 -7.6,-2.9 -10.6,0 -2.9,2.9 -2.9,7.6 0,10.6 5.3,5.3 12.4,8 19.4,8s14,-2.6 19.4,-8c2.9,-2.9 2.9,-7.6 0,-10.6z" id="path_16"/><path fill="#f6a96c" d="m241.5,314.1c-2.9,-2.9 -2.9,-7.6 0,-10.6 2.9,-2.9 7.6,-2.9 10.6,0 1,1 2.4,1.6 3.8,1.6s2.8,-0.5 3.8,-1.6c2.9,-2.9 7.6,-2.9 10.6,0 2.9,2.9 2.9,7.6 0,10.6 -3.8,3.8 -9,6 -14.5,6s-10.6,-2 -14.5,-6zM286.3,341.7c-2.9,-2.9 -7.6,-2.9 -10.6,0 -10.8,10.8 -28.5,10.8 -39.3,0 -2.9,-2.9 -7.6,-2.9 -10.6,0 -2.9,2.9 -2.9,7.6 0,10.6 8.3,8.3 19.3,12.5 30.3,12.5s21.9,-4 30.3,-12.5c2.9,-2.9 2.9,-7.6 0,-10.6z" id="path_17"/></svg>