<svg id="vector" xmlns="http://www.w3.org/2000/svg" width="24.0d" height="24.0d" viewBox="0 0 512.0 512.0"><path fill="#57555c" d="M425,35l51,51c-54,63 -70,119 -104,173h-0l-2,-1L252,142l-1,-2C305,107 361,91 425,35z" stroke="#000000" stroke-width="16.0" id="path_0"/><path fill="#fd6244" d="M496,50c6,6 7,16 3,24l-13,22c-9,-9 -62,-62 -70,-70l22,-13c7,-4 18,-3 24,3L496,50zM369,259l2,1c-19,31 -44,62 -79,90L160,220c28,-35 59,-60 90,-79l1,2L369,259z" stroke="#000000" stroke-width="16.0" id="path_1"/><path fill="#57555c" d="M292,351l-55,37c-31,21 -49,34 -57,61c-13,43 -48,58 -72,49c-17,-6 -39,-27 -52,-41c-13,-13 -34,-34 -41,-52c-9,-24 6,-59 49,-72c26,-8 40,-26 61,-57l37,-55L292,351z" stroke="#000000" stroke-width="16.0" id="path_2"/></svg>