<svg id="vector" xmlns="http://www.w3.org/2000/svg" width="24.0d" height="24.0d" viewBox="0 0 402.0 402.0"><path fill="#eac583" d="m166,130 l-35,35 -57,-25c-13,-5 -25,-14 -35,-24l-26,-26c-4,-4 -6,-11 -4,-17l5,-16c0,-1 1,-3 2,-4 9,-13 23,-26 36,-36 1,-1 3,-2 5,-2l15,-5c6,-1 12,-0 16,4l27,27c9,9 17,21 23,33z" stroke="#000000" stroke-width="12.0" id="path_0"/><path fill="#8c6b37" d="m139,158 l19,-19 217,217 -19,19z" stroke="#000000" stroke-width="12.0" id="path_1"/><path fill="#8c6b37" d="m392,368 l-24,24c-4,4 -10,4 -14,0 -4,-4 -4,-10 0,-14l24,-24c4,-4 10,-4 14,0 4,4 4,10 0,14z" stroke="#000000" stroke-width="12.0" id="path_2"/></svg>