<svg id="vector" xmlns="http://www.w3.org/2000/svg" width="24.0d" height="24.0d" viewBox="0 0 512.0 512.0"><path fill="#fef0ae" d="m145,504c-19,0 -34,-17 -34,-39v-243c0,-5 1,-10 3,-15l20,-45 17,-36h212l13,36 20,45c2,4 3,10 3,15v243c0,21 -15,39 -34,39z" stroke="#000000" stroke-width="12.0" id="path_0"/><path fill="#e9b665" d="m390,108h-15,-240 -13c-5,0 -10,4 -10,10v31c0,5 4,10 10,10h166v-18h25v18h76c5,0 10,-4 10,-10v-31c-0,-5 -4,-10 -10,-10z" stroke="#000000" stroke-width="12.0" id="path_1"/><path fill="#fed402" d="m375,71h-96c-4,0 -8,-3 -8,-8v-63h-30v63c0,4 -3,8 -8,8h-97c-9,0 -17,8 -17,17 0,9 8,17 17,17h23c7,0 13,6 13,13v15,49c0,8 6,15 14,15 8,0 15,-6 15,-15v-46c0,-4 3,-7 7,-7l39,0c4,0 7,3 7,7v121c0,8 6,15 15,15 8,0 15,-6 15,-15v-23c0,-8 6,-15 15,-15 8,0 15,6 15,15v63c0,8 6,15 15,15 8,0 15,-6 15,-15v-169,-14c0,-5 4,-10 10,-10h19c9,0 17,-8 17,-17 -0,-9 -8,-17 -17,-17zM315,178c0,8 -6,15 -15,15 -8,0 -15,-6 -15,-15v-23c0,-8 6,-15 15,-15 8,0 15,6 15,15z" stroke="#000000" stroke-width="16.0" id="path_2"/><path fill="#fedf30" d="m400,397v67c0,21 -15,39 -34,39h-220c-19,0 -34,-17 -34,-39v-67l37,13c10,3 21,3 32,0l18,-5c11,-3 24,-3 35,1 6,2 13,4 20,4s13,-1 20,-4c6,-2 13,-4 20,-4 5,0 10,0 15,2l18,5c10,3 21,3 32,-0l37,-13z" stroke="#000000" stroke-width="12.0" id="path_3"/></svg>