<svg id="vector" xmlns="http://www.w3.org/2000/svg" width="24.0d" height="24.0d" viewBox="0 0 512.0 512.0"><path fill="none" d="m256,91v-41" stroke="#9d9696" stroke-width="12.0" id="path_0"/><path fill="none" d="M30,151l-20,-30v-19h20 M60,151l20,-30v-19h-20 M450,151l-20,-30v-19h20 M480,151l20,-30v-19h-20" stroke-linejoin="round" stroke-linecap="round" stroke="#9d9696" stroke-width="16.0" id="path_1"/><path fill="none" d="M322,466 l-10,-64 M186,466 l10,-64" stroke-linecap="round" stroke="#9d9696" stroke-width="48.0" id="path_2"/><path fill="#9d9696" d="m405,251 l52,-52 -2,-23 -23,-2 -47,48 5,20z" id="path_3"/><path fill="#fdb440" d="m215,412c10,-6 17,-18 16,-32 -0,-4 -1,-8 -3,-12l-31,-20 -31,19c-2,5 -3,10 -3,16 0,8 4,15 9,21 6,7 16,11 27,10 5,-0 10,-2 15,-4z" id="path_4"/><path fill="#fdb440" d="m315,417c8,-0 15,-4 21,-9 7,-6 11,-16 10,-27 -0,-4 -1,-8 -3,-12l-31,-19 -31,19c-2,5 -3,10 -3,16 0,11 6,20 15,26 6,4 13,6 22,6z" id="path_5"/><path fill="#eee1dc" d="m152,192 l104,25 103,-25c0,-72 -52,-108 -104,-108s-104,36 -104,108z" id="path_6"/><path fill="none" d="M221,164h0M291,164h0" stroke-linecap="round" stroke="#60b7ff" stroke-width="32.0" id="path_7"/><path fill="#9d9696" d="m106,251 l-52,-52 2,-23 23,-2 47,48 -5,20z" id="path_8"/><path fill="none" d="M135,251h0 M46,170h0 M375,251h0 M460,170h0" stroke-linecap="round" stroke="#fdb440" stroke-width="64.0" id="path_9"/><path fill="#fdb440" d="m223,505c5,0 10,-4 10,-10v-18c0,-12 -9,-23 -22,-24 -0,-0 -1,-0 -2,-0h-41,-10c-13,0 -24,11 -24,24v18c0,5 4,10 10,10z" id="path_10"/><path fill="#fdb440" d="m286,505h81c5,0 10,-4 10,-10v-18c0,-13 -11,-24 -24,-24h-10,-41c-0,0 -1,0 -2,0 -12,1 -22,11 -22,24v18c-0,5 4,10 10,10z" id="path_11"/><path fill="#cdbeb9" d="m229,367h52,63c8,0 15,-6 15,-15v-53,-63 -43h-207v43,32 30,54c0,8 6,14 14,14h63z" id="path_12"/><path fill="#60b7ff" d="m304,323c4,0 8,-3 8,-7v-37c0,-4 -3,-8 -8,-7h-95c-4,0 -8,3 -8,7v37c0,4 3,8 8,8z" id="path_13"/><path fill="#fd8087" d="m256,52c12,0 22,-10 22,-22 0,-12 -10,-22 -22,-22 -12,0 -22,10 -22,22 0,12 10,22 22,22z" id="path_14"/><path fill="none" d="M220,237h-20 M312,237h-20" stroke-linecap="round" stroke="#fd4755" stroke-width="16.0" id="path_15"/></svg>