<svg id="vector" xmlns="http://www.w3.org/2000/svg" width="24.0d" height="24.0d" viewBox="0 0 682.0 682.0"><path fill="#fe646f" d="M303,84 L348,54C367,42 390,36 413,39L445,44C461,46 474,59 476,76l7,54c2,16 -6,32 -22,39l-106,51z" stroke="#000000" stroke-width="20.0" id="path_0"/><path fill="#fe646f" d="m191,169 l-10,-47c-6,-27 7,-54 31,-67l79,-40c12,-6 28,-4 38,4L378,57 279,214Z" stroke="#000000" stroke-width="20.0" id="path_1"/><path fill="#6fd7a3" d="m328,672l-39,-0l0,-78c0,-29 8,-57 25,-81l2,-3c11,-17 18,-37 18,-58l0,-107l39,-0l0,107c0,29 -8,57 -25,81l-2,3C335,552 328,573 328,594Z" id="path_2"/><path fill="#6fd7a3" d="M391,479 L374,458 391,437C399,428 411,422 423,422l9,-0c12,-0 24,5 32,15l7,9c5,6 5,15 0,22L464,479C456,489 445,494 432,494L423,494C411,494 399,489 391,479" stroke="#000000" stroke-width="20.0" id="path_3"/><path fill="#6fd7a3" d="M271,599 L289,578 271,557C264,548 252,542 239,542l-9,-0c-12,-0 -24,5 -32,15l-7,9c-5,6 -5,15 0,22L198,599c7,9 19,15 32,15l9,-0C252,614 264,608 271,599" stroke="#000000" stroke-width="20.0" id="path_4"/><path fill="#fc8b96" d="m378,128l0,6c0,14 -1,29 -4,44 -0,2 -1,4 -1,6l-0,3c-6,25 -29,44 -56,44 -26,-0 -50,-18 -56,-44l-1,-5c-4,-16 -6,-33 -6,-50L250,128c0,-24 19,-43 43,-43l40,-0C358,84 378,104 378,128" stroke="#000000" stroke-width="20.0" id="path_5"/><path fill="#fc8b96" d="m378,128l0,6c0,14 -1,29 -4,44l-32,-0c-4,-0 -9,-0 -14,-1 -19,-2 -38,-11 -53,-24L250,133L250,128c0,-24 19,-43 43,-43l40,-0C358,84 378,104 378,128" stroke="#000000" stroke-width="20.0" id="path_6"/><path fill="#fe646f" d="m462,169 l33,-6c9,-1 16,8 11,16L478,234C473,242 470,250 468,258L458,295c-11,43 -50,73 -95,73l-43,-0c-44,-0 -83,-29 -95,-73l-9,-35c-2,-9 -6,-18 -11,-26l-28,-50c-4,-8 3,-19 12,-16l83,43c27,14 59,15 88,3z" stroke="#000000" stroke-width="20.0" id="path_7"/><path fill="none" d="M334,440 L334,368 M289,672l0,-78c0,-29 8,-57 25,-81l2,-3c5,-7 9,-15 12,-23 M374,367l0,83c0,29 -8,57 -25,81l-2,3c-11,17 -18,37 -18,58l0,78 M308,422 L334,440 M354,599 L328,614 M367,99 l26,6c14,3 27,13 34,27l1,3 M359,214C359,214 304,237 289,306" stroke-linecap="round" stroke="#000000" stroke-width="20.0" id="path_8"/></svg>