<svg id="vector" xmlns="http://www.w3.org/2000/svg" width="24.0d" height="24.0d" viewBox="0 0 512.0 512.0"><path fill="#edf4ff" d="M111,79m-32,0a32,32 0,1 1,64 0a32,32 0,1 1,-64 0M63,143m-56,0a56,56 0,1 1,112 0a56,56 0,1 1,-112 0M456,416m-48,0a48,48 0,1 1,96 0a48,48 0,1 1,-96 0" stroke="#000000" stroke-width="12.0" id="path_0"/><path fill="#ff9a9f" d="m408,413h-304c-26,0 -48,-18 -48,-45v-176c0,-26 21,-48 48,-48h304c26,0 48,21 48,48v176c-0,26 -21,45 -48,45z" stroke="#000000" stroke-width="12.0" id="path_1"/><path fill="#edf4ff" d="M344,416m-32,0a32,32 0,1 1,64 0a32,32 0,1 1,-64 0M199,95m-16,0a16,16 0,1 1,32 0a16,16 0,1 1,-32 0" stroke="#000000" stroke-width="12.0" id="path_2"/><path fill="#ff8086" d="m392,280c0,-39 -61,-68 -136,-68s-136,28 -136,68 61,72 136,72 136,-32 136,-72z" stroke="#000000" stroke-width="12.0" id="path_3"/></svg>