<svg id="vector" xmlns="http://www.w3.org/2000/svg" width="24.0d" height="24.0d" viewBox="0 0 512.0 512.0"><path fill="#e1f1fb" d="M186,10c-33,0 -60,27 -60,60v179l261,-87V70c0,-33 -27,-60 -60,-60H186zM343,62c4,6 1,16 -5,22c2,14 2,30 0,44c7,6 9,16 5,22c-4,7 -16,8 -25,3c-39,16 -83,16 -122,0c-9,5 -21,4 -25,-3c-4,-6 -1,-16 5,-22c-2,-14 -2,-30 0,-44c-7,-6 -9,-16 -5,-22c4,-7 16,-8 25,-3c39,-16 83,-16 122,0C327,53 338,55 343,62z" stroke="#000000" stroke-width="12.0" id="path_0"/><path fill="#8acbf3" d="M298,284c-4,10 -18,13 -27,6c-42,-33 -146,-41 -146,-41h-0V441c0,33 27,60 60,60h139c33,0 60,-27 60,-60V162C350,175 315,245 298,284z" stroke="#000000" stroke-width="12.0" id="path_1"/><path fill="#82a7d8" d="M125,249c0,0 103,7 146,41c9,7 22,3 27,-6c17,-39 51,-108 88,-121L125,249L125,249z" stroke="#000000" stroke-width="12.0" id="path_2"/><path fill="#edc179" d="M194,59c-9,-5 -21,-4 -25,3c-4,6 -1,16 5,22c-2,14 -2,30 0,44c-7,6 -9,16 -5,22c4,7 16,8 25,3c39,16 83,16 122,0c9,5 21,4 25,-3c4,-6 1,-16 -5,-22c2,-14 2,-30 0,-44c7,-6 9,-16 5,-22c-4,-7 -16,-8 -25,-3C278,43 233,43 194,59z" stroke="#000000" stroke-width="12.0" id="path_3"/></svg>