<svg id="vector" xmlns="http://www.w3.org/2000/svg" width="24.0d" height="24.0d" viewBox="0 0 507.0 507.0"><path fill="#e0ef9b" d="m361,301c-0,7 0,14 4,21 15,30 21,64 18,98 21,0 42,8 57,22 6,6 2,17 -6,17h-79c-14,0 -26,-9 -29,-23 -8,-38 -11,-76 -7,-115v-7c-17,15 -38,28 -60,37 11,21 2,52 -26,60 -20,5 -42,8 -63,8l0,0h57c21,0 42,8 57,22 6,6 2,17 -6,17h-108c-48,0 -95,-12 -136,-35 -28,-16 -29,-57 -0,-74 -6,-12 -7,-26 -1,-38 56,-136 183,-235 336,-251 11,-20 41,-22 54,-2 12,0 24,1 37,2 15,1 27,11 32,26l6,16c5,14 1,29 -8,40l-51,52c-13,13 -29,24 -47,31 -9,3 -18,11 -22,20z" stroke="#000000" stroke-width="12.0" id="path_0"/><path fill="#ffda8f" d="m486,146 l-51,52c-13,13 -29,24 -47,31 -10,3 -18,11 -22,21l2,-31c1,-11 -8,-21 -20,-21 -16,0 -30,13 -30,30v88c-17,15 -38,28 -60,37 -4,-8 -12,-15 -22,-19 -24,-8 -50,-13 -75,-14l89,-52c28,-16 55,-37 78,-60l34,-35c13,-13 29,-24 47,-31l86,-34c5,14 1,29 -8,40z" stroke="#000000" stroke-width="12.0" id="path_1"/><path fill="none" d="M400,100v0" stroke-linecap="round" stroke="#000000" stroke-width="16.0" id="path_2"/></svg>