<svg id="vector" xmlns="http://www.w3.org/2000/svg" width="24.0d" height="24.0d" viewBox="0 0 512.0 512.0"><path fill="#ed5151" d="M256,256 m-240,0 a240,240 0,1 1,480 0 a240,240 0,1 1,-480 0" stroke-linecap="round" stroke="#000000" stroke-width="24.0" id="path_0"/><path fill="#e3f2ff" d="M375.7,216l0,80l-80,0l0,80l-80,0l0,-80l-80,0l0,-80l80,0l0,-80l80,0l0,80z" stroke="#000000" stroke-width="16.0" id="path_1"/><path fill="none" d="M256,256 m-200,0 a200,200 0,1 1,400 0 a200,200 0,1 1,-400 0" stroke-linecap="round" stroke="#000000" stroke-width="24.0" id="path_2"/></svg>