<svg id="vector" xmlns="http://www.w3.org/2000/svg" width="24.0d" height="24.0d" viewBox="0 0 512.0 512.0"><path fill="#f6cc90" d="m8,362h496v138h-496z" id="path_0"/><path fill="#f7b30c" d="m65,362c-8,-12 -12,-27 -12,-44 0,-45 37,-82 82,-82s82,37 82,82c0,16 -4,31 -12,44z" id="path_1"/><path fill="#b07a46" d="m309,367c-4,0 -7,-3 -7,-7v-270c0,-4 3,-7 7,-7s7,3 7,7v270c0,4 -3,7 -7,7z" id="path_2"/><path fill="#b07a46" d="m308,189h-113c-20,0 -36,-16 -36,-36v-28c0,-4 3,-7 7,-7s7,3 7,7v28c0,12 9,21 21,21h113c4,0 7,3 7,7s-3,7 -7,7z" id="path_3"/><path fill="#b07a46" d="m391,229h-81c-4,0 -7,-3 -7,-7s3,-7 7,-7h81c11,0 20,-9 20,-20v-28c0,-4 3,-7 7,-7s7,3 7,7v28c0,19 -15,35 -35,35z" id="path_4"/><path fill="#c5e866" d="m265,95c0,2 1,9 1,11 0,13 -11,25 -25,24h-136c-13,0 -25,-11 -25,-25 0,-13 11,-25 25,-24h67" id="path_5"/><path fill="#9cc042" d="m420,50h-33c9,-3 17,-12 17,-23 0,-13 -10,-24 -24,-23h-100c-13,0 -24,10 -24,24 0,11 7,20 17,23h-75c-13,0 -24,10 -24,24s10,24 24,23h223c13,0 24,-10 24,-24s-10,-24 -24,-24z" id="path_6"/><path fill="#9cc042" d="m469,176h-104c-12,0 -21,-9 -21,-21v-6c0,-12 9,-21 21,-21h104c12,0 21,9 21,21v6c0,12 -9,21 -21,21z" id="path_7"/><path fill="#b07a46" d="m504,508h-41c-4,0 -7,-3 -7,-7s3,-7 7,-7h41c4,0 7,3 7,7s-3,7 -7,7z" id="path_8"/><path fill="#b07a46" d="m377,508h-228c-4,0 -7,-3 -7,-7s3,-7 7,-7h228c4,0 7,3 7,7s-3,7 -7,7z" id="path_9"/><path fill="#b07a46" d="m504,369h-497c-4,0 -7,-3 -7,-7s3,-7 7,-7h497c4,0 7,3 7,7s-3,7 -7,7z" id="path_10"/><path fill="#6c8a13" d="m470,313c-4,0 -7,3 -7,7v17c0,6 -3,12 -9,14v-43c0,-4 -3,-7 -7,-7s-7,3 -7,7v43c-5,-2 -8,-8 -8,-14v-17c0,-4 -3,-7 -7,-7s-7,3 -7,7v17c0,17 14,31 31,31s31,-14 31,-31v-17c0,-4 -3,-7 -7,-7z" id="path_11"/><path fill="#6c8a13" d="m287,408c-4,0 -7,3 -7,7v17c0,6 -3,12 -9,14v-43c0,-4 -3,-7 -7,-7s-7,3 -7,7v43c-5,-2 -8,-8 -8,-14v-17c0,-4 -3,-7 -7,-7s-7,3 -7,7v17c0,17 14,31 31,31s31,-14 31,-31v-17c0,-4 -3,-7 -7,-7z" id="path_12"/><path fill="#6c8a13" d="m55,452c-4,0 -7,3 -7,7v17c0,6 -3,12 -9,14v-43c0,-4 -3,-7 -7,-7s-7,3 -7,7v43c-5,-2 -8,-8 -8,-14v-17c0,-4 -3,-7 -7,-7s-7,3 -7,7v17c0,17 14,31 31,31s31,-14 31,-31v-17c0,-4 -3,-7 -7,-7z" id="path_13"/></svg>