<svg id="vector" xmlns="http://www.w3.org/2000/svg" width="24.0d" height="24.0d" viewBox="0 0 512.0 512.0"><path fill="#c2bdc5" d="m177,260 l72,153c1,3 5,4 8,1l27,-22c1,-1 1,-2 1,-3l0,-25c0,-1 0,-3 2,-4l22,-17c1,-1 2,-2 2,-4l0,-25c0,-1 0,-3 2,-4l22,-16c1,-1 2,-2 2,-4l0,-25c0,-1 0,-3 2,-4l22,-17c1,-1 2,-2 2,-4l0,-25c0,-1 0,-3 2,-4l22,-16c1,-1 2,-2 2,-4l0,-25c0,-1 0,-3 2,-4l22,-17c1,-1 2,-2 2,-4l0,-25c0,-1 0,-3 2,-4l22,-17c1,-1 2,-2 2,-4l0,-25c0,-1 0,-3 2,-4l19,-14c2,-1 2,-5 0,-7l-32,-32c-2,-2 -5,-2 -7,0l-253,253c-1,1 -2,3 -1,5z" stroke-linejoin="round" stroke="#000000" stroke-width="12.0" id="path_0"/><path fill="#c0694e" d="m266,416 l-48,-153c-1,-3 -3,-6 -7,-7l-36,-12c-4,-1 -8,-0 -11,2 -23,23 -120,120 -120,120 -7,7 -7,18 0,25 7,7 18,7 25,0 1,-1 2,-1 3,0l85,85c1,1 1,2 0,3 -3,3 -5,8 -5,13 0,16 19,24 31,13l79,-79c3,-3 4,-7 2,-11zM209,417 L192,434c-4,4 -11,4 -16,0l-59,-59c-4,-4 -4,-11 0,-16l50,-50c6,-6 16,-3 18,4l27,87c1,6 0,12 -4,17z" stroke-linejoin="round" stroke="#000000" stroke-width="12.0" id="path_1"/></svg>