<svg id="vector" xmlns="http://www.w3.org/2000/svg" width="24.0d" height="24.0d" viewBox="0 0 512.0 512.0"><path fill="#ffeb53" d="m10,10h492v492h-492z" stroke="#000000" stroke-width="16.0" id="path_0"/><path fill="#fff398" d="m418,458h-325c-21,0 -39,-17 -39,-39v-325c0,-21 17,-39 39,-39h325c21,0 39,17 39,39v325c0,21 -17,39 -39,39z" stroke="#000000" stroke-width="16.0" id="path_1"/><path fill="#000000" d="m302,194h0c5,0 10,-4 10,-9 0,-3 0,-8 0,-13h0c5,0 10,-4 10,-10s-4,-10 -10,-10h-0c0,-19 0,-38 -0,-41 -0,-6 -4,-12 -10,-14 -5,-1 -11,0 -16,5 -4,5 -25,43 -32,55 -1,3 -1,6 0,9 1,3 5,5 8,4h29c-0,4 -0,9 -0,13 -0,5 4,10 10,10zM279,150c4,-8 9,-16 13,-23 -0,6 -0,14 -0,23z" id="path_2"/><path fill="#000000" d="m216,194c5,0 10,-4 10,-10v-80c0,-5 -4,-10 -10,-10h-17c-5,0 -10,4 -10,10s4,10 10,10h7v70c0,5 4,10 10,10z" id="path_3"/><path fill="#000000" d="m232,376c-17,0 -34,-7 -45,-19 -3,-4 -10,-4 -14,-0 -4,3 -4,10 -0,14 14,16 37,25 60,25 27,0 51,-17 55,-41 2,-10 -0,-21 -6,-30 -6,-9 -17,-17 -31,-22 -20,-7 -38,-15 -42,-17 -6,-4 -9,-11 -8,-19 1,-9 8,-16 18,-19 26,-8 49,11 50,11 4,3 10,3 14,-1 3,-4 3,-10 -1,-14 -1,-1 -31,-26 -68,-15 -17,5 -30,19 -32,35 -2,15 4,30 17,39 0,0 1,0 1,0 0,0 21,9 44,18 18,6 28,18 25,30 -2,12 -15,24 -35,24z" id="path_4"/><path fill="#000000" d="M322,308v78c0,5 4,10 10,10s10,-4 10,-10v-78c0,-5 -4,-10 -10,-10s-10,4 -10,10z M332,266m-10,0a10,10 0,1 1,20 0a10,10 0,1 1,-20 0" id="path_5"/></svg>