<svg id="vector" xmlns="http://www.w3.org/2000/svg" width="24.0d" height="24.0d" viewBox="0 0 434.0 434.0"><path fill="#e6b263" d="M402,384c2,0 3,1 3,4c-2,19 -18,35 -39,35H68c18,0 33,-12 38,-28c1,-6 7,-11 14,-11h206H402z" stroke="#000000" stroke-width="12.0" id="path_0"/><path fill="#ff7124" d="M403,20l-0,0c-77,-14 -173,47 -229,153c-17,33 -29,67 -35,100c-0,0 -0,0 -0,0c-0,-0 -0,-0 -0,-0c-4,-16 -7,-33 -7,-51c-1,-62 24,-119 66,-158c35,-32 82,-53 134,-54C356,9 380,13 403,20z" stroke="#000000" stroke-width="12.0" id="path_1"/><path fill="#8ecac1" d="M403,20c-12,24 -26,48 -43,71c-10,14 -21,29 -32,42c-17,20 -35,39 -54,56l-58,-6l15,40c-30,21 -61,38 -91,48c6,-32 17,-67 35,-100C229,68 326,6 403,20z" stroke="#000000" stroke-width="12.0" id="path_2"/><path fill="#f2d59f" d="M326,135v249h-206c-6,0 -12,4 -14,11c-4,16 -19,28 -38,28c-21,0 -39,-17 -39,-39V79c0,-8 6,-15 15,-15h151h1c-42,39 -68,96 -66,158c0,17 3,34 7,51c0,0 0,0 0,0c0,-0 0,-0 0,-0c30,-10 61,-27 91,-48l-15,-40l58,6C291,174 309,155 326,135zM132,336l4,-61C133,296 131,316 132,336z" stroke="#000000" stroke-width="12.0" id="path_3"/><path fill="#ffffff" d="M137,275l-4,61C131,316 133,296 137,275z" stroke="#000000" stroke-width="12.0" id="path_4"/></svg>