<svg id="vector" xmlns="http://www.w3.org/2000/svg" width="24.0d" height="24.0d" viewBox="0 0 512.0 512.0"><path fill="#ffa875" d="m391,281c-7,-16 -7,-35 0,-51 5,-12 1,-27 -10,-33l-0,-0c-15,-8 -26,-23 -30,-41l-0,-0c-2,-13 -14,-22 -28,-20l-0,0c-17,2 -35,-3 -48,-15l-0,-0c-9,-9 -25,-9 -35,0l-0,0c-13,12 -30,18 -48,15l-0,-0c-13,-1 -25,7 -28,20l-0,0c-3,17 -14,32 -30,41l-0,0c-11,6 -16,21 -10,33 7,16 7,35 0,51 -5,12 -1,27 10,33l0,0c15,8 26,23 30,41l0,0c2,13 14,22 28,20l0,-0c17,-2 35,3 48,15l0,0c9,9 25,9 35,0l0,-0c13,-12 30,-18 48,-15l0,0c13,1 25,-7 28,-20l0,-0c3,-17 14,-32 30,-41l0,-0c11,-6 16,-21 10,-33z" stroke="#000000" stroke-width="12.0" id="path_0"/><path fill="#f9f097" d="M256,256m-91,0a91,91 0,1 1,183 0a91,91 0,1 1,-183 0" stroke="#000000" stroke-width="12.0" id="path_1"/><path fill="#80dfb5" d="M102,141m-22,0a22,22 0,1 1,44 0a22,22 0,1 1,-44 0" stroke="#000000" stroke-width="12.0" id="path_2"/><path fill="#f9f097" d="M409,370m-22,0a22,22 0,1 1,44 0a22,22 0,1 1,-44 0" stroke="#000000" stroke-width="12.0" id="path_3"/><path fill="#81ddfd" d="M441,70m-39,0a39,39 0,1 1,78 0a39,39 0,1 1,-78 0" stroke="#000000" stroke-width="12.0" id="path_4"/><path fill="#ff8997" d="M70,441m-39,0a39,39 0,1 1,78 0a39,39 0,1 1,-78 0" stroke="#000000" stroke-width="12.0" id="path_5"/></svg>