<svg id="vector" xmlns="http://www.w3.org/2000/svg" width="24.0d" height="24.0d" viewBox="0 0 512.0 512.0"><path fill="#ff9f00" d="m313,183c-4,-18 -11,-36 -20,-52 -25,-44 -71,-80 -133,-105 -46,-18 -84,-24 -86,-24l-11,-1 -4,11c-0,1 -15,37 -22,86 -9,66 -1,124 24,168 33,58 95,91 141,108l12,4 32,-60 69,-130z" id="path_0"/><path fill="#ff7816" d="m315,188 l-69,130 -24,-41 -90,-156 -0,-0 -69,-120 11,1c1,0 40,5 86,24 62,24 108,61 133,105 9,15 16,33 20,52z" id="path_1"/><path fill="#ff4b00" d="m214,235 l19,34 -13,7 -1,0 -6,23 -71,-19 7,-29 47,12 -38,-67 -76,-20 7,-29 47,12 -19,-33 26,-15 49,85 12,-47 29,7z" id="path_2"/><path fill="#ff9f00" d="m453,382c-25,44 -71,80 -133,104 -28,11 -53,17 -78,22 -0,0 -0,0 -0,0l-1,-17 -3,0 -20,2c-8,-23 -15,-48 -19,-78 -9,-65 -1,-123 24,-167 25,-44 71,-80 133,-105 35,-14 66,-21 97,-25 12,30 21,60 26,97 9,66 1,124 -24,168z" id="path_3"/><path fill="#ff7816" d="m235,492 l3,-0 1,17c0,-0 0,-0 0,-0 25,-4 50,-11 78,-22 62,-24 108,-60 133,-104 25,-44 33,-102 24,-168 -5,-37 -14,-67 -26,-97l-217,375z" id="path_4"/><path fill="#ff4b00" d="m399,346 l-76,20 -82,142c-5,1 -11,1 -16,2 -0,0 -1,0 -2,0 -2,-6 -4,-12 -6,-18l52,-90 -20,-75 29,-7 12,46 38,-67 -20,-75 29,-7 12,47 19,-33 13,7 12,7 -49,85 47,-12z" id="path_5"/></svg>