<svg id="vector" xmlns="http://www.w3.org/2000/svg" width="24.0d" height="24.0d" viewBox="0 0 512.0 512.0"><path fill="#f5a55b" d="M444,501H68c-11,0 -20,-9 -20,-20V30c0,-11 9,-20 20,-20h376c11,0 20,9 20,20v451C464,493 455,502 444,502z" id="path_0"/><path fill="#000000" d="M444,0H68c-16,0 -30,13 -30,30v194c0,0 0,0 0,0v65c0,5 4,10 10,10s10,-4 10,-10v-46l0,0c40,27 70,66 87,111c22,59 65,107 120,136H151l-8,-9c-20,-21 -31,-50 -31,-80c0,-5 -4,-10 -10,-10s-10,4 -10,10c0,33 11,64 33,89H68c-5,0 -10,-4 -10,-10V363c0,-5 -4,-10 -10,-10s-10,4 -10,10v118c0,16 13,30 30,30h249c0,0 0,0 0,0c0,0 0,-0 0,-0h126c16,0 30,-13 30,-30V30C474,13 460,0 444,0zM454,233c-9,8 -20,13 -32,13c-13,0 -26,-5 -35,-16c-20,-22 -20,-57 0,-79c9,-10 22,-16 35,-16c12,0 23,4 32,13V233zM444,491H318l-13,-4c-65,-23 -116,-73 -140,-138c-18,-49 -51,-91 -95,-121l-11,-7V30c0,-5 4,-10 10,-10h15c12,25 18,54 18,82v26c0,5 4,10 10,10s10,-4 10,-10v-26c0,-28 -5,-56 -16,-82h106c-32,46 -50,106 -50,170c0,65 18,126 52,172c34,47 80,73 129,73c5,0 10,-4 10,-10s-4,-10 -10,-10c-42,0 -83,-23 -113,-65c-64,-88 -64,-233 0,-322c2,-3 5,-6 7,-9H444c5,0 10,4 10,10v93c-10,-5 -21,-8 -32,-8c-19,0 -36,8 -50,22c-27,29 -27,77 0,106c13,14 31,22 50,22c11,0 22,-3 32,-8v96c-7,10 -16,19 -25,27c-4,3 -4,9 -0,14c2,2 4,3 7,3c2,0 4,-0 6,-2c4,-3 8,-7 12,-11v96C454,487 449,492 444,492z" id="path_1"/><path fill="#000000" d="M285,97c1,1 4,2 6,2c2,0 5,-1 7,-3C311,81 327,70 344,64c5,-1 7,-7 6,-12c-1,-5 -7,-7 -12,-6c-20,7 -39,20 -54,38C280,87 280,93 285,97z" id="path_2"/><path fill="#000000" d="M350,318c-19,-5 -37,-17 -51,-34c-32,-37 -42,-94 -25,-144c1,-5 -1,-11 -6,-12c-5,-1 -11,1 -12,6c-19,56 -8,120 28,164c16,19 38,33 61,40c1,0 1,0 2,0c4,0 8,-2 9,-7C358,325 355,320 350,318z" id="path_3"/></svg>