<svg id="vector" xmlns="http://www.w3.org/2000/svg" width="24.0d" height="24.0d" viewBox="0 0 512.0 512.0"><path fill="#b68985" d="m405,410c14,-30 23,-64 23,-100 0,-36 -8,-71 -23,-102h-296c-15,30 -23,65 -23,102 0,36 8,70 23,100z" stroke="#000000" stroke-width="16.0" id="path_0"/><path fill="#fcf2dc" d="M170,117h172c22,0 40,18 40,40h-252c0,-22 18,-40 40,-40zM170,502h172c22,0 40,-18 40,-40h-252c0,22 18,40 40,40z" stroke="#000000" stroke-width="16.0" id="path_1"/><path fill="#f5d996" d="m383,157h-252l-19,20c-10,10 -8,28 4,35 8,5 20,3 27,-3l3,-3c8,-8 22,-8 31,0 8,8 23,8 31,0 8,-8 22,-8 31,0 8,8 22,8 31,0 8,-8 22,-8 31,-0 8,8 23,8 31,-0 8,-8 22,-8 31,-0l3,3c7,7 18,8 27,3 13,-7 15,-25 4,-35z" stroke="#000000" stroke-width="16.0" id="path_2"/><path fill="#f5d996" d="m458,11 l-152,47c-7,-5 -17,-7 -27,-4 -16,5 -26,23 -21,39s23,26 40,21c9,-3 16,-10 20,-18l152,-47c10,-3 16,-14 13,-25 -3,-10 -14,-16 -25,-13z" stroke="#000000" stroke-width="16.0" id="path_3"/><path fill="#f5d996" d="m53,11 l152,47c7,-5 17,-7 27,-4 16,5 26,23 21,39s-23,26 -40,21c-9,-3 -16,-10 -20,-18l-152,-47c-10,-3 -16,-14 -13,-25 3,-10 14,-16 25,-13z" stroke="#000000" stroke-width="16.0" id="path_4"/><path fill="#f5d996" d="m130,461h252l19,-20c10,-10 8,-28 -4,-35 -8,-5 -20,-3 -27,3l-3,3c-8,8 -22,8 -31,-0 -8,-8 -23,-8 -31,-0 -8,8 -22,8 -31,-0 -8,-8 -22,-8 -31,0 -8,8 -22,8 -31,0 -8,-8 -23,-8 -31,0 -8,8 -22,8 -31,0l-3,-3c-7,-7 -18,-8 -27,-3 -13,7 -15,25 -4,35z" stroke="#000000" stroke-width="16.0" id="path_5"/></svg>