<svg id="vector" xmlns="http://www.w3.org/2000/svg" width="24.0d" height="24.0d" viewBox="0 0 512.0 512.0"><path fill="#dd9366" d="M350,411h-320c-11,0 -20,-8 -20,-20v-20c0,-11 8,-20 20,-20h320c11,0 20,8 20,20v20c0,11 -8,20 -20,20zM350,161h-320c-11,0 -20,-8 -20,-20v-20c0,-11 8,-20 20,-20h320c11,0 20,8 20,20v20c0,11 -8,20 -20,20z" stroke="#000000" stroke-width="12.0" id="path_0"/><path fill="#a0e4a5" d="M275,371h-213c-12,-12 -25,-15 -32,-32 -15,-38 -15,-127 0,-166 6,-16 19,-19 32,-32h213c12,12 25,15 32,32 15,38 15,127 0,166 -6,16 -19,19 -32,32zM231,331h-99c-9,-9 -15,-15 -25,-25v-100l25,-25h99l46,55v40z" stroke="#000000" stroke-width="12.0" id="path_1"/><path fill="#f5eeec" d="M212,256m-25,0a25,25 0,1 1,50 0a25,25 0,1 1,-50 0" stroke="#000000" stroke-width="12.0" id="path_2"/><path fill="#a0e4a5" d="M277,236h225v40h-225z" stroke="#000000" stroke-width="12.0" id="path_3"/><path fill="#000000" d="M147,286m-10,0a10,10 0,1 1,20 0a10,10 0,1 1,-20 0" id="path_4"/><path fill="#000000" d="M147,226m-10,0a10,10 0,1 1,20 0a10,10 0,1 1,-20 0" id="path_5"/></svg>