<svg id="vector" xmlns="http://www.w3.org/2000/svg" width="24.0d" height="24.0d" viewBox="0 0 512.0 512.0"><path fill="#ff5e82" d="m102,235c2,-2 2,-6 1,-9l-12,-48c-1,-6 -9,-10 -17,-8l-57,15c-8,2 -12,10 -10,18l11,43c2,8 10,12 18,10l57,-15c3,-1 7,-3 9,-6z" id="path_0"/><path fill="#b7457d" d="m18,246c2,8 10,12 18,10l57,-15c3,-1 7,-3 9,-6 2,-2 2,-6 1,-9l-6,-24 -86,23z" id="path_1"/><path fill="#5e54ac" d="m60,180c-4,-18 6,-37 24,-42l38,-10c8,-2 16,2 18,10l25,96c1,3 0,7 -1,11s-5,5 -9,6l-38,10c-18,4 -37,-6 -42,-24z" id="path_2"/><path fill="#ff5e82" d="m112,140c-4,-16 5,-32 21,-36l236,-63c8,-2 16,2 18,10l36,135c2,8 -2,16 -10,18l-236,63c-16,4 -32,-5 -36,-21z" id="path_3"/><path fill="#b7457d" d="m424,186 l-18,-67 -280,75 14,53c4,16 20,25 36,21l236,-63c8,-2 12,-10 10,-18z" id="path_4"/><path fill="#5e54ac" d="m354,39c-1,-3 -0,-7 1,-11s5,-5 9,-6l77,-20c8,-2 16,2 18,10l46,173c1,3 0,7 -1,11 -1,3 -5,5 -9,6l-77,20c-8,2 -16,-2 -18,-10z" id="path_5"/><path fill="#5e54ac" d="m389,490 l-107,-222c-2,-5 -7,-8 -13,-8h-25c-5,0 -11,3 -13,8l-107,222c-3,7 -0,16 7,20 7,3 16,0 20,-7l91,-190v184c0,8 6,15 15,15s15,-6 15,-15v-184l91,190c2,5 7,8 13,8 2,0 4,-0 6,-1 7,-3 10,-12 7,-20z" id="path_6"/><path fill="#f2faff" d="m256,292c-24,0 -45,-20 -45,-45s20,-45 45,-45 45,20 45,45 -20,45 -45,45z" id="path_7"/></svg>