<svg id="vector" xmlns="http://www.w3.org/2000/svg" width="24.0d" height="24.0d" viewBox="0 0 682.6 682.6"><path fill="#ff5a58" d="M210.2,281.9 L341.3,186.6 472.3,281.9c11.9,8.6 28.5,5.9 37,-5.9 8.6,-11.9 5.9,-28.5 -5.9,-37l-146.2,-106.3c-4.6,-3.5 -10.3,-5.4 -16.1,-5.4 -5.4,-0 -10.9,1.6 -15.6,5l-146.6,106.6C167,247.4 164.4,264 173.1,276 181.7,287.9 198.3,290.6 210.2,281.9" stroke="#000000" stroke-width="26.6" id="path_0"/><path fill="#f0e6e2" d="M300.9,322.4C300.9,300.3 319,282 341.3,282 363.5,282 381.6,300.3 381.6,322.4L381.6,395L300.9,395ZM341.3,186.6 L210.2,281.9l0,47.3 0,65.8 0,220.8l64.3,-0l0,-93.3c0,-36.6 30,-66.6 66.6,-66.6 36.6,-0 66.6,30 66.6,66.6l0,93.3l64.3,-0l0,-220.8 0,-65.8 0,-47.3z" stroke="#000000" stroke-width="26.6" id="path_1"/><path fill="#ff9346" d="m341.3,282c-22,-0 -40.3,18 -40.3,40.3l0,72.6l80.6,-0l0,-72.6C381.6,300.3 363.5,282 341.3,282" stroke="#000000" stroke-width="26.6" id="path_2"/><path fill="#ff9346" d="M341.3,456c-36.6,-0 -66.6,30 -66.6,66.6l0,93.3L341.3,616Z M341.3,456l0,160l66.6,-0l0,-93.3C408,486 378,456 341.3,456" stroke="#000000" stroke-width="26.6" id="path_3"/><path fill="#ff5a58" d="m60.6,504 l149.6,-108.8l0,-65.8L29.3,460.9C17.4,469.5 14.7,486.2 23.4,498 32,510 48.7,512.6 60.6,504" stroke="#000000" stroke-width="26.6" id="path_4"/><path fill="#ff9346" d="M135.4,528.6C120.7,528.6 108.7,540.6 108.7,555.3L108.7,616L162,616L162,555.3C162,540.6 150,528.6 135.4,528.6" stroke="#000000" stroke-width="26.6" id="path_5"/><path fill="#e6d5cf" d="M108.7,555.3C108.7,540.6 120.7,528.6 135.4,528.6 150,528.6 162,540.6 162,555.3L162,616L210.2,616L210.2,395L60.6,504L60.6,616L108.7,616Z" stroke="#000000" stroke-width="26.6" id="path_6"/><path fill="#ff5a58" d="m472.3,395 l149.6,108.8c11.9,8.6 28.5,5.9 37,-5.9 8.6,-11.9 5.9,-28.5 -5.9,-37L472.3,329.3Z" stroke="#000000" stroke-width="26.6" id="path_7"/><path fill="#e6d5cf" d="M622,504 L472.3,395L472.3,616l48,-0l0,-60.6c0,-14.6 12,-26.6 26.6,-26.6 14.6,-0 26.6,12 26.6,26.6L573.8,616L622,616Z" stroke="#000000" stroke-width="26.6" id="path_8"/><path fill="#ff9346" d="M573.8,555.3C573.8,540.6 561.8,528.6 547.2,528.6 532.5,528.6 520.5,540.6 520.5,555.3L520.5,616L573.8,616Z" stroke="#000000" stroke-width="26.6" id="path_9"/><path fill="#5cd0b3" d="m573.8,616l-53.3,-0 -48,-0 -64.3,-0 -66.6,-0 -66.6,-0 -64.3,-0 -48,-0 -53.3,-0 -48,-0 -20.6,-0c-14.6,-0 -26.6,12 -26.6,26.6 0,14.6 12,26.6 26.6,26.6L642.6,669.3c14.6,-0 26.6,-12 26.6,-26.6 0,-14.6 -12,-26.6 -26.6,-26.6L622,616Z" stroke="#000000" stroke-width="26.6" id="path_10"/><path fill="none" d="M341.3,127L341.3,13.3" stroke-linecap="round" stroke="#000000" stroke-width="26.6" id="path_11"/><path fill="none" d="M376.3,53.3L306.3,53.3" stroke-linecap="round" stroke="#000000" stroke-width="26.6" id="path_12"/></svg>