<svg id="vector" xmlns="http://www.w3.org/2000/svg" width="24.0d" height="24.0d" viewBox="0 0 512.0 512.0"><path fill="#d1a08f" d="m44,286v133c0,23 55,84 79,84h259c23,0 84,-61 84,-84v-133l-211,-20z" stroke="#000000" stroke-width="12.0" id="path_0"/><path fill="#7a6d79" d="m30,101 l52,135h345l52,-135 -225,-35z" stroke-linejoin="round" stroke="#000000" stroke-width="12.0" id="path_1"/><path fill="#c68d7a" d="m481,71v30h-451v-30c0,-23 19,-43 43,-43h364c23,-0 43,19 43,43z" stroke-linejoin="round" stroke="#000000" stroke-width="12.0" id="path_2"/><path fill="#fff0ad" d="m312,27v74h-113v-74c0,-10 8,-19 19,-19h74c10,0 19,8 19,19z" stroke="#000000" stroke-width="12.0" id="path_3"/><path fill="#ffe177" d="m424,264c21,0 38,-17 38,-38s-17,-38 -38,-38c-3,0 -7,0 -10,1 -3,-18 -19,-32 -38,-32 -6,0 -13,1 -18,4 -5,-14 -19,-25 -36,-25 -11,0 -21,4 -28,12 -5,-14 -19,-24 -36,-24s-30,10 -36,24c-7,-7 -17,-12 -28,-12 -16,0 -31,10 -36,25 -5,-3 -11,-4 -18,-4 -19,0 -35,13 -38,32 -3,-0 -6,-1 -10,-1 -21,0 -38,17 -38,38s17,38 38,38" stroke="#000000" stroke-width="12.0" id="path_4"/><path fill="#c68d7a" d="m467,286h-423c-7,0 -13,-6 -13,-13v-22c0,-7 6,-13 13,-13h423c7,0 13,6 13,13v22c0,7 -6,13 -13,13z" stroke="#000000" stroke-width="12.0" id="path_5"/><path fill="#ffe177" d="m129,504h-42c-23,0 -42,-18 -42,-42v-42c13,0 25,3 36,8 28,13 47,42 47,76z" stroke="#000000" stroke-width="12.0" id="path_6"/><path fill="#ffe177" d="m467,419v42c0,23 -18,42 -42,42h-42c0,-46 37,-84 84,-84z" stroke="#000000" stroke-width="12.0" id="path_7"/><path fill="#fff0ad" d="M196,358 l60,40 l60-40 v-120 h-120z" stroke-linejoin="round" stroke="#000000" stroke-width="12.0" id="path_8"/><path fill="#918291" d="m268,318c7,-4 12,-12 12,-21 0,-14 -11,-25 -25,-25 -14,0 -25,11 -25,25 0,9 5,17 12,21l-8,14c-4,7 1,16 9,16h23c8,0 13,-8 9,-16z" stroke="#000000" stroke-width="12.0" id="path_9"/></svg>