<svg id="vector" xmlns="http://www.w3.org/2000/svg" width="24.0d" height="24.0d" viewBox="0 0 512.0 512.0"><path fill="#cc9758" d="M455,410c0,51 -89,93 -199,93c-45,0 -86,-7 -120,-18c-48,-17 -79,-44 -79,-74c39,-79 42,-217 42,-217H413C413,193 416,331 455,410z" stroke="#000000" stroke-width="12.0" id="path_0"/><path fill="#f2c386" d="M98,193a157,73 0,1 0,314 0a157,73 0,1 0,-314 0z" stroke="#000000" stroke-width="12.0" id="path_1"/><path fill="#82b236" d="M398,8c-19,2 -37,15 -45,35c-7,19 -4,41 8,56c19,-2 37,-15 45,-35C414,45 410,23 398,8z" stroke="#000000" stroke-width="12.0" id="path_2"/><path fill="#000000" d="M335,151c-4,-1 -9,1 -10,5c-1,4 1,9 5,10c22,7 36,17 36,26c0,7 -11,16 -29,23c-4,1 -6,6 -4,10c1,3 4,5 7,5c1,0 2,-0 3,-0c26,-9 40,-23 40,-39C383,176 366,161 335,151z" id="path_3"/><path fill="#000000" d="M355,132l10,-40" stroke="#000000" stroke-width="12.0" id="path_4"/><path fill="#000000" d="M313,223c-17,3 -37,5 -57,5c-68,0 -111,-21 -111,-36c0,-15 42,-36 111,-36c18,0 37,1 54,5c4,0 8,-2 9,-6c0,-4 -2,-8 -6,-9c-17,-3 -37,-5 -57,-5c-62,0 -127,18 -127,52S194,246 256,246c21,0 42,-2 61,-6c4,-1 7,-5 6,-9C322,225 318,223 313,223z" id="path_5"/><path fill="#000000" d="M277,184c4,0 8,-3 8,-7c0,-4 -3,-8 -7,-8c-7,-0 -15,-0 -22,-0c-21,0 -42,2 -57,5c-12,2 -29,8 -29,20c0,4 3,8 8,8c4,0 7,-2 8,-6c4,-4 29,-11 71,-11C263,184 270,184 277,184z" id="path_6"/><path fill="#000000" d="M198,214c15,3 36,5 57,5c21,0 42,-2 57,-5c12,-2 29,-8 29,-20c0,-11 -12,-18 -39,-22c-4,-0 -8,2 -9,6c-0,4 2,8 6,9c12,2 19,4 23,6c-8,4 -31,9 -68,9c-20,0 -39,-1 -54,-5c-4,-1 -9,1 -10,6C191,208 193,213 198,214z" id="path_7"/><path fill="#000000" d="M382,407c2,8 5,16 8,24c1,3 4,5 7,5c1,0 2,-0 3,-0c4,-1 6,-6 4,-11c-2,-6 -5,-14 -8,-22c-1,-4 -6,-6 -10,-5C383,397 381,402 382,407z" id="path_8"/><path fill="#000000" d="M381,283c-0,-4 -3,-8 -8,-8h-0c-4,0 -8,3 -8,8c0,1 0,45 9,93c0,4 4,6 8,6c0,0 1,-0 1,-0c4,-1 7,-5 6,-9C381,327 381,283 381,283z" id="path_9"/><path fill="#000000" d="M341,461c0,0 1,-0 2,-0c4,-1 7,-5 5,-10c-13,-49 -15,-96 -15,-96c-0,-4 -4,-8 -8,-8c-4,0 -8,4 -8,8c0,2 2,49 16,100C334,459 337,461 341,461z" id="path_10"/><path fill="#000000" d="M263,447c4,0 8,-3 8,-8v-117c0,-4 -3,-8 -8,-8s-8,3 -8,8v116C254,444 258,447 263,447z" id="path_11"/><path fill="#000000" d="M158,367c-4,25 -8,47 -14,64c-1,4 1,9 5,10c0,0 1,0 2,0c3,0 6,-2 8,-5c5,-18 10,-40 15,-67c0,-4 -2,-8 -7,-9C163,360 159,363 158,367z" id="path_12"/><path fill="#000000" d="M171,345c4,0 7,-3 8,-7c1,-14 2,-24 2,-24c0,-4 -3,-8 -7,-9c-4,-0 -8,3 -9,7c-0,0 -0,9 -2,23c-0,4 2,8 7,9C170,345 170,345 171,345z" id="path_13"/></svg>