<svg id="vector" xmlns="http://www.w3.org/2000/svg" width="24.0d" height="24.0d" viewBox="0 0 512.0 512.0"><path fill="#9798bc" d="M437,409c-6,9 -17,16 -30,16s-23,-6 -30,-16c-6,9 -17,16 -30,16c-12,0 -23,-6 -30,-16c-6,9 -17,16 -30,16s-23,-6 -30,-16c-6,9 -17,16 -30,16c-12,0 -23,-6 -30,-16c-6,9 -17,16 -30,16s-23,-6 -30,-16c-6,9 -17,16 -30,16s-23,-6 -30,-16c-6,8 -15,14 -26,16l38,56c1,2 5,4 8,4h322c2,0 6,-2 8,-4l38,-56C452,424 443,418 437,409z" stroke="#000000" stroke-width="12.0" id="path_0"/><path fill="#f8c36e" d="M472,357C429,289 348,243 256,243S83,289 40,357H472z" stroke="#000000" stroke-width="12.0" id="path_1"/><path fill="#f6ad38" d="M504,380c0,-12 -10,-23 -22,-23H30c-12,0 -22,10 -22,23v6c0,21 16,38 37,38c12,0 23,-6 30,-16c6,9 17,16 30,16s23,-6 30,-16c6,9 17,16 30,16s23,-6 30,-16c6,9 17,16 30,16c12,0 23,-6 30,-16c6,9 17,16 30,16c12,0 23,-6 30,-16c6,9 17,16 30,16c12,0 23,-6 30,-16c6,9 17,16 30,16c12,0 23,-6 30,-16c6,9 17,16 30,16c20,0 37,-17 37,-38v-6H504z" stroke="#000000" stroke-width="12.0" id="path_2"/><path fill="#995c57" d="M207,277c5,5 1,18 -9,28c-10,10 -23,15 -28,9s-1,-18 9,-28C189,276 202,272 207,277zM305,277c-5,5 -1,18 9,28c10,10 23,15 28,9s1,-18 -9,-28C323,276 311,272 305,277z" stroke="#000000" stroke-width="12.0" id="path_3"/><path fill="#f39600" d="M242,299a13,24 0,1 0,26 0a13,24 0,1 0,-26 0zM353,256c-3,6 3,17 16,25c13,7 26,8 30,1c3,-6 -3,-17 -16,-25C371,250 357,249 353,256zM162,256c3,6 -3,17 -16,25c-13,7 -26,8 -30,1c-3,-6 3,-17 16,-25C145,250 159,249 162,256z" stroke="#000000" stroke-width="12.0" id="path_4"/></svg>