<svg id="vector" xmlns="http://www.w3.org/2000/svg" width="24.0d" height="24.0d" viewBox="0 0 512.0 512.0"><path fill="#c7d6eb" d="m492,402c-1,-3 -1,-7 -0,-11 3,-17 12,-71 12,-135 0,-64 -9,-118 -12,-135 -0,-3 -0,-7 0,-11l6,-18c3,-9 0,-19 -7,-25 -7,-6 -17,-6 -26,-1 -6,3 -13,4 -20,1 -20,-8 -74,-24 -189,-24s-169,16 -189,24c-6,2 -14,2 -20,-1 -8,-5 -18,-4 -26,1 -7,6 -10,16 -7,25l6,18c1,3 1,7 0,11 -3,17 -12,71 -12,135 0,64 9,118 12,135 0,3 0,7 -0,11l-6,18c-3,9 -0,19 7,25 7,6 17,6 26,1 6,-3 13,-4 20,-1 20,8 74,24 189,24s169,-16 189,-24c6,-2 14,-2 20,1 8,5 18,4 26,-1 7,-6 10,-16 7,-25z" stroke="#000000" stroke-width="12.0" id="path_0"/></svg>