<svg id="vector" xmlns="http://www.w3.org/2000/svg" width="24.0d" height="24.0d" viewBox="0 0 512.0 512.0"><path fill="#f8f7f8" d="m342,408c24,-57 -4,-129 -71,-149l-29,-8c-35,-10 -65,-31 -88,-60l-46,-60 283,85 21,149 -95,87z" stroke="#000000" stroke-width="12.0" id="path_0"/><path fill="#bfddfc" d="m457,144c2,3 0,9 -4,9l-27,5c-2,0 -4,3 -2,6 54,89 37,220 -78,279l-3,1 -48,55c-3,4 -10,1 -10,-4l4,-36c1,-13 -0,-26 -7,-38l-19,-35c-2,-5 3,-10 8,-7l62,38c47,-43 46,-112 9,-155 -0,-0 -1,-1 -2,-1 -0,0 -1,0 -1,0 -18,9 -31,26 -35,46l-6,25c-1,5 -7,6 -11,2l-8,-11c-12,-16 -19,-36 -19,-57 0,-11 2,-23 6,-34 2,-6 -1,-13 -7,-15l-105,-31 -20,48c-2,4 -6,7 -11,7h-30c-7,0 -12,-5 -12,-12v-50c0,-18 -5,-35 -15,-50l-2,-2c-5,-7 -5,-17 -0,-24l2,-3c9,-14 14,-30 14,-46l0,-33c0,-6 5,-12 12,-12h26c5,0 10,3 12,8l19,58h112c35,0 66,8 92,22 2,1 5,2 8,2 0,0 1,-0 2,-0 37,-4 75,12 96,44z" stroke="#000000" stroke-width="12.0" id="path_1"/><path fill="#000000" d="m108,62h-5c-4,0 -7,3 -7,7s3,7 7,7h5c4,0 7,-3 7,-7s-3,-7 -7,-7z" id="path_2"/><path fill="#000000" d="m108,173h-5c-4,0 -7,3 -7,7s3,7 7,7h5c4,0 7,-3 7,-7s-3,-7 -7,-7z" id="path_3"/></svg>