<svg id="vector" xmlns="http://www.w3.org/2000/svg" width="24.0d" height="24.0d" viewBox="0 0 512.0 512.0"><path fill="#dad8db" d="m256,191c-48,0 -88,39 -88,88v184h176v-184c0,-48 -39,-88 -88,-88z" id="path_0"/><path fill="#f9eac7" d="m504,472h-497v-184c0,-137 111,-248 248,-248 137,0 248,111 248,248z" id="path_1"/><path fill="#5d5360" d="m256,87c-110,0 -200,89 -200,200v184h400v-184c0,-110 -89,-200 -200,-200z" id="path_2"/><path fill="#6f6571" d="m256,143c-70,0 -128,57 -128,128v155h256v-156c0,-70 -57,-128 -128,-128z" id="path_3"/><path fill="#857e87" d="m256,191c-48,0 -88,39 -88,88v104h176v-104c-0,-48 -39,-88 -88,-88z" id="path_4"/><path fill="#c8c5c9" d="m320,328h-128l-136,144h400z" id="path_5"/><path fill="#dad8db" d="m302,328h-92l-98,144h288z" id="path_6"/><path fill="#eceaec" d="m279,328h-46l-49,144h144z" id="path_7"/><path fill="#ffffff" d="m320,328h-128v-48c0,-35 28,-64 64,-64 35,0 64,28 64,64z" id="path_8"/><path fill="#000000" d="m437,107c-48,-48 -112,-75 -181,-75s-132,26 -181,75c-48,48 -75,112 -75,181v184c0,4 3,7 7,7h497c4,0 7,-3 7,-7v-184c0,-68 -26,-132 -75,-181zM397,135c-36,-34 -83,-53 -134,-55v-33c59,1 114,24 157,65zM114,136 L91,112c43,-40 98,-63 157,-65v33c-51,1 -98,22 -134,55zM48,280h-33c1,-59 24,-114 65,-157l23,23c-33,35 -53,82 -55,134zM15,295h33v8c0,4 3,7 7,7s7,-3 7,-7v-16c0,-106 86,-193 193,-193 57,0 111,25 148,69 2,3 7,3 10,1 3,-2 3,-7 1,-10 -2,-3 -5,-5 -7,-8l23,-23c40,43 63,98 65,157h-33c-1,-34 -10,-67 -28,-97 -2,-3 -6,-4 -10,-2 -3,2 -4,6 -2,10 17,29 26,63 26,97v165l-121,-128v-45c0,-39 -32,-71 -71,-71s-71,32 -71,71v45l-121,128v-117c0,-4 -3,-7 -7,-7s-7,3 -7,7v128h-33zM195,335h121l122,129h-366zM199,320v-40c0,-31 25,-56 56,-56s56,25 56,56v40zM464,464v-169h33v169h-33z" id="path_9"/><path fill="none" d="M256,447v-16M256,399v-8M256,363h0" stroke-linecap="round" stroke="#000000" stroke-width="12.0" id="path_10"/></svg>