<svg id="vector" xmlns="http://www.w3.org/2000/svg" width="24.0d" height="24.0d" viewBox="0 0 512.0 512.0"><path fill="#3ae8e6" d="m116,132h30v64h-30z" stroke="#000000" stroke-width="12.0" id="path_0"/><path fill="#7cf0ee" d="M131,188 l-15,7.7v248.4h30v-248.4z M234,174 l-83.4,-53.4 -19.4,33.7 88,45.5c7,3.6 15.8,1 19.8,-5.8 4,-7 1.8,-15.8 -5,-20z" stroke="#000000" stroke-width="12.0" id="path_1"/><path fill="#bdf7f7" d="m146,21.8c-0,-8 -7,-14 -14,-14.3s-14.6,6 -14,14.3l-4.5,99 -83.4,53.4c-6.7,4 -9,13 -5,20s12.7,9.4 19.8,5.8l88,-45.5 19.4,-33.7z" stroke="#000000" stroke-width="12.0" id="path_2"/><path fill="#3ae8e6" d="m365.8,132h30v64h-30z" stroke="#000000" stroke-width="12.0" id="path_3"/><path fill="#7cf0ee" d="M380.8,188 l-15,7.7v248.4h30v-248.4z M483.8,174 l-83.4,-53.4 -19.4,33.7 88,45.5c7,3.6 15.8,1 19.8,-5.8 4,-7 1.8,-15.8 -5,-20z" stroke="#000000" stroke-width="12.0" id="path_4"/><path fill="#bdf7f7" d="m395.8,21.8c-0,-8 -7,-14 -14,-14.3s-14.6,6 -14,14.3l-4.5,99 -83.4,53.4c-6.7,4 -9,13 -5,20s12.7,9.4 19.8,5.8l88,-45.5 19.4,-33.7z" stroke="#000000" stroke-width="12.0" id="path_5"/><path fill="#ffffff" d="M131,132m-22.5,0a22.5,22.5 0,1 1,45 0a22.5,22.5 0,1 1,-45 0 M380.8,132m-22.5,0a22.5,22.5 0,1 1,45 0a22.5,22.5 0,1 1,-45 0" stroke="#000000" stroke-width="12.0" id="path_6"/><path fill="#9dcb3b" d="M10,414h490v86h-490z" stroke-linejoin="round" stroke="#000000" stroke-width="12.0" id="path_7"/></svg>