<svg id="vector" xmlns="http://www.w3.org/2000/svg" width="24.0d" height="24.0d" viewBox="0 0 512.0 512.0"><path fill="#7d4a3b" d="m315,49h-118c-33,0 -60,27 -60,60v83c0,8 6,15 15,15h208c8,0 15,-6 15,-15v-83c0,-33 -27,-60 -60,-60z" id="path_0"/><path fill="#4f4540" d="m375,109v83c0,8 -6,15 -15,15h-104v-158h59c33,0 60,27 60,60z" id="path_1"/><path fill="#af705c" d="m163,145h-22c-33,0 -60,27 -60,60v83c0,8 6,15 15,15h112c8,0 15,-6 15,-15v-83c0,-33 -27,-60 -60,-60z" id="path_2"/><path fill="#c6865c" d="m431,205v83c0,8 -6,15 -15,15h-178c-8,0 -15,-6 -15,-15v-83c0,-23 13,-43 33,-53 7,-3 16,-6 25,-6 0,-0 1,-0 2,-0h88c33,0 60,27 60,60z" id="path_3"/><path fill="#af705c" d="m416,303h-160v-151c7,-3 16,-6 25,-6 0,-0 1,-0 2,-0h88c33,0 60,27 60,60v83c0,8 -6,15 -15,15z" id="path_4"/><path fill="#7d4a3b" d="m289,301v83c0,8 -6,15 -15,15h-210c-8,0 -15,-6 -15,-15v-83c0,-33 27,-60 60,-60h120c9,0 18,2 27,6 19,9 33,30 33,53z" id="path_5"/><path fill="#4f4540" d="m289,301v83c0,8 -6,15 -15,15h-18v-151c19,9 33,30 33,53z" id="path_6"/><path fill="#7d4a3b" d="m403,241h-54c-33,0 -60,27 -60,60v83c0,8 6,15 15,15h144c8,0 15,-6 15,-15v-83c0,-33 -27,-60 -60,-60z" id="path_7"/><path fill="#c6865c" d="m512,397v51c0,8 -6,15 -15,15h-322v-66c0,-33 26,-60 60,-60h217c33,0 60,26 60,60z" id="path_8"/><path fill="#af705c" d="M115,337h-55c-33,0 -60,26 -60,60v51c0,8 6,15 15,15h160v-66c0,-33 -26,-60 -60,-60zM512,397v51c0,8 -6,15 -15,15h-241v-126h196c33,0 60,26 60,60zM231,49v15c0,8 -6,15 -15,15s-15,-6 -15,-15v-15zM159,241v15c0,8 -6,15 -15,15s-15,-6 -15,-15v-15z" id="path_9"/><path fill="#7d4a3b" d="M311,145v15c0,8 -6,15 -15,15s-15,-6 -15,-15v-15c0,-0 1,-0 2,-0zM383,337v15c0,8 -6,15 -15,15s-15,-6 -15,-15v-15z" id="path_10"/></svg>