<svg id="vector" xmlns="http://www.w3.org/2000/svg" width="24.0d" height="24.0d" viewBox="0 0 512.0 512.0"><path fill="#cf8c5d" d="m273,325c-0,-6 -2,-13 -2,-19 -0,-5 0,-9 0,-12l0,-21c1,-34 -13,-66 -39,-89 -7,-6 -17,-10 -25,-15 -0,-0 -0,-0 -1,-0 -4,-3 -9,-6 -14,-10 -6,-4 -12,-7 -19,-8 -13,-2 -26,4 -39,7 -12,3 -27,3 -38,11 -10,7 -16,20 -25,31 -8,9 -21,17 -27,29 -6,11 -6,26 -10,39 -4,12 -13,24 -15,37 -2,13 2,27 2,40 0,13 -4,27 -2,40 2,13 12,24 17,36 5,12 6,27 14,37 8,11 22,16 33,23 11,7 21,17 35,20 13,2 26,-4 39,-7 1,-0 3,-0 4,-1 11,-2 24,-3 34,-10 10,-7 16,-20 25,-31 8,-9 21,-17 27,-29 6,-11 6,-26 10,-39 4,-12 13,-24 15,-37 1,-7 0,-14 -0,-21z" stroke="#000000" stroke-width="12.0" id="path_0"/><path fill="#c97c48" d="m490,185c-1,-12 1,-27 -2,-40s-14,-23 -20,-35c-6,-12 -7,-27 -15,-37 -8,-11 -21,-17 -31,-25 -10,-9 -18,-21 -29,-27 -12,-6 -27,-4 -40,-6 -0,-0 -1,-0 -2,-0 -12,-1 -25,-6 -38,-2 -13,3 -22,15 -32,24 -9,8 -23,15 -30,27 -6,11 -6,25 -9,39 -3,12 -11,24 -12,38 -0,13 5,26 7,40 0,1 0,2 0,3 0,11 -1,24 1,36 3,13 14,23 20,35 6,12 7,27 15,37 0,0 0,0 0,1v0c8,10 21,16 30,24 10,9 18,21 29,27 12,6 27,4 40,6 13,1 27,6 40,2 9,-2 16,-9 24,-16 2,-2 5,-5 8,-7 9,-8 23,-15 30,-27 6,-11 6,-26 9,-39 3,-12 11,-24 12,-38 0,-13 -5,-26 -7,-40z" stroke="#000000" stroke-width="12.0" id="path_1"/><path fill="#c16d35" d="m177,357c10,1 15,13 10,21 -2,4 -5,6 -7,7 -0,0 -0,0 -1,1 0,0 0,1 0,1 2,3 7,11 5,22 -1,11 -8,16 -12,19 -0,0 -0,0 -0,0 -3,4 -8,6 -14,6l-1,-0c-10,-1 -15,-13 -10,-21 2,-4 5,-6 7,-7 0,-0 0,-0 1,-1 -0,-0 -0,-1 -0,-1 -2,-3 -7,-11 -5,-22 1,-11 8,-16 12,-19 0,-0 0,-0 0,-0 3,-4 8,-6 14,-6z" stroke="#000000" stroke-width="12.0" id="path_2"/><path fill="#c16d35" d="m106,285c10,1 15,13 10,21 -2,4 -5,6 -7,7 -0,0 -0,0 -1,1 0,0 0,1 0,1 2,3 7,11 5,22 -1,11 -8,16 -12,19 -0,0 -0,0 -0,0 -3,4 -8,6 -14,6l-1,-0c-10,-1 -15,-13 -10,-21 2,-4 5,-6 7,-7 0,-0 0,-0 1,-1 -0,-0 -0,-1 -0,-1 -2,-3 -7,-11 -5,-22s8,-16 12,-19c0,-0 0,-0 0,-0 3,-4 8,-6 14,-6z" stroke="#000000" stroke-width="12.0" id="path_3"/><path fill="#c16d35" d="m184,213c10,1 15,13 10,21 -2,4 -5,6 -7,7 -0,0 -0,0 -1,1 0,0 0,1 0,1 2,3 7,11 5,22 -1,11 -8,16 -12,19 -0,0 -0,0 -0,0 -3,4 -8,6 -14,6l-1,-0c-10,-1 -15,-13 -10,-21 2,-4 5,-6 7,-7 0,-0 0,-0 1,-1 -0,-0 -0,-1 -0,-1 -2,-3 -7,-11 -5,-22s8,-16 12,-19c0,-0 0,-0 0,-0 3,-4 8,-6 14,-6z" stroke="#000000" stroke-width="12.0" id="path_4"/><path fill="#af5b32" d="m436,242c3,10 -0,18 -2,23 -0,0 -0,0 -0,0 -1,5 -4,10 -10,11l-1,0c-9,2 -19,-5 -18,-15 0,-4 1,-8 2,-10 0,-0 0,-1 0,-1 -0,-0 -0,-0 -1,-0 -3,-2 -11,-7 -14,-17 -3,-10 0,-18 2,-23 0,-0 0,-0 0,-0 1,-5 4,-10 10,-11l1,-0c9,-2 19,5 18,15 -0,4 -1,8 -2,10 -0,0 -0,1 -0,1 0,0 0,0 1,0 3,2 11,7 14,18z" stroke="#000000" stroke-width="12.0" id="path_5"/><path fill="#af5b32" d="m380,109c3,10 -0,18 -2,23 -0,0 -0,0 -0,0 -1,5 -4,10 -10,11l-1,0c-9,2 -19,-5 -18,-15 0,-4 1,-8 2,-10 0,-0 0,-1 0,-1 -0,-0 -0,-0 -1,-0 -3,-2 -11,-7 -14,-17 -3,-10 0,-18 2,-23 0,-0 0,-0 0,-0 1,-5 4,-10 10,-11l1,-0c9,-2 19,5 18,15 -0,4 -1,8 -2,10 -0,0 -0,1 -0,1 0,0 0,0 1,0 3,2 11,7 14,18z" stroke="#000000" stroke-width="12.0" id="path_6"/><path fill="#af5b32" d="m340,208c3,10 -0,18 -2,23 -0,0 -0,0 -0,0 -1,5 -4,10 -10,11l-1,0c-9,2 -19,-5 -18,-15 0,-4 1,-8 2,-10 0,-0 0,-1 0,-1 -0,-0 -0,-0 -1,-0 -3,-2 -11,-7 -14,-17 -3,-10 0,-18 2,-23 0,-0 0,-0 0,-0 1,-5 4,-10 10,-11l1,-0c9,-2 19,5 18,15 -0,4 -1,8 -2,10 -0,0 -0,1 -0,1 0,0 0,0 1,0 3,2 11,7 14,18z" stroke="#000000" stroke-width="12.0" id="path_7"/></svg>