<svg width="100" height="100" viewBox="0 0 100 100" fill="none" xmlns="http://www.w3.org/2000/svg">
<g clip-path="url(#clip0_8_44)">
<path d="M23.0176 62L17 61.5H16.5L16 62V88H23.6364V69.4968L23.0176 62ZM64.3636 69.2978H72V87.801H64.3636V69.2978Z" fill="white" stroke="black" stroke-width="0.375"/>
<path d="M73.9219 23.0469H44.4297C43.0625 24.6094 41.1094 25.5859 38.7656 25.5859C37.9844 25.5859 37.3984 25.5859 36.6172 25.3906H36.4219V35.3516C36.4219 38.0859 35.8359 40.625 34.2734 42.9688C34.4688 43.5547 34.4688 44.3359 34.4688 45.1172V45.5078C34.4688 49.4141 31.3438 52.7344 27.2422 52.7344H16.5V64.4531C16.5 67.5781 19.0391 70.3125 22.3594 70.1172H29.7812C30.7578 70.1172 31.7344 70.8984 31.7344 71.875V88.0859H39.3516V71.875C39.3516 70.8984 40.1328 70.1172 41.3047 70.1172H77.8281C78.8047 70.1172 79.7812 70.8984 79.7812 71.875V88.0859H87.3984V35.9375C87.3984 28.5156 81.3438 22.2656 73.7266 23.0469H73.9219Z" fill="#FFFCFA" stroke="black" stroke-width="0.375"/>
<path d="M47.7803 22.0565C49.2089 22.831 50.2107 23.5929 51.053 24.9855C51.2787 25.9414 51.4698 26.8809 51.6439 27.8458C52.1816 30.5236 53.1203 32.5818 54.6903 34.8068C55.8634 36.5337 55.9648 37.6077 55.7803 39.6303C55.174 41.0037 54.4818 41.7544 53.2348 42.5592C51.9812 42.8555 50.8564 42.8301 49.5985 42.5592C48.4878 41.8387 47.6135 40.941 46.6894 39.9964C44.8793 38.5157 43.8557 38.3456 41.5985 38.5319C41.0585 38.7131 41.0585 38.7131 40.5075 38.898C39.9105 38.9502 39.3112 38.9787 38.7121 38.9896C38.4013 38.999 38.0905 39.0084 37.7703 39.0182C36.6679 38.8709 36.1985 38.5904 35.4166 37.7997C35.007 36.7039 34.9308 35.6668 35.053 34.5046C35.8485 33.4749 35.8485 33.4749 36.8712 32.674C38.1116 31.5797 38.6556 30.6071 39.2348 29.0585C40.3576 26.2359 41.6694 24.1973 44.1439 22.4226C45.46 21.9809 46.3957 21.9384 47.7803 22.0565Z" fill="#020202"/>
<path d="M20.2266 21.4219L18.1647 17.4219C18.1647 16.0547 17.6875 14 17.6875 14V12C16.3203 12 14.9531 14.9766 14.9531 16.5391V21.4219H20.2266ZM38 21.4219V16.5391C38 15.1719 36.9531 7.96093 35.4609 14C35.3377 14.4986 34.4531 15.8984 34.4531 17.4609L32.7266 21.4219H38Z" fill="#E7B795" stroke="black" stroke-width="0.375"/>
<path d="M42.5976 22.1282H36.9966V26.7436C37.4388 26.8718 38.0284 26.8718 38.618 26.8718C40.9763 26.8718 43.0398 25.5897 43.9241 23.6667C44.2189 22.8974 43.6293 22 42.5976 22V22.1282ZM14.0034 22.1282H8.40242C7.37067 22.1282 6.7811 22.8974 7.07588 23.7949C7.81285 25.5897 9.87635 27 12.382 27C12.9716 27 13.5612 27 14.0034 26.8718V22.2564V22.1282Z" fill="white" stroke="black" stroke-width="0.375"/>
<path d="M14.6797 21L11.1172 35.1562C11.1172 38.0859 11.8984 40.8203 13.2656 43.1641C14.0469 40.2344 16.7812 38.0859 20.1016 38.0859H32.0156C35.1406 38.0859 38.0703 40.2344 38.8516 43.1641C40.2188 40.8203 41 38.0859 41 35.1562L38.1797 21L33.6797 18.5L27.6797 17.5H25.1172L19.1797 18.5L14.6797 21Z" fill="white" stroke="black" stroke-width="0.375"/>
<path d="M32.0312 53.125H20.1172C16.2109 53.125 12.8906 50 12.8906 45.8984V45.5078C12.8906 41.6016 16.0156 38.2812 20.1172 38.2812H32.0312C35.9375 38.2812 39.2578 41.4062 39.2578 45.5078V45.8984C39.2578 49.8047 36.1328 53.125 32.0312 53.125Z" fill="#FEA9A9" stroke="black" stroke-width="0.375"/>
<path d="M64.0466 84H71.6329V88H64.0466V84ZM16 84H23.5863V88H16V84ZM79.4137 84H87V88H79.4137V84ZM31.3671 84H38.9534V88H31.3671V84Z" fill="#32569D" stroke="black" stroke-width="0.375"/>
<path d="M18.1641 29.2969V32.2266ZM31.0547 29.2969V32.2266ZM22.2656 44.5312H19.9219ZM33.7891 44.9219H31.6406Z" fill="black"/>
<path d="M18.1641 29.2969V32.2266M31.0547 29.2969V32.2266M22.2656 44.5312H19.9219M33.7891 44.9219H31.6406" stroke="black" stroke-width="0.5625" stroke-linecap="round"/>
<path d="M17.6974 51.5C18.8338 51.6831 18.8338 51.6831 19.6747 52.4611C20.4091 53.7213 20.3769 54.9365 20.4247 56.374C20.5355 58.9558 21.2157 60.3464 22.8338 62.3005C24.2574 64.1488 24.5489 65.1404 24.2883 67.4262C23.6296 68.4053 23.2419 68.5097 22.1065 68.8907C20.0239 69.0885 18.9942 68.7632 17.3793 67.4262C15.884 65.758 15.4796 64.5967 15.5 62.3392C15.5611 61.5683 15.5611 61.5683 15.9247 60.3098C16.598 57.8947 16.3197 55.5432 15.9332 53.0918C15.9304 52.8685 15.9276 52.6453 15.9247 52.4153C16.652 51.6831 16.652 51.6831 17.6974 51.5Z" fill="#040404"/>
<path d="M80.461 25.6741C81.5092 27.4684 80.7564 30.0446 80.466 32.0502C80.3875 32.598 80.3144 33.1464 80.2414 33.6951C80.1912 34.048 80.1407 34.4008 80.0898 34.7536C80.0455 35.0699 80.0011 35.3862 79.9555 35.7122C79.6454 36.9886 79.1574 37.8742 78.1824 38.6442C76.1351 39.3987 74.3644 38.8604 72.449 37.8966C71.2847 37.2179 70.5276 36.4275 70.0968 35.036C69.7707 33.0312 70.2947 31.5108 71.2729 29.8349C72.9866 27.1135 77.422 23.4798 80.461 25.6741Z" fill="#020202"/>
<path d="M52.517 46.0754C52.6492 46.3798 52.6492 46.3798 52.7841 46.6904C52.906 46.9556 53.0278 47.2209 53.1534 47.4941C53.3306 47.8891 53.3306 47.8891 53.5114 48.2922C54.0722 49.16 54.4621 49.3927 55.4261 49.7366C56.3445 49.8537 57.2518 49.8971 58.1761 49.9411C59.2939 50.1449 59.7707 50.3261 60.517 51.2011C60.9311 53.944 59.8967 56.3753 58.9943 58.9354C58.8535 59.3578 58.7126 59.7802 58.5675 60.2154C56.8678 65.1202 56.8678 65.1202 54.6989 66.212C53.1769 66.3888 52.3404 66.3098 50.9716 65.5942C49.3604 64.1108 49.223 61.6868 48.8807 59.6219C48.6004 59.5511 48.3201 59.4803 48.0312 59.4073C47.6666 59.312 47.3019 59.2167 46.9261 59.1184C46.3819 58.9783 46.3819 58.9783 45.8267 58.8353C44.8807 58.5235 44.8807 58.5235 44.1534 57.7913C43.9489 56.9675 43.9489 56.9675 44.1534 55.9607C44.7539 55.3609 45.401 54.8507 46.0625 54.3203C47.5081 53.0565 47.8107 51.5339 48.108 49.7137C48.3481 48.4 48.5328 47.884 49.3352 46.7619C50.505 45.9589 51.1297 45.913 52.517 46.0754Z" fill="#020202"/>
<path d="M78.7464 47.7132C79.663 48.1745 80.4939 48.7256 81.3375 49.2779C82.17 49.7689 83.0057 50.0638 83.9581 50.3428C84.4444 50.5072 84.4444 50.5072 84.9316 50.924C85.0855 51.7515 85.0032 52.0859 84.4415 52.781C83.6661 53.5394 82.7454 53.9547 81.7039 54.4019C81.4434 54.5197 81.4434 54.5197 81.1776 54.64C79.102 55.5567 77.0656 56.2304 74.7002 55.9258C72.7402 55.3462 71.2726 54.3967 70.3154 52.7997C69.8715 51.5054 69.8476 50.3238 70.559 49.1005C72.3651 46.6632 75.8319 46.5574 78.7464 47.7132Z" fill="#020202"/>
<path d="M11.2392 22.1006C12.2263 22.5153 12.5093 23.4554 12.8275 24.1854C12.9778 24.6174 13.128 25.1675 12.8223 25.5762C12.532 25.8216 12.3025 25.9436 11.8565 26C11.3861 25.9496 11.2666 25.8254 10.9834 25.5717C10.8454 25.436 10.7112 25.2993 10.5803 25.1603C10.4153 24.9518 10.4153 24.9518 10.1641 24.8804C9.96224 24.8717 9.7603 24.8634 9.5582 24.858C7.90894 24.8129 7.90894 24.8129 7.22327 24.4074C6.99679 24.1054 6.94515 23.8241 7.05681 23.4905C7.36321 23.1562 7.69521 23.0115 8.20124 22.8389C8.78762 22.6294 9.24016 22.4123 9.72022 22.1006C10.2048 21.932 10.7382 22.006 11.2392 22.1006Z" fill="#020202"/>
</g>
<defs>
<clipPath id="clip0_8_44">
<rect width="100" height="100" fill="white"/>
</clipPath>
</defs>
</svg>
