<svg width="100" height="100" viewBox="0 0 100 100" fill="none" xmlns="http://www.w3.org/2000/svg">
<g clip-path="url(#clip0_8_44)">
<g clip-path="url(#clip1_8_44)">
<path d="M82.8668 11C82.6277 11 82.5081 11 82.269 10.8063C81.9103 10.5157 81.9103 10.1283 82.269 9.83777C84.1819 8.28814 85.497 4.80145 82.3886 2.18644C82.0299 1.89588 82.0299 1.50847 82.3886 1.21792C82.7472 0.927361 83.2254 0.927361 83.5841 1.21792C85.8557 3.05811 86.0948 5.09201 85.9752 6.44794C85.8557 8.09443 84.8992 9.74092 83.4646 10.8063C83.345 10.9031 83.1059 11 82.8668 11Z" fill="#464D59"/>
<path d="M89.6938 20C89.5024 20 89.4067 20 89.2153 19.7591C88.9282 19.3977 88.9282 18.9159 89.2153 18.5545C90.2679 17.2295 91.8947 16.2659 93.6172 16.025C94.9569 15.9045 96.9665 16.1454 98.7847 18.4341C99.0718 18.7954 99.0718 19.2773 98.7847 19.6386C98.4976 20 98.1148 20 97.8278 19.6386C96.488 17.9523 94.8612 17.7113 93.8086 17.8318C92.5646 17.9523 91.2249 18.675 90.3636 19.7591C90.0766 19.8795 89.8852 20 89.6938 20Z" fill="#464D59"/>
<path d="M44.4766 73.4688C39.3984 78.5469 25.9219 86.5 15 84C13.5 73.4688 20.8437 59.9922 25.9219 54.9141L32.1719 48.6641L50.7266 67.2188L44.4766 73.4688Z" fill="#D8F78B"/>
<path d="M87.6406 40.0703C95.6484 32.0625 95.4531 19.1719 87.4453 11.1641C79.6328 3.74219 67.1328 3.9375 59.5156 11.3594C55.8047 14.875 53.8516 19.5625 53.6562 24.4453C53.6562 26.3984 52.6797 28.3516 51.3125 29.7188L32.7578 48.2734L51.3125 66.8281L69.8672 48.2734C71.2344 46.9062 73.1875 46.125 75.1406 45.9297C79.4375 45.7344 83.9297 43.7812 87.6406 40.0703Z" fill="#463E3C"/>
<path d="M56.7812 60.9688L38.2266 42.4141L47.2109 33.4297L65.7656 51.9844L56.7812 60.9688Z" fill="#5C5958"/>
<path d="M56.0859 47.3574C57.8848 46.3938 59.5017 46.1237 60.8486 46.6006H60.8496C62.2393 47.1183 63.3401 48.3994 64.127 50.3311C64.9122 52.259 65.357 54.7723 65.4707 57.627C65.698 63.3342 64.5975 70.2957 62.3936 76.4072V76.4092C61.2104 79.7211 59.1215 81.791 56.6025 82.7871C54.0723 83.7876 51.0543 83.7248 47.9971 82.6621C44.9533 81.6041 42.6088 79.6889 41.3154 77.2412C40.0255 74.7999 39.7574 71.7854 40.9414 68.4707V68.4697C43.1454 62.2807 46.7179 56.2491 50.4863 52.0469C52.3715 49.9447 54.288 48.3207 56.0859 47.3574ZM23.4668 36.6074C29.4664 34.3655 36.3017 33.2847 41.9053 33.5352C44.7081 33.6605 47.1758 34.1184 49.0684 34.9102C50.9593 35.7012 52.2161 36.7988 52.7275 38.1748H52.7285C53.2037 39.5567 52.9346 41.2138 51.9854 43.0498C51.0382 44.8817 49.4425 46.8325 47.3779 48.751C43.25 52.5867 37.3257 56.2222 31.248 58.4648V58.4658C27.9977 59.669 25.0435 59.3962 22.6504 58.0859C20.2491 56.7712 18.3654 54.3849 17.3242 51.2812C16.2789 48.165 16.2168 45.0858 17.2021 42.5039C18.183 39.934 20.2183 37.8105 23.4658 36.6084L23.4668 36.6074Z" fill="#EDFDFF" fill-opacity="0.85" stroke="black"/>
<line x1="13.2428" y1="84.4371" x2="4.24282" y2="89.4371" stroke="#D8F78B"/>
<line x1="18.6053" y1="97.693" x2="26.5866" y2="87.4314" stroke="#D8F78B"/>
<line x1="-0.0383482" y1="72.5015" x2="12.9234" y2="71.5044" stroke="#D8F78B"/>
</g>
</g>
<defs>
<clipPath id="clip0_8_44">
<rect width="100" height="100" fill="white"/>
</clipPath>
<clipPath id="clip1_8_44">
<rect width="100" height="100" fill="white"/>
</clipPath>
</defs>
</svg>
