<svg id="vector" xmlns="http://www.w3.org/2000/svg" width="24.0d" height="24.0d" viewBox="0 0 512.0 512.0"><path fill="#512807" d="M416,364c-9,-9 -20,-22 -29,-36c-10,-5 -21,-2 -41,-0l-0,0c0,0 18,42 25,54l-25,105h33l22,-96l15,-26L416,364z" stroke="#000000" stroke-width="12.0" id="path_0"/><path fill="#512807" d="M231,311l-17,70v105h27V380l19,-58l-0,-0C239,317 231,311 231,311z" stroke="#000000" stroke-width="12.0" id="path_1"/><path fill="#a86b38" d="M455,341c0,0 4,0 15,-37c11,-37 7,-86 -40,-112s-114,7 -146,-4c-32,-11 -86,-4 -86,-4l-39,-73l0,0c4,-14 4,-31 4,-31c-28,3 -37,16 -40,24l2,-11c-54,-6 -59,34 -59,34l-39,14l13,28c0,0 31,-0 56,-0l0,0c0,0 28,78 43,96s51,55 51,55v166h24V381l17,-70c0,0 18,12 70,16c52,4 69,-9 85,0l0,0c21,32 52,58 52,58l-29,100h29l37,-113L455,341z" stroke="#000000" stroke-width="12.0" id="path_2"/><path fill="#ffdcaf" d="M141,217h16l-29,-53l-0,-0c-4,3 -9,5 -16,5c-7,-0 -7,-0 -17,-0c3,0 0,0 0,0l0,0c0,0 28,78 43,96c7,8 19,21 29,32C171,255 141,217 141,217z" stroke="#000000" stroke-width="12.0" id="path_3"/><path fill="#b99c80" d="M454,208L454,208c12,13 18,29 21,45l0,0c12,27 28,22 28,22C506,221 454,208 454,208z" stroke="#000000" stroke-width="12.0" id="path_4"/><path fill="none" d="M8,24c-10,64 160,40 150,10 M40,28l10,30 M74,28l10,30 M124,28l-4,30 M108,62l10,24" stroke-linecap="round" stroke="#000000" stroke-width="16.0" id="path_5"/><path fill="#000000" d="M81,121c-1,6 4,12 11,11c4,-0 7,-4 8,-8c1,-6 -4,-12 -11,-11C85,113 82,117 81,121z" id="path_6"/></svg>