<svg width="100" height="100" viewBox="0 0 100 100" fill="none" xmlns="http://www.w3.org/2000/svg">
<g clip-path="url(#clip0_8_44)">
<path d="M87.1094 81.4453C87.1094 90.4297 79.6875 97.8516 70.7031 97.8516H29.4922C20.5078 97.8516 13.0859 90.4297 13.0859 81.4453C13.0859 77.1484 14.8438 72.8516 17.7734 69.7266L26.3672 61.1328C27.7344 59.7656 29.1016 58.2031 30.4688 56.4453C36.3281 54.8828 42.5781 56.0547 47.8516 59.5703C54.4922 64.2578 65.2344 64.4531 73.0469 60.7422C73.0469 60.7422 73.0469 60.7422 73.2422 60.9375L81.8359 69.5312C85.3516 72.8516 87.1094 76.9531 87.1094 81.4453Z" fill="#00FF00" stroke="black" stroke-width="0.5625"/>
<path d="M59.7656 26.5625C59.7656 38.8672 64.6484 51.9531 73.2422 60.7422C65.4297 64.4531 54.6875 64.0625 48.0469 59.5703C42.9688 56.0547 36.5234 54.8828 30.6641 56.4453C36.9141 48.0469 40.2344 37.1094 40.2344 26.7578C41.6016 26.5625 56.8359 26.5625 59.7656 26.5625Z" fill="#EDECFF" stroke="black" stroke-width="0.5625"/>
<path d="M58.5938 1.95312C61.1328 1.95312 62.8906 4.29688 62.3047 6.64062L60.5469 15.2344C59.7656 14.8438 58.7891 14.6484 57.8125 14.6484H42.1875C41.2109 14.6484 40.2344 14.8438 39.4531 15.2344L37.6953 6.64062C36.9141 4.29688 38.6719 1.95312 41.2109 1.95312H58.5938Z" fill="#BF6015" stroke="black" stroke-width="0.5625"/>
<path d="M63.6719 20.7031C63.6719 23.8281 61.1328 26.5625 57.8125 26.5625H42.1875C39.0625 26.5625 36.3281 24.0234 36.3281 20.7031C36.3281 17.5781 38.8672 14.8438 42.1875 14.8438H57.8125C60.9375 14.8438 63.6719 17.3828 63.6719 20.7031Z" fill="#57555C" stroke="black" stroke-width="0.5625"/>
<path d="M59.7656 80.4688C59.7656 78.9147 60.383 77.4244 61.4818 76.3255C62.5806 75.2267 64.071 74.6094 65.625 74.6094C67.179 74.6094 68.6694 75.2267 69.7682 76.3255C70.867 77.4244 71.4844 78.9147 71.4844 80.4688C71.4844 82.0228 70.867 83.5131 69.7682 84.612C68.6694 85.7108 67.179 86.3281 65.625 86.3281C64.071 86.3281 62.5806 85.7108 61.4818 84.612C60.383 83.5131 59.7656 82.0228 59.7656 80.4688ZM40.2344 66.7969C42.3828 66.7969 44.1406 68.5547 44.1406 70.7031C44.1406 72.8516 42.3828 74.6094 40.2344 74.6094C38.0859 74.6094 36.3281 72.8516 36.3281 70.7031C36.3281 68.5547 38.0859 66.7969 40.2344 66.7969Z" fill="#EDECFF" stroke="black" stroke-width="0.5625"/>
<g clip-path="url(#clip1_8_44)">
<path d="M53.1288 48.8944L55.5971 50.1576C56.1817 50.6586 56.0355 50.9997 56.4415 51.3089C56.842 51.6714 57.0964 51.73 57.3346 51.3889C57.5241 50.9998 57.4862 50.6107 57.5457 50.1896C57.8218 49.9284 58.0491 49.7952 58.2765 49.534C58.5255 49.2622 58.5146 48.9903 58.1303 48.7985C57.8109 48.6706 57.5078 48.6066 57.1235 48.7185C56.8799 48.7931 56.6201 48.8358 56.2954 48.7025L53.6322 47.4873L46.0612 44.9028C45.0431 44.4128 44.1972 44.0472 43.1906 43.5007C42.6433 43.0711 42.8193 42.5849 42.1572 42.1891C41.8663 42.0459 41.6558 41.9819 41.4223 42.3701C41.2731 42.7168 41.2845 43.0862 41.2616 43.4442C41.0013 43.7193 40.7066 43.8814 40.4923 44.2244C40.1822 44.7144 40.653 44.8765 40.9056 44.9368C41.6252 45.1139 41.8854 44.7935 42.5476 44.9254C43.8375 45.5172 45.1388 46.1315 46.3827 46.7345L53.1288 48.8944Z" fill="#00FF00" stroke="black" stroke-linejoin="round"/>
<path d="M53.6809 46.6877L57.3671 44.9768C58.0653 44.705 58.1628 45.0887 58.7798 44.9768C59.2508 44.9715 59.6405 44.7903 59.608 44.3532C59.3698 44.0067 59.1479 43.7882 58.7311 43.4097C58.7528 43.0047 58.677 42.6156 58.52 42.2265C58.3576 41.9973 58.0653 41.896 57.6269 42.3064C57.1831 42.6369 57.3238 43.0793 56.7662 43.5377C55.8569 43.98 55.0287 44.3745 54.0219 44.8649L46.3574 47.4713C45.4696 47.935 44.6632 48.3667 43.6455 48.7505C42.8174 48.953 42.8499 48.452 41.8431 48.7825C41.5562 49.0063 41.5616 49.3261 41.7944 49.5659C42.065 49.8271 42.2545 49.9924 42.4926 50.2216C42.5684 50.552 42.5792 50.8345 42.6225 51.2289C42.7849 51.714 43.1421 51.6873 43.4507 51.4528C43.586 51.2876 43.7538 51.1384 43.8566 50.9571C43.9974 50.7173 44.1543 50.4454 44.3438 50.2216L46.7958 48.9424L53.6809 46.6877Z" fill="#00FF00" stroke="black" stroke-linejoin="round"/>
<path d="M45.0578 41.569C44.3114 40.8544 43.7897 39.6143 43.7173 38.2751C43.6387 36.7993 44.4279 35.3339 45.6106 34.4985C46.9357 33.5801 49.1512 33.3261 50.5288 33.3947C51.462 33.3953 53.5405 33.8717 54.2742 34.4098C55.5612 35.3313 56.2515 36.6392 56.2993 38.13C56.37 39.6274 55.7295 40.7679 54.9453 41.4797" fill="#00FF00"/>
<path d="M45.0578 41.569C44.3114 40.8544 43.7897 39.6143 43.7173 38.2751C43.6387 36.7993 44.4279 35.3339 45.6106 34.4985C46.9357 33.5801 49.1512 33.3261 50.5288 33.3947C51.462 33.3953 53.5405 33.8717 54.2742 34.4098C55.5612 35.3313 56.2515 36.6392 56.2993 38.13C56.37 39.6274 55.7295 40.7679 54.9453 41.4797" stroke="black" stroke-miterlimit="5"/>
<path d="M45.132 41.317C45.132 41.317 44.2298 44.0069 45.9684 44.4656L46.6022 48.0632C47.2712 50.8949 52.6251 50.8968 53.4131 48.0632L54.047 44.4656C55.8296 43.9969 54.9246 41.3158 54.9246 41.3158L45.132 41.317Z" fill="#00FF00"/>
<path d="M45.1032 37.3708C44.8009 37.6313 44.839 38.0229 44.8935 38.6074C44.9364 39.0514 45.2242 39.4885 45.2393 39.8942C45.3451 40.7502 45.0881 41.6062 44.9671 42.3059C44.884 43.1097 45.1184 43.802 45.4207 44.07C45.7231 44.3342 46.1134 44.4437 46.5234 44.5669C46.896 44.6628 47.0892 44.8297 47.371 45.0366C47.7067 45.3875 47.7868 45.6778 47.7792 46.0351" stroke="black"/>
<path d="M54.9488 37.3485C55.2512 37.609 55.2131 38.0006 55.1586 38.585C55.1156 39.0291 54.8279 39.4662 54.8128 39.8718C54.707 40.7278 54.964 41.5838 55.0849 42.2835C55.1681 43.0874 54.9337 43.7797 54.6314 44.0476C54.329 44.3119 53.7756 44.4538 53.5287 44.5445C53.2409 44.6437 52.9467 44.8233 52.6811 45.0302C52.3616 45.3332 52.2653 45.6555 52.2729 46.0128" stroke="black"/>
<path d="M45.9676 44.4651C46.2383 45.1101 46.5251 45.739 46.5522 46.3999C46.4277 46.9329 46.4656 47.5619 46.6009 48.0629C46.7742 48.7505 47.4507 49.566 48.1274 49.8378C48.8202 50.0856 49.2532 50.1496 50.0272 50.1496" stroke="black"/>
<path d="M54.0463 44.4651C53.7756 45.1101 53.4888 45.739 53.4617 46.3999C53.5862 46.9329 53.5483 47.5619 53.413 48.0629C53.2398 48.7505 52.555 49.542 51.8784 49.8138C51.2018 50.0857 50.7688 50.1496 49.9948 50.1496" stroke="black"/>
<path d="M49.8713 42.4966C49.4931 42.7798 49.409 42.8749 49.1999 43.1883C49.1243 43.3093 48.9831 43.592 48.9444 43.7816C48.9059 43.9712 48.877 44.2463 48.8771 44.392C48.8775 44.8857 49.0371 45.1954 49.2114 45.1846C49.3671 45.167 49.5653 45.0071 49.8656 44.644" fill="black"/>
<path d="M49.8713 42.4966C49.4931 42.7798 49.409 42.8749 49.1999 43.1883C49.1243 43.3093 48.9831 43.592 48.9444 43.7816C48.9059 43.9712 48.877 44.2463 48.8771 44.392C48.8775 44.8857 49.0371 45.1954 49.2114 45.1846C49.3671 45.167 49.5653 45.0071 49.8656 44.644" stroke="black"/>
<path d="M50.1437 42.5046C50.5219 42.7878 50.606 42.8829 50.815 43.1963C50.8907 43.3173 51.0319 43.6 51.0705 43.7896C51.1091 43.9792 51.138 44.2543 51.1379 44.4C51.1374 44.8937 50.9779 45.2034 50.8036 45.1926C50.6479 45.175 50.4497 45.0151 50.1494 44.6519" fill="black"/>
<path d="M50.1437 42.5046C50.5219 42.7878 50.606 42.8829 50.815 43.1963C50.8907 43.3173 51.0319 43.6 51.0705 43.7896C51.1091 43.9792 51.138 44.2543 51.1379 44.4C51.1374 44.8937 50.9779 45.2034 50.8036 45.1926C50.6479 45.175 50.4497 45.0151 50.1494 44.6519" stroke="black"/>
<path d="M46.6563 40.3398C47.1814 40.2492 47.6902 40.1906 48.2152 40.132C48.9027 39.9614 49.2491 40.7343 49.0596 41.3152C48.8215 41.8323 48.4859 42.2853 48.1016 42.7224C47.8039 43.0528 47.4492 43.1063 47.111 42.9942C46.838 42.9196 46.5859 42.7544 46.3153 42.3706C46.1962 42.0401 46.0934 41.8695 45.9418 41.4591C45.8228 41.0807 46.0079 40.5142 46.6563 40.3398Z" fill="black" stroke="black"/>
<path d="M53.3689 40.3398C52.8439 40.2492 52.3351 40.1906 51.8101 40.132C51.1226 39.9614 50.7762 40.7343 50.9656 41.3152C51.2038 41.8323 51.5394 42.2853 51.9237 42.7224C52.2214 43.0528 52.5761 43.1063 52.9143 42.9942C53.1872 42.9196 53.4393 42.7544 53.71 42.3706C53.829 42.0401 53.9319 41.8695 54.0834 41.4591C54.2025 41.0807 54.0173 40.5142 53.3689 40.3398Z" fill="black" stroke="black"/>
<path d="M46.6468 44.756C46.8687 45.2685 46.9374 45.4633 47.0975 45.9743C47.2338 46.4463 47.2839 46.7346 47.3682 47.4054" stroke="black"/>
<path d="M53.3505 44.7277C53.1286 45.2403 53.0599 45.435 52.8998 45.946C52.7635 46.4181 52.7133 46.7063 52.6291 47.3772" stroke="black"/>
<path d="M47.5941 45.9545C48.1682 46.3012 49.1607 46.3547 50.0499 46.3389C51.0404 46.334 51.8884 46.2635 52.4453 45.9319" stroke="black"/>
<path d="M47.795 46.8591C48.4284 47.251 49.1733 47.3856 50.0312 47.3537C50.9222 47.3324 51.6052 47.2586 52.2157 46.8478" stroke="black"/>
<path d="M47.3357 47.3339C48.0132 48.1386 48.9588 48.2783 50.034 48.3063C51.1855 48.3477 52.342 47.8974 52.6405 47.334" stroke="black"/>
<path d="M47.7863 46.1283L47.7701 47.7113Z" fill="black"/>
<path d="M47.7863 46.1283L47.7701 47.7113" stroke="black"/>
<path d="M48.314 46.2962L48.3059 47.9911Z" fill="black"/>
<path d="M48.314 46.2962L48.3059 47.9911" stroke="black"/>
<g opacity="0.1">
<path d="M48.8986 46.3681L48.8824 48.143Z" fill="black"/>
<path d="M48.8986 46.3681L48.8824 48.143" stroke="black"/>
</g>
<path d="M49.4264 46.4081L49.4182 48.207Z" fill="black"/>
<path d="M49.4264 46.4081L49.4182 48.207" stroke="black"/>
<path d="M50.0191 46.4241V48.2229Z" fill="black"/>
<path d="M50.0191 46.4241V48.2229" stroke="black"/>
<path d="M50.5874 46.4161L50.5955 48.215Z" fill="black"/>
<path d="M50.5874 46.4161L50.5955 48.215" stroke="black"/>
<path d="M51.0989 46.3681L51.1152 48.135Z" fill="black"/>
<path d="M51.0989 46.3681L51.1152 48.135" stroke="black"/>
<path d="M51.6916 46.2722L51.6997 47.9671Z" fill="black"/>
<path d="M51.6916 46.2722L51.6997 47.9671" stroke="black"/>
<path d="M52.2275 46.0643L52.2438 47.6633Z" fill="black"/>
<path d="M52.2275 46.0643L52.2438 47.6633" stroke="black"/>
<path d="M47.7755 46.8551C49.1802 47.4452 50.6487 47.5324 52.2143 46.8551" stroke="black"/>
<path d="M52.39 46.7597V46.0837L52.4616 46.0516C52.5215 46.0247 52.5357 45.9917 52.5489 45.8482C52.5707 45.6121 52.6605 45.4293 52.8428 45.2497C52.9279 45.1659 53.0024 45.1022 53.0083 45.108C53.0143 45.1139 52.9651 45.2725 52.8991 45.4606C52.7228 45.9626 52.6372 46.3083 52.5531 46.8581C52.5067 47.1615 52.4613 47.3653 52.4341 47.3922C52.3954 47.4304 52.39 47.3523 52.39 46.7597Z" fill="black"/>
<path d="M47.604 47.7203C47.5496 47.6728 47.4796 47.4409 47.4073 47.0687C47.2643 46.3323 46.9333 45.3991 46.5896 44.7627C46.4462 44.4973 47.195 45.042 47.3725 45.3322C47.4428 45.4471 47.5157 45.6402 47.5346 45.7614C47.5572 45.9065 47.6026 46.0019 47.6676 46.0411C47.761 46.0974 47.7641 46.1458 47.7273 46.9473C47.6913 47.732 47.6822 47.7886 47.604 47.7203Z" fill="black"/>
<path d="M52.2855 46.9415C52.1692 46.1307 52.1714 46.0586 52.3153 45.9737C52.4106 45.9175 52.5094 45.7479 52.5705 45.5359C52.6447 45.2787 52.7434 45.1281 52.955 44.9493C53.2186 44.7267 53.4689 44.5641 53.5214 44.5815C53.5336 44.5855 53.4192 44.8545 53.2674 45.1793C52.9242 45.9137 52.8486 46.1405 52.6721 46.9668C52.5947 47.3294 52.5043 47.6691 52.4712 47.7218C52.4363 47.7774 52.3584 47.4503 52.2855 46.9415Z" fill="black"/>
<path d="M49.8538 42.5085L49.9927 42.4151L50.179 42.5285L50.1756 43.8792L49.8369 43.8759L49.8538 42.5085Z" stroke="black"/>
<path d="M49.9692 43.8565L49.8697 43.8556L49.8712 43.1927L49.8727 42.5299L49.886 42.5165C49.8973 42.5053 49.9888 42.4416 49.9937 42.4416C49.998 42.4416 50.1241 42.5205 50.1323 42.5282L50.1416 42.5372L50.1438 43.1981L50.146 43.859L50.1074 43.8583C50.0861 43.8578 50.0239 43.857 49.9692 43.8565Z" fill="black"/>
<path d="M49.855 44.6761C49.8514 44.6729 49.8509 44.4323 49.8528 43.5961L49.8551 42.5204L49.8724 42.5001C49.8953 42.4731 49.9633 42.4038 49.9778 42.3926C49.9893 42.3836 49.9894 42.3837 50.0243 42.4139C50.0782 42.4605 50.1511 42.5312 50.1527 42.5384C50.1535 42.542 50.155 43.0254 50.156 43.6127L50.158 44.6804L50.0338 44.6006C49.9518 44.6006 49.8575 44.6784 49.855 44.6761Z" fill="black"/>
</g>
</g>
<defs>
<clipPath id="clip0_8_44">
<rect width="100" height="100" fill="white"/>
</clipPath>
<clipPath id="clip1_8_44">
<rect width="20" height="19" fill="white" transform="translate(40 33)"/>
</clipPath>
</defs>
</svg>
