<svg id="vector" xmlns="http://www.w3.org/2000/svg" width="24.0d" height="24.0d" viewBox="0 0 512.0 512.0"><path fill="#f4d853" d="m46,314c-5,9 -10,18 -13,29l64,63 21,-21z" id="path_0"/><path fill="#e9a734" d="m119,386 l-21,21 65,65c10,-3 20,-7 29,-13z" id="path_1"/><path fill="#fbf599" d="m163,341 l-67,-67c-9,3 -19,9 -27,15l73,72z" id="path_2"/><path fill="#f4d853" d="m142,363 l74,73c6,-8 11,-17 15,-27l-68,-67z" id="path_3"/><path fill="#fcf7e2" d="m207,297 l-29,-29 -42,-0 51,50z" id="path_4"/><path fill="#fbf599" d="m186,318 l51,51c-0,-7 -0,-22 -0,-42l-30,-30z" id="path_5"/><path fill="#f4d853" d="m385,118 l21,-21 -64,-63c-10,3 -20,7 -29,13z" id="path_6"/><path fill="#e9a734" d="m459,191c5,-8 10,-18 13,-29l-66,-65 -21,21z" id="path_7"/><path fill="#fbf599" d="m362,141 l-73,-72c-6,8 -11,17 -15,27l67,66z" id="path_8"/><path fill="#f4d853" d="m341,163 l69,68c9,-3 18,-9 27,-15l-75,-74z" id="path_9"/><path fill="#fbf599" d="m297,207 l31,30c20,0 36,0 42,0l-52,-52z" id="path_10"/><path fill="#fcf7e2" d="m318,186 l-50,-49c0,7 0,22 0,42l29,28z" id="path_11"/><path fill="#3d6def" d="m238,268c0,-0 -0,-1 -0,-1l-1,1z" id="path_12"/><path fill="#5ca2fa" d="m238,238c-54,-0 -105,-0 -105,-0 -71,-0 -131,57 -132,131l30,0c0,-8 1,-17 3,-25 2,-10 7,-20 13,-29 6,-9 13,-17 22,-24 8,-6 17,-11 27,-15 11,-4 23,-6 36,-6l3,0 42,0 58,0 1,-1c-0,-9 -0,-19 -0,-28z" id="path_13"/><path fill="#3d6def" d="m476,137c-0,8 -1,17 -3,25 -2,10 -7,20 -13,29 -6,9 -13,17 -22,24 -8,6 -17,11 -27,15 -11,4 -23,6 -36,6 -0,0 -1,-0 -3,-0 -6,-0 -22,-0 -42,-0 -17,-0 -38,-0 -60,-0 0,9 0,20 0,30l105,0c72,-0 131,-58 132,-131z" id="path_14"/><path fill="#ff3838" d="m266,238c0,0 1,0 1,0 0,-0 -0,-1 -0,-1z" id="path_15"/><path fill="#ff5c5c" d="m369,0c-72,0 -131,60 -131,132 0,0 0,50 0,105 0,9 0,19 0,28l28,-28 1,-1c-0,-20 -0,-40 -0,-57 -0,-19 -0,-35 -0,-42 -0,-2 -0,-4 -0,-4 -0,-12 2,-24 6,-35 3,-9 8,-19 15,-27 6,-8 14,-16 24,-22 8,-6 18,-10 29,-13 8,-2 17,-3 26,-3z" id="path_16"/><path fill="#ff3838" d="m268,268c-0,-9 -0,-20 -0,-30 -0,-0 -1,-0 -1,-0l-28,28c0,0 0,1 0,1 0,21 0,42 0,59 0,19 0,35 0,42 0,2 0,4 0,4 -0,12 -2,24 -6,35 -3,9 -8,19 -15,27 -6,8 -14,16 -24,22 -8,6 -18,10 -29,13 -8,2 -17,3 -26,4l0,29c72,-0 130,-60 131,-132 -0,-0 -0,-50 -0,-105z" id="path_17"/></svg>