<svg width="100" height="100" viewBox="0 0 100 100" fill="none" xmlns="http://www.w3.org/2000/svg">
<g clip-path="url(#clip0_8_44)">
<path d="M75 85C74.1667 85 73.3333 84.375 73.3333 83.3333C73.3333 80.625 71.25 78.3333 68.3333 78.3333C67.5 78.3333 66.6667 77.7083 66.6667 76.6667C66.6667 75.625 67.2917 75 68.3333 75C71.0417 75 73.3333 72.9167 73.3333 70C73.3333 69.1667 73.9583 68.3333 75 68.3333C76.0417 68.3333 76.6667 68.9583 76.6667 70C76.6667 72.7083 78.75 75 81.6667 75C82.5 75 83.3333 75.625 83.3333 76.6667C83.3333 77.7083 82.7083 78.3333 81.6667 78.3333C78.9583 78.3333 76.6667 80.4167 76.6667 83.3333C76.6667 84.1667 75.8333 85 75 85ZM73.3333 76.6667C73.9583 77.0833 74.375 77.7083 75 78.3333C75.4167 77.7083 76.0417 77.2917 76.6667 76.6667C76.0417 76.25 75.625 75.625 75 75C74.375 75.625 73.9583 76.0417 73.3333 76.6667Z" fill="#32B1CC"/>
<path d="M15 11.4583H85V88.125H15V11.6667V11.4583Z" fill="#87CEE9"/>
<path d="M55.5556 26.4762L73.2222 12M55.5556 36.127L85 12M43.7778 88L61.4444 73.5238M32 88L61.4444 63.873" stroke="#32B1CC" stroke-width="0.6" stroke-linejoin="round"/>
</g>
<defs>
<clipPath id="clip0_8_44">
<rect width="100" height="100" fill="white"/>
</clipPath>
</defs>
</svg>
