<svg id="vector" xmlns="http://www.w3.org/2000/svg" width="24.0d" height="24.0d" viewBox="0 0 512.0 512.0"><path fill="#c9f3ff" d="m350,10 l56,151c14,38 12,80 -5,117 -21,44 -63,76 -112,84 -22,3 -44,3 -66,0 -49,-7 -91,-39 -112,-84 -17,-37 -19,-79 -5,-117l56,-151z" stroke="#000000" stroke-width="12.0" id="path_0"/><path fill="#ff5d5d" d="m256,178c-98,-51 -154,0 -154,0l-1,1c-8,33 -4,68 10,99 21,44 63,76 112,84 22,3 44,3 66,0 49,-7 91,-39 112,-84 14,-30 18,-65 11,-98l-1,-0s-57,48 -156,-2z" stroke="#000000" stroke-width="12.0" id="path_1"/><path fill="#c9f3ff" d="m236,366v77c0,9 -5,18 -15,22l-46,19c-9,3 -6,17 3,17h155c9,0 12,-13 3,-17l-46,-19c-9,-3 -15,-12 -15,-22v-77z" stroke="#000000" stroke-width="12.0" id="path_2"/></svg>