<svg id="vector" xmlns="http://www.w3.org/2000/svg" width="24.0d" height="24.0d" viewBox="0 0 512.0 512.0"><path fill="#27488f" d="m512,256c0,-68 -26,-132 -75,-181 -48,-48 -112,-75 -181,-75s-132,26 -181,75c-48,48 -75,112 -75,181s26,132 75,181c48,48 112,75 181,75s132,-26 181,-75c48,-48 75,-112 75,-181zM236,275c-10,-10 -10,-27 0,-38s27,-10 38,0c10,10 10,27 0,38 -10,10 -27,10 -38,0zM236,275" id="path_0"/><path fill="#12254c" d="m427,271c-8,0 -15,-6 -15,-15 0,-86 -70,-156 -156,-156 -8,0 -15,-6 -15,-15 0,-8 6,-15 15,-15 102,0 186,83 186,186 0,8 -6,15 -15,15z" id="path_1"/><path fill="#12254c" d="m256,442c-102,0 -186,-83 -186,-186 0,-8 6,-15 15,-15 8,0 15,6 15,15 0,86 70,156 156,156 8,0 15,6 15,15 0,8 -6,15 -15,15z" id="path_2"/><path fill="#f2f6fc" d="m373,256c0,-64 -52,-117 -117,-117s-117,52 -117,117 52,117 117,117 117,-52 117,-117zM236,275c-10,-10 -10,-27 0,-38s27,-10 38,0c10,10 10,27 0,38 -10,10 -27,10 -38,0zM236,275" id="path_3"/></svg>