<svg width="100" height="100" viewBox="0 0 100 100" fill="none" xmlns="http://www.w3.org/2000/svg">
<g clip-path="url(#clip0_8_44)">
<path d="M77.32 31.13V33.71L76 34.4L75.31 45.27L73.9 46C73.2333 59.8133 72.5667 73.63 71.9 87.45L70.19 88.32L68.72 100H29.85C29.37 96.0467 28.8933 92.0933 28.42 88.14L27.13 87.55C26.8033 73.69 26.47 59.83 26.13 45.97L24.66 45.27C24.43 41.65 24.21 38.03 23.98 34.41L22.89 33.71V31.13H77.32Z" fill="#C4ECFF" fill-opacity="0.6"/>
<path d="M68.8 30.88L68.53 35L64.63 95.35H34.05L30 33L29.88 31.14C35.15 27.25 38.62 26.35 40.88 26.32C42.2863 26.3513 43.6924 26.2509 45.08 26.02C46.7019 25.7132 48.3046 25.3125 49.88 24.82C53.17 23.89 53.2 23.75 53.93 23.82C55.77 23.89 56.05 24.82 58.93 25.92C61.81 27.02 62.3 26.47 64.42 27.44C66.1255 28.2339 67.6245 29.4112 68.8 30.88Z" fill="#F0C383"/>
<path d="M68.8 30.88V31.13H29.89C35.16 27.24 38.63 26.34 40.89 26.31C42.2963 26.3413 43.7024 26.2409 45.09 26.01C46.7119 25.7032 48.3146 25.3025 49.89 24.81C53.18 23.88 53.21 23.74 53.94 23.81C55.78 23.88 56.06 24.81 58.94 25.91C61.82 27.01 62.31 26.46 64.43 27.43C66.1329 28.2281 67.6285 29.4088 68.8 30.88Z" fill="#FFDDD3"/>
<path d="M58.1 64.63C58.7738 64.63 59.32 64.0838 59.32 63.41C59.32 62.7362 58.7738 62.19 58.1 62.19C57.4262 62.19 56.88 62.7362 56.88 63.41C56.88 64.0838 57.4262 64.63 58.1 64.63Z" fill="#FFCAC3"/>
<path d="M60.68 82.35C61.3538 82.35 61.9 81.8038 61.9 81.13C61.9 80.4562 61.3538 79.91 60.68 79.91C60.0062 79.91 59.46 80.4562 59.46 81.13C59.46 81.8038 60.0062 82.35 60.68 82.35Z" fill="#FFCAC3"/>
<path d="M59.5 76.45C60.7426 76.45 61.75 75.4426 61.75 74.2C61.75 72.9574 60.7426 71.95 59.5 71.95C58.2574 71.95 57.25 72.9574 57.25 74.2C57.25 75.4426 58.2574 76.45 59.5 76.45Z" fill="#FFCAC3"/>
<path d="M58.1 52.88C59.3426 52.88 60.35 51.8726 60.35 50.63C60.35 49.3874 59.3426 48.38 58.1 48.38C56.8574 48.38 55.85 49.3874 55.85 50.63C55.85 51.8726 56.8574 52.88 58.1 52.88Z" fill="#FFCAC3"/>
<path d="M45.16 43.13C46.4026 43.13 47.41 42.1226 47.41 40.88C47.41 39.6374 46.4026 38.63 45.16 38.63C43.9174 38.63 42.91 39.6374 42.91 40.88C42.91 42.1226 43.9174 43.13 45.16 43.13Z" fill="#FFCAC3"/>
<path d="M43.59 87.25C44.8326 87.25 45.84 86.2426 45.84 85C45.84 83.7574 44.8326 82.75 43.59 82.75C42.3474 82.75 41.34 83.7574 41.34 85C41.34 86.2426 42.3474 87.25 43.59 87.25Z" fill="#FFCAC3"/>
<path d="M55.85 69.7C56.2642 69.7 56.6 69.3642 56.6 68.95C56.6 68.5358 56.2642 68.2 55.85 68.2C55.4358 68.2 55.1 68.5358 55.1 68.95C55.1 69.3642 55.4358 69.7 55.85 69.7Z" fill="#FFCAC3"/>
<path d="M53.07 50.63C53.4842 50.63 53.82 50.2942 53.82 49.88C53.82 49.4658 53.4842 49.13 53.07 49.13C52.6558 49.13 52.32 49.4658 52.32 49.88C52.32 50.2942 52.6558 50.63 53.07 50.63Z" fill="#FFCAC3"/>
<path d="M53.93 76.45C54.3442 76.45 54.68 76.1142 54.68 75.7C54.68 75.2858 54.3442 74.95 53.93 74.95C53.5158 74.95 53.18 75.2858 53.18 75.7C53.18 76.1142 53.5158 76.45 53.93 76.45Z" fill="#FFCAC3"/>
<path d="M55.16 79.91C56.1154 79.91 56.89 79.1355 56.89 78.18C56.89 77.2245 56.1154 76.45 55.16 76.45C54.2045 76.45 53.43 77.2245 53.43 78.18C53.43 79.1355 54.2045 79.91 55.16 79.91Z" fill="#FFCAC3"/>
<path d="M50.63 75.93C51.5854 75.93 52.36 75.1554 52.36 74.2C52.36 73.2445 51.5854 72.47 50.63 72.47C49.6745 72.47 48.9 73.2445 48.9 74.2C48.9 75.1554 49.6745 75.93 50.63 75.93Z" fill="#FFCAC3"/>
<path d="M53.07 47.13C54.0254 47.13 54.8 46.3555 54.8 45.4C54.8 44.4445 54.0254 43.67 53.07 43.67C52.1145 43.67 51.34 44.4445 51.34 45.4C51.34 46.3555 52.1145 47.13 53.07 47.13Z" fill="#FFCAC3"/>
<path d="M25.8443 0.751282L49.7412 85.7184L47.2002 86.4331L23.3032 1.46596L25.8443 0.751282Z" fill="white" stroke="black"/>
</g>
<defs>
<clipPath id="clip0_8_44">
<rect width="100" height="100" fill="white"/>
</clipPath>
</defs>
</svg>
