<svg id="vector" xmlns="http://www.w3.org/2000/svg" width="24.0d" height="24.0d" viewBox="0 0 512.0 512.0"><path fill="#ccddde" d="M426,220 l2,-2c8,-8 21,-8 29,0 8,8 8,21 0,29l-31,31zM426,344 l2,-2c8,-8 21,-8 29,0 8,8 8,21 0,29l-31,31zM291,86 l2,-2c8,-8 8,-21 0,-29 -8,-8 -21,-8 -29,0l-31,31zM168,86 l2,-2c8,-8 8,-21 0,-29 -8,-8 -21,-8 -29,0l-31,31zM338,86 l-307,0 -21,21 394,394 21,-21 0,-307zM140,301 l-99,0 -27,27 170,170 27,-27 0,-99z" stroke="#000000" stroke-width="12.0" id="path_0"/><path fill="#e2ecec" d="m98,413c10,-64 41,-124 88,-171l194,-194 120,-37 -37,120 -194,194c-46,46 -106,77 -171,88z" stroke-linejoin="round" stroke="#000000" stroke-width="12.0" id="path_1"/></svg>