<svg id="vector" xmlns="http://www.w3.org/2000/svg" width="24.0d" height="24.0d" viewBox="0 0 512.0 512.0"><path fill="#d5e3ef" d="M498,71h-47c7,-6 11,-15 10,-25c-1,-15 -13,-27 -28,-28c-17,-1 -31,12 -32,29c-3,-2 -8,-4 -13,-4c-10,0 -20,7 -22,17l0,0c-1,6 -2,13 -2,20v14h81h55c7,0 13,-6 12,-14C511,76 505,71 498,71z" id="path_0"/><path fill="#99b4cd" d="M203,376c-4,0 -7,-4 -7,-9V252c0,-5 3,-9 7,-9c4,0 7,4 7,9V366C211,372 207,376 203,376zM376,376c-4,0 -7,-4 -7,-9V252c0,-5 3,-9 7,-9c4,0 7,4 7,9V366C384,372 381,376 376,376z" id="path_1"/><path fill="#c97629" d="M144,398v8v33c0,29 24,53 53,53h172c29,0 53,-24 53,-53v-32v-8H144z" id="path_2"/><path fill="#b06328" d="M138,407c-25,0 -46,-20 -46,-46v-23c0,-3 3,-6 6,-6h40c8,0 15,6 15,15v9c0,2 1,3 3,3h253c2,0 3,-1 3,-3v-9c0,-8 6,-15 15,-15h40c3,0 6,3 6,6v8c0,34 -27,61 -61,61H138z" id="path_3"/><path fill="#994811" d="M211,431c-13,0 -23,-10 -23,-23c0,-13 10,-23 23,-23s23,10 23,23C235,420 224,431 211,431zM289,423c-9,0 -16,-7 -16,-16c0,-9 7,-16 16,-16s16,7 16,16C305,416 298,423 289,423z" id="path_4"/><path fill="#994811" d="M351,423c-9,0 -16,-7 -16,-16c0,-9 7,-16 16,-16s16,7 16,16C367,416 360,423 351,423z" id="path_5"/><path fill="#db343f" d="M160,59c-3,-5 -9,-9 -16,-9h-25c-3,0 -6,2 -6,6l-0,89h62V83L160,59zM160,275c-3,5 -9,9 -16,9h-25c-3,0 -6,-2 -6,-6l-0,-89h62v62L160,275z" id="path_6"/><path fill="#c4d7e5" d="M19,481C8,481 0,472 0,462s8,-19 19,-19c0,0 1,0 2,0c2,-7 10,-12 18,-12c10,0 19,8 19,19c0,1 -0,2 -0,3c1,-0 3,-0 4,-0c8,0 14,6 14,14c0,7 -6,14 -13,14l-0,0l-0,0h-44V481z" id="path_7"/><path fill="#db343f" d="M115,142L87,112H45c-4,0 -8,4 -8,8v91c0,4 4,8 8,8H87l27,-29c0,0 0,0 0,0h5v-49h-5V142z" id="path_8"/><path fill="#a7bfce" d="M469,97c-20,-28 -49,-45 -80,-45h-19c-2,2 -4,6 -5,10c-1,6 -2,13 -2,20v14h81H469V97z" id="path_9"/><path fill="#d5e3ef" d="M194,263c-6,0 -12,-3 -17,-8l-72,-71c-4,-3 -6,-9 -6,-15c0,-6 2,-11 6,-15l72,-71c4,-5 10,-8 17,-8h195c36,0 69,30 82,75l2,7c2,8 2,17 0,25l-2,7c-13,45 -46,75 -82,75h-195V263z" id="path_10"/><path fill="#b0c4d9" d="M437,174h-195c-6,0 -12,-3 -17,-8l-67,-66l-53,52c-4,3 -6,9 -6,15c0,6 2,11 6,15l72,71c4,5 10,8 17,8h195c36,0 69,-30 82,-75l2,-7c1,-5 2,-11 1,-17C463,170 450,174 437,174z" id="path_11"/><path fill="#f04d4e" d="M475,170c0,-1 0,-3 0,-5l-1,-2l-2,-3c-13,-17 -45,-28 -82,-28h-195c-6,0 -12,1 -17,3l-78,29c-0,1 -0,2 -0,4c0,1 0,2 0,4l78,29c4,2 10,3 17,3h195c36,0 68,-11 82,-28l2,-2L475,170z" id="path_12"/></svg>