<svg id="vector" xmlns="http://www.w3.org/2000/svg" width="24.0d" height="24.0d" viewBox="0 0 512.0 512.0"><path fill="#88df8e" d="m299,208c23,-23 54,-29 70,-14s9,47 -14,70c-23,23 -54,29 -70,14 -15,-15 -9,-47 14,-70zM142,194c15,-15 47,-9 70,14s29,55 14,70c-15,15 -47,9 -70,-14 -23,-23 -29,-55 -14,-70zM426,180c0,-94 -76,-170 -170,-170s-170,76 -170,170c0,90 61,181 122,215 16,9 32,14 47,14s31,-5 47,-14c61,-34 122,-124 122,-215z" stroke="#000000" stroke-width="12.0" id="path_0"/><path fill="#6d91ac" d="M156,264a59,39 45,1 0,56 -56a59,39 45,1 0,-56 56z" stroke="#000000" stroke-width="12.0" id="path_1"/><path fill="#6d91ac" d="m299,208c-23,23 -29,55 -14,70 15,15 47,9 70,-14 23,-23 29,-55 14,-70 -15,-15 -47,-9 -70,14z" stroke="#000000" stroke-width="12.0" id="path_2"/><path fill="#88df8e" d="m256,410c-14,0 -31,-5 -47,-14 -13,57 -122,19 -122,106h340c0,-86 -109,-48 -122,-106 -16,9 -32,14 -47,14z" stroke="#000000" stroke-width="12.0" id="path_3"/><path fill="none" d="M277,346h-42" stroke-linecap="round" stroke="#000000" stroke-width="16.0" id="path_4"/></svg>