<svg id="vector" xmlns="http://www.w3.org/2000/svg" width="24.0d" height="24.0d" viewBox="0 0 512.0 512.0"><path fill="#f26666" d="M270,253l-117,-34c-25,-7 -40,-34 -32,-59l34,-117c7,-25 34,-40 59,-32l117,34c25,7 40,34 32,59l-34,117C322,246 295,261 270,253z" stroke="#000000" stroke-width="12.0" id="path_0"/><path fill="#73e7e6" d="M210,484L89,503c-26,4 -51,-13 -55,-39L14,342c-4,-26 13,-51 39,-55l121,-19c26,-4 51,13 55,39l19,121C254,455 236,480 210,484z" stroke="#000000" stroke-width="12.0" id="path_1"/><path fill="#ff9f40" d="M449,491H327c-26,0 -48,-21 -48,-48V320c0,-26 21,-48 48,-48H449c26,0 48,21 48,48v122C497,469 476,491 449,491z" stroke="#000000" stroke-width="12.0" id="path_2"/><path fill="#000000" d="M253,185c4,1 10,0 12,-3c0,-0 0,-0 0,-1l3,-85c0,-4 -3,-7 -8,-9c-4,-1 -9,-1 -12,1l-50,68c-0,0 -0,0 -0,1c-1,3 3,8 7,10c2,0 5,0 6,-1l10,-14l27,9l-1,17C248,183 250,184 253,185zM229,141l23,-33l-2,41L229,141z" id="path_3"/><path fill="#000000" d="M155,357c-4,-17 -17,-18 -30,-15l-24,6c-3,0 -6,3 -5,7l21,81c0,2 4,4 8,3l26,-6c14,-3 23,-13 18,-33l-0,-2c-3,-12 -9,-16 -18,-17C156,375 158,367 155,357zM119,381l-5,-21l13,-3c6,-1 11,1 12,7c1,6 -0,11 -7,13L119,381zM152,400l0,2c2,9 -0,14 -8,16l-14,3l-7,-28l14,-3C144,388 149,391 152,400z" id="path_4"/><path fill="#000000" d="M392,347c12,0 13,8 13,12c0,3 3,5 8,5c5,0 8,-1 8,-8c0,-15 -12,-24 -30,-24c-16,0 -29,8 -29,29v36c0,21 13,29 29,29c18,0 30,-9 30,-25c0,-6 -2,-8 -8,-8c-4,0 -8,1 -8,5c-0,5 -1,13 -13,13c-8,0 -13,-4 -13,-14V362C379,352 384,347 392,347z" id="path_5"/></svg>