<svg id="vector" xmlns="http://www.w3.org/2000/svg" width="24.0d" height="24.0d" viewBox="0 0 512.0 512.0"><path fill="#8682e6" d="m10,10h492v492h-492z" stroke="#000000" stroke-width="16.0" id="path_0"/><path fill="#b7b4f0" d="m418,458h-325c-21,0 -39,-17 -39,-39v-325c0,-21 17,-39 39,-39h325c21,0 39,17 39,39v325c0,21 -17,39 -39,39z" stroke="#000000" stroke-width="16.0" id="path_1"/><path fill="#000000" d="m284,94c-14,0 -26,10 -29,24 -1,5 2,10 7,11 5,1 10,-2 11,-7 1,-4 5,-8 9,-8 5,0 10,4 10,10s-4,10 -10,10c-5,0 -10,4 -10,10s4,10 10,10c5,0 10,4 10,10s-4,10 -10,10c-5,0 -9,-3 -10,-8 -0,-0 -0,-1 -0,-1 0,-5 -4,-10 -10,-10s-10,4 -10,10c0,1 0,2 0,4 2,14 14,25 29,25 16,0 30,-13 30,-30 0,-7 -3,-14 -7,-20 4,-5 7,-12 7,-20 0,-16 -13,-30 -30,-30z" id="path_2"/><path fill="#000000" d="m207,114h7v70c0,5 4,10 10,10s10,-4 10,-10v-80c0,-5 -4,-10 -10,-10h-17c-5,0 -10,4 -10,10s4,10 10,10z" id="path_3"/><path fill="#000000" d="m243,232c-0,-0 -0,-0 -0,-0 -2,-5 -7,-8 -12,-8 -0,0 -0,0 -0,0 -5,0 -10,3 -12,8 -0,0 -0,0 -0,0l-57,149c-2,5 0,11 5,13 5,2 11,-0 13,-5l11,-30h78l11,30c1,4 5,6 9,6 1,0 2,-0 3,-0 5,-2 7,-7 5,-12zM199,338 L230,256 262,338z" id="path_4"/><path fill="#000000" d="m341,224c-5,0 -10,4 -10,10v152c0,5 4,10 10,10s10,-4 10,-10v-152c0,-5 -4,-10 -10,-10z" id="path_5"/></svg>