<svg id="vector" xmlns="http://www.w3.org/2000/svg" width="24.0d" height="24.0d" viewBox="0 0 512.0 512.0"><path fill="#97a6ab" d="M256,7c-31,0 -56,25 -56,56c0,31 25,56 56,56s56,-25 56,-56S287,7 256,7zM256,87c-13,0 -23,-10 -23,-23s10,-23 23,-23s23,10 23,23S269,87 256,87z" stroke="#000000" stroke-width="12.0" id="path_0"/><path fill="#97a6ab" d="M429,394l-16,-16c0,0 -28,60 -108,88c-20,7 -40,20 -48,37c-8,-16 -29,-30 -49,-37c-80,-28 -108,-88 -108,-88l-16,16c-33,-62 13,-122 13,-122c0,70 58,83 58,83l-29,7c5,14 15,25 27,35c31,25 78,3 78,-37V188h50v171c0,40 47,63 78,37c10,-8 19,-18 24,-29c1,-1 1,-3 2,-5l-29,-7c0,0 58,-12 58,-83C416,272 462,332 429,394z" stroke="#000000" stroke-width="12.0" id="path_1"/><path fill="#cc7d0a" d="M343,133c-57,-15 -118,-15 -175,0c0,16 0,33 0,50c57,15 118,15 175,0C343,166 343,149 343,133z" stroke="#000000" stroke-width="12.0" id="path_2"/></svg>