<svg id="vector" xmlns="http://www.w3.org/2000/svg" width="24.0d" height="24.0d" viewBox="0 0 512.0 512.0"><path fill="#f4eee0" d="m131.5,257.5c-11.8,-11.8 -31,-11.8 -43,0l-61,61c-6,6 -6,15.5 0,21.5 6,6 15.5,6 21.5,0l14,-14.3c-6,6 -6,15.5 0,21.5 6,6 15.5,6 21.5,0 -6,6 -6,15.5 0,21.5 6,6 15.5,6 21.5,0l21.5,-21.5c-6,6 -6,15.5 0,21.5 6,6 15.5,6 21.5,0l46.6,-46.6z" id="path_0"/><path fill="#f4eee0" d="m381,257.5c11.8,-11.8 31,-11.8 43,0l61,61c6,6 6,15.5 0,21.5 -6,6 -15.5,6 -21.5,0l-14,-14.3c6,6 6,15.5 0,21.5 -6,6 -15.5,6 -21.5,0 6,6 6,15.5 0,21.5s-15.5,6 -21.5,0l-21.5,-21.5c6,6 6,15.5 0,21.5 -6,6 -15.5,6 -21.5,0l-46.6,-46.6z" id="path_1"/><path fill="#ffb578" d="m274,464.8v17c0,8.4 6.8,15 15,15s15,-6.8 15,-15v-32.3z" id="path_2"/><path fill="#ffc98c" d="m208,434.4v62.3c0,8.4 6.8,15 15,15 8.4,0 15,-6.8 15,-15v-31z" id="path_3"/><path fill="#f4eee0" d="m334.7,325c-1,-17 -9,-33.5 -23,-46.3l-110.6,-0c-13.8,12.5 -22,30 -23,47.7 -0,1 -0,-1 -0,0v16.3c0,16.7 13.4,30 30,30.4v91.7h96.6v-91.7c16.6,-0 30,-13.7 30,-30.4 0,0 0,-15 0,-17.5z" id="path_4"/><path fill="#ffc98c" d="m304.8,109.3c-14,-10 -30.6,-16 -48,-16 -48,0 -87.8,45.6 -95,93 -2.7,-1 -5.7,-1.7 -8.8,-1.7 -12.6,0 -22.8,10 -22.8,22.8 0,12.6 10,22.8 22.8,22.8 4,0 8,-1 11,-3 2.7,9.5 7,18.4 12.5,26.5 2.6,4 18,16 39.7,20.5l52,10.8 46.6,-45.7c37.8,-37 33.4,-99 -9.8,-130z" id="path_5"/><path fill="#ffb578" d="m360,184.4c-3,0 -5.7,0.5 -8,1.5 -0,-0.6 -0,-1 -0,-2 -5,-30 -21.8,-57.5 -46.6,-74.5 14,19.5 21,41.8 21,65 0,52.5 -43,95 -96.4,95 -19.7,0 -38,-5.8 -53.4,-16 14.7,21.7 38,37 65.5,41 9.6,1.4 19.6,1.4 29,-0 37,-5.6 67.7,-32.4 78,-67.6 3,1.7 7,2.7 11,2.7 12.6,0 22.8,-10 22.8,-22.8 0,-12.6 -10,-22.8 -22.8,-22.8z" id="path_6"/><path fill="#35404a" d="m229,208c0,4 -3.4,7.6 -7.6,7.6s-7.6,-3.4 -7.6,-7.6 3.4,-7.6 7.6,-7.6 7.6,3.4 7.6,7.6z" id="path_7"/><path fill="#35404a" d="m297,208c0,4 -3.4,7.6 -7.6,7.6s-7.6,-3.4 -7.6,-7.6 3.4,-7.6 7.6,-7.6 7.6,3.4 7.6,7.6z" id="path_8"/><path fill="#35404a" d="m262,209.4c-1.4,1.4 -3,2 -5,2 -2,0 -4,-0.7 -5,-2 -3,-3 -7.7,-3 -10.7,0 -3,3 -3,7.7 0,10.7 4,4 10,6.6 16,6.6 6,0 11.8,-2 16,-6.6 3,-3 3,-7.7 0,-10.7 -3,-3 -7.7,-3 -10.7,0z" id="path_9"/><path fill="#ffcf5d" d="m387,129.6c-8.5,-11.7 -26.4,-13.7 -36.7,-8.7 -7,-10 -14,-20 -22.7,-28.5 0,0 0,0 0,0 -19.5,-20 -43.8,-34 -70.7,-34 -8,0 -19,1 -28.8,3 -12,2 -21,13 -21,25 -13.8,-0 -26.8,6.4 -35,17.5 -7.4,9.9 -12.7,18 -16,30 -2,8 -7.4,15.5 -15,19.6 -0,0 -0,0 -0,0 -4.6,2.5 -5.4,9 -1.4,12.4l22,19.4v-0c0,0 -0,0 0,0 32,0 59,-22.6 66,-52.7 30,31 72.6,47.4 117,49.5 14.5,0.6 22.4,-4 33,-9.4 15,-7.4 19.5,-30.4 9.7,-44z" id="path_10"/><path fill="#ffb545" d="m387,129.6c-8.5,-11.7 -26.4,-13.7 -36.7,-8.7 -7,-10 -14,-20 -22.7,-28.5 0,0 0,0 0,0 -19.5,-20 -43.8,-34 -70.7,-34 0,15.4 9,29 23,36 0,0 0,0 0,0 15.8,7.6 25.6,24 25,41.6 -0,4.8 -5,8 -9.5,6 -18,-7 -34,-17 -46.8,-30 -7.8,-8 -19,-11 -30,-8 -10.7,3 -19,11.8 -21,22.7 -3,13 -13,23.8 -26,27.4l-11.8,-10.4c-1.7,-1.5 -3.6,-2.8 -5.5,-4 -2.7,6 -7,11 -13,14 -0,0 -0,0 -0,0 -4.6,2.5 -5.4,9 -1.4,12.4l22,19.4v-0c0,0 -0,0 0,0 32,0 59,-22.6 66,-52.7 30,31 72.6,47.4 117,49.5 14.5,0.6 22.4,-4 33,-9.4 15,-7.4 19.5,-30.4 9.7,-44z" id="path_11"/><path fill="#ffc98c" d="m226,351c0,9 4,17 10,22.7 7.8,7 20,1 20,-9v-27c0,-10.4 -12,-16 -20,-9 -6,5.5 -10,13.7 -10,22.7z" id="path_12"/><path fill="#ffb578" d="m256,337.5v27c0,10.4 12,16 20,9 6,-5.5 10,-13.7 10,-22.7 0,-9 -4,-17 -10,-22.7 -7.8,-7 -20,-1 -20,9z" id="path_13"/><path fill="#ffcf5d" d="m256,35.5c-19,0 -37.5,-1 -51,-3 -16.8,-2.4 -27,-5.7 -27,-14.7 0,-9 10.4,-12 27,-14.7 13.7,-2 32,-3 51,-3 19,0 37.5,1 51,3 16.8,2.4 27,5.7 27,14.7 0,9 -10.4,12 -27,14.7 -13.7,2 -32,3 -51,3zM321.6,21.9h0zM209.9,17.7c11,1.4 26.5,2.5 46,2.5s35,-1 46,-2.5c-11,-1.4 -26.5,-2.5 -46,-2.5s-35,1 -46,2.5z" id="path_14"/></svg>