<svg id="vector" xmlns="http://www.w3.org/2000/svg" width="24.0d" height="24.0d" viewBox="0 0 512.0 512.0"><path fill="#4a696f" d="m271,98v-23h-30v23c0,137 -41,276 -117,390 2,2 -8,-7 21,20l111,-83 111,83c0,-0 21,-20 21,-20 -75,-113 -117,-252 -117,-390zM256,246c3,18 8,37 13,55h-27c5,-18 9,-37 13,-55zM187,439c8,-15 16,-31 23,-48l20,15zM222,362c3,-10 7,-20 11,-30h45c3,10 7,20 11,30l-34,25zM281,407 L301,391c7,16 14,32 23,48z" id="path_0"/><path fill="#384949" d="m271,98v-23h-15v171c3,18 8,37 13,55h-13v30h23c3,10 7,20 11,30l-34,25v37l111,83c0,-0 21,-20 21,-20 -75,-113 -117,-252 -117,-390zM281,407 L301,391c7,16 14,32 23,48z" id="path_1"/><path fill="#fdbf00" d="m411,110 l-28,-10c5,-14 7,-29 7,-45 0,-15 -2,-30 -7,-45l28,-10c6,17 9,36 9,55 0,18 -3,37 -9,55z" id="path_2"/><path fill="#fdbf00" d="m355,90 l-28,-10c2,-8 4,-16 4,-25 0,-8 -1,-17 -4,-25l28,-10c4,11 6,23 6,35s-2,23 -6,35z" id="path_3"/><path fill="#76e2f8" d="m256,0c-24,0 -45,20 -45,45s20,45 45,45 45,-20 45,-45 -20,-45 -45,-45z" id="path_4"/><path fill="#4bb9ec" d="m301,45c0,24 -20,45 -45,45v-90c24,0 45,20 45,45z" id="path_5"/><path fill="#ffda2d" d="m100,110c-6,-17 -9,-36 -9,-55 0,-18 3,-37 9,-55l28,10c-5,14 -7,29 -7,45 0,15 2,30 7,45z" id="path_6"/><path fill="#ffda2d" d="m157,89c-4,-11 -6,-23 -6,-35s2,-23 6,-35l28,10c-2,8 -4,16 -4,25 0,8 1,17 4,25z" id="path_7"/><path fill="#384949" d="m61,482h390v30h-390z" id="path_8"/><path fill="#293939" d="m256,482h195v30h-195z" id="path_9"/></svg>