<svg id="vector" xmlns="http://www.w3.org/2000/svg" width="24.0d" height="24.0d" viewBox="0 0 512.0 512.0"><path fill="#484b54" d="M221,145v39H15c-5,-12 -7,-25 -7,-39H221z" stroke="#000000" stroke-width="12.0" id="path_0"/><path fill="#92949b" d="M221,184v61h-51c-13,-12 -31,-19 -51,-19c-16,0 -31,5 -43,13c-26,-9 -47,-29 -57,-55L221,184L221,184z" stroke="#000000" stroke-width="12.0" id="path_1"/><path fill="#92949b" d="M130,363h250v36h-250z" stroke="#000000" stroke-width="12.0" id="path_2"/><path fill="#484b54" d="M342,363H168v-0c16,-14 26,-35 26,-58c0,-6 -0,-12 -2,-18c-3,-15 -12,-29 -23,-39h172c-11,10 -19,23 -23,39c-1,5 -2,12 -2,18C315,327 326,348 342,363z" stroke="#000000" stroke-width="12.0" id="path_3"/><path fill="#92949b" d="M504,112c0,70 -54,127 -123,133c-3,0 -6,0 -10,0H221V112C221,112 504,112 504,112z" stroke="#000000" stroke-width="12.0" id="path_4"/></svg>