<svg id="vector" xmlns="http://www.w3.org/2000/svg" width="24.0d" height="24.0d" viewBox="0 0 512.0 512.0"><path fill="#ff6b81" d="m461,292.6c0,56 -35.8,133.6 -79.7,177.5 -20.8,21 -43.5,34 -65,34 -6.5,0 -13,-0.5 -19.5,-1.5 -6,-1 -12,-2 -17.5,-4 -7.6,-2 -15.5,-3.4 -23.4,-3.4 -7.8,0 -15.7,1 -23.4,3.4 -11,3 -24,5.4 -37,5.4 -21.5,0 -44,-13 -65,-34 -44,-44 -79.7,-121 -79.7,-177.5 0,-83 49.6,-133 96,-145 22,-5.8 48,-2 69,3 13,3 26,5 39.6,5 13,0 26.6,-1.7 39.6,-5 10,-2.6 21,-4.8 32.7,-5.8 12,-1 25,-0.5 36.5,2.4 46.7,12 96,62 96,145z" stroke="#000000" stroke-width="12.0" id="path_0"/><path fill="#09eaa3" d="m445.5,26.3c-22.7,15 -43.5,42.5 -68.6,62.3v0c-23,18.4 -50,30.4 -85.6,20.6 -10,-2.8 -16,-13.4 -13.5,-23.8 6.8,-25.4 23,-52 55.5,-66.6 37,-17 85.7,-13.4 112,1 2.4,1 2.6,4.8 0,6.4z" stroke="#000000" stroke-width="12.0" id="path_1"/><path fill="#09eaa3" d="m215.8,115.4c-23,6.4 -41,0 -57,-11 -21,-14.6 -37.6,-37.4 -56,-49.8 -1.7,-1 -1.6,-3.7 0,-4.7 19,-10.6 54.7,-13 82,-0.7 5.8,2.6 11,5.8 15.4,9.4 13.7,11 21.4,25.4 25,39.4 2,7.5 -2.4,15 -10,17.4z" stroke="#000000" stroke-width="12.0" id="path_2"/><path fill="none" d="M260,220v-80 M260,140l-32,-32 M260,140l28,-30" stroke-linecap="round" stroke="#000000" stroke-width="16.0" id="path_3"/></svg>