<svg id="vector" xmlns="http://www.w3.org/2000/svg" width="24.0d" height="24.0d" viewBox="0 0 512.0 512.0"><path fill="#dadcf0" d="m206,286.8h99v83.4h-99z" stroke="#000000" stroke-width="12.0" id="path_0"/><path fill="#cacee6" d="m112,504.5v-94c0,-40 32,-72 73,-72l72,23.5 68,-23.5c40,0 73,32 73,72v94z" stroke="#000000" stroke-width="12.0" id="path_1"/><path fill="#cacee6" d="m256,14.4c57,0 103,46 103,103v118.8c0,56.7 -103,81.5 -103,81.5s-103,-24.7 -103,-81.5v-74.3l13,-38c0,-2 -13,-10 -13,-12 3,-54 48,-97 103,-97z" stroke="#000000" stroke-width="12.0" id="path_2"/><path fill="#9197b8" d="M347,160 l-91,38 -91,-38v-41.7h183.5z" id="path_3"/><path fill="#e6e8f7" d="m359,134.4v-22.8h-88v-97.7c0,-8.5 -31,-8.5 -31,0v97.7h-88v22,-0 27.7l88,39.5v112c9,7 21,7 31,0v-112l88,-39.5v-27,0zM257,176.8c-0,0 -0,0 -1,0 -0,0 -0,-0 -1,-0l-68,-28c-5,-2 -3,-9 1,-9.3h134.4c5,0 6,7 1,9.3z" stroke="#000000" stroke-width="12.0" id="path_4"/><path fill="#9197b8" d="M77,437.8h38c52,0 94,-42 94,-94v-42.5h-40.3c-50,0 -91,41 -91,91.8v45zM434,437.8h-38c-52,0 -94,-42 -94,-94v-42.5h40.3c50,0 91,41 91,91.8v45zM334,504.5v-22.5s-39,0 -39,-45.4l-39,-32 -39,32c0,44.4 -39,45.4 -39,45.4v22.5z" stroke="#000000" stroke-width="12.0" id="path_5"/><path fill="#e6e8f7" d="M115,471h-26.6v-33.3h60c0,18.4 -15,33 -33,33.3zM115,504.5h-26.6v-33.3h60c0,18.4 -15,33 -33,33.3zM396,471h26.6v-33.3h-60c0,18.4 15,33 33,33.3zM396,504.5h26.6v-33.3h-60c0,18.4 15,33 33,33.3z" stroke="#000000" stroke-width="12.0" id="path_6"/><path fill="#060606" d="m334,474.4c-0,0 -0,0 -0,0 -0,0 -13,-0 -22,-9.4 -6,-6.4 -9,-16 -9,-28.5 0,-2 -1,-4 -2,-5.8l-39,-32c-2,-2 -6,-2 -9,0l-39,32c-1,1.4 -2,3.5 -2,5.8 0,15 -5,26 -15,32.6 -8,5 -16,5 -16,5 -4,0 -7,3.4 -7,7.4v22.5c0,9.6 15,9.6 15,0v-16c12,-2.7 37,-12.6 39,-48l31,-25.8 31,25.8c0,14.8 5,26.8 14,35.5 8,8 18,11.6 25,12.9v15.8c0,9.6 15,9.6 15,0v-22.5c0,-4 -3,-7.5 -7,-7.5z" id="path_7"/></svg>