<svg id="vector" xmlns="http://www.w3.org/2000/svg" width="24.0d" height="24.0d" viewBox="0 0 511.9 511.9"><path fill="#90d8f9" d="m410.6,504h-309.2c0.4,-9.6 1,-19.2 1.6,-28.8 1.8,-29.5 25,-53.3 54.5,-56 65.6,-6 131.2,-6 196.8,0 29.4,2.7 52.6,26.4 54.5,56 0.6,9.6 1,19.2 1.6,28.8z" stroke-linejoin="round" stroke="#000000" stroke-width="16.0" id="path_0"/><path fill="#407093" d="m291.2,364.2v47.2c0,19.4 -15.7,35.2 -35.2,35.2s-35.2,-15.7 -35.2,-35.2v-47.2z" stroke="#000000" stroke-width="16.0" id="path_1"/><path fill="#dd636e" d="M172.9,37.2m-29.4,0a29.4,29.4 0,1 1,58.8 0a29.4,29.4 0,1 1,-58.8 0 M255.9,37.2m-29.4,0a29.4,29.4 0,1 1,58.8 0a29.4,29.4 0,1 1,-58.8 0 M339,37.2m-29.4,0a29.4,29.4 0,1 1,58.8 0a29.4,29.4 0,1 1,-58.8 0" stroke="#000000" stroke-width="16.0" id="path_2"/><path fill="#407093" d="m468,124.7c-141.3,-3.3 -282.7,-3.3 -424,0 -15.2,0.3 -28.5,10.7 -32.3,25.5 -5.4,21 -5.4,42.2 0,63.3 3.7,14.7 17,25 32.3,25.5 141.3,3.3 282.7,3.3 424,0 15.2,-0.3 28.5,-10.7 32.3,-25.5 5.4,-21 5.4,-42.2 0,-63.3 -3.7,-14.7 -17,-25 -32.3,-25.5z" stroke="#000000" stroke-width="16.0" id="path_3"/><path fill="#90d8f9" d="m395.9,39.5c-93.3,-6.2 -186.6,-6.2 -279.9,0 -33.4,2.2 -60,28.6 -62.9,61.9 -6.3,74.7 -6.3,149.5 0,224.3 2.8,33.3 29.5,59.7 62.9,61.9 93.3,6.2 186.6,6.2 279.9,0 33.4,-2.2 60,-28.6 62.9,-61.9 6.3,-74.7 6.3,-149.5 0,-224.3 -2.8,-33.3 -29.5,-59.7 -62.9,-61.9z" stroke="#000000" stroke-width="16.0" id="path_4"/><path fill="#daeefa" d="m384.3,74.9c-85.5,-5.6 -171,-5.6 -256.7,0 -17,1 -30.8,14.2 -32.7,31.2 -6.4,58 -6.4,116 0,174 1.8,16.9 15.6,30 32.7,31.2 85.5,5.6 171,5.6 256.7,0 17,-1 30.8,-14.2 32.7,-31.2 6.4,-58 6.4,-116 0,-174 -1.8,-16.9 -15.6,-30 -32.7,-31.2z" stroke="#000000" stroke-width="16.0" id="path_5"/><path fill="#90d8f9" d="M168.6,134.8m-31,0a31,31 0,1 1,62 0a31,31 0,1 1,-62 0 M343.3,134.8m-31,0a31,31 0,1 1,62 0a31,31 0,1 1,-62 0" stroke="#000000" stroke-width="16.0" id="path_6"/><path fill="#000000" d="m299.8,181.4c0,-4 -3.3,-7.5 -7.5,-7.5s-7.5,3.3 -7.5,7.5c0,15.9 -12.9,28.8 -28.8,28.8s-28.8,-12.9 -28.8,-28.8c0,-4 -3.3,-7.5 -7.5,-7.5s-7.5,3.3 -7.5,7.5c0,24 19.6,43.8 43.8,43.8s43.8,-19.6 43.8,-43.8z" id="path_7"/><path fill="none" d="M389.4,189.4h-30.6 M389.4,214.8h-30.6 M114.9,186.9h30.6 M114.4,209.8h30.6" stroke-linecap="round" stroke="#000000" stroke-width="16.0" id="path_8"/></svg>