<svg id="vector" xmlns="http://www.w3.org/2000/svg" width="24.0d" height="24.0d" viewBox="0 0 512.0 512.0"><path fill="#673ab7" d="m494,216 l-33,-88c-15,-40 -48,-71 -89,-84l-90,-28c-41,-13 -86,-6 -121,17l-79,52c-3,2 -5,4 -8,6 -31,24 -51,60 -54,99l-8,94c-3,42 12,84 43,114l68,65c31,29 74,43 117,36l94,-13c36,-5 70,-25 93,-54 3,-4 6,-9 9,-14l48,-82c22,-36 26,-81 11,-121z" stroke="#000000" stroke-width="12.0" id="path_0"/><path fill="#4527a0" d="M196,179c0,28 -23,51 -51,51 -28,0 -51,-23 -51,-51 0,-28 23,-51 51,-51 28,0 51,23 51,51z M452,204c0,28 -23,51 -51,51 -28,0 -51,-23 -51,-51s23,-51 51,-51c28,0 51,23 51,51z" stroke="#000000" stroke-width="12.0" id="path_1"/><path fill="#283593" d="M136,324c0,14 -11,25 -25,25 -14,0 -25,-11 -25,-25 0,-14 11,-25 25,-25 14,0 25,11 25,25zM307,111c0,14 -11,25 -25,25 -14,0 -25,-11 -25,-25 0,-14 11,-25 25,-25 14,0 25,11 25,25zM367,349c0,9 -7,17 -17,17s-17,-7 -17,-17 7,-17 17,-17 17,7 17,17zM273,273c0,14 -11,25 -25,25 -14,0 -25,-11 -25,-25 0,-14 11,-25 25,-25 14,0 25,11 25,25zM246,436c0,14 -11,25 -25,25 -14,0 -25,-11 -25,-25 0,-14 11,-25 25,-25 14,0 25,11 25,25z" stroke="#000000" stroke-width="12.0" id="path_2"/><path fill="#000000" d="M418,324h0M264,375h0M196,366h0M273,196h0" stroke-linecap="round" stroke="#000000" stroke-width="16.0" id="path_3"/></svg>