<svg id="vector" xmlns="http://www.w3.org/2000/svg" width="24.0d" height="24.0d" viewBox="0 0 512.0 512.0"><path fill="#9eb6f4" d="m429,444 l-53,44 136,0v-44z" id="path_0"/><path fill="#9eb6f4" d="m82,444 l53,44 -136,0v-44z" id="path_1"/><path fill="#e5ecf5" d="m0,488h512v23h-512z" id="path_2"/><path fill="#cad8eb" d="m0,488h16v23h-16z" id="path_3"/><path fill="#d3f850" d="m292,322 l-74,9v126h82c37,0 68,-30 68,-68 0,-40 -35,-72 -76,-67z" id="path_4"/><path fill="#c4e5f9" d="m180,214 l188,-26v202c0,-37 -30,-67 -67,-67h-7l-97,10c-77,6 -92,-106 -15,-119z" id="path_5"/><path fill="#6ad34d" d="m316,436h-7v-113h-22v113h-51v-105l-16,2v126h82c28,0 52,-16 62,-41 -12,11 -28,18 -46,18z" id="path_6"/><path fill="#e8ab4c" d="m400,183 l-221,32c-29,4 -50,29 -50,58v5,-196h264c27,0 50,22 50,50 0,25 -18,46 -43,49z" id="path_7"/><path fill="#d3f850" d="m443,133c0,-27 -22,-50 -50,-50h-0,-393v-83h443z" id="path_8"/><path fill="#ffffff" d="m248,286h15v15h-15z" id="path_9"/><path fill="#ffffff" d="m278,421h15v15h-15z" id="path_10"/><path fill="#ffffff" d="m278,159h15v15h-15z" id="path_11"/><path fill="#e8ab4c" d="m466,226h15v15h-15z" id="path_12"/><path fill="#e8ab4c" d="m16,121h15v15h-15z" id="path_13"/><path fill="#ffffff" d="m16,15h15v15h-15z" id="path_14"/><path fill="#ffffff" d="m46,15h15v15h-15z" id="path_15"/><path fill="#000000" d="m435,1h15v15h-15z" id="path_16"/><path fill="#000000" d="m120,106h15v15h-15z" id="path_17"/><path fill="#000000" d="m211,451h15v15h-15z" id="path_18"/><path fill="#000000" d="m360,211h15v15h-15z" id="path_19"/><path fill="#000000" d="m481,481h31v15h-31z" id="path_20"/><path fill="#000000" d="m451,481h15v15h-15z" id="path_21"/><path fill="#000000" d="m427,436 l-53,44h-234l-53,-44h-84v15h79l35,29h-115v15h436v-15h-39l35,-29h79v-15z" id="path_22"/><path fill="#000000" d="m278,143h15v-52h99c23,0 42,19 42,42 0,21 -15,39 -36,42l-220,31c-16,2 -32,11 -42,24v-96h-15v135h0c-2,40 34,75 74,70 -0,0 82,-9 82,-9v73h15v-75c84,-6 91,117 7,120h-59v15h59c43,0 78,-36 75,-80v-145h-15v104c-15,-21 -42,-32 -68,-29 0,0 -98,10 -98,10 -30,3 -58,-21 -58,-52 1,-61 70,-52 112,-61v58h15v-60l137,-19c29,-4 50,-30 49,-59h0v-100h-15v63c-10,-11 -25,-18 -42,-18h-393v15h278z" id="path_23"/><path fill="#000000" d="m436,301v-15h15v-15h-15v-15h-15v15h-15v15h15v15z" id="path_24"/><path fill="#000000" d="m76,196v-15h15v-15h-15v-15h-15v15h-15v15h15v15z" id="path_25"/></svg>