<svg id="vector" xmlns="http://www.w3.org/2000/svg" width="24.0d" height="24.0d" viewBox="0 0 512.0 512.0"><path fill="#d5a797" d="M264,52m-52,0a52,52 0,1 1,104 0a52,52 0,1 1,-104 0z M459,247m-52,0a52,52 0,1 1,104 0a52,52 0,1 1,-104 0" id="path_0"/><path fill="#38648c" d="M100,411m-100,0a100,100 0,1 1,201 0a100,100 0,1 1,-201 0" id="path_1"/><path fill="#5894ac" d="M171,482c39,-39 39,-102 0,-142s-102,-39 -142,0C14,356 4,375 1,395c8,5 19,11 35,17c13,5 29,10 47,15c5,18 10,34 15,47c6,15 11,27 17,35C136,507 156,498 171,482z" id="path_2"/><path fill="#f5d7b7" d="M249,262a151,154 45,1 0,218 -218a151,154 45,1 0,-218 218z" id="path_3"/><path fill="#f28b74" d="M276,117a24,30 135,1 0,34 -34a24,30 135,1 0,-34 34zM428,200a24,30 135,1 0,-34 34a24,30 135,1 0,34 -34z" id="path_4"/><path fill="#495059" d="M335,112c-2,0 -3,-0 -5,-2c-3,-3 -3,-7 0,-10c1,-1 2,-3 2,-5c0,-1 -0,-3 -2,-5c-1,-1 -3,-2 -5,-2c-1,0 -3,0 -5,2c-3,3 -7,3 -10,0c-3,-3 -3,-7 0,-10c4,-4 9,-6 15,-6c6,0 11,2 15,6c4,4 6,9 6,15c0,5 -2,11 -6,15C339,111 337,112 335,112z" id="path_5"/><path fill="#495059" d="M427,204c-2,0 -3,-0 -5,-2c-3,-3 -3,-7 0,-10c1,-1 2,-3 2,-5s-0,-3 -2,-5c-2,-2 -7,-2 -10,0c-3,3 -7,3 -10,0c-3,-3 -3,-7 0,-10c8,-8 22,-8 31,0c4,4 6,9 6,15s-2,11 -6,15C431,203 429,204 427,204z" id="path_6"/><path fill="#495059" d="M369,171c-7,0 -14,-3 -19,-8c-5,-5 -8,-13 -8,-21c0,-4 3,-7 8,-7c4,0 7,3 7,8c-0,3 1,7 3,10c2,2 6,4 10,3c4,-0 7,2 8,7c0,4 -2,7 -7,7C370,171 369,171 369,171z" id="path_7"/><path fill="#76b7eb" d="M130,220c61,0 199,15 279,57c12,6 18,21 13,34c-12,33 -45,82 -75,112c-15,15 -36,22 -57,21c-84,-4 -270,-47 -284,-75C-8,342 35,270 86,233C99,225 114,220 130,220z" id="path_8"/><path fill="#76b7eb" d="M291,381c-0,-61 -15,-199 -57,-279c-6,-12 -21,-18 -34,-13c-33,12 -82,45 -112,75c-15,15 -22,36 -21,57c4,84 47,270 75,284c28,13 100,-29 136,-81C286,412 291,397 291,381z" id="path_9"/><path fill="none" d="M115,322l-5,-30M197,186l10,-20M231,332l-15,-15M180,458l-5,-40M328,327l14,-5" stroke-linecap="round" stroke="#5894ac" stroke-width="16.0" id="path_10"/></svg>