<svg id="vector" xmlns="http://www.w3.org/2000/svg" width="24.0d" height="24.0d" viewBox="0 0 504.0 504.0"><path fill="#00695c" d="m492,168c-64,277 -272,320 -334,327 -4,0 -9,0 -14,0 -5,0 -11,-0 -16,-1 -61,-6 -109,-54 -116,-115 -3,-34 6,-68 27,-95 17,-21 41,-37 68,-45 7,-2 15,-3 23,-4 48,-5 84,-49 101,-124 12,-54 58,-94 113,-101 5,-0 11,-1 17,-1 9,0 19,1 29,3 35,7 65,28 85,59 18,29 24,64 16,97z" stroke="#000000" stroke-width="12.0" id="path_0"/><path fill="#00838f" d="m451,158c-57,250 -243,288 -298,294 -3,0 -6,0 -10,0 -4,0 -8,-0 -12,-0h-0c-41,-4 -74,-37 -79,-78 -2,-23 4,-46 18,-64 13,-16 32,-28 53,-32 3,-0 6,-1 9,-1 39,-4 109,-30 138,-156 10,-40 47,-69 90,-69 6,0 13,0 20,2 24,5 45,19 58,40 12,19 16,43 11,65z" stroke="#000000" stroke-width="12.0" id="path_1"/><path fill="#0377bc" d="M377,184c0,18 -15,33 -33,33s-33,-15 -33,-33c0,-18 15,-33 33,-33s33,15 33,33zM159,361c0,14 -11,25 -25,25s-25,-11 -25,-25 11,-25 25,-25 25,11 25,25zM344,285c0,14 -11,25 -25,25 -14,0 -25,-11 -25,-25s11,-25 25,-25c14,0 25,11 25,25z" stroke="#000000" stroke-width="12.0" id="path_2"/></svg>