<svg id="vector" xmlns="http://www.w3.org/2000/svg" width="24.0d" height="24.0d" viewBox="0 0 512.0 512.0"><path fill="#2d4456" d="M256,256m-248,0a248,248 0,1 1,496 0a248,248 0,1 1,-496 0" stroke="#000000" stroke-width="12.0" id="path_0"/><path fill="#e4eef9" d="m502,228c-4,-43 -20,-82 -44,-116l-97,-3 -41,-93c-20,-5 -41,-8 -63,-8s-43,2 -63,8l-41,93 -97,3c-23,33 -39,73 -44,116l72,73 -29,96c27,38 65,69 109,87l93,-46 93,46c44,-18 82,-48 109,-87l-29,-96zM256,360 L162,292 198,182h115l35,110z" stroke="#000000" stroke-width="12.0" id="path_1"/><path fill="none" d="M150,110l48,70 M360,110l-48,70 M80,304l80,-14 M428,304l-80,-14 M256,360v80" stroke="#000000" stroke-width="12.0" id="path_2"/></svg>