<svg id="vector" xmlns="http://www.w3.org/2000/svg" width="24.0d" height="24.0d" viewBox="0 0 512.0 512.0"><path fill="#f9f7f8" d="m443,440c5,0 10,-4 10,-10v-85c0,-1 -0,-2 -1,-3l-8,-6c-2,-1 -2,-4 -0,-6l9,-7c0,-0 1,-1 1,-3v-32c0,-5 -4,-10 -10,-10h-166v165h166z" stroke="#000000" stroke-width="12.0" id="path_0"/><path fill="#ffdfcf" d="m316,421 l8,-185 27,-40c-1,-9 -2,-18 -2,-28l-4,-93c-0,-12 -10,-22 -23,-22h-1c-13,0 -23,10 -23,23v-17c0,-6 -2,-12 -6,-16s-10,-6 -16,-6c-13,0 -23,10 -23,23v-24c0,-6 -2,-12 -6,-16 -4,-4 -10,-7 -17,-6 -12,0 -23,11 -23,24v23c0,0 0,0 0,0 0,19 -0,-0 -0,-0 -0,-12 -10,-23 -23,-23h-8c-12,0 -22,10 -22,22l0,148 12,7 -1,41 -11,3v1c0,4 -5,6 -8,3l-45,-46 -20,0 -8,12 28,68 73,78 38,39v73l9,8 9,5h103c5,0 9,-4 9,-9v-34z" stroke="#000000" stroke-width="12.0" id="path_1"/><path fill="#f9f7f8" d="m337,337 l-98,-5 -41,52 -7,22c3,3 5,7 5,12l0,16 150,23v-59c0,-2 0,-4 0,-6l3,-14z" stroke="#000000" stroke-width="12.0" id="path_2"/><path fill="#e5e1e5" d="m363,309 l-16,-27 -108,49 15,38 96,8 2,-10c5,-19 8,-38 9,-58z" stroke="#000000" stroke-width="12.0" id="path_3"/><path fill="#ffffff" d="M352,195 l-196,8 0,52 81,36 44,18 76,-75z" stroke="#000000" stroke-width="12.0" id="path_4"/><path fill="#ffffff" d="M361,260c2,16 2,33 1,49h-0l-108,60 -64,36 -63,-60 111,-52 120,-56z" stroke="#000000" stroke-width="12.0" id="path_5"/><path fill="none" d="M207,70v100 M253,60v100 M298,70v100" stroke-linecap="round" stroke="#000000" stroke-width="12.0" id="path_6"/></svg>