<svg id="vector" xmlns="http://www.w3.org/2000/svg" width="24.0d" height="24.0d" viewBox="0 0 512.0 512.0"><path fill="#2472b2" d="m73,29h364v474h-364z" stroke="#000000" stroke-width="12.0" id="path_0"/><path fill="#525468" d="M335,476h102v28h-102zM73,476h103v28h-103z" stroke="#000000" stroke-width="12.0" id="path_1"/><path fill="#f3a334" d="m366,214h-223c-5,0 -10,4 -10,10v59c0,5 4,10 10,10h223c5,0 10,-4 10,-10v-59c0,-5 -4,-10 -10,-10z" stroke="#000000" stroke-width="12.0" id="path_2"/><path fill="#b4e1f9" d="M334,351h-158c-3,0 -6,2 -6,6v146h171v-146c0,-3 -2,-6 -6,-6zM153,63h50v57h-50zM306,120h-50v-57h50zM357,63h47c1,0 3,1 3,3v50c0,1 -1,3 -3,3h-47z" stroke="#000000" stroke-width="12.0" id="path_3"/><path fill="#72bdf6" d="m255,351h-79c-3,0 -6,2 -6,6v146h85zM204,63h50v57h-50zM153,63h-47c-1,0 -3,1 -3,3v50c0,1 1,3 3,3h47zM357,120h-50v-57h50z" stroke="#000000" stroke-width="12.0" id="path_4"/><path fill="#e4e3e1" d="M443,150h-377c-3,0 -5,2 -5,5v17c0,3 2,5 5,5h377c3,0 5,-2 5,-5v-17c0,-3 -2,-5 -5,-5zM443,7h-377c-3,0 -5,2 -5,5v17c0,3 2,5 5,5h377c3,0 5,-2 5,-5v-17c0,-3 -2,-5 -5,-5z" stroke="#000000" stroke-width="12.0" id="path_5"/><path fill="#000000" d="M198,252c4,-1 6,-5 6,-12 0,-11 -7,-13 -15,-13h-15c-2,0 -5,1 -5,3v49c0,2 2,3 5,3h17c8,0 15,-4 15,-16 0,-7 -1,-11 -8,-14zM180,236h8c3,0 4,2 4,5 0,2 -1,5 -4,5h-8zM188,272h-7v-15h7c3,0 6,1 6,7 0,4 -1,8 -6,8zM239,229c-1,-5 -14,-5 -15,0l-14,47c-1,5 10,8 11,3l2,-9h16l2,9c1,4 12,1 11,-3zM226,261 L231,241 237,261zM286,229v26l-12,-24c-3,-5 -4,-6 -8,-6 -3,0 -6,1 -6,3v49c0,5 12,5 12,0v-26l14,26c2,5 12,3 12,-0v-49c0,-4 -12,-4 -12,0zM329,250 l12,-16c3,-4 -6,-11 -9,-6l-14,20v-18c0,-2 -3,-3 -6,-3s-6,1 -6,3v49c0,5 12,5 12,0v-14l3,-4 13,20c3,5 14,-0 10,-5z" id="path_6"/><path fill="none" d="M279,405v25M231,405v25" stroke="#000000" stroke-width="12.0" id="path_7"/></svg>