<svg id="vector" xmlns="http://www.w3.org/2000/svg" width="24.0d" height="24.0d" viewBox="0 0 512.0 512.0"><path fill="#df8a57" d="m374,169v34c0,19 -15,34 -34,34h-8c-2,0 -4,2 -4,4v59c0,21 2,42 7,62 4,19 8,34 8,59v80h-174v-80c0,-30 8,-59 8,-59 5,-20 7,-41 7,-62v-51c0,-2 -2,-4 -4,-4h-8c-19,0 -34,-15 -34,-34v-42c0,-8 7,-15 15,-15 8,0 14,7 14,15v41c0,2 2,4 4,4h8c19,0 34,15 34,34v3c0,7 5,13 13,13 7,0 13,-5 13,-12v-83c0,-8 6,-15 14,-15 8,-0 15,6 15,14v84c0,7 5,13 13,13 7,0 13,-5 13,-12v-11c0,-19 15,-34 34,-34h8c2,0 4,-2 4,-4v-33c0,-8 6,-15 14,-15 8,-0 15,6 15,15zM374,169" stroke="#000000" stroke-width="12.0" id="path_0"/><path fill="#4caf50" d="M363,193h-214c-51,0 -93,-41 -93,-93s41,-93 93,-93h214c51,0 93,41 93,93s-41,93 -93,93zM363,193M194,368h-43c-22,0 -40,-18 -40,-40 0,-22 18,-40 40,-40h43c22,0 40,18 40,40 0,22 -18,40 -40,40zM194,368" stroke="#000000" stroke-width="12.0" id="path_1"/><path fill="#43a047" d="M459,231h-80c-24,0 -45,-20 -45,-45s20,-45 45,-45h80c24,0 45,20 45,45s-20,45 -45,45zM276,205h-53c-16,0 -30,-13 -30,-30s13,-30 30,-30h53c16,0 30,13 30,30 0,16 -13,30 -30,30zM347,105h-53c-16,0 -30,-13 -30,-30 0,-16 13,-30 30,-30h53c16,0 30,13 30,30 0,16 -13,30 -30,30zM132,120h-80c-24,0 -45,-20 -45,-45s20,-45 45,-45h80c24,0 45,20 45,45s-20,45 -45,45z" stroke="#000000" stroke-width="12.0" id="path_2"/></svg>