<svg id="vector" xmlns="http://www.w3.org/2000/svg" width="24.0d" height="24.0d" viewBox="0 0 512.0 512.0"><path fill="#ae8b70" d="M39,256c0,87 18,168 50,231c5,10 16,17 28,17H393c12,0 23,-6 28,-17c31,-62 50,-143 50,-230S453,87 422,25C416,14 405,7 393,7H118c-12,0 -23,6 -28,17C58,87 39,168 39,256z" stroke="#000000" stroke-width="12.0" id="path_0"/><path fill="none" d="M140,14 c-60,160 -80,260 0,480 M214,14 c-30,160 -40,260 0,480 M294,14 c 30,160  40,260 0,480 M370,14 c 60,160  80,260 0,480" stroke-linecap="round" stroke="#000000" stroke-width="12.0" id="path_1"/><path fill="#afb9d2" d="M64,87h382c-3,-11 -7,-21 -11,-32H76C72,66 68,76 64,87z M64,424h382c-3,11 -7,21 -11,32H76C72,446 68,435 64,424z" stroke="#000000" stroke-width="12.0" id="path_2"/></svg>