<svg id="vector" xmlns="http://www.w3.org/2000/svg" width="24.0d" height="24.0d" viewBox="0 0 512.0 512.0"><path fill="#c39b6e" d="M360,80c42,0 40,-72 98,-72c35,0 57,34 40,72c-13,29 -32,64 -24,87L360,80z" stroke="#000000" stroke-width="12.0" id="path_0"/><path fill="#c39b6e" d="M152,80c-42,0 -40,-72 -98,-72c-35,0 -57,34 -40,72c13,29 32,64 24,87L152,80z" stroke="#000000" stroke-width="12.0" id="path_1"/><path fill="#aa825a" d="M256,48c-137,0 -248,72 -248,248c0,136 111,208 248,208s248,-72 248,-207C504,120 393,48 256,48z" stroke="#000000" stroke-width="12.0" id="path_2"/><path fill="#8c705c" d="M256,88c-88,0 -192,56 -192,195c0,107 86,164 192,164s192,-56 192,-164C448,144 344,88 256,88z" id="path_3"/><path fill="#7c665d" d="M221,272c-4,-16 -15,-48 -46,-48c-23,0 -89,48 -107,104c-15,48 75,128 161,127C270,456 234,316 221,272z" id="path_4"/><path fill="#7c665d" d="M291,272c4,-16 15,-48 46,-48c23,0 89,48 107,104c15,48 -75,128 -161,127C242,456 278,316 291,272z" id="path_5"/><path fill="#c39b6e" d="M192,416c0,25 42,48 64,48s64,-22 64,-47H192z" stroke="#000000" stroke-width="12.0" id="path_6"/><path fill="#d7b487" d="M273,256h-34c-9,0 -17,5 -21,13c-16,32 -46,116 -33,154c7,21 56,0 72,0s64,21 72,0c12,-38 -17,-122 -33,-154C290,261 282,256 273,256z" stroke="#000000" stroke-width="12.0" id="path_7"/><path fill="none" d="M176,256v0 M336,256v0" stroke-linecap="round" stroke="#000000" stroke-width="24.0" id="path_8"/><path fill="#464655" d="M214,370a41,26 0,1 0,83 0a41,26 0,1 0,-83 0z" stroke="#000000" stroke-width="12.0" id="path_9"/><path fill="#000000" d="M460,63c3,2 8,0 10,-2c2,-3 1,-8 -2,-11c-3,-2 -11,-5 -21,3c-4,4 -8,10 -13,16c-8,11 -17,24 -27,26c-4,0 -7,5 -6,9c0,3 4,6 7,6c0,0 1,-0 1,-0c16,-3 28,-19 37,-33C451,73 457,64 460,63z" id="path_10"/><path fill="#000000" d="M105,96c-10,-2 -19,-15 -27,-26c-4,-6 -8,-12 -13,-16c-9,-8 -17,-6 -21,-3c-3,2 -5,7 -2,11c2,3 7,4 10,2c3,1 9,9 13,15c9,13 21,29 37,33c0,0 1,0 1,0c3,0 7,-2 7,-6C112,101 109,97 105,96z" id="path_11"/><path fill="#000000" d="M264,439h-16c-4,0 -8,3 -8,8c0,4 3,8 8,7h16c4,0 8,-3 8,-7C272,443 268,440 264,439z" id="path_12"/></svg>