<svg id="vector" xmlns="http://www.w3.org/2000/svg" width="24.0d" height="24.0d" viewBox="0 0 512.0 512.0"><path fill="#898998" d="M40,420h54v54h-54zM418,420h54v54h-54z" stroke="#000000" stroke-width="16.0" id="path_0"/><path fill="#d8d8e4" d="M438,228H74c-35,0 -64,28 -64,64v128h492v-128C502,257 473,229 438,229zM86,228v-67c0,-15 12,-28 28,-28h112c15,0 28,12 28,28c0,-15 12,-28 28,-28h112c15,0 28,12 28,28v67h12c12,0 24,3 34,9V117c0,-44 -35,-80 -80,-80H120c-44,0 -80,35 -80,80v121c9,-6 21,-9 34,-9h12V229z" stroke="#000000" stroke-width="16.0" id="path_1"/><path fill="#ff6e37" d="M472,238c-9,-6 -21,-9 -34,-9h-12H256H86H74c-12,0 -24,3 -34,9c-18,11 -30,31 -30,54v80h492v-80C502,270 490,250 472,238z" stroke="#000000" stroke-width="16.0" id="path_2"/><path fill="#ffffff" d="M397,132H284c-15,0 -28,12 -28,28c0,-15 -12,-28 -28,-28H114C98,133 86,145 86,161v67h170h170v-67C426,145 413,133 397,133z" stroke="#000000" stroke-width="16.0" id="path_3"/></svg>