<svg id="vector" xmlns="http://www.w3.org/2000/svg" width="24.0d" height="24.0d" viewBox="0 0 512.0 512.0"><path fill="none" d="M256,476v30 M236,64l-45-45 M276,64l45-45" stroke-linecap="round" stroke="#000000" stroke-width="16.0" id="path_0"/><path fill="#ffbc4f" d="M341,347 l-0,0c-0,1 -0,1 -0,2h-169c-0,-1 -0,-1 -0,-2l-0,-0c2,-2 4,-4 6,-6 14,-14 28,-32 40,-50h76c12,18 26,36 40,50 2,2 4,4 6,6zM341,347M191,416h128c-16,37 -39,66 -64,66 -25,0 -48,-28 -64,-66z" stroke="#000000" stroke-width="16.0" id="path_1"/><path fill="#6e6e6e" d="M255,70c-33,0 -60,26 -60,60 0,13 4,25 11,34v0l48,29 48,-29v-0c7,-9 11,-22 11,-35 0,-33 -26,-60 -60,-60zM255,70M171,350h169c-4,22 -11,45 -20,66h-128c-9,-20 -16,-43 -20,-66zM171,350M294,290h-76c22,-33 37,-69 38,-94 0,25 16,61 38,94z" stroke="#000000" stroke-width="16.0" id="path_2"/><path fill="#ede9e8" d="M433,241c50,50 55,99 28,127 -36,36 -91,7 -127,-28 -35,-35 -78,-102 -78,-145 0,-0 0,-0 0,-1 0,-9 2,-17 8,-23 8,-8 23,-9 40,-6 39,8 93,41 129,76zM433,241M255,194c-0,0 -0,0 0,1 -0,44 -44,111 -78,145 -36,36 -91,64 -127,28 -27,-27 -22,-76 28,-127 35,-35 89,-68 129,-76 17,-3 32,-2 40,6 5,5 8,13 8,23z" stroke="#000000" stroke-width="16.0" id="path_3"/></svg>