<svg id="vector" xmlns="http://www.w3.org/2000/svg" width="24.0d" height="24.0d" viewBox="0 0 512.0 512.0"><path fill="#ffc144" d="m256,502h85.9v-128.7c0,-38 8,-75.6 24,-110 15.8,-34.6 24,-72 24,-110.3v-50.5h-134,-133.9v50.5c0,38 8,75.6 24,110 15.8,34.6 24,72 24,110.3v128.7z" stroke="#000000" stroke-width="12.0" id="path_0"/><path fill="#ffcd69" d="m146,263c15.8,34.6 24,72 24,110.3v14.7,41c0,13.6 11,24.7 24.7,24.7h122.4c13.6,0 24.7,-11 24.7,-24.7v-41,-14.7c0,-38 8,-75.6 24,-110 10.7,-23.5 18,-48.4 21.4,-73.9h-262.7c3.5,25.4 10.7,50 21.4,74z" stroke="#000000" stroke-width="12.0" id="path_1"/><path fill="#ffe6b4" d="m390,102h-134,-133.9v50.5c0,12 0.8,24 2.5,36.4h262.7c1.6,-12 2.5,-24 2.5,-36.4z" stroke="#000000" stroke-width="12.0" id="path_2"/><path fill="#fff3da" d="M355,44.7c-7,0 -13,2 -19,5.6 -6,-7 -15,-11.5 -24.7,-12.4 -8,-0.7 -16,1 -22.4,4.8 -10.5,-19.5 -31,-32.8 -55,-32.8 -23.8,0 -44.5,13 -55,32.8 -7.7,-4.4 -17,-6 -27,-4 -15.6,3 -27.4,16.4 -29,32 -1,11 2.7,22.6 9.8,30.9h76.5c16.6,0 30,13.5 30,30v122c0,14 11.5,25.7 25.7,25.7 14,0 25.7,-11.5 25.7,-25.7v-68c0,14 11.5,25.7 25.7,25.7 14,0 25.7,-11.5 25.7,-25.7v-54.8c0,-16 13,-29 29,-29h18.7v-22.4c-0,-19 -15.5,-34.7 -34.7,-34.7zM276,384m-20,0a20,20 0,1 1,40 0a20,20 0,1 1,-40 0" stroke="#000000" stroke-width="12.0" id="path_3"/></svg>