<svg id="vector" xmlns="http://www.w3.org/2000/svg" width="24.0d" height="24.0d" viewBox="0 0 512.0 512.0"><path fill="#40404c" d="M211,185h89v145h-89zM211,185M120,100 l7,-17c3,-8 9,-15 16,-20 7,-4 15,-7 24,-7 24,0 44,20 44,44v20M298,120v-20c0,-24 20,-44 44,-44 9,0 17,2 24,7 7,4 13,11 16,20l7,17" stroke="#000000" stroke-width="12.0" id="path_0"/><path fill="#40404c" d="M279,171v171l128,-23 89,-16 -66,-161c-6,-14 -16,-26 -29,-35 -12,-8 -27,-13 -43,-13 -1,0 -2,0 -4,0 -41,2 -74,36 -74,78zM232,171v171l-128,-23 -89,-16 66,-161c6,-14 16,-26 29,-35 12,-8 27,-13 43,-13 1,0 2,0 4,0 41,2 74,36 74,78z" stroke="#000000" stroke-width="12.0" id="path_1"/><path fill="#e4e4ef" d="M504,343c0,62 -50,112 -112,112 -62,0 -112,-50 -112,-112 0,-62 50,-112 112,-112 62,0 112,50 112,112zM232,343c0,62 -50,112 -112,112 -62,0 -112,-50 -112,-112 0,-62 50,-112 112,-112 62,0 112,50 112,112z" stroke="#000000" stroke-width="12.0" id="path_2"/><path fill="#40404c" d="m199,343c0,44 -35,79 -79,79 -44,0 -79,-35 -79,-79s35,-79 79,-79c44,0 79,35 79,79zM199,343M471,343c0,44 -35,79 -79,79 -44,0 -79,-35 -79,-79s35,-79 79,-79c44,0 79,35 79,79z" stroke="#000000" stroke-width="12.0" id="path_3"/><path fill="#589ce0" d="M314,326c8,35 39,62 77,62 38,0 69,-26 77,-62 -8,-35 -39,-62 -77,-62 -38,0 -69,26 -77,62zM314,326M197,326c-8,35 -39,62 -77,62 -38,0 -69,-26 -77,-62 8,-35 39,-62 77,-62 38,0 69,26 77,62z" stroke="#000000" stroke-width="12.0" id="path_4"/></svg>