<svg id="vector" xmlns="http://www.w3.org/2000/svg" width="24.0d" height="24.0d" viewBox="0 0 512.0 512.0"><path fill="#89df8f" d="m382,434v-16h16c22,0 41,18 41,41v16h-16c-22,0 -41,-18 -41,-41z" stroke="#000000" stroke-width="16.0" id="path_0"/><path fill="#ffcd69" d="m342,57 l-295,295c-8,8 -2,23 9,23l222,0c104,0 189,-84 189,-189v-77c0,-40 -33,-74 -74,-74 -19,0 -38,7 -52,21z" stroke="#000000" stroke-width="16.0" id="path_1"/><path fill="#ff7d97" d="m10,458c24,24 64,24 89,-0l200,-200 -44,-44z" stroke="#000000" stroke-width="16.0" id="path_2"/><path fill="#80b6ff" d="m23,376c79,45 180,31 245,-33 58,-58 58,-153 0,-212z" stroke="#000000" stroke-width="16.0" id="path_3"/><path fill="#a0c8ff" d="m51,348c56,3 113,-17 156,-59l0,-0c37,-37 50,-89 40,-137z" stroke="#000000" stroke-width="16.0" id="path_4"/><path fill="none" d="M401,111h0 M221,380h250 M341,380l40,40 M471,111h20" stroke-linecap="round" stroke="#000000" stroke-width="16.0" id="path_5"/></svg>