<svg id="vector" xmlns="http://www.w3.org/2000/svg" width="24.0d" height="24.0d" viewBox="0 0 512.0 512.0"><path fill="#ffe6b4" d="m256,67 l-164,134 74,208h180l74,-208z" stroke="#000000" stroke-width="12.0" id="path_0"/><path fill="#89a7bc" d="M256,210m-55,0a55,55 0,1 1,110 0a55,55 0,1 1,-110 0" stroke="#000000" stroke-width="12.0" id="path_1"/><path fill="#dd9366" d="M463,182 l-16,42 -191,-157 -191,157 -16,-42 207,-172zM256,330m-20,0a20,20 0,1 1,40 0a20,20 0,1 1,-40 0" stroke="#000000" stroke-width="12.0" id="path_2"/><path fill="#f4e7df" d="m236,410h40v92h-40z" stroke="#000000" stroke-width="12.0" id="path_3"/></svg>