<svg id="vector" xmlns="http://www.w3.org/2000/svg" width="24.0d" height="24.0d" viewBox="0 0 501.0 501.0"><path fill="#012d4e" d="m495,256c0,116 -81,214 -191,239 0,0 -4,-10 -10,-10s-10,14 -10,14c-10,1 -21,2 -32,2s-4,-16 -10,-16c-5,0 -10,15 -10,15 -13,-1 -27,-3 -40,-6 -3,-0 -5,-5 -9,-6 -3,-0 -7,1 -10,0 -96,-32 -166,-124 -166,-232 0,-135 109,-245 245,-245 36,0 70,7 102,22 10,4 19,11 28,17 7,5 16,9 23,15 55,44 90,113 90,190z" id="path_0"/><path fill="#0ab59e" d="m191,176v90c0,5 -4,10 -10,10s-10,-4 -10,-10v-80h-9c-5,0 -10,-4 -10,-10s4,-10 10,-10h19c5,0 10,4 10,10zM278,299h-19c-5,0 -10,4 -10,10s4,10 10,10h9v80c0,5 4,10 10,10s10,-4 10,-10v-90c0,-5 -4,-10 -10,-10zM90,299h-19c-5,0 -10,4 -10,10s4,10 10,10h9v80c0,5 4,10 10,10s10,-4 10,-10v-90c0,-5 -4,-10 -10,-10zM181,431h-19c-5,0 -10,4 -10,10s4,10 10,10h9v36c6,2 13,4 20,5v-52c0,-5 -4,-10 -10,-10zM452,166h-19c-5,0 -10,4 -10,10s4,10 10,10h9v80c0,5 4,10 10,10s10,-4 10,-10v-90c0,-5 -4,-10 -10,-10zM370,166h-19c-5,0 -10,4 -10,10s4,10 10,10h9v80c0,5 4,10 10,10s10,-4 10,-10v-90c0,-5 -4,-10 -10,-10z" id="path_1"/><path fill="#5affb7" d="m268,278c-19,0 -36,-16 -36,-36v-41c0,-19 16,-36 36,-36s36,16 36,36v41c0,19 -16,36 -36,36zM268,184c-8,0 -16,7 -16,16v41c0,8 7,16 16,16s16,-7 16,-16v-41c0,-8 -7,-16 -16,-16zM80,278c-19,0 -36,-16 -36,-36v-41c0,-19 16,-36 36,-36s36,16 36,36v41c0,19 -16,36 -36,36zM80,184c-8,0 -16,7 -16,16v41c0,8 7,16 16,16s16,-7 16,-16v-41c0,-8 -7,-16 -16,-16zM268,430c-19,0 -36,16 -36,36v34c6,0 12,0 18,0 0,0 1,-0 1,-0v-34c0,-8 7,-16 16,-16s16,7 16,16v32c6,-0 13,-2 20,-3v-28c0,-19 -16,-36 -36,-36zM172,410c-19,0 -36,-16 -36,-36v-41c0,-19 16,-36 36,-36s36,16 36,36v41c0,19 -16,36 -36,36zM172,315c-8,0 -16,7 -16,16v41c0,8 7,16 16,16s16,-7 16,-16v-41c0,-8 -7,-16 -16,-16zM268,143c-19,0 -36,-16 -36,-36v-41c0,-19 16,-36 36,-36s36,16 36,36v41c0,19 -16,36 -36,36zM268,49c-8,0 -16,7 -16,16v41c0,8 7,16 16,16s16,-7 16,-16v-41c0,-8 -7,-16 -16,-16zM332,65v41c0,19 16,36 36,36s36,-16 36,-36v-41c0,-0 -0,-0 -0,-0 -15,-12 -33,-23 -51,-32 -12,5 -20,18 -20,32zM384,65v41c0,8 -7,16 -16,16s-16,-7 -16,-16v-41c0,-8 7,-16 16,-16s16,7 16,16z" id="path_2"/></svg>