<svg id="vector" xmlns="http://www.w3.org/2000/svg" width="24.0d" height="24.0d" viewBox="0 0 505.0 505.0"><path fill="#f0cd00" d="M497,252c0,135 -109,245 -245,245c-71,0 -135,-30 -180,-79c-11,-12 -22,-26 -31,-41c-21,-36 -33,-78 -33,-124c0,-135 109,-245 245,-245c45,0 87,12 124,33c15,8 29,19 41,31C467,117 497,181 497,252z" stroke="#000000" stroke-width="12.0" id="path_0"/><path fill="#faa300" d="M442,252c0,105 -85,190 -190,190c-36,0 -70,-10 -99,-28c-12,-7 -24,-17 -34,-27c-7,-7 -14,-16 -21,-25c-8,-12 -16,-25 -21,-39c-8,-21 -13,-43 -13,-67c-0,-0 -0,-1 -0,-2c0,-105 85,-190 190,-190c0,0 1,0 2,0c23,0 46,5 67,13c14,5 27,12 39,21c9,6 17,13 25,21c10,10 19,22 27,34C432,181 442,215 442,252z" stroke="#000000" stroke-width="12.0" id="path_1"/><path fill="#ffea94" d="M364,300c0,-25 -13,-47 -33,-60c8,-11 13,-25 13,-39c0,-25 -14,-48 -35,-59v-24c0,-11 -9,-20 -20,-20s-20,9 -20,20v16h-24v-16c0,-11 -9,-20 -20,-20s-20,9 -20,20v16h-23c-11,0 -20,9 -20,20s9,20 20,20h6v76v85h-7c-11,0 -20,9 -20,20s9,20 20,20h23v16c0,11 9,20 20,20s20,-9 20,-20v-16h24v16c0,11 9,20 20,20s20,-9 20,-20v-18C340,363 364,334 364,300zM227,171h48c15,0 28,12 28,28s-12,28 -28,28h-48V171zM291,333h-63v-65h48h15c18,0 32,14 32,32S309,333 291,333z" stroke="#000000" stroke-width="12.0" id="path_2"/></svg>