<svg id="vector" xmlns="http://www.w3.org/2000/svg" width="24.0d" height="24.0d" viewBox="0 0 512.0 512.0"><path fill="#a86b38" d="M166,124c0,0 61,-7 114,5c26,6 55,5 82,5l2,-4c-38,-40 -176,-40 -176,-39l-35,23v0C158,117 162,120 166,124z" stroke="#000000" stroke-width="12.0" id="path_0"/><path fill="#2a2a2c" d="M409,311c-14,2 -29,3 -44,3l0,0l40,39c0,0 -9,33 -9,59h34l11,-75l-0,-0C432,332 420,323 409,311zM210,297c-19,-6 -34,-18 -34,-18c-4,4 -9,7 -17,9l-0,0c0,0 30,41 22,67c-7,25 -33,35 -31,64h32c0,0 25,-58 49,-86C229,316 221,300 210,297z" stroke="#000000" stroke-width="12.0" id="path_1"/><path fill="#8a8990" d="M470,278c24,-46 2,-105 -35,-129c-37,-23 -99,-5 -153,-18c-53,-13 -114,-5 -114,-5c-32,-30 -69,-18 -69,-18c26,17 27,30 27,30c-19,11 -35,60 -58,70c-23,9 -56,11 -56,11l24,55c1,-0 7,-2 27,-7c33,-9 16,26 74,26c21,-0 33,-6 42,-13c0,0 14,12 34,18c19,6 29,49 19,75c-10,25 -21,30 -19,48h35c0,0 15,-43 25,-76c3,-12 5,-25 5,-36l0,0c0,0 71,12 133,3c22,25 53,36 53,36c-8,21 -6,65 -6,65h39v-96L470,278z" stroke="#000000" stroke-width="12.0" id="path_2"/><path fill="#d9d9db" d="M61,242c0,0 -26,-36 -12,-69c0,0 -5,27 37,55" stroke="#000000" stroke-width="8.0" id="path_3"/><path fill="#000000" d="M123,191c-5,0 -9,4 -9,9c0,5 4,9 9,9c5,0 9,-4 9,-9C133,195 128,191 123,191z" id="path_4"/></svg>