<svg id="vector" xmlns="http://www.w3.org/2000/svg" width="24.0d" height="24.0d" viewBox="0 0 512.0 512.0"><path fill="#75a4c8" d="M461,171c-6,-2 -13,0 -16,6l-6,14c-3,8 -11,14 -21,14h-19v24h19c19,0 36,-11 44,-29l6,-14c2,-6 -0,-13 -6,-16zM50,171c6,-2 13,0 16,6l6,14c3,8 11,14 21,14h19v24h-19c-19,0 -36,-11 -44,-29l-6,-14c-2,-6 0,-13 6,-16z" stroke="#000000" stroke-width="12.0" id="path_0"/><path fill="#ff9c26" d="M192,429c0,5 -1,11 -5,15 -4,6 -12,10 -21,10s-16,-4 -21,-10c-3,-4 -5,-9 -5,-15 0,-9 10,-25 18,-37 4,-5 12,-5 16,0 7,11 18,27 18,37zM280,429c0,5 -1,11 -5,15 -4,6 -12,10 -21,10 -8,0 -16,-4 -21,-10 -3,-4 -5,-9 -5,-15 0,-9 10,-25 18,-37 4,-5 12,-5 16,0 7,11 18,27 18,37zM368,429c0,5 -1,11 -5,15 -4,6 -12,10 -21,10 -8,0 -16,-4 -21,-10 -3,-4 -5,-9 -5,-15 0,-9 10,-25 18,-37 4,-5 12,-5 16,0 7,11 18,27 18,37z" stroke="#000000" stroke-width="12.0" id="path_1"/><path fill="#39aaff" d="M187,445c-4,6 -12,10 -21,10 -8,0 -16,-4 -21,-10 3,-7 8,-14 12,-21 4,-5 12,-5 16,0 4,6 9,13 12,21zM275,445c-4,6 -12,10 -21,10 -8,0 -16,-4 -21,-10 3,-7 8,-14 12,-21 4,-5 12,-5 16,0 4,6 9,13 12,21zM362,445c-4,6 -12,10 -21,10 -8,0 -16,-4 -21,-10 3,-7 8,-14 12,-21 4,-5 12,-5 16,0 4,6 9,13 12,21z" stroke="#000000" stroke-width="12.0" id="path_2"/><path fill="#75a4c8" d="m429,480h-352c-6,0 -11,-5 -11,-11v-8c0,-6 5,-11 11,-11h352c6,0 11,5 11,11v8c-0,6 -5,11 -11,11z" stroke="#000000" stroke-width="12.0" id="path_3"/><path fill="#ff5656" d="M124,504h-5c-5,0 -10,-4 -10,-10v-14c0,-5 4,-10 10,-10h5c5,0 10,4 10,10v14c0,5 -4,10 -10,10z M388,504h-5c-5,0 -10,-4 -10,-10v-14c0,-5 4,-10 10,-10h5c5,0 10,4 10,10v14c0,5 -4,10 -10,10z" stroke="#000000" stroke-width="12.0" id="path_4"/><path fill="#a1edff" d="m407,203 l-3,47 -8,111c-2,20 -18,35 -39,35h-205c-7,0 -15,-2 -21,-6 -9,-6 -16,-16 -17,-28l-8,-105 -4,-52c-0,-5 4,-10 9,-10h288c2,0 4,0 5,1 2,2 4,5 3,8z" stroke="#000000" stroke-width="12.0" id="path_5"/><path fill="#23e5ed" d="m404,250 l-8,111c-0,9 -4,17 -10,23 -3,4 -8,7 -13,9 -4,1 -9,2 -14,2h-205c-7,0 -15,-2 -21,-6 -9,-6 -16,-16 -17,-28l-8,-105h26c8,0 15,-7 15,-15 0,-4 2,-9 5,-12 3,-3 7,-5 12,-5 4,0 9,2 12,5 3,3 5,7 5,12v11c0,12 10,22 22,22h0c12,0 22,-10 22,-22v-3c0,-14 11,-25 25,-25 7,0 13,2 18,7 3,3 5,7 6,12 0,1 0,3 0,5v13c0,6 4,11 10,12 0,0 1,0 1,0 3,0 6,-1 8,-3 2,-2 3,-5 3,-8 0,-3 1,-5 3,-7 1,-1 4,-3 7,-3z" stroke="#000000" stroke-width="12.0" id="path_6"/><path fill="#000000" d="m349,301h0c4,0 7,-3 7,-7 0,-4 -3,-7 -7,-7h-0c-0,0 -0,0 -0,0 -4,0 -7,3 -7,7 -0,4 3,7 7,7z" id="path_7"/><path fill="#000000" d="m328,317h0c4,0 7,-3 7,-7 0,-4 -3,-7 -7,-7h-0c-4,0 -7,3 -7,7 0,4 3,7 7,7z" id="path_8"/><path fill="#000000" d="m141,339c-4,0 -7,3 -7,7s3,7 7,7h0c4,0 7,-3 7,-7s-3,-7 -7,-7z" id="path_9"/><path fill="#000000" d="m192,290c-4,0 -7,3 -7,7 0,4 3,7 7,7h0c4,0 7,-3 7,-7 0,-4 -3,-7 -7,-7z" id="path_10"/><path fill="#000000" d="m337,374c11,0 21,-9 21,-21 0,-11 -9,-21 -21,-21 -11,0 -21,9 -21,21 0,11 9,21 21,21zM337,347c3,0 6,2 6,6 0,3 -2,6 -6,6s-6,-2 -6,-6c0,-3 2,-6 6,-6z" id="path_11"/><path fill="#000000" d="m176,308c0,-11 -9,-21 -21,-21 -11,0 -21,9 -21,21 0,11 9,21 21,21 11,0 21,-9 21,-21zM149,308c0,-3 2,-6 6,-6s6,2 6,6c0,3 -2,6 -6,6s-6,-2 -6,-6z" id="path_12"/></svg>