<svg id="vector" xmlns="http://www.w3.org/2000/svg" width="24.0d" height="24.0d" viewBox="0 0 512.0 512.0"><path fill="#f7f5f5" d="m247,349 l-38,38c-9,9 -13,23 -9,36 6,20 1,44 -14,60 -23,24 -63,25 -87,1 -15,-15 -21,-37 -16,-56 -19,4 -41,-1 -56,-16 -23,-24 -23,-64 1,-87 16,-15 40,-20 60,-14 13,4 27,0 36,-9l179,-179c9,-9 13,-23 9,-36 -6,-20 -1,-44 14,-60 10,-11 25,-17 40,-18 15,-0 26,4 26,4 7,3 14,7 20,13 15,15 21,37 16,56 19,-4 41,1 56,16 23,24 23,64 -1,87 -16,15 -40,20 -60,14 -13,-4 -27,-0 -36,9l-113,113z" stroke="#000000" stroke-width="12.0" id="path_0"/></svg>