<svg id="vector" xmlns="http://www.w3.org/2000/svg" width="24.0d" height="24.0d" viewBox="0 0 512.0 512.0"><path fill="#d9ecfd" d="m419,410v62h-288c-11,0 -21,-9 -21,-21v-19c0,-11 9,-21 21,-21z" id="path_0"/><path fill="#c5e2ff" d="m419,441v31h-288c-11,0 -21,-9 -21,-21v-9z" id="path_1"/><path fill="#db3915" d="m132,378v-370h-20c-19,0 -35,15 -35,35v389c0,-29 24,-53 53,-53z" stroke="#000000" stroke-width="12.0" id="path_2"/><path fill="#fc5a36" d="m132,7h301v370h-301z" stroke="#000000" stroke-width="12.0" id="path_3"/><path fill="#a42b0f" d="m131,378c-29,0 -53,24 -53,53v19c0,29 24,53 53,53h303v-32h-303c-11,0 -21,-9 -21,-21v-19c0,-11 9,-21 21,-21h303v-32z" stroke="#000000" stroke-width="12.0" id="path_4"/><path fill="#ffc85e" d="m193,63h180v80h-180z" stroke="#000000" stroke-width="12.0" id="path_5"/><path fill="none" d="M341,241h-116M341,277h-116" stroke="#000000" stroke-width="12.0" id="path_6"/></svg>