<svg id="vector" xmlns="http://www.w3.org/2000/svg" width="24.0d" height="24.0d" viewBox="0 0 682.6 682.6"><path fill="#ffba4a" d="M557.4,562.6l111.9,-0l0,50.9c0,69.8 -99.9,79.3 -107.3,-1.5z M120,13.3l0,111.9l-49.3,-4.5C-10,113.2 -0.7,13.3 69,13.3Z" stroke="#000000" stroke-width="26.6" id="path_0"/><path fill="#ffba4a" d="m669.3,490.7 l-119.5,-11 -14.8,-160.2c-8.6,-94 -77.6,-163 -171.7,-171.7l-160.2,-14.7 -11,-119.5l313.3,-0C595.5,13.3 669.3,87 669.3,177.3Z" stroke="#000000" stroke-width="26.6" id="path_1"/><path fill="#fd4848" d="M669.3,562.6L557.4,562.6L549.7,479.6 669.3,490.7Z M191.9,13.3 l11,119.5 -82.9,-7.6L120,13.3Z" stroke="#000000" stroke-width="26.6" id="path_2"/></svg>