<svg id="vector" xmlns="http://www.w3.org/2000/svg" width="24.0d" height="24.0d" viewBox="0 0 512.0 512.0"><path fill="#baf0ff" d="M152,151l80,-104l48,0l80,104z" stroke-linejoin="round" stroke="#000000" stroke-width="12.0" id="path_0"/><path fill="#8adeff" d="M360,223v-72H152v72c0,17 14,32 32,32h-4c-15,0 -28,12 -28,28l0,0c0,15 12,28 28,28c-15,0 -28,12 -28,28l0,0c0,15 12,28 28,28h4c-17,0 -32,14 -32,32v64c0,17 14,32 32,32h43c5,5 13,8 21,8h16c8,0 15,-3 21,-8h43c17,0 32,-14 32,-32v-64c0,-17 -14,-32 -32,-32h4c15,0 28,-12 28,-28l0,0c0,-15 -12,-28 -28,-28c15,0 28,-12 28,-28l0,0c0,-15 -12,-28 -28,-28h-4C346,255 360,241 360,223z" stroke-linejoin="round" stroke="#000000" stroke-width="12.0" id="path_1"/><path fill="#ff6243" d="M208,7h96v40h-96z" stroke-linejoin="round" stroke="#000000" stroke-width="12.0" id="path_2"/></svg>