<svg id="vector" xmlns="http://www.w3.org/2000/svg" width="24.0d" height="24.0d" viewBox="0 0 512.0 512.0"><path fill="#bdebff" d="m327,477 l-21,-89 124,-186h-349l124,186 -21,89c-3,12 5,25 18,26 0,0 1,0 2,0 12,0 12,-9 25,-9 12,0 12,9 25,9 12,0 12,-9 25,-9 12,0 12,9 25,9 1,0 2,-0 2,-0 12,-1 21,-14 18,-26z" stroke-linejoin="round" stroke="#000000" stroke-width="12.0" id="path_0"/><path fill="#d7f3ff" d="m426,224h-340c-4,0 -7,-3 -7,-7v-52c0,-4 3,-7 7,-7h340c4,0 7,3 7,7v52c0,4 -3,7 -7,7z" stroke="#000000" stroke-width="12.0" id="path_1"/><path fill="#ff8da3" d="m178,71c4,7 13,12 22,12 19,0 31,21 22,38 -4,7 -4,17 0,25 9,17 -2,38 -22,38 -9,0 -17,4 -22,12 -9,17 -34,17 -44,0 -4,-7 -13,-12 -22,-12 -19,0 -31,-21 -22,-38 4,-7 4,-17 0,-25 -9,-17 2,-38 22,-38 9,0 17,-4 22,-12 9,-17 34,-17 44,0z" stroke="#000000" stroke-width="12.0" id="path_2"/><path fill="#ff8da3" d="m377,71c4,7 13,12 22,12 19,0 31,21 22,38 -4,7 -4,17 0,25 9,17 -2,38 -22,38 -9,0 -17,4 -22,12 -9,17 -34,17 -44,0 -4,-7 -13,-12 -22,-12 -19,0 -31,-21 -22,-38 4,-7 4,-17 0,-25 -9,-17 2,-38 22,-38 9,0 17,-4 22,-12 9,-17 34,-17 44,0z" stroke="#000000" stroke-width="12.0" id="path_3"/><path fill="#f46262" d="m313,408h-115c-3,0 -5,-2 -6,-4l-8,-33c-1,-4 2,-8 6,-8h133c4,0 7,4 6,8l-8,33c-0,2 -3,4 -6,4z" stroke="#000000" stroke-width="12.0" id="path_4"/><path fill="#ffde55" d="m181,134c0,14 -11,25 -25,25 -14,0 -25,-11 -25,-25 0,-14 11,-25 25,-25 14,0 25,11 25,25z" stroke="#000000" stroke-width="12.0" id="path_5"/><path fill="#ffde55" d="m380,134c0,14 -11,25 -25,25 -14,0 -25,-11 -25,-25 0,-14 11,-25 25,-25 14,0 25,11 25,25z" stroke="#000000" stroke-width="12.0" id="path_6"/><path fill="#ffa5b5" d="m283,23c5,9 16,16 28,16 24,0 40,27 28,48 -5,9 -5,22 0,32 12,21 -3,48 -28,48 -11,0 -22,6 -28,16 -12,21 -43,21 -56,0 -5,-9 -16,-16 -28,-16 -24,0 -40,-27 -28,-48 5,-9 5,-22 0,-32 -12,-21 3,-48 28,-48 11,0 22,-6 28,-16 12,-21 43,-21 56,0z" stroke="#000000" stroke-width="12.0" id="path_7"/><path fill="#ffde55" d="m289,104c0,18 -15,33 -33,33s-33,-15 -33,-33 15,-33 33,-33 33,15 33,33z" stroke="#000000" stroke-width="12.0" id="path_8"/></svg>