<svg id="vector" xmlns="http://www.w3.org/2000/svg" width="24.0d" height="24.0d" viewBox="0 0 512.0 512.0"><path fill="#fe8f8d" d="m471,205 l4,-6c6,-28 -15,-39 -15,-39 1,-23 -32,-33 -32,-33 0,-63 -73,-56 -73,-56 -10,-29 -52,-19 -52,-19 -10,-3 -21,-7 -30,-8 -9,-1 -29,-2 -39,-2 -10,0 -30,1 -39,3 -20,3 -31,12 -31,12 -53,-1 -58,30 -58,30 -46,-9 -50,32 -50,32 -54,18 -34,73 -34,73 -19,26 3,38 3,38 -7,57 77,60 77,60l8,-2c-3,27 13,57 61,64 0,0 19,2 48,-2 43,38 46,96 55,118l45,-7c-4,-15 -5,-31 -4,-44 6,3 13,5 21,7 45,11 89,-6 97,-40 1,-5 1,-10 1,-15 18,0 39,-8 54,-38 -0,0 40,-89 -17,-126z" stroke="#000000" stroke-width="16.0" id="path_0"/><path fill="#000000" d="m233,175c0,0 2,14 12,28 2,3 5,6 8,9 -1,10 -17,16 -18,16 -5,1 -8,7 -6,12 1,4 5,6 9,6 1,0 2,-0 3,-0 9,-3 22,-11 28,-23 7,3 17,5 28,5 0,0 1,-0 2,-0 5,-0 10,-4 9,-10 -0,-5 -4,-9 -10,-9 -0,0 -0,0 -0,0 -40,1 -48,-37 -48,-38 -1,-5 -6,-9 -11,-8 -5,1 -9,6 -8,11z" id="path_1"/><path fill="#000000" d="m356,263c17,-30 10,-54 1,-68 -9,-15 -22,-23 -23,-23 -4,-2 -10,-1 -13,3 -2,4 -1,11 3,13 0,0 10,6 16,17 8,14 7,30 -2,47 -2,4 -1,11 3,13 1,1 3,1 5,1 3,0 6,-1 8,-5z" id="path_2"/><path fill="#000000" d="m462,287c4,-3 5,-9 2,-14s-9,-5 -14,-2c-9,7 -18,9 -26,7 -11,-2 -18,-14 -18,-15 -2,-4 -8,-6 -13,-4 -5,2 -6,8 -4,13 0,0 9,17 26,23 -3,12 -5,34 13,49 1,1 4,2 6,2 2,0 5,-1 7,-3 3,-4 3,-10 -1,-14 -11,-9 -8,-24 -5,-31 9,-1 18,-5 27,-11z" id="path_3"/><path fill="#000000" d="m166,222c-0,-5 -5,-9 -11,-8 -5,0 -9,5 -8,11 1,13 -9,23 -15,28 -16,-8 -34,-5 -35,-4 -5,1 -9,6 -8,11 1,5 6,9 11,8 0,-0 17,-2 27,6 5,5 8,13 8,25 -0,5 4,10 9,10 0,0 0,0 0,0 5,0 10,-4 10,-9 0,-13 -2,-24 -8,-33 9,-8 22,-23 19,-44z" id="path_4"/><path fill="#000000" d="m72,169c-1,2 -2,5 -4,7 -5,5 -12,7 -12,7 -5,1 -8,7 -7,12 1,4 5,7 9,7 0,0 1,-0 2,-0 0,-0 13,-3 23,-14 6,5 14,7 23,7 2,0 4,-0 7,-0 11,-1 19,-7 20,-7 4,-3 6,-9 3,-13 -3,-4 -9,-6 -13,-3 -0,0 -5,3 -13,4 -7,1 -13,-0 -17,-5 2,-8 2,-18 -0,-28 -1,-5 -7,-8 -12,-7 -5,1 -8,7 -7,12 2,8 2,15 -0,21 -0,0 -0,0 -0,0z" id="path_5"/><path fill="#000000" d="m307,84c-17,-10 -36,-4 -37,-4 -5,1 -8,7 -7,12 1,5 7,8 12,7 0,-0 12,-3 21,2 5,3 9,9 11,18 1,4 5,7 9,7 0,0 1,-0 2,-0 5,-1 8,-6 7,-12 -3,-14 -10,-24 -21,-31z" id="path_6"/><path fill="#000000" d="m271,273c-7,12 -17,18 -30,19 -10,0 -19,-2 -19,-3 -5,-2 -11,0 -13,5 -2,5 0,11 5,13 1,0 11,4 24,4 0,0 1,-0 2,-0 14,-0 34,-6 48,-29 2,-4 1,-11 -3,-13 -4,-2 -11,-1 -13,3z" id="path_7"/><path fill="#000000" d="m343,332c-2,-3 -6,-5 -11,-4 -4,1 -7,4 -7,8 -0,4 2,8 5,10 3,1 8,1 11,-1 3,-3 4,-8 1,-13z" id="path_8"/></svg>