<svg id="vector" xmlns="http://www.w3.org/2000/svg" width="24.0d" height="24.0d" viewBox="0 0 682.6 682.6"><path fill="#fd9e35" d="m469.5,53.4c-5.3,20.9 -31.2,32.2 -31.2,32.2 0,-0 -17,-22.5 -11.7,-43.4 5.3,-20.9 31.2,-32.2 31.2,-32.2 0,-0 17,22.5 11.7,43.4" stroke="#000000" stroke-width="20.0" id="path_0"/><path fill="#f5be00" d="m501.2,568c-28.4,-12.2 -38.9,-51.2 -38.9,-51.2 0,-0 35.7,-19.2 64.2,-7C555,522.1 565.4,561 565.4,561 565.4,561 529.7,580.3 501.2,568" stroke="#000000" stroke-width="20.0" id="path_1"/><path fill="#f5be00" d="m175.3,99.6c22,21.7 17.4,61.8 17.4,61.8 0,-0 -40.3,4.9 -62.3,-16.7 -22,-21.7 -17.4,-61.8 -17.4,-61.8 0,-0 40.3,-4.9 62.3,16.7" stroke="#000000" stroke-width="20.0" id="path_2"/><path fill="#f5be00" d="m513.4,348.2c-26.4,16.2 -64.4,2.2 -64.4,2.2 0,-0 4.7,-40.2 31,-56.4 26.3,-16.2 64.4,-2.2 64.4,-2.2C544.6,291.8 539.8,332 513.4,348.2" stroke="#000000" stroke-width="20.0" id="path_3"/><path fill="#f5be00" d="m513.4,348.2c-26.4,16.2 -64.4,2.2 -64.4,2.2 0,-0 4.7,-40.2 31,-56.4 26.3,-16.2 64.4,-2.2 64.4,-2.2C544.6,291.8 539.8,332 513.4,348.2" stroke="#000000" stroke-width="20.0" id="path_4"/><path fill="#ff636b" d="m584.7,248c-36.6,-20.7 -44.9,-75 -44.9,-75 0,-0 51.2,-20.6 87.9,0 36.6,20.7 44.9,75 44.9,75 0,-0 -51.2,20.6 -87.9,-0" stroke="#000000" stroke-width="20.0" id="path_5"/><path fill="#fd9e35" d="m429,297.4c2,21.4 -18,41 -18,41 0,-0 -23.8,-15.2 -26,-36.7 -2,-21.4 18,-41 18,-41 0,-0 23.8,15.2 26,36.7" stroke="#000000" stroke-width="20.0" id="path_6"/><path fill="#bf682c" d="m657.7,76.2c-2,-11.9 -13.5,-20 -25.5,-17.9 -117.7,20.3 -223.7,64 -315,129.6 -11.8,8.5 -23.4,17.4 -34.8,26.7 6.3,-35.2 20,-81 50.3,-115.4 18.7,-21.3 -14.5,-50.3 -33.2,-29 -57,65 -65.2,158.2 -66.4,188.5 -38.7,37.8 -74,80.3 -105.3,127 -89.5,133.9 -115.9,255.6 -117,260.7 -5.8,27.7 37.3,36.8 43.2,9 0,-0.8 14,-64.9 55.3,-149.2 139.7,39.4 296.5,17.3 412,-72.7 22.3,-17.4 -4.7,-52.2 -27.2,-34.7 -48.5,37.8 -105.7,63.3 -166.2,74.6 10.8,-17.7 29.8,-39.4 62.2,-55.7 25.3,-12.7 5.5,-52 -19.9,-39.3 -60.5,30.4 -85,76.9 -94.4,101.5 -48.7,3 -98.3,-1.6 -145.6,-13.7 78.9,-141.6 202.4,-258.4 353.4,-320.4 50,-20.5 102.7,-35 156.2,-44.4C651.7,99.6 659.7,88.2 657.7,76.2" stroke="#000000" stroke-width="20.0" id="path_7"/><path fill="none" d="M405.8,497.2 L464,518.6 M238.1,201.4 L191.6,160.3 M397.6,385.6 L448.7,350.4 M485.7,145.7 L539.7,172.5 M416.8,372.3 L411.3,336.8 M432.2,119.5 L439.3,84.2" stroke-linecap="round" stroke="#000000" stroke-width="20.0" id="path_8"/></svg>