<svg id="vector" xmlns="http://www.w3.org/2000/svg" width="24.0d" height="24.0d" viewBox="0 0 512.0 512.0"><path fill="#e8f7ff" d="M256,192c-93,0 -176,56 -248,56v32c72,0 155,-56 248,-56s176,56 248,56v-32C432,248 349,192 256,192z" stroke="#000000" stroke-width="12.0" id="path_0"/><path fill="#be788c" d="M8,288h72v112h-72z M432,288h72v112h-72z" stroke="#000000" stroke-width="12.0" id="path_1"/><path fill="#be788c" d="M256,224c-93,0 -176,56 -248,56v32c72,0 155,-56 248,-56s176,56 248,56v-32C432,280 349,224 256,224z" stroke="#000000" stroke-width="12.0" id="path_2"/><path fill="#e8f7ff" d="M496,160c-31,0 -65,-12 -102,-25c-43,-15 -88,-31 -137,-31s-94,15 -137,31c-36,12 -71,25 -102,25c-4,0 -7,3 -7,8v8c0,4 3,8 7,8c34,0 69,-12 107,-25c42,-14 86,-30 132,-30s90,15 132,30c37,13 73,25 107,25c4,0 7,-3 7,-8v-8C504,164 500,160 496,160z" stroke="#000000" stroke-width="12.0" id="path_3"/><path fill="none" d="M87,359v-55c10,-3 20,-6 31,-10c9,-3 19,-6 28,-9C121,303 100,329 87,359zM424,359c-13,-30 -33,-56 -59,-75c9,3 19,6 28,9c10,3 21,7 31,10L424,359L424,359z" stroke-linejoin="round" stroke="#000000" stroke-width="12.0" id="path_4"/><path fill="none" d="M80,176v82 M170,152v82 M256,136v82 M346,152v82 M430,176v82" stroke-linecap="round" stroke="#000000" stroke-width="16.0" id="path_5"/></svg>