<svg id="vector" xmlns="http://www.w3.org/2000/svg" width="24.0d" height="24.0d" viewBox="0 0 512.0 512.0"><path fill="#a16b4e" d="M248.9,306.3l-43.3,-43.3L454,14.6c9.6,-9.6 25,-9.6 34.7,0l8.5,8.5c9.6,9.6 9.6,25 0,34.7L248.9,306.3z" stroke="#000000" stroke-width="12.0" id="path_0"/><path fill="#f15b70" d="M248.9,306.3l-43.3,-43.3l60.2,-60.2l43.3,43.3z" stroke="#000000" stroke-width="12.0" id="path_1"/><path fill="#fad97e" d="M193,499.5c4.8,-33 17.7,-64 41.2,-87.5l13,-13c37,-37 38,-97.3 1.3,-134.7c-37,-37.6 -97.6,-37.7 -134.8,-0.5l-13.9,13.9c-23.5,23.5 -54.6,36.4 -87.5,41.2c-4.6,0.6 -6.5,6.3 -3.2,9.7l97,97c4.6,4.6 11.8,5.7 17.6,2.6l21.2,-11.3c3.6,-1.9 7.8,1.6 6.4,5.5l-9.4,27c-1.8,5.4 -0.5,11.4 3.5,15.5l37.4,37.4C186.6,506 192.3,504.2 193,499.5z" stroke="#000000" stroke-width="12.0" id="path_2"/><path fill="#a16b4e" d="M234.3,412l13,-13c4.6,-4.6 8.6,-9.6 12,-14.8l-131.8,-131.8c-4.8,3.3 -9.5,7 -13.8,11.4l-13.9,13.9c-2,2 -4.2,4 -6.5,6l134.8,134.8C230.2,416.3 232.2,414 234.3,412z" stroke="#000000" stroke-width="12.0" id="path_3"/></svg>