<svg id="vector" xmlns="http://www.w3.org/2000/svg" width="24.0d" height="24.0d" viewBox="0 0 512.0 512.0"><path fill="#c81e1e" d="m483,161 l-6,45 -32,223 -0,1 -0,-1c-5,24 -87,44 -187,44s-182,-19 -187,-44l-0,1 -0,-1 -32,-223 -6,-45zM483,161" stroke="#000000" stroke-width="16.0" id="path_0"/><path fill="#bb193b" d="m503,89v51c0,6 -6,13 -17,18 -1,0 -1,1 -3,1 -10,4 -20,8 -31,11 -45,12 -116,20 -196,20 -102,0 -189,-12 -227,-31 -1,-0 -2,-1 -3,-1 -11,-5 -17,-12 -17,-18v-51zM503,89" stroke="#000000" stroke-width="16.0" id="path_1"/><path fill="#c81e1e" d="m503,89c0,-28 -110,-51 -247,-51s-247,23 -247,51 110,51 247,51 247,-23 247,-51zM503,89" stroke="#000000" stroke-width="16.0" id="path_2"/><path fill="#0377bc" d="m470,115c-16,5 -32,9 -49,12 -54,9 -109,13 -165,13 -86,0 -162,-9 -207,-23 -2,-0 -5,-1 -7,-2 42,-15 122,-25 214,-25s171,10 214,25zM470,115" stroke="#000000" stroke-width="16.0" id="path_3"/><path fill="none" d="M22,156 a54,80 90, 1 0, 470 0 a54,80 90, 1 1, -470 0z" stroke="#000000" stroke-width="16.0" id="path_4"/><path fill="#545c60" d="m349,303c-0,9 -7,17 -17,17h-153c-9,-0 -17,-7 -17,-17 0,-9 7,-17 17,-17h153c9,0 17,7 17,17zM349,303" stroke="#000000" stroke-width="16.0" id="path_5"/></svg>