<svg id="vector" xmlns="http://www.w3.org/2000/svg" width="24.0d" height="24.0d" viewBox="0 0 512.0 512.0"><path fill="none" d="M220,70 l-20,-20 l-10,-30M295,70 l20,-20 l10,-30M170,130 l-20,-10 l-20,-50 l-45,-40M340,130 l20,-10 l20,-50 l45,-40M120,200 l-50,25 l-60,-25M390,200 l50,25 l60,-25M95,360 l-25,70 l-50,10M420,360 l25,70 l50,10" stroke-linejoin="round" stroke-linecap="round" stroke="#000000" stroke-width="16.0" id="path_0"/><path fill="#6e90ac" d="M210,101 l-13,8c-12,8 -19,21 -19,36 0,0 0,11 0,11 0,7 11,20 18,20h119c7,0 18,-13 18,-20 0,-0 0,-11 0,-11 0,-14 -7,-28 -19,-36l-13,-8zM214,98c0,-22 18,-40 42,-40s42,18 42,40z" stroke="#000000" stroke-width="16.0" id="path_1"/><path fill="#2a5070" d="M256,178h-83c-29,0 -55,16 -64,39 -10,29 -17,57 -17,105 0,87 73,178 165,178zM256,178h83c29,0 55,16 64,39 10,29 17,57 17,105 0,87 -73,178 -165,178z" stroke="#000000" stroke-width="16.0" id="path_2"/></svg>