<svg id="vector" xmlns="http://www.w3.org/2000/svg" width="24.0d" height="24.0d" viewBox="0 0 512.0 512.0"><path fill="#d9ecfd" d="m216,465v0c0,22 18,40 40,40s40,-18 40,-40c0,-0 0,-0 0,-0z" stroke="#000000" stroke-width="12.0" id="path_0"/><path fill="#618baa" d="m294,465h-75c-12,0 -22,-10 -22,-22 0,-12 10,-22 22,-22h75c12,0 22,10 22,22 0,12 -10,22 -22,22z" stroke="#000000" stroke-width="12.0" id="path_1"/><path fill="#618baa" d="m294,420h-75c-12,0 -22,-10 -22,-22 0,-12 10,-22 22,-22h75c12,0 22,10 22,22 0,12 -10,22 -22,22z" stroke="#000000" stroke-width="12.0" id="path_2"/><path fill="#ffe177" d="m393,194c0,-74 -60,-135 -134,-136 -74,-0 -135,58 -138,131 -1,46 19,87 53,113 14,11 23,28 23,47 0,14 11,26 26,25h68c14,0 26,-11 26,-25v-0c0,-18 8,-36 23,-47 32,-25 52,-64 52,-107z" stroke="#000000" stroke-width="12.0" id="path_3"/><path fill="none" d="M292,368v-142h16c17,0 31,-14 31,-31s-14,-31 -31,-31h-0c-17,0 -31,14 -31,31v16h-40v-16c0,-17 -14,-31 -31,-31h-0c-17,0 -31,14 -31,31s14,31 31,31h16v142" stroke-linecap="round" stroke="#000000" stroke-width="12.0" id="path_4"/><path fill="none" d="M256,36v-21M140,84l-14,-14M387,330l-14,-14M92,200h-21M441,200h-21M125,330l14,-14M372,84l14,-14" stroke-linecap="round" stroke="#000000" stroke-width="12.0" id="path_5"/></svg>