<svg id="vector" xmlns="http://www.w3.org/2000/svg" width="24.0d" height="24.0d" viewBox="0 0 512.0 512.0"><path fill="#aedb81" d="m251.15,368.23h227.16c11.39,-15.8 18.17,-35.15 18.17,-56.11 0,-47.27 -34.12,-86.5 -79.06,-94.58 -5.74,-1.03 -10.11,-5.37 -11.9,-10.91 -7.29,-22.51 -28.38,-38.8 -53.33,-38.8 -6.52,0 -12.77,1.12 -18.59,3.16 -5.19,1.83 -10.93,1.21 -15.21,-2.25 -19.25,-15.58 -43.72,-25 -70.41,-25 -63.78,0 -106.02,53.2 -102.98,117.65 2.84,60.36 45.72,106.8 106.15,106.8z" stroke="#000000" stroke-width="16.0" id="path_0"/><path fill="#95cc81" d="m287.81,337.7c-2.51,-32.01 -25,-59.75 -55.46,-69.73 -13.28,-4.34 -26.03,-4.85 -37.91,-2.78 -5,0.88 -10.32,-0.57 -13.91,-4.25 -20.72,-21.22 -51.16,-32.89 -84.13,-27.81 -41.25,6.36 -74.22,39.96 -79.93,81.31 -2.58,18.69 0.22,36.52 7.06,52.18l260.87,1.6c2.99,-9.53 4.26,-19.83 3.42,-30.52z" stroke="#000000" stroke-width="16.0" id="path_1"/><path fill="none" d="M134,360 l-24-76 M120,330 l-40-10 M178,360 l28-48 M256,276 l28-66 M266,246 l-24-32 M374,360 l-38-104 M354,300 l32-30 M424,364 l18-40" stroke-linecap="round" stroke="#000000" stroke-width="16.0" id="path_2"/></svg>