<svg id="vector" xmlns="http://www.w3.org/2000/svg" width="24.0d" height="24.0d" viewBox="0 0 682.6 682.6"><path fill="#ffe177" d="m595.7,566.7 l-54.7,13.4 -49.2,-199.7c-1.4,-5.7 2,-11.5 7.8,-12.9l34,-8.3c5.7,-1.4 11.5,2 12.9,7.8z" stroke="#000000" stroke-width="20.0" id="path_0"/><path fill="#f9f3f1" d="m413.3,270 l-148.6,148.6 -39.5,-39.5 148.6,-148.6z" stroke="#000000" stroke-width="20.0" id="path_1"/><path fill="#aa9ea9" d="m517.7,68 l-158.9,158.9c-4,4 -4,10.9 0,15l53.9,53.9c4,4 10.9,4 15,-0l32.6,-32.6c4,-4 4,-10.9 0,-15l-3.7,-3.7c-4,-4 -4,-10.9 0,-15l111.2,-111.2c6.2,-6.2 6.2,-16.3 0,-22.6L540.4,68C534,61.8 524,61.8 517.7,68" stroke="#000000" stroke-width="20.0" id="path_2"/><path fill="#ffe177" d="m481.7,360.3l-341.5,-0c-29.4,-0 -53.3,23.8 -53.3,53.3L86.8,576.6L492.4,576.6L492.4,370.9C492.4,365 487.6,360.3 481.7,360.3" stroke="#000000" stroke-width="20.0" id="path_3"/><path fill="#f9f3f1" d="m643.8,619.3l-604.9,-0c-6.4,-0 -12.2,-3.8 -14.7,-9.7l-12.6,-29.8c-4.4,-10.5 3.2,-22.2 14.7,-22.2L656.4,557.4c11.4,-0 19.2,11.7 14.7,22.2L658.5,609.5C656,615.4 650.2,619.3 643.8,619.3" stroke="#000000" stroke-width="20.0" id="path_4"/></svg>