<svg id="vector" xmlns="http://www.w3.org/2000/svg" width="24.0d" height="24.0d" viewBox="0 0 512.0 512.0"><path fill="#fc5e71" d="M426,56c-87,35 -155,191 -155,191v26c0,0 0,0 0,0c-0,-0 -0,-0 -0,-0s-24,89 51,159c75,69 162,-5 152,-99c-5,-52 -41,-67 -41,-67h-0c27,-7 50,-19 58,-38C516,162 513,20 426,56z" stroke="#000000" stroke-width="12.0" id="path_0"/><path fill="#fd747f" d="M270,274c0,0 33,3 74,2c29,-0 61,-3 86,-10c0,0 0,0 0,-0c0,0 35,15 41,67c10,94 -76,169 -152,99S270,274 270,274z" stroke="#000000" stroke-width="12.0" id="path_1"/><path fill="#fc5e71" d="M86,56c87,35 155,191 155,191v26c0,0 -0,0 -0,0c0,-0 0,-0 0,-0s24,89 -51,159c-75,69 -162,-5 -152,-99c5,-52 41,-67 41,-67h0c-27,-7 -50,-19 -58,-38C-4,162 -1,20 86,56z" stroke="#000000" stroke-width="12.0" id="path_2"/><path fill="#fd747f" d="M241,274c0,0 -33,3 -74,2c-29,-0 -61,-3 -86,-10c-0,0 -0,0 -0,-0c-0,0 -35,15 -41,67c-10,94 76,169 152,99S241,274 241,274z" stroke="#000000" stroke-width="12.0" id="path_3"/><path fill="#ffc855" d="M272,264c0,-41 -7,-75 -16,-76v-0c-0,0 -0,0 -0,0c-0,-0 -0,-0 -0,-0v0c-8,1 -16,34 -16,76c0,41 7,139 16,141v0c0,0 0,-0 0,-0c0,0 0,0 0,0v-0C265,403 272,306 272,264z" stroke="#000000" stroke-width="12.0" id="path_4"/><path fill="#ffc855" d="M241,199a14,8 0,1 0,29 0a14,8 0,1 0,-29 0z" stroke="#000000" stroke-width="12.0" id="path_5"/><path fill="none" d="M248,189v-40l-20-40 M264,189v-40l20-40" stroke-linecap="round" stroke="#000000" stroke-width="8.0" id="path_6"/></svg>