<svg id="vector" xmlns="http://www.w3.org/2000/svg" width="24.0d" height="24.0d" viewBox="0 0 512.0 512.0"><path fill="#9b786f" d="m492,452c2,-4 65,-159 -45,-270 -64,-64 -143,-70 -198,-63 -7,0 -13,7 -13,15l6,299c0,5 2,9 6,12 42,28 89,36 128,36 58,-0 103,-18 107,-20 0,-0 0,-0 0,-0l0,-0c0,-0 0,-0 0,-0 0,-0 0,-0 0,-0 3,-1 6,-4 7,-7 0,-0 0,-0 0,-0 0,-0 0,-0 0,-0z" id="path_0"/><path fill="#5a344b" d="m266,189c41,16 78,39 105,66 45,45 68,103 80,144l-185,-184zM267,258 L431,421c-45,-13 -115,-41 -162,-99zM425,203c59,59 61,131 54,181 -13,-43 -38,-102 -86,-149 -33,-33 -77,-59 -127,-78l-0,-10c46,-3 109,5 160,56zM271,423 L270,366c46,44 102,68 144,81 -39,5 -94,5 -143,-24z" id="path_1"/><path fill="#97de3d" d="m166,90h-53c-47,0 -90,-26 -111,-68 -2,-4 -2,-10 0,-14s7,-7 12,-7h54c47,0 89,26 110,68 2,4 2,10 -0,14s-7,7 -12,7z" id="path_2"/><path fill="#704c55" d="m226,0c-24,0 -46,12 -60,30 -9,12 -15,27 -15,44 0,8 6,15 15,15s15,-6 15,-15c0,-24 20,-45 45,-45 8,0 15,-6 15,-15s-6,-15 -15,-15z" id="path_3"/><path fill="#5a344b" d="m181,75c0,-24 20,-45 45,-45 8,0 15,-6 15,-15s-6,-15 -15,-15c-24,0 -46,12 -60,30v59c8,0 15,-6 15,-15z" id="path_4"/><path fill="#9b786f" d="m171,61c-1,-0 -3,-1 -5,-1s-3,0 -5,1c-6,2 -160,66 -160,225s154,222 160,225c1,0 3,1 5,1s3,-0 5,-1c6,-2 159,-66 159,-225s-153,-222 -159,-225z" id="path_5"/><path fill="#704c55" d="m331,286c0,-158 -153,-222 -159,-225 -1,-0 -3,-1 -5,-1v452c1,0 3,-0 5,-1 6,-2 159,-66 159,-225z" id="path_6"/><path fill="#704c55" d="m189,103 l-15,-9c-2,-1 -5,-2 -7,-2 -2,-0 -5,0 -7,2l-15,9c-41,25 -112,83 -112,182 0,99 71,156 112,181l15,10c2,1 5,2 7,2 0,0 0,0 0,0 2,0 5,-0 7,-2l15,-10c41,-25 111,-82 111,-181 0,-99 -70,-157 -111,-182z" id="path_7"/><path fill="#5a344b" d="m174,477 l15,-10c41,-25 111,-82 111,-181 0,-99 -70,-157 -111,-182l-15,-9c-2,-1 -5,-2 -7,-2v387c0,0 0,0 0,0 2,-0 5,-0 7,-2z" id="path_8"/><path fill="#ffe5b3" d="m69,236c2,-6 7,-10 14,-10h53c8,0 15,6 15,15v15c0,8 -6,15 -15,15h-56c-9,0 -16,-8 -14,-17 0,-4 1,-9 4,-16z" id="path_9"/><path fill="#cc9999" d="m267,253c1,9 -5,17 -14,17h-56c-8,0 -15,-6 -15,-15v-15c0,-8 6,-15 15,-15h52c6,0 12,4 14,10 2,7 3,12 4,16z" id="path_10"/><path fill="#ffe5b3" d="m65,318c-1,-9 5,-17 14,-17h56c8,0 15,6 15,15v15c0,8 -6,15 -15,15h-52c-6,0 -12,-4 -14,-10 -2,-7 -3,-12 -4,-16z" id="path_11"/><path fill="#cc9999" d="m181,316c0,-8 6,-15 15,-15h56c9,0 16,8 14,17 -0,4 -1,9 -4,16 -2,6 -7,10 -14,10h-53c-8,0 -15,-6 -15,-15v-15z" id="path_12"/><path fill="#cc9999" d="m223,170c4,4 5,10 2,16s-7,9 -13,9h-16c-8,0 -15,-6 -15,-15v-16c0,-5 3,-11 8,-13s11,-1 16,2c6,5 12,10 17,17z" id="path_13"/><path fill="#ffe5b3" d="m126,153c4,-3 10,-4 16,-2 5,2 8,7 8,13v16c0,8 -6,15 -15,15h-16c-5,0 -11,-3 -13,-9s-1,-11 2,-16c5,-6 12,-12 18,-17z" id="path_14"/><path fill="#ffe5b3" d="m108,401c-4,-4 -5,-10 -2,-16s7,-9 13,-9h16c8,0 15,6 15,15v16c0,5 -3,11 -8,13s-11,1 -16,-2c-6,-5 -12,-10 -17,-17z" id="path_15"/><path fill="#cc9999" d="m206,418c-4,3 -10,4 -16,2s-8,-7 -8,-13v-16c0,-8 6,-15 15,-15h16c5,0 11,3 13,9s1,11 -2,16c-5,6 -12,12 -18,17z" id="path_16"/></svg>