<svg id="vector" xmlns="http://www.w3.org/2000/svg" width="24.0d" height="24.0d" viewBox="0 0 512.0 512.0"><path fill="#96c133" d="M477,406l-53,31l-26,57l-74,-7l36,-80l-9,-88c-2,-19 11,-37 31,-39c19,-2 37,11 39,31l1,15l3,27l16,-9c17,-9 38,-4 48,12C499,375 493,396 477,406z" stroke-linejoin="round" stroke="#000000" stroke-width="12.0" id="path_0"/><path fill="#499421" d="M137,278l-82,-2c-19,-0 -35,-17 -34,-36c0,-3 0,-5 1,-8c4,-15 18,-26 35,-25l57,1l16,52L137,278z M369,110l76,-33c18,-7 38,0 46,18c7,18 -0,38 -18,46l-115,49" stroke="#000000" stroke-width="12.0" id="path_1"/><path fill="#96c133" d="M247,89l-66,52l6,86l50,54l-23,45l-11,21l-76,-82c-5,-5 -8,-13 -9,-21l-8,-102L28,71c-14,-12 -16,-34 -3,-49c0,-0 0,-0 0,-0C38,6 60,5 75,18l70,61l58,-45c15,-12 37,-9 49,5C265,55 262,77 247,89z" stroke-linejoin="round" stroke="#000000" stroke-width="12.0" id="path_2"/><path fill="#96c133" d="M240,472c-19,0 -35,-15 -35,-35V335c0,-8 3,-16 8,-22l69,-82l22,-169c2,-19 20,-33 39,-30c19,2 33,20 30,39l-23,179c-0,6 -3,13 -8,18l-67,80v88C275,456 259,472 240,472z" stroke="#000000" stroke-width="12.0" id="path_3"/><path fill="none" d="M94,32 l2,-10 M108,42 l8,-5 M188,42 l-8,-15 M318,32 l-8,-12 M338,28 l4,-12 " stroke-linecap="round" stroke="#000000" stroke-width="12.0" id="path_4"/><path fill="none" d="M125,107 l12,15 M367,319 l6,15 M164,100 l-6,15 M157,241 l9,9 M179,258 l4,-7 M324,105 l-4,-9 M339,114 l4,-8 M427,108l-9,9 M417,135 l16,0 M274,299 l-9,9 M233,328 l0,-12 M68,32 l0,5 M38,44 l8,8 M385,322 l0,-12" stroke-linecap="round" stroke="#000000" stroke-width="12.0" id="path_5"/><path fill="#e58b25" d="M0,576 a64,128 90, 1 1,  512 0 a64,128 90, 1 1, -512 0z" stroke="#000000" stroke-width="12.0" id="path_6"/></svg>