<svg id="vector" xmlns="http://www.w3.org/2000/svg" width="24.0d" height="24.0d" viewBox="0 0 512.0 512.0"><path fill="#ff7038" d="m397,197 l20,315c1,0 3,-0 5,-1 0,-0 1,-0 1,-0 8,-2 30,-7 50,-23 25,-20 38,-51 38,-90v-200z" id="path_0"/><path fill="#ffde46" d="m0,197v160c0,6 4,12 10,14l402,140c1,0 3,0 5,0h0v-315z" id="path_1"/><path fill="#ff9d21" d="m237,450 l175,61c1,0 3,0 5,0h0v-315h-180z" id="path_2"/><path fill="#f5f0eb" d="m0,287 l417,145v-31l-417,-145z" id="path_3"/><path fill="#ebe1dc" d="m237,370 l180,62v-31l-180,-62z" id="path_4"/><path fill="#ffef7b" d="m424,44c-3,-2 -8,-2 -12,-1 -20,7 -98,34 -181,63 -94,32 -192,66 -220,76 -6,2 -10,7 -10,14s4,12 10,14l262,91v74c0,19 15,35 35,35 19,0 35,-15 35,-35v-50l70,24c4,1 8,1 12,-1 3,-2 87,-52 87,-153 0,-4 -1,-102 -87,-153z" id="path_5"/><path fill="#ffde46" d="m424,44c-3,-2 -8,-2 -12,-1 -19,7 -94,33 -175,60v186l35,12v74c0,19 15,35 35,35s35,-15 35,-35v-50l70,24c4,1 8,1 12,-1 3,-2 87,-52 87,-153 0,-4 -1,-102 -87,-153z" id="path_6"/><path fill="none" d="M412,132h0M432,202h0M382,262h0M352,192h0" stroke-linecap="round" stroke="#ff9d21" stroke-width="24.0" id="path_7"/><path fill="#beda4b" d="m237,90c-8,0 -15,-6 -15,-15 0,-19 -10,-36 -27,-44l-4,-2c-7,-3 -10,-12 -6,-20 3,-7 12,-10 20,-6l4,2c27,13 44,41 44,71 0,8 -6,15 -15,15z" id="path_8"/><path fill="#14cd6e" d="m237,90c8,0 15,-6 15,-15 0,-17 -5,-33 -15,-46z" id="path_9"/><path fill="#ff4169" d="m237,190c-35,0 -65,-29 -65,-65s29,-65 65,-65 65,29 65,65 -29,65 -65,65z" id="path_10"/><path fill="#cf3160" d="m302,125c0,-35 -29,-65 -65,-65v130c35,0 65,-29 65,-65z" id="path_11"/></svg>