<svg id="vector" xmlns="http://www.w3.org/2000/svg" width="24.0d" height="24.0d" viewBox="0 0 512.0 512.0"><path fill="#cdbfba" d="m448,503h-385c-16,0 -30,-13 -30,-30v-41l445,-81v122c0,16 -13,30 -30,30z" stroke="#000000" stroke-width="8.0" id="path_0"/><path fill="#f9f3f1" d="m367,473h-304c-16,0 -30,-13 -30,-30v-372c0,-16 13,-30 30,-30h385c16,0 30,13 30,30v291c0,8 -18,15 -23,21l-66,66c-5,5 -13,23 -21,23z" stroke="#000000" stroke-width="8.0" id="path_1"/><path fill="#efe2dd" d="m331,473h23c13,0 24,-11 24,-24v-50c0,-13 11,-24 24,-24h50c13,0 24,-11 24,-24v-31,43c0,8 -3,15 -8,21l-81,81c-5,5 -13,8 -21,8h-36z" stroke="#000000" stroke-width="8.0" id="path_2"/><path fill="#fece85" d="m478,70v77h-445v-77c0,-16 13,-30 30,-30h385c16,0 30,13 30,30z" stroke="#000000" stroke-width="8.0" id="path_3"/><path fill="#fedba6" d="M121,243h-35v-35h35v35zM222,243h-35v-35h35v35zM324,243h-35v-35h35v35zM426,243h-35v-35h35v35zM121,336h-35v-35h35v35zM222,336h-35v-35h35v35zM324,336h-35v-35h35v35zM426,338h-35v-35h35v35zM121,429h-35v-35h35v35zM222,429h-35v-35h35v35zM324,429h-35v-35h35v35z" stroke-linejoin="round" stroke="#000000" stroke-width="8.0" id="path_4"/><path fill="#554e56" d="m125,41v-19c0,-4 -3,-7 -7,-7h-3c-4,0 -7,3 -7,7v48c0,4 3,7 7,7 4,0 7,3 7,7s-3,7 -7,7c-12,0 -22,-10 -22,-22v-48c0,-12 10,-22 22,-22h3c12,0 22,10 22,22v19z" id="path_5"/><path fill="#554e56" d="m398,41v-19c0,-4 -3,-7 -7,-7h-3c-4,0 -7,3 -7,7v48c0,4 3,7 7,7 4,0 7,3 7,7s-3,7 -7,7c-12,0 -22,-10 -22,-22v-48c0,-12 10,-22 22,-22h3c12,0 22,10 22,22v19z" id="path_6"/></svg>