<svg id="vector" xmlns="http://www.w3.org/2000/svg" width="24.0d" height="24.0d" viewBox="0 0 512.0 512.0"><path fill="#e6a078" d="M430,224l-62,16c0,0 34,74 32,104c-2,40 -24,88 -24,88h-4c-7,0 -13,4 -15,11l-2,6c-1,3 1,6 4,6h30c2,0 3,-1 4,-3l38,-93L430,224z" stroke="#000000" stroke-width="12.0" id="path_0"/><path fill="#e6a078" d="M252,443l-2,6c-1,3 1,6 4,6h36c2,0 5,-2 4,-5l-7,-92l-26,-94l-36,4c26,65 46,164 46,164h-4C260,432 254,437 252,443z" stroke="#000000" stroke-width="12.0" id="path_1"/><path fill="#ffc88c" d="M477,320c-3,-5 -5,-11 -5,-17v-86c0,-46 -51,-69 -76,-91c-29,-26 -46,-59 -79,-59c-25,0 -29,22 -45,36c-25,22 -43,31 -67,48c-15,10 -22,23 -26,33c-3,9 -12,16 -22,16h-4c-17,0 -32,-14 -32,-32V55H81c-6,0 -12,2 -17,7l-9,9l-28,4C16,78 7,88 7,100v3c0,4 3,8 8,8h63v69c0,44 45,86 112,86c4,0 8,3 8,7v156h-4c-7,0 -13,4 -15,11l-1,3c-1,5 2,10 7,10h30c4,0 7,-3 7,-7l12,-167c42,-0 114,-9 164,-44l4,19c2,10 6,20 11,29l40,74v72h-4c-7,0 -13,4 -15,11l-1,3c-1,5 2,10 7,10h30c4,0 7,-3 7,-7l7,-107c0,-3 -0,-6 -2,-9L477,320z" stroke="#000000" stroke-width="12.0" id="path_2"/><path fill="#000000" d="M77,73c-4,0 -7,3 -7,7s3,7 7,7h3c4,0 7,-3 7,-7s-3,-7 -7,-7H77z" id="path_3"/></svg>