<svg id="vector" xmlns="http://www.w3.org/2000/svg" width="24.0d" height="24.0d" viewBox="0 0 512.0 512.0"><path fill="#3ec3a4" d="m497,26v79l-25,267 -114,124h-79l-277,-282v-135l419,-78h51c14,0 26,11 26,26z" id="path_0"/><path fill="#0bb494" d="m66,219c-1,0 -2,-0 -4,-1 -3,-2 -4,-6 -2,-10l68,-112c2,-3 6,-4 10,-2 3,2 4,6 2,10l-68,112c-1,2 -3,3 -6,3z" id="path_1"/><path fill="#0bb494" d="m497,26v79l-25,266v-346c0,-14 -11,-26 -26,-26h25c14,0 26,11 26,26z" id="path_2"/><path fill="#00a887" d="m419,0v159h-138c-17,0 -32,-9 -40,-25l-41,-86 117,-48z" id="path_3"/><path fill="#9b5e5e" d="m497,391v79c0,14 -11,26 -26,26h-113l15,-46c5,-15 15,-27 28,-35l53,-32 17,-2 10,-1z" id="path_4"/><path fill="#855151" d="m497,391v79c0,14 -11,26 -26,26h-25c14,0 26,-11 26,-26v-90l10,-1z" id="path_5"/><path fill="#0bb494" d="m277,326v170h-251c-14,0 -26,-11 -26,-26v-144l49,-62 76,-15 77,39 21,10z" id="path_6"/><path fill="#00a887" d="m497,233v157l-25,-4 -17,-3 -176,-32 -22,-4c-22,-4 -36,-26 -31,-48l12,-49c2,-11 12,-20 24,-21l94,-8c14,-1 25,-13 25,-27v-33l74,28 17,18z" id="path_7"/><path fill="#00997c" d="m497,233v157l-25,-4v-180z" id="path_8"/><path fill="#9b5e5e" d="m316,0v15c0,17 -14,32 -32,32h-66c-12,0 -23,5 -30,15l-22,30c-7,10 -20,15 -32,12l-132,-27v-52c0,-14 11,-26 26,-26z" id="path_9"/><path fill="#6bd9e7" d="m237,402 l-4,11 -5,13c-0,0 -0,0 -0,1 -5,11 -16,19 -29,19h-45v-53h79c4,0 6,4 5,7z" id="path_10"/><path fill="#6bd9e7" d="m79,447h45v-53h-79c-4,0 -6,4 -5,7l9,25c4,12 16,20 29,20z" id="path_11"/><path fill="#6bd9e7" d="m125,394v53h-45c-12,0 -24,-7 -29,-19 -0,-0 -0,-0 -0,-1l-5,-13 -4,-11c-1,-3 1,-7 5,-7z" id="path_12"/><path fill="#6c7fd8" d="M138,420m-38,0a38,38 0,1 1,76 0a38,38 0,1 1,-76 0" id="path_13"/><path fill="#bbf49b" d="m125,248 l-125,77v-112l81,-25c17,-5 35,5 38,23z" id="path_14"/><path fill="#bbf49b" d="m497,105v127l-117,-73v-12c0,-13 10,-25 23,-27l15,-2z" id="path_15"/><path fill="#9be69d" d="m471,109v107l25,15v-127z" id="path_16"/></svg>