<svg id="vector" xmlns="http://www.w3.org/2000/svg" width="24.0d" height="24.0d" viewBox="0 0 512.0 512.0"><path fill="#cc98e8" d="m475,114c-19,-19 -13,-25 -32,-44 -19,-19 -25,-13 -44,-32 -14,-14 -14,-21 -22,-33 -3,-4 -10,-5 -13,-1 -36,47 -22,126 -22,126l1,22 19,19 22,1s79,14 126,-22c4,-3 3,-10 -1,-13 -11,-8 -18,-7 -33,-22z" id="path_0"/><path fill="#cc98e8" d="m114,475c-19,-19 -25,-13 -44,-32 -19,-19 -13,-25 -32,-44 -14,-14 -21,-14 -33,-22 -4,-3 -5,-10 -1,-13 47,-36 126,-22 126,-22l22,1 19,19 1,22s14,79 -22,126c-3,4 -10,3 -13,-1 -8,-11 -7,-18 -22,-33z" id="path_1"/><path fill="#ff94d4" d="m362,149c-59,-59 -154,-59 -213,0 -59,59 -59,154 0,213 59,59 154,59 213,0 59,-59 59,-154 0,-213z" id="path_2"/><path fill="#ff73c6" d="M149,362c4,4 9,8 13,12v-237c-4,3 -9,7 -13,12 -59,59 -59,154 0,213zM349,137v237c4,-3 9,-7 13,-12 59,-59 59,-154 0,-213 -4,-4 -8,-8 -13,-12zM225,108v295c20,4 41,4 62,-0v-295c-20,-4 -41,-4 -62,-0z" id="path_3"/></svg>