<svg id="vector" xmlns="http://www.w3.org/2000/svg" width="24.0d" height="24.0d" viewBox="0 0 512.0 512.0"><path fill="#ff8086" d="m493,247c-13,-9 -42,-23 -94,-22h-8l-102,-47c-11,-5 -24,-8 -37,-8h-89c-7,0 -15,1 -22,4l-92,39c-6,2 -12,3 -19,3h-6c-8,0 -16,7 -16,16v50c0,7 5,14 13,15l75,13v8h392c8,0 16,-7 16,-16v-37c0,-7 -3,-15 -10,-19z" stroke="#000000" stroke-width="12.0" id="path_0"/><path fill="#5d5360" d="M471,304c0,22 -18,40 -40,40s-40,-18 -40,-40c0,-22 18,-40 40,-40s40,18 40,40zM134,304c0,22 -18,40 -40,40s-40,-18 -40,-40c0,-22 18,-40 40,-40s40,18 40,40z" stroke="#000000" stroke-width="12.0" id="path_1"/><path fill="#a4ccff" d="m199,215c4,5 11,8 18,8h173l-102,-47c-8,-4 -17,-6 -27,-7h-102z" stroke="#000000" stroke-width="12.0" id="path_2"/><path fill="none" d="M94,304h0M431,304h0" stroke-linecap="round" stroke="#000000" stroke-width="32.0" id="path_3"/></svg>