<svg id="vector" xmlns="http://www.w3.org/2000/svg" width="24.0d" height="24.0d" viewBox="0 0 512.0 512.0"><path fill="#afaab4" d="m303,88c56,0 104,38 118,90 1,5 5,9 11,10 45,10 78,51 78,99 0,56 -45,102 -102,102 -15,0 -31,-3 -45,-10 -5,-2 -12,-1 -17,2 -25,25 -60,40 -97,40 -41,0 -78,-18 -104,-47 -4,-5 -11,-6 -17,-3 -11,5 -24,8 -37,8 -49,0 -90,-40 -90,-90 0,-37 23,-70 56,-83 5,-2 8,-6 9,-12 5,-45 43,-80 89,-80 16,0 31,4 44,11 5,3 13,2 18,-2 22,-22 53,-35 85,-35z" id="path_0"/><path fill="#8b818e" d="m433,189c-5,-1 -9,-5 -11,-10 -14,-52 -62,-90 -118,-90 -6,0 -11,0 -17,1 46,6 84,39 98,82 3,9 10,16 20,19 41,13 71,51 71,97 0,50 -36,92 -84,100 5,1 11,1 17,1 56,0 102,-45 102,-102 0,-48 -33,-88 -78,-99z" id="path_1"/><path fill="#8b818e" d="m307,387c-20,19 -47,31 -75,35 5,0 11,1 17,1 35,0 69,-14 94,-37 -3,-1 -6,-2 -9,-3 -9,-4 -19,-2 -27,4z" id="path_2"/><path fill="#544f57" d="m216,283c1,3 0,7 -2,9 -6,3 -13,5 -20,5 -23,0 -42,-19 -42,-42s19,-42 42,-42c7,0 14,1 20,5 3,2 4,6 2,9 -2,3 -6,4 -9,2 -4,-2 -8,-3 -13,-3 -15,0 -28,12 -28,28s12,28 28,28c4,0 9,-1 13,-3 3,-1 7,-0 9,2z" id="path_3"/><path fill="#544f57" d="m220,256c0,-23 18,-42 40,-42s40,19 40,42 -18,42 -40,42 -40,-19 -40,-42zM234,256c0,15 11,28 26,28 14,0 26,-12 26,-28s-11,-28 -26,-28c-14,0 -26,12 -26,28z" id="path_4"/><path fill="#544f57" d="m318,298c-4,0 -7,-3 -7,-7 0,-1 0,-26 25,-38 9,-4 10,-10 10,-12v-1c0,-6 -4,-10 -10,-10s-10,4 -10,10c0,4 -3,7 -7,7 -4,0 -7,-3 -7,-7 0,-13 11,-25 25,-25 13,0 24,11 25,24v1c0,4 -1,17 -18,25 -10,5 -14,12 -16,18h27c4,0 7,3 7,7 0,4 -3,7 -7,7z" id="path_5"/></svg>