<svg id="vector" xmlns="http://www.w3.org/2000/svg" width="24.0d" height="24.0d" viewBox="0 0 512.0 512.0"><path fill="#c1e649" d="m10,10h492v492h-492z" stroke="#000000" stroke-width="12.0" id="path_0"/><path fill="#daf092" d="m418,458h-325c-21,0 -39,-17 -39,-39v-325c0,-21 17,-39 39,-39h325c21,0 39,17 39,39v325c0,21 -17,39 -39,39z" stroke="#000000" stroke-width="12.0" id="path_1"/><path fill="#000000" d="m256,194c18,0 33,-15 33,-33 0,-18 -15,-33 -33,-33 -0,0 -1,0 -2,0 6,-9 13,-15 13,-15 4,-3 5,-9 2,-14 -3,-4 -9,-5 -14,-2 -1,0 -28,21 -32,59 -0,1 -0,3 -0,5 0,18 15,33 33,33zM269,160c0,7 -6,13 -13,13s-13,-6 -13,-13 6,-13 13,-13 13,6 13,12z" id="path_2"/><path fill="#000000" d="m270,396c18,0 35,-6 48,-17 2,-2 5,-4 7,-7 3,-4 3,-10 -1,-14s-10,-3 -14,1c-1,2 -3,3 -5,5 -9,8 -21,12 -35,12 -36,0 -66,-29 -66,-66s29,-66 66,-66c13,0 26,3 36,11 4,3 10,1 13,-2 3,-4 1,-10 -2,-13 -14,-9 -30,-14 -48,-14 -47,0 -86,38 -86,86s38,86 86,84z" id="path_3"/></svg>