<svg id="vector" xmlns="http://www.w3.org/2000/svg" width="24.0d" height="24.0d" viewBox="0 0 512.0 512.0"><path fill="#d9b089" d="m494,235v202l-41,40v-202z" stroke-linejoin="round" stroke="#000000" stroke-width="12.0" id="path_0"/><path fill="#f8d3ac" d="m494,235 l-41,40h-44v-0l40,-40z" stroke-linejoin="round" stroke="#000000" stroke-width="12.0" id="path_1"/><path fill="#ebc59d" d="m236,277h218v202h-218z" stroke-linejoin="round" stroke="#000000" stroke-width="12.0" id="path_2"/><path fill="#967669" d="m449,235 l-40,40v-202l41,-40v202z" stroke-linejoin="round" stroke="#000000" stroke-width="12.0" id="path_3"/><path fill="#af8977" d="m192,74 l-1,0v202h219v-0,-202z" stroke-linejoin="round" stroke="#000000" stroke-width="12.0" id="path_4"/><path fill="#7f5d4a" d="m17,277h219v202h-219z" stroke-linejoin="round" stroke="#000000" stroke-width="12.0" id="path_5"/><path fill="#c79a83" d="m341,33 l-41,40h109l41,-41z" stroke-linejoin="round" stroke="#000000" stroke-width="12.0" id="path_6"/><path fill="#e1b7a3" d="m232,33 l-40,40h108l41,-41z" stroke-linejoin="round" stroke="#000000" stroke-width="12.0" id="path_7"/><path fill="#926d56" d="m191,236h-24l-41,40h65v-41z" stroke-linejoin="round" stroke="#000000" stroke-width="12.0" id="path_8"/><path fill="#a07b67" d="m57,236 l-41,40h109l41,-41z" stroke-linejoin="round" stroke="#000000" stroke-width="12.0" id="path_9"/><path fill="#cae6ee" d="M314,276v0,37h61v-37,-0zM269,73v0,37h61v-37,-0zM95,276v0,37h61v-37,-0z" stroke-linejoin="round" stroke="#000000" stroke-width="12.0" id="path_10"/><path fill="#d8ff33" d="m374,479v0h-57v-0,-55l9,9 9,-9 9,9 9,-9 9,9 9,-9z" stroke-linejoin="round" stroke="#000000" stroke-width="12.0" id="path_11"/><path fill="#fb6771" d="m319,231 l-9,-9 -9,9 -9,-9 -9,9 -9,-9v55h57v-55z" stroke-linejoin="round" stroke="#000000" stroke-width="12.0" id="path_12"/><path fill="#5fa8ed" d="m154,479v0h-57v-0,-55l9,9 9,-9 9,9 9,-9 9,9 9,-9z" id="path_13"/></svg>