<svg id="vector" xmlns="http://www.w3.org/2000/svg" width="24.0d" height="24.0d" viewBox="0 0 512.0 512.0"><path fill="#c2bce0" d="m196,225.3h120v133.4h-120z" stroke="#000000" stroke-width="12.0" id="path_0"/><path fill="#dedbee" d="m332,235.3c3,0 5.6,-2.5 5.6,-5.6v-43.4c0,-3 -2.5,-5.6 -5.6,-5.6 -50.7,0 -101.5,0 -152,0 -3,0 -5.6,2.5 -5.6,5.6v43.4c0,3 2.5,5.6 5.6,5.6z" stroke="#000000" stroke-width="12.0" id="path_1"/><path fill="#dedbee" d="m158,325.8h-50.7v170.6h107l44,-30.7 37.4,30.7h108.7v-170.6h-52.4v22.9h-37,-120 -36.8z" stroke="#000000" stroke-width="12.0" id="path_2"/><path fill="#fec165" d="M262,180 l45,-0 -51,-99 -51,99z M112,246 l-40,-78 -40,78 44,17.5z M446,262.7 l34,-16.4 -40,-78 -40,78z" stroke="#000000" stroke-width="12.0" id="path_3"/><path fill="#eb5569" d="M256,15.6v48.3l59.6,-27zM72,150.8 l59.6,-27 -59.6,-21zM440,102.4v48.3l59.6,-27z" id="path_4"/><path fill="#bc7c63" d="m296.7,439.6c0,-22 -18,-40.6 -40.6,-40.6 -22,0 -40.6,18 -40.6,40.6v56.8h81.3v-56.8z" stroke="#000000" stroke-width="12.0" id="path_5"/><path fill="#d2cfe9" d="m371.6,325.8v170.6h21l11.7,-85 -11.7,-85z" stroke="#000000" stroke-width="12.0" id="path_6"/><path fill="#c2bce0" d="M119,279.3h-94.5v217h94.5v-170.6z M393,325.8v170.6h94.5v-217h-94.5z" stroke="#000000" stroke-width="12.0" id="path_7"/><path fill="#0681af" d="M235.8,316.3h40.3v-28c0,-11 -9,-20 -20,-20s-20,9 -20,20v28zM89,373.8c0,-9.5 -7.8,-17 -17,-17.3s-17,7.8 -17,17.3v24h34.7v-24zM457.6,373.8c0,-9.5 -7.8,-17 -17,-17 -9.5,0 -17,7.8 -17,17.3v24h34.7v-24z" stroke-linejoin="round" stroke="#000000" stroke-width="12.0" id="path_8"/><path fill="#dedbee" d="M12,246v44h119.8v-44z M500,289v-44h-119.8v44z" stroke-linejoin="round" stroke="#000000" stroke-width="12.0" id="path_9"/></svg>