<svg id="vector" xmlns="http://www.w3.org/2000/svg" width="24.0d" height="24.0d" viewBox="0 0 512.0 512.0"><path fill="#81808c" d="M503.5,445.7l-21.7,-58.1C472.3,362.5 448.4,346 421.6,346h-30l67.8,120h30C500,466 507.2,455.5 503.5,445.7z" id="path_0"/><path fill="#81808c" d="M256,346l-165.6,0l67.8,120l30,0z" id="path_1"/><path fill="#9295a1" d="M473.5,445.7l-21.7,-58.1C442.3,362.5 418.4,346 391.6,346H256l67.8,120h135.6C469.9,466 477.2,455.5 473.5,445.7z" id="path_2"/><path fill="#81808c" d="M503.5,295.7l-21.7,-58.1C472.3,212.5 448.4,196 421.6,196h-30l67.8,120h30C500,316 507.2,305.5 503.5,295.7z" id="path_3"/><path fill="#81808c" d="M256,196l-165.6,0l67.8,120l30,0z" id="path_4"/><path fill="#9295a1" d="M473.5,295.7l-21.7,-58.1C442.3,212.5 418.4,196 391.6,196H256l67.8,120h135.6C469.9,316 477.2,305.5 473.5,295.7z" id="path_5"/><path fill="#9295a1" d="M172.2,295.7l-21.7,-58.1C141,212.5 117,196 90.3,196l38.2,120h29.5C168.6,316 175.8,305.5 172.2,295.7z" id="path_6"/><path fill="#9ea5ad" d="M143,297.4l-14.7,-59.7C122.4,212.5 107.2,196 90.3,196c-26.7,0 -50.6,16.5 -60,41.6L8.4,295.7C4.7,305.5 12,316 22.5,316h106C138.3,316 145.4,306.8 143,297.4z" id="path_7"/><path fill="#9ea5ad" d="M337.8,445.7l-21.7,-58.1C306.6,362.5 282.7,346 256,346l38.2,120h29.5C334.2,466 341.5,455.5 337.8,445.7z" id="path_8"/><path fill="#aeb9bf" d="M308.8,447.4l-14.7,-59.7C288,362.5 272.9,346 256,346c-26.7,0 -50.6,16.5 -60,41.6l-21.7,58.1C170.4,455.5 177.7,466 188,466h106C303.9,466 311,456.8 308.8,447.4z" id="path_9"/><path fill="#9295a1" d="M172.2,445.7l-21.7,-58.1C141,362.5 117,346 90.3,346l38.2,120h29.5C168.6,466 175.8,455.5 172.2,445.7z" id="path_10"/><path fill="#9ea5ad" d="M143,447.4l-14.7,-59.7C122.4,362.5 107.2,346 90.3,346c-26.7,0 -50.6,16.5 -60,41.6L8.4,445.7C4.7,455.5 12,466 22.5,466h106C138.3,466 145.4,456.8 143,447.4z" id="path_11"/><path fill="#9295a1" d="M420.7,145.7l-21.7,-58.1C399.5,62.5 335.5,46 308.8,46H183l67.8,120h135.6C427,166 424.3,155.5 420.7,145.7z" id="path_12"/><path fill="#aeb9bf" d="M245.9,147.4l-14.7,-59.7C205.2,62.5 190,46 173,46c-26.7,0 -50.6,16.5 -60,41.6l-21.7,58.1C87.6,155.5 94.8,166 105.3,166h106C261,166 268.2,146.8 255.9,147.4z" id="path_13"/><path fill="#aeb9bf" d="M328.8,297.4l-14.7,-59.7C308,212.5 272.9,196 256,196c-26.7,0 -50.6,16.5 -60,41.6l-21.7,58.1C190.4,325.5 177.7,316 188,316h106C343.9,316 311,306.8 348.8,297.4z" id="path_14"/><path fill="none" d="M323.8,316c10.4,0 17.7,-10.4 14,-20.2l-21.7,-58.1C306.6,212.5 282.7,196 256,196c-26.7,0 -50.6,16.5 -60,41.6l-21.7,58.1C170.4,305.5 177.7,316 188,316" stroke-linecap="round" stroke="#000000" stroke-width="15.0" id="path_15"/><path fill="none" d="M459.4,316h30c10.4,0 17.7,-10.4 14,-20.2l-21.7,-58.1C472.3,212.5 448.4,196 421.6,196H90.3c-26.7,0 -50.6,16.5 -60,41.6L8.4,295.7C4.7,305.5 12,316 22.5,316h406.9" stroke-linecap="round" stroke="#000000" stroke-width="15.0" id="path_16"/><path fill="none" d="M158,316c10.4,0 17.7,-10.4 14,-20.2l-21.7,-58.1C141,212.5 117,196 90.3,196" stroke-linecap="round" stroke="#000000" stroke-width="15.0" id="path_17"/><path fill="none" d="M323.8,466c10.4,0 17.7,-10.4 14,-20.2l-21.7,-58.1C306.6,362.5 282.7,346 256,346c-26.7,0 -50.6,16.5 -60,41.6l-21.7,58.1C170.4,455.5 177.7,466 188,466" stroke-linecap="round" stroke="#000000" stroke-width="15.0" id="path_18"/><path fill="none" d="M503.5,445.7l-21.7,-58.1C472.3,362.5 448.4,346 421.6,346H90.3c-26.7,0 -50.6,16.5 -60,41.6L8.4,445.7C4.7,455.5 12,466 22.5,466h467C500,466 507.2,455.5 503.5,445.7z" stroke-linecap="round" stroke="#000000" stroke-width="15.0" id="path_19"/><path fill="none" d="M158,466c10.4,0 17.7,-10.4 14,-20.2l-21.7,-58.1C141,362.5 117,346 90.3,346 M240.9,166c10.4,0 17.7,-10.4 14,-20.2l-21.7,-58.1C223.8,62.5 199.9,46 173,46" stroke-linecap="round" stroke="#000000" stroke-width="15.0" id="path_20"/><path fill="none" d="M376.6,166h30c10.4,0 17.7,-10.4 14,-20.2l-21.7,-58.1C389.5,62.5 365.5,46 338.8,46H173c-26.7,0 -50.6,16.5 -60,41.6l-21.7,58.1C87.6,155.5 94.8,166 105.3,166h241.3" stroke-linecap="round" stroke="#000000" stroke-width="15.0" id="path_21"/><path fill="none" d="M286,136h0 M383.8,406h0 M368.8,436h0 M421,436h0 M301,106h0" stroke-linecap="round" stroke="#000000" stroke-width="15.0" id="path_22"/><path fill="none" d="M406,226h0 M469.8,286h0 M368.8,286h0 M421,256h0" stroke-linecap="round" stroke="#000000" stroke-width="15.0" id="path_23"/></svg>