<svg id="vector" xmlns="http://www.w3.org/2000/svg" width="24.0d" height="24.0d" viewBox="0 0 512.0 512.0"><path fill="#ffe9c8" d="M80,160l-20-10 M80,186l-20,10 M330,160l20-10 M330,186l20,10" stroke-linecap="round" stroke="#000000" stroke-width="16.0" id="path_0"/><path fill="#ffdca7" d="m375,170.8c1,26 34.5,66 30.6,117.4 -3.4,46 -25,101.7 -69.4,130 0,2.5 0,4.8 0,7 0,28 -14.6,44 -44.5,53 0,-0 158.5,-34.5 158.5,-203.6 0,-172.5 -77,-138 -75.5,-103.8z" stroke="#000000" stroke-width="12.0" id="path_1"/><path fill="#ffe9c8" d="m244,59s21,-53.7 39,-50c18,3.7 14.6,64.4 14.6,64.4s37.6,57.7 36.4,91c-1,33 -22.5,55.4 -43.7,59.4 0,0 46,153.8 46,201.4s-42.6,61.7 -130,61.7c-87.5,0 -130,-14 -130,-61.7s46,-201.4 46,-201.4c-21,-4 -42.5,-26 -43.7,-59.4 -1,-33 36.4,-91 36.4,-91s-3.5,-60.6 14.6,-64.4c18,-3.7 39,50 39,50z" stroke="#000000" stroke-width="12.0" id="path_2"/><path fill="#ffae8b" d="m130,9c-18,3.7 -14.6,64.4 -14.6,64.4s-37.6,57.7 -36.4,91c0.6,17.5 7,32 15.8,42 105.8,-23.6 96.5,-147.8 96.5,-147.8h-22s-21,-53.7 -39,-50z" stroke="#000000" stroke-width="4.0" id="path_3"/><path fill="#ffae8b" d="m283,9c18,3.7 14.6,64.4 14.6,64.4s37.6,57.7 36.4,91c-0.6,17.5 -7,32 -15.8,42 -105.8,-23.6 -96.5,-147.8 -96.5,-147.8h22s21,-53.7 39,-50z" stroke="#000000" stroke-width="4.0" id="path_4"/><path fill="#000000" d="m158,136c0,-10.6 -6.7,-19 -15,-19 -8.5,0 -15,8 -15,19 0,10.6 6.7,19 15,19 8.5,0 15,-8 15,-19z" id="path_5"/><path fill="#000000" d="m284.8,136c0,-10.6 -6.7,-19 -15,-19 -8.5,0 -15,8 -15,19 0,10.6 6.7,19 15,19 8.5,0 15,-8 15,-19z" id="path_6"/><path fill="#000000" d="m206,194c4,0 7.5,-3 7.5,-7.5v-16.8c8.8,-2.5 15.6,-9 15.6,-16 0,-2.6 -1,-9 -10,-11 -3,-0.7 -6.8,-1 -12.7,-1 -5.8,0 -9.7,0 -12.7,1 -9,2 -10,8.5 -10,11 0,7 6.8,13.8 15.6,16.3v16.8c0,4 3,7.5 7.5,7.5z" id="path_7"/><path fill="#ffe9c8" d="M124,310 c33,400 66,40 66,20 M218,326 c33,400 66,0 66,-20" stroke-linecap="round" stroke="#000000" stroke-width="16.0" id="path_8"/></svg>