<svg id="vector" xmlns="http://www.w3.org/2000/svg" width="24.0d" height="24.0d" viewBox="0 0 512.0 512.0"><path fill="#54d195" d="M504,329l-94,16c-5,-8 -15,-15 -26,-17c-20,-3 -40,9 -46,29c-6,-8 -15,-15 -26,-16c-20,-3 -40,9 -46,29c-6,-8 -15,-15 -26,-16c-20,-3 -40,9 -46,29c-6,-8 -15,-15 -26,-16c-21,-3 -41,9 -46,29L7,416c36,-138 173,-228 317,-202C400,227 463,270 504,329z" stroke="#000000" stroke-width="16.0" id="path_0"/><path fill="#f7e3aa" d="M100,324c-20,-1 -35,-19 -33,-40c4,-45 43,-100 99,-108c36,-5 65,11 88,24c17,10 29,16 38,14c27,-4 32,-33 32,-33c1,-20 18,-36 39,-35c20,1 36,18 35,39c-1,36 -32,92 -94,103c-8,1 -16,1 -24,1c-25,-2 -46,-14 -64,-24c-18,-10 -30,-16 -40,-15c-20,3 -35,28 -36,41C139,311 121,326 100,324z" stroke="#000000" stroke-width="12.0" id="path_1"/><path fill="#f7e3aa" d="M337,177m-62,0a62,62 0,1 1,125 0a62,62 0,1 1,-125 0" stroke="#000000" stroke-width="12.0" id="path_2"/><path fill="none" d="M308,194h0M357,194h0 M78,250l60,30 M160,180l14,68 M250,200l-30,62 M302,232l20,50 M382,128l20,-30 M290,128l-20,-30" stroke-linecap="round" stroke="#000000" stroke-width="16.0" id="path_3"/></svg>