<svg id="vector" xmlns="http://www.w3.org/2000/svg" width="24.0d" height="24.0d" viewBox="0 0 512.0 512.0"><path fill="#81b3e6" d="M250,502h50v-40h-40zM250,502M41,502h50v-40h-40zM41,502M140,502h50v-40h-40zM140,502M350,462 l-10,40h50v-40zM350,462" stroke="#000000" stroke-width="16.0" id="path_0"/><path fill="#96786e" d="M350,352h-70l-20,110h40zM350,352M141,322h-70l-20,140h40zM141,322" stroke="#000000" stroke-width="16.0" id="path_1"/><path fill="#fad296" d="M111,191 l-73,-31c-10,-4 -22,0 -26,10 -4,10 0,22 10,26l73,31z" stroke="#000000" stroke-width="16.0" id="path_2"/><path fill="#fabe50" d="m384,248s41,-29 66,-29c26,0 52,16 52,53s-24,115 -9,131c-20,-5 -44,-6 -44,-46s25,-98 -39,-73c-5,-22 -26,-36 -26,-36z" stroke="#000000" stroke-width="16.0" id="path_3"/><path fill="#fad296" d="M150,90h-40c-22,0 -40,18 -40,40v141h120v-141c0,-22 -18,-40 -40,-40z" stroke="#000000" stroke-width="16.0" id="path_4"/><path fill="#96786e" d="m390,429s20,-86 20,-97v-40c0,-33 -26,-60 -60,-60h-160v-31c-39,26 -79,41 -120,42v79c0,23 44,87 70,99l10,40h50l-30,-100c48,14 66,14 112,0 6,25 44,46 67,58v41h50z" stroke="#000000" stroke-width="16.0" id="path_5"/><path fill="#fad296" d="M170,50c0,22 -18,40 -40,40 -22,0 -40,-18 -40,-40s18,-40 40,-40c22,0 40,18 40,40zM160,130v80h-90c-11,0 -20,9 -20,20s9,20 20,20h110c11,0 20,-9 20,-20v-100c0,-11 -9,-20 -20,-20 -11,0 -20,9 -20,20z" stroke="#000000" stroke-width="16.0" id="path_6"/></svg>