<svg id="vector" xmlns="http://www.w3.org/2000/svg" width="24.0d" height="24.0d" viewBox="0 0 512.0 512.0"><path fill="#c68a65" d="m230,214c0,-11 11,-16 26,-16s26,5 26,16 -11,24 -26,24 -26,-13 -26,-24zM369,209s-5,-46 -7,-63 -5,-18 -11,-24 -39,-40 -51,-56c-11,-15 -32,-7 -44,-7s-32,-8 -44,7 -45,50 -51,56 -8,8 -11,24 -7,63 -7,63 -6,24 12,54 30,65 30,65l-8,172h169l-20,-172s11,-35 30,-65c18,-29 12,-54 12,-54z" stroke="#000000" stroke-width="12.0" id="path_0"/><path fill="#6d91ac" d="M256,198c-14,0 -26,5 -26,16s11,24 26,24 26,-13 26,-24c0,-11 -11,-16 -26,-16zM150,386c0,-11 -11,-16 -26,-16s-26,5 -26,16 11,24 26,24c14,-0 26,-13 26,-24zM361,350c0,11 11,24 26,24s26,-13 26,-24c0,-11 -11,-16 -26,-16s-26,5 -26,16z" stroke="#000000" stroke-width="16.0" id="path_1"/><path fill="#d1a184" d="m185,329s-11,-35 -30,-65c-8,-13 -12,-26 -13,-35l-2,0c-5,0 -10,1 -14,1 -11,0 -32,-8 -44,7 -11,15 -45,50 -51,56s-8,8 -11,24 -7,63 -7,63 -6,24 12,54 30,65 30,65h122zM124,370c14,0 26,5 26,16s-11,24 -26,24 -26,-13 -26,-24 11,-16 26,-16z" stroke="#000000" stroke-width="12.0" id="path_2"/><path fill="#d1a184" d="m357,264c-18,29 -30,65 -30,65l20,172h116l-5,-35s11,-35 30,-65c18,-29 12,-54 12,-54s-5,-46 -7,-63c-2,-16 -5,-18 -11,-24 -6,-6 -39,-40 -51,-56 -11,-15 -32,-7 -44,-7 -4,0 -11,-1 -18,-2l-1,0c1,9 2,16 2,16s6,24 -12,54zM361,350c0,-11 11,-16 26,-16s26,5 26,16 -11,24 -26,24 -26,-13 -26,-24z" stroke="#000000" stroke-width="12.0" id="path_3"/><path fill="#ddb9a3" d="m161,122c6,-6 39,-40 51,-56 2,-3 5,-5 9,-7l-0,-0c-19,-39 -25,-47 -40,-47 -14,0 -26,43 -27,112l1,7c1,-3 3,-4 6,-7z" stroke="#000000" stroke-width="12.0" id="path_4"/><path fill="#ddb9a3" d="m351,122c-6,-6 -39,-40 -51,-56 -2,-3 -5,-5 -9,-7l0,-0c19,-39 25,-47 40,-47 14,0 26,43 27,112l-1,7c-1,-3 -3,-4 -6,-7z" stroke="#000000" stroke-width="12.0" id="path_5"/><path fill="#ddb9a3" d="m29,294c6,-6 39,-40 51,-56 2,-3 5,-5 9,-7l-0,-0c-19,-39 -25,-47 -40,-47 -14,0 -26,43 -27,112l1,7c1,-3 3,-4 6,-7z" stroke="#000000" stroke-width="12.0" id="path_6"/><path fill="#ddb9a3" d="m482,258c-6,-6 -39,-40 -51,-56 -2,-3 -5,-5 -9,-7l0,-0c19,-39 25,-47 40,-47 14,0 26,43 27,112l-1,7c-1,-3 -3,-4 -6,-7z" stroke="#000000" stroke-width="12.0" id="path_7"/><path fill="none" d="M91,333l-30,-10M440,277l-30,10M218,164l-30,-10M298,166l30,-10 M104,430 l20,-20 l20,20 l-20,-20 M236,260 l20,-20 l20,20 l-20,-20 M366,400 l20,-20 l20,20 l-20,-20" stroke-linejoin="round" stroke-linecap="round" stroke="#000000" stroke-width="16.0" id="path_8"/></svg>