<svg id="vector" xmlns="http://www.w3.org/2000/svg" width="24.0d" height="24.0d" viewBox="0 0 512.0 512.0"><path fill="#faf7f7" d="M125,409v-356c0,-6 -5,-12 -12,-12h-40c-6,0 -12,5 -12,12v356zM191,376v-260c0,-4 -3,-7 -7,-7h-50c-4,0 -7,3 -7,7v260zM256,376v-356c0,-6 -5,-12 -12,-12h-40c-6,0 -12,5 -12,12v356zM256,347v28h65v-310c0,-4 -3,-7 -7,-7h-50c-4,0 -7,3 -7,7zM386,376v-356c0,-6 -5,-12 -12,-12h-40c-6,0 -12,5 -12,12v356zM451,376v-255c0,-6 -5,-12 -12,-12h-45c-4,0 -7,3 -7,7v260z" stroke="#000000" stroke-width="12.0" id="path_0"/><path fill="#b3dafe" d="m443,175h-374c-10,0 -18,8 -18,18v291c0,10 8,18 18,18h374c10,0 18,-8 18,-18v-291c-0,-10 -8,-18 -18,-18zM385,338c0,7 -6,13 -13,13h-231c-7,0 -13,-6 -13,-13v-72c0,-7 6,-13 13,-13h231c7,0 13,6 13,13z" stroke="#000000" stroke-width="12.0" id="path_1"/><path fill="#000000" d="M376,401h-225 M212,434h86" stroke-linecap="round" stroke="#000000" stroke-width="12.0" id="path_2"/></svg>