<svg id="vector" xmlns="http://www.w3.org/2000/svg" width="24.0d" height="24.0d" viewBox="0 0 512.0 512.0"><path fill="#daaa79" d="m54,263h393v86h-393z" id="path_0"/><path fill="#f2cd6d" d="m366,81h-232c-44,0 -80,35 -80,79v16h393v-16c0,-44 -36,-80 -80,-79z" id="path_1"/><path fill="#c79a83" d="M54,348h393v82h-393zM54,177h393v86h-393z" id="path_2"/><path fill="#7f7c84" d="m227,194v71c0,16 13,29 29,29s29,-13 29,-29v-71z" id="path_3"/><path fill="none" d="M108,132h-2 M204,132h-77" stroke-linecap="round" stroke="#f4f8fc" stroke-width="12.0" id="path_4"/><path fill="#bc5e51" d="M501,153v24h-55v-16c0,-44 -35,-80 -80,-80h63c40,0 72,32 72,72zM83,80h52c-44,0 -80,35 -80,80v16h-44v-24c0,-39 32,-72 72,-72z" id="path_5"/><path fill="#7f3d32" d="M446,177v254h15c22,0 40,-17 40,-40 0,0 0,0 0,-0v-214zM11,177v214c0,22 18,40 40,39h0,4v-254z" id="path_6"/><path fill="#9e524a" d="m105,81h-22c-39,0 -72,32 -72,72v0,23h22v-24c0,-39 32,-72 72,-72z" id="path_7"/><path fill="#602d26" d="m33,391v-214h-22v214c0,22 18,40 40,39h0,4v-4c-13,-6 -22,-20 -22,-35z" id="path_8"/><path fill="#6d7486" d="m206,160h100v36h-100z" id="path_9"/></svg>