<svg id="vector" xmlns="http://www.w3.org/2000/svg" width="24.0d" height="24.0d" viewBox="0 0 512.0 512.0"><path fill="#ffe04a" d="m489,481h-467c32,-54 54,-143 63,-205l57,-16 112,-31 110,31 59,16c9,62 31,151 63,205z" stroke-linejoin="round" stroke="#000000" stroke-width="12.0" id="path_0"/><path fill="#ff734d" d="M256,29v39l65,-19zM154,268c-4,26 -11,67 -23,110 -11,43 -25,78 -39,103h-70c32,-54 54,-143 63,-205l57,-16zM489,481h-71c-14,-24 -27,-59 -39,-103 -11,-42 -18,-83 -23,-110l10,-8 25,7 33,9c9,62 31,151 63,205z" stroke-linejoin="round" stroke="#000000" stroke-width="12.0" id="path_1"/><path fill="#ff9852" d="M256,313 l-83,168h167z" id="path_2"/><path fill="#ffb64d" d="M198,335 l-26,147c60,0 83,-75 83,-168h-31c-12,-0 -23,9 -25,21zM313,335c-2,-12 -13,-21 -25,-21h-31c0,93 23,168 83,168z" stroke="#000000" stroke-width="12.0" id="path_3"/><path fill="#ff734d" d="m451,228h-390l24,-9c33,-12 65,-29 94,-51s54,-46 76,-75c3,4 6,8 9,11 43,51 98,90 161,114z" stroke="#000000" stroke-width="12.0" id="path_4"/><path fill="#dd5790" d="M489,481h-35c-32,-54 -54,-143 -63,-205l1,-9 33,9c9,62 31,151 63,205zM451,228h-34c-10,-2 -21,-5 -31,-9 -70,-24 -119,-73 -119,-113 43,51 98,90 161,114z" stroke="#000000" stroke-width="12.0" id="path_5"/><path fill="#ffe04a" d="m256,93c-5,53 -34,102 -77,134h153c-43,-32 -70,-81 -76,-134z" stroke="#000000" stroke-width="12.0" id="path_6"/><path fill="#ffb64d" d="M85,277c-13,0 -24,-11 -24,-24v-24h48v24c-0,13 -11,24 -24,24zM182,277c-13,0 -24,-11 -24,-24v-24h48v24c-0,13 -11,24 -24,24zM280,277c-13,0 -24,-11 -24,-24v-24h48v24c0,13 -11,24 -24,24zM378,277c-13,0 -24,-11 -24,-24v-24h48v24c-0,13 -11,24 -24,24z" stroke="#000000" stroke-width="12.0" id="path_7"/><path fill="#ff9852" d="M134,277c-13,0 -24,-11 -24,-24v-24h48v24c-0,13 -11,24 -24,24zM231,277c-13,0 -24,-11 -24,-24v-24h48v24c0,13 -11,24 -24,24zM329,277c-13,0 -24,-11 -24,-24v-24h48v24c-0,13 -11,24 -24,24zM426,277c-13,0 -24,-11 -24,-24v-24h48v24c-0,13 -11,24 -24,24z" stroke="#000000" stroke-width="12.0" id="path_8"/></svg>