<svg id="vector" xmlns="http://www.w3.org/2000/svg" width="24.0d" height="24.0d" viewBox="0 0 512.0 512.0"><path fill="#3997ee" d="M326,342h-56V203l52,44c2,2 4,5 4,8V342z" stroke="#000000" stroke-width="12.0" id="path_0"/><path fill="#fac149" d="M131,264c-7,0 -57,0 -63,0c-4,0 -8,3 -8,8c0,6 0,204 0,218V504c7,0 63,0 72,0h3v-12V277V264H131z" stroke="#000000" stroke-width="12.0" id="path_1"/><path fill="#fac149" d="M382,86m-54,0a54,54 0,1 1,109 0a54,54 0,1 1,-109 0" stroke="#000000" stroke-width="12.0" id="path_2"/><path fill="#c0cdce" d="M210,59h-19c-3,0 -7,3 -7,7v3c0,12 0,19 0,32h35v-3c0,-13 0,-20 0,-31C219,63 215,59 210,59z" stroke="#000000" stroke-width="12.0" id="path_3"/><path fill="#a5afaf" d="M241,96H161c-3,0 -7,3 -7,7v3v40v3h95v-3v-38v-3C249,100 245,96 241,96z" stroke="#000000" stroke-width="12.0" id="path_4"/><path fill="#c0cdce" d="M260,146h-1H145h-1c-6,0 -11,5 -11,11v1c0,5 0,335 0,345h52c10,0 77,0 87,0v-167c0,-10 0,-172 0,-179C272,151 266,146 260,146z" stroke="#000000" stroke-width="12.0" id="path_5"/><path fill="#f37d79" d="M424,337H229c-5,0 -9,4 -9,9v157h214V346C433,341 429,337 424,337z" stroke="#000000" stroke-width="12.0" id="path_6"/><path fill="none" d="M163,193h76M163,232h76M163,271h76M83,310h20M83,349h20M83,389h23M83,428h23M83,467h23M246,303H163M163,349h20M186,374H163M186,413H163M186,452H163M394,374H258M394,413H258M394,452H258" stroke-linecap="round" stroke="#000000" stroke-width="12.0" id="path_7"/></svg>