<svg id="vector" xmlns="http://www.w3.org/2000/svg" width="24.0d" height="24.0d" viewBox="0 0 434.0 434.0"><path fill="#f99c38" d="M116.8,77c-9.8,0 -19.7,-3.7 -27,-11c-15,-15 -15,-39.4 0,-54.4c15,-15 39.4,-15 54.4,0v0c15,15 15,39.4 0,54.4C136.6,73 126.7,77 116.8,77zM116.8,19.9c-4.7,0 -9.4,1.8 -13,5.4c-7,7 -7,19 0,26c7,7 19,7 26,0c7,-7 7,-19 0,-26C126,21.7 121.6,20 116.8,19.9z" stroke="#000000" stroke-width="6.0" id="path_0"/><path fill="#f9e17a" d="M271,82.3c41,37.4 71.5,99.6 81.8,151c18,91 -40.6,179.6 -131.6,198c-11.8,2 -23.7,3.4 -35,3.3c-10,-0 -15.6,-12.4 -8.4,-19.8c31.7,-32.5 47.4,-79.7 37.7,-127.7c-7,-36.6 -34,-67 -54,-94.9L271,82.3z" stroke="#000000" stroke-width="6.0" id="path_1"/><path fill="#ef5252" d="M218.6,16.5l-123.6,123.6l-10,-10c-5,-5 -5,-14 0,-19.4L189,6.5c5,-5 14,-5 19.4,0L218.6,16.5z" stroke="#000000" stroke-width="6.0" id="path_2"/><path fill="#ef5252" d="M268,85.4L163.8,189.7c-5,5 -14,5 -19.4,0l-37.5,-37.5l56,14.7l-14.7,-56l56,14.7l-14.7,-56l56,14.7l-14.7,-56l37.5,37.5C273.4,71.4 273.4,80 268,85.4z" stroke="#000000" stroke-width="6.0" id="path_3"/><path fill="#f99c38" d="M230.5,28.4l14.7,56l-56,-14.7l14.7,56l-56,-14.7l14.7,56l-56,-14.7l-12,-12l123.6,-123.6z" stroke="#000000" stroke-width="6.0" id="path_4"/></svg>