<svg id="vector" xmlns="http://www.w3.org/2000/svg" width="24.0d" height="24.0d" viewBox="0 0 512.0 512.0"><path fill="#60a4ff" d="M255,104 l-55,-94 -24,20 1,7 24,99zM310,9 l-55,94 53,32 24,-99 1,-7z" stroke-linejoin="round" stroke="#000000" stroke-width="12.0" id="path_0"/><path fill="#80b6ff" d="m308,137 l-53,-32 -53,32 -24,-99 -57,20c-11,5 -17,11 -22,23 -21,47 -41,90 -63,138l80,50v231h140,139v-231l80,-50c-21,-47 -41,-90 -63,-138 -5,-11 -10,-17 -22,-23l-57,-20z" stroke="#000000" stroke-width="12.0" id="path_1"/><path fill="#a0c8ff" d="M199,9 l55,94 55,-94c-16,8 -35,13 -55,13s-38,-4 -55,-13zM275,216v-99l-20,-12 -20,12v99z" stroke-linejoin="round" stroke="#000000" stroke-width="12.0" id="path_2"/></svg>