<svg id="vector" xmlns="http://www.w3.org/2000/svg" width="24.0d" height="24.0d" viewBox="0 0 512.0 512.0"><path fill="#aae8ff" d="M216.8,336c0.4,0 0.8,0 1,0c7.7,-47.8 49,-84 99,-84.3c32.8,0 62,15.7 80,40c2,2.5 5,3.6 8,2.6c9.5,-3 19.8,-4.6 30.6,-4c8,0.4 16,2 23.6,5c1,-7.5 1.8,-15 1.5,-23.3c-2,-54 -45.6,-98 -99.4,-101c-14,-0.8 -27.4,1 -39.8,5c-4,1 -8,-0 -10.6,-3.4c-24,-31.6 -61.8,-52 -104.6,-52c-65,0 -119,47.5 -129,109.9c-0.5,-0 -1,-0 -1.7,-0c-42.4,0 -76.8,34.7 -76,77.4c0.6,41.7 35.6,74.8 77,74.8h82C165,356 188.5,336 216.8,336z" id="path_0"/><path fill="#6bd9fc" d="M20.6,308c-0.7,-42.6 33.6,-77.4 76,-77.4c0,0 0,0 0,0c1,0 1.8,-0.6 2,-1.6c10,-58 58.7,-103 118.6,-107.7c-3,-0 -6.8,-0.4 -10,-0.4c-65,0 -119,47.5 -129,109.9c-0.5,-0 -1,-0 -1.7,-0c-42,0 -76.4,34 -76,76.6c0,41.5 35.5,75.6 77,75.6h20.8C56,382.7 21,349.7 20.6,308z" id="path_1"/><path fill="#6bd9fc" d="M435.5,289.3c-10.7,-0.6 -21,0.8 -30.6,4c-3,1 -6,-0 -8,-2.6c-18,-24 -47.5,-40 -80,-40c-50,0 -91.5,36.5 -99,84.3c-0.4,-0 -0.8,-0 -1,-0c-32.6,0 -59,26.7 -58.4,59.4c0.5,32 27,57.4 59,57.4h213.8c46,0 83,-38 81,-84.9C510,325.5 477,291.8 435.5,289.3z" id="path_2"/><path fill="#65aafc" d="M179,394.4c-0.5,-32.7 25.8,-59.4 58.4,-59.4c0.4,0 0.8,0 1,0c7,-44 43,-79 88.5,-83.7c-3.5,-0 -7,-0.5 -10.8,-0.5c-50,0 -91.5,36.5 -99,84.3c-0.4,-0 -0.8,-0 -1,-0c-32.6,0 -59,26.7 -58.4,59.4c0.5,32 27,57.4 59,57.4h21.6C206,452 179.5,426.5 179,394.4z" id="path_3"/></svg>