<svg id="vector" xmlns="http://www.w3.org/2000/svg" width="24.0d" height="24.0d" viewBox="0 0 512.0 512.0"><path fill="#e24b4b" d="M198,43c0,14 -11,26 -26,26c-1,0 -3,-0 -4,-0L45,178c0,0 0,0 0,0c0,11 -9,21 -21,21c-11,0 -21,-9 -21,-21c0,-6 2,-11 6,-15c-4,-5 -6,-12 -6,-19c0,-4 1,-9 2,-12C2,126 0,119 0,113c0,-15 10,-27 24,-31c-1,-3 -2,-7 -2,-11c0,-17 14,-32 32,-32c2,0 5,0 8,1C64,21 79,6 99,6c9,0 18,3 24,9c4,-1 8,-2 12,-2c8,0 16,2 22,7c3,-2 8,-3 13,-3C186,17 198,29 198,43z" id="path_0"/><path fill="#e24b4b" d="M508,144c0,7 -2,14 -6,19c4,4 6,9 6,15c0,11 -9,21 -21,21c-11,0 -21,-9 -21,-21c0,-0 0,-0 0,-0L340,69c-14,0 -26,-11 -26,-26c0,-14 11,-26 26,-26c4,0 9,1 13,3c6,-5 14,-7 22,-7c4,0 8,0 12,2c6,-5 15,-9 24,-9c19,0 35,14 37,33c2,-0 5,-1 8,-1c17,0 32,14 32,32c0,4 -0,7 -2,11C501,85 512,98 512,113c0,6 -2,13 -5,18C507,135 508,139 508,144z" id="path_1"/><path fill="#e9eff4" d="M497,264C497,397 389,505 256,505c-133,0 -241,-108 -241,-241C14,131 122,22 256,22C389,22 497,131 497,264z" id="path_2"/><path fill="#ffffff" d="M375,229c-0,26 -20,48 -45,48c-24,0 -44,-21 -44,-48s20,-48 45,-48C355,181 375,203 375,229z" id="path_3"/><path fill="#d3d9dd" d="M385,205c-13,-27 -38,-44 -63,-42c-5,0 -11,-3 -11,-9c-0,-5 3,-11 9,-11c33,-2 66,18 83,53c2,5 0,11 -4,14C394,212 388,210 385,205z" id="path_4"/><path fill="#ffffff" d="M136,229c0,26 20,48 45,48c24,0 44,-21 44,-48s-20,-48 -45,-48C156,181 136,203 136,229z" id="path_5"/><path fill="#3e4347" d="M306,229a24,27 0,1 0,48 0a24,27 0,1 0,-48 0zM157,229a24,27 0,1 0,48 0a24,27 0,1 0,-48 0z" id="path_6"/><path fill="#d3d9dd" d="M112,209c-5,-2 -7,-9 -4,-14c17,-35 50,-56 83,-53c5,0 10,5 9,11s-5,10 -11,9c-24,-2 -49,14 -63,41C124,210 117,212 112,209z" id="path_7"/><path fill="#e24b4b" d="M256,308m-41,0a41,41 0,1 1,82 0a41,41 0,1 1,-82 0" id="path_8"/><path fill="#e24b4b" d="M367,322c-11,0 -22,5 -29,14c-19,24 -49,39 -82,39c-33,0 -63,-15 -82,-39c-7,-9 -17,-14 -29,-14l0,0c-30,0 -47,35 -28,59c32,41 83,67 139,67s107,-26 139,-67C415,357 398,322 367,322L367,322z" id="path_9"/><path fill="#ffffff" d="M256,427c-48,0 -92,-21 -122,-59c-5,-6 -3,-13 -1,-15c4,-9 17,-11 25,-1c24,30 60,47 99,47s75,-17 99,-47c8,-10 20,-7 25,1c1,2 3,9 -1,15C348,405 304,427 256,427z" id="path_10"/></svg>