<svg id="vector" xmlns="http://www.w3.org/2000/svg" width="24.0d" height="24.0d" viewBox="0 0 682.0 682.0"><path fill="#dadada" d="m583,223c-34,-71 -45,-147 -34,-213 -54,38 -127,61 -207,61 -79,-0 -152,-23 -207,-61 10,66 -0,141 -34,213 -22,47 -53,87 -88,118 34,31 67,71 90,118 34,71 45,147 34,213 54,-38 127,-61 207,-61 77,-0 148,22 202,58 -9,-65 1,-139 35,-210 22,-47 55,-87 90,-118C636,310 605,270 583,223" stroke="#000000" stroke-width="20.0" id="path_0"/><path fill="#b7b5bd" d="m220,537c-7,-39 -20,-79 -39,-117 -13,-28 -30,-55 -49,-80 17,-24 33,-50 47,-78 18,-37 31,-77 39,-117 39,10 80,15 122,15 41,-0 83,-5 122,-15 7,39 20,79 39,117 13,27 29,54 47,78C531,364 515,391 501,420 483,458 470,497 462,536 423,527 383,522 343,522 301,522 259,527 220,537" stroke="#000000" stroke-width="20.0" id="path_1"/><path fill="#dadada" d="m284,436c-6,-18 -14,-36 -22,-54 -6,-14 -14,-28 -22,-42 7,-12 14,-25 20,-39 8,-17 16,-35 22,-54 19,1 39,2 58,2 19,-0 39,-1 58,-2 6,18 14,36 22,54 6,13 13,26 20,38C435,353 428,367 421,381 412,399 404,417 398,435 380,433 361,433 343,433 323,433 303,434 284,436" stroke="#000000" stroke-width="20.0" id="path_2"/><path fill="none" d="M546,669 L341,341 134,10 M136,669 L341,341 548,10 M11,341L671,341" stroke="#000000" stroke-width="20.0" id="path_3"/></svg>