<svg id="vector" xmlns="http://www.w3.org/2000/svg" width="24.0d" height="24.0d" viewBox="0 0 512.0 512.0"><path fill="#ffc478" d="M384,236l-17,160l-0,-0H144l-0,0L127,236H384z" stroke="#000000" stroke-width="12.0" id="path_0"/><path fill="#3d4370" d="M396,130l-11,106l-257,0l-11,-106zM367,396l-9,88c-1,10 -9,17 -19,17H174c-10,0 -18,-7 -19,-17l-9,-88l0,-0h222L367,396z" stroke="#000000" stroke-width="12.0" id="path_1"/><path fill="#bf6015" d="M116,70l15,-46C134,15 141,10 150,10h211c8,0 16,5 19,13L396,70c11,0 20,9 20,20v40c-11,0 -308,0 -320,0V90C96,79 105,70 116,70zM256,276c-33,0 -60,18 -60,40s26,40 60,40s60,-18 60,-40S289,276 256,276z" stroke="#000000" stroke-width="12.0" id="path_2"/><path fill="none" d="M200,316h110" stroke-linecap="round" stroke="#000000" stroke-width="16.0" id="path_3"/></svg>