<svg id="vector" xmlns="http://www.w3.org/2000/svg" width="24.0d" height="24.0d" viewBox="0 0 512.0 512.0"><path fill="#ffcb7c" d="m487,174c19,-19 19,-52 0,-71l-78,-78c-19,-19 -52,-19 -71,0l-312,312c-19,19 -19,52 0,71l78,78c19,19 52,19 71,0l-106,-106 312,-312z" stroke="#000000" stroke-width="16.0" id="path_0"/><path fill="none" d="M110,350l100,100M140,320l100,100M170,290l100,100M200,260l100,100M230,230l100,100M260,200l100,100M290,170l100,100M320,140l100,100M350,110l100,100" stroke-linecap="round" stroke="#000000" stroke-width="16.0" id="path_1"/></svg>