<svg id="vector" xmlns="http://www.w3.org/2000/svg" width="24.0d" height="24.0d" viewBox="0 0 512.0 512.0"><path fill="#2c5871" d="M256,256m-256,0a256,256 0,1 1,512 0a256,256 0,1 1,-512 0" id="path_0"/><path fill="#e6f1ff" d="M256,256m-221,0a221,221 0,1 1,442 0a221,221 0,1 1,-442 0" id="path_1"/><path fill="#66c1ff" d="M159,163L233,278l115,73c2,1 4,-1 3,-3l-73,-115l-115,-73C161,158 158,161 159,163z" id="path_2"/><path fill="#ff4c4c" d="M159,163L233,278l45,-45l-115,-73C161,158 158,161 159,163z" id="path_3"/><path fill="#555a66" d="M256,256m-33,0a33,33 0,1 1,66 0a33,33 0,1 1,-66 0" id="path_4"/><path fill="#2c5871" d="M377,142c-2,0 -4,-0 -5,-2c-3,-3 -3,-8 0,-11l12,-12c3,-3 8,-3 11,0c3,3 3,8 0,11l-12,12C381,141 379,142 377,142z" id="path_5"/><path fill="#2c5871" d="M122,397c-2,0 -4,-0 -5,-2c-3,-3 -3,-8 0,-11l12,-12c3,-3 8,-3 11,0s3,8 0,10L128,395C126,396 124,397 122,397z" id="path_6"/><path fill="#2c5871" d="M389,397c-2,0 -4,-0 -5,-2l-12,-12c-3,-3 -3,-8 0,-11c3,-3 8,-3 11,0L395,384c3,3 3,8 0,10C393,396 391,397 389,397z" id="path_7"/><path fill="#2c5871" d="M134,142c-2,0 -4,-0 -5,-2L117,128c-3,-3 -3,-8 0,-11c3,-3 8,-3 11,0l12,12c3,3 3,8 0,10C138,141 136,142 134,142z" id="path_8"/><path fill="#2c5871" d="M114,275c-0,2 -3,3 -6,3c-2,0 -5,-1 -5,-3l-4,-19l-4,19c-0,2 -3,3 -5,3c-2,0 -5,-1 -6,-3l-14,-44c-0,-0 -0,-0 -0,-0c0,-2 3,-3 5,-3c1,0 2,0 3,1l11,38l6,-24c0,-1 2,-2 4,-2c2,0 4,0 4,2l6,24l11,-38c0,-1 1,-1 3,-1c2,0 5,1 5,3c0,0 -0,0 -0,0L114,275z" id="path_9"/><path fill="#2c5871" d="M421,248h10c1,0 3,1 3,3c0,1 -1,3 -3,3h-10v14h20c1,0 3,2 3,4c0,2 -1,4 -3,3h-25c-2,0 -4,-1 -4,-2v-46c0,-2 2,-3 4,-2h25c2,0 3,2 3,4c0,2 -1,4 -3,4h-20V248z" id="path_10"/><path fill="#2c5871" d="M263,108l-15,-28v28c0,2 -2,3 -4,3c-2,0 -4,-1 -4,-2V62c0,-2 2,-3 4,-3c3,0 4,0 6,4l13,26V62c0,-2 2,-2 4,-2c2,0 4,0 4,2v46c0,2 -2,3 -4,2C266,111 264,110 263,108z" id="path_11"/><path fill="#2c5871" d="M263,431c0,-10 -22,-7 -22,-24c0,-10 9,-14 17,-14c4,0 13,1 13,5c0,1 -1,4 -3,4c-2,0 -3,-2 -9,-2c-5,0 -8,2 -8,5c0,8 22,5 22,24c0,10 -7,15 -16,15c-9,0 -16,-4 -16,-8c0,-2 1,-5 4,-5c3,0 4,5 12,5C259,437 263,435 263,431z" id="path_12"/></svg>