<svg id="vector" xmlns="http://www.w3.org/2000/svg" width="24.0d" height="24.0d" viewBox="0 0 497.0 497.0"><path fill="#7a6d79" d="m234,430 l-66,6 -66,-6l0,-45l133,0z" stroke="#000000" stroke-width="12.0" id="path_0"/><path fill="#f47c7c" d="M232,472l-159,0c-22,0 -41,-18 -41,-41l273,0zM167,269m-136,0a136,136 0,1 1,273 0a136,136 0,1 1,-273 0" stroke="#000000" stroke-width="12.0" id="path_1"/><path fill="#eaf6ff" d="M167,269m-103,0a103,103 135,1 1,206 0a103,103 0,1 1,-206 0M337,472l-14,0l-38,-6 -38,6l-14,0c-11,0 -21,-9 -21,-21l0,-62l73,-7 73,7l0,62c0,11 -9,21 -21,21z" stroke="#000000" stroke-width="12.0" id="path_2"/><path fill="#c8effe" d="m323,472l-76,0l0,-30c0,-3 2,-6 6,-6l63,0c3,0 6,2 6,6l0,30z" stroke="#000000" stroke-width="12.0" id="path_3"/><path fill="#eaf6ff" d="m351,24l-133,0c-17,0 -31,14 -31,31l98,6 98,-6c0,-17 -14,-31 -31,-31z" stroke="#000000" stroke-width="12.0" id="path_4"/><path fill="#c1e9af" d="M358,388l-147,0l-24,-331l197,0z" stroke="#000000" stroke-width="12.0" id="path_5"/><path fill="#97da7b" d="M285,208l-16,0c-18,0 -33,-14 -33,-33l0,-9c0,-3 2,-5 5,-5l11,0c18,0 33,14 33,33l0,14z" stroke="#000000" stroke-width="8.0" id="path_6"/><path fill="#80d261" d="M285,208l16,0c18,0 33,-14 33,-33l0,-9c0,-3 -2,-5 -5,-5l-11,0c-18,0 -33,14 -33,33l0,14z" stroke="#000000" stroke-width="8.0" id="path_7"/><path fill="#ee6161" d="M450,269 l-22,5 -22,-5l0,-39c0,-9 4,-17 11,-23l18,-15c6,-5 15,-0 15,7l0,70z" stroke="#000000" stroke-width="12.0" id="path_8"/><path fill="#a79ba7" d="m457,356 l-29,3 -29,-3l0,-83c0,-1 1,-3 3,-3l52,0c1,0 3,1 3,3z" stroke="#000000" stroke-width="12.0" id="path_9"/><path fill="#7a6d79" d="m465,360l0,24l-1,6 1,6l0,61c0,6 -5,11 -11,11l-53,0c-6,0 -11,-5 -11,-11l0,-100c0,-1 1,-3 3,-3l68,0c1,0 3,1 3,3z" stroke="#000000" stroke-width="12.0" id="path_10"/><path fill="#80d261" d="m313,248l-56,0c-3,0 -6,-3 -6,-6s3,-6 6,-6l56,0c3,0 6,3 6,6s-3,6 -6,6z" stroke="#000000" stroke-width="8.0" id="path_11"/><path fill="#918291" d="m442,385l22,0l0,13l-22,0z" stroke="#000000" stroke-width="8.0" id="path_12"/><path fill="#a79ba7" d="m442,385l0,13l-11,0c-3,0 -6,-3 -6,-6s3,-6 6,-6z" stroke="#000000" stroke-width="8.0" id="path_13"/></svg>