<svg id="vector" xmlns="http://www.w3.org/2000/svg" width="24.0d" height="24.0d" viewBox="0 0 512.0 512.0"><path fill="#91c84b" d="M135,384c-20,15 -43,20 -57,22c-4,0 -5,6 -1,8c49,23 101,21 133,15c15,-2 29,9 29,25v-72L135,384L135,384z" stroke="#000000" stroke-width="12.0" id="path_0"/><path fill="#a0d755" d="M376,384c20,15 43,20 57,22c4,0 5,6 1,8c-49,23 -101,21 -133,15c-15,-2 -29,9 -29,25v-72L376,384L376,384z" stroke="#000000" stroke-width="12.0" id="path_1"/><path fill="#e4eaf8" d="M344,239m-160,0a160,160 0,1 1,320 0a160,160 0,1 1,-320 0" stroke="#000000" stroke-width="12.0" id="path_2"/><path fill="#d5dced" d="M167,239m-160,0a160,160 0,1 1,320 0a160,160 0,1 1,-320 0" stroke="#000000" stroke-width="12.0" id="path_3"/><path fill="#e4eaf8" d="M256,183m-160,0a160,160 0,1 1,320 0a160,160 0,1 1,-320 0" stroke="#000000" stroke-width="12.0" id="path_4"/><path fill="#b4e66e" d="M440,245c0,-5 -5,-7 -9,-4c-14,13 -37,27 -94,38c-43,8 -62,35 -72,58c-1,3 -4,5 -8,5l0,0c-3,0 -6,-2 -8,-5c-9,-23 -29,-50 -72,-58c-57,-11 -79,-25 -94,-38c-3,-3 -9,-0 -9,4c2,38 20,145 140,160c15,2 27,15 27,31v50h32l0,-50c0,-16 11,-29 27,-31C420,390 437,284 440,245z" stroke="#000000" stroke-width="12.0" id="path_5"/></svg>