<svg id="vector" xmlns="http://www.w3.org/2000/svg" width="24.0d" height="24.0d" viewBox="0 0 512.0 512.0"><path fill="#d88a55" d="M139,362c-16,0 -30,-13 -30,-29v123h39v-93zM356,362h39v93h-39z" stroke="#000000" stroke-width="8.0" id="path_0"/><path fill="#ea9b58" d="m404,118h-151c-7,8 -17,13 -29,13 -4,0 -7,-0 -11,-1l-1,-0v51c0,14 -3,27 -11,39 1,3 1,7 1,11v2c0,20 -16,37 -37,37h-55v60c0,16 13,30 30,29h38c5,0 10,4 10,9v83h39v-83c0,-5 4,-9 10,-9h187c5,0 10,4 10,9v83h39v-267c0,-38 -31,-70 -70,-66z" stroke="#000000" stroke-width="8.0" id="path_1"/><path fill="#e7b795" d="M102,94v-25c0,-7 -5,-13 -13,-13h-1c-7,0 -13,5 -13,13v25zM193,94v-25c0,-7 -5,-13 -13,-13h-1c-7,0 -13,5 -13,13v25z" stroke="#000000" stroke-width="8.0" id="path_2"/><path fill="#f6a96c" d="M250,94h-38v36c3,1 7,1 11,1 16,0 30,-10 36,-25 2,-6 -2,-13 -9,-13zM56,94h-38c-7,0 -11,6 -9,13 5,14 19,25 36,25 4,0 8,-0 11,-1v-36z" stroke="#000000" stroke-width="8.0" id="path_3"/><path fill="#d88a55" d="m56,94v86c0,15 4,29 11,41 4,-15 18,-26 35,-26h61c16,0 31,11 35,26 7,-12 11,-26 11,-41v-86z" stroke="#000000" stroke-width="8.0" id="path_4"/><path fill="#edcab2" d="m164,272h-61c-20,0 -37,-16 -37,-37v-2c0,-20 16,-37 37,-37h61c20,0 37,16 37,37v2c0,20 -16,37 -37,37z" stroke="#000000" stroke-width="8.0" id="path_5"/><path fill="#32569d" d="M356,424h39v31h-39zM109,424h39v31h-39zM435,424h39v31h-39zM188,424h39v31h-39z" stroke="#000000" stroke-width="8.0" id="path_6"/><path fill="#000000" d="M93,150v15 M159,150v15 M114,228h-12 M173,230h-11" stroke-linecap="round" stroke="#000000" stroke-width="12.0" id="path_7"/></svg>