<svg id="vector" xmlns="http://www.w3.org/2000/svg" width="24.0d" height="24.0d" viewBox="0 0 512.0 512.0"><path fill="#5ba980" d="m31,161c-3,44 33,96 89,105l16,-126z" id="path_0"/><path fill="#008b5e" d="m480,164 l-119,-46 30,152c57,-8 93,-62 89,-105z" id="path_1"/><path fill="#5fe881" d="m475,154 l-24,-20 -36,-31c5,-13 6,-30 3,-45 -6,-26 -27,-47 -53,-54 -34,-8 -69,6 -85,36 -7,-2 -15,-3 -24,-3 -8,0 -16,1 -24,3 -15,-30 -50,-45 -85,-36 -26,6 -47,28 -53,54 -3,15 -2,31 3,45l-36,31 -24,20c-3,2 -4,6 -4,10 12,-2 25,-2 37,1 31,9 52,38 52,71v58c0,46 11,72 20,92 5,12 9,23 9,34l-0,13c0,41 33,75 75,75h60c41,0 75,-33 75,-75v-12c0,-12 4,-23 9,-37 9,-20 20,-45 20,-91v-58c0,-35 25,-66 59,-73 10,-2 20,-1 30,0 -0,-3 -1,-7 -4,-10z" id="path_2"/><path fill="#3bb980" d="m480,164c-9,-1 -19,-2 -30,-0 -34,7 -59,38 -59,73v58c0,46 -11,71 -20,91 -5,13 -9,24 -9,37v12c0,41 -33,75 -75,75h-30v-476c8,0 16,1 24,3 15,-30 50,-45 85,-36 26,6 47,28 53,54 3,15 2,31 -3,45l36,31 24,20c3,2 4,6 4,10z" id="path_3"/><path fill="#895d3c" d="M241,437c0,8 -6,15 -15,15 -8,0 -15,-6 -15,-15s6,-15 15,-15c8,0 15,6 15,15zM182,142 l-30,-61c-3,-7 -0,-16 6,-20 7,-3 16,-0 20,6l30,61c3,7 0,16 -6,20 -7,3 -16,0 -20,-6z" id="path_4"/><path fill="#523522" d="M301,437c0,8 -6,15 -15,15 -8,0 -15,-6 -15,-15s6,-15 15,-15c8,0 15,6 15,15zM309,149c-7,-3 -10,-12 -6,-20l30,-61c3,-7 12,-10 20,-6 7,3 10,12 6,20l-30,61c-3,7 -12,10 -20,6z" id="path_5"/><path fill="#5bc980" d="M329,262c-3,7 -12,10 -20,6l-53,-26 -53,26c-7,3 -16,0 -20,-6 -3,-7 -0,-16 6,-20l60,-30c2,-0 4,-1 6,-1 2,0 4,0 6,1l60,30c7,3 10,12 6,20zM329,322c-3,7 -12,10 -20,6l-53,-26 -53,26c-7,3 -16,0 -20,-6 -3,-7 -0,-16 6,-20l60,-30c2,-0 4,-1 6,-1 2,0 4,0 6,1l60,30c7,3 10,12 6,20zM299,367c-3,7 -12,10 -20,6l-23,-11 -23,11c-7,3 -16,0 -20,-6 -3,-7 -0,-16 6,-20l30,-15c2,-0 4,-1 6,-1 2,0 4,0 6,1l30,15c7,3 10,12 6,20z" id="path_6"/><path fill="#00ab5e" d="M299,367c-3,7 -12,10 -20,6l-23,-11v-31c2,0 4,0 6,1l30,15c7,3 10,12 6,20zM329,322c-3,7 -12,10 -20,6l-53,-26v-31c2,0 4,0 6,1l60,30c7,3 10,12 6,20zM309,269 l-53,-26v-31c2,0 4,0 6,1l60,30c7,3 10,12 6,20 -3,7 -12,10 -20,6z" id="path_7"/></svg>