<svg id="vector" xmlns="http://www.w3.org/2000/svg" width="24.0d" height="24.0d" viewBox="0 0 512.0 512.0"><path fill="#7f5b53" d="M494,211.8L317.8,211.8l-44,8.8l-44,-8.8L26.4,227.5c-14.8,1 -26,13.5 -26,28.5s11.5,27 26,28.5l203,15.6l44,-8.8l44,8.8h176.5c9.7,-0 17.6,-8 17.6,-17.6v-52.9C512,219.7 504,212 494,211.8z" id="path_0"/><path fill="#cc6f56" d="M459,264.8L150,264.8c-4.8,0 -8.8,-4 -8.8,-8.8s4,-8.8 8.8,-8.8h309c4.8,0 8.8,4 8.8,8.8S464,264.8 459,264.8z" id="path_1"/><path fill="#5e5f62" d="M341.6,489.7c-2.5,0 -5,-1 -6.7,-3l-191.5,-225c-2.8,-3 -2.8,-8 0,-11.4L335,25.3c3,-3.6 8.7,-4 12,-1s4,8.6 1,12.3L161.6,256l186.6,219c2,2.6 2.7,6 1,9.4C348,487.7 345,489.7 341.6,489.7L341.6,489.7z" id="path_2"/><path fill="#e4c05c" d="M476.7,211.8c0,-137.7 -109.7,-206 -114.4,-209.3c-8,-5 -19,-2.4 -24,6c-5,8 -2.4,19 6,24c1,0.5 97.4,61 97.4,179L476.7,211.8z" id="path_3"/><path fill="#e4c05c" d="M476.7,300c0,137.7 -109.7,206 -114.4,209.3c-2.7,1.7 -6,2.5 -9,2.5c-7.8,0 -14.8,-5 -17,-12.8c-2,-7.5 1,-15.7 7.7,-19.8c19,-12.7 36,-28 50,-46.4c30.6,-37.4 47,-84 47,-132.7L476.7,300z" id="path_4"/></svg>