<svg id="vector" xmlns="http://www.w3.org/2000/svg" width="24.0d" height="24.0d" viewBox="0 0 512.0 512.0"><path fill="#ffc344" d="M92,304.8 l-10,-128c-0.5,-6.7 7.5,-10.5 12.4,-5.8l92,89zM419.7,304.8 l10,-128c0.5,-6.7 -7.5,-10.5 -12.4,-5.8l-92,89z" stroke="#000000" stroke-width="12.0" id="path_0"/><path fill="#ffd15b" d="m311,58.6 l-26,-14.4c-1.8,-1 -3.4,-2.5 -4.4,-4.4l-14.4,-26.3c-4,-7.8 -15.4,-7.8 -19.7,0l-14.4,26.3c-1,1.8 -2.5,3.4 -4.4,4.4l-26,14.4c-7.8,4 -7.8,15.4 0,19.7l26,14.4c1.8,1 3.4,2.5 4.4,4.4l14.4,26.3c4,7.8 15.4,7.8 19.7,0l14.4,-26.3c1,-1.8 2.5,-3.4 4.4,-4.4l26,-14.4c7.8,-4 7.8,-15.4 -0,-19.7z" stroke="#000000" stroke-width="12.0" id="path_1"/><path fill="#e94444" d="M54,323.8a206.5,107 0,1 0,413 0a206.5,107 0,1 0,-413 0zM301,229h-90c-29,0 -53,-23.7 -53,-53 0,-29 23.7,-53 53,-53h90c29,0 53,23.7 53,53 0,29 -23.7,53 -53,53z" stroke="#000000" stroke-width="12.0" id="path_2"/><path fill="#ffd15b" d="m501,262.8 l-27,232.3h-437.4l-27,-232.3c-0.7,-6.8 4,-12 8.8,-10l102,85.7c3.4,3 8.7,2 11.4,-1l115.4,-150c4,-5 11.7,-5 15.7,0l115.4,150c2.7,3.6 8,4 11.4,1l102,-85.7c4.8,-2 9.6,3 8.8,10z" stroke="#000000" stroke-width="12.0" id="path_3"/><path fill="#f3f0f3" d="m484.5,504.5h-457c-11,0 -20,-9 -20,-20 0,-11 9,-20 20,-20h457c11,0 20,9 20,20 0,11 -9,20 -20,20z" stroke="#000000" stroke-width="12.0" id="path_4"/><path fill="#8379c1" d="M428.7,397m-29,0a29,29 0,1 1,58 0a29,29 0,1 1,-58 0M86,397m-29,0a29,29 0,1 1,58 0a29,29 0,1 1,-58 0M257.4,363.9m-43,0a43,43 0,1 1,86 0a43,43 0,1 1,-86 0" stroke="#000000" stroke-width="12.0" id="path_5"/></svg>