<svg id="vector" xmlns="http://www.w3.org/2000/svg" width="24.0d" height="24.0d" viewBox="0 0 512.0 512.0"><path fill="#f4eafa" d="m472,504h-22l-411,0c0,-19 1,-35 5,-49 10,-35 36,-54 89,-63 18,-3 41,-4 67,-5v-0c25,-21 12,-51 12,-51h83s-12,30 12,51c26,0 48,2 67,5 52,8 79,27 89,63 4,13 5,30 5,49z" stroke="#000000" stroke-width="12.0" id="path_0"/><path fill="#f4eafa" d="m385,224c0,3 -0,6 -0,10 -2,42 -20,81 -73,96 -15,4 -34,7 -56,7 -3,0 -7,-0 -11,-0 -17,-0 -32,-3 -45,-6 -52,-15 -70,-53 -72,-96 -0,-3 -0,-6 -0,-10 0,-11 0,-23 0,-33l3,-63c7,-68 27,-99 64,-112 14,-4 30,-7 50,-7 3,-0 7,-0 10,-0 24,0 44,2 60,7 37,12 56,44 64,112l3,63c0,10 0,21 0,33z" stroke="#000000" stroke-width="12.0" id="path_1"/><path fill="#6ccbff" d="m385,234c-2,42 -20,81 -73,96v-0c0,-3 0,-6 0,-9 3,-35 11,-61 11,-61 14,-3 27,-8 38,-13 14,-6 23,-12 23,-12z" stroke="#000000" stroke-width="12.0" id="path_2"/><path fill="#6ccbff" d="m199,330c-52,-15 -70,-53 -72,-96 2,1 29,18 60,25 0,0 8,30 12,70z" stroke="#000000" stroke-width="12.0" id="path_3"/><path fill="#6ccbff" d="m316,15s-8,40 -25,72c0,0 -20,1 -35,1s-35,-1 -35,-1c-16,-32 -25,-72 -25,-72 16,-5 36,-7 60,-7s44,2 60,7z" stroke="#000000" stroke-width="12.0" id="path_4"/><path fill="#fd3581" d="m397,190s-7,0 -21,1c-44,2 -150,6 -261,-1 -4,-30 0,-61 0,-61s123,-8 260,-1c7,0 14,0 22,1 4,30 0,61 0,61z" stroke="#000000" stroke-width="12.0" id="path_5"/><path fill="#6ccbff" d="m467,455 l-0,-0s-12,0 -27,3c-8,1 -18,3 -27,6 0,0 -3,-19 -17,-45 -4,-8 -10,-18 -17,-28l-0,-0c52,8 79,27 89,63z" stroke="#000000" stroke-width="12.0" id="path_6"/><path fill="#6ccbff" d="m134,391c-27,38 -34,73 -34,73 -25,-8 -55,-10 -55,-10 10,-35 36,-54 89,-63z" stroke="#000000" stroke-width="12.0" id="path_7"/><path fill="#000000" d="m365,159c0,-4 -3,-7 -7,-7h-204c-9,0 -9,14 0,15h204c4,0 7,-3 7,-7z" id="path_8"/><path fill="#000000" d="m283,270h-55c-9,0 -9,14 0,15h55c9,-0 9,-14 0,-15z" id="path_9"/><path fill="#000000" d="m255,417c-4,0 -7,3 -7,7v79c0,9 14,9 15,0v-79c0,-4 -3,-7 -7,-7z" id="path_10"/><path fill="#000000" d="m189,440c-3,2 -4,6 -2,10 0,0 11,18 11,54 0,4 3,7 7,7s7,-3 7,-7c0,-39 -13,-61 -13,-62 -2,-3 -6,-4 -10,-2z" id="path_11"/><path fill="#000000" d="m322,440c-3,-2 -8,-1 -10,2 -0,0 -13,22 -13,62 0,4 3,7 7,7s7,-3 7,-7c0,-34 11,-53 11,-54 2,-3 1,-8 -2,-10z" id="path_12"/><path fill="none" d="M373,454h0M359,417h0M138,454h0M152,417h0M174,215h0M214,216h0M255,232h0M296,216h0M336,230h0M336,99h0M182,92h0" stroke-linecap="round" stroke="#000000" stroke-width="16.0" id="path_13"/></svg>