<svg id="vector" xmlns="http://www.w3.org/2000/svg" width="24.0d" height="24.0d" viewBox="0 0 512.0 512.0"><path fill="#e4eef7" d="m0,135c0,74 60,135 135,135l10,-30v-211l-10,-30c-74,0 -135,60 -135,135z" id="path_0"/><path fill="#d5e0f1" d="m135,0v271c74,0 135,-60 135,-135s-60,-135 -135,-135z" id="path_1"/><path fill="#ccffff" d="m30,135c0,58 47,105 105,105l10,-105 -10,-105c-58,0 -105,47 -105,105z" id="path_2"/><path fill="#00b0ef" d="m135,30v211c58,0 105,-47 105,-105s-47,-105 -105,-105z" id="path_3"/><path fill="#555578" d="m135,61c-8,0 -15,6 -15,15v60c0,8 6,15 15,15l10,-45z" id="path_4"/><path fill="#3b385c" d="m180,121h-30v-45c0,-8 -6,-15 -15,-15v90h45c8,0 15,-6 15,-15s-6,-15 -15,-15z" id="path_5"/><path fill="#ffc42b" d="m201,330c0,60 49,109 109,109l20,-111 -20,-107c-60,0 -109,49 -109,109z" id="path_6"/><path fill="#ffa736" d="m311,220v219c60,0 109,-49 109,-109s-49,-109 -109,-109z" id="path_7"/><path fill="#e4eef7" d="m111,406c-31,-2 -57,22 -57,52 0,29 23,52 52,52h70l10,-96 -10,-103c-49,-0 -83,49 -65,95z" id="path_8"/><path fill="#d5e0f1" d="m282,371c-12,0 -24,3 -35,9 -0,-38 -31,-69 -70,-69v200h105c38,0 70,-31 70,-70s-31,-70 -70,-70z" id="path_9"/><path fill="#ffa736" d="m497,315h-30c-8,0 -15,6 -15,15s6,15 15,15h30c8,0 15,-6 15,-15s-6,-15 -15,-15z" id="path_10"/><path fill="#ffa736" d="m431,231 l21,-21c5,-5 5,-15 0,-21 -5,-5 -15,-5 -21,0l-21,21c-5,5 -5,15 0,21s15,5 21,0z" id="path_11"/><path fill="#ffc42b" d="m296,144v30c0,8 6,15 15,15l10,-30 -10,-30c-8,0 -15,6 -15,15z" id="path_12"/><path fill="#ffa736" d="m311,129v60c8,0 15,-6 15,-15v-30c0,-8 -6,-15 -15,-15z" id="path_13"/><path fill="#ffa736" d="m431,428c-5,-5 -15,-5 -21,0s-5,15 0,21l21,21c5,5 15,5 21,0 5,-5 5,-15 0,-21z" id="path_14"/></svg>