<svg id="vector" xmlns="http://www.w3.org/2000/svg" width="24.0d" height="24.0d" viewBox="0 0 512.0 512.0"><path fill="#eefaff" d="m256,10c-88,0 -166,71 -166,160v299h332v-299c0,-88 -77,-160 -166,-160z" stroke="#000000" stroke-width="12.0" id="path_0"/><path fill="#ffda8f" d="m256,422c132,0 245,80 246,80h-492c63,-35 139,-80 246,-80z" stroke="#000000" stroke-width="12.0" id="path_1"/><path fill="#8690a6" d="m316,116v40h-40v80h-40v-80h-40v-40h40v-40h40v40z" stroke="#000000" stroke-width="12.0" id="path_2"/><path fill="#a7e8a6" d="M70,316h-20c22,0 40,18 40,40v60c0,-33 -26,-60 -60,-60h-20c22,0 40,18 40,40v82l80,-34v-67c0,-33 -27,-60 -60,-60zM482,356c-33,0 -60,26 -60,60v-60c0,-22 18,-40 40,-40h-20c-33,0 -60,26 -60,60v67l80,34v-82c0,-22 18,-40 40,-40z" stroke="#000000" stroke-width="12.0" id="path_3"/><path fill="none" d="M336,266h-160M336,306h-160M336,346h-160" stroke-linecap="round" stroke="#000000" stroke-width="12.0" id="path_4"/></svg>