<svg id="vector" xmlns="http://www.w3.org/2000/svg" width="24.0d" height="24.0d" viewBox="0 0 512.0 512.0"><path fill="#81992b" d="M324.5,334v35c0,0.6 -0,1 -0,2c-1,35 -29.8,63 -65,63.3V481h8.7c12.8,0 23,10 23,23H247.3c-13.5,0 -24.5,-11 -24.5,-24.5V290.8L324.5,334z" id="path_0"/><path fill="#6f8421" d="M324.5,334v35c0,0.6 -0,1 -0,2c-17,8.7 -36.6,13.7 -57,13.7h-31l-13,0.3v-94.4L324.5,334z" id="path_1"/><path fill="#94ad38" d="M504,74.4h-83.5l24.4,25.9h58l-14.8,33h-94l-1,89.8c-0.7,69 -57,124.6 -126,124.6h-31l-25.7,0.7l-76,2C120.8,420 73,478 7.7,504.4l12,-18c19,-28.8 29.5,-62.7 29.5,-97.4c0,-67.5 27,-128.7 71.6,-173s105.4,-71.6 173,-71.6l20.4,-86.3c7,-29.5 33,-50.4 63.7,-50.4c3.4,0 7,0 10,0.8c3.4,0.5 6.7,1 10,2.4L504,45.5L504,74.4L504,74.4z" id="path_2"/><path fill="#b1c167" d="M415,133.5h-20.7l-1,89.8c-0.7,69 -57,124.6 -126,124.6h-31l-25.7,0.7l-26,-37c0,0 51.7,16 127.6,-25.8c75,-41.8 38.8,-205.4 38,-208l15.5,50.8L415,133.5z" id="path_3"/><path fill="#81992b" d="M235.8,327.8v41.3c0,36 -29,65 -65,65.3l0,0v46.5h8.7c12.8,0 23,10 23,23l0,0h-43.8c-13.5,0 -24.5,-11 -24.5,-24.5v-57c0,-8.8 4,-17 11,-22.4l25,-19l-17,-10.8c-36,-23 -37.4,-75.5 -2,-100l0,0l22.8,-1C207.6,267.4 235.8,294 235.8,327.8z" id="path_4"/><path fill="none" d="M415,46.4l10,3z" stroke-linejoin="round" stroke="#000000" stroke-width="12.0" id="path_5"/><path fill="#000000" d="M341.4,314c-6,5 -13,9.4 -20,13c-0,0 -0.5,0 -0.8,0.4c-16,8 -34.4,12.6 -53,12.6h-23.8v-30.3c0,-4 -3.4,-7.5 -7.5,-7.5c-4,0 -7.5,3.4 -7.5,7.5v59c0,31.8 -26,57.7 -57.7,57.7c-4,0 -7.5,3.4 -7.5,7.5v46.5c0,4 3.4,7.5 7.5,7.5h8.7c5.8,0 11,3 13.6,8h-34c-9,0 -17,-7.6 -17,-16.9v-57c0,-6.4 3,-12.5 8,-16.4l25,-19c2,-1.4 3,-3.8 3,-6.3c-0,-2.4 -1.4,-4.7 -3.5,-6l-17,-10.8c-15,-9.4 -24,-25.5 -24.4,-43s8,-34 22.5,-44c3.4,-2 4,-7 2,-10.5c-2,-3.4 -7,-4 -10.5,-2c-18.6,13 -29.5,34 -29,57c0,11 3,21.4 8,30.7c-6.4,31.7 -20.7,61.7 -41,86.8c-15,18.7 -34,34.5 -55,46.5c18,-29 27.5,-62 27.5,-96.4c0,-7.8 0,-15.8 1,-23.6c0.4,-4 -2.6,-7.8 -6.8,-8.3c-4,-0.4 -7.8,2.6 -8,6.8c-0.8,8 -1,16.7 -1,25c0,33 -9.7,65.4 -28,93L1.4,500c-1.8,2.7 -1.6,6.4 0.4,9c1.4,1.8 3.6,2.8 5.8,2.8c1,0 2,-0 2.8,-0.5c33,-13.4 63,-35 85.7,-63c19,-23.6 33.5,-51 41.4,-80.6c3.4,3.4 7,6.4 11.4,9l7.8,5l-16.4,12.3c-9,6.7 -14,17 -14,28.5v57c0,17.7 14.4,32 32,32h43.8c4,0 7.5,-3.4 7.5,-7.5c0,-17 -13.8,-30.7 -30.7,-30.7h-1v-31.7c13.8,-1.4 26.5,-6.7 37,-14.8v53c0,17.7 14.4,32 32,32h43.8c4,0 7.5,-3.4 7.5,-7.5c0,-17 -13.8,-30.7 -30.7,-30.7h-1v-31.7c36.6,-3.8 65,-34.8 65,-72.5v-30.4c6.6,-3.6 13,-7.8 18.8,-12.6c3,-2.6 3.7,-7.4 1,-10.6C349.5,312 344.7,311.6 341.4,314zM317,369c0,31.8 -26,57.7 -57.7,57.7c-4,0 -7.5,3.4 -7.5,7.5V481c0,4 3.4,7.5 7.5,7.5h8.7c5.8,0 11,3 13.6,8h-34c-9,0 -17,-7.6 -17,-16.9v-68.8c8,-11.8 13,-26 13,-41.6v-13.6h23.8c17,0 34,-3 49.6,-9.5V369z" id="path_6"/><path fill="#000000" d="M511.8,74.4V45.5c0,-3 -2,-6 -5,-7L401,3.6c-3.6,-1 -7.4,-2 -11,-2.7C386,0 382,0 378,0c-34,0 -63,23 -71,56l-19,80.5c-65,1.5 -126,27.5 -172,73.8c-35,35 -58.8,79 -68.7,127.5c-0.8,4 1.8,8 6,9c0.5,0 1,0 1.5,0c3.5,0 6.7,-2.4 7.4,-6c9,-45.4 31.6,-86.8 64.6,-119.8c2.6,-2.6 5,-5 8,-7.6l7,6c1.4,1 3,1.7 4.8,1.7c2,0 4,-1 5.8,-2.7c2.6,-3 2,-8 -1,-10.6l-5,-4.3c7,-5.7 14.6,-11 22,-15.8l4.6,7.7c1.4,2 4,3.6 6.5,3.6c1,0 2.6,-0 4,-1c3.5,-2 4.7,-6.8 2.5,-10.4l-4.5,-7.5c7.4,-4 15,-7.6 23,-10.8l3.6,10.5c1,3 4,5 7,5c0.8,0 1.6,-0 2.4,-0.4c4,-1 6,-5.6 4.7,-9.6l-3.7,-11c9,-3 18.8,-5.6 28,-7.5l5.4,16c1,3 4,5 7,5c0.8,0 1.6,-0 2.4,-0.3c4,-1 6,-5.6 4.7,-9.6l-4.6,-13.7c9,-1 18,-1.8 27.7,-2l17,21.3c1.4,1.8 3.7,2.8 6,2.8c1.6,0 3,-0.5 4.7,-1.6c3,-2.6 3.8,-7 1,-10.6l-17,-21.4l19.5,-82.7c6,-26 29,-44.5 56,-44.5c3,0 6,0 9,0.7c3,0.4 6,1 9,2L496.6,51v15.7h-76c-0,0 -0,0 -0,0h-26c-4,0 -7.5,3.4 -7.5,7.5s3.4,7.5 7.5,7.5h23l22,23.5c1,1.5 3.4,2 5.5,2.3h46.3l-8,17.9H373l-1,-1.5c-15,-26 -18.8,-57.5 -9.6,-86.4c1,-4 -1,-8 -5,-9.5c-4,-1 -8,1 -9.5,5c-10.5,33 -6.4,69 11,98.7l3,5.3c1,2 3.8,3.7 6.5,3.7h17.8l-1,82c-0,26.7 -9,51.8 -26,72.7c-2.6,3 -2,8 1,10.6c3,2.6 8,2 10.6,-1c17,-21.5 27,-47 29,-74.5h17.5v9c0,4 3.4,7.5 7.5,7.5c4,0 7.5,-3.4 7.5,-7.5v-16.7c0,-4 -3.4,-7.5 -7.5,-7.5h-24.7l0.8,-74.6h86.4c3,0 5.7,-1.7 7,-4.4l14.8,-33c1,-2 0.8,-5 -0.5,-7c-1.4,-2 -3.8,-3.4 -6,-3.4h-54.7l-10,-10.7h66C508.4,82 511.8,78.6 511.8,74.4z" id="path_7"/><path fill="#000000" d="M364,247.6c4,0 7.5,-3.4 7.5,-7.5v-16.7c0,-4 -3.4,-7.5 -7.5,-7.5h-16.5l15,-19.7c2.5,-3 1.8,-8 -1.4,-10.6c-3,-2.5 -8,-1.8 -10.6,1.4l-24,32c-1.7,2 -2,5 -0.7,8c1,2.5 4,4 6.8,4h24.3v9C356,244 359.7,247.6 364,247.6z" id="path_8"/></svg>