<svg id="vector" xmlns="http://www.w3.org/2000/svg" width="24.0d" height="24.0d" viewBox="0 0 512.0 512.0"><path fill="#ffb042" d="M116,327c-2,0 -4,-0 -7,-1c-3,-1 -6,-5 -7,-8l-25,-78c-2,-8 1,-16 9,-19l75,-24c3,-1 8,-0 11,1c3,1 6,5 7,8l25,78c2,8 -1,16 -9,19l-75,23C119,326 118,327 116,327z" id="path_0"/><path fill="#8fd85e" d="M344,389c-2,0 -5,-0 -7,-2l-75,-42c-7,-4 -9,-13 -5,-20l48,-85c7,-13 18,-23 31,-30c8,-4 14,-10 18,-18l28,-51c2,-3 5,-6 9,-7c3,-1 8,-0 11,1l39,22c7,4 9,13 5,20l-28,51c-4,7 -6,16 -5,25c1,15 -2,29 -9,42l-48,85C354,386 349,389 344,389z" id="path_1"/><path fill="#d55f05" d="M448,327c-12,-36 -46,-61 -86,-61c-10,0 -19,1 -29,4c-22,-28 -56,-44 -92,-44c-40,0 -77,20 -99,53c-4,-0 -7,-1 -11,-1c-39,0 -71,30 -73,68C24,350 0,377 0,409c0,35 28,63 63,63h374c40,0 73,-33 73,-73C512,363 484,332 448,327z" id="path_2"/><path fill="#b34f03" d="M237,332c-14,0 -26,5 -36,15c-9,-9 -22,-15 -36,-15c-28,0 -51,23 -51,51c0,8 6,15 15,15s15,-6 15,-15c0,-11 9,-21 21,-21c11,0 21,9 21,21c0,8 6,15 15,15s15,-6 15,-15c0,-11 9,-21 21,-21c8,0 15,-6 15,-15C252,339 246,332 237,332z" id="path_3"/><path fill="#d55f05" d="M191,151c-3,0 -7,-1 -10,-4c-18,-18 -18,-44 -0,-62c3,-3 4,-6 4,-9c0,-4 -2,-7 -4,-10c-5,-5 -5,-15 -0,-21c5,-5 15,-5 21,-0c9,9 13,20 13,31c-0,11 -5,22 -13,30c-3,3 -8,11 0,19c5,5 5,15 0,21C199,149 195,151 191,151z" id="path_4"/><path fill="#d55f05" d="M257,151c-3,0 -7,-1 -10,-4c-9,-9 -13,-20 -13,-31c0,-11 5,-22 13,-30c3,-3 8,-11 0,-19c-5,-5 -5,-15 0,-21c5,-5 15,-5 21,0c18,18 18,44 0,62c-3,3 -4,6 -4,9c-0,4 2,7 4,10c5,5 5,15 0,21C264,149 260,151 257,151z" id="path_5"/><path fill="#b34f03" d="M322,151c-3,0 -7,-1 -10,-4c-18,-18 -18,-44 0,-62c3,-3 8,-11 0,-19c-5,-5 -5,-15 0,-21c5,-5 15,-5 21,0c18,18 18,44 0,62c-3,3 -8,11 0,19c5,5 5,15 0,21C330,149 326,151 322,151z" id="path_6"/><path fill="#b34f03" d="M448,327c-12,-36 -46,-61 -86,-61c-10,0 -19,1 -29,4c-19,-24 -48,-40 -79,-44v247h184c40,0 73,-33 73,-73C512,363 484,332 448,327z" id="path_7"/><path fill="#b34f03" d="M267,42c-3,-3 -9,-5 -14,-4v111c1,0 2,0 3,0c3,0 7,-1 10,-4c5,-5 5,-15 -0,-21c-2,-2 -4,-5 -4,-10c0,-3 1,-6 4,-9C285,87 285,61 267,42z" id="path_8"/></svg>