<svg id="vector" xmlns="http://www.w3.org/2000/svg" width="24.0d" height="24.0d" viewBox="0 0 512.0 512.0"><path fill="none" d="M68,156 a70,80 90, 1 0, 420 0 a70,80 90, 1 1, -420 0z" stroke-linejoin="round" stroke-linecap="round" stroke="#000000" stroke-width="20.0" id="path_0"/><path fill="#a0e5a5" d="M335,281 l42,73 57,98c16,29 60,3 43,-25l-96,-166 -44,-76c-9,14 -24,25 -41,29zM179,262 l-68,118 -28,48c-16,29 27,54 43,25l57,-98 42,-73 38,-66c-17,-4 -32,-15 -41,-29z" stroke="#000000" stroke-width="12.0" id="path_1"/><path fill="#ffe6b4" d="m41,317 l-20,35c-1,1 -1,3 -2,5v6c0,4 3,8 8,11l24,14 18,-32 18,-32 -24,-14c-7,-4 -18,-1 -22,6z" stroke-linejoin="round" stroke="#000000" stroke-width="12.0" id="path_2"/><path fill="#f1c6dd" d="m305,149c0,13 -11,25 -25,25 -13,0 -25,-11 -25,-25 0,-13 11,-25 25,-25 13,0 25,11 25,25zM238,96c-15,12 -25,31 -25,53 0,13 3,25 10,36 9,14 24,25 41,29 5,1 10,2 16,2 5,0 11,-0 16,-2 17,-4 32,-15 41,-29 6,-10 10,-22 10,-36 0,-21 -10,-40 -25,-53 -11,-9 -26,-14 -42,-14 -15,0 -30,5 -42,14z" stroke="#000000" stroke-width="12.0" id="path_3"/><path fill="#ffcd69" d="m273,10c-13,0 -22,11 -24,24l-10,61c11,-9 26,-14 42,-14 15,0 30,5 42,14l-10,-61c-2,-13 -11,-24 -24,-24z" stroke="#000000" stroke-width="12.0" id="path_4"/><path fill="#e38eba" d="m280,124c-13,0 -25,11 -25,25 0,13 11,25 25,25 13,0 25,-11 25,-25 0,-13 -11,-25 -25,-25z" stroke="#000000" stroke-width="16.0" id="path_5"/><path fill="none" d="M74,360l28,16 M88,466l-20,30 M470,468l20,30" stroke-linecap="round" stroke="#000000" stroke-width="20.0" id="path_6"/></svg>