<svg id="vector" xmlns="http://www.w3.org/2000/svg" width="24.0d" height="24.0d" viewBox="0 0 512.0 512.0"><path fill="#faf7f5" d="m328,91c18,-20 44,-33 74,-33 54,0 99,44 99,99s-44,99 -99,99c-21,0 -41,-6 -57,-18" stroke="#000000" stroke-width="12.0" id="path_0"/><path fill="#ff7d97" d="m344,175h37v31h37v-31h31v-37h-31v-31h-37v31h-39" stroke="#000000" stroke-width="12.0" id="path_1"/><path fill="#ffe6b4" d="m328,391c27,-5 48,-29 48,-58 0,-12 -3,-24 -10,-33 -14,-21 -22,-46 -22,-72v-67c0,-82 -67,-149 -149,-149 -82,0 -149,66 -149,149v67c0,25 -8,50 -22,72 -6,9 -10,21 -10,33 0,28 19,51 45,58" stroke="#000000" stroke-width="12.0" id="path_2"/><path fill="#ffdcd5" d="m330,201c-1,-12 -11,-21 -23,-23 -3,-0 -7,0 -10,1 0,-19 -15,-34 -34,-34h-6l-26,-32 -30,32h-76c-19,0 -34,15 -34,34 -3,-1 -6,-1 -10,-1 -12,1 -22,10 -23,23 -1,15 10,29 26,29 2,0 5,-0 7,-1v33c0,41 77,49 77,49v43h52v-43s77,-8 77,-49v-33c2,0 5,1 7,1 15,0 27,-13 26,-29z" stroke="#000000" stroke-width="12.0" id="path_3"/><path fill="#ccf5fc" d="m147,502h-87v-112c0,-18 15,-34 34,-33h198c18,0 34,15 34,33v111h-88z" stroke="#000000" stroke-width="12.0" id="path_4"/><path fill="#99ebfa" d="M237,438a26,26 0,1 0,52 0a26,26 0,1 0,-52 0z" stroke="#000000" stroke-width="12.0" id="path_5"/><path fill="#faf7f5" d="m193,416 l-38,-60h77z" stroke="#000000" stroke-width="12.0" id="path_6"/><path fill="#000000" d="m152,193c-5,0 -10,4 -10,10v10c0,5 4,10 10,10s10,-4 10,-10v-10c0,-5 -4,-10 -10,-10z" id="path_7"/><path fill="#000000" d="m233,193c-5,0 -10,4 -10,10v10c0,5 4,10 10,10s10,-4 10,-10v-10c0,-5 -4,-10 -10,-10z" id="path_8"/><path fill="#000000" d="m202,249c-5,5 -14,5 -19,0 -4,-4 -10,-3 -14,0s-3,10 0,14c6,6 15,9 24,9 8,0 17,-3 24,-9 4,-4 4,-10 0,-14 -4,-4 -10,-4 -14,-0z" id="path_9"/></svg>