<svg id="vector" xmlns="http://www.w3.org/2000/svg" width="24.0d" height="24.0d" viewBox="0 0 512.0 512.0"><path fill="#685e68" d="m98,84c3,-14 14,-27 27,-34 1,-1 4,0 4,2 0,7 4,13 9,19 5,6 13,11 21,15 38,19 83,26 116,54 23,19 38,48 61,69 19,18 10,26 -33,20 -61,-8 -172,-41 -203,-98 -5,-9 -4,-41 -2,-48z" stroke="#000000" stroke-width="16.0" id="path_0"/><path fill="#918291" d="m504,504v-268l-86,-2c-39,-1 -77,-11 -112,-29 -48,-25 -114,-60 -119,-64l-76,85 148,260c6,11 18,18 32,18h214z" stroke="#000000" stroke-width="16.0" id="path_1"/><path fill="#ffcebf" d="M199,199a96,31 92,1 0,7 -191a96,31 92,1 0,-7 192zM7,104a96,31 87,1 0,62 -2a96,31 87,1 0,-62 2z" stroke="#000000" stroke-width="16.0" id="path_2"/><path fill="#918291" d="m25,191c0,30 5,59 14,88 9,28 14,58 14,88 0,22 17,39 39,39h52c22,0 39,-17 39,-39 0,-30 5,-59 14,-88 9,-28 14,-58 14,-88s-1,-68 -95,-68 -95,68 -91,68z" stroke="#000000" stroke-width="16.0" id="path_3"/><path fill="#ffcebf" d="m191,367c0,36 -31,73 -70,73s-70,-37 -70,-73 31,-57 70,-57 70,21 70,57z" stroke="#000000" stroke-width="16.0" id="path_4"/><path fill="none" d="M79,236v-8 M173,236v-8 M105,360 l-14,-10 M151,350 l-14,10" stroke-linecap="round" stroke="#000000" stroke-width="16.0" id="path_5"/></svg>