<svg id="vector" xmlns="http://www.w3.org/2000/svg" width="24.0d" height="24.0d" viewBox="0 0 512.0 512.0"><path fill="#eb966d" d="m127.4,32.9h257v479h-257z" id="path_0"/><path fill="#a95118" d="m99.6,0c-2.8,0 -5,2 -5,5v501.6c0,2.8 2,5 5,5h27.8v-479h257v479h27.8c2.8,0 5,-2 5,-5v-501.6c0,-2.8 -2,-5 -5,-5z" id="path_1"/><path fill="#d56723" d="M336,246.7h-165.8v-166.6c0,-2.8 2,-5 5,-5h160.7c2.8,0 5,2 5,5v161.4c0,2.8 -2,5 -5,5zM336,470h-160.7c-2.8,0 -5,-2 -5,-5v-161.4c0,-2.8 2,-5 5,-5h160.7c2.8,0 5,2 5,5v161.4c0,2.8 -2,5 -5,5z" id="path_2"/><path fill="#994916" d="m366,272c0,-7.8 -6,-14 -14,-14 -5,0 -9.4,2.6 -12,6.6h-18c-4,0 -7.5,3 -7.5,7.5 0,4 3,7.5 7.5,7.5h18c2.5,4 7,6.6 12,6.6 7.8,0 14,-6 14,-14z" id="path_3"/></svg>