<svg id="vector" xmlns="http://www.w3.org/2000/svg" width="24.0d" height="24.0d" viewBox="0 0 512.0 512.0"><path fill="#ffce54" d="m313,392c-2,-17 -6,-33 -10,-48 -5,-17 -12,-33 -19,-48 -11,-22 -23,-40 -32,-53 0,0 -17,23 -3,53v0c7,13 15,29 21,48 5,14 9,30 11,48 2,15 3,31 2,48 -0,15 -2,31 -5,48 -0,2 -1,5 -2,8l-1,7h32c1,-5 2,-10 3,-16 3,-16 4,-32 5,-48 0,-16 -0,-32 -2,-48z" stroke="#000000" stroke-width="12.0" id="path_0"/><path fill="#ed5565" d="m248,296v0c7,13 15,29 21,48 5,14 9,30 11,48 2,15 3,31 2,48 -0,15 -2,31 -5,48 -0,2 -1,5 -2,8l-1,7h-202c36,-35 91,-120 51,-208h-16c0,-26 -18,-48 -40,-48 0,0 8,-32 -32,-48h-0s8,-32 -24,-56c2,-1 55,-25 24,-64h64c-7,-38 -53,-70 -55,-72l151,71h24l136,72 24,-8 -16,64 -16,16 -112,-20v21s6,6 16,19c0,0 -17,23 -3,53z" stroke="#000000" stroke-width="12.0" id="path_1"/><path fill="#000000" d="M243,136c-1,0 -2,-0 -3,-0l-32,-16c-4,-2 -5,-6 -3,-10 2,-4 6,-5 10,-3l32,16c4,2 5,6 3,10 -1,2 -4,4 -7,4z" id="path_2"/><path fill="#000000" d="M227,136c-4,0 -8,-3 -8,-8 0,-4 3,-8 8,-8h0c4,0 8,3 8,8 0,4 -3,8 -8,8z" stroke="#000000" stroke-width="12.0" id="path_3"/><path fill="#000000" d="M310,496h-32M315,448h-31M313,400h-32M303,352h-32M286,304h-32" stroke-linecap="round" stroke="#000000" stroke-width="12.0" id="path_4"/></svg>