<svg id="vector" xmlns="http://www.w3.org/2000/svg" width="24.0d" height="24.0d" viewBox="0 0 512.0 512.0"><path fill="#97dbff" d="M256,512L256,512c-1,0 -2,-0 -3,-0C94,509 4,330 94,201L221,18C229,6 242,0 256,0l0,0c14,0 27,6 35,18l127,183c89,129 -0,308 -158,310C258,512 257,512 256,512z" id="path_0"/><path fill="#55c2eb" d="M291,509c-10,1 -20,2 -31,2C258,512 257,512 256,512l0,0c-1,0 -3,-0 -4,-0C94,508 4,330 94,201L221,18C229,6 242,0 256,0c0,0 0,0 0,0c20,0 31,22 20,39L164,201C80,322 153,485 291,509z" id="path_1"/><path fill="#b8f4ff" d="M378,400c0,18 -15,33 -33,33c-18,0 -33,-15 -33,-33s15,-33 33,-33C363,367 378,382 378,400zM389,300c-12,0 -22,9 -22,22s9,22 22,22c12,0 22,-9 22,-22S402,300 389,300z" id="path_2"/></svg>