<svg id="vector" xmlns="http://www.w3.org/2000/svg" width="24.0d" height="24.0d" viewBox="0 0 512.0 512.0"><path fill="#c6c1c8" d="M427,458m-36,0a36,36 0,1 1,72 0a36,36 0,1 1,-72 0z M54,49m-31,0a31,31 0,1 1,63 0a31,31 0,1 1,-63 0" stroke="#000000" stroke-width="12.0" id="path_0"/><path fill="#c6c1c8" d="m504,259c-0,-34 -15,-65 -40,-85 -4,-3 -6,-9 -6,-15 0,-3 0,-7 0,-11 -0,-41 -34,-75 -75,-76 -16,-0 -32,4 -44,12 -1,0 -2,0 -3,-0 -18,-35 -56,-58 -98,-57 -38,1 -72,22 -90,54 -2,4 -7,7 -12,6 -1,-0 -3,0 -4,0 -20,1 -36,18 -37,39 -0,5 0,10 1,14 2,7 -1,14 -8,17 -46,19 -78,65 -77,118 1,65 57,120 122,122 23,0 44,-5 63,-16 1,-0 3,-0 3,1 9,36 49,64 97,64 52,0 95,-33 99,-75 0,-1 1,-2 2,-2 59,-1 107,-51 107,-111z" stroke="#000000" stroke-width="12.0" id="path_1"/><path fill="#000000" d="m406,237c3,2 8,0 10,-2 5,-9 8,-21 8,-32 -1,-29 -25,-53 -55,-55 -2,-0 -5,-1 -7,-3 -13,-18 -38,-22 -57,-9 -3,2 -4,6 -2,10 2,3 6,4 10,2 11,-8 28,-5 36,6 4,5 11,9 18,10 0,0 0,0 1,0 21,1 38,19 39,41 0,8 -1,17 -6,24 -2,3 -0,8 14,10z" id="path_2"/><path fill="#000000" d="m58,270c-4,-0 -7,3 -7,7 -0,13 4,27 14,37 9,10 22,15 36,15 4,0 8,-0 12,-1 6,-1 12,0 17,4 11,10 26,17 42,17 17,0 33,-7 45,-19 2,-3 2,-7 -0,-10 -3,-2 -7,-2 -10,0 -8,9 -21,14 -33,14 -11,0 -23,-4 -31,-12 -8,-7 -19,-10 -31,-8 -2,0 -5,1 -8,1 -9,0 -19,-3 -25,-10 -6,-7 -10,-16 -10,-26 0,-4 -3,-7 -5,-7z" id="path_3"/><path fill="none" d="M115,238h0M174,285h0M200,111h0M239,88h0M369,221h0M442,289h0M328,212h0M301,354h0M334,384h0M263,377h0M343,180h0" stroke-linecap="round" stroke="#000000" stroke-width="16.0" id="path_4"/></svg>