<svg id="vector" xmlns="http://www.w3.org/2000/svg" width="24.0d" height="24.0d" viewBox="0 0 512.0 512.0"><path fill="#353d4d" d="m290,209c-7,4 -16,1 -20,-6 -6,-12 -10,-25 -10,-39v-96c0,-20 -16,-37 -37,-37s-37,16 -37,37v38c0,8 -6,15 -15,15s-15,-6 -15,-15v-38c0,-16 5,-31 15,-42 12,-15 31,-25 52,-25 37,0 67,30 67,67v96c0,8 2,17 6,25 4,7 1,16 -6,20z" id="path_0"/><path fill="#e66146" d="M230,106v45l-30,15h-60l-30,-15v-45c0,-8 6,-15 15,-15h90c8,0 15,6 15,15zM230,451v46c0,8 -6,15 -15,15h-90c-8,0 -15,-6 -15,-15v-46l30,-15h60zM230,181v240l-30,15h-60l-30,-15v-240l30,-15h60z" id="path_1"/><path fill="#ffba33" d="m335,301c-5,0 -10,-3 -13,-8 -7,-14 -21,-22 -37,-21 -5,0 -11,-2 -13,-7 -2,-5 -2,-11 0,-15 8,-13 8,-30 0,-43 -3,-4 -3,-10 -0,-15 2,-5 8,-7 13,-7 15,1 30,-7 37,-21 5,-10 21,-10 26,0 7,14 21,22 37,21 5,-0 11,2 13,7s2,11 -0,15c-8,13 -8,30 0,43 3,4 3,10 0,15 -2,5 -8,8 -13,7 -15,-0 -30,7 -37,21 -2,5 -7,8 -13,8z" id="path_2"/><path fill="#353d4d" d="M110,151h120v30h-120zM110,421h120v30h-120z" id="path_3"/></svg>