<svg id="vector" xmlns="http://www.w3.org/2000/svg" width="24.0d" height="24.0d" viewBox="0 0 512.0 512.0"><path fill="#ecf4ff" d="m504,425c-10.7,-37 -31,-118.5 -42.4,-180.7 -13,-74 -53.7,-118 -65,-129.7 -1,-1 -0.7,-3.6 1,-4l11.6,-3.4c2,-0.5 2.4,-3 0.8,-4 -68,-54 -164.8,-40.8 -188,-36.6 -2,0 -3.6,-1.8 -2.6,-3.6l1.6,-3c1,-1.8 -0.5,-4 -2.6,-3.6 -89,15 -128,78 -128,78v5.5l56.6,75 23.7,13 -20,25 0.4,10.6c11,41.6 -18,119 -38.7,158 -2.7,5.4 -1,12 4,15.4 20,12 49.5,16.6 63,18 3.5,0 6,-3 5,-6.4 -1,-3 -2,-6.8 -3,-11 -1,-4 2,-8 6,-7 1,0 2.7,0 4,1.5 19.5,16 55,21.8 70.8,23.4 3.5,0 6,-3 5,-6.4 -1,-3 -2,-6.8 -3,-11 -1,-4 2,-8 6,-7 1,0 2.7,0 4,1.5 19.5,16 55,21.8 70.8,23.4 3.5,0 6,-3 5,-6.4 -1,-2.8 -2,-6 -3,-10 -1,-4 2.4,-8 6.7,-7 1,0 2,0 3,1.4 19.4,16.4 55.4,22 71,23.6 3.5,0 6,-3 5,-6.4 -1.5,-4.8 -3.4,-11 -5.6,-19 -1.5,-5.4 4.6,-9 9,-6.5 15.6,9.6 37,14.4 52,16.8 8.7,1 15.8,-6.7 13.4,-15z" stroke="#000000" stroke-width="16.0" id="path_0"/><path fill="#a79da9" d="m231.8,123.4c-4,-4.7 -10.8,-5.7 -16,-2.4l-22.5,14 0.8,3 17,14 -6,20 0,3c0,0 0,0 0.4,0 15,1 29,-9 32.6,-23.6 2.6,-10.4 -0,-20.8 -6,-28.3z" stroke="#000000" stroke-width="16.0" id="path_1"/><path fill="#7b6c79" d="m214.5,157c0,-12 -9.4,-21.6 -21,-22l-9.8,6c-5,3 -7,10 -4.7,15.7 4.6,10 14,17 26,18 5.7,-4 9.5,-10.6 9.5,-18z" stroke="#000000" stroke-width="16.0" id="path_2"/><path fill="#ffe07d" d="m177,225.4s-62.7,-9.9 -118.7,15.5l-1.7,4.6c0,-0 65,-6 93.7,17.8l29.6,-37z" stroke="#000000" stroke-width="16.0" id="path_3"/><path fill="#fff0af" d="m155,210c-7.4,-5 -13,-12 -16.5,-20 -14.4,-37 -49,-56 -49,-56 -96.6,30 -86.4,103.8 -75,139 2,6 10,6.6 13,1 28.6,-57.6 152.5,-47.4 152.5,-47.4z" stroke="#000000" stroke-width="16.0" id="path_4"/></svg>