<svg id="vector" xmlns="http://www.w3.org/2000/svg" width="24.0d" height="24.0d" viewBox="0 0 512.0 512.0"><path fill="#ffa799" d="m335,443c-26,0-59,-8-74,-56-8,-28-7,-67-7,-102 0,-32 0,-66 -7,-89 -6,-21 -17,-29 -39,-29-15,0-30,4-39,33 -8,25 -8,61 -9,96 -0,33 -1,64 -7,90 -11,44 -38,53 -59,54 -15,0 -29,-5 -41,-17 -18,-18 -31,-51 -38,-99 -4,-33 -4,-62 -4,-63 0,-11 9,-21 21,-21 11,0 21,9 21,21 0,0 0,27 4,58 7,50 19,68 25,74 4,4 8,5 10,5 5,-0 13,-0 19,-22 5,-20 5,-49 6,-80 0,-37 1,-77 11,-108 16,-52 52,-63 79,-63 39,0 67,20 80,58 9,29 9,66 9,102 -0,31 -0,64 6,86 6,19 18,29 35,27 39,-6 30,-72 26,-116 -3,-40 -7,-82 -1,-118 8,-46 32,-75 71,-87 16,-4 32,-7 48,-8 11,-0 21,8 22,20 0,11 -8,21 -20,22 -12,0 -24,2 -37,6 -23,7 -36,23 -41,53 -5,30 -1,69 2,107 5,57 7,113 -19,143 -12,13 -29,20 -51,22z" stroke="#000000" stroke-width="12.0" id="path_0"/><path fill="#ff6c55" d="M420,82c-27,12 -46,36 -54,70l40,14c4,-23 14,-37 31,-45zM54,318c-0,-3 -1,-7 -1,-11l-42,3c0,4 1,8 1,13 2,20 6,37 11,52l42,-6c-4,-11 -9,-28 -12,-51z" stroke="#000000" stroke-width="12.0" id="path_1"/></svg>