<svg id="vector" xmlns="http://www.w3.org/2000/svg" width="24.0d" height="24.0d" viewBox="0 0 512.0 512.0"><path fill="#fdbf00" d="M310,150v210c-23,19 -53,29 -84,29c-74,0 -135,-60 -135,-135c0,-74 60,-135 135,-135C256,121 286,131 310,150z" id="path_0"/><path fill="#ff9f00" d="M310,150v210c-23,19 -53,29 -84,29V120C256,121 286,131 310,150z" id="path_1"/><path fill="#5a5a5a" d="M280,351c-52,-52 -52,-138 0,-191c52,-52 138,-52 191,0c54,54 54,137 0,190C418,404 333,404 280,351z" id="path_2"/><path fill="#ff9f00" d="M211,30h30v60h-30zM211,421h30v60h-30zM98,149l-42,-42l21,-21l42,42zM77,425l-21,-21l42,-42l21,21zM0,240h61v30h-61z" id="path_3"/><path fill="#292929" d="M374,272c-17,-17 -17,-46 0,-63s46,-17 63,0c17,17 17,46 0,63C420,290 391,290 374,272z" id="path_4"/><path fill="#ff7816" d="M226,30h15v60h-15zM226,421h15v60h-15z" id="path_5"/></svg>