<svg id="vector" xmlns="http://www.w3.org/2000/svg" width="24.0d" height="24.0d" viewBox="0 0 512.0 512.0"><path fill="#88c9db" d="M306,138v39c-26,0 -48,-16 -56,-39V46c8,-23 30,-39 56,-39v39M172,301v39c26,0 48,-16 56,-39V210c-8,-23 -30,-39 -56,-39v39M350,465c-8,23 -30,39 -56,39h-57v-39V373v-39h57c26,0 48,16 56,39" stroke="#000000" stroke-width="12.0" id="path_0"/><path fill="#605d9c" d="M408,373h-248c-19,0 -36,-15 -36,-34c-0,-20 15,-36 35,-36h193c70,0 128,-56 129,-126c0,-70 -57,-128 -127,-128H229c-62,0 -124,13 -181,38l-17,7l17,7c57,25 118,38 181,38l0,0h123c19,0 36,15 36,34c0,20 -15,36 -35,36H160c-70,0 -128,56 -129,126c-0,70 57,128 127,128h303c10,0 18,-8 18,-18l0,0C481,406 448,373 408,373z" stroke="#000000" stroke-width="12.0" id="path_1"/><path fill="#000000" d="M443,418c-1,-3 -4,-5 -8,-4c-3,0 -5,2 -6,5c-0,2 0,6 2,7c2,2 6,2 9,0C443,425 444,421 443,418z" id="path_2"/></svg>