<svg id="vector" xmlns="http://www.w3.org/2000/svg" width="24.0d" height="24.0d" viewBox="0 0 512.0 512.0"><path fill="#5d5360" d="M232,328v40c0,51 -44,92 -96,87c-45,-4 -79,-44 -79,-90V264c0,-4 -3,-8 -8,-8h-32c-4,0 -8,3 -8,8v104c0,74 59,134 133,136c76,1 138,-63 138,-139v-36V184v-40c0,-51 44,-92 96,-87c45,4 79,44 79,90v101c0,4 3,8 8,8h32c4,0 8,-3 8,-8V144c0,-74 -59,-134 -133,-136c-76,-1 -138,63 -138,139v36L232,328L232,328z" stroke="#000000" stroke-width="16.0" id="path_0"/><path fill="#fff082" d="M312,328H200c-8,0 -16,-7 -16,-16V200c0,-8 7,-16 16,-16H312c8,0 16,7 16,16V312C328,320 320,328 312,328zM32,207m-32,0a32,32 0,1 1,64 0a32,32 0,1 1,-64 0M480,303m-32,0a32,32 0,1 1,64 0a32,32 0,1 1,-64 0" stroke="#000000" stroke-width="16.0" id="path_1"/><path fill="#000000" d="M272,248h-21l12,-29c1,-3 -0,-8 -4,-9c-3,-1 -8,0 -9,4l-16,40c-1,2 -0,5 0,7c1,2 3,3 6,3h21l-12,29c-1,3 0,8 4,9c1,0 1,0 2,0c3,0 5,-1 7,-4l16,-40c1,-2 0,-5 -0,-6C276,249 274,248 272,248z" id="path_2"/><path fill="#000000" d="M8,187c1,2 4,4 6,4c1,0 2,-0 3,-0c3,-1 5,-6 3,-10L14,164c-1,-3 -6,-5 -10,-3c-3,1 -5,6 -3,10L8,187zM44,190c1,0 2,0 3,0c2,0 5,-1 6,-4l8,-16c1,-3 0,-8 -3,-10c-3,-1 -8,-0 -10,3l-8,16C39,184 40,188 44,190zM503,324c-1,-3 -6,-5 -10,-3c-3,1 -5,6 -3,10l8,16c1,2 4,4 6,4c1,0 2,-0 3,-0c3,-1 5,-6 3,-10L503,324zM467,321c-3,-1 -8,-0 -10,3l-8,16c-1,3 -0,8 3,10c1,0 2,0 3,0c2,0 5,-1 6,-4l8,-16C473,327 471,323 467,321z" id="path_3"/></svg>