<svg id="vector" xmlns="http://www.w3.org/2000/svg" width="24.0d" height="24.0d" viewBox="0 0 512.0 512.0"><path fill="#000000" d="m470,139h-51c-8,0 -15,-6 -15,-15s6,-15 15,-15h51c8,0 15,6 15,15s-6,15 -15,15z" id="path_0"/><path fill="#292929" d="m403,93c-8,0 -15,-6 -15,-15v-62c0,-8 6,-15 15,-15s15,6 15,15v62c0,8 -6,15 -15,15z" id="path_1"/><path fill="#444444" d="m154,62c-8,0 -15,-6 -15,-15v-32c0,-8 6,-15 15,-15s15,6 15,15v32c0,8 -6,15 -15,15z" id="path_2"/><path fill="#444444" d="m102,145h-52c-6,0 -11,-5 -11,-11v-117c0,-8 -6,-15 -14,-15 -8,-0 -15,6 -15,14v149c0,32 26,59 59,59h34c8,0 15,-6 15,-15v-49c0,-8 -6,-15 -15,-15z" id="path_3"/><path fill="#292929" d="m501,287v-94c0,-8 -6,-15 -14,-15 -8,-0 -15,6 -15,14v69c0,6 -5,11 -11,11h-52c-8,0 -15,6 -15,15v70c0,8 6,15 15,15h34c32,0 59,-26 59,-59v-25c0,-0 0,-0 0,-0s-0,-0 -0,-0z" id="path_4"/><path fill="#5a5a5a" d="m418,418v-344c0,-6 -4,-12 -10,-13l-86,-19c-5,-1 -11,0 -14,5l-40,57c-5,7 -16,7 -22,0l-40,-51c-2,-3 -6,-5 -10,-5h-85c-7,0 -13,6 -13,13v357c0,43 -35,78 -78,78h482c-43,0 -78,-35 -78,-78z" id="path_5"/><path fill="#292929" d="m130,380h-56c-32,0 -59,-26 -59,-59v-27c0,-8 6,-15 15,-15s15,6 15,15v27c0,16 13,29 29,29h56c8,0 15,6 15,15s-6,15 -15,15z" id="path_6"/><path fill="#444444" d="m408,60 l-86,-19c-5,-1 -11,0 -14,5l-40,57c-1,2 -3,3 -6,4v388h236c-43,0 -78,-35 -78,-78v-344c-0,-6 -4,-12 -10,-13z" id="path_7"/><path fill="#ff4d4d" d="m317,223h-14c-4,0 -7,-3 -7,-7v-27c0,-19 15,-34 34,-34h36c4,0 7,3 7,7v5c0,31 -25,56 -56,56z" id="path_8"/><path fill="#ff884d" d="m206,223h14c4,0 7,-3 7,-7v-27c0,-19 -15,-34 -34,-34h-36c-4,0 -7,3 -7,7v5c0,31 25,56 56,56z" id="path_9"/><path fill="#292929" d="m315,323c-2,0 -5,-0 -8,-2l-21,-13 -29,12c-4,1 -8,1 -12,-0l-26,-14 -22,13c-5,3 -13,2 -18,-2l-17,-17c-5,-5 -5,-15 0,-21 5,-5 15,-5 21,0l9,9 19,-11c4,-2 10,-2 14,-0l27,14 29,-12c4,-1 9,-1 13,1l17,11 19,-20c5,-5 15,-6 21,-0s6,15 0,21l-27,28c-2,3 -6,4 -10,4z" id="path_10"/><path fill="#292929" d="m261,512c-8,0 -15,-6 -15,-15v-116c0,-8 6,-15 15,-15s15,6 15,15v116c0,8 -6,15 -15,15z" id="path_11"/><path fill="#000000" d="m394,512c-35,0 -64,-28 -64,-64v-30c0,-8 6,-15 15,-15s15,6 15,15v30c0,18 15,34 34,34 8,0 15,6 15,15s-6,15 -15,15z" id="path_12"/><path fill="#444444" d="m130,512c-8,0 -15,-6 -15,-15s6,-15 15,-15c18,0 34,-15 34,-34v-30c0,-8 6,-15 15,-15s15,6 15,15v30c0,35 -28,64 -64,64z" id="path_13"/><path fill="#000000" d="m332,268 l-19,20 -17,-11c-4,-2 -9,-3 -13,-1l-20,8v32l25,-10 21,13c2,1 5,2 8,2 3,0 7,-1 10,-4l27,-28c5,-5 5,-15 -0,-21s-15,-5 -21,0z" id="path_14"/><path fill="#000000" d="m261,366c-0,0 -0,0 -0,0v146c0,0 0,0 0,0 8,0 15,-6 15,-15v-116c0,-8 -6,-15 -15,-15z" id="path_15"/><path fill="#bc705d" d="m497,512h-482c-8,0 -15,-6 -15,-15 0,-8 6,-15 15,-15h482c8,0 15,6 15,15 0,8 -6,15 -15,15z" id="path_16"/><path fill="#8c4537" d="m497,481h-236v30h236c8,0 15,-6 15,-15s-6,-15 -15,-15z" id="path_17"/></svg>