<svg id="vector" xmlns="http://www.w3.org/2000/svg" width="24.0d" height="24.0d" viewBox="0 0 512.0 512.0"><path fill="#e64c3c" d="M502,308l-135,34c-6,1 -9,7 -9,13l9,114c0,4 -1,9 -5,11c-4,2 -9,2 -13,-0l-91,-62c-4,-3 -10,-2 -14,1l-91,86c-3,3 -9,4 -13,1c-4,-2 -7,-7 -6,-12l10,-143c0,-5 -2,-10 -7,-12L7,287C3,285 0,281 0,276c0,-5 3,-9 7,-11l126,-54c5,-2 8,-7 7,-12l-10,-116c-0,-4 1,-9 5,-11s9,-2 13,0l91,62c4,3 11,2 15,-1L374,3c3,-4 9,-4 14,-2c4,2 7,8 5,13l-35,181c-1,5 1,11 6,13l139,74c4,2 7,7 6,12C511,303 507,307 502,308z" id="path_0"/><path fill="#f18d46" d="M205,341c1,-19 -9,-38 -26,-46l-36,-15l36,-15c18,-8 28,-27 26,-46l-2,-31l23,16c6,4 15,7 23,7c11,-0 23,-5 30,-13l26,-28l-9,46c-4,20 5,40 22,50l41,22l-32,8c-21,6 -35,26 -32,49l2,30l-23,-16c-6,-4 -15,-7 -23,-7c-10,0 -21,4 -29,12l-20,19L205,341z" id="path_1"/></svg>