<svg id="vector" xmlns="http://www.w3.org/2000/svg" width="24.0d" height="24.0d" viewBox="0 0 512.0 512.0"><path fill="#3a3131" d="m217,90 l-9,-12 6,-4c38,-28 89,-29 91,-29h7v15h-7c-0,0 -47,0 -81,26zM217,89" id="path_0"/><path fill="#b3b3b3" d="m305,29s63,-29 184,-28v19s-48,0 -97,20" id="path_1"/><path fill="#5b5353" d="m305,54h40v65h-40zM305,54" id="path_2"/><path fill="#e6e6e6" d="m365,107h-79c-13,0 -23,10 -23,23v38h126v-38c0,-13 -10,-23 -23,-23zM365,107" id="path_3"/><path fill="#e6e6e6" d="m305,67c78,0 142,17 171,46l12,-12s-50,-72 -184,-72zM305,67" id="path_4"/><path fill="#5b5353" d="m245,111 l-139,147 -54,-66 -28,-35 172,-105 13,16zM245,111" id="path_5"/><path fill="#ff3131" d="m391,151h-131c-28,0 -50,22 -50,50v258c0,28 22,50 50,50h131c28,0 50,-22 50,-50v-258c0,-28 -22,-50 -50,-50zM391,151" id="path_6"/><path fill="#ff6e6e" d="m399,382h-13c-7,0 -13,-5 -13,-13v-108c0,-7 5,-13 13,-13h13c7,0 13,5 13,13v108c0,7 -5,13 -13,13zM399,382" id="path_7"/><path fill="#ff6e6e" d="m399,231h-13c-7,0 -13,-5 -13,-13v-13c0,-7 5,-13 13,-13h13c7,0 13,5 13,13v13c0,7 -5,13 -13,13zM399,231" id="path_8"/></svg>