<svg id="vector" xmlns="http://www.w3.org/2000/svg" width="24.0d" height="24.0d" viewBox="0 0 512.0 512.0"><path fill="#d8ecfe" d="m256,124c-181,3 -256,132 -256,132s75,128 256,132c181,-3 256,-132 256,-132s-75,-128 -256,-132z" id="path_0"/><path fill="#0182fc" d="M256,256m-132,0a131.5,131.5 0,1 1,263 0a131.5,131.5 0,1 1,-263 0" id="path_1"/><path fill="#465a61" d="m256,329c-40,0 -73,-33 -73,-73 0,-40 33,-73 73,-73 40,0 73,33 73,73 0,40 -33,73 -73,73z" id="path_2"/><path fill="#d8ecfe" d="m300,247c-19,0 -35,-16 -35,-35 0,-19 16,-35 35,-35s35,16 35,35c-0,19 -16,35 -35,35z" id="path_3"/></svg>