<svg id="vector" xmlns="http://www.w3.org/2000/svg" width="24.0d" height="24.0d" viewBox="0 0 512.0 512.0"><path fill="#ff5d9c" d="m98,219s9,-117 102,-148c39,-13 64,-31 81,-47 15,-15 42,-8 48,12 25,86 44,250 -164,302 1,-0 -68,-118 -68,-118zM98,219" stroke="#000000" stroke-width="12.0" id="path_0"/><path fill="#ff83b4" d="m353,278s54,23 67,85c5,26 18,40 30,47 10,6 9,22 -2,27 -48,18 -135,34 -200,-51 -2,-4 105,-108 105,-108zM353,278" stroke="#000000" stroke-width="12.0" id="path_1"/><path fill="#ffabcd" d="m216,228s29,-113 126,-128c40,-6 69,-19 88,-33 18,-12 43,-1 45,20 10,89 0,254 -213,269 1,-0 -46,-128 -46,-128zM216,228" stroke="#000000" stroke-width="12.0" id="path_2"/><path fill="#ffb39d" d="m45,357c-22,0 -29,-10 -29,-22 -0,-23 22,-21 22,-21 36,1 63,-7 79,-25 24,-26 19,-66 19,-67l43,-5c0,2 7,60 -30,101 -24,26 -59,39 -105,39zM45,357" stroke="#000000" stroke-width="12.0" id="path_3"/><path fill="#ffb39d" d="m301,499c22,0 29,-10 29,-22 0,-22 -22,-21 -22,-21 -36,1 -63,-7 -79,-25 -24,-26 -19,-66 -19,-67l-43,-5c-0,2 -7,60 30,101 24,26 59,39 105,39zM301,499" stroke="#000000" stroke-width="12.0" id="path_4"/><path fill="#ffcbbe" d="m354,481c22,0 29,-10 29,-22 0,-23 -22,-21 -22,-21 -36,1 -63,-7 -79,-25 -24,-26 -19,-66 -19,-67l-43,-5c-0,2 -7,60 30,101 24,26 59,39 105,39zM354,481" stroke="#000000" stroke-width="12.0" id="path_5"/><path fill="#60daa8" d="m120,238s-25,117 38,220c5,9 19,9 25,0 8,-12 17,-27 17,-27l28,14c11,5 25,0 30,-10l12,-28 38,-2c9,-0 14,-12 7,-19 -31,-33 -93,-108 -95,-180zM120,238" stroke="#000000" stroke-width="12.0" id="path_6"/><path fill="#b24e2f" d="m312,208c0,27 -21,48 -48,48 -27,0 -48,-21 -48,-48 0,-27 21,-48 48,-48 27,0 48,21 48,48zM312,208" stroke="#000000" stroke-width="12.0" id="path_7"/><path fill="#ffcbbe" d="m85,385c-22,0 -29,-10 -29,-22 -0,-22 22,-21 22,-21 36,1 63,-7 79,-25 24,-26 19,-66 19,-67l43,-5c0,2 7,60 -30,101 -24,26 -59,39 -105,39zM85,385" stroke="#000000" stroke-width="12.0" id="path_8"/><path fill="#ffddcf" d="m268,173c0,53 -42,95 -95,95 -53,0 -95,-42 -95,-95 0,-53 42,-95 95,-95 53,0 95,42 95,95zM268,173" stroke="#000000" stroke-width="12.0" id="path_9"/><path fill="#dd6642" d="m151,80c6,-1 13,-2 20,-2 48,0 88,35 94,81 -111,-10 -115,-79 -115,-79zM151,80" stroke="#000000" stroke-width="12.0" id="path_10"/><path fill="#e7896e" d="m193,80c-6,-1 -13,-2 -20,-2 -48,0 -88,35 -94,81 111,-10 115,-79 115,-79zM193,80" stroke="#000000" stroke-width="12.0" id="path_11"/><path fill="#b0f0ef" d="m66,19 l4,8c4,8 11,14 19,19l8,4c8,4 8,16 0,20l-8,4c-8,4 -14,11 -19,19l-4,8c-4,8 -16,8 -20,0l-4,-8c-4,-8 -11,-14 -19,-19l-8,-4c-8,-4 -8,-16 0,-20l8,-4c8,-4 14,-11 19,-19l4,-8c4,-8 16,-8 20,0zM66,19" id="path_12"/><path fill="#b0f0ef" d="m480,311 l2,5c2,5 7,9 12,12l5,2c5,2 5,10 0,13l-5,2c-5,2 -9,7 -12,12l-2,5c-2,5 -10,5 -13,0l-2,-5c-2,-5 -7,-9 -12,-12l-5,-2c-5,-2 -5,-10 0,-13l5,-2c5,-2 9,-7 12,-12l2,-5c2,-5 10,-5 13,0zM480,311" id="path_13"/><path fill="#000000" d="m220,205c4,0 7,-3 7,-7v-12c0,-4 -3,-7 -7,-7 -4,0 -7,3 -7,7v12c0,4 3,7 7,7zM220,205" id="path_14"/><path fill="#000000" d="m125,178c-4,0 -7,3 -7,7v12c0,4 3,7 7,7 4,0 7,-3 7,-7v-12c0,-4 -3,-7 -7,-7zM125,178" id="path_15"/><path fill="#000000" d="m190,199c2,-3 1,-8 -2,-10 -1,-0 -6,-2 -10,2 -1,2 -4,2 -5,2 -1,0 -3,-0 -5,-2 -2,-3 -6,-4 -10,-2 -3,2 -4,6 -2,10 3,5 10,9 17,9 7,0 13,-3 17,-9zM190,199" id="path_16"/></svg>