<svg id="vector" xmlns="http://www.w3.org/2000/svg" width="24.0d" height="24.0d" viewBox="0 0 512.0 512.0"><path fill="#e08ea2" d="m22,142 l23,7v-37c0,-16 13,-30 30,-30s30,13 30,30c0,-16 13,-30 30,-30s30,13 30,30c0,-16 13,-30 30,-30s30,13 30,30c0,-16 13,-30 30,-30s30,13 30,30c0,-16 13,-30 30,-30s30,13 30,30c0,-16 13,-30 30,-30s30,13 30,30c0,-16 13,-30 30,-30s30,13 30,30v37l23,-7c7,-2 15,-6 15,-15v-90c0,-8 -6,-15 -15,-15h-467c-8,0 -15,6 -15,15v90c0,8 7,12 15,15zM67,474c0,8 6,15 15,15h347c8,0 15,-6 15,-15v-90c0,-8 -7,-12 -15,-15l-23,-7v37c0,16 -13,30 -30,30s-30,-13 -30,-30c0,16 -13,30 -30,30s-30,-13 -30,-30c0,16 -13,30 -30,30 -16,0 -30,-13 -30,-30 0,16 -13,30 -30,30 -16,0 -30,-13 -30,-30 0,16 -13,30 -30,30s-30,-13 -30,-30v-37l-23,7c-7,2 -15,6 -15,15z" stroke="#000000" stroke-width="12.0" id="path_0"/><path fill="#e5ecf5" d="m46,172c22,23 43,28 60,28v-28h300v27c19,0 30,-42 60,-50v-37c0,-16 -13,-30 -30,-30s-30,13 -30,30c0,-16 -13,-30 -30,-30s-30,13 -30,30c0,-16 -13,-30 -30,-30s-30,13 -30,30c0,-16 -13,-30 -30,-30 -16,0 -30,13 -30,30 0,-16 -13,-30 -30,-30 -16,0 -30,13 -30,30 0,-16 -13,-30 -30,-30 -16,0 -30,13 -30,30 0,-16 -13,-30 -30,-30s-30,13 -30,30z" stroke="#000000" stroke-width="12.0" id="path_1"/><path fill="#e08ea2" d="m46,172c0,33 27,60 60,59v-31c-16,0 -37,-5 -60,-28zM427,294c0,13 10,24 24,24s24,-10 24,-24 -11,-25 -24,-38c-12,13 -24,25 -24,38zM70,309c10,0 19,-8 19,-19s-9,-20 -19,-30c-9,10 -19,19 -19,30 0,10 8,19 19,19zM406,232c33,0 60,-27 60,-59v-22c-29,8 -40,50 -60,50z" stroke="#000000" stroke-width="12.0" id="path_2"/><path fill="#e5ecf5" d="m346,399c0,16 13,30 30,30s30,-13 30,-30v-37c0,-33 -27,-60 -60,-60v97c0,16 -13,30 -30,30s-30,-13 -30,-30c0,16 -13,30 -30,30 -16,0 -30,-13 -30,-30 0,16 -13,30 -30,30 -16,0 -30,-13 -30,-30 0,16 -13,30 -30,30s-30,-13 -30,-30v-37c0,-33 27,-60 60,-60v37h60,60 60z" stroke="#000000" stroke-width="12.0" id="path_3"/><path fill="none" d="M106,100v68 M166,100v68 M226,100v68 M286,100v68 M346,100v68 M406,100v68 M166,340v68 M226,340v68 M286,340v68" stroke="#000000" stroke-width="12.0" id="path_4"/></svg>