<svg id="vector" xmlns="http://www.w3.org/2000/svg" width="24.0d" height="24.0d" viewBox="0 0 512.0 512.0"><path fill="#a2e62e" d="M82,129c15,-2 31,-3 45,-1 -1,-13 -1,-29 1,-45 -4,-5 -9,-11 -15,-17 -31,-31 -74,-42 -90,-42 0,14 10,58 42,90 5,5 11,10 17,15z" stroke="#000000" stroke-width="12.0" id="path_0"/><path fill="#a2e62e" d="M138,207c20,-6 40,-10 58,-11l34,34c-16,17 -45,35 -78,46 -47,15 -91,14 -106,-2 24,-24 44,-52 92,-67zM207,138c-6,20 -10,40 -11,58l34,34c17,-16 35,-45 46,-78 15,-47 14,-91 -2,-106 -24,24 -52,44 -68,95z" stroke="#000000" stroke-width="12.0" id="path_1"/><path fill="#a2e62e" d="M79,130c17,-3 34,-3 49,-2l34,34c-12,13 -34,24 -62,30 -39,7 -77,0 -93,-15 17,-17 32,-39 71,-47zM130,79c-3,17 -3,34 -2,49l34,34c13,-12 24,-34 30,-62 7,-39 0,-77 -15,-93 -17,17 -39,32 -47,71z" stroke="#000000" stroke-width="12.0" id="path_2"/><path fill="#68ca44" d="M210,279c20,-6 40,-10 58,-11l34,34c-16,17 -45,35 -78,46 -47,15 -91,14 -106,-2 24,-24 44,-52 92,-67zM279,210c-6,20 -10,40 -11,58l34,34c17,-16 35,-45 46,-78 15,-47 14,-91 -2,-106 -24,24 -52,44 -68,95z" stroke="#000000" stroke-width="12.0" id="path_3"/><path fill="#68ca44" d="M282,351c20,-6 40,-10 58,-11l34,34c-16,17 -45,35 -78,46 -47,15 -91,14 -106,-2 24,-24 44,-52 92,-67z M351,282c-6,20 -10,40 -11,58l34,34c17,-16 35,-45 46,-78 15,-47 14,-91 -2,-106 -24,24 -52,44 -68,95z" stroke="#000000" stroke-width="12.0" id="path_4"/><path fill="#68ca44" d="M353,422c20,-6 40,-10 58,-11l34,34c-16,17 -45,35 -78,46 -47,15 -91,14 -106,-2 24,-24 44,-52 92,-67zM422,353c-6,20 -10,40 -11,58l34,34c17,-16 35,-45 46,-78 15,-47 14,-91 -2,-106 -24,24 -52,44 -68,95z" stroke="#000000" stroke-width="12.0" id="path_5"/><path fill="none" d="M100,100 l400,400" stroke-linecap="round" stroke="#000000" stroke-width="12.0" id="path_6"/></svg>