<svg id="vector" xmlns="http://www.w3.org/2000/svg" width="24.0d" height="24.0d" viewBox="0 0 512.0 512.0"><path fill="#f1c395" d="M7,312h497v192h-497z" stroke="#000000" stroke-width="8.0" id="path_0"/><path fill="#4fc96e" d="M319,252s-147,-114 -312,-26v85h312z" stroke="#000000" stroke-width="8.0" id="path_1"/><path fill="#d2f6ff" d="M159,91c13,0 23,-10 23,-23s-10,-23 -23,-23c-1,0 -2,0 -3,0 0,-1 0,-2 0,-4 0,-18 -14,-32 -32,-32s-32,14 -32,32c0,1 0,2 0,4 -1,-0 -2,-0 -3,-0 -13,0 -23,10 -23,23s10,23 23,23z" stroke="#000000" stroke-width="8.0" id="path_2"/><path fill="#de9252" d="M201,312 l-60,192zM167,312 l-100,192zM167,312 l-100,192h74l60,-192zM7,312v31l39,-31zM92,312 l-84,90v81l125,-171zM92,312 l-84,90zM132,312 l-125,171zM47,312 l-39,31zM304,312 l60,192h74l-100,-192zM504,343 l-39,-31zM374,312 l130,178zM504,407 l-89,-95h-40l130,178zM504,407 l-89,-95zM235,312 l-20,192h75l-20,-192zM270,312 l20,192zM235,312 l-20,192zM304,312 l60,192zM338,312 l100,192z" stroke="#000000" stroke-width="8.0" id="path_3"/><path fill="#d18545" d="M504,312h-39l39,31z" stroke="#000000" stroke-width="8.0" id="path_4"/><path fill="#ffe563" d="M325,145c-23,0 -42,-19 -42,-42s19,-42 42,-42 42,19 42,42v42z" stroke="#000000" stroke-width="8.0" id="path_5"/><path fill="#d2f6ff" d="M421,182c13,0 23,-10 23,-23s-10,-23 -23,-23c-1,0 -2,0 -3,0 0,-1 0,-2 0,-4 0,-18 -14,-32 -32,-32s-32,14 -32,32c0,1 0,2 0,4 -1,-0 -2,-0 -3,-0 -13,0 -23,10 -23,23s10,23 23,23z" stroke="#000000" stroke-width="8.0" id="path_6"/><path fill="#b3e897" d="M504,256c-166,-62 -289,56 -289,56l289,-0z" stroke="#000000" stroke-width="8.0" id="path_7"/></svg>