<svg id="vector" xmlns="http://www.w3.org/2000/svg" width="24.0d" height="24.0d" viewBox="0 0 682.0 682.0"><path fill="#fd4848" d="M341,664 c -4,2 -8,3 -12,5 143,-4 286,-103 279,-278 -17,30 -96,30 -96,30 71,-156 -33,-233 -33,-233 11,99 -236,113 -114,-173 -263,49 -223,389 -223,389 -29,-5 -87,-66 -87,-66 -32,232 119,336 272,333z" stroke="#000000" stroke-width="20.0" id="path_0"/><path fill="#ffba4a" d="m410,488c-51,61 -140,9 -99,-86 -158,89 -68,262 27,267 5,-1 10,-3 16,-5C416,632 468,547 410,488z" stroke="#000000" stroke-width="20.0" id="path_1"/></svg>