<svg id="vector" xmlns="http://www.w3.org/2000/svg" width="24.0d" height="24.0d" viewBox="0 0 512.0 512.0"><path fill="#f7d88b" d="M197,412c-26,26 -69,26 -95,0c-26,-26 -26,-69 0,-95l32,-32l95,95L197,412z" id="path_0"/><path fill="#b38a82" d="M418,241c41,-41 40,-107 -1,-148c-40,-38 -104,-37 -143,1c-19,18 -29,42 -30,67c-0,10 -5,20 -12,27l-95,95l95,95l95,-95c7,-7 17,-11 27,-12C376,270 399,260 418,241z" id="path_1"/><path fill="#936a62" d="M260,348l-95,-95l46,-46l95,95z" id="path_2"/><path fill="#b9e8ef" d="M265,193c14,40 -62,105 -142,134c-44,16 -81,-7 -95,-48s-2,-82 42,-98C149,152 250,153 265,193zM316,245c-40,-14 -105,62 -134,142c-16,44 7,81 48,95s82,2 98,-42C357,361 357,260 316,245z" id="path_3"/><path fill="#464d59" d="M362,105c-2,0 -3,-0 -5,-2c-3,-3 -3,-7 0,-10c16,-16 27,-52 1,-79c-3,-3 -3,-7 0,-10c3,-3 7,-3 10,0c19,19 21,40 20,54c-1,17 -9,34 -21,45C366,104 364,105 362,105z" id="path_4"/><path fill="#464d59" d="M412,155c-2,0 -3,-0 -5,-2c-3,-3 -3,-7 0,-10c11,-11 28,-19 46,-21c14,-1 35,1 54,20c3,3 3,7 -0,10c-3,3 -7,3 -10,-0c-14,-14 -31,-16 -42,-15c-13,1 -27,7 -36,16C416,154 414,155 412,155z" id="path_5"/><path fill="#f7d88b" d="M48,473l24,-24M43,379h-34M142,501v-34M166,85l49,-49M215,85l-49,-49M390,435l49,-49M440,435l-49,-49M494,300h-58M465,329v-58M111,119h-58M82,148v-58" stroke-linecap="round" stroke="#f7d88b" stroke-width="16.0" id="path_6"/></svg>