<svg id="vector" xmlns="http://www.w3.org/2000/svg" width="24.0d" height="24.0d" viewBox="0 0 512.0 512.0"><path fill="#ff3980" d="M376,121c22,22 46,39 65,47c15,6 28,7 35,0L487,9L329,21l-0,-0c-6,6 -6,19 0,35C337,75 354,98 376,121zM409,200c-66,-1 -125,-27 -158,-65l-59,59c39,34 92,59 154,70L409,200z" stroke="#000000" stroke-width="16.0" id="path_0"/><path fill="#f0f0f0" d="M441,168c-19,-7 -43,-24 -65,-47c-22,-22 -38,-45 -46,-65l-79,79c33,38 92,64 158,65L441,168zM345,264c-61,-11 -114,-36 -154,-70l-40,40c8,19 24,42 46,65s46,39 65,46L345,264z" stroke="#000000" stroke-width="16.0" id="path_1"/><path fill="#ffc473" d="M96,417c-19,-19 -19,-52 0,-71c-19,19 -52,19 -71,0c19,19 19,52 0,71C44,398 76,398 96,417z" stroke="#000000" stroke-width="12.0" id="path_2"/><path fill="none" d="M101,494h0 M271,342 l-120,120 M190,302 l-60,60 " stroke-linecap="round" stroke="#000000" stroke-width="16.0" id="path_3"/></svg>