<svg id="vector" xmlns="http://www.w3.org/2000/svg" width="24.0d" height="24.0d" viewBox="0 0 512.0 512.0"><path fill="#efedee" d="M352,99l-45,32L290,256l21,123l40,33c16,-2 31,-6 46,-11V110C383,105 368,101 352,99z" id="path_0"/><path fill="#fa9f6a" d="M506,295l-4,-7l7,-8c1,-7 2,-15 2,-23c0,-69 -48,-121 -113,-145c-24,40 -37,91 -37,145s13,104 37,145C450,382 492,345 506,294L506,295z" id="path_1"/><path fill="#3a484a" d="M56,325C23,346 0,330 0,256s23,-90 56,-69V326zM201,122c-49,-61 17,-89 85,-65L201,122zM201,389c-49,61 17,89 85,65L201,389z" id="path_2"/><path fill="#e0712f" d="M95,222v66c-13,16 -27,29 -39,36C46,315 40,292 40,256s5,-59 15,-69C68,193 81,206 95,222zM352,99L201,122c0,0 19,-50 85,-65C309,64 333,78 352,99z" id="path_3"/><path fill="#fa9f6a" d="M352,412L201,389c0,0 19,50 85,65C309,447 333,433 352,413z" id="path_4"/><path fill="#efedee" d="M201,122h-0c-0,0 -0,0 -0,0l-32,34L145,266l23,89l32,34c20,9 41,17 63,21V100C243,105 222,112 201,122z" id="path_5"/><path fill="#fa9f6a" d="M315,256c0,57 13,111 37,157c-28,4 -58,3 -87,-1h-0C236,368 221,314 221,256s15,-112 43,-155h0c29,-5 59,-6 87,-1C328,144 315,199 315,256z" id="path_6"/><path fill="#fa9f6a" d="M175,256c0,47 9,93 26,134c-44,-22 -85,-58 -114,-112c-7,-13 -7,-29 0,-43c28,-53 69,-90 114,-112C184,162 175,208 175,256z" id="path_7"/><path fill="#3a484a" d="M507,279c-0,0 -12,1 -24,-2c-4,-1 -8,1 -9,5c-1,4 1,8 5,9c9,2 17,3 23,3c1,0 3,-0 4,-0c1,-5 2,-10 3,-15C509,279 508,279 507,279z" id="path_8"/><path fill="#3a484a" d="M435,273c-1,0 -2,-0 -3,-0c-3,-1 -5,-6 -3,-10c3,-7 10,-13 18,-15c8,-2 16,-1 23,3c3,2 4,7 2,10c-2,3 -7,4 -10,2c-3,-2 -7,-2 -11,-1c-3,1 -6,3 -8,7C441,272 438,273 435,273z" id="path_9"/></svg>