<svg id="vector" xmlns="http://www.w3.org/2000/svg" width="24.0d" height="24.0d" viewBox="0 0 512.0 512.0"><path fill="#7bdaa9" d="m389.5,378.8 l77.6,77.9h14.4l17.6,-17.6v-14.4l-81.6,-81.3h-14l-9.5,9.5z" id="path_0"/><path fill="#a4d7f5" d="m394.8,373 l-23,23.7 -19.4,-0.4 -23,-22.9v-18l23.6,-23.6h18l23,23z" id="path_1"/><path fill="#e8ab4c" d="m34,401.5l21,21l-20.5,20.5l-21,-21z" id="path_2"/><path fill="#000000" d="m420.7,335.7h-20.3l-6,6 -341.8,-341.8h-25.7v329.5h15v-314.5h4.5l93.6,93.6 -10,10 10.6,10.6 10,-10 42.4,42.4 -10,10 10.6,10.6 10,-10 42.4,42.4 -10,10 10.6,10.6 10,-10 42.4,42.4 -10,10 10.6,10.6 10,-10 44.7,44.7h-4.6l-28,28v25l8.6,8.6 -20.6,20.6 20.8,20.8 10.6,-10.6 -10,-10 10,-10 8,8 25.6,0.6 14.7,-15 74.6,74.9h20.7l22,-22v-20.7zM368.5,389 L355,389 351.5,385 367.5,369 357,358.4 341,374.4 336.6,370v-12.7l19,-19.3h12.7l18.5,18.5v13zM491.8,436 L478.5,449h-8l-70,-70.6 2,-2.4v-21l4,-4.3h8l77,77z" id="path_3"/><path fill="#000000" d="m26.7,344.5h15v15h-15z" id="path_4"/><path fill="#000000" d="m60,494.9h-7.6l-10.5,-10.5v-37.3l24,-24 -24,-24.3v-23.8h-15v23.8l-23.6,23.6 23.6,23.6v45l19,19h20l25,-25 -10.6,-10.6zM34,412 L44.8,422.7 35,432.6 24,422z" id="path_5"/></svg>