<svg id="vector" xmlns="http://www.w3.org/2000/svg" width="24.0d" height="24.0d" viewBox="0 0 497.0 497.0"><path fill="#b3e897" d="m0,346c69,-65 144,-112 232,-148 84,-35 174,-44 264,-42v342h-497z" id="path_0"/><path fill="#298b65" d="m336,253 l-30,30 67,56h88v-136l-41,-56h24l-40,-55 -40,55h24l-48,65h26z" id="path_1"/><path fill="#247a59" d="m420,147h24l-40,-55 -15,20 25,35h-24l71,95v-39z" id="path_2"/><path fill="#32a670" d="m209,279v60h104v-56l-49,-59h25l-45,-62h23l-38,-53 -38,52h23l-38,52v66z" id="path_3"/><path fill="#206b4e" d="m315,219 l-40,65h16l-33,54h114l-33,-54h16z" id="path_4"/><path fill="#298b65" d="m182,225h16l-40,-65 -40,65h16l-33,54h115z" id="path_5"/><path fill="#206b4e" d="m299,427 l-53,-69h25l-45,-62h23l-38,-53 -38,52h23l-45,62h25l-38,52 11,17z" id="path_6"/><path fill="#32a670" d="m334,481 l-17,-28h16l-41,-67 -41,66h16l-27,44h102z" id="path_7"/><path fill="#298b65" d="m175,497 l-51,-69h25l-45,-62h23l-38,-53 -38,52h23l-45,62h25l-51,69z" id="path_8"/><path fill="#32a670" d="m371,365 l51,-69h-25l45,-62h-23l38,-53 38,52h-23l23,32v100h-118" id="path_9"/><path fill="#206b4e" d="m322,497 l51,-69h-25l45,-62h-23l38,-53 38,52h-23l45,62h-25l51,69z" id="path_10"/><path fill="#d2f6ff" d="m83,175c11,0 20,-9 20,-20s-9,-20 -20,-20c-1,0 -2,0 -3,0 0,-1 0,-2 0,-3 0,-15 -12,-28 -28,-28s-28,12 -28,28c0,1 0,2 0,3 -1,-0 -2,-0 -3,-0 -11,0 -20,9 -20,20 0,11 9,20 20,20z" id="path_11"/><path fill="#d2f6ff" d="m341,103c11,0 20,-9 20,-20s-9,-20 -20,-20c-1,0 -2,0 -3,0 0,-1 0,-2 0,-3 0,-15 -12,-28 -28,-28s-28,12 -28,28c0,1 0,2 0,3 -1,-0 -2,-0 -3,-0 -11,0 -20,9 -20,20 0,11 9,20 20,20z" id="path_12"/><path fill="#d2f6ff" d="m170,73c11,0 20,-9 20,-20s-9,-20 -20,-20c-1,0 -2,0 -3,0 0,-1 0,-2 0,-3 0,-15 -12,-28 -28,-28s-28,12 -28,28c0,1 0,2 0,3 -1,-0 -2,-0 -3,-0 -11,0 -20,9 -20,20 0,11 9,20 20,20z" id="path_13"/></svg>