<svg id="vector" xmlns="http://www.w3.org/2000/svg" width="24.0d" height="24.0d" viewBox="0 0 512.0 512.0"><path fill="#d1d3d3" d="M492,16c-14,-13 -37,-11 -50,2L216,272c-27,-17 -64,-13 -88,10l-117,117c-4,4 -4,10 0,14c4,4 10,4 14,0l78,-78c4,-4 10,-4 14,0c4,4 4,10 0,14L39,428c-4,4 -4,10 0,14c4,4 10,4 14,0l78,-78c4,-4 11,-4 15,0c4,4 4,11 0,15l-78,78c-4,4 -4,10 0,14c4,4 10,4 14,0l79,-79c3,-3 9,-3 13,0c3,3 3,9 0,13l-79,79c-4,4 -4,10 0,14c4,4 10,4 14,0l117,-117c24,-24 27,-60 10,-88L492,69c1,-0 2,-1 2,-2C508,52 506,29 492,16z" stroke="#000000" stroke-width="12.0" id="path_0"/></svg>