<svg id="vector" xmlns="http://www.w3.org/2000/svg" width="24.0d" height="24.0d" viewBox="0 0 512.0 512.0"><path fill="#f67547" d="M236,227h65v210h-65z" id="path_0"/><path fill="#f9a167" d="M211,227h45v210h-45z" id="path_1"/><path fill="#fccc86" d="M361,167H226l30,75h30C327,242 361,208 361,167zM450,287H226l30,75h119C416,362 450,328 450,287zM421,497c0,-41 -33,-75 -75,-75h-90l-30,75H421z" id="path_2"/><path fill="#fee3ac" d="M151,167c0,41 33,75 75,75h30v-75H151zM62,287c0,41 33,75 75,75h119v-75H62zM91,497h165v-75h-90C124,422 91,455 91,497z" id="path_3"/><path fill="#9bc5ff" d="M271,75h-30c0,-24 -20,-45 -45,-45s-45,20 -45,45h-30c0,-41 33,-75 75,-75S271,33 271,75z" id="path_4"/><path fill="#69a8ff" d="M271,167h-30V75c0,-41 33,-75 75,-75s75,33 75,75h-30c0,-24 -20,-45 -45,-45s-45,20 -45,45V167z" id="path_5"/><path fill="#f9a167" d="M451,512l0,-30l-195,0l-20,15l20,15zM480,272l-224,0l-20,15l20,15l224,0zM391,152l-135,0l-20,15l20,15l135,0z" id="path_6"/><path fill="#fccc86" d="M60,482h196v30h-196zM32,272h224v30h-224zM121,152h135v30h-135z" id="path_7"/></svg>