<svg id="vector" xmlns="http://www.w3.org/2000/svg" width="24.0d" height="24.0d" viewBox="0 0 512.0 512.0"><path fill="#394949" d="M150,504h-21c-5,0 -10,-4 -10,-10v-27h41v27c0,5 -4,10 -10,10zM383,504h-21c-5,0 -10,-4 -10,-10v-27h41v27c0,5 -4,10 -10,10z" stroke="#000000" stroke-width="12.0" id="path_0"/><path fill="#e8f3ff" d="m406,473h-299c-11,0 -20,-9 -20,-20v-424c0,-11 9,-20 20,-20h299c11,0 20,9 20,20v424c-0,11 -9,20 -20,20z" stroke="#000000" stroke-width="12.0" id="path_1"/><path fill="#d8eafb" d="M406,7h-39c11,0 20,9 20,20v424c0,11 -9,20 -20,20h39c11,0 20,-9 20,-20v-424c-0,-11 -9,-20 -20,-20zM406,7h-299c-11,0 -20,9 -20,20v151h341v-151c0,-11 -9,-20 -20,-20z" stroke="#000000" stroke-width="12.0" id="path_2"/><path fill="#c1e2ff" d="m386,28v151h39v-151c0,-11 -9,-20 -20,-20h-39c11,0 20,9 20,20z" stroke="#000000" stroke-width="12.0" id="path_3"/><path fill="#688b96" d="M133,142c-7,0 -13,-6 -13,-13v-69c0,-7 6,-13 13,-13 7,0 13,6 13,13v69c-0,7 -6,13 -13,13zM133,309c-7,0 -13,-6 -13,-13v-69c0,-7 6,-13 13,-13 7,0 13,6 13,13v69c-0,7 -6,13 -13,13z" stroke="#000000" stroke-width="12.0" id="path_4"/></svg>