<svg id="vector" xmlns="http://www.w3.org/2000/svg" width="24.0d" height="24.0d" viewBox="0 0 512.0 512.0"><path fill="#efefef" d="m504,267c0,69 -41,147 -111,164 -56,13 -73,71 -137,71 -79,0 -115,-60 -161,-115 -33,-40 -87,-28 -87,-121 0,-95 80,-111 118,-145 43,-39 19,-114 130,-114 98,0 115,55 160,106 36,41 87,44 87,153z" stroke="#000000" stroke-width="12.0" id="path_0"/><path fill="#fccf3f" d="m399,268c0,53 -43,96 -96,96s-96,-43 -96,-96 43,-96 96,-96 96,43 96,96z" stroke="#000000" stroke-width="12.0" id="path_1"/><path fill="#000000" d="m260,213c-17,13 -27,33 -27,55 0,4 3,7 7,7s7,-3 7,-7c0,-17 7,-33 21,-43 3,-2 4,-7 1,-10 -2,-3 -7,-4 -10,-1z" id="path_2"/></svg>