<svg id="vector" xmlns="http://www.w3.org/2000/svg" width="24.0d" height="24.0d" viewBox="0 0 512.0 512.0"><path fill="#edf4ff" d="m256,126 l-112,64v129l112,64 112,-64v-129zM320,293 L256,330 191,293v-74l64,-37 64,37z" stroke="#000000" stroke-width="12.0" id="path_0"/><path fill="none" d="M256,216L256,106L206,56L256,106L256,26L256,106L306,56L256,106L256,216L290,236L385,181L404,112L385,181L455,140L385,181L454,199L385,181L290,236L290,276L385,331L454,312L385,331L455,370L385,331L404,399L385,331L290,276L256,296L256,406L306,456L256,406L256,486L256,406L206,456L256,406L256,296L221,276L126,331L107,399L126,331L56,371L126,331L57,312L126,331L221,276L221,236L126,181L57,199L126,181L56,140L126,181L107,112L126,181L221,236Z" stroke-linejoin="round" stroke="#000000" stroke-width="36.0" id="path_1"/><path fill="#c3ddff" d="M256,216L256,106L206,56L256,106L256,26L256,106L306,56L256,106L256,216L290,236L385,181L404,112L385,181L455,140L385,181L454,199L385,181L290,236L290,276L385,331L454,312L385,331L455,370L385,331L404,399L385,331L290,276L256,296L256,406L306,456L256,406L256,486L256,406L206,456L256,406L256,296L221,276L126,331L107,399L126,331L56,371L126,331L57,312L126,331L221,276L221,236L126,181L57,199L126,181L56,140L126,181L107,112L126,181L221,236Z" stroke-linejoin="round" stroke="#c3ddff" stroke-width="16.0" id="path_2"/></svg>