<svg id="vector" xmlns="http://www.w3.org/2000/svg" width="24.0d" height="24.0d" viewBox="0 0 460.0 460.0"><path fill="#f0651f" d="M282,69C290,80 295,94 295,108c0,35 -29,65 -65,65l-20,-53L230,0L282,69z" id="path_0"/><path fill="#f58330" d="M230,173c-35,0 -65,-29 -65,-65c0,-14 4,-28 12,-38L230,0V173z" id="path_1"/><path fill="#ffc052" d="M259,99c4,6 7,13 7,21c0,20 -16,36 -36,36l-10,-37l10,-59L259,99z" id="path_2"/><path fill="#f9d4a0" d="M230,60v97c-20,0 -36,-16 -36,-36c0,-7 2,-15 7,-21L230,60z" id="path_3"/><path fill="#cb9851" d="M378,170l51,290l-200,0l-60,-145l60,-165z" id="path_4"/><path fill="#ffc052" d="M230,460l-200,0l51,-290l148,-20z" id="path_5"/><path fill="#967151" d="M378,169l0,0H230l-20,-25l20,-25h90C347,120 374,142 378,169z" id="path_6"/><path fill="#cb9851" d="M111,200h30v30h-30zM230,120v50H81l0,-0C86,142 112,120 140,120H230z" id="path_7"/><path fill="#3c261b" d="M310,340l-100,20l20,-100C274,260 310,295 310,340z" id="path_8"/><path fill="#c53e16" d="M310,340l0,61l-80,0l-20,-61z" id="path_9"/><path fill="#f0651f" d="M230,340l0,61l-80,0l0,-61l40,-20z" id="path_10"/><path fill="#762916" d="M230,260v80h-80C150,295 185,260 230,260z" id="path_11"/></svg>