<svg id="vector" xmlns="http://www.w3.org/2000/svg" width="24.0d" height="24.0d" viewBox="0 0 512.0 512.0"><path fill="#292929" d="m201,368c-16,-23 -23,-52 -19,-81l8,-52c1,-8 9,-13 17,-12 8,1 13,9 12,17l-8,52c-3,21 1,42 13,59 4,6 3,16 -3,21 -6,4 -16,3 -21,-3z" id="path_0"/><path fill="#d8d2d7" d="m419,37c-20,-3 -42,1 -59,13l-109,78 35,50 111,-80c2,-1 5,-2 8,-1l92,20c6,1 12,-3 12,-9v-41c0,-4 -3,-8 -7,-9z" id="path_1"/><path fill="#292929" d="m311,179 l-56,39 -21,15 -52,-74c8,-6 71,-49 78,-54 4,-3 11,-2 14,2l40,57c3,4 2,11 -2,14z" id="path_2"/><path fill="#676e74" d="m70,473 l-50,-9c-5,-1 -9,-6 -8,-11l16,-90 70,12 -16,90c-1,5 -6,9 -11,8z" id="path_3"/><path fill="#ff5e95" d="m276,246 l-99,-17 -19,-3c-20,-3 -39,12 -38,33l4,150 -104,-18c-12,-2 -19,-13 -17,-25l29,-165c2,-15 17,-26 33,-23 17,3 33,-8 36,-25l1,-8c2,-15 17,-26 33,-23l43,7 6,1c7,1 13,5 18,11z" id="path_4"/><path fill="#d8d2d7" d="m278,231c-29,-5 -9,-1 -101,-18 -5,-1 -10,-2 -16,-3 -29,-5 -57,18 -56,48l4,150c0,6 4,12 11,14l57,14 33,8c40,10 80,-20 80,-62l0,-137c0,-7 -5,-13 -12,-14zM260,384c-0,7 -2,13 -5,19 -7,11 -22,18 -37,14l-40,-10 -39,-9 -3,-139c-0,-11 9,-20 21,-18 3,0 11,2 22,3 29,5 76,13 84,14z" id="path_5"/></svg>