<svg id="vector" xmlns="http://www.w3.org/2000/svg" width="24.0d" height="24.0d" viewBox="0 0 512.0 512.0"><path fill="#b4e7fd" d="m244,7c-87,0 -157,70 -157,157v185c0,37 -12,74 -36,103 -16,20 -2,50 24,50h55l-0,-0h139c73,0 132,-59 132,-132v-206c0,-87 -70,-157 -157,-157z" stroke="#000000" stroke-width="12.0" id="path_0"/><path fill="#2dcfea" d="m173,291h73c18,0 33,14 33,33 0,18 -14,33 -33,33h-73" stroke="#000000" stroke-width="12.0" id="path_1"/><path fill="#2dcfea" d="m401,291h33c18,0 33,14 33,33 0,18 -14,33 -33,33h-33z" stroke="#000000" stroke-width="12.0" id="path_2"/><path fill="none" d="M223,215h0 M338,215h0" stroke-linecap="round" stroke="#dc8dc3" stroke-width="28.0" id="path_3"/><path fill="#000000" d="m234,178v-14c0,-4 -3,-7 -7,-7 -4,0 -7,3 -7,7v14c0,4 3,7 7,7 4,0 7,-3 7,-7z" id="path_4"/><path fill="#000000" d="m325,164v14c0,4 3,7 7,7 4,0 7,-3 7,-7v-14c0,-4 -3,-7 -7,-7 -4,0 -7,3 -7,7z" id="path_5"/><path fill="#000000" d="m299,215c-2,-3 -7,-3 -10,-0 -4,3 -12,3 -16,0 -3,-2 -7,-2 -10,0 -2,3 -2,7 0,10 5,4 11,7 18,7 6,0 13,-2 18,-7 3,-2 3,-7 0,-10z" id="path_6"/></svg>