<svg id="vector" xmlns="http://www.w3.org/2000/svg" width="24.0d" height="24.0d" viewBox="0 0 512.0 512.0"><path fill="#ed659f" d="m482,90h-452c-11,0 -20,9 -20,20v80h20v292c0,11 9,20 20,20h406c11,0 26,-9 26,-20v-292h20v-80c0,-11 -9,-20 -20,-20z" stroke="#000000" stroke-width="12.0" id="path_0"/><path fill="none" d="M32,192h450" stroke="#000000" stroke-width="16.0" id="path_1"/><path fill="#ffbe52" d="m396,10c-14,0 -24,8 -25,8 -0,0 -60,47 -63,48l-0,0c-7,-10 -21,-17 -42,-17 -19,0 -32,6 -40,16 -67,-52 -57,-44 -61,-47 -6,-5 -15,-8 -24,-8 -32,0 -46,42 -43,80 2,28 13,54 33,59 10,2 21,0 29,-4 74,-43 58,-34 61,-36 -0,0 -104,141 -105,141l54,-14 14,54 50,-99v311h60v-311l50,99 14,-54 54,14c-5,-7 -100,-137 -104,-143 38,22 14,8 64,37 8,5 18,6 29,4 20,-4 31,-30 33,-59 2,-38 -11,-80 -43,-79z" stroke="#000000" stroke-width="12.0" id="path_2"/><path fill="none" d="M346,92 m-128,0 a48,36 180,1 1,96 0 a48,36 0,1 1,-96 0" stroke="#000000" stroke-width="16.0" id="path_3"/></svg>