<svg id="vector" xmlns="http://www.w3.org/2000/svg" width="24.0d" height="24.0d" viewBox="0 0 480.0 480.0"><path fill="#87cee9" d="M440,344c-4,0 -8,-3 -8,-8c0,-13 -10,-24 -24,-24c-4,0 -8,-3 -8,-8s3,-8 8,-8c13,0 24,-10 24,-24c0,-4 3,-8 8,-8s8,3 8,8c0,13 10,24 24,24c4,0 8,3 8,8s-3,8 -8,8c-13,0 -24,10 -24,24C448,340 444,344 440,344zM432,304c3,2 5,5 8,8c2,-3 5,-5 8,-8c-3,-2 -5,-5 -8,-8C437,299 435,301 432,304z" id="path_0"/><path fill="#32b1cc" d="M360,408c-4,0 -8,-3 -8,-8c0,-13 -10,-24 -24,-24c-4,0 -8,-3 -8,-8s3,-8 8,-8c13,0 24,-10 24,-24c0,-4 3,-8 8,-8s8,3 8,8c0,13 10,24 24,24c4,0 8,3 8,8s-3,8 -8,8c-13,0 -24,10 -24,24C368,404 364,408 360,408zM352,368c3,2 5,5 8,8c2,-3 5,-5 8,-8c-3,-2 -5,-5 -8,-8C357,363 355,365 352,368z" id="path_1"/><path fill="#87cee9" d="M40,224c-4,0 -8,-3 -8,-8c0,-13 -10,-24 -24,-24c-4,0 -8,-3 -8,-8s3,-8 8,-8c13,0 24,-10 24,-24c0,-4 3,-8 8,-8s8,3 8,8c0,13 10,24 24,24c4,0 8,3 8,8s-3,8 -8,8c-13,0 -24,10 -24,24C48,220 44,224 40,224zM32,184c3,2 5,5 8,8c2,-3 5,-5 8,-8c-3,-2 -5,-5 -8,-8C37,179 35,181 32,184z" id="path_2"/><path fill="#87cee9" d="M72,55h336v368H72V56z" id="path_3"/><path fill="none" d="M264,126l72,-72zM264,174l120,-120zM216,432l72,-72zM168,432l120,-120z" stroke-linejoin="round" stroke="#32b1cc" stroke-width="12.0" id="path_4"/></svg>