<svg id="vector" xmlns="http://www.w3.org/2000/svg" width="24.0d" height="24.0d" viewBox="0 0 512.0 512.0"><path fill="#343c3f" d="m473,365c-2,0 -3,-0 -5,-2l-62,-62 -399,-92c-4,-1 -6,-5 -5,-9 1,-4 5,-6 9,-5l401,92c1,0 2,1 3,2l64,64c3,3 3,7 0,10 -1,1 -3,2 -5,2zM473,365" id="path_0"/><path fill="#343c3f" d="m39,365c-2,0 -3,-0 -5,-2 -3,-3 -3,-7 0,-10l64,-64c1,-1 2,-1 3,-2l401,-92c4,-1 8,1 9,5 1,4 -1,8 -5,9l-338,78 -61,14 -62,62c-1,1 -3,2 -5,2zM39,365" id="path_1"/><path fill="#9dcae0" d="m227,229c0,52 -38,95 -88,103 -5,0 -10,1 -15,1 -57,0 -104,-46 -104,-104 0,-57 46,-73 104,-73 5,0 10,0 15,0h0c50,3 88,21 88,73zM227,228" id="path_2"/><path fill="#9dcae0" d="m493,229c0,52 -38,95 -87,103 -5,0 -11,1 -16,1 -57,0 -104,-46 -104,-104 0,-57 46,-73 104,-73 5,0 11,0 16,0 49,3 87,21 87,73zM493,228" id="path_3"/><path fill="#7fb6cc" d="m226,243c-1,11 -5,21 -9,31l-48,11 -61,14 -24,24c-5,-2 -9,-4 -14,-7l29,-29c1,-1 2,-1 3,-2l120,-28 -202,-46c1,-5 2,-10 4,-14zM226,243" id="path_4"/><path fill="#7fb6cc" d="m414,288 l29,29c-4,2 -9,5 -14,7l-24,-24 -109,-25h-0c-4,-9 -8,-20 -9,-31l201,-46c2,4 3,9 4,14l-202,46 120,28c1,0 2,1 3,2zM414,288" id="path_5"/><path fill="#515a5e" d="m284,236c-0,0 -1,-0 -2,-0 -17,-5 -36,-4 -53,0 -4,1 -8,-1 -9,-5 -1,-4 1,-8 5,-9 20,-5 41,-5 61,0 4,1 6,5 5,9 -1,3 -4,5 -7,5zM284,236" id="path_6"/><path fill="#515a5e" d="m389,341c-61,0 -112,-50 -112,-112 0,-54 37,-81 112,-81 6,0 11,0 17,0 62,4 94,31 94,81 0,26 -9,52 -27,73 -17,20 -41,33 -67,37 -6,1 -12,1 -18,1zM389,162c-30,0 -54,4 -70,14 -18,10 -26,27 -26,52 0,53 43,96 96,96 5,0 10,-0 15,-1 22,-3 43,-15 57,-32 15,-17 23,-40 23,-63 0,-22 -7,-38 -22,-48 -13,-9 -32,-15 -58,-17 -5,-0 -10,-0 -16,-0zM389,162" id="path_7"/><path fill="#515a5e" d="m123,341c-61,0 -112,-50 -112,-112 0,-54 37,-81 112,-81 74,0 112,27 112,81 0,61 -50,112 -112,112zM123,162c-30,0 -54,4 -70,14 -18,10 -26,27 -26,52 0,53 43,96 96,96 53,0 96,-43 96,-96 0,-24 -8,-41 -26,-52 -15,-9 -39,-14 -70,-14zM123,162" id="path_8"/></svg>