<svg id="vector" xmlns="http://www.w3.org/2000/svg" width="24.0d" height="24.0d" viewBox="0 0 512.0 512.0"><path fill="#e5646e" d="m40,485 l-27,-27c-6,-6 -6,-17 0,-24l53,-53 58,44 -60,60c-6,6 -17,6 -24,0z" id="path_0"/><path fill="#ffe07d" d="m451,192 l-23,-37 -129,-115 -37,46 -97,137 -87,92 -27,34c-5,6 -4,16 1,22l67,67c6,6 15,6 22,1z" id="path_1"/><path fill="#eef5f6" d="m450,191 l-152,-152 34,-34c6,-6 17,-6 24,0l128,128c6,6 6,17 0,24z" id="path_2"/><path fill="#deecf1" d="m492,141 l-21,-21c6,6 6,17 0,24l-34,34 21,21 34,-34c6,-6 6,-17 0,-24z" id="path_3"/><path fill="#ffd064" d="m436,177 l-310,249c-6,5 -16,4 -22,-1l21,21c6,6 15,6 22,1l34,-27 136,-121 94,-62 46,-37z" id="path_4"/><path fill="#739ad6" d="m181,420 l230,-184 -151,-151 -184,230z" id="path_5"/><path fill="#eef5f6" d="m244,287c-0,0 -0,0 -0,0 -3,3 -7,7 -10,10l-41,-41c-3,-3 -7,-3 -10,0s-3,7 0,10l46,46c2,2 6,3 9,0 0,-0 0,-0 6,-5 2,-2 6,-6 11,-11 3,-3 2,-7 -0,-10 -3,-3 -7,-2 -10,0z" id="path_6"/><path fill="#eef5f6" d="m334,198 l-14,14 -12,-12 12,-12c3,-3 3,-7 0,-10s-7,-3 -10,0l-12,12 -12,-12 14,-14c3,-3 3,-7 0,-10s-7,-3 -10,0l-19,19c-3,3 -3,7 0,10l45,45c3,3 7,3 10,0l19,-19c3,-3 3,-7 0,-10 -3,-3 -7,-3 -10,0z" id="path_7"/><path fill="#eef5f6" d="m186,299 l-13,13c-3,3 -3,7 0,10s7,3 10,0l8,-8c5,8 7,18 -1,26 -9,9 -25,9 -35,0 -9,-9 -9,-25 0,-35 3,-3 8,-6 13,-7 4,-0 6,-4 6,-8 -0,-4 -4,-6 -8,-6 -7,1 -15,5 -20,11 -15,15 -15,41 0,56s41,15 56,0c14,-14 13,-37 -3,-53 -3,-3 -7,-3 -10,0z" id="path_8"/><path fill="#eef5f6" d="m249,190c-3,3 -3,7 0,10l31,31c2,2 4,6 2,13 -0,2 -2,4 -4,6 -0,0 -0,0 -0,0 -2,2 -4,3 -7,4 -6,1 -9,-0 -12,-2l-31,-31c-3,-3 -7,-3 -10,0 -3,3 -3,7 0,10l31,31c6,6 15,9 26,6 5,-1 10,-4 14,-8l0,-0c3,-3 6,-7 7,-12 4,-14 -0,-23 -5,-29l-31,-31c-3,-3 -7,-3 -10,0z" id="path_9"/></svg>