<svg id="vector" xmlns="http://www.w3.org/2000/svg" width="24.0d" height="24.0d" viewBox="0 0 512.0 512.0"><path fill="#a7bdcd" d="m150,89h212l-14,-47 -40,-31h-101l-40,31z" stroke="#000000" stroke-width="12.0" id="path_0"/><path fill="#8aa7bd" d="m362,89h-212l6,45h80v59h40v-59h80z" stroke="#000000" stroke-width="12.0" id="path_1"/><path fill="#a7bdcd" d="m236,193v-59h-80l-14,36 5,68 21,49 53,21h69l53,-21 21,-49 5,-68 -14,-36h-80v59z" stroke="#000000" stroke-width="12.0" id="path_2"/><path fill="#8aa7bd" d="m221,310 l-53,-21 -21,-49 -31,16 -22,40 -32,22 -22,50 5,54 -7,44 -1,36h440l-1,-36 -7,-44 5,-54 -22,-50 -32,-22 -22,-40 -31,-16 -21,49 -53,21z" stroke="#000000" stroke-width="12.0" id="path_3"/><path fill="#000000" d="m365,365 l-73,0c-1,0 -2,0 -4,1l-31,15 -31,-15c-1,-0 -2,-1 -4,-1l-28,-0c-5,-0 -10,4 -10,9s4,10 9,10l26,0 28,13v68c0,5 4,10 10,10s10,-4 10,-10v-68l28,-13 71,-0c5,-0 10,-4 9,-10s-4,-9 -10,-9z" id="path_4"/><path fill="#000000" d="m236,243h40c5,0 10,-4 10,-10s-4,-10 -10,-10h-40c-5,0 -10,4 -10,10s4,10 10,10z" id="path_5"/><path fill="#000000" d="m146,365h-0c-5,0 -10,4 -10,10s4,10 10,10 10,-4 10,-10 -4,-10 -10,-10z" id="path_6"/></svg>