<svg id="vector" xmlns="http://www.w3.org/2000/svg" width="24.0d" height="24.0d" viewBox="0 0 512.0 512.0"><path fill="#795548" d="m316.8,167s83,-69 59.3,-149.5c-2,-7 -9.5,-11.3 -16.7,-9.5 -6.4,1.5 -10.8,7.5 -10.5,14 1,22.4 -5,76.6 -57,112.3z" stroke="#000000" stroke-width="16.0" id="path_0"/><path fill="#64cc56" d="m373.7,150.4c-28,-28 -26.2,-57.6 -6.8,-77s49,-21 77,6.8 30.6,87.8 24.2,94.3c-6.4,6.4 -66.4,3.7 -94.3,-24.2z" stroke="#000000" stroke-width="16.0" id="path_1"/><path fill="#ab47bc" d="M315.3,381.8m-68,0a68,68 0,1 1,135.8 0a68,68 0,1 1,-135.8 0M120.3,322.6m-68,0a68,68 0,1 1,135.8 0a68,68 0,1 1,-135.8 0M170.5,205m-68,0a68,68 0,1 1,135.8 0a68,68 0,1 1,-135.8 0" stroke="#000000" stroke-width="16.0" id="path_2"/><path fill="#ab47bc" d="M389,184m-68,0a68,68 0,1 1,135.8 0a68,68 0,1 1,-135.8 0M274.8,123m-68,0a68,68 0,1 1,135.8 0a68,68 0,1 1,-135.8 0M234.4,280.6m-68,0a68,68 0,1 1,135.8 0a68,68 0,1 1,-135.8 0" stroke="#000000" stroke-width="16.0" id="path_3"/><path fill="#ab47bc" d="M214.5,381.8m-68,0a68,68 0,1 1,135.8 0a68,68 0,1 1,-135.8 0M350.3,292.8m-68,0a68,68 0,1 1,135.8 0a68,68 0,1 1,-135.8 0M108.5,437m-67.5,0a67.5,67.5 0,1 1,135 0a67.5,67.5 0,1 1,-135 0" stroke="#000000" stroke-width="16.0" id="path_4"/></svg>