<svg id="vector" xmlns="http://www.w3.org/2000/svg" width="24.0d" height="24.0d" viewBox="0 0 512.0 512.0"><path fill="#f2f9ff" d="m366,181h-159v293h275v-208l-100,-79c-4,-3 -9,-5 -14,-5z" stroke="#000000" stroke-width="12.0" id="path_0"/><path fill="none" d="M366,354v80" stroke-linecap="round" stroke="#000000" stroke-width="12.0" id="path_1"/><path fill="#b5e245" d="M303,321c-0,-0 0,-1 1,-1 3,1 11,2 30,-0 36,-4 31,33 31,33s-43,29 -62,-32zM426,358c0,-0 -0,-1 -1,-1 -3,1 -11,4 -30,3 -30,-1 -28,37 -28,37s48,23 59,-39z" stroke-linejoin="round" stroke="#000000" stroke-width="12.0" id="path_2"/><path fill="#ce9875" d="m286,475h158v-20c0,-7 -6,-13 -13,-13h-130c-7,0 -13,6 -13,13z" stroke-linejoin="round" stroke="#000000" stroke-width="12.0" id="path_3"/><path fill="#f2f9ff" d="m30,266h213v208h-214z" stroke-linejoin="round" stroke="#000000" stroke-width="12.0" id="path_4"/><path fill="#afe2f7" d="m137,181 l-107,84h214z" stroke-linejoin="round" stroke="#000000" stroke-width="12.0" id="path_5"/><path fill="none" d="M88,270v194 M188,270v194 M38,388h199" stroke-linecap="round" stroke="#000000" stroke-width="12.0" id="path_6"/><path fill="#8fd6f7" d="m137,181h228c5,0 10,1 14,5l100,79h-237z" stroke-linejoin="round" stroke="#000000" stroke-width="12.0" id="path_7"/><path fill="#4a80aa" d="m488,503h-464c-9,0 -16,-7 -16,-16 0,-9 7,-16 16,-16h464c9,0 16,7 16,16 -0,9 -7,16 -16,16z" stroke="#000000" stroke-width="12.0" id="path_8"/><path fill="#ffd064" d="M443,69m-27,0a27,27 0,1 1,54 0a27,27 0,1 1,-54 0" stroke="#000000" stroke-width="12.0" id="path_9"/><path fill="none" d="M443,24v-7M443,117v7M478,37l5,-5M410,102l-5,5M488,69h7M392,72h7M475,102l5,5M410,37l-5,-5" stroke-linecap="round" stroke="#000000" stroke-width="12.0" id="path_10"/></svg>