<svg id="vector" xmlns="http://www.w3.org/2000/svg" width="24.0d" height="24.0d" viewBox="0 0 512.0 512.0"><path fill="#000000" d="M410,54l48,48 M424,32l56,56 M438,10l64,64" stroke-linecap="round" stroke="#000000" stroke-width="12.0" id="path_0"/><path fill="#fac574" d="m76,472c42,42 111,43 153,0 19,-20 30,-46 31,-72 0,-19 12,-36 30,-45 7,-3 14,-8 20,-14 28,-28 28,-75 -0,-103l-37,-37c-28,-28 -75,-29 -103,-0 -6,6 -10,13 -14,20 -8,17 -25,29 -45,30 -26,0 -52,11 -72,31 -42,42 -41,111 0,153z" stroke="#000000" stroke-width="12.0" id="path_1"/><path fill="#685e67" d="M185,326m-41,0a41,41 0,1 1,82 0a41,41 0,1 1,-82 0" stroke="#000000" stroke-width="12.0" id="path_2"/><path fill="#c76d3d" d="m254,289 l180,-186 -25,-25 -186,179c-2,2 -2,5 -0,7l25,25c2,2 5,2 7,-0z" stroke="#000000" stroke-width="12.0" id="path_3"/><path fill="#fac574" d="m431,105 l-24,-24c-2,-2 -2,-5 -0,-7l46,-59c4,-5 12,-6 17,-1l29,29c5,5 4,13 -1,17l-59,46c-2,1 -5,1 -7,-0z" stroke="#000000" stroke-width="12.0" id="path_4"/><path fill="#000000" d="M450,62l12,-12 M86,382l35,35 M140,400l-35,-35" stroke-linecap="round" stroke="#000000" stroke-width="12.0" id="path_5"/><path fill="#000000" d="M248,240l24,24 M272,216l24,24 M296,192l24,24 M320,168l24,24 M344,144l24,24 M368,120l24,24" stroke-linecap="round" stroke="#000000" stroke-width="16.0" id="path_6"/></svg>