<svg id="vector" xmlns="http://www.w3.org/2000/svg" width="24.0d" height="24.0d" viewBox="0 0 512.0 512.0"><path fill="#fcf1f2" d="m316,331 l102,-102 -135,-135 -102,102z" stroke="#000000" stroke-width="12.0" id="path_0"/><path fill="#ffffff" d="m52,323 l23,-23 207,63 -23,23z" stroke="#000000" stroke-width="12.0" id="path_1"/><path fill="#cbb0f2" d="m345,302 l-61,61 -207,-63 133,-133 2,37c0,2 2,4 4,4l33,2c2,0 4,2 4,4l2,33c0,2 2,4 4,4l33,2c2,0 4,2 4,4l2,33c0,2 2,4 4,4z" stroke="#000000" stroke-width="12.0" id="path_2"/><path fill="#cbb0f2" d="m236,410 l-87,87c-7,7 -20,7 -28,0l-107,-107c-7,-7 -7,-20 0,-28l16,-16z" stroke="#000000" stroke-width="12.0" id="path_3"/><path fill="#baf39a" d="M406,241 l92,-92c7,-7 7,-20 0,-28l-107,-107c-7,-7 -20,-7 -28,0l-92,92zM260,387 l-23,23 -207,-63 23,-23z" stroke="#000000" stroke-width="12.0" id="path_4"/></svg>