<svg id="vector" xmlns="http://www.w3.org/2000/svg" width="24.0d" height="24.0d" viewBox="0 0 512.0 512.0"><path fill="#ac5e2e" d="m450,393 l-21,87h-346l-11,-89c-21,-90 -21,-173 0,-263l8,-49 0,-35h352l8,35 9,40c21,90 21,184 0,274z" stroke="#000000" stroke-width="12.0" id="path_0"/><path fill="none" d="M140,64 c-20,100 -40,160 0,380 M214,64 c-10,100 -20,160 0,380 M294,64 c10,100 20,160 0,380 M370,64 c20,100 40,160 0,380" stroke-linecap="round" stroke="#000000" stroke-width="12.0" id="path_1"/><path fill="#e9edf1" d="m458,173 l-399,-1c-6,0 -11,-5 -9,-11l2,-25c0,-4 5,-8 9,-8l7,-3h386c4,0 9,3 9,8l4,26 -1,4c1,6 -3,11 -9,11z" stroke="#000000" stroke-width="12.0" id="path_2"/><path fill="#e9edf1" d="m448,384 l-387,1c-4,0 -9,-3 -9,-8l0,-26c-1,-6 -6,-16 -0,-16h411c6,0 11,5 9,11l-4,23 -9,6c-0,4 -5,8 -9,8z" stroke="#000000" stroke-width="12.0" id="path_3"/><path fill="#e9edf1" d="m429,56 l-351,1c-7,0 -7,-4 -7,-11l-5,-22c0,-7 1,-17 8,-17h364c7,0 13,5 13,13v22l-4,7c0,7 -10,6 -17,6z" stroke="#000000" stroke-width="12.0" id="path_4"/><path fill="#e9edf1" d="m420,494 l-339,4c-7,0 -13,-5 -13,-13l-1,-15c0,-7 -0,-21 6,-21h364c7,0 13,5 13,13v22l-3,7c-0,7 -19,2 -26,2z" stroke="#000000" stroke-width="12.0" id="path_5"/></svg>