<svg id="vector" xmlns="http://www.w3.org/2000/svg" width="24.0d" height="24.0d" viewBox="0 0 512.0 512.0"><path fill="#91ccff" d="m388,316c-17,56 -70,96 -132,96s-114,-40 -132,-96c88,31 176,31 265,0z" id="path_0"/><path fill="#60b7ff" d="m359,325c-18,43 -63,73 -116,73 -56,0 -103,-34 -119,-82 17,56 70,96 132,96s114,-40 132,-96c-9,3 -19,6 -29,9z" id="path_1"/><path fill="#d5eaff" d="m256,347c-45,0 -90,-7 -135,-23 -19,-6 -38,-15 -57,-24 -3,-1 -5,-6 -3,-10 1,-3 6,-5 10,-3 18,9 37,17 55,24 43,15 86,23 130,23s86,-7 130,-23c18,-6 37,-14 55,-24 3,-1 8,-0 10,3 1,3 0,8 -3,10 -19,9 -38,18 -57,24 -44,15 -89,23 -135,23z" id="path_2"/><path fill="#c6805d" d="m118,139h-22c-47,80 -70,187 -59,320h43c-16,-119 -4,-232 38,-320z" id="path_3"/><path fill="#c6805d" d="m393,139h22c47,80 70,187 59,320h-43c16,-119 4,-232 -38,-320z" id="path_4"/><path fill="#9ae59c" d="m150,139c-6,-7 -13,-12 -21,-17l30,-4 9,-18 13,14 27,-4c3,-0 5,-5 2,-8 -17,-18 -41,-28 -66,-24 -13,2 -24,7 -34,15 -4,-12 -11,-22 -21,-31 -19,-15 -45,-19 -70,-11 -3,1 -4,6 -1,8l21,17 19,-6 -1,20 23,19c-9,-0 -18,0 -26,4 -23,8 -40,29 -46,54 -0,3 2,7 6,6l24,-9 6,-16 14,8 37,-13 16,19h17l-2,17 26,31c2,3 7,2 8,-1 7,-24 3,-50 -13,-70z" id="path_5"/><path fill="#9ae59c" d="m361,139c6,-7 13,-12 21,-17l-30,-4 -9,-18 -13,14 -27,-4c-3,-0 -5,-5 -2,-8 17,-18 41,-28 66,-24 13,2 24,7 34,15 4,-12 11,-22 21,-31 19,-15 45,-19 70,-11 3,1 4,6 1,8l-21,17 -19,-6 1,20 -23,19c9,-0 18,0 26,4 23,8 40,29 46,54 0,3 -2,7 -6,6l-24,-9 -6,-16 -14,8 -37,-13 -16,19h-17l2,17 -26,31c-2,3 -7,2 -8,-1 -7,-24 -3,-50 13,-70z" id="path_6"/><path fill="#ffddce" d="m504,466h-497c-4,0 -7,-3 -7,-7s3,-7 7,-7h497c4,0 7,3 7,7s-3,7 -7,7z" id="path_7"/></svg>