<svg id="vector" xmlns="http://www.w3.org/2000/svg" width="24.0d" height="24.0d" viewBox="0 0 512.0 512.0"><path fill="#dba291" d="M467.6,246.7c-1.7,5.4 -5,9 -8.5,12c-9.8,7 -24,3 -28.6,-8.3c-1.6,-4 -2,-9 -0.7,-14.6c0.8,-3 2.6,-7 5,-10.8c9.8,-16.4 35,-9 34.6,10C469,239 468.7,243.4 467.6,246.7z" stroke="#000000" stroke-width="12.0" id="path_0"/><path fill="#fbb071" d="M503.6,336.3v0.5c0,14 -11.6,26 -26,26H47.8c-24.7,0 -43.4,-22.5 -38.7,-46.8c19,-99 99,-167 209,-167c126.8,0 187.7,96 187.7,96h4c26.8,0 51.8,13.6 66.4,36l12.6,19.6l7,11C501,319.5 503.6,327.8 503.6,336.3z" stroke="#000000" stroke-width="12.0" id="path_1"/><path fill="#e8c1b5" d="M503.6,336.3v0.4c0,14 -11.6,26 -26,26h-12.4c-7.4,-34 11,-53 24,-61.6l7,11C501,319.5 503.6,327.8 503.6,336.3z" stroke="#000000" stroke-width="12.0" id="path_2"/><path fill="#e8c1b5" d="M436,245c-0.4,1.5 -1,3 -1.7,4.4c-4,9 -14,13 -23,11.4c-3.5,-0.6 -6.8,-2 -9.7,-4.8c-3.7,-3 -7,-8 -8.4,-14c-0.8,-3.7 -1,-8.4 -0.6,-13.4c1,-21.4 30,-27 39.6,-8c2,4.5 3.8,8.8 4.5,12.6C437,237 437,241 436,245z" stroke="#000000" stroke-width="12.0" id="path_3"/><path fill="#dba291" d="M436,245c-0.4,1.5 -1,3 -1.7,4.4c-4,9 -14,13 -23,11.4c-0,-0 -0.4,-0 -0.6,-0.5c-2.7,-2.4 -5,-5.7 -6,-10c-0.6,-2.7 -0.7,-6 -0.5,-9.6c1,-15.4 21.6,-19.6 28.5,-5.7c1.5,3 2.7,6 3,9C435.8,244 436,244.5 436,245z" stroke="#000000" stroke-width="12.0" id="path_4"/><path fill="#000000" d="M441.6,290.3a7.8,7.8 0,1 0,15.6 0a7.8,7.8 0,1 0,-15.6 0z" id="path_5"/><path fill="none" d="M100,256 c80,10 100,60 100,100 M300,296 c90,10 100,60 100,60 " stroke-linecap="round" stroke="#000000" stroke-width="12.0" id="path_6"/></svg>