<svg id="vector" xmlns="http://www.w3.org/2000/svg" width="24.0d" height="24.0d" viewBox="0 0 128.0 128.0"><path fill="#7a2b4f" d="m95,89.8a1.5,1.5 0,0 0,-1.8 -1l-23.6,6.7 20,-17.9a1.5,1.5 0,1 0,-2 -2l-20.7,18.4 9,-26.8a1.5,1.5 0,1 0,-2.8 -1l-9.4,28 -9.4,-27.9a1.5,1.5 0,1 0,-2.8 1l9,26.8 -20.7,-18.3a1.5,1.5 0,1 0,-2 2l20,18 -23.6,-6.7a1.5,1.5 0,0 0,-0.8 2.8l24.7,7 -5.7,1.6a1.5,1.5 0,1 0,0.8 2.8l10.4,-3 10.4,2.9a1.5,1.5 0,0 0,0.8 -2.8l-5.7,-1.6 24.7,-7a1.5,1.5 0,0 0,1 -1.8z" id="path_0"/><path fill="#ffc466" d="m118.6,63.6a4,4 0,0 1,-1 -2.3c-0.5,-5.5 -4,-12.4 -10,-17.7 -6,-5 -13.8,-8.8 -20,-9a3.7,3.7 0,0 1,-2 -0.8c-4.6,-3.6 -13,-6 -21,-6s-16.6,2.5 -21,6a3.7,3.7 0,0 1,-2 0.8c-6,0 -14,3.8 -20,9 -5.8,5 -9.6,12 -10,17.7a4,4 0,0 1,-1 2.3c-3,3 -5.6,8.7 -6.4,14.6a5,5 0,0 0,3.5 5.5l6,1.7c34,-38.6 68,-39 103,0l6,-1.7a5,5 0,0 0,3.5 -5.5c-0.8,-5.8 -3,-11 -6.4,-14.6z" id="path_1"/><path fill="#ff5764" d="m64,37.9a51.6,51.6 0,0 0,-51.4 47.6l21.7,6c0,-13.7 13,-25.5 29.7,-25.5s29.7,11.6 29.7,25.4l21.7,-6a51.6,51.6 0,0 0,-51.5 -47.6z" id="path_2"/><path fill="#efe8dd" d="m32.6,69.4c0,-0 0,-0 0,-0a2,2 0,1 0,-1 -4,1.6 1.6,0 0,0 -0,0c0,-0 0,-0 0,-0a2,2 0,0 0,-4 0c0,0 0,0 0,0a1.6,1.6 0,0 0,-0 -0,2 2,0 1,0 -1,4c0,0 0,0 0,0a2,2 0,0 0,-0 0,2 2,0 0,0 3,2.4c0,-0 0,-0 0,-0 0,0 0,0 0,0a2,2 0,0 0,3 -2.4,2 2,0 0,0 -0,-0z" id="path_3"/><path fill="#efe8dd" d="m103,71a2,2 0,0 0,0 -0,2 2,0 1,0 -1,-4c-0,0 -0,0 -0,0 0,-0 0,-0 0,-0a2,2 0,1 0,-4 0c0,0 0,0 0,0q-0,-0 -0,-0a2,2 0,1 0,-1 4,2 2,0 0,0 0,0 1.4,1.4 0,0 0,-0 0,2 2,0 0,0 3,2.4c0,-0 0,-0 0,-0a1.7,1.7 0,0 0,0 0,2 2,0 0,0 3,-2.4 1.6,1.6 0,0 0,-0 -0z" id="path_4"/><path fill="#efe8dd" d="m92,59.3c0,-0 0,-0 0,-0a3,3 0,1 0,-2 -5.7,2 2,0 0,0 -0,0c0,-0 0,-0 0,-0a3,3 0,1 0,-6 0c0,0 0,0 0,0a2,2 0,0 0,-0 -0,3 3,0 1,0 -2,5.7c0,0 0,0 0,0a2,2 0,0 0,-0 0,3 3,0 0,0 5,3.5c0,-0 0,-0 0,-0a2.7,2.7 0,0 0,0 0,3 3,0 0,0 5,-3.5 2,2 0,0 0,-0 -0z" id="path_5"/></svg>