<svg id="vector" xmlns="http://www.w3.org/2000/svg" width="24.0d" height="24.0d" viewBox="0 0 512.0 512.0"><path fill="#fe8f8d" d="m303,156c3,-0 6,-0 9,-0 31,0 56,25 56,56 0,5 -0,11 -2,16 0,0 -12,27 -16,30 -3,2 -55,13 -72,-5 -16,-19 -28,-51 -28,-51z" stroke="#000000" stroke-width="12.0" id="path_0"/><path fill="#ff5d5d" d="m323,83c-14,-30 -40,-51 -69,-51 -35,0 -65,29 -77,71v69l59,28z" stroke="#000000" stroke-width="12.0" id="path_1"/><path fill="#72d8ff" d="M282,217s-1,-99 92,-96c0,-18 0,-38 0,-38s-154,-12 -154,106z M176,170v-95c0,-7 -5,-12 -12,-12h-27c-7,0 -12,5 -12,12v107z" stroke="#000000" stroke-width="12.0" id="path_2"/><path fill="#ff5d5d" d="m311,232s-17,-17 -77,-24c-47,-45 -92,-51 -127,-11 -35,40 -25,111 -8,139 9,25 12,43 38,73 35,41 83,70 136,83l26,6c6,1 13,2 19,2 18,0 36,-5 51,-16l6,-4c29,-21 47,-54 50,-90 2,-32 -3,-65 -16,-95l-7,-16c-15,-34 -52,-54 -89,-46 -0,0 -1,0 -2,0z" stroke-linejoin="round" stroke="#000000" stroke-width="12.0" id="path_3"/><path fill="none" d="M240,44v-30 M270,44l20-25 M350,174l10-15 M364,194h20 M108,352c70,-150 70,00 130,-150" stroke-linecap="round" stroke="#000000" stroke-width="20.0" id="path_4"/></svg>