<svg id="vector" xmlns="http://www.w3.org/2000/svg" width="24.0d" height="24.0d" viewBox="0 0 512.0 512.0"><path fill="#fd8f31" d="m126,38c4,19 28,27 43,14 2,-2 6,0 5,3 -7,18 6,38 26,36 3,-0 4,4 2,5 -17,10 -17,35 0,45 2,1 1,6 -2,5 -19,-1 -34,18 -26,36 1,3 -2,5 -5,3 -15,-13 -38,-5 -43,14 -0,3 -5,3 -6,0 -4,-19 -28,-27 -43,-14 -2,2 -6,-0 -5,-3 7,-18 -6,-38 -26,-36 -3,0 -4,-4 -2,-5 17,-10 17,-35 0,-45 -2,-1 -1,-6 2,-5 19,1 34,-18 26,-36 -1,-3 2,-5 5,-3 15,13 38,5 43,-14 0,-3 5,-3 6,0z" id="path_0"/><path fill="#fccf3f" d="m158,121c0,19 -15,34 -34,34 -19,0 -34,-15 -34,-34 0,-19 15,-34 34,-34 19,0 34,15 34,34z" id="path_1"/><path fill="#d8d8d8" d="m376,315v-253c0,-34 -27,-62 -62,-62 -34,0 -62,27 -62,62v253c-27,19 -46,52 -46,88 0,59 48,108 108,108 59,0 108,-48 108,-108 0,-36 -18,-69 -46,-88z" id="path_2"/><path fill="#f3e8d7" d="m313,476c-41,0 -74,-33 -74,-74 0,-31 19,-59 48,-69v-269c0,-14 11,-26 26,-26 14,0 26,11 26,26v269c29,10 48,38 48,70 0,41 -33,74 -74,74z" id="path_3"/><path fill="#fc4e51" d="m287,109v222c-29,10 -48,38 -48,70 0,41 33,74 74,74 41,0 74,-33 74,-74 0,-31 -19,-59 -48,-69v-222z" id="path_4"/><path fill="none" d="M462,180h-44M437,118h-20M444,55h-27M444,305h-27M437,243h-20" stroke-linecap="round" stroke="#0d6e9a" stroke-width="16.0" id="path_5"/></svg>