<svg id="vector" xmlns="http://www.w3.org/2000/svg" width="24.0d" height="24.0d" viewBox="0 0 512.0 512.0"><path fill="#ff4755" d="m67,247c-3,-28 -3,-52 -1,-71 0,0 -49,34 -33,59 8,13 22,14 34,12 -0,-0 -0,-0 -0,-0z" stroke="#000000" stroke-width="12.0" id="path_0"/><path fill="#ffa812" d="m76,128c-26,7 -45,14 -43,26 1,11 23,17 32,20 1,-19 5,-34 11,-46z" stroke="#000000" stroke-width="12.0" id="path_1"/><path fill="#ff4755" d="m107,89c15,-9 29,-11 35,-11 29,-0 46,10 56,26 9,-4 28,-17 22,-32 -8,-22 -30,-9 -30,-9s6,-15 -7,-25c-14,-10 -31,-0 -31,-0 -4,-32 -49,-39 -67,-5 -14,26 12,51 22,58z" stroke="#000000" stroke-width="12.0" id="path_2"/><path fill="#ffe9c8" d="m142,78c-13,0 -94,7 -75,168 16,141 116,186 195,186 114,-0 256,-96 214,-246 0,0 -12,-56 -56,-53 -43,2 -42,87 -135,78 -95,-9 -43,-135 -142,-132z" stroke="#000000" stroke-width="12.0" id="path_3"/><path fill="none" d="M180,270 c60,110 190,110 216,-10  M123,149h0 M200,430v40 M200,470l-30,3 M200,470l-20,23 M310,430v40 M310,470l-30,3 M310,470l-20,23" stroke-linecap="round" stroke="#000000" stroke-width="16.0" id="path_4"/></svg>