<svg id="vector" xmlns="http://www.w3.org/2000/svg" width="24.0d" height="24.0d" viewBox="0 0 512.0 512.0"><path fill="#655e67" d="m106.4,75.6c-4,0 -7.7,-3.4 -7.7,-7.7v-25.7c0,-4 3.4,-7.7 7.7,-7.7s7.7,3.4 7.7,7.7v25.7c0,4 -3.4,7.7 -7.7,7.7z" id="path_0"/><path fill="#655e67" d="m344,252c-2.6,0 -5,-1 -6.6,-3.8 -2,-3.6 -0.8,-8.4 2.8,-10.5l40.6,-23.4c3.6,-2 8.4,-0.8 10.5,2.8 2,3.6 0.8,8.4 -2.8,10.5l-40.6,23.4c-1,0.7 -2.5,1 -3.8,1z" id="path_1"/><path fill="#655e67" d="m147.7,379c-27,0 -49,-22 -49,-49v-100.4c0,-4 3.4,-7.7 7.7,-7.7s7.7,3.4 7.7,7.7v100.4c0,18.5 15,33.5 33.5,33.5s33.5,-15 33.5,-33.5v-76c0,-22.5 18,-40.8 40.8,-40.8h12.6c8,0 15.7,2 22.6,6l32,18.4c3.6,2 5,6.8 2.8,10.5 -2,3.6 -6.8,5 -10.5,2.8l-32,-18.4c-4.5,-2.6 -9.6,-4 -14.8,-3.9h-12.6c-14,0 -25,11 -25,25.3v76c0,27 -22,49 -49,49z" id="path_2"/><path fill="#717ed4" d="m349,240.8c0,-8.7 -3,-16.6 -8.5,-22.7 -4,-4.5 -6,-10.4 -6,-16.4v-30.5h-39.6v30.5c0,6 -2,12 -6,16.7 -5.4,6 -8.6,14.6 -8,23.6 0,11 6,20.7 14.5,26.8v30.6h39.6v-30.5c8.8,-6 14.5,-16.4 14.5,-28z" id="path_3"/><path fill="#f0c99d" d="m344.6,357.8v-27h-59.3v27c0,15.7 -10.6,29.4 -25.8,33 -22.8,5.8 -53.5,15.8 -59.8,28 -6,12 4.5,42 14.5,64.5 7.6,17 24.6,28 43.4,28h115c18.7,0 35.7,-11 43.4,-28 10,-22.5 20.8,-52 14.5,-64.5 -6,-12 -37,-22 -59.8,-28 -15,-4 -25.8,-17.6 -25.8,-33.3z" id="path_4"/><path fill="#e9a761" d="m430,419c-6,-12 -37,-22 -59.8,-28 -15,-4 -25.8,-17.6 -25.8,-33.3v-27h-31.9v35.3c0,15.7 10,29.4 24.7,33 21.8,5.8 51,15.8 57,28 6,12 -4,33.7 -13.8,56 -7,17 -23.5,28 -41.4,28h33c18.7,0 35.7,-11 43.4,-28 10,-22.5 20.8,-52 14.5,-64.5z" id="path_5"/><path fill="#f0e9e6" d="m315,424c-4,0 -7.7,-3.4 -7.7,-7.7v-85.7c0,-4 3.4,-7.7 7.7,-7.7s7.7,3.4 7.7,7.7v85.7c0,4 -3.4,7.7 -7.7,7.7z" id="path_6"/><path fill="#717ed4" d="m199.5,419c-6,12 4.5,42 14.5,64.5 7.6,17 24.6,28 43.4,28h115c18.7,0 35.7,-11 43.4,-28 10,-22.5 20.8,-52 14.5,-64.5 -2.4,-4.7 -8.5,-9 -16,-13h-198c-7.8,4 -14,8 -16,13z" id="path_7"/><path fill="#77d1b3" d="m87.4,78.3v140.8c0,5.7 4.6,10 10,10.3h17c5.7,0 10,-4.6 10,-10.3v-140.8c0,-5.7 -4.6,-10 -10,-10.3h-17c-5.7,0 -10,4.6 -10,10.3z" id="path_8"/><path fill="#655e67" d="m295,80.7h39.6v45.7h-39.6z" id="path_9"/><path fill="#655e67" d="m263.7,307v23.7c0,4 3,7.5 7.5,7.5h87.3c4,0 7.5,-3 7.5,-7.5v-23.7c0,-4 -3,-7.5 -7.5,-7.5h-87.3c-4,0 -7.5,3 -7.5,7.5z" id="path_10"/><path fill="#77d1b3" d="m240,134.7c0,-4.5 3.6,-8 8,-8h133.3c4.5,0 8,3.6 8,8 0,20 -16,36.4 -36.4,36.4h-77c-20,0 -36.4,-16 -36.4,-36.4z" id="path_11"/><path fill="#717ed4" d="m362.5,0h-95c-2,0 -3.7,1.7 -3.6,3.8 1,15.7 9.4,29.5 21.6,38v35c0,2 1.6,3.6 3.6,3.6h51.8c2,0 3.6,-1.6 3.6,-3.6v-35c12,-8.6 20.5,-22 21.6,-38 0,-2 -1.5,-3.8 -3.6,-3.8z" id="path_12"/><path fill="#67b59f" d="m125.5,200.8h-38c-4,0 -7.7,-3.4 -7.7,-7.7s3.4,-7.7 7.7,-7.7h38c4,0 7.7,3.4 7.7,7.7s-3.4,7.7 -7.7,7.7z" id="path_13"/><path fill="#67b59f" d="m125.5,162.7h-38c-4,0 -7.7,-3.4 -7.7,-7.7s3.4,-7.7 7.7,-7.7h38c4,0 7.7,3.4 7.7,7.7s-3.4,7.7 -7.7,7.7z" id="path_14"/></svg>