<svg id="vector" xmlns="http://www.w3.org/2000/svg" width="24.0d" height="24.0d" viewBox="0 0 512.0 512.0"><path fill="#f9d888" d="m440,211h-54c-15,0 -27,11 -29,25 -3,26 -13,53 -26,73 -18,27 -43,41 -72,41s-54,-14 -72,-41c-13,-19 -23,-46 -26,-73 -2,-14 -14,-25 -29,-25h-54s-2,236 184,236 184,-236 184,-236z" stroke="#000000" stroke-width="12.0" id="path_0"/><path fill="#f9f097" d="m458,75 l23,-27c5,-7 7,-17 3,-25 -5,-11 -17,-17 -29,-13l-65,20c-23,7 -34,33 -24,55 14,32 31,80 31,127 0,83 -47,180 -141,180s-141,-97 -141,-180c0,-47 17,-95 31,-127 10,-22 -1,-48 -24,-55l-65,-20c-11,-3 -24,2 -29,13 -3,8 -2,18 3,25l23,27c4,6 6,14 2,21 -92,196 -7,407 200,407s292,-210 200,-407c-3,-7 -2,-15 2,-21z" stroke="#000000" stroke-width="12.0" id="path_1"/><path fill="#f8d070" d="M256,448m-25,0a25,25 0,1 1,50 0a25,25 0,1 1,-50 0M140,409m-25,0a25,25 0,1 1,50 0a25,25 0,1 1,-50 0M76,306m-22,0a22,22 0,1 1,45 0a22,22 0,1 1,-45 0M371,409m-25,0a25,25 0,1 1,50 0a25,25 0,1 1,-50 0M435,306m-22,0a22,22 0,1 1,45 0a22,22 0,1 1,-45 0" stroke="#000000" stroke-width="12.0" id="path_2"/></svg>