<svg id="vector" xmlns="http://www.w3.org/2000/svg" width="24.0d" height="24.0d" viewBox="0 0 512.0 512.0"><path fill="#ffdec2" d="m206,47s-57,-6 -72,54c-4,18 -29,25 -45,19 0,0 30,74 120,22" stroke="#000000" stroke-width="12.0" id="path_0"/><path fill="#bf7341" d="m365,504 l-78,-167c-10,-22 -35,-32 -58,-23 -15,5 -30,11 -39,13 -22,6 -56,7 -82,-6l-16,12c-22,16 -55,12 -71,-11 -16,-22 -12,-52 8,-70l161,-134c12,-10 19,-25 19,-40v-46c27,0 48,21 49,48 37,0 72,18 93,49l154,323v53" stroke="#000000" stroke-width="12.0" id="path_1"/><path fill="#9b4f1d" d="m107,320c5,-81 -59,-85 -59,-85l-21,17c-20,17 -24,46 -9,68 16,23 49,29 72,12z" stroke="#000000" stroke-width="12.0" id="path_2"/><path fill="#ffdec2" d="m504,137s-63,-121 -169,-129c-58,-4 -94,34 -94,34s15,11 16,36c0,0 53,13 69,83 7,32 -1,68 -1,68s27,-11 35,-39c0,0 -14,130 65,196 0,0 -6,-28 11,-52 0,0 10,75 67,121z" stroke="#000000" stroke-width="12.0" id="path_3"/><path fill="#facfaa" d="m329,201c-1,16 -4,29 -4,29" id="path_4"/><path fill="#060606" d="m31,285c0,6 9,5 9,5 2,0 10,2 10,13 0,4 3,7 7,7s7,-3 7,-7c0,-21 -16,-28 -24,-28 0,0 -10,-0 -10,9z" id="path_5"/><path fill="#060606" d="m223,139c-17,0 -30,13 -30,30 0,9 15,9 15,0 0,-8 7,-15 15,-15s15,6 15,15c0,9 15,9 15,0 0,-16 -13,-30 -30,-30z" id="path_6"/></svg>