<svg id="vector" xmlns="http://www.w3.org/2000/svg" width="24.0d" height="24.0d" viewBox="0 0 512.0 512.0"><path fill="#beb9dd" d="M171,471v-316l-145,10c-0,0 -0,0 -0,0v306zM485,165 l-145,-10v316h145v-306c-0,0 -0,0 -0,0z" stroke="#000000" stroke-width="12.0" id="path_0"/><path fill="#eb5468" d="M7,146c0,10 8,18 18,18h0,135v-37h-135c-10,0 -18,8 -18,18zM350,127v37h135,0c10,-0 18,-8 18,-18 0,-10 -8,-18 -18,-18h-135z" stroke="#000000" stroke-width="12.0" id="path_1"/><path fill="#f9f7f8" d="m350,77 l-97,-11 -91,11v50,37 306h39v-114h55,55v114h39v-306,-37z" stroke="#000000" stroke-width="12.0" id="path_2"/><path fill="#eb5468" d="m357,40h-206c-10,0 -19,8 -19,18s8,18 19,19h10,189 7c10,0 19,-8 19,-19s-8,-19 -19,-19z" stroke="#000000" stroke-width="12.0" id="path_3"/><path fill="#b1e4f9" d="M60,297h67v42h-67zM60,207h67v42h-67zM384,207h67v42h-67zM384,297h67v42h-67zM384,387h67v42h-67zM60,387h67v42h-67zM201,357h54v114h-55zM256,357h55v114h-55z" stroke="#000000" stroke-width="12.0" id="path_4"/><path fill="#eb5468" d="m271,129h-31c-1,0 -2,1 -2,2v28h-28c-1,0 -2,1 -2,2v31c0,1 1,2 2,2h28v28c0,1 1,2 2,2h31c1,0 2,-1 2,-2v-28h28c1,0 2,-1 2,-2v-31c0,-1 -1,-2 -2,-2h-28v-28c-0,-1 -1,-2 -2,-2z" stroke="#000000" stroke-width="12.0" id="path_5"/></svg>