<svg id="vector" xmlns="http://www.w3.org/2000/svg" width="24.0d" height="24.0d" viewBox="0 0 512.0 512.0"><path fill="#d8ecfe" d="m382,79v-36l-252,-0v36c0,58 28,113 76,148 8,6 14,16 14,27 0,10 -5,20 -13,27 -49,36 -76,91 -76,148v36l252,0v-36c0,-57 -27,-112 -76,-148 -8,-6 -13,-16 -13,-27v-0c0,-10 5,-21 14,-27 48,-35 76,-90 74,-148z" stroke="#000000" stroke-width="12.0" id="path_0"/><path fill="#596c76" d="m123,43h266c9,0 17,-8 17,-17 0,-9 -7,-17 -17,-17h-266c-9,0 -17,8 -17,17 0,9 7,17 17,17z" stroke="#000000" stroke-width="12.0" id="path_1"/><path fill="#596c76" d="m123,504h266c9,0 17,-8 17,-17 0,-9 -7,-17 -17,-17h-266c-9,0 -17,8 -17,17 0,9 7,17 17,17z" stroke="#000000" stroke-width="12.0" id="path_2"/><path fill="#feb137" d="M159,439v-5c0,-24 12,-47 35,-66 17,-14 39,-22 62,-22 22,0 44,7 62,22 22,18 35,41 35,65v5z M160,102c4,32 19,61 42,85 14,14 33,22 52,22 19,0 38,-8 52,-22 23,-23 37,-53 42,-84h-190z" stroke-linejoin="round" stroke="#000000" stroke-width="12.0" id="path_3"/><path fill="#000000" d="M256,232v10M256,328v-10M256,274v10" stroke-linecap="round" stroke="#000000" stroke-width="12.0" id="path_4"/></svg>