<svg id="vector" xmlns="http://www.w3.org/2000/svg" width="24.0d" height="24.0d" viewBox="0 0 512.0 512.0"><path fill="#e9eaef" d="M446,210l0,290l-381,0l0,-290l191,-186z" stroke="#000000" stroke-width="12.0" id="path_0"/><path fill="#9eb1b7" d="M353,108l0,-53l95,0l0,144" stroke="#000000" stroke-width="12.0" id="path_1"/><path fill="#85c10d" d="M274,440h230v60h-230zM7,440h80v60h-80z" stroke="#000000" stroke-width="12.0" id="path_2"/><path fill="#ea4756" d="M256,64l-217,207l-30,-25l232,-221l15,-14l15,14l232,221l-30,25z" stroke="#000000" stroke-width="12.0" id="path_3"/><path fill="#a0d9f2" d="M274,283h143v125h-143z" stroke="#000000" stroke-width="12.0" id="path_4"/><path fill="#c97523" d="M112,283h125v217h-125zM274,283h143v38h-143z" stroke="#000000" stroke-width="12.0" id="path_5"/><path fill="#413740" d="M256,186m-35,0a35,35 0,1 1,70 0a35,35 0,1 1,-70 0" stroke="#000000" stroke-width="12.0" id="path_6"/></svg>