<svg id="vector" xmlns="http://www.w3.org/2000/svg" width="24.0d" height="24.0d" viewBox="0 0 512.0 512.0"><path fill="#ffda8f" d="M196,310s-114,-38 -186,-70c0,0 154,-10 209,4 5,46 -23,66 -23,66zM261,335c33,-40 21,-84 21,-84 0,0 137,11 161,19 -0,0 -100,57 -183,65z" stroke="#000000" stroke-width="12.0" id="path_0"/><path fill="#b8ecbc" d="m289,224c-2,5 -5,16 -6,25 0,0 11,44 -21,84 -5,5 -57,49 -57,49 -45,60 -45,66 -66,66 -20,0 32,-74 32,-74 13,-41 26,-66 26,-66s28,-20 23,-66c10,2 20,-5 19,-16 -0,-1 -0,-1 -0,-2 -5,-15 -3,-32 10,-41 13,-8 65,0 65,0s-16,22 -25,40z" stroke="#000000" stroke-width="12.0" id="path_1"/><path fill="#000000" d="M410,110l-100,80" fill-opacity="0" stroke-linecap="round" stroke="#000000" stroke-width="12.0" id="path_2"/></svg>