<svg id="vector" xmlns="http://www.w3.org/2000/svg" width="24.0d" height="24.0d" viewBox="0 0 512.0 512.0"><path fill="#ddf3e9" d="M288,363 l-62,-107 62,-107h123l62,107 -62,107zM96,470 l-62,-107 62,-107h123l62,107 -62,107zM96,255 l-62,-107 62,-107h123l62,107 -62,107z" stroke="#000000" stroke-width="12.0" id="path_0"/><path fill="#d8ec84" d="M58,148c0,13 -10,24 -24,24s-24,-10 -24,-24c0,-13 10,-24 24,-24s24,10 24,24zM58,363c0,13 -10,24 -24,24s-24,-10 -24,-24c0,-13 10,-24 24,-24s24,10 24,24z" stroke="#000000" stroke-width="12.0" id="path_1"/><path fill="#d8ec84" d="M121,255c0,13 -10,24 -24,24 -13,0 -24,-10 -24,-24 0,-13 10,-24 24,-24 13,0 24,10 24,24zM248,255c0,13 -10,24 -24,24 -13,0 -24,-10 -24,-24 0,-13 10,-24 24,-24 13,0 24,10 24,24z" stroke="#000000" stroke-width="12.0" id="path_2"/><path fill="#d8ec84" d="M121,41c0,13 -10,24 -24,24 -13,0 -24,-10 -24,-24s10,-24 24,-24c13,0 24,10 24,24zM248,41c0,13 -10,24 -24,24 -13,0 -24,-10 -24,-24s10,-24 24,-24c13,0 24,10 24,24z" stroke="#000000" stroke-width="12.0" id="path_3"/><path fill="#d8ec84" d="M121,470c0,13 -10,24 -24,24 -13,0 -24,-10 -24,-24s10,-24 24,-24c13,0 24,10 24,24zM248,470c0,13 -10,24 -24,24 -13,0 -24,-10 -24,-24s10,-24 24,-24c13,0 24,10 24,24z" stroke="#000000" stroke-width="12.0" id="path_4"/><path fill="#d8ec84" d="M311,363c0,13 -10,24 -24,24 -13,0 -24,-10 -24,-24 0,-13 10,-24 24,-24 13,0 24,10 24,24zM439,363c0,13 -10,24 -24,24 -13,0 -24,-10 -24,-24 0,-13 10,-24 24,-24 13,0 24,10 24,24z" stroke="#000000" stroke-width="12.0" id="path_5"/><path fill="#d8ec84" d="M311,148c0,13 -10,24 -24,24 -13,0 -24,-10 -24,-24s10,-24 24,-24c13,0 24,10 24,24zM438,148c0,13 -10,24 -24,24s-24,-10 -24,-24 10,-24 24,-24 24,10 24,24z" stroke="#000000" stroke-width="12.0" id="path_6"/><path fill="#d8ec84" d="M502,255c0,13 -10,24 -24,24s-24,-10 -24,-24 10,-24 24,-24 24,10 24,24z" stroke="#000000" stroke-width="12.0" id="path_7"/></svg>