<svg id="vector" xmlns="http://www.w3.org/2000/svg" width="24.0d" height="24.0d" viewBox="0 0 512.0 512.0"><path fill="#c1e649" d="m10,10h492v492h-492z" stroke="#000000" stroke-width="16.0" id="path_0"/><path fill="#daf092" d="m418,458h-325c-21,0 -39,-17 -39,-39v-325c0,-21 17,-39 39,-39h325c21,0 39,17 39,39v325c0,21 -17,39 -39,39z" stroke="#000000" stroke-width="16.0" id="path_1"/><path fill="#000000" d="m203,396c5,0 10,-4 10,-10v-68h85v68c0,5 4,10 10,10s10,-4 10,-10v-152c0,-5 -4,-10 -10,-10s-10,4 -10,10v63h-85v-63c0,-5 -4,-10 -10,-10s-10,4 -10,10v152c0,5 4,10 10,10z" id="path_2"/><path fill="#000000" d="m247,114h7v70c0,5 4,10 10,10s10,-4 10,-10v-80c0,-5 -4,-10 -10,-10h-17c-5,0 -10,4 -10,10s4,10 10,10z" id="path_3"/></svg>