<svg id="vector" xmlns="http://www.w3.org/2000/svg" width="24.0d" height="24.0d" viewBox="0 0 512.0 512.0"><path fill="#daf1f4" d="m309,119c-1,-2 -3,-4 -5,-5l-136,-78c-4,-2 -11,-2 -15,0l-136,78c-2,1 -4,3 -5,5l149,86z" id="path_0"/><path fill="#b9e4ef" d="m12,116c-1,2 -2,5 -2,7v157c0,5 3,10 8,13l136,78c2,1 5,2 8,2v-173z" id="path_1"/><path fill="#93d8e4" d="m159,203v173c2,0 5,-0 8,-2l76,-44v-63c0,-4 2,-9 6,-11l60,-34v-94c0,-2 -0,-5 -2,-8z" id="path_2"/><path fill="#b9e4ef" d="m245,259c-1,2 -1,4 -1,6v134c0,4 2,9 6,11l116,67c2,1 4,1 6,1v-148z" id="path_3"/><path fill="#daf1f4" d="m501,262c-1,-2 -2,-3 -5,-5l-116,-67c-4,-2 -9,-2 -13,0l-116,67c-2,1 -3,3 -5,5l128,74z" id="path_4"/><path fill="#93d8e4" d="m372,333v148c2,0 4,-0 6,-1l116,-67c4,-2 6,-6 6,-11v-134c0,-2 -0,-4 -1,-6z" id="path_5"/><path fill="#000000" d="m159,305c-4,0 -7,3 -7,7v19c0,4 3,7 7,7s7,-3 7,-7v-19c0,-4 -3,-7 -7,-7z" id="path_6"/><path fill="#000000" d="m167,207 l108,-62c3,-2 4,-6 2,-10 -2,-3 -6,-4 -10,-2l-108,62 -108,-62c-3,-2 -8,-0 -10,2s-0,8 2,10l108,62v70c0,4 3,7 7,7s7,-3 7,-7z" id="path_7"/><path fill="#000000" d="m335,243 l42,-24c3,-2 4,-6 2,-10 -2,-3 -6,-4 -10,-2l-42,24c-3,2 -4,6 -2,10 2,3 6,4 10,2z" id="path_8"/><path fill="#000000" d="m374,452c4,0 7,-3 7,-7v-106l92,-53c3,-2 4,-6 2,-10 -2,-3 -6,-4 -10,-2l-92,53 -92,-53c-3,-2 -8,-0 -10,2 -2,3 -0,8 2,10l92,53v106c0,4 3,7 7,7z" id="path_9"/><path fill="#000000" d="m11,302 l136,78c7,4 16,4 23,0l65,-37v57c0,7 4,14 10,18l116,67c6,3 14,3 21,0l116,-67c6,-3 10,-10 10,-18v-50c0,-4 -3,-7 -7,-7s-7,3 -7,7v50c0,2 -1,4 -3,5l-116,67c-1,1 -4,1 -6,0l-116,-67c-1,-1 -3,-3 -3,-5 0,-17 0,-99 0,-134 0,-2 1,-4 3,-5 20,-12 79,-46 116,-67 1,-1 4,-1 6,0l116,67c1,1 3,3 3,5v49c0,4 3,7 7,7s7,-3 7,-7v-49c0,-7 -4,-14 -10,-18l-116,-67c-6,-3 -14,-3 -21,0l-44,25v-81c0,-8 -4,-16 -11,-20l-136,-78c-7,-4 -16,-4 -23,0l-28,16c-3,2 -4,6 -2,10 2,3 6,4 10,2l28,-16c2,-1 5,-1 8,0l136,78c2,1 4,4 4,7v90l-56,32c-6,3 -10,10 -10,18v59l-73,42c-2,1 -5,1 -8,0l-136,-78c-2,-1 -4,-4 -4,-7v-157c0,-3 1,-5 4,-7l77,-44c3,-2 4,-6 2,-10 -2,-3 -6,-4 -10,-2l-77,44c-7,4 -11,11 -11,20v157c0,8 4,16 11,20z" id="path_10"/><path fill="#000000" d="m57,115c2,3 6,4 10,2l44,-25c3,-2 4,-6 2,-10 -2,-3 -6,-4 -10,-2l-44,25c-3,2 -4,6 -2,10z" id="path_11"/></svg>