<svg id="vector" xmlns="http://www.w3.org/2000/svg" width="24.0d" height="24.0d" viewBox="0 0 512.0 512.0"><path fill="#ffc2e8" d="m378,195v183.8h-244.9v-214.5c0,17 13.7,30.6 30.6,30.6s30.6,-13.7 30.6,-30.6v-30.6c0,-17 13.7,-30.6 30.6,-30.6 17,0 30.6,13.7 30.6,30.6v91.8c0,17 13.7,30.6 30.6,30.6 17,0 30.6,-13.7 30.6,-30.6v-30.6c0,-17 13.7,-30.6 30.6,-30.6s30.6,13.7 30.6,30.6z" stroke="#000000" stroke-width="12.0" id="path_0"/><path fill="#ff9ad8" d="m378,130v65c0,-17 -13.7,-30.6 -30.6,-30.6s-30.6,13.7 -30.6,30.6v30.6c0,17 -13.7,30.6 -30.6,30.6 -17,0 -30.6,-13.7 -30.6,-30.6v-91.8c0,-17 -13.7,-30.6 -30.6,-30.6 -17,0 -30.6,13.7 -30.6,30.6v30.6c0,17 -13.7,30.6 -30.6,30.6s-30.6,-13.7 -30.6,-30.6v-34.4c0,-66 53.7,-120 120,-120h5c66,0 120,53.7 120,120z" stroke="#000000" stroke-width="12.0" id="path_1"/><path fill="#fedc75" d="m285.7,378.9v92c0,16.6 -13.4,30 -30,30 -8,0 -15.8,-3 -21,-8.8s-8.8,-13 -8.8,-21v-92z" stroke="#000000" stroke-width="12.0" id="path_2"/><path fill="#000000" d="m337.6,112.8c-6.8,1 -10,9.7 -6,15 4.8,7 16.4,5 18,-3.6 1.5,-6.7 -5,-13 -11.7,-11.7z" id="path_3"/></svg>