<svg id="vector" xmlns="http://www.w3.org/2000/svg" width="24.0d" height="24.0d" viewBox="0 0 512.0 512.0"><path fill="#bbe8ee" d="m36,72 l40,210c1,9 10,17 20,17 9,0 18,-6 20,-15l32,-80c2,-8 9,-14 18,-14 9,0 17,7 18,16l47,278c1,11 11,20 23,20s21,-8 23,-20l47,-329c1,-9 9,-16 18,-16 8,0 16,6 18,14l32,131c2,9 10,15 20,15 10,0 18,-7 20,-17l40,-210 -31,-31h-375zM36,72" stroke="#000000" stroke-width="12.0" id="path_0"/><path fill="#ebecec" d="m449,7h-387c-20,0 -36,16 -36,36 0,19 11,36 28,44 18,8 39,8 57,0s39,-8 57,0c18,8 39,8 57,0s39,-8 57,0c18,8 39,8 57,0 18,-8 39,-8 57,0s39,8 57,0c17,-8 28,-25 28,-44 -0,-20 -16,-36 -36,-36zM449,7" stroke="#000000" stroke-width="12.0" id="path_1"/><path fill="#8dcdd7" d="m420,350c-1,-1 -3,-1 -4,0 -46,57 -33,108 2,108 36,0 48,-51 2,-108zM420,350" stroke-linejoin="round" stroke="#000000" stroke-width="12.0" id="path_2"/></svg>