<svg id="vector" xmlns="http://www.w3.org/2000/svg" width="24.0d" height="24.0d" viewBox="0 0 512.0 512.0"><path fill="#253f66" d="m405,212c-13,-34 -32,-69 -56,-105 -40,-60 -80,-101 -82,-102 -2,-2 -6,-4 -10,-4 -4,0 -7,1 -10,4 -1,1 -41,42 -82,102 -23,35 -43,71 -56,105 -17,43 -26,85 -26,123 0,96 78,175 175,175 96,0 175,-78 175,-175 0,-38 -8,-80 -26,-123z" id="path_0"/><path fill="#13233c" d="m405,212c-13,-34 -32,-69 -56,-105 -40,-60 -80,-101 -82,-102 -2,-2 -6,-4 -10,-4v512c96,0 175,-78 175,-175 0,-38 -8,-80 -26,-123z" id="path_1"/><path fill="#fef4f5" d="m255,431c-52,0 -95,-42 -95,-95 0,-8 6,-15 15,-15 8,0 15,6 15,15 0,36 29,65 65,65 8,0 15,6 15,15 0,8 -6,15 -15,15z" id="path_2"/></svg>