<svg id="vector" xmlns="http://www.w3.org/2000/svg" width="24.0d" height="24.0d" viewBox="0 0 512.0 512.0"><path fill="#3d2b0d" d="m291,227 l-8,-28 58,-16 27,-33v-74l24,-37 25,16 -19,29v76l-39,49z" id="path_0"/><path fill="#3d2b0d" d="m448,283h-53l-36,-24h-77v-30h86l36,24h43z" id="path_1"/><path fill="#3d2b0d" d="m437,508 l-35,-29 -21,-133 -98,-66 16,-25 109,73 21,135 26,22z" id="path_2"/><path fill="#6e4535" d="m220,227 l-67,-19 -39,-49v-76l-19,-29 25,-16 24,37v74l27,33 58,16z" id="path_3"/><path fill="#6e4535" d="m116,283h-53v-30h43l36,-24h86v30h-77z" id="path_4"/><path fill="#6e4535" d="m75,508 l-19,-23 26,-22 21,-135 109,-73 16,25 -98,66 -21,133z" id="path_5"/><path fill="#996450" d="m221,150h47v176h-50c-11,-17 -18,-38 -18,-59v-53c0,-23 7,-45 20,-63z" id="path_6"/><path fill="#6e4535" d="m290,150h-34v176h37c11,-17 18,-38 18,-59v-53c0,-23 -7,-45 -20,-63z" id="path_7"/><path fill="#ae8962" d="m256,310c-38,0 -69,31 -69,69v62c0,38 31,69 69,69l26,-100z" id="path_8"/><path fill="#996450" d="m256,310v201c38,0 69,-31 69,-69v-62c0,-38 -31,-69 -69,-69z" id="path_9"/><path fill="#6e4535" d="m231,60c-8,0 -15,-6 -15,-15s6,-15 15,-15h9v-30h-9c-25,0 -45,20 -45,45s20,45 45,45h25l11,-14 -11,-15z" id="path_10"/><path fill="#3d2b0d" d="m281,0h-9v30h9c8,0 15,6 15,15s-6,15 -15,15h-25v30h25c25,0 45,-20 45,-45s-20,-45 -45,-45z" id="path_11"/><path fill="#ae8962" d="m256,60c-30,0 -55,24 -55,55 0,30 24,55 55,55l26,-51z" id="path_12"/><path fill="#996450" d="m256,60v110c30,0 55,-24 55,-55 0,-30 -24,-55 -55,-55z" id="path_13"/></svg>