<svg id="vector" xmlns="http://www.w3.org/2000/svg" width="24.0d" height="24.0d" viewBox="0 0 512.0 512.0"><path fill="#c1e649" d="m10,10h492v492h-492z" stroke="#000000" stroke-width="16.0" id="path_0"/><path fill="#daf092" d="m418,458h-325c-21,0 -39,-17 -39,-39v-325c0,-21 17,-39 39,-39h325c21,0 39,17 39,39v325c0,21 -17,39 -39,39z" stroke="#000000" stroke-width="16.0" id="path_1"/><path fill="#000000" d="m303,174c-5,0 -9,-3 -10,-8 -0,-0 -0,-1 -0,-1 0,-5 -4,-10 -10,-10s-10,4 -10,10c0,1 0,2 0,4 2,14 14,25 29,25 16,0 30,-13 30,-30 0,-7 -3,-14 -7,-20 4,-5 7,-12 7,-20 0,-16 -13,-30 -30,-30 -14,0 -26,10 -29,24 -1,5 2,10 7,11 5,1 10,-2 11,-7 1,-4 5,-8 9,-8 5,0 10,4 10,10s-4,10 -10,10c-5,0 -10,4 -10,10s4,10 10,10c5,0 10,4 10,10s-4,10 -10,10z" id="path_2"/><path fill="#000000" d="m212,194c0,0 0,-0 0,-0 17,-0 32,-14 33,-32 0,-9 -2,-18 -9,-25 -6,-6 -15,-10 -24,-10 -1,0 -2,0 -4,0l2,-11h21c5,0 10,-4 10,-10s-4,-10 -10,-10h-29c-4,0 -9,3 -9,8l-5,35c-0,3 1,7 4,9 3,2 7,2 10,0 0,-0 0,-0 0,-0 3,-1 5,-2 11,-2 4,0 7,1 10,4 2,2 4,6 3,10 -0,7 -6,13 -13,13 -7,0 -13,-5 -14,-12 -0,-0 -0,-1 -0,-2 0,-5 -4,-10 -10,-10s-10,4 -10,10c0,1 0,3 0,4 2,16 16,29 33,31z" id="path_3"/><path fill="#000000" d="m246,386c0,5 4,10 10,10s10,-4 10,-10v-149c0,-5 -4,-10 -10,-10s-10,4 -10,10z" id="path_4"/></svg>