<svg id="vector" xmlns="http://www.w3.org/2000/svg" width="24.0d" height="24.0d" viewBox="0 0 512.0 512.0"><path fill="#b3b3b3" d="m323.5,444.5c-8.2,0 -15,6.7 -15,15v15l30,15v-30c0,-8.2 -6.7,-15 -15,-15z" id="path_0"/><path fill="#ffe2a8" d="m398.5,474.5h-90c0,16.5 13.4,30 30,30h90c0,-16.5 -13.4,-30 -30,-30z" id="path_1"/><path fill="#1990c2" d="m158.5,292.5v90c0,8.2 6.7,15 15,15s15,-6.7 15,-15v-47.5c4.6,1.6 9.7,2.5 15,2.5s10.3,-0.9 15,-2.5l20,-72.4z" id="path_2"/><path fill="#116f97" d="m218.5,262.5v120c0,8.2 6.7,15 15,15s15,-6.7 15,-15v-90z" id="path_3"/><path fill="#4f4f4f" d="m158.5,262.5v30h30l15,-60z" id="path_4"/><path fill="#353535" d="m203.5,232.5 l15,60h30v-30z" id="path_5"/><path fill="#fff0d3" d="m188.5,232.5h30v60h-30z" id="path_6"/><path fill="#1990c2" d="m243.5,172.5h-30l5,90h30c8.9,-4.9 15,-14.3 15,-25v-45c0,-11 -8.9,-20 -20,-20z" id="path_7"/><path fill="#2dade3" d="m233.5,237.5v-45c0,-11 -8.9,-20 -20,-20h-50c-11,0 -20,8.9 -20,20v45c0,10.6 6,20 15,25h60c8.9,-4.9 15,-14.3 15,-25z" id="path_8"/><path fill="#116f97" d="m203.5,7.5 l-35,90h80v-45c0,-24.8 -20,-45 -45,-45z" id="path_9"/><path fill="#1990c2" d="m158.5,52.5v45h45v-90c-24.8,0 -45,20 -45,45z" id="path_10"/><path fill="#ff8d7e" d="m203.5,52.5v90c24.8,0 45,-20 45,-45s-20,-45 -45,-45z" id="path_11"/><path fill="#ffb4a9" d="m218.5,97.5c0,-24.8 -6.7,-45 -15,-45 -24.8,0 -45,20 -45,45s20,45 45,45c8.2,0 15,-20 15,-45z" id="path_12"/><path fill="#000000" d="m428.5,467h-82.5v-7.5c0,-9.7 -6.2,-18 -15,-21.2v-238.2h7.5c12.4,0 22.5,-10 22.5,-22.5s-10,-22.5 -22.5,-22.5h-15c-4,0 -7.5,3.3 -7.5,7.5v22.5h-46c-3.2,-11.5 -13.8,-20 -26.4,-20h-80c-12.4,0 -23,8.3 -26.3,19.7 -42.5,-3.2 -76,-38.8 -76,-82.2 0,-4 -3.3,-7.5 -7.5,-7.5s-7.5,3.3 -7.5,7.5c0,51.2 39.7,93.3 90,97.2v37.7c0,11.4 5.6,22.2 15,29v115.9c0,9.7 6.2,18 15,21.2v85.3l-24.8,8.2c-3.9,1.3 -6,5.5 -4.7,9.4 1,3 3.9,5 7,5 0.7,0 1.5,-0 2.3,-0.3l30,-10c3,-1 5,-3.8 5,-7v-90.7c8.7,-3 15,-11.4 15,-21.2v-38c4.9,0.7 10,0.7 15,0v38c0,9.7 6.2,18 15,21.2v90.7c0,3.2 2,6 5,7l30,10c0.7,0.2 1.5,0.3 2.3,0.3 3,0 6,-1.9 7,-5 1.3,-3.9 -0.8,-8 -4.7,-9.4l-24.8,-8.2v-85.3c8.7,-3 15,-11.4 15,-21.2v-115.9c9.3,-6.8 15,-17.6 15,-29v-37.5h45v238.2c-8.7,3 -15,11.4 -15,21.2v15c0,20.6 16.8,37.5 37.5,37.5h120c4,0 7.5,-3.3 7.5,-7.5 0,-20.6 -16.8,-37.5 -37.5,-37.5zM331,170h7.5c4,0 7.5,3.3 7.5,7.5s-3.3,7.5 -7.5,7.5h-7.5zM166,270h15v15h-15zM241,270v15h-15v-15zM211,285h-15v-15h15zM233.5,390c-4,0 -7.5,-3.3 -7.5,-7.5v-47.5c0,-2.4 -1,-4.7 -3,-6 -1.2,-0.9 -2.8,-1.3 -4.3,-1.3 -0.8,0 -1.6,0 -2.5,0.4 -8,2.8 -16.9,2.8 -25,0 -2.3,-0.8 -4.8,-0.4 -6.8,0.9 -1.9,1.4 -3,3.6 -3,6v47.5c0,4 -3.3,7.5 -7.5,7.5s-7.5,-3.3 -7.5,-7.5v-82.5h75v82.5c0,4 -3.3,7.5 -7.5,7.5zM256,237.5c0,6.9 -3.6,13.5 -9.6,17.5h-85.7c-5.9,-3.9 -9.6,-10.5 -9.6,-17.5v-45c0,-6.8 5.6,-12.5 12.5,-12.5h80c6.8,0 12.5,5.6 12.5,12.5zM316,459.5c0,-4 3.3,-7.5 7.5,-7.5s7.5,3.3 7.5,7.5v7.5h-15zM338.5,497c-9.7,0 -18,-6.2 -21.2,-15h111.2c9.7,0 18,6.2 21.2,15z" id="path_13"/><path fill="#000000" d="M233.5,202.5m-7.5,0a7.5,7.5 0,1 1,15 0a7.5,7.5 0,1 1,-15 0" id="path_14"/><path fill="#000000" d="m203.5,150c28.9,0 52.5,-23.5 52.5,-52.5v-45c0,-28.9 -23.5,-52.5 -52.5,-52.5s-52.5,23.5 -52.5,52.5v45c0,28.9 23.5,52.5 52.5,52.5zM166,52.5c0,-20.6 16.8,-37.5 37.5,-37.5s37.5,16.8 37.5,37.5v8.3c-9.5,-9.7 -22.8,-15.8 -37.5,-15.8s-27.9,6 -37.5,15.8zM203.5,60c20.6,0 37.5,16.8 37.5,37.5s-16.8,37.5 -37.5,37.5 -37.5,-16.8 -37.5,-37.5 16.8,-37.5 37.5,-37.5z" id="path_15"/></svg>