<svg id="vector" xmlns="http://www.w3.org/2000/svg" width="24.0d" height="24.0d" viewBox="0 0 512.0 512.0"><path fill="#c68a65" d="M93,112h40v316h-40zM378,218h40v199h-40z" stroke="#000000" stroke-width="12.0" id="path_0"/><path fill="#88df8e" d="M53,112h120c11,0 20,-9 20,-20s-9,-20 -20,-20c0,-22 -18,-40 -40,-40 -16,0 -31,10 -37,24 -3,-3 -8,-4 -13,-4 -11,0 -20,9 -20,20h-10c-11,0 -20,9 -20,20 0,11 9,20 20,20zM173,152c-22,0 -40,18 -40,40 -11,0 -20,9 -20,20s9,20 20,20h74,26c11,0 20,-9 20,-20s-9,-20 -20,-20h-20c0,-22 -18,-40 -40,-40z" stroke="#000000" stroke-width="12.0" id="path_1"/><path fill="#88df8e" d="M338,178c-11,0 -20,9 -20,20s9,20 20,20h120c11,0 20,-9 20,-20s-9,-20 -20,-20h-10c0,-11 -9,-20 -20,-20 -5,0 -9,1 -13,4 -6,-14 -20,-24 -37,-24 -22,0 -40,18 -40,40zM338,259c-22,0 -40,18 -40,40h-20c-11,0 -20,9 -20,20s9,20 20,20h100c11,0 20,-9 20,-20s-9,-20 -20,-20c0,-22 -18,-40 -40,-40z" stroke="#000000" stroke-width="12.0" id="path_2"/><path fill="#88df8e" d="M130,312c0,-21 -16,-38 -36,-39 -1,-0 -2,-0 -3,-0 -22,0 -40,18 -40,40h-20c-11,0 -20,9 -20,20s9,20 20,20h63,36c1,0 2,-0 3,-0 9,-1 16,-9 16,-19s-7,-18 -16,-19c-1,-0 -2,-0 -3,-0z" stroke="#000000" stroke-width="12.0" id="path_3"/><path fill="#a0e5a5" d="M133,392c-16,0 -30,7 -40,20v6c-0,-0 -1,-1 -2,-2 -6,-5 -13,-8 -21,-8 -18,0 -34,15 -34,34 0,3 0,6 1,10h-1c-13,0 -25,11 -25,25s11,25 25,25h442c13,0 25,-11 25,-25 0,-13 -11,-25 -25,-25h-1c1,-3 1,-6 1,-10 0,-18 -15,-34 -34,-34 -8,0 -16,3 -21,8 -0,-1 -1,-2 -2,-4 -9,-12 -23,-20 -40,-20 -17,0 -33,9 -41,22 -5,-4 -12,-6 -20,-6 -8,0 -16,3 -22,8 -7,-14 -21,-24 -38,-24s-31,9 -38,24c-6,-5 -13,-8 -22,-8 -7,0 -14,2 -20,6 -9,-13 -24,-22 -41,-22z" stroke="#000000" stroke-width="12.0" id="path_4"/><path fill="none" d="M234,452h0M381,457h0M131,453h0M309,439h0" stroke-linecap="round" stroke="#000000" stroke-width="16.0" id="path_5"/></svg>