<svg id="vector" xmlns="http://www.w3.org/2000/svg" width="24.0d" height="24.0d" viewBox="0 0 512.0 512.0"><path fill="#57545c" d="M328,3H183c-64,0 -111,60 -95,122l31,124l272,-3l30,-121C439,64 392,4 328,4zM373,148l-14,56l-205,0l-14,-56c-11,-43 21,-85 66,-85h101C351,63 384,105 373,148z" stroke="#000000" stroke-width="12.0" id="path_0"/><path fill="#1d1d20" d="M367,169l-9,35l-205,0l-9,-35l-45,0l20,81l272,-3l19,-78z" stroke="#000000" stroke-width="12.0" id="path_1"/><path fill="#3e3b43" d="M255,335m-165,0a165,165 0,1 1,331 0a165,165 0,1 1,-331 0M203,3h104v59h-104z" stroke="#000000" stroke-width="12.0" id="path_2"/><path fill="#898590" d="M313,397H197c-14,0 -26,-12 -26,-26v-77c0,-36 29,-65 65,-65h38c36,0 65,29 65,65v77C340,385 328,397 313,397z" stroke="#000000" stroke-width="12.0" id="path_3"/><path fill="#000000" d="M278,346h-10v-65c0,-3 -1,-5 -4,-7c-2,-1 -6,-0 -8,1l-26,26c-3,3 -3,7 0,10c2,3 7,3 10,0l13,-13v47h-11c-4,0 -7,3 -7,7c0,4 3,7 7,7h37c4,0 7,-3 7,-7C285,349 282,346 278,346z" id="path_4"/></svg>