<svg id="vector" xmlns="http://www.w3.org/2000/svg" width="24.0d" height="24.0d" viewBox="0 0 512.0 512.0"><path fill="#ff4a4a" d="m468,512c-0,0 -0,0 -0,0l-150,-0 -66,-28 -58,28 -150,-0c-4,0 -7,-1 -10,-4 -2,-2 -4,-6 -4,-10l0,-44c0,-68 55,-123 123,-123h206c33,0 64,13 87,36 23,23 36,54 36,87l-0,44c-0,8 -6,15 -15,15z" id="path_0"/><path fill="#d01273" d="m446,366c-23,-23 -54,-36 -87,-36h-103v156l62,26 150,0h0c8,0 15,-6 15,-15l0,-44c0,-32 -12,-63 -36,-87z" id="path_1"/><path fill="#ffb454" d="m317,512h-123l18,-66 86,-1z" id="path_2"/><path fill="#604a43" d="m383,340c-39,0 -71,-32 -71,-71 0,-7 1,-14 3,-21 -11,-12 -17,-28 -17,-46 0,-37 30,-68 68,-68s68,30 68,68c0,5 -0,10 -1,15 14,13 22,32 22,51 0,39 -32,71 -71,71z" id="path_3"/><path fill="#74564f" d="m128,340c-39,0 -71,-32 -71,-71 0,-19 8,-38 22,-51 -1,-5 -1,-10 -1,-15 0,-37 30,-68 68,-68s68,30 68,68c0,17 -6,33 -17,46 2,6 3,13 3,21 0,39 -32,71 -71,71z" id="path_4"/><path fill="#ff8659" d="m256,512h61l-18,-67 -43,0z" id="path_5"/><path fill="#f9f9f9" d="m255,461c-42,0 -83,-9 -114,-25 -37,-19 -61,-46 -70,-80 -1,-6 1,-13 6,-16l83,-49c2,-1 5,-2 7,-2l174,-0h0c2,0 5,0 7,2l83,50c5,3 8,10 6,16 -8,33 -33,61 -70,80 -32,16 -73,25 -115,25z" id="path_6"/><path fill="#e2dff4" d="m434,339 l-83,-50c-2,-1 -5,-2 -7,-2 -0,0 -0,0 -0,0l-87,0v174c42,-0 83,-9 115,-25 37,-19 61,-46 70,-80 1,-6 -1,-13 -6,-16z" id="path_7"/><path fill="#ffe4c1" d="m256,366c-75,0 -136,-61 -136,-136 0,0 0,-87 1,-94 1,-7 7,-13 14,-13h240c7,0 14,5 14,13 0,6 1,94 1,94 0,75 -61,136 -136,136z" id="path_8"/><path fill="#fdd1a3" d="m391,136c-1,-7 -7,-13 -14,-13h-120v243c75,-0 136,-61 136,-136 0,0 -0,-87 -1,-94z" id="path_9"/><path fill="#ffd845" d="m392,163h-272v-110c0,-4 1,-8 4,-10 4,-4 12,-5 17,-2l44,23 59,-58c5,-5 15,-5 21,0l59,58 44,-23c5,-3 13,-2 17,2 2,2 4,6 4,10v110z" id="path_10"/><path fill="#74564f" d="m321,273c-5,-5 -15,-5 -21,0l-1,1c-0,0 -1,1 -2,1s-1,-0 -2,-1l-2,-2c-7,-7 -16,-12 -27,-14 -1,-0 -16,-0 -18,0 -10,1 -19,6 -27,14l-2,2c-0,0 -1,1 -2,1s-1,-0 -2,-1l-1,-1c-5,-5 -15,-6 -21,-0 -5,5 -6,15 -0,21l1,1c6,6 14,9 23,9s17,-3 23,-9l2,-2c3,-3 8,-5 13,-5h3c5,0 9,1 13,5l2,2c6,6 14,9 23,9s17,-3 23,-9l1,-1c5,-5 5,-15 -0,-21z" id="path_11"/><path fill="#604a43" d="m321,273c-5,-5 -15,-5 -21,0l-1,1c-0,0 -1,1 -2,1s-1,-0 -2,-1l-2,-2c-7,-7 -16,-12 -27,-14 -0,-0 -4,-0 -9,-0v29h1c5,0 9,1 13,5l2,2c6,6 14,9 23,9s17,-3 23,-9l1,-1c5,-5 5,-15 -0,-21z" id="path_12"/><path fill="#ffb454" d="m387,41c-4,-4 -12,-5 -17,-2l-44,23 -59,-58c-3,-2 -6,-4 -10,-4v162h135v-110c0,-4 -1,-8 -4,-10z" id="path_13"/></svg>