<svg id="vector" xmlns="http://www.w3.org/2000/svg" width="24.0d" height="24.0d" viewBox="0 0 512.0 512.0"><path fill="#fab659" d="m339.2,258c5.6,-14.9 17.9,-33.3 44.7,-60l113.2,-113.2c9.9,-9.9 9.9,-26 0,-35.9 -9.9,-9.9 -26,-9.9 -35.9,0l-113.2,113.2c-35.7,35.7 -53.4,66 -60.5,89.3l22.6,35.8zM339.2,258" stroke="#000000" stroke-width="20.0" id="path_0"/><path fill="#fab659" d="m65.5,377 l-50.7,50.7c-9.9,9.9 -9.9,26 0,35.9 9.9,9.9 26,9.9 35.9,0l43.6,-43.6 9.3,-45.2zM65.5,377" stroke="#000000" stroke-width="20.0" id="path_1"/><path fill="#fab659" d="m130.4,384 l33.5,-33.5c35.7,-35.7 51.7,-61.9 58.8,-85.2l-16.2,-37 -33.9,26.2c-5.6,14.9 -17.9,33.3 -44.7,60l-20.6,20.6 -20.7,20.7 16,41.9zM130.4,384" stroke="#000000" stroke-width="20.0" id="path_2"/><path fill="#fab659" d="m206.6,228.2 l-28.5,-25c2.2,-30.3 13,-61 61.5,-109.4 48.9,-48.9 128.3,-49.3 177.8,-1.1l-35.9,35.9c-29.5,-28.4 -76.7,-28 -105.8,1.1 -41.2,41.2 -46.4,61.8 -47,81.9zM206.6,228.2" stroke="#000000" stroke-width="20.0" id="path_3"/><path fill="#fda459" d="m236.3,275.9 l24.5,-8.4 11.4,-27.5 -25.7,10zM236.3,275.9" stroke="#000000" stroke-width="20.0" id="path_4"/><path fill="#fab659" d="m236.3,275.9c-29.5,-29.5 -77.5,-29.5 -107,0s-29.5,77.5 0,107c29.5,29.5 77.5,29.5 107,0 38.6,-38.6 45.6,-59 46.9,-78l26.7,-17.5 23.7,23.7c-2.5,29.8 -13.8,60.3 -61.4,107.9 -49.3,49.3 -129.6,49.3 -178.9,0 -49.3,-49.3 -49.3,-129.6 0,-178.9 49.3,-49.3 129.6,-49.3 178.9,-0zM236.3,275.9" stroke="#000000" stroke-width="20.0" id="path_5"/><path fill="#fab659" d="m272.2,240c29.5,29.5 80.9,26 110.4,-3.4 16,-16 23.5,-37.9 21.9,-59l41.8,-41.9c18.5,45.7 9.2,100.1 -27.7,137.1 -49.3,49.3 -133,52.7 -182.3,3.4zM272.2,240" stroke="#000000" stroke-width="20.0" id="path_6"/></svg>