<svg id="vector" xmlns="http://www.w3.org/2000/svg" width="24.0d" height="24.0d" viewBox="0 0 512.0 512.0"><path fill="#ea9a98" d="m323,497 l15,-21c1,-2 0,-5 -2,-5l-24,-6c-4,-1 -6,-5 -5,-9l8,-25c1,-3 -2,-5 -4,-4l-33,14c-1,0 -3,-0 -3,-2v-214,-71h-35v71,214c0,2 -2,3 -3,2l-33,-14c-3,-1 -6,1 -4,4l8,25c1,4 -0,8 -5,9l-24,6c-2,0 -3,3 -2,5l15,21c2,3 7,6 12,6h110c4,0 9,-2 12,-6z" stroke="#000000" stroke-width="12.0" id="path_0"/><path fill="#efedee" d="M323,135v31l-33,23h-70l-32,-23v-32,-36h136zM321,7h-132c-11,0 -20,9 -20,19v92h172v-92c-0,-11 -9,-20 -20,-19z" stroke="#000000" stroke-width="12.0" id="path_1"/><path fill="#d6d1d6" d="m349,134h-187c-8,0 -14,-6 -14,-14v-16c0,-8 6,-14 14,-14h187c8,0 14,6 14,14v16c0,8 -6,14 -14,14z" stroke="#000000" stroke-width="12.0" id="path_2"/><path fill="#f8f7f8" d="m326,175 l-41,46c-1,1 -2,1 -3,1h-10,-42c-1,0 -2,-0 -3,-1l-41,-46c-2,-3 -0,-8 3,-8h136c4,0 6,5 3,8z" stroke="#000000" stroke-width="12.0" id="path_3"/><path fill="none" d="M372,443 l14,-9M397,471 l-14,-9M137,433 l-14,-9M129,462 l-14,9" stroke-linecap="round" stroke="#000000" stroke-width="12.0" id="path_4"/></svg>