<svg id="vector" xmlns="http://www.w3.org/2000/svg" width="24.0d" height="24.0d" viewBox="0 0 512.0 512.0"><path fill="#f44336" d="m220,512h-205c-8,0 -15,-6 -15,-15v-88c0,-38 11,-75 32,-106 21,-31 51,-55 87,-70l89,-36c5,-2 9,-6 11,-11s2,-11 -0,-16c-23,-51 -14,-110 24,-152l10,-11c2,-3 6,-4 11,-4h90c5,0 11,3 13,8 2,5 1,11 -1,15 -29,36 -32,88 -6,127 17,26 22,58 13,89s-29,55 -57,69c-49,24 -82,75 -82,130v56c0,8 -6,15 -15,15z" id="path_0"/><path fill="#c80c4c" d="m367,24c3,-4 4,-10 1,-15 -2,-5 -7,-8 -13,-8h-90c-3,0 -7,1 -10,3v361c14,-23 35,-43 61,-55 28,-13 49,-38 57,-69 8,-30 3,-62 -13,-89 -25,-39 -23,-90 6,-127z" id="path_1"/><path fill="#efa64e" d="M290,255h-40c-8,0 -15,-6 -15,-15s6,-15 15,-15h40c8,0 15,6 15,15s-6,15 -15,15zM279,90c0,-8 -6,-15 -15,-15h-51c-2,9 -4,19 -4,30h55c8,0 15,-6 15,-15z" id="path_2"/><path fill="#730e31" d="M357,145h-63c-8,0 -15,6 -15,15s6,15 15,15h79c-2,-8 -6,-15 -11,-23 -1,-2 -2,-4 -4,-6zM290,225h-34v30h34c8,0 15,-6 15,-15s-6,-15 -15,-15zM264,75h-8v30h8c8,0 15,-6 15,-15s-6,-15 -15,-15z" id="path_3"/><path fill="#efa64e" d="M171,396h-40c-8,0 -15,-6 -15,-15s6,-15 15,-15h40c8,0 15,6 15,15s-6,15 -15,15zM90,437c0,-8 -6,-15 -15,-15h-75v30h75c8,0 15,-6 15,-15z" id="path_4"/><path fill="#efa64e" d="m165,300c0,-8 -6,-15 -15,-15h-104c-4,5 -9,11 -13,17 -2,4 -5,8 -8,12h125c8,0 15,-6 15,-15z" id="path_5"/></svg>