<svg id="vector" xmlns="http://www.w3.org/2000/svg" width="24.0d" height="24.0d" viewBox="0 0 512.0 512.0"><path fill="#c78979" d="m345,148c-58,-58 -88,-88.6 -117.4,-118 -26,-26.4 -69,-26 -95.6,0s-23,66 0,95.4c56.4,71 184.8,101 135,166.7 -67,88 -103,136 -47,209.9 0,0 19,-87 121,-147 85.8,-50 65,-146 4,-207z" stroke="#000000" stroke-width="16.0" id="path_0"/><path fill="none" d="M232,36 c10,10 20,40 0,60 M252,150 c-10,10 -20,40 -50,30 M302,190 c-10,10 -20,40 -50,30 M342,230 c-10,10 -30,30 -60,20 M280,290 c30,10 60,60 110,0 M250,330 c20,20 60,40 90,25 M220,360 c10,40 40,40 60,40" stroke-linecap="round" stroke="#000000" stroke-width="16.0" id="path_1"/></svg>