<svg id="vector" xmlns="http://www.w3.org/2000/svg" width="24.0d" height="24.0d" viewBox="0 0 512.0 512.0"><path fill="#f9f6f6" d="m7,170v298c0,18 14,32 32,32h431c18,0 32,-14 32,-32v-298" stroke="#000000" stroke-width="12.0" id="path_0"/><path fill="#c6b4da" d="m502,170 l-50,33 -197,38 -197,-38 -50,-33 50,-33 88,-58 92,-61c9,-6 23,-6 33,0l92,61 88,58z" stroke-linejoin="round" stroke="#000000" stroke-width="12.0" id="path_1"/><path fill="#f6e266" d="m453,102v102l-197,131 -197,-131v-102c0,-13 11,-24 24,-24h345c13,0 24,11 25,24z" stroke="#000000" stroke-width="12.0" id="path_2"/><path fill="none" d="M449,464l-153,-102M69,464l153,-102" stroke-linecap="round" stroke="#000000" stroke-width="12.0" id="path_3"/><path fill="#000000" d="M51,303c3,0 5,1 8,6 4,5 9,13 20,13 11,0 16,-7 20,-13 3,-5 5,-6 8,-6s5,1 8,6c4,5 9,13 20,13 4,0 7,-3 7,-7s-3,-7 -7,-7c-3,0 -5,-1 -8,-6 -4,-5 -9,-13 -20,-13 -11,0 -16,7 -20,13 -3,5 -5,6 -8,6 -3,0 -5,-1 -8,-6 -4,-5 -9,-13 -20,-13 -4,0 -7,3 -7,7s3,7 7,7z" id="path_4"/><path fill="#000000" d="M51,337c3,0 5,1 8,6 4,5 9,13 20,13 11,0 16,-7 20,-13 3,-5 5,-6 8,-6s5,1 8,6c4,5 9,13 20,13 4,0 7,-3 7,-7s-3,-7 -7,-7c-3,0 -5,-1 -8,-6 -4,-5 -9,-13 -20,-13 -11,0 -16,7 -20,13 -3,5 -5,6 -8,6 -3,0 -5,-1 -8,-6 -4,-5 -9,-13 -20,-13 -4,0 -7,3 -7,7s3,7 7,7z" id="path_5"/><path fill="#000000" d="M331,150h-150M133,182h 229M141,225h 229" stroke-linecap="round" stroke="#000000" stroke-width="12.0" id="path_6"/></svg>