<svg id="vector" xmlns="http://www.w3.org/2000/svg" width="24.0d" height="24.0d" viewBox="0 0 512.0 512.0"><path fill="#999999" d="M428,471v21c0,6 -4,10 -10,10h-5H100h-6c-6,0 -10,-4 -10,-10V471c0,-6 4,-10 10,-10h15l15,-73c4,-20 21,-34 42,-34h178c20,0 38,14 42,34l15,73h15C423,460 428,465 428,471z" stroke="#000000" stroke-width="12.0" id="path_0"/><path fill="#bfbfbf" d="M275,358l-41,11l-69,-260l41,-11L275,358z" stroke="#000000" stroke-width="12.0" id="path_1"/><path fill="#ffb933" d="M222,115l-64,17c-5,1 -11,-1 -13,-6L126,74c-10,-27 5,-57 33,-64l0,0c28,-7 56,10 61,39l9,54C231,109 228,114 222,115z" stroke="#000000" stroke-width="12.0" id="path_2"/><path fill="#bfbfbf" d="M334,348c11,43 -14,87 -57,99s-87,-14 -99,-57c-11,-43 14,-87 57,-99C278,279 322,305 334,348z" stroke="#000000" stroke-width="12.0" id="path_3"/><path fill="#999999" d="M292,359c5,20 -6,40 -26,46c-20,5 -40,-6 -46,-26s6,-40 26,-46C266,327 287,339 292,359z" stroke="#000000" stroke-width="12.0" id="path_4"/></svg>