<svg id="vector" xmlns="http://www.w3.org/2000/svg" width="24.0d" height="24.0d" viewBox="0 0 512.0 512.0"><path fill="#fd6244" d="M376,439h-20v-20c0,-11 -9,-20 -20,-20l-6,-69l-6,-76L316,176H196l-5,62l-7,83L176,399c-11,0 -20,9 -20,20v20h-20c-11,0 -20,9 -20,20v43h280v-43C396,448 387,439 376,439zM316,70c-5,0 -114,0 -120,0c0,-16 6,-31 17,-42C224,16 239,10 256,10C289,10 316,36 316,70z" stroke="#000000" stroke-width="12.0" id="path_0"/><path fill="#e3e3e3" d="M329,329l6,69l-140,0zM316,136c11,0 20,9 20,20c0,5 -2,10 -5,14S321,176 316,176H196c-11,0 -20,-9 -20,-20c0,-5 2,-10 5,-14S190,136 196,136C201,136 310,136 316,136zM316,176l6,76l-140,70l7,-83z" stroke="#000000" stroke-width="12.0" id="path_1"/><path fill="#fed42d" d="M196,70v66c5,0 114,0 120,0V70C310,70 201,70 196,70z" stroke="#000000" stroke-width="12.0" id="path_2"/><path fill="none" d="M176,72h160 M256,86v40 M72,60l80,40 M442,60l-80,40 M72,210l80,-40 M442,210l-80,-40 M112,135h40 M362,135h40" stroke-linecap="round" stroke="#000000" stroke-width="20.0" id="path_3"/></svg>