<svg id="vector" xmlns="http://www.w3.org/2000/svg" width="24.0d" height="24.0d" viewBox="0 0 512.0 512.0"><path fill="#ffffd5" d="M256,256 m-68,0a100,100 0,1 1,200 0a100,100 0,1 1,-200 0z" stroke="#000000" id="path_0"/><path fill="none" d="M288,256v220 M288,256h210 M288,256v-220 M288,256l150,150 M288,256l150,-150 M288,256l-150,-150 M288,256l-150,150 M288,256l60,140 M288,256l-60,140 M288,256l60,-140 M288,256l-60,-140 M288,256l140,60 M288,256l140,-60 M288,256l-140,-60 M288,256l-140,60" stroke-linecap="round" stroke="#ffffd5" stroke-width="24.0" id="path_1"/><path fill="#ffde00" d="m287,211c-19.5,0 -36,12.5 -42.4,30h-229.5c-8,0 -15,6.7 -15,15s6.7,15 15,15h229.5c6,17.4 22.8,30 42.4,30 24.8,0 45,-20 45,-45s-20,-45 -45,-45z" id="path_2"/></svg>