<svg id="vector" xmlns="http://www.w3.org/2000/svg" width="24.0d" height="24.0d" viewBox="0 0 512.0 512.0"><path fill="#7fdc48" d="M318,232c5,-6 4,-16 -1,-21l-30,-26c-13,-11 -21,-29 -21,-47v-0l23,-23c6,-6 6,-15 0,-21c-6,-6 -15,-6 -21,0l-2,2v-4c0,-8 -6,-15 -15,-15c-8,0 -15,6 -15,15v4l-2,-2c-6,-6 -15,-6 -21,0c-6,6 -6,15 0,21l23,23v0c0,24 9,48 27,65c1,1 3,3 5,5l30,26C303,239 313,239 318,232z" id="path_0"/><path fill="#7fdc48" d="M173,246l-26,-30c-17,-20 -43,-32 -70,-32h-0l-23,-23c-6,-6 -15,-6 -21,0c-6,6 -6,15 0,21l2,2h-4c-8,0 -15,6 -15,15c0,4 1,8 4,10c2,2 6,4 10,4h4l-2,2c-6,6 -6,15 0,21c6,6 15,6 21,0l23,-23h0c18,0 35,8 47,21l26,30c5,6 15,7 21,1C178,262 179,253 173,246z" id="path_1"/><path fill="#b7f07d" d="M29,478c-0,-0 -1,-1 -1,-2c-0,-1 -16,-25 -23,-59c-9,-46 1,-88 33,-122c18,-19 41,-34 67,-43c24,-8 52,-10 78,-7c73,9 121,-18 142,-85c-4,-12 -11,-42 6,-76c9,-17 27,-36 47,-48c25,-15 49,-18 67,-9c41,21 35,99 18,133c-9,19 -26,33 -50,41c-14,45 -37,81 -69,105c-44,34 -103,46 -175,37c-36,-5 -57,11 -62,16c-42,39 -51,109 -51,109c-0,6 -5,11 -11,13C38,483 32,482 29,478z" id="path_2"/><path fill="#46a655" d="M494,348l-2,-2h4c8,0 15,-6 15,-15c0,-8 -6,-15 -15,-15h-4l2,-2c6,-6 6,-15 0,-21c-6,-6 -15,-6 -21,0l-23,23H448c-18,-0 -35,-8 -47,-21l-26,-30c-5,-6 -15,-7 -21,-1c-6,5 -7,15 -1,21l26,30c1,1 3,3 5,5c17,17 40,27 65,27h0l23,23c6,6 15,6 21,0C499,364 499,354 494,348z" id="path_3"/><path fill="#46a655" d="M286,461l-18,-28l0,-0c5,-26 -0,-54 -16,-75l-24,-32c-5,-6 -14,-8 -21,-3c-6,5 -8,14 -3,21l24,32c11,14 15,32 11,50l-0,0l-28,18c-7,4 -9,14 -4,21c0,1 1,1 2,2c5,5 13,6 19,2l2,-1l-1,4c-1,5 0,10 4,14c2,2 4,3 7,4c8,1 16,-3 18,-11l1,-4l1,2c4,7 14,9 21,4C289,477 291,468 286,461z" id="path_4"/><path fill="#7fdc48" d="M55,469c0,-0 1,-7 3,-19l-29,29c3,3 8,4 13,3C49,480 54,475 55,469z" id="path_5"/></svg>