<svg id="vector" xmlns="http://www.w3.org/2000/svg" width="24.0d" height="24.0d" viewBox="0 0 512.0 512.0"><path fill="#1c5280" d="M64,350h440v30h-440z" stroke="#000000" stroke-width="12.0" id="path_0"/><path fill="#756a6b" d="M17,249h46v71h-46z" stroke="#000000" stroke-width="12.0" id="path_1"/><path fill="#2d86cc" d="M18,403H64v-82H40l-32,68C5,396 10,403 18,403zM364,174h139v176h-139z" stroke="#000000" stroke-width="12.0" id="path_2"/><path fill="#76d1e3" d="M394,204h79v57h-79z" id="path_3"/><path fill="#ff5948" d="M64,230h300v120h-300zM110,120h80v80h-80z" stroke="#000000" stroke-width="12.0" id="path_4"/><path fill="#ffd359" d="M100,255h100v30h-100z" stroke="#000000" stroke-width="12.0" id="path_5"/><path fill="#756a6b" d="M54,200h310v30h-310zM330,144h173v30h-173zM102,90h96v30h-96z" stroke="#000000" stroke-width="12.0" id="path_6"/><path fill="#756a6b" d="M132,379m-42,0a42,42 0,1 1,85 0a42,42 0,1 1,-85 0zM234,379m-42,0a42,42 0,1 1,85 0a42,42 0,1 1,-85 0zM336,379m-42,0a42,42 0,1 1,85 0a42,42 0,1 1,-85 0zM439,379m-42,0a42,42 0,1 1,85 0a42,42 0,1 1,-85 0z" stroke="#000000" stroke-width="12.0" id="path_7"/><path fill="#d1d3d4" d="M133,394c-8,0 -15,-6 -15,-15s6,-15 15,-15s15,6 15,15S141,394 133,394zM235,394c-8,0 -15,-6 -15,-15s6,-15 15,-15s15,6 15,15S243,394 235,394zM337,394c-8,0 -15,-6 -15,-15s6,-15 15,-15s15,6 15,15S345,394 337,394zM439,394c-8,0 -15,-6 -15,-15s6,-15 15,-15s15,6 15,15S447,394 439,394z" stroke="#000000" stroke-width="12.0" id="path_8"/></svg>