<svg id="vector" xmlns="http://www.w3.org/2000/svg" width="24.0d" height="24.0d" viewBox="0 0 512.0 512.0"><path fill="#875450" d="M21.8,503.5L8.4,490c-1.3,-1.3 -1.3,-3.4 0,-4.7l215.8,-215.8l18,18L26.6,503.5C25.3,504.8 23.2,504.8 21.8,503.5z" stroke="#000000" stroke-width="12.0" id="path_0"/><path fill="#f7f8eb" d="M338.4,173.5m-166,0a166,166 0,1 1,332 0a166,166 0,1 1,-332 0" stroke="#000000" stroke-width="12.0" id="path_1"/><path fill="#f04348" d="M504.4,173.5c0,91.7 -74.3,166 -166,166c-14,0 -27.9,-1.7 -41,-5.1c121.6,-5.7 182,-97.4 162.7,-186.7c-11,-50.4 -49.8,-86.9 -100.2,-96.4c-48.8,-7.8 -96.3,11.9 -120.4,59.2c-12.7,25 -14,53.6 -3,80.4c12.6,28.3 37.8,48.8 69.3,52c37.8,3 78.8,-23.6 77.2,-64.6c-1.5,-17.3 -9.4,-34.6 -25.2,-44c-14.2,-7.8 -28.3,-7.8 -40.9,3c-6.3,6.3 -11,14 -9.4,23.6c1.5,6.3 11,11 17.9,6.2c4.2,-4 10.7,-3.7 15,2c6.4,10.6 1.7,26.3 -9.3,32.6c-11,4.7 -23.6,6.3 -34.6,1.5c-26.8,-12.6 -37.8,-47.2 -26.8,-74.1c12.6,-28.3 45.7,-45.7 77.2,-42.5c25.2,3 45.7,15.7 61.5,36.2c18.9,26.7 22,56.7 14,86.7c-18.9,63 -93,93 -152.9,70.9c-66.2,-22 -97.7,-96 -80.4,-160.8c7.8,-28.6 23,-53 42.7,-73.7c28.8,-24 66,-38.7 106.6,-38.7C430,7.5 504.4,81.8 504.4,173.5z" stroke="#000000" stroke-width="12.0" id="path_2"/></svg>