<svg id="vector" xmlns="http://www.w3.org/2000/svg" width="24.0d" height="24.0d" viewBox="0 0 512.0 512.0"><path fill="#c9bfc8" d="m290,247 l-249,249c-7,7 -20,8 -27,0s-7,-19 0,-27l249,-249 46,-44 28,28z" stroke="#000000" stroke-width="16.0" id="path_0"/><path fill="#fee45a" d="m433,230 l-38,-61c-0,-1 -1,-2 -0,-4l22,-66c1,-3 -2,-7 -6,-6l-66,22c-1,0 -2,0 -4,-0l-51,-32 -8,3 5,68 -13,16 -45,30 65,19 16,50 10,8 0,3 30,-47c1,-1 2,-2 4,-2l73,5c4,0 6,-4 4,-7z" id="path_1"/><path fill="#fed402" d="m304,215c-0,-1 -1,-2 -3,-3l-57,-17 50,-32c1,-1 2,-2 2,-4l-5,-72c-0,-0 -0,-0 0,-1l-10,-6c-3,-2 -7,0 -7,4l5,72c0,1 -0,3 -2,4l-57,37c-0,0 -1,1 -1,2l-0,0c-0,0 -0,0 -0,0 -0,0 -0,0 -0,0 -0,0 -0,0 -0,0 0,0 -0,0 -0,0h0c-0,2 0,4 3,5l62,19c1,0 2,1 3,3l19,62c1,3 6,4 8,1l8,-13z" id="path_2"/><path fill="#fee97d" d="m171,109c-10,8 -13,21 -9,37 0,2 3,3 5,3l29,-9c3,-1 4,-5 1,-7l-22,-23c-1,-1 -4,-1 -6,-0z" stroke="#000000" stroke-width="12.0" id="path_3"/><path fill="#fee97d" d="m354,13c-11,-7 -24,-6 -38,2 -2,1 -2,4 -1,6l17,25c1,2 5,2 7,-0l16,-27c1,-2 0,-4 -1,-5z" stroke-linejoin="round" stroke="#000000" stroke-width="12.0" id="path_4"/><path fill="#fee97d" d="m401,339c-8,10 -21,13 -37,9 -2,-0 -3,-3 -3,-5l9,-29c1,-3 5,-4 7,-1l23,22c1,1 1,4 0,6z" stroke="#000000" stroke-width="12.0" id="path_5"/><path fill="#fee97d" d="m498,156c7,11 6,24 -2,38 -1,2 -4,2 -6,1l-25,-17c-2,-1 -2,-5 0,-7l27,-16c2,-1 4,-0 5,1z" stroke-linejoin="round" stroke="#000000" stroke-width="12.0" id="path_6"/><path fill="#000000" d="m402,166 l22,-65c1,-4 0,-9 -3,-12s-8,-4 -12,-3l-18,6c-4,1 -6,5 -4,9 1,4 5,6 9,4l13,-4 -21,61c-1,3 -0,7 1,10l35,56 -68,-5c-4,-0 -8,1 -11,5l-34,53 -17,-58c-1,-4 -4,-7 -8,-8l-57,-17 53,-35c3,-2 6,-6 5,-11l-5,-68 56,35c3,2 7,2 10,1l18,-6c4,-1 6,-5 4,-9 -1,-4 -5,-6 -9,-4l-16,5 -60,-37c-4,-2 -9,-2 -13,-0 -4,2 -6,6 -5,11l5,72 -57,36c-4,2 -6,7 -5,12s4,8 8,10l33,10 -178,178c-3,3 -3,7 0,10 1,1 3,2 5,2s3,-0 5,-2l183,-183 12,3 3,12 -56,56c-3,3 -3,7 0,10 1,1 3,2 5,2s3,-0 5,-2l50,-50 10,33c1,4 5,8 10,8 0,0 1,0 1,0 4,0 8,-2 10,-5l36,-57 72,5c4,0 9,-1 11,-5 2,-4 2,-9 -0,-13z" id="path_7"/><path fill="#000000" d="m245,48c1,1 3,2 5,2 1,0 3,-0 4,-1 3,-2 3,-7 1,-10l-13,-17c-2,-3 -7,-3 -10,-1 -3,2 -3,7 -1,10z" id="path_8"/><path fill="#000000" d="m489,268 l-17,-13c-3,-2 -8,-2 -10,1 -2,3 -2,8 1,10l17,13c1,1 3,1 4,1 2,0 4,-1 5,-2 2,-3 2,-8 -1,-10z" id="path_9"/><path fill="#000000" d="m471,42c-2,-3 -7,-3 -10,-0l-18,17c-3,2 -3,7 -0,10 1,1 3,2 5,2 1,0 3,-0 5,-2l18,-17c3,-2 3,-7 0,-10z" id="path_10"/></svg>