<svg id="vector" xmlns="http://www.w3.org/2000/svg" width="24.0d" height="24.0d" viewBox="0 0 60.0 60.0"><path fill="#3f5c6c" d="m47.6,9.4c-0.5,0 -1,-0.4 -1,-1v-1.7c0.2,-2.4 1.3,-4.7 3,-6.3 0.3,-0.3 1,-0.3 1.4,0 0.3,0.3 0.3,1 0,1.4 -1.4,1.2 -2.3,3 -2.5,4.9v1.7c0,0.5 -0.4,1 -1,1z" id="path_0"/><path fill="#3f5c6c" d="m53.3,13.3h-1.6c-0.5,0 -1,-0.4 -1,-1s0.4,-1 1,-1h1.6c2,-0.2 3.6,-1 5,-2.5 0.2,-0.2 0.6,-0.3 1,-0.2 0.3,0 0.6,0.3 0.7,0.7 0,0.3 -0,0.7 -0.2,1 -1.6,1.8 -4,3 -6.3,3z" id="path_1"/><path fill="#3f5c6c" d="m1,60c-0.5,0 -1,-0.4 -1,-1 0,-8.5 2.3,-9.8 10.6,-13 5.6,-2 8.6,-6.7 11.6,-9.7l2.5,-2.5c0.3,-0.3 1,-0.3 1.4,0s0.3,1 0,1.4l-2.5,2.5c-3,3 -6,8 -12.3,10.2 -7.8,3 -9.3,3.7 -9.3,11 0,0.5 -0.4,1 -1,1z" id="path_2"/><path fill="#7f8c8d" d="m41.4,7.2c2.2,-2.2 3.6,-3.2 5.5,-1.3l3.5,3.5 3.5,3.5c2,2 1,3.2 -1.3,5.5z" id="path_3"/><path fill="#95a5a5" d="m23.6,36.3c0.7,0.7 2.8,2.8 5.6,1.4s3.5,-2 7,1.4c3.2,3 5.2,7 5.6,11.3 1,7 6.3,2 8.4,0 13.5,-13.5 5.6,-29.7 -2.8,-38s-24.6,-16.3 -38,-2.8c-2,2 -7,7.4 0,8.4 4.3,0.4 8.3,2.4 11.3,5.6 3.5,3.5 2.8,4.2 1.4,7s0.7,5 1.4,5.6z" id="path_4"/><path fill="#7f8c8d" d="m30.7,21.8c-0.3,-0 -0.6,-0 -0.8,-0.4 -0,-0.2 -0.2,-0.6 -0,-1 2.2,-5 6.5,-9.4 8,-11 0.3,-0.3 1,-0.3 1.3,0s0.3,1 0,1.3c-1.3,1.3 -5.5,5.5 -7.5,10.2 -0,0.3 -0.5,0.6 -1,0.6z" id="path_5"/><path fill="#7f8c8d" d="m39.2,30.2c-0.4,0 -0.8,-0.3 -1,-0.7 -0,-0.4 0,-1 0.5,-1 4.7,-2 9,-6.2 10.2,-7.5 0.3,-0.3 1,-0.3 1.4,0s0.3,1 0,1.4c-1.4,1.4 -5.7,5.7 -11,8 -0,0 -0.2,0 -0.3,0z" id="path_6"/><path fill="#3b97d3" d="M9,28m-3,0a3,3 0,1 1,6 0a3,3 0,1 1,-6 0M30,53m-3,0a3,3 0,1 1,6 0a3,3 0,1 1,-6 0M3,22m-2,0a2,2 0,1 1,4 0a2,2 0,1 1,-4 0M38,57m-2,0a2,2 0,1 1,4 0a2,2 0,1 1,-4 0M2,28m-1,0a1,1 0,1 1,2 0a1,1 0,1 1,-2 0M37,51m-1,0a1,1 0,1 1,2 0a1,1 0,1 1,-2 0" id="path_7"/></svg>