<svg id="vector" xmlns="http://www.w3.org/2000/svg" width="24.0d" height="24.0d" viewBox="0 0 512.0 512.0"><path fill="#ff7b79" d="m455,315v186h-240c0,-22 17,-40 40,-40 17,0 33,-12 37,-29 0,-0 22,-96 22,-96v-80h80c33,0 60,26 60,60z" stroke="#000000" stroke-width="12.0" id="path_0"/><path fill="#fff5f5" d="m255,275h-40c0,-11 -8,-20 -20,-20s-20,8 -20,20v120c0,11 8,20 20,20s20,-8 20,-20h85l0,0 14,-60z" stroke="#000000" stroke-width="12.0" id="path_1"/><path fill="#fff5f5" d="m315,209h-60c-33,0 -60,-26 -60,-60h180c0,33 -26,60 -60,60z" stroke="#000000" stroke-width="12.0" id="path_2"/><path fill="#c1b0b5" d="m315,335h-20c-22,0 -40,-17 -40,-40 0,-11 0,-78 0,-86h60z" stroke="#000000" stroke-width="12.0" id="path_3"/><path fill="#fff5f5" d="M375,421m-40,0a40,40 0,1 1,80 0a40,40 0,1 1,-80 0" stroke="#000000" stroke-width="12.0" id="path_4"/><path fill="#ffda8f" d="m412,44c7,7 7,20 0,28s-20,7 -28,0c-14,14 -24,32 -27,52 -1,8 -4,16 -7,24h-134c0,-13 6,-26 20,-40 17,-17 44,-32 68,-36 20,-3 38,-13 52,-28 -7,-7 -7,-20 0,-28s20,-7 28,0c4,4 8,12 8,19 7,0 15,3 19,8z" stroke="#000000" stroke-width="12.0" id="path_5"/><path fill="#ff7b79" d="m135,295c-44,0 -80,35 -80,80v40c0,11 8,20 20,20s20,-8 20,-20v66c0,11 8,20 20,20s20,-8 20,-20v-106h40c0,-9 0,-70 0,-80z" stroke="#000000" stroke-width="12.0" id="path_6"/></svg>