<svg id="vector" xmlns="http://www.w3.org/2000/svg" width="24.0d" height="24.0d" viewBox="0 0 512.0 512.0"><path fill="#d4cfc2" d="M487,323c-32,32 -84,32 -117,0l-83,-84l14,-102l102,-14l83,84C520,238 520,291 487,323z" id="path_0"/><path fill="#f05467" d="M287,239l-98,-97c-32,-32 -32,-84 0,-117s84,-32 117,0l98,97L287,239z" id="path_1"/><path fill="#bd445a" d="M350,175L350,175l-98,-97c-0,-0 -1,-1 -1,-1c-35,-33 11,-89 49,-57c2,1 4,3 5,5l98,97l0,0L350,175L350,175z" id="path_2"/><path fill="#b2aea6" d="M487,206c32,32 32,84 0,117c-9,9 -21,16 -33,20c9,-28 2,-61 -20,-83l-83,-84l54,-54l0,0L487,206z" id="path_3"/><path fill="#f1ebde" d="M24,487c-32,-32 -32,-84 0,-117l84,-83l102,14l14,102l-84,83C109,520 56,520 24,487z" id="path_4"/><path fill="#ff6473" d="M108,287l97,-98c32,-32 84,-32 117,0s32,84 0,117l-97,98L108,287z" id="path_5"/><path fill="#f05467" d="M171,350L171,350l97,-98c22,-22 29,-55 20,-83c12,3 23,10 33,20c32,32 32,84 0,117l-97,98l0,0L171,350L171,350z" id="path_6"/><path fill="#d4cfc2" d="M141,487c-32,32 -84,32 -117,0c-9,-9 -16,-21 -20,-33c28,9 61,2 83,-20l84,-83l54,54l0,0L141,487z" id="path_7"/></svg>