<svg id="vector" xmlns="http://www.w3.org/2000/svg" width="24.0d" height="24.0d" viewBox="0 0 512.0 512.0"><path fill="#e5eef9" d="m465,149v0c-4,-2 -9,-4 -14,-4h-417c-14,0 -26,11 -26,26v280c0,14 11,26 26,26h72l18,-7h273l8,7h44c5,-0 10,-1 14,-4l21,-12v-298z" id="path_0"/><path fill="#5a5a5a" d="m339,34c-8,0 -174,0 -183,0 -11,0 -21,9 -21,21v12h0v126h33v-113c0,-7 5,-13 12,-13h151c7,0 12,5 12,13v113h11,5v-150z" id="path_1"/><path fill="#d5e3f4" d="m478,145h-28c14,0 26,11 26,26v280c0,14 -11,26 -26,26h28c14,0 26,-11 26,-26v-280c0,-14 -11,-26 -26,-26z" id="path_2"/><path fill="#444444" d="m377,55c0,-12 -9,-21 -21,-21h-22c11,0 21,9 21,21v138h22z" id="path_3"/><path fill="#ee6161" d="m106,145h300v332h-300z" stroke="#000000" stroke-width="12.0" id="path_4"/><path fill="#e5eef9" d="M256,311m-105,0a105,105 0,1 1,211 0a105,105 0,1 1,-211 0" id="path_5"/><path fill="#f6ab31" d="m318,289h-39v-39c0,-2 -2,-5 -5,-5h-34c-2,0 -5,2 -5,5v39h-39c-2,0 -5,2 -5,5v34c0,2 2,5 5,5h39v39c0,2 2,5 5,5h34c2,0 5,-2 5,-5v-39h39c2,0 5,-2 5,-5v-34c0,-2 -2,-5 -5,-5z" stroke="#000000" stroke-width="12.0" id="path_6"/><path fill="#fec165" d="m117,126 l-8,-4c-1,-0 -2,-1 -4,-1h-18c-4,0 -7,3 -7,7v57c0,4 3,7 7,7h18c1,0 2,-0 3,-1l9,-4z" id="path_7"/><path fill="#fdb441" d="m126,121h-22c4,0 7,3 7,7v57c0,4 -3,7 -7,7h22c4,0 7,-3 7,-7v-57c0,-4 -3,-7 -7,-7z" id="path_8"/><path fill="#fec165" d="m417,126 l-8,-4c-1,-0 -2,-1 -4,-1h-18c-4,0 -7,3 -7,7v57c0,4 3,7 7,7h18c1,0 2,-0 3,-1l9,-4z" id="path_9"/><path fill="#fdb441" d="m426,121h-22c4,0 7,3 7,7v57c0,4 -3,7 -7,7h22c4,0 7,-3 7,-7v-57c0,-4 -3,-7 -7,-7z" id="path_10"/></svg>