<svg id="vector" xmlns="http://www.w3.org/2000/svg" width="24.0d" height="24.0d" viewBox="0 0 512.0 512.0"><path fill="#ffd0b8" d="M329,404c-8,2 -16,3 -23,3c-23,1 -41,-3 -54,-10c-19,-10 -28,-23 -28,-23c19,-5 23,-51 22,-61l2,-0c0,10 8,18 18,19c2,0 5,-0 8,-1c7,-2 13,-9 13,-17h19c-1,11 7,20 18,21c4,0 7,-0 11,-2c2,-1 5,-3 7,-6c1,0 2,0 3,1c0,0 0,1 0,3C347,341 348,373 329,404z" stroke="#000000" stroke-width="12.0" id="path_0"/><path fill="#f7b348" d="M450,118c0,33 -11,54 -25,66v0c-24,22 -56,22 -56,21h-0c3,-12 5,-25 5,-40c0,-14 -1,-28 -5,-40c-58,0 -118,-39 -118,-39c0,37 -21,52 -35,58c-7,3 -12,3 -12,3l-0,-0c-2,-1 -5,-2 -8,-2c-9,0 -17,10 -17,23c0,13 7,23 17,23c3,0 6,-1 9,-3c5,21 18,40 35,53c0,0 -5,19 -27,42c-97,26 -143,-52 -147,-60l0,-0c3,5 7,9 12,13c42,31 87,-9 70,-59c-5,-18 -8,-34 -9,-48c-4,-50 12,-77 28,-91c15,-13 37,-15 54,-4c2,1 3,2 3,2c23,-23 56,-31 90,-28C382,14 450,61 450,118z" stroke="#000000" stroke-width="16.0" id="path_1"/><path fill="#8fc6ef" d="M329,301c11,1 17,5 16,16c-0,3 -1,7 -3,9c-4,5 -10,9 -18,8c-11,-1 -19,-10 -18,-21C307,302 318,299 329,301z M270,297c11,1 17,5 16,16c-1,11 -10,19 -21,18c-10,-1 -18,-9 -18,-19c0,-0 0,-1 0,-1C248,299 259,296 270,297z" stroke="#000000" stroke-width="12.0" id="path_2"/><path fill="#52cbce" d="M155,442c0,0 0,9 -3,18c-3,7 -9,15 -19,18c-24,7 -38,24 -38,24s-4,-49 22,-63c8,-4 19,-5 34,0C152,441 154,441 155,442z M155,431c0,4 0,7 0,7c-1,0 -3,1 -4,1c-15,-5 -26,-4 -34,0c-26,-13 -22,-63 -22,-63s13,17 38,24C148,407 153,422 155,431z" stroke="#000000" stroke-width="12.0" id="path_3"/><path fill="#52cbce" d="M329,404c-17,28 -53,54 -124,58c-15,0 -32,0 -50,-1l-2,-0c3,-9 3,-18 3,-18c-1,-0 -3,-1 -4,-1c1,-0 3,-1 4,-1c0,0 0,-3 -0,-7c35,-4 53,-22 62,-43c2,-4 4,-9 5,-14C223,373 256,422 329,404z" stroke="#000000" stroke-width="12.0" id="path_4"/><path fill="#ffd0b8" d="M428,326c0,0 -43,11 -81,2c-1,-0 -2,-0 -3,-1c2,-2 3,-6 3,-9c1,-11 -5,-15 -16,-16c-11,-1 -22,1 -23,12h-19c0,-9 -3,-14 -12,-15c-1,-0 -2,-0 -4,-0c-11,-1 -22,1 -23,12c-0,0 -0,1 -0,2l-2,0c-5,5 -12,9 -19,12c-4,1 -8,3 -12,4c-34,11 -74,9 -74,9c28,-13 49,-29 64,-43c3,-3 6,-6 9,-9c21,-23 27,-42 27,-42c9,7 20,12 32,16c8,2 17,3 26,3c10,0 19,-1 27,-4l0,0c0,0 16,17 37,34C382,310 407,326 428,326z" stroke="#000000" stroke-width="12.0" id="path_5"/><path fill="#ffd0b8" d="M373,166c0,14 -1,27 -5,40c-3,10 -7,20 -12,28c-7,10 -17,19 -30,24c-8,3 -17,4 -27,4c-16,0 -32,-4 -45,-11v-0c-4,-2 -8,-5 -12,-8c-17,-13 -29,-31 -35,-53c-2,2 -5,3 -9,3c-9,0 -17,-10 -17,-23c0,-13 7,-23 17,-23c2,0 5,1 8,2l0,0c0,0 47,-5 47,-61c0,0 10,6 25,14c22,11 57,25 92,25C372,138 373,152 373,166z" stroke="#000000" stroke-width="12.0" id="path_6"/><path fill="#e0993b" d="M438,277c0,0 -58,-2 -76,16c-21,-17 -37,-34 -37,-34l-0,-0c13,-4 23,-13 30,-23h0C356,234 408,235 438,277z M149,179c17,50 -28,91 -70,59c-5,-3 -9,-8 -12,-13c-20,-32 3,-85 73,-94C141,145 144,161 149,179z" stroke="#000000" stroke-width="12.0" id="path_7"/><path fill="#e58376" d="M357,196c-3,0 -7,-2 -8,-6c-0,-4 2,-8 6,-9l12,-2c4,-0 8,2 9,6c0,4 -2,8 -6,9l-12,2C358,196 358,196 357,196z" id="path_8"/><path fill="#e58376" d="M270,196c-0,0 -0,-0 -1,-0l-13,-2c-4,-0 -7,-4 -6,-9c0,-4 4,-7 9,-6l13,2c4,0 7,4 6,9C277,193 274,196 270,196z" id="path_9"/><path fill="#000000" d="M267,166c4,-4 11,-4 16,0c1,1 3,2 5,2c2,0 4,-0 5,-2c3,-3 3,-8 -0,-11c-10,-10 -28,-10 -39,0c-3,3 -3,8 0,11C258,169 263,169 267,166z M347,166c4,-4 11,-4 16,0c1,1 3,2 5,2c2,0 4,-0 5,-2c3,-3 3,-8 -0,-11c-10,-10 -28,-10 -39,0c-3,3 -3,8 0,11C338,169 343,169 347,166z M295,217c5,5 12,8 19,8c7,0 14,-2 19,-8c3,-3 3,-8 0,-11c-3,-3 -8,-3 -11,0c-4,4 -11,4 -16,0c-3,-3 -8,-3 -11,0C292,208 292,214 295,217z" id="path_10"/></svg>