<svg id="vector" xmlns="http://www.w3.org/2000/svg" width="24.0d" height="24.0d" viewBox="0 0 512.0 512.0"><path fill="#66c3ab" d="M79,183h224v320h-224z" stroke-linejoin="round" stroke="#000000" stroke-width="12.0" id="path_0"/><path fill="#f0eced" d="M304,183l64,-88l-224,0l-64,88z" stroke-linejoin="round" stroke="#000000" stroke-width="12.0" id="path_1"/><path fill="#e1d8dc" d="M368,95l64,88l0,320l-128,0l0,-320z" stroke-linejoin="round" stroke="#000000" stroke-width="12.0" id="path_2"/><path fill="#66c3ab" d="M368,95H143V31c0,-13 10,-24 24,-24h176c13,0 24,10 24,24V95z" stroke-linejoin="round" stroke="#000000" stroke-width="12.0" id="path_3"/><path fill="#ffffff" d="M254,273c-5,-2 -12,-1 -17,2l-45,39l-45,-39c-4,-4 -11,-5 -17,-2c-5,2 -9,8 -9,14v96c0,8 7,16 16,16s16,-7 16,-16v-61l29,25c6,5 14,5 20,0l29,-25v61c0,8 7,16 16,16c8,0 16,-7 16,-16v-96C264,281 260,276 254,273z" stroke-linejoin="round" stroke="#000000" stroke-width="12.0" id="path_4"/></svg>