<svg id="vector" xmlns="http://www.w3.org/2000/svg" width="24.0d" height="24.0d" viewBox="0 0 512.0 512.0"><path fill="#f7ef87" d="M128,191 l-22,-20c-5,-5 -8,-13 -5,-21l8,-28c2,-7 8,-12 15,-14l44,-8c8,-1 18,1 24,7l36,36 -28,49zM341,136 l39,-20c6,-3 13,-3 19,-0l31,15c6,3 10,9 11,16l9,60 -83,16 -41,-64z" stroke="#000000" stroke-width="12.0" id="path_0"/><path fill="#efd176" d="m398,164c-2,0 -3,-0 -5,-2 -3,-3 -3,-7 0,-10l8,-8c3,-3 7,-3 10,0 3,3 3,7 0,10l-8,8c-1,1 -3,2 -5,2z" id="path_1"/><path fill="#e1b89a" d="m493,436 l-15,-210c-1,-16 -12,-29 -28,-33l-64,-17c-11,-3 -20,-10 -24,-21l-16,-38c-2,-6 -7,-12 -13,-16l-52,-34c-9,-6 -22,-4 -29,4l-60,75c-3,4 -8,8 -14,11l-82,34c-12,5 -20,16 -22,29l-37,231h448c7,0 14,-6 13,-14z" id="path_2"/><path fill="#d2996f" d="m229,93 l-41,51c-3,4 -8,8 -14,11l-82,34c-12,5 -20,16 -22,29l-37,231h273c-77,-65 -102,-259 -76,-357z" id="path_3"/><path fill="#4e5660" d="m185,299h154v151h-154z" stroke="#000000" stroke-width="12.0" id="path_4"/><path fill="#6e7ca8" d="M189,451h-34l24,-134h34zM336,451h34l-24,-134h-34z" stroke="#000000" stroke-width="12.0" id="path_5"/><path fill="#f7ef87" d="m362,316h-198c-4,0 -8,-3 -8,-8v-17c0,-4 3,-8 8,-8h198c4,0 8,3 8,8v17c0,4 -3,8 -8,8z" stroke="#000000" stroke-width="12.0" id="path_6"/><path fill="#e1b89a" d="m11,440 l-3,-27c-0,-4 1,-9 6,-12l50,-28c3,-1 7,-2 10,-0l38,15c5,2 8,7 7,13l-7,40c-1,5 -6,9 -11,9h-78c-6,0 -11,-4 -12,-10z" stroke="#000000" stroke-width="12.0" id="path_7"/><path fill="#d2996f" d="m53,423c-2,0 -3,-0 -5,-2 -3,-3 -3,-7 0,-10l10,-10c3,-3 7,-3 10,0 3,3 3,7 0,10l-10,10c-1,1 -3,2 -5,2z" id="path_8"/><path fill="#d2996f" d="m412,444 l-11,-24c-2,-5 -0,-11 5,-14l40,-17c2,-1 4,-1 7,-0l42,11c5,1 8,6 7,12l-5,31c-1,5 -5,8 -10,8h-66c-4,0 -8,-2 -9,-6z" stroke="#000000" stroke-width="12.0" id="path_9"/></svg>