<svg id="vector" xmlns="http://www.w3.org/2000/svg" width="24.0d" height="24.0d" viewBox="0 0 512.0 512.0"><path fill="#fad296" d="m402,370s-86,-42 -86,-60h-119c0,18 -86,60 -86,60l-37,3c-35,3 -63,33 -63,69v58h491v-58c0,-36 -27,-66 -63,-69z" stroke="#000000" stroke-width="12.0" id="path_0"/><path fill="#f0e6d2" d="m49,41c-5,9 -7,20 -6,31 0,3 8,5 11,5 25,2 46,-4 70,-9 25,-5 50,-10 76,-10 15,0 27,12 27,26 -0,14 -12,26 -27,26l-0,0c-49,1 -98,14 -148,6 -11,-1 -22,-5 -31,-12 -9,-8 -13,-22 -12,-34 1,-12 7,-24 15,-34 12,-14 49,-25 49,-25 0,0 -19,19 -25,31z" stroke="#000000" stroke-width="12.0" id="path_1"/><path fill="#f0e6d2" d="m462,41c5,9 7,20 6,31 -0,3 -8,5 -11,5 -25,2 -46,-4 -70,-9 -25,-5 -50,-10 -76,-10 -15,0 -27,12 -27,26 0,14 12,26 27,26l0,0c49,1 98,14 148,6 11,-1 22,-5 31,-12 9,-8 13,-22 12,-34 -1,-12 -7,-24 -15,-34 -12,-14 -49,-25 -49,-25 0,-0 19,19 25,31z" stroke="#000000" stroke-width="12.0" id="path_2"/><path fill="#fa9664" d="m417,158s-27,13 -50,1 -32,-46 -32,-46 27,-13 50,-1c22,12 32,46 32,46z" stroke="#000000" stroke-width="12.0" id="path_3"/><path fill="#fa9664" d="m93,158s27,13 50,1 32,-46 32,-46 -27,-13 -50,-1c-22,12 -32,46 -32,46z" stroke="#000000" stroke-width="12.0" id="path_4"/><path fill="#96786e" d="m353,126c0,-39 -29,-71 -64,-71h-64c-35,0 -64,32 -64,71l-18,74c0,38 30,67 53,96 8,10 20,17 33,17h57c12,0 23,-5 31,-16 23,-29 54,-58 54,-97z" stroke="#000000" stroke-width="12.0" id="path_5"/><path fill="#f0e6d2" d="m209,241c-21,-5 -39,14 -31,34 14,34 -13,64 77,64 91,0 63,-30 77,-64 8,-19 -10,-40 -31,-34l-23,6c-15,4 -31,4 -46,0z" stroke="#000000" stroke-width="12.0" id="path_6"/><path fill="#000000" d="m285,275c-5,0 -10,4 -10,10s4,9 10,9 10,-4 10,-9 -4,-10 -10,-10z" id="path_7"/><path fill="#000000" d="m225,275c-5,0 -10,4 -10,10s4,9 10,9 10,-4 10,-9 -4,-10 -10,-10z" id="path_8"/><path fill="#000000" d="m195,148 l7,1v15c0,5 4,10 10,10 5,0 10,-4 10,-10v-10l3,0c5,1 10,-1 12,-7 1,-5 -1,-10 -7,-12l-30,-8c-5,-1 -10,1 -12,7s1,10 7,12z" id="path_9"/><path fill="#000000" d="m284,157c0,0 1,-0 2,-0l3,-0v10c0,5 4,10 10,10 5,0 10,-4 10,-10v-15l7,-1c5,-1 8,-7 7,-12s-7,-8 -12,-7l-30,8c-5,1 -8,7 -7,12 1,4 5,7 9,7z" id="path_10"/><path fill="#000000" d="m226,397c-1,-0 -2,-0 -3,-0 -4,0 -8,2 -9,6 -1,5 1,10 6,12 1,0 2,0 3,0 4,0 8,-2 9,-6 0,-2 0,-5 -0,-7 -1,-2 -3,-4 -5,-5z" id="path_11"/><path fill="#000000" d="m289,398c-1,0 -2,0 -3,0 -2,0 -4,2 -5,5 -1,2 -1,5 -0,7 1,4 5,6 9,6 1,0 2,-0 3,-0 2,-0 4,-2 5,-5 1,-2 1,-5 0,-7 -1,-4 -5,-6 -9,-6z" id="path_12"/></svg>