<svg id="vector" xmlns="http://www.w3.org/2000/svg" width="24.0d" height="24.0d" viewBox="0 0 512.0 512.0"><path fill="#ffc022" d="M504,285v203c0,10 -8,18 -18,18H26c-10,0 -18,-8 -18,-18V236C176,148 328,285 504,285z" id="path_0"/><path fill="#53c9e5" d="M55,405a200,66 0,1 0,401 0a200,66 0,1 0,-401 0z" stroke="#000000" stroke-width="12.0" id="path_1"/><path fill="#ff9a47" d="M337,68m-56,0a56,56 0,1 1,113 0a56,56 0,1 1,-113 0" stroke="#000000" stroke-width="12.0" id="path_2"/><path fill="#000000" d="M358,244c4,0 7,-3 7,-7v-83c0,-4 -3,-7 -7,-7c-4,0 -7,3 -7,7v53c-5,-0 -8,-4 -8,-9V174c0,-4 -3,-7 -7,-7c-4,0 -7,3 -7,7v22c0,13 10,24 24,24v14C350,240 354,244 358,244z" id="path_3"/><path fill="#000000" d="M401,213V190c0,-4 -3,-7 -7,-7c-4,0 -7,3 -7,7v22c0,13 10,24 24,24v14c0,4 3,7 7,7c4,0 7,-3 7,-7v-42c0,-4 -3,-7 -7,-7c-4,0 -7,3 -7,7v12C405,222 401,218 401,213z" id="path_4"/><path fill="#000000" d="M504,278c-66,0 -130,-20 -192,-39c-49,-15 -100,-31 -151,-36c-57,-5 -108,3 -156,28c-3,2 -5,6 -3,10c2,3 6,5 10,3c101,-52 196,-22 296,9c63,20 128,40 197,40c4,0 7,-3 7,-7S508,278 504,278z" id="path_5"/><path fill="none" d="M165,374h20M305,386h20M216,415h20" stroke-linecap="round" stroke="#000000" stroke-width="12.0" id="path_6"/><path fill="#000000" d="M51,297V351c0,4 3,7 7,7s7,-3 7,-7v-14c13,-0 24,-11 24,-24v-22c0,-4 -3,-7 -7,-7s-7,3 -7,7v22c0,5 -4,9 -8,9V242c0,-4 -3,-7 -7,-7s-7,3 -7,7v40H50c-5,0 -9,-4 -9,-9v-15c0,-4 -3,-7 -7,-7c-4,0 -7,3 -7,7v15c0,13 11,24 24,24L51,297L51,297z" id="path_7"/><path fill="#000000" d="M75,118c2,13 13,23 26,26v38c0,4 3,7 7,7s7,-3 7,-7v-38c16,-0 28,-14 28,-30v-9c14,-3 24,-15 24,-30V61c0,-4 -3,-7 -7,-7s-7,3 -7,7v13c0,8 -7,15 -15,15h-0h-3c-7,0 -13,-6 -13,-13v-26c0,-4 -3,-7 -7,-7s-7,3 -7,7v26c0,14 10,26 24,28v9c0,8 -6,15 -15,15h-5h-1c-10,0 -18,-8 -18,-18V83c0,-4 -3,-7 -7,-7s-7,3 -7,7v18c-5,-2 -9,-7 -9,-13V71c0,-4 -3,-7 -7,-7s-7,3 -7,7v16C50,103 61,115 75,118z" id="path_8"/><path fill="#000000" d="M485,324c-5,0 -13,3 -20,8c-2,-10 -6,-22 -16,-32c-3,-3 -7,-3 -10,0c-3,3 -3,7 0,10c5,5 8,12 10,19c-6,-3 -12,-5 -17,-6c-4,-0 -8,2 -8,6c-0,4 2,8 6,8c0,0 21,3 21,20c0,4 3,7 7,7c0,0 0,0 0,0c3,0 7,-2 7,-6c0,-0 0,-2 0,-5c3,-13 20,-16 21,-16c4,-0 7,-4 6,-8C493,326 490,323 485,324z" id="path_9"/><path fill="none" d="M61,466h0M57,489h0M444,474h0M460,459h0M179,248h0M206,257h0M173,271h0M48,476h0" stroke-linecap="round" stroke="#000000" stroke-width="12.0" id="path_10"/></svg>