<svg id="vector" xmlns="http://www.w3.org/2000/svg" width="24.0d" height="24.0d" viewBox="0 0 512.0 512.0"><path fill="#006dff" d="M512,168c-43,0 -33,-48 -33,-48l0,0c-25,-18 -61,-11 -78,14l-2,3c-12,18 -33,30 -56,30l0,0c-43,0 -33,-48 -33,-48l0,0c-25,-18 -61,-11 -78,14l-2,3c-12,18 -33,30 -56,30l0,0c-43,0 -33,-48 -33,-48l0,0c-25,-18 -61,-11 -78,14l-2,3C43,157 22,168 0,168v234h512V168z" id="path_0"/><path fill="#0050c0" d="M512,168c-43,0 -33,-48 -33,-48l0,0c-25,-18 -61,-11 -78,14l-2,3c-12,18 -33,30 -56,30c-43,0 -33,-48 -33,-48l0,0c-15,-11 -35,-13 -52,-6v289h256V168z" id="path_1"/><path fill="#08b7fc" d="M512,262c-43,0 -33,-48 -33,-48l0,0c-25,-18 -61,-11 -78,14l-2,3c-12,18 -33,30 -56,30l0,0c-43,0 -33,-48 -33,-48l0,0c-25,-18 -61,-11 -78,14l-2,3c-12,18 -33,30 -56,30l0,0c-43,0 -33,-48 -33,-48l0,0c-25,-18 -61,-11 -78,14l-2,3C43,251 22,262 0,262v139h512V262z" id="path_2"/><path fill="#006dff" d="M512,262c-43,0 -33,-48 -33,-48l0,0c-25,-18 -61,-11 -78,14l-2,3c-12,18 -33,30 -56,30c-43,0 -33,-48 -33,-48l0,0c-15,-11 -35,-13 -52,-6v195h256V262z" id="path_3"/><path fill="#82d2ff" d="M512,357c-43,0 -33,-48 -33,-48l0,0c-25,-18 -61,-11 -78,14l-2,3c-12,18 -33,30 -56,30l0,0c-43,0 -33,-48 -33,-48l0,0c-25,-18 -61,-11 -78,14l-2,3c-12,18 -33,30 -56,30l0,0c-43,0 -33,-48 -33,-48l0,0c-25,-18 -61,-11 -78,14l-2,3C43,345 22,357 0,357v45h512V357z" id="path_4"/><path fill="#08b7fc" d="M512,357c-43,0 -33,-48 -33,-48l0,0c-25,-18 -61,-11 -78,14l-2,3c-12,18 -33,30 -56,30c-43,0 -33,-48 -33,-48l0,0c-15,-11 -35,-13 -52,-6v100h256V357z" id="path_5"/></svg>