<svg id="vector" xmlns="http://www.w3.org/2000/svg" width="24.0d" height="24.0d" viewBox="0 0 512.0 512.0"><path fill="#7d4f40" d="M70,267H40c-6,0 -12,-5 -12,-11v-32c0,-5 -4,-10 -10,-10l0,0c-5,0 -10,4 -10,10v35c0,16 13,30 30,30h32V267z" stroke="#000000" stroke-width="12.0" id="path_0"/><path fill="#b8674d" d="M499,289l-1,0c-5,4 -11,7 -17,10c-11,5 -23,7 -35,7H93c-20,0 -36,-18 -32,-39c16,-82 65,-122 157,-122c106,0 175,63 175,63h3c22,0 43,11 55,30l24,15l20,12C505,273 506,284 499,289z" stroke="#000000" stroke-width="12.0" id="path_1"/><path fill="#e8c1b5" d="M499,289l-1,0c-5,4 -11,7 -17,10c-11,-17 -8,-34 -4,-45l20,12C505,273 506,284 499,289z" stroke="#000000" stroke-width="12.0" id="path_2"/><path fill="#e8c1b5" d="M169,320H89c-2,0 -4,-2 -4,-4v-3c0,-15 12,-27 27,-27h35c15,0 27,12 27,27v3C174,318 172,320 169,320z" stroke="#000000" stroke-width="12.0" id="path_3"/><path fill="#e8c1b5" d="M407,363L324,314c-2,-1 -3,-5 -2,-7l2,-3c9,-15 29,-20 45,-11l36,21c15,9 20,29 11,45l-2,3C413,364 409,365 407,363z" stroke="#000000" stroke-width="12.0" id="path_4"/><path fill="#c97e67" d="M271,304c20,8 49,19 68,19l29,-32c0,0 -8,-14 -17,-28c-6,-9 -19,-12 -29,-7l-51,26C261,286 262,300 271,304z" stroke="#000000" stroke-width="12.0" id="path_5"/></svg>