<svg id="vector" xmlns="http://www.w3.org/2000/svg" width="24.0d" height="24.0d" viewBox="0 0 512.0 512.0"><path fill="#b9ea6a" d="M98,97m-60,0a60,60 0,1 1,121 0a60,60 0,1 1,-121 0" stroke="#000000" stroke-width="12.0" id="path_0"/><path fill="#daeaef" d="M74,416l131,-131l21,21l-131,131zM296,194 l111,-111 21,21 -111,111c-6,6 -15,6 -21,0 -6,-6 -6,-15 -0,-21z" stroke="#000000" stroke-width="12.0" id="path_1"/><path fill="#fce25c" d="M58,453m-50,0a50,50 0,1 1,101 0a50,50 0,1 1,-101 0M433,78m-70,0a70,70 0,1 1,141 0a70,70 0,1 1,-141 0" stroke="#000000" stroke-width="12.0" id="path_2"/><path fill="#daeaef" d="M191,213 l-66,-66c-6,-6 -6,-15 0,-21 6,-6 15,-6 21,0l66,66zM320,299 l60,60 -21,21 -60,-60c-6,-6 -6,-15 0,-21 6,-6 15,-6 21,0z" stroke="#000000" stroke-width="12.0" id="path_3"/><path fill="#fc8086" d="M256,256m-91,0a91,91 0,1 1,181 0a91,91 0,1 1,-181 0" stroke="#000000" stroke-width="12.0" id="path_4"/><path fill="#97e4f9" d="M416,416m-70,0a70,70 0,1 1,141 0a70,70 0,1 1,-141 0M256,84m-30,0a30,30 0,1 1,60 0a30,30 0,1 1,-60 0M407,256m-30,0a30,30 0,1 1,60 0a30,30 0,1 1,-60 0M37,256m-30,0a30,30 0,1 1,60 0a30,30 0,1 1,-60 0M256,427m-30,0a30,30 0,1 1,60 0a30,30 0,1 1,-60 0" stroke="#000000" stroke-width="12.0" id="path_5"/></svg>