<svg id="vector" xmlns="http://www.w3.org/2000/svg" width="24.0d" height="24.0d" viewBox="0 0 512.0 512.0"><path fill="#fef0ae" d="M255,255m-247,0a247,247 0,1 1,495 0a247,247 0,1 1,-495 0" stroke="#000000" stroke-width="12.0" id="path_0"/><path fill="#fee97d" d="m155,255c0,-110 73,-204 173,-236 -23,-7 -48,-11 -74,-11 -136,0 -247,110 -247,247s110,247 247,247c25,0 50,-4 74,-11 -100,-31 -173,-125 -173,-236z" stroke="#000000" stroke-width="12.0" id="path_1"/><path fill="#fee97d" d="m502,259h0c-0,35 -8,69 -23,100l-0,-0c-19,-7 -32,-26 -32,-48 0,-28 23,-52 52,-52 1,0 2,0 3,0z" stroke="#000000" stroke-width="12.0" id="path_2"/><path fill="#fedf30" d="m255,463c21,0 39,14 44,34 -14,2 -29,4 -44,4s-30,-1 -44,-4c5,-20 23,-34 44,-34z" stroke="#000000" stroke-width="12.0" id="path_3"/><path fill="#fee97d" d="M314,353c16,0 30,13 30,30 0,16 -13,30 -30,30 -16,0 -30,-13 -30,-30 0,-16 13,-30 30,-30zM369,304m-21,0a21,21 0,1 1,42 0a21,21 0,1 1,-42 0M323,189m-57,0a57,57 0,1 1,115 0a57,57 0,1 1,-115 0" stroke="#000000" stroke-width="12.0" id="path_4"/><path fill="#fee45a" d="M155,303m-33,0a33,33 0,1 1,66 0a33,33 0,1 1,-66 0" stroke="#000000" stroke-width="12.0" id="path_5"/><path fill="#fedf30" d="M94,199c11,0 20,9 20,20 0,11 -9,20 -20,20s-20,-9 -20,-20c0,-11 9,-20 20,-20zM180,18c2,8 3,17 3,26 0,54 -44,99 -99,99 -16,0 -31,-4 -45,-11h-0c30,-53 80,-95 141,-113z" stroke="#000000" stroke-width="12.0" id="path_6"/></svg>