<svg id="vector" xmlns="http://www.w3.org/2000/svg" width="24.0d" height="24.0d" viewBox="0 0 682.0 682.0"><path fill="#7d3214" d="m381,165 l-39,-31 -10,100 32,-20c14,-0 27,-12 27,-27C391,178 387,171 381,165" id="path_0"/><path fill="#963e1c" d="M351,187C351,178 350,171 349,165L341,134 301,165C295,171 291,178 291,187c0,14 12,27 27,27l12,20 14,-20C348,214 351,202 351,187" id="path_1"/><path fill="#b6f1fb" d="M40,244C23,244 10,257 10,274 10,290 23,304 40,304l133,-0c11,-0 23,-1 34,-3L281,284 321,244Z" stroke="#000000" stroke-width="20.0" id="path_2"/><path fill="#6ee2f6" d="M642,244L602,244L602,304L642,304c16,-0 30,-13 30,-30C672,257 659,244 642,244" id="path_3"/><path fill="#b6f1fb" d="M632,274c0,-16 -13,-30 -30,-30l-261,-0l60,40 72,16c11,2 23,3 34,3L602,304C619,304 632,290 632,274" id="path_4"/><path fill="#ff9a42" d="M371,492L371,522C371,539 357,552 341,552 324,552 311,539 311,522L311,492l30,-20z" id="path_5"/><path fill="#ff9a42" d="M371,412L371,452L311,452L311,412l30,-20z M371,452L371,492L311,492L311,452l30,-20z M371,412l-60,-0l0,-66l60,-0z" id="path_6"/><path fill="#963e1c" d="m371,214l-40,-0l9,158C374,373 401,346 401,312L401,244C401,227 387,214 371,214" id="path_7"/><path fill="#c24623" d="m361,312l0,-68c0,-16 -13,-30 -30,-30l-20,-0c-16,-0 -30,13 -30,30L281,311c0,32 26,60 59,60C352,373 361,346 361,312" id="path_8"/><path fill="none" d="m371,365l0,156c0,16 -13,30 -30,30 -16,-0 -30,-13 -30,-30L311,365" stroke-linecap="round" stroke="#000000" stroke-width="20.0" id="path_9"/><path fill="none" d="m371,214l-60,-0c-16,-0 -30,13 -30,30l0,67c0,32 26,60 59,60C374,373 401,346 401,312L401,244C401,227 387,214 371,214Z" stroke-linecap="round" stroke="#000000" stroke-width="20.0" id="path_10"/><path fill="none" d="m364,214c14,-0 27,-12 27,-27 0,-8 -3,-15 -10,-21L341,134 301,165C295,171 291,178 291,187 291,202 303,214 318,214" stroke-linecap="round" stroke="#000000" stroke-width="20.0" id="path_11"/><path fill="none" d="M311,412L371,412 M311,452L371,452 M311,492L371,492 M341,134L341,10 M401,284 l120,120l0,100c25,51 68,94 120,120 M396,335 l64,96l0,120c25,51 68,94 120,120" stroke-linecap="round" stroke="#000000" stroke-width="20.0" id="path_12"/><path fill="none" d="M281,284 l-120,120l0,100c-25,51 -68,94 -120,120 M401,244 l60,-60l0,-83c19,-39 51,-70 90,-90 M286,335 l-64,96l0,120c-25,51 -68,94 -120,120 M281,244 l-60,-60l0,-83c-19,-39 -51,-70 -90,-90" stroke-linecap="round" stroke="#000000" stroke-width="20.0" id="path_13"/><path fill="none" d="M401,284 L474,300C485,302 497,304 508,304L642,304c16,-0 30,-13 30,-30C672,257 659,244 642,244L401,244" stroke-linecap="round" stroke="#000000" stroke-width="20.0" id="path_14"/></svg>