<svg id="vector" xmlns="http://www.w3.org/2000/svg" width="24.0d" height="24.0d" viewBox="0 0 512.0 512.0"><path fill="#ff8087" d="M426,277L402,308c13,1 71,14 71,39c0,23 -59,75 -273,42c236,51 304,-14 304,-46C504,295 426,277 426,277z" stroke="#000000" stroke-width="12.0" id="path_0"/><path fill="#ff8087" d="M330,316l-23,5c-5,1 -9,4 -10,9l-2,8c-1,2 1,5 4,5h54c3,0 7,-2 7,-6l2,-22L330,316z" stroke="#000000" stroke-width="12.0" id="path_1"/><path fill="#9c969e" d="M359,127c-78,-29 -159,17 -198,7c-32,-8 -89,-30 -152,62c-2,3 -1,8 1,11c5,5 15,11 30,15c21,24 50,26 72,18c56,76 152,72 186,58c0,0 12,20 54,19c48,0 77,-30 77,-79C431,195 419,149 359,127z" stroke="#000000" stroke-width="12.0" id="path_2"/><path fill="#ff8087" d="M160,112c-9,-15 -39,-12 -52,17c-2,6 -0,13 4,17c5,4 12,5 18,2C146,144 171,130 160,112z" stroke="#000000" stroke-width="12.0" id="path_3"/><path fill="#4b3f4e" d="M92,180m-12,0a12,12 0,1 1,24 0a12,12 0,1 1,-24 0" stroke="#000000" stroke-width="12.0" id="path_4"/><path fill="#9c969e" d="M182,256c0,21 10,45 17,57c2,4 -0,10 -5,11l-1,0c-7,1 -13,8 -13,15c0,1 1,2 2,2h33c3,0 6,-2 7,-6c4,-15 10,-45 13,-70" stroke="#000000" stroke-width="12.0" id="path_5"/><path fill="#ff8087" d="M182,344h33c3,0 6,-2 7,-6c1,-4 2,-9 4,-16l-27,-4c-0,3 -2,6 -6,7l-1,0c-7,1 -13,8 -13,15C179,343 180,344 182,344z" stroke="#000000" stroke-width="12.0" id="path_6"/><path fill="#000000" d="M297,235c1,0 2,1 4,1c2,0 5,-1 6,-3c1,-2 3,-5 5,-7c3,-2 3,-7 0,-10c-2,-3 -7,-3 -10,-0c-3,2 -5,6 -8,10C292,228 293,233 297,235z" id="path_7"/></svg>