<svg id="vector" xmlns="http://www.w3.org/2000/svg" width="24.0d" height="24.0d" viewBox="0 0 512.0 512.0"><path fill="#a06a5a" d="m416,74 l-99,64c-10,6 -14,20 -8,31l3,6 42,-3 64,-57z" stroke="#000000" stroke-width="16.0" id="path_0"/><path fill="#ffce8a" d="m400,127 l32,-8v-52c0,-4 -5,-6 -8,-3 -9,10 -23,32 -23,63z" stroke="#000000" stroke-width="16.0" id="path_1"/><path fill="#f1a673" d="m336,456h21c5,0 9,-5 7,-10l-44,-133 -32,72z" stroke="#000000" stroke-width="16.0" id="path_2"/><path fill="#847f84" d="m320,432 l16,24h21c5,0 9,-5 7,-10l-7,-21h-37v8z" stroke="#000000" stroke-width="16.0" id="path_3"/><path fill="#d18964" d="m64,344v104c0,4 3,8 8,8h32v-52z" stroke="#000000" stroke-width="16.0" id="path_4"/><path fill="#615260" d="m64,448c0,4 3,8 8,8h32v-32h-40z" stroke="#000000" stroke-width="16.0" id="path_5"/><path fill="#a06a5a" d="m67,169c-68,37 -59,117 -59,121 1,8 8,14 15,14 0,0 1,-0 2,-0 8,-1 15,-9 13,-18 -0,-0 -2,-31 11,-58z" stroke="#000000" stroke-width="16.0" id="path_6"/><path fill="#df976c" d="m498,184 l-47,-62c-10,-14 -30,-17 -44,-6l-50,36c-28,21 -64,30 -99,25l-147,-20c-40,-5 -73,32 -61,71l8,27c5,16 7,34 7,51v44c0,6 1,12 3,18l36,87h27c6,0 9,-6 7,-11l-42,-84 35,-59c58,17 105,30 148,11v56l7,80c0,4 3,7 8,7h40l-32,-80 33,-60c3,-7 8,-13 14,-19 20,-23 45,-57 57,-82l4,-9c1,-2 3,-2 5,-1l35,23c5,3 11,5 17,5 10,0 21,-4 26,-13 7,-11 6,-24 -1,-34z" stroke="#000000" stroke-width="16.0" id="path_7"/><path fill="#736572" d="M287,448c0,4 3,7 8,7h40l-12,-32h-38zM104,456h27c6,0 9,-6 7,-11l-10,-20h-37z" stroke="#000000" stroke-width="16.0" id="path_8"/><path fill="#ffce8a" d="m498,184 l-7,-9 -45,45 11,7c4,3 10,5 16,5 10,0 20,-4 26,-13 7,-11 6,-24 -1,-34z" stroke="#000000" stroke-width="16.0" id="path_9"/><path fill="#000000" d="m440,159v-8c0,-4 -3,-7 -7,-7s-7,3 -7,7v8c0,4 3,7 7,7s7,-3 7,-7z" id="path_10"/></svg>