<svg id="vector" xmlns="http://www.w3.org/2000/svg" width="24.0d" height="24.0d" viewBox="0 0 512.0 512.0"><path fill="#eaa998" d="m48,252h415v208h-415z" stroke="#000000" stroke-width="12.0" id="path_0"/><path fill="#fed2a4" d="m498,499h-485c-3,0 -5,-2 -5,-5v-26c0,-3 2,-5 5,-5h485c3,0 5,2 5,5v26c-0,3 -2,5 -5,5z" stroke="#000000" stroke-width="12.0" id="path_1"/><path fill="#fed2a4" d="m498,222h-485c-3,0 -5,2 -5,5v25h497v-25c0,-3 -2,-5 -5,-5z" stroke="#000000" stroke-width="12.0" id="path_2"/><path fill="#fff3de" d="M25,252h45v208h-45zM135,252h45v208h-45zM331,252h45v208h-45zM441,252h45v208h-45zM25,159h460v62h-460zM484,84 l-186,-64c-26,-9 -56,-9 -83,0l-186,64c-12,4 -20,15 -20,28v40c0,3 2,5 5,5h485c3,0 5,-2 5,-5v-40c-0,-12 -8,-24 -20,-28z" stroke="#000000" stroke-width="12.0" id="path_3"/><path fill="#fed2a4" d="m62,114 l167,-52c8,-3 17,-4 26,-4s18,1 26,4l167,52z" stroke="#000000" stroke-width="12.0" id="path_4"/><path fill="#b6c4cf" d="m359,418h-206c-9,0 -16,7 -16,16v26h240v-26c0,-9 -7,-16 -16,-16z" stroke="#000000" stroke-width="12.0" id="path_5"/><path fill="#aca6d6" d="m297,418h-83v-69c0,-22 18,-41 41,-41 22,0 41,18 41,41z" stroke="#000000" stroke-width="12.0" id="path_6"/><path fill="#fff3de" d="M70,282h-57c-3,0 -5,-2 -5,-5v-23h63zM498,282h-57v-29h63v23c0,3 -2,5 -5,5zM387,282h-68c-3,0 -6,-2 -6,-6v-22h81v22c0,3 -2,6 -6,6zM192,282h-68c-3,0 -6,-2 -6,-6v-22h81v22c0,3 -2,6 -6,6z" stroke="#000000" stroke-width="12.0" id="path_7"/></svg>