<svg id="vector" xmlns="http://www.w3.org/2000/svg" width="24.0d" height="24.0d" viewBox="0 0 512.0 512.0"><path fill="#92563a" d="m464,352a78,78 0,0 1,-55 23,79 79,0 0,1 -45,-14 0,0 0,0 1,-0 0,81 81,0 0,1 -11,-9l-192,-192c-31,-31 -31,-81 -0,-112a80,80 0,0 1,64 -23l107,9a162,162 0,0 1,146 140c0,2 0,4 0,6l9,107a80,80 0,0 1,-23 64z" stroke="#000000" stroke-width="12.0" id="path_0"/><path fill="#f2dec2" d="m288,288 l-18,22 -39,46a212,212 0,0 0,-35 59l-6,17a83,83 0,0 1,-78 53h-2a83,83 0,0 1,-26 -163,212 212,0 0,0 70,-39l50,-43 22,-18z" stroke="#000000" stroke-width="12.0" id="path_1"/></svg>