<svg id="vector" xmlns="http://www.w3.org/2000/svg" width="24.0d" height="24.0d" viewBox="0 0 512.0 512.0"><path fill="#b9c1cb" d="m132,438 l-44,19 6,-48 249,-330 17,-5 20,15 0,18z" stroke="#000000" stroke-width="12.0" id="path_0"/><path fill="#b9c1cb" d="m403,123 l-78,-59c-1,-1 -2,-4 -0,-6l11,-14c6,-8 17,-9 25,-3l56,42c8,6 9,17 3,25l-11,14c-1,1 -4,2 -6,0z" stroke="#000000" stroke-width="12.0" id="path_1"/><path fill="#e7ecf1" d="M247,462 l-23,42 -23,-42v-414l7,-20h28l12,20z" stroke="#000000" stroke-width="12.0" id="path_2"/><path fill="#e7ecf1" d="M272,48h-98c-2,0 -4,-2 -4,-4v-18c0,-9 8,-18 18,-18h70c9,0 18,8 18,18v18c-0,2 -2,4 -4,4z" stroke="#000000" stroke-width="12.0" id="path_3"/></svg>