<svg id="vector" xmlns="http://www.w3.org/2000/svg" width="24.0d" height="24.0d" viewBox="0 0 682.6 682.6"><path fill="#bc4c2e" d="m171.6,10.5c-42,-4.2 -83.4,16.5 -105.2,52.8 -28.2,46.9 -17,108.2 25.5,142.4l0.4,0.3c35.6,28.5 79.7,45 125.2,47.2l-0.6,-44.2c-35.2,-2.2 -69.2,-15.3 -96.8,-37.3l-0.4,-0.3c-25.6,-20.4 -32,-57 -15.3,-85.2 13,-21.7 37.7,-34 62.9,-31.6 35.8,3.5 71.7,6 107.8,7.4l66.2,-21.4 -66.2,-22.7C240.5,16.3 206,13.9 171.6,10.5" stroke="#000000" stroke-width="20.0" id="path_0"/><path fill="#bc4c2e" d="m616.2,63.4c-21.7,-36.3 -63,-57 -105.2,-52.8 -34.3,3.4 -68.8,5.8 -103.4,7L341.3,40.4 407.6,61.9c36,-1.3 71.9,-3.8 107.8,-7.4 25.2,-2.5 49.9,9.8 62.9,31.6 16.8,28 10.2,64.7 -15.3,85.2l-0.3,0.3c-27.6,22 -61.7,35.2 -96.9,37.4l-0.6,44.2c45.4,-2 89.5,-18.7 125.2,-47.2l0.3,-0.3C633.4,171.6 644.4,110.3 616.2,63.4" stroke="#000000" stroke-width="20.0" id="path_1"/><path fill="#ffcb37" d="m503.9,560.9l0,-152c0,-15.2 -8,-29.3 -21.3,-36.9l-119.9,-69.2c-13.2,-7.6 -29.4,-7.6 -42.6,-0l-119.9,69.2c-13.2,7.6 -21.3,21.7 -21.3,36.9L178.7,560.9c0,15.2 8,29.3 21.3,36.9l119.9,69.2c13.2,7.6 29.4,7.6 42.6,-0L482.6,597.9C495.8,590.3 503.9,576.2 503.9,560.9" stroke="#000000" stroke-width="20.0" id="path_2"/><path fill="#ffcb37" d="m407.6,230.8c0,36.6 -29.6,66.2 -66.2,66.2 -36.6,-0 -66.2,-29.6 -66.2,-66.2 0,-36.6 29.6,-66.2 66.2,-66.2C377.9,164.6 407.6,194.2 407.6,230.8" stroke="#000000" stroke-width="20.0" id="path_3"/><path fill="#95d6fc" d="m459.7,422.4l0,124.9c0,7.8 -4.2,15 -11,19l-96.3,55.6c-6.8,3.9 -15.2,3.9 -22,-0l-96.3,-55.6c-6.8,-3.9 -11,-11.2 -11,-19L222.9,422.4c0,-7.8 4.2,-15 11,-19l96.3,-55.6c6.8,-3.9 15.2,-3.9 22,-0C374.9,360.7 426,390.3 448.7,403.3 455.5,407.2 459.7,414.5 459.7,422.4" stroke="#000000" stroke-width="20.0" id="path_4"/><path fill="#fcac1f" d="M275,230.8C275,212.5 260.2,197.7 241.9,197.7 223.6,197.7 208.8,212.5 208.8,230.8c0,18.3 14.8,33 33,33C260.2,264 275,249 275,230.8" stroke="#000000" stroke-width="20.0" id="path_5"/><path fill="#fcac1f" d="M473.8,230.8C473.8,212.5 459,197.7 440.7,197.7 422.4,197.7 407.6,212.5 407.6,230.8c0,18.3 14.8,33 33,33C459,264 473.8,249 473.8,230.8" stroke="#000000" stroke-width="20.0" id="path_6"/><path fill="#c3e9fc" d="m406.5,450l0,69.7c0,4 -2,7.7 -5.6,9.7L346.9,560.7c-3.4,2 -7.8,2 -11.2,-0l-53.9,-31c-3.4,-2 -5.6,-5.7 -5.6,-9.7L276,450c0,-4 2,-7.7 5.6,-9.7l53.9,-31c3.5,-2 7.7,-2 11.2,-0C359.3,416.2 388.5,433 400.9,440.2 404.3,442.2 406.5,445.9 406.5,450" stroke="#000000" stroke-width="20.0" id="path_7"/><path fill="#ebeaec" d="m275,17.6l0,44.2c44,1.6 88.3,1.6 132.5,-0L407.6,17.6C363.4,19.4 319.2,19.4 275,17.6" stroke="#000000" stroke-width="20.0" id="path_8"/><path fill="none" d="m363.4,230.8c0,12.2 -9.8,22 -22,22 -12.2,-0 -22,-9.8 -22,-22 0,-12.2 9.8,-22 22,-22C353.5,208.8 363.4,218.6 363.4,230.8Z" stroke="#000000" stroke-width="20.0" id="path_9"/><path fill="none" d="M341.3,407.6L341.3,344.7 M341.3,562.2L341.3,625 M225.8,411.5 L277.6,444.4" stroke="#000000" stroke-width="20.0" id="path_10"/><path fill="none" d="M277.6,525.3 L225.8,558.2 M456.8,411.5 L405,444.4 M405,525.3 L456.8,558.2" stroke="#000000" stroke-width="20.0" id="path_11"/></svg>