<svg id="vector" xmlns="http://www.w3.org/2000/svg" width="24.0d" height="24.0d" viewBox="0 0 512.0 512.0"><path fill="none" d="M60,140 c66,0 132,-20 198,-110 c66,100 132,100 198,116 c-40,76 -40,142 0,228 c-66,0 -132,0 -198,116c-66,-90 -122,-120 -198,-120 c40,-76 40,-142 0,-228z" stroke="#000000" stroke-width="12.0" id="path_0"/><path fill="none" d="M170,114h176 M80,184h356 M84,256h346 M84,326h350 M170,400h166 M116,130v250 M182,120v280 M256,50v420 M328,120v280 M398,130v250" stroke="#000000" stroke-width="12.0" id="path_1"/><path fill="#dd636e" d="M255,28m-20,0a20,20 0,1 1,41 0a20,20 0,1 1,-41 0M453,142m-20,0a20,20 0,1 1,41 0a20,20 0,1 1,-41 0M453,369m-20,0a20,20 0,1 1,41 0a20,20 0,1 1,-41 0M58,142m-20,0a20,20 0,1 1,41 0a20,20 0,1 1,-41 0M58,369m-20,0a20,20 0,1 1,41 0a20,20 0,1 1,-41 0M255,483m-20,0a20,20 0,1 1,41 0a20,20 0,1 1,-41 0" stroke="#000000" stroke-width="12.0" id="path_2"/></svg>