<svg id="vector" xmlns="http://www.w3.org/2000/svg" width="24.0d" height="24.0d" viewBox="0 0 128.0 128.0"><path fill="#9b14aa" d="m119,34a5,5 0,0 0,-6 -1l-37,19a16,16 0,0 0,-22 0l-37,-19a5,5 0,0 0,-6 1c-3,4 -7,14 -7,29s4,24 7,29a5,5 0,0 0,6 1l37,-19a16,16 0,0 0,22 0l37,19a5,5 0,0 0,6 -1c3,-4 7,-14 7,-29s-4,-24 -7,-29z" id="path_0"/><path fill="#f5595a" d="M64,63m-8,0a8,8 0,1 1,16 0a8,8 0,1 1,-16 0" id="path_1"/><path fill="#ffe65a" d="m83,72a1,1 0,0 1,-1 -2,18 18,0 0,0 0,-13 1,1 0,0 1,3 -1,22 22,0 0,1 0,15 1,1 0,0 1,-1 1z" id="path_2"/><path fill="#ffe65a" d="m94,77a1,1 0,0 1,-1 -2,30 30,0 0,0 0,-21 1,1 0,0 1,3 -1,34 34,0 0,1 0,23 1,1 0,0 1,-1 1z" id="path_3"/><path fill="#ffe65a" d="m105,81a1,1 0,0 1,-1 -2,42 42,0 0,0 0,-29 1,1 0,1 1,3 -1,46 46,0 0,1 0,32 1,1 0,0 1,-1 1z" id="path_4"/><path fill="#ffe65a" d="m45,72a1,1 0,0 1,-1 -1,22 22,0 0,1 0,-15 1,1 0,0 1,3 1,18 18,0 0,0 0,13 1,1 0,0 1,-1 2z" id="path_5"/><path fill="#ffe65a" d="m33,77a1,1 0,0 1,-1 -1,34 34,0 0,1 0,-23 1,1 0,0 1,3 1,30 30,0 0,0 0,21 1,1 0,0 1,-1 2z" id="path_6"/><path fill="#ffe65a" d="m22,81a1,1 0,0 1,-1 -1,46 46,0 0,1 0,-32 1,1 0,1 1,3 1,42 42,0 0,0 0,29 1,1 0,0 1,-1 2z" id="path_7"/><path fill="#ffe65a" d="M41,24 l-0,-4 3,2a17,17 0,0 1,7 13l0,4 -3,-2a17,17 0,0 1,-7 -13zM41,103 l-0,4 3,-2a17,17 0,0 0,7 -13l0,-4 -3,2a17,17 0,0 0,-7 13z" id="path_8"/><path fill="#ffe65a" d="M86,24 l0,-4 -3,2a17,17 0,0 0,-7 13l-0,4 3,-2a17,17 0,0 0,7 -13zM86,103 l0,4 -3,-2a17,17 0,0 1,-7 -13l-0,-4 3,2a17,17 0,0 1,7 13z" id="path_9"/></svg>