<svg id="vector" xmlns="http://www.w3.org/2000/svg" width="24.0d" height="24.0d" viewBox="0 0 512.0 512.0"><path fill="#415870" d="M256,256m-256,0a256,256 0,1 1,512 0a256,256 0,1 1,-512 0" id="path_0"/><path fill="#feaf62" d="M354,304c-55,27 -122,4 -149,-51c-26,-54 -3,-119 49,-147c0,-0 1,-0 2,-1c4,-2 3,-9 -1,-10c-26,-2 -53,1 -78,14c-69,34 -99,120 -65,190c34,71 120,101 192,66c25,-12 45,-31 58,-53c2,-4 -2,-10 -7,-7C354,303 354,303 354,304z" id="path_1"/><path fill="#62788e" d="M220,106c0,18 -15,33 -33,33l-100,-1c-9,0 -17,3 -24,9s-9,14 -9,24c0,18 15,33 33,33h38c9,0 17,3 24,9c6,6 9,14 9,24c0,18 -15,33 -33,33H6c-2,0 -4,-0 -6,-0c-0,-6 -0,-12 -0,-18c0,-72 30,-137 78,-184l108,0C205,72 220,87 220,106z" id="path_2"/><path fill="#62788e" d="M512,256c0,38 -8,75 -24,108c-8,-0 -15,-4 -21,-9c-6,-6 -9,-14 -9,-24c0,-18 -15,-33 -33,-33h-38c-9,0 -17,-3 -24,-9c-6,-6 -9,-14 -9,-24c0,-18 15,-33 33,-33h38c9,0 17,-3 24,-9c6,-6 9,-14 9,-24c0,-18 15,-33 33,-33l3,0C505,190 512,222 512,256z" id="path_3"/><path fill="none" d="M355,100h0M316,182h0M384,414h0M252, 39h0M232,356h0M104,374h0M159,447h0M316,336h0M176,190h0" stroke-linecap="round" stroke="#e8e4db" stroke-width="24.0" id="path_4"/><path fill="#feaf62" d="M421,143c9,-0 19,-2 27,-6c-8,-3 -18,-5 -27,-6c-0,-9 -2,-19 -6,-27c-3,8 -5,18 -6,27c-9,0 -19,2 -27,6c8,3 18,5 27,6c0,9 2,19 6,27C418,162 421,153 421,143z" id="path_5"/></svg>