<svg id="vector" xmlns="http://www.w3.org/2000/svg" width="24.0d" height="24.0d" viewBox="0 0 510.0 510.0"><path fill="#89a7b6" d="M397,192v47l15,15 15,-15v-47zM247,30h17v30h-17zM419,90 l-52,-52 -8,33 27,27z" id="path_0"/><path fill="#b8d8e0" d="M230,60h17l8,-15 -8,-15h-17zM82,192v47l15,15 15,-15v-47zM122,97 l16,-22 -11,-35 -38,51z" id="path_1"/><path fill="#e8f2f5" d="m97,195c-24,0 -45,-20 -45,-45v-15c0,-24 20,-45 45,-45s45,20 45,45v15c0,24 -20,45 -45,45zM97,120c-8,0 -15,6 -15,15v15c0,8 6,15 15,15s15,-6 15,-15v-15c0,-8 -6,-15 -15,-15z" id="path_2"/><path fill="#e8f2f5" d="m187,90h-15c-24,0 -45,-20 -45,-45s20,-45 45,-45h15c24,0 45,20 45,45s-20,45 -45,45zM172,30c-8,0 -15,6 -15,15s6,15 15,15h15c8,0 15,-6 15,-15s-6,-15 -15,-15z" id="path_3"/><path fill="#b8d8e0" d="m322,90h-15c-24,0 -45,-20 -45,-45s20,-45 45,-45h15c24,0 45,20 45,45s-20,45 -45,45zM307,30c-8,0 -15,6 -15,15s6,15 15,15h15c8,0 15,-6 15,-15s-6,-15 -15,-15z" id="path_4"/><path fill="#b8d8e0" d="m412,195c-24,0 -45,-20 -45,-45v-15c0,-24 20,-45 45,-45s45,20 45,45v15c0,24 -20,45 -45,45zM412,120c-8,0 -15,6 -15,15v15c0,8 6,15 15,15s15,-6 15,-15v-15c0,-8 -6,-15 -15,-15z" id="path_5"/><path fill="#595959" d="m52,240v30l15,15 -15,15v30l15,15 -15,15v105c0,24 20,45 45,45l15,-135 -15,-135zM367,240v30l15,15 -15,15v30l15,15 -15,15v105c0,24 20,45 45,45l15,-135 -15,-135z" id="path_6"/><path fill="#474747" d="M97,240v270c24,0 45,-20 45,-45v-105l-15,-15 15,-15v-30l-15,-15 15,-15v-30zM412,240v270c24,0 45,-20 45,-45v-105l-15,-15 15,-15v-30l-15,-15 15,-15v-30z" id="path_7"/><path fill="#ffec96" d="M97,300h-45v-30h45l15,15zM97,360h-45v-30h45l15,15zM412,300h-45v-30h45l15,15zM412,360h-45v-30h45l15,15z" id="path_8"/><path fill="#fcdb2d" d="M97,270h45v30h-45zM97,330h45v30h-45zM412,270h45v30h-45zM412,330h45v30h-45z" id="path_9"/></svg>