<svg id="vector" xmlns="http://www.w3.org/2000/svg" width="24.0d" height="24.0d" viewBox="0 0 512.0 512.0"><path fill="#ffbd86" d="m174,345 l227,-157c17,-11 40,-9 54,6l55,61v89" id="path_0"/><path fill="#f6a96c" d="m456,194c-11,-12 -29,-16 -44,-11 6,2 12,6 17,11l49,53c4,4 7,11 7,17v79h27v-89z" id="path_1"/><path fill="#abd641" d="m142,61c-8,-17 -25,-38 -47,-50 -28,-15 -58,-11 -75,-4 -1,0 -1,2 -0,3l114,61z" id="path_2"/><path fill="#fed2a4" d="m0,345h512v166h-512z" id="path_3"/><path fill="#ffbd86" d="m485,345h27v166h-27z" id="path_4"/><path fill="#91dafa" d="m425,428h-171c-23,0 -43,-15 -48,-37l-11,-45h291l-11,45c-5,22 -25,37 -48,37z" id="path_5"/><path fill="#75cff9" d="m453,345 l-11,45c-5,22 -25,37 -48,37h31c23,0 43,-15 48,-37l11,-45h-31z" id="path_6"/><path fill="#c7865b" d="m100,345s1,-191 86,-304c5,-7 -3,-16 -11,-10 -135,103 -142,315 -142,315z" id="path_7"/><path fill="#9ec63d" d="m64,58c34,-5 71,8 84,20l-144,25c-1,0 -3,-1 -2,-3 9,-16 30,-37 62,-43z" id="path_8"/><path fill="#87a733" d="m216,126c-16,-30 -50,-44 -67,-46l70,128c0,1 3,1 3,-0 6,-17 9,-53 -5,-81z" id="path_9"/><path fill="#92b738" d="m234,72c-33,-11 -72,-3 -86,7l138,47c1,0 3,-1 2,-2 -6,-17 -24,-42 -54,-52z" id="path_10"/><path fill="#ffc250" d="M154,99m-20,0a20,20 0,1 1,41 0a20,20 0,1 1,-41 0" id="path_11"/><path fill="#ffd064" d="M127,80m-20,0a20,20 0,1 1,41 0a20,20 0,1 1,-41 0" id="path_12"/><path fill="#abd641" d="m149,320c-2,0 -4,0 -6,1 -3,1 -7,0 -10,-2 -5,-4 -12,-7 -20,-7 -2,0 -4,0 -6,0 -2,-6 -8,-10 -15,-10 -7,0 -13,4 -15,10 -2,-0 -4,-0 -6,-0 -18,0 -33,15 -33,33h140c0,-13 -11,-25 -25,-25z" id="path_13"/><path fill="#9ec63d" d="m129,317c-4,9 -11,19 -19,28h64c0,-13 -11,-25 -25,-25 -2,0 -4,0 -6,1 -3,1 -7,0 -10,-2 -1,-0 -1,-1 -2,-2z" id="path_14"/><path fill="#ffbd86" d="m328,484h-10c-4,0 -7,-3 -7,-7s3,-7 7,-7h10c4,0 7,3 7,7s-3,7 -7,7z" id="path_15"/><path fill="#ffbd86" d="m436,467h-10c-4,0 -7,-3 -7,-7s3,-7 7,-7h10c4,0 7,3 7,7s-3,7 -7,7z" id="path_16"/><path fill="#ffbd86" d="m150,398h-10c-4,0 -7,-3 -7,-7s3,-7 7,-7h10c4,0 7,3 7,7s-3,7 -7,7z" id="path_17"/><path fill="#f6a96c" d="m333,309h-10c-4,0 -7,-3 -7,-7s3,-7 7,-7h10c4,0 7,3 7,7s-3,7 -7,7z" id="path_18"/><path fill="#f6a96c" d="m404,263h-10c-4,0 -7,-3 -7,-7s3,-7 7,-7h10c4,0 7,3 7,7s-3,7 -7,7z" id="path_19"/><path fill="#f6a96c" d="m467,296h-10c-4,0 -7,-3 -7,-7s3,-7 7,-7h10c4,0 7,3 7,7s-3,7 -7,7z" id="path_20"/></svg>