<svg id="vector" xmlns="http://www.w3.org/2000/svg" width="24.0d" height="24.0d" viewBox="0 0 171.0 171.0"><path fill="#000000" d="M170,62c-4,-9 -32,-42 -51,-46c-14,-3 -43,5 -33,26c10,21 63,30 70,31C162,74 174,71 170,62zM132,44c-2,-0 -24,-0 -30,-8c-5,-8 5,-13 11,-12c7,0 21,12 23,15C139,42 135,44 132,44z" id="path_0"/><path fill="#000000" d="M81,63c-9,-4 -53,-1 -68,15c-11,14 -23,54 0,62c23,8 63,-45 68,-51C86,83 91,67 81,63zM32,96c-1,3 -4,21 -14,17c-10,-3 -2,-21 2,-28c3,-5 10,-8 14,-7C38,81 35,89 32,96z" id="path_1"/><path fill="#000000" d="M95,93c-11,14 -23,54 0,62c23,8 71,-37 69,-47C160,93 109,75 95,93zM114,111c-1,3 -4,21 -14,17c-10,-3 -2,-21 2,-28c3,-5 10,-8 14,-7C120,95 116,103 114,111z" id="path_2"/></svg>