<svg id="vector" xmlns="http://www.w3.org/2000/svg" width="24.0d" height="24.0d" viewBox="0 0 512.0 512.0"><path fill="#fcbf66" d="m256,370c71,0 130,-58 130,-130 0,-71 -58,-130 -130,-130 -71,0 -130,58 -130,130 0,71 58,130 130,130z" id="path_0"/><path fill="#62d9fa" d="m0,478h512v-165c0,-7 -3,-12 -12,-15 -16,-5 -33,-18 -50,-18 -21,0 -43,21 -64,21 -21,0 -43,-21 -64,-21 -21,0 -43,21 -64,21s-43,-21 -64,-21c-21,0 -43,21 -64,21 -21,0 -43,-21 -64,-21 -16,0 -33,12 -50,18 -10,3 -12,10 -12,15z" id="path_1"/><path fill="#98e5fa" d="m0,350v127h512v-127c-20,1 -41,20 -62,20 -21,0 -43,-21 -64,-21 -21,0 -43,21 -64,21 -21,0 -43,-21 -64,-21s-43,21 -64,21c-21,0 -43,-21 -64,-21 -21,0 -43,21 -64,21 -20,0 -41,-19 -62,-20z" id="path_2"/><path fill="#c8effc" d="m62,421c-20,0 -41,19 -62,20v38c0,9 4,12 12,12h487c8,0 12,-4 12,-12v-38c-20,-1 -41,-21 -62,-21 -21,0 -43,21 -64,21 -21,0 -43,-21 -64,-21 -21,0 -43,21 -64,21s-43,-21 -64,-21c-21,0 -43,21 -64,21 -21,0 -43,-21 -64,-21z" id="path_3"/><path fill="#fcbf66" d="m343,103c-2,3 -6,4 -10,2 -3,-2 -4,-6 -2,-10l26,-45c2,-3 6,-4 10,-2 3,2 4,6 2,10zM263,78c0,4 -3,7 -7,7s-7,-3 -7,-7v-52c0,-4 3,-7 7,-7s7,3 7,7zM181,96c2,3 0,8 -2,10 -3,2 -8,0 -10,-2l-26,-45c-2,-3 -0,-8 2,-10 3,-2 8,-0 10,2zM119,152c3,2 4,6 2,10s-6,4 -10,2l-45,-26c-3,-2 -4,-6 -2,-10s6,-4 10,-2zM42,247c-4,0 -7,-3 -7,-7 0,-4 3,-7 7,-7h52c4,0 7,3 7,7 0,4 -3,7 -7,7zM417,247c-4,0 -7,-3 -7,-7 0,-4 3,-7 7,-7h52c4,0 7,3 7,7 0,4 -3,7 -7,7zM399,165c-3,2 -8,0 -10,-2s-0,-8 2,-10l45,-26c3,-2 8,-0 10,2 2,3 0,8 -2,10z" id="path_4"/><path fill="#52cef0" d="m126,325c-21,0 -43,21 -64,21 -20,0 -41,-19 -62,-20v25c20,1 41,20 62,20 21,0 43,-21 64,-21 21,0 43,21 64,21 8,0 16,-3 25,-7 13,-6 26,-14 39,-14s26,7 39,14c8,3 16,7 25,7 21,0 43,-21 64,-21 21,0 43,21 64,21 20,0 41,-19 62,-20v-25c-20,1 -41,21 -62,21 -21,0 -43,-21 -64,-21 -16,0 -33,12 -50,18 -4,1 -9,2 -14,2 -21,0 -43,-21 -64,-21s-43,21 -64,21c-4,0 -9,-1 -14,-2 -16,-5 -33,-18 -50,-18z" id="path_5"/><path fill="#8bdef5" d="m62,396c-20,0 -41,19 -62,20v25c20,-1 41,-21 62,-21 21,0 43,21 64,21 21,0 43,-21 64,-21s43,21 64,21 43,-21 64,-21c21,0 43,21 64,21 21,0 43,-21 64,-21 20,0 41,19 62,20v-25c-20,-1 -41,-21 -62,-21 -21,0 -43,21 -64,21 -21,0 -43,-21 -64,-21 -21,0 -43,21 -64,21s-43,-21 -64,-21c-21,0 -43,21 -64,21 -21,0 -43,-21 -64,-21z" id="path_6"/></svg>