<svg id="vector" xmlns="http://www.w3.org/2000/svg" width="24.0d" height="24.0d" viewBox="0 0 512.0 512.0"><path fill="#f99a91" d="m419,195 l-4,2s-7,31 -39,49 -60,16 -60,16l30,29h6c39,-11 67,-47 67,-90 0,-2 -0,-5 -0,-8z" stroke="#000000" stroke-width="12.0" id="path_0"/><path fill="#f87c68" d="m449,49c-4,-9 -15,-12 -24,-8 -25,12 -40,29 -45,52 -4,18 -1,37 1,55 6,35 7,55 -23,71 -18,9 -34,12 -50,7 -3,-1 -7,-2 -11,-4l-5,4 6,22 22,18 2,-1c18,0 36,-4 52,-13 24,-13 38,-30 43,-53 4,-18 1,-37 -2,-55 -6,-36 -7,-54 24,-70 9,-4 12,-15 8,-24z" stroke="#000000" stroke-width="12.0" id="path_1"/><path fill="#f99a91" d="m480,297 l-6,2c-43,60 -122,29 -122,29l-2,25 2,4c-0,0 -0,0 -0,0 12,5 25,9 39,9 42,0 78,-29 88,-69 0,-1 0,-1 0,-1z" stroke="#000000" stroke-width="12.0" id="path_2"/><path fill="#f87c68" d="m498,175c-7,-6 -17,-5 -23,1 -13,15 -14,36 -15,57 -1,37 -4,60 -43,71 -25,7 -51,-0 -76,-21 -3,-2 -6,-5 -9,-8v6l21,50h3c21,9 45,11 69,4 94,-25 56,-118 75,-139 6,-7 5,-17 -1,-23z" stroke="#000000" stroke-width="12.0" id="path_3"/><path fill="#f99a91" d="m91,195 l4,2s7,31 39,49 60,16 60,16l-30,29h-6c-39,-11 -67,-47 -67,-90 -0,-2 0,-5 0,-8z" stroke="#000000" stroke-width="12.0" id="path_4"/><path fill="#f87c68" d="m61,49c4,-9 15,-12 24,-8 25,12 40,29 45,52 4,18 1,37 -1,55 -6,35 -7,55 23,71 18,9 34,12 50,7 3,-1 7,-2 11,-4l5,4 -6,22 -22,18 -2,-1c-18,0 -36,-4 -52,-13 -24,-13 -38,-30 -43,-53 -4,-18 -1,-37 2,-55 6,-36 7,-54 -24,-70 -9,-4 -12,-15 -8,-24z" stroke="#000000" stroke-width="12.0" id="path_5"/><path fill="#f99a91" d="m30,297 l6,2c43,60 122,29 122,29l2,25 -2,4c0,0 0,0 0,0 -12,5 -25,9 -39,9 -42,0 -78,-29 -88,-69 -0,-1 -0,-1 -0,-1z" stroke="#000000" stroke-width="12.0" id="path_6"/><path fill="#f87c68" d="m12,175c7,-6 17,-5 23,1 13,15 14,36 15,57 1,37 4,60 43,71 25,7 51,-0 76,-21 3,-2 6,-5 9,-8v6l-21,50h-3c-21,9 -45,11 -69,4 -94,-25 -56,-118 -75,-139 -6,-7 -5,-17 1,-23z" stroke="#000000" stroke-width="12.0" id="path_7"/><path fill="#f99a91" d="m255,282c-50,0 -62,51 -62,51v20h2c12,-23 34,-39 59,-39s46,15 59,39l2,-8c0,0 -11,-63 -61,-63z" id="path_8"/><path fill="#f87c68" d="m112,446c28,-8 64,-33 46,-87 -18,-55 37,-100 47,-107 5,-3 9,-9 9,-16 0,-7 -1,-14 -3,-19 -1,-3 -5,-6 -8,-7 -10,-3 -16,-13 -16,-24 0,-6 2,-13 7,-17 3,-3 4,-9 3,-14 -3,-10 -6,-21 -6,-33 0,-44 29,-79 64,-79s64,35 64,79c0,12 -2,23 -6,33 -1,5 -0,10 3,14 4,4 7,11 7,17 0,11 -7,20 -16,24 -3,1 -7,4 -8,7 -2,5 -4,11 -3,19 0,6 4,12 9,16 9,7 65,51 47,107 -17,54 18,79 46,87 6,1 10,6 10,13 0,9 -8,15 -16,13 -30,-7 -92,-30 -79,-91 6,-30 -0,-52 -9,-67 -10,-17 -28,-27 -48,-27s-38,10 -48,27c-9,15 -15,37 -9,67 12,61 -49,84 -79,91 -8,2 -17,-4 -16,-13 0,-6 4,-11 10,-13z" stroke="#000000" stroke-width="12.0" id="path_9"/><path fill="#000000" d="m212,186c-2,3 -1,8 2,10 3,2 8,1 10,-2 2,-3 7,-3 10,-0 2,3 6,4 10,2 3,-2 4,-6 2,-10 -8,-13 -27,-13 -35,0z" id="path_10"/><path fill="#000000" d="m264,186c-2,3 -1,8 2,10 3,2 8,1 10,-2 2,-3 7,-3 10,-0 2,3 6,4 10,2 3,-2 4,-6 2,-10 -8,-13 -27,-13 -35,0z" id="path_11"/></svg>