<svg id="vector" xmlns="http://www.w3.org/2000/svg" width="24.0d" height="24.0d" viewBox="0 0 512.0 512.0"><path fill="#8c5e5e" d="m428,70c29,19 -3,80 -3,80l-177,230 -177,-230s-33,-61 -3,-80l180,47z" stroke="#000000" stroke-width="12.0" id="path_0"/><path fill="#ffcdbe" d="m248,334c71,-261 151,-216 177,-183" id="path_1"/><path fill="#c38778" d="m470,276h-429l-7,108c-14,27 -18,41 -18,60 0,12 7,19 20,19 12,0 25,-8 34,-20 21,27 49,27 71,0 21,27 49,27 71,0 21,27 49,27 71,0 21,27 49,27 71,0 21,27 49,27 71,0 9,11 22,20 35,20 21,0 27,-19 27,-19 0,-18 -4,-33 -18,-60v-108z" id="path_2"/><path fill="#8c5e5e" d="m461,458c-10,0 -21,-7 -29,-18 -3,-4 -9,-4 -12,-0 -18,24 -40,24 -59,0 -3,-4 -8,-4 -11,0 -18,24 -40,24 -59,0 -3,-4 -8,-4 -11,0 -18,24 -40,24 -59,0 -3,-4 -8,-4 -11,0 -18,24 -40,24 -59,0 -3,-4 -8,-4 -11,0 -18,24 -40,24 -59,-0 -3,-4 -9,-3 -12,0 -8,10 -18,18 -28,18 -7,0 -13,-5 -13,-12 0,-18 4,-33 18,-60v-108h-15v108c-14,27 -18,41 -18,60 0,17 14,27 27,27s26,-6 35,-20c18,27 52,27 71,0 18,27 52,27 71,0 18,27 52,27 71,0 18,27 52,27 71,0 18,27 52,27 71,0 9,13 22,20 35,20s27,-10 27,-27c0,0 -5,12 -27,12z" id="path_3"/><path fill="#ffcdbe" d="m396,128c12,4 22,13 28,21 25,31 45,78 45,126 -6,68 -66,140 -222,140s-214,-66 -214,-140c0,-48 27,-106 52,-127 74,-61 248,-45 310,-21z" id="path_4"/><path fill="#ebae9d" d="m248,334c-34,-237 -113,-220 -150,-205 -11,4 -20,13 -26,21 -25,31 -45,78 -45,126 0,81 66,148 222,148s222,-66 222,-148c-9,57 -66,133 -222,133s-207,-69 -207,-133c0,-48 25,-99 52,-125 24,-22 82,-17 137,182 0,2 1,4 1,6 2,7 12,7 14,0 0,-2 1,-4 1,-6" id="path_5"/><path fill="#ffd064" d="m135,172c-11,11 -18,26 -18,42 0,32 26,59 59,59 9,0 21,-3 31,-10 0,-50 -24,-88 -54,-101 -6,2 -12,5 -18,9z" stroke="#000000" stroke-width="12.0" id="path_6"/><path fill="#ffd064" d="m324,160h-88s36,91 40,94c13,11 30,19 53,19 13,0 30,-6 42,-18 7,-10 12,-22 12,-36 0,-32 -26,-59 -59,-59z" stroke="#000000" stroke-width="12.0" id="path_7"/><path fill="#c38778" d="m425,26c-24,-17 -83,49 -83,49 -28,-11 -55,-17 -93,-17s-65,5 -93,17c0,0 -59,-67 -83,-49 -21,15 7,71 7,71 4,8 11,19 19,32 31,-13 79,-0 127,130v-0c9,-7 37,-7 46,0v0c47,-130 95,-144 127,-130 8,-12 15,-23 19,-32 0,-0 28,-55 7,-71z" stroke-linejoin="round" stroke="#000000" stroke-width="12.0" id="path_8"/><path fill="none" d="M144,358 l9,-31zM351,358l-9,-31zM95,332 l20,-25zM400,332l-20,-25zM62,294 l28,-17zM434,294l-28,-17zM327,239 l0,-26zM169,239 l0,-26z" stroke-linejoin="round" stroke="#000000" stroke-width="16.0" id="path_9"/><path fill="#000000" d="M233,262c5,13 9,28 14,44 4,-15 9,-30 14,-44 -5,-4 -10,-9 -14,-14 -4,5 -9,10 -14,14z" stroke="#000000" stroke-width="16.0" id="path_10"/></svg>