<svg id="vector" xmlns="http://www.w3.org/2000/svg" width="24.0d" height="24.0d" viewBox="0 0 512.0 512.0"><path fill="#c1e649" d="m10,10h492v492h-492z" stroke="#000000" stroke-width="16.0" id="path_0"/><path fill="#daf092" d="m418,458h-325c-21,0 -39,-17 -39,-39v-325c0,-21 17,-39 39,-39h325c21,0 39,17 39,39v325c0,21 -17,39 -39,39z" stroke="#000000" stroke-width="16.0" id="path_1"/><path fill="#000000" d="m222,161c0,18 15,33 33,33s33,-15 33,-33c0,-9 -4,-18 -11,-24 3,-4 4,-9 4,-15 0,-14 -12,-27 -27,-27s-27,12 -27,27c0,5 1,11 4,15 -6,6 -11,15 -9,24zM256,174c-7,0 -13,-6 -13,-13 0,-7 6,-13 13,-13s13,6 13,13c0,7 -6,13 -13,13zM249,120c0,-3 3,-7 7,-7s7,3 7,7 -3,7 -7,7 -7,-3 -7,-7z" id="path_2"/><path fill="#000000" d="m256,396c47,0 86,-38 86,-86s-38,-86 -86,-86 -86,38 -86,86 38,86 86,86zM256,244c36,0 66,29 66,66s-29,66 -66,66 -66,-29 -66,-66 29,-66 66,-66z" id="path_3"/></svg>