<svg id="vector" xmlns="http://www.w3.org/2000/svg" width="24.0d" height="24.0d" viewBox="0 0 512.0 512.0"><path fill="#ffd0c7" d="m491,193c14,-67 -58,-96 -58,-96 -52,-52 -132,-37 -132,-37 -86,-18 -110,33 -110,33 -90,40 -81,101 -81,101 -22,20 -32,57 -32,57 -45,49 -16,63 -38,95s-27,44 -27,44 0,14 8,28c9,16 42,18 42,18 46,32 114,8 114,8 63,9 102,-16 102,-16 48,-8 70,-25 93,-36 42,-18 50,-50 50,-50 37,-19 46,-59 46,-59 27,-25 34,-48 34,-65 0,-16 -10,-26 -10,-26z" stroke="#000000" stroke-width="12.0" id="path_0"/><path fill="#f2b394" d="m391,285c-26,27 -67,80 -130,96 -2,0 -5,1 -7,1 -15,3 -29,9 -39,10 -73,11 -57,-8 -101,6 -62,20 -102,-8 -102,-8s4,-12 27,-44c22,-32 -6,-46 38,-95 0,0 10,-36 32,-57 0,0 33,-73 156,-79s140,44 145,74c4,30 8,66 -19,94z" stroke="#000000" stroke-width="12.0" id="path_1"/><path fill="#ffd0c7" d="m222,320c-19,18 -57,21 -75,38 -17,17 -18,40 -54,47 -50,9 -81,-13 -81,-13s4,-12 27,-44c0,0 0,-0 0,-0 2,-2 3,-5 5,-8 10,-15 35,-48 78,-64 0,0 45,-49 84,-35 27,9 37,61 17,80z" stroke="#000000" stroke-width="12.0" id="path_2"/></svg>