<svg id="vector" xmlns="http://www.w3.org/2000/svg" width="24.0d" height="24.0d" viewBox="0 0 512.0 512.0"><path fill="#d4d3d3" d="M73,107m-62,0a62,62 0,1 1,125 0a62,62 0,1 1,-125 0" stroke="#000000" stroke-width="12.0" id="path_0"/><path fill="#f09a99" d="M73,139c-17,0 -32,-14 -32,-32c0,-17 14,-32 32,-32s32,14 32,32C105,124 91,139 73,139z" stroke="#000000" stroke-width="12.0" id="path_1"/><path fill="#d4d3d3" d="M438,107m-62,0a62,62 0,1 1,125 0a62,62 0,1 1,-125 0" stroke="#000000" stroke-width="12.0" id="path_2"/><path fill="#f09a99" d="M438,139c17,0 32,-14 32,-32c0,-17 -14,-32 -32,-32c-17,0 -32,14 -32,32C406,124 420,139 438,139z" stroke="#000000" stroke-width="12.0" id="path_3"/><path fill="#eeeeec" d="M256,54c-93,0 -194,30 -232,123c-18,45 -19,97 -9,144c4,20 10,40 20,58c18,34 44,37 80,46c16,4 31,10 46,17c31,14 59,22 94,22s62,-7 94,-22c15,-7 30,-13 46,-17c35,-9 62,-12 80,-46c9,-18 16,-38 20,-58c10,-47 9,-99 -9,-144C450,84 349,54 256,54z" stroke="#000000" stroke-width="12.0" id="path_4"/><path fill="#000000" d="M165,209m-16,0a16,16 0,1 1,33 0a16,16 0,1 1,-33 0" id="path_5"/><path fill="#000000" d="M346,209m-16,0a16,16 0,1 1,33 0a16,16 0,1 1,-33 0" id="path_6"/><path fill="#000000" d="M309,311c-13,-9 -26,6 -53,6c-26,0 -39,-16 -53,-6c-12,8 8,38 44,43c-4,13 -17,22 -31,22c-9,0 -9,15 -0,15c17,0 32,-9 41,-22c8,13 23,22 41,22c9,0 9,-15 0,-15c-14,0 -27,-9 -31,-22C301,350 322,320 309,311z" id="path_7"/></svg>