<svg id="vector" xmlns="http://www.w3.org/2000/svg" width="24.0d" height="24.0d" viewBox="0 0 505.0 505.0"><path fill="#925c44" d="M410,163l-46,100L264,476c-2,4 -5,7 -9,9c-4,1 -8,1 -13,-0c-8,-3 -13,-13 -10,-22l78,-221l37,-104L410,163z" stroke="#000000" stroke-width="12.0" id="path_0"/><path fill="#fcb65f" d="M410,163l-46,100l-54,-22l37,-104z" stroke="#000000" stroke-width="12.0" id="path_1"/><path fill="#fa3f68" d="M346,136c-24,-25 -9,-70 27,-85S428,25 435,7c0,0 55,134 -25,155" stroke="#000000" stroke-width="12.0" id="path_2"/><path fill="#e5e9ea" d="M434,351c-0,0 -0,1 -0,2c-22,82 -98,143 -188,143c-108,0 -196,-88 -195,-197c1,-104 86,-190 191,-192c40,-0 78,10 109,31l-5,-2l-14,39c-43,5 -75,30 -75,59c0,20 14,37 37,48c15,7 33,11 53,12c0,0 1,0 2,0c9,0 18,-1 27,-2C411,287 441,317 434,351z" stroke="#000000" stroke-width="12.0" id="path_3"/><path fill="#53bce9" d="M177,196m-28,0a28,28 0,1 1,56 0a28,28 0,1 1,-56 0" stroke="#000000" stroke-width="12.0" id="path_4"/><path fill="#fa3f68" d="M124,282m-28,0a28,28 0,1 1,56 0a28,28 0,1 1,-56 0" stroke="#000000" stroke-width="12.0" id="path_5"/><path fill="#566368" d="M158,378m-28,0a28,28 0,1 1,56 0a28,28 0,1 1,-56 0" stroke="#000000" stroke-width="12.0" id="path_6"/><path fill="#fcb65f" d="M245,426m-28,0a28,28 0,1 1,56 0a28,28 0,1 1,-56 0" stroke="#000000" stroke-width="12.0" id="path_7"/><path fill="#47c97f" d="M339,378m-28,0a28,28 0,1 1,56 0a28,28 0,1 1,-56 0" stroke="#000000" stroke-width="12.0" id="path_8"/></svg>