<svg id="vector" xmlns="http://www.w3.org/2000/svg" width="24.0d" height="24.0d" viewBox="0 0 512.0 512.0"><path fill="#af6e5a" d="M274,185l-26,-10c-49,119 -36,329 -36,329h48C260,503 232,309 274,185z" id="path_0"/><path fill="#965a50" d="M238,125c-3,5 -5,12 -5,19c0,12 5,23 14,30c-49,119 -36,328 -36,328h22c-2,-38 -11,-205 21,-314c1,-4 5,-6 9,-5c2,0 5,0 7,0c21,0 39,-17 40,-38C288,139 263,132 238,125z" id="path_1"/><path fill="#96be4b" d="M276,512h-81c-4,0 -8,-3 -8,-8c0,-4 3,-8 8,-8h81c4,0 8,3 8,8S281,512 276,512z" id="path_2"/><path fill="#afd755" d="M276,144c-7,-54 -32,-114 -42,-137c-1,-4 1,-8 6,-7c16,4 48,17 64,52C312,67 316,95 276,144" id="path_3"/><path fill="#afd755" d="M276,144C194,133 124,155 99,165c-3,1 -6,-2 -4,-5c10,-17 36,-53 79,-61C204,91 252,95 276,144" id="path_4"/><path fill="#afd755" d="M276,144c63,23 103,69 119,91c3,4 9,1 9,-3c0,-21 -1,-63 -28,-86C316,97 276,144 276,144z" id="path_5"/><path fill="#96be4b" d="M415,72c-18,-10 -54,-25 -87,-13c-28,9 -41,28 -47,45c-2,-21 -12,-48 -44,-69c-35,-23 -74,-19 -97,-13c-5,1 -6,9 -0,11C167,45 239,95 276,144c38,-27 110,-58 137,-62C418,81 420,74 415,72z" id="path_6"/></svg>