<svg id="vector" xmlns="http://www.w3.org/2000/svg" width="24.0d" height="24.0d" viewBox="0 0 512.0 512.0"><path fill="#cfcfcf" d="M53,376m-53,0a53,53 0,1 1,107 0a53,53 0,1 1,-107 0" id="path_0"/><path fill="#afafaf" d="M39,376c0,-22 14,-42 34,-50c-6,-2 -12,-3 -19,-3C24,322 0,346 0,376s24,53 53,53c7,0 13,-1 19,-3C53,418 39,399 39,376z" id="path_1"/><path fill="#cfcfcf" d="M110,348m-53,0a53,53 0,1 1,107 0a53,53 0,1 1,-107 0" id="path_2"/><path fill="#afafaf" d="M96,348c0,-22 14,-42 34,-50c-6,-2 -12,-3 -19,-3c-29,0 -53,24 -53,53s24,53 53,53c7,0 13,-1 19,-3C110,390 96,370 96,348z" id="path_3"/><path fill="#cfcfcf" d="M156,216m-53,0a53,53 0,1 1,107 0a53,53 0,1 1,-107 0" id="path_4"/><path fill="#afafaf" d="M141,216c0,-22 14,-42 34,-50c-6,-2 -12,-3 -19,-3c-29,0 -53,24 -53,53s24,53 53,53c7,0 13,-1 19,-3C155,258 141,239 141,216z" id="path_5"/><path fill="#cfcfcf" d="M230,278m-53,0a53,53 0,1 1,107 0a53,53 0,1 1,-107 0" id="path_6"/><path fill="#afafaf" d="M215,278c0,-22 14,-42 34,-50c-6,-2 -12,-3 -19,-3c-29,0 -53,24 -53,53s24,53 53,53c7,0 13,-1 19,-3C230,320 215,301 215,278z" id="path_7"/><path fill="#cfcfcf" d="M170,424m-53,0a53,53 0,1 1,107 0a53,53 0,1 1,-107 0" id="path_8"/><path fill="#afafaf" d="M156,424c0,-22 14,-42 34,-50c-6,-2 -12,-3 -19,-3c-29,0 -53,24 -53,53c0,29 24,53 53,53c7,0 13,-1 19,-3C170,466 156,447 156,424z" id="path_9"/><path fill="#cfcfcf" d="M441,424m-53,0a53,53 0,1 1,107 0a53,53 0,1 1,-107 0" id="path_10"/><path fill="#afafaf" d="M427,424c0,-22 14,-42 34,-50c-6,-2 -12,-3 -19,-3c-29,0 -53,24 -53,53c0,29 24,53 53,53c7,0 13,-1 19,-3C441,466 427,447 427,424z" id="path_11"/><path fill="#cfcfcf" d="M377,292m-53,0a53,53 0,1 1,107 0a53,53 0,1 1,-107 0" id="path_12"/><path fill="#afafaf" d="M362,292c0,-22 14,-42 34,-50c-6,-2 -12,-3 -19,-3c-29,0 -53,24 -53,53s24,53 53,53c7,0 13,-1 19,-3C376,334 362,315 362,292z" id="path_13"/><path fill="#cfcfcf" d="M350,424m-53,0a53,53 0,1 1,107 0a53,53 0,1 1,-107 0" id="path_14"/><path fill="#afafaf" d="M336,424c0,-22 14,-42 34,-50c-6,-2 -12,-3 -19,-3c-29,0 -53,24 -53,53c0,29 24,53 53,53c7,0 13,-1 19,-3C350,466 336,447 336,424z" id="path_15"/><path fill="#cfcfcf" d="M82,438m-53,0a53,53 0,1 1,107 0a53,53 0,1 1,-107 0" id="path_16"/><path fill="#afafaf" d="M67,438c0,-22 14,-42 34,-50c-6,-2 -12,-3 -19,-3c-29,0 -53,24 -53,53c0,29 24,53 53,53c7,0 13,-1 19,-3C81,480 67,461 67,438z" id="path_17"/></svg>