<svg id="vector" xmlns="http://www.w3.org/2000/svg" width="24.0d" height="24.0d" viewBox="0 0 512.0 512.0"><path fill="#3c3a41" d="M376,512c-8,0 -15,-6 -15,-14V385c0,-8 6,-15 15,-15c8,0 15,6 15,14v111C391,505 384,512 376,512z" id="path_0"/><path fill="#57555c" d="M316,512c-8,0 -15,-6 -15,-14v-91c0,-8 6,-15 15,-15c8,0 15,6 15,14v90C331,505 324,512 316,512z" id="path_1"/><path fill="#fd3018" d="M497,90H421l30,-59h16c24,0 45,20 45,45l0,0C512,83 505,90 497,90z" id="path_2"/><path fill="#fea832" d="M292,93c-1,0 -3,-0 -4,-0c-33,-11 -53,-45 -46,-80c1,-8 9,-13 17,-11c8,1 13,9 11,17c-4,19 7,39 26,46c7,2 12,11 9,19C304,89 298,93 292,93z" id="path_3"/><path fill="#fea832" d="M290,97c-0,0 -0,0 -0,-0l-42,-1c-20,-0 -39,-10 -52,-26c-12,-16 -17,-37 -13,-57c1,-8 9,-13 17,-11c8,1 13,9 11,17c-2,11 0,23 7,32c7,9 18,14 30,15l42,1c8,0 14,7 14,15C305,91 298,97 290,97z" id="path_4"/><path fill="#10bb67" d="M451,30v245c0,66 -44,122 -105,139c-12,4 -26,6 -40,6l-64,-214V176c0,-66 44,-123 105,-140c12,-4 26,-6 40,-6C386,30 451,30 451,30z" id="path_5"/><path fill="#0ca656" d="M346,415V36c12,-4 26,-6 40,-6h64v245C451,341 406,397 346,415z" id="path_6"/><path fill="#0a8c4b" d="M146,282c-16,6 -30,18 -41,32l112,55l14,-82C206,272 174,270 146,282z" id="path_7"/><path fill="#3c3a41" d="M376,105m-15,0a15,15 0,1 1,30 0a15,15 0,1 1,-30 0" id="path_8"/><path fill="#896748" d="M512,497c0,8 -6,15 -15,14H15c-8,0 -15,-6 -15,-15s6,-15 15,-14h481C505,482 512,488 512,497z" id="path_9"/><path fill="#0ca656" d="M137,315c-25,-12 -55,-13 -81,-2c-26,10 -46,32 -55,59c-1,4 -0,8 1,12c2,3 6,6 10,7l211,29l8,-58L137,315z" id="path_10"/><path fill="#32d736" d="M361,166v149c0,22 -5,43 -15,61c-22,43 -67,73 -120,73c-8,0 -15,-6 -15,-14v-23l24,-33l-24,0v-94c0,-74 60,-135 135,-134C354,151 361,157 361,166z" id="path_11"/><path fill="#10bb67" d="M301,286c0,-8 -6,-15 -15,-15s-15,6 -15,15c0,42 -24,78 -60,94v32C264,394 301,344 301,286z" id="path_12"/><path fill="#10bb67" d="M361,166v149c0,22 -5,43 -15,61V151C354,151 361,157 361,166z" id="path_13"/><path fill="#73553a" d="M512,497c0,8 -6,15 -15,14H345v-29h150C505,482 512,488 512,497z" id="path_14"/></svg>