<svg id="vector" xmlns="http://www.w3.org/2000/svg" width="24.0d" height="24.0d" viewBox="0 0 512.0 512.0"><path fill="#fabe50" d="m462,103s-71,-79 -128,11c-23,36 -28,54 -37,57l-33,57 37,10 113,-119 56,3z" stroke="#000000" stroke-width="12.0" id="path_0"/><path fill="#81b3e6" d="M262,502h-50v-40h40zM262,502M451,502h-50v-40h40z" stroke="#000000" stroke-width="12.0" id="path_1"/><path fill="#fad296" d="M162,352h70l20,110h-40zM162,352M361,322h60l20,140h-40z" stroke="#000000" stroke-width="12.0" id="path_2"/><path fill="#fabe50" d="m138,248s-22,-22 -46,-29c-31,-9 -82,8 -82,53 0,37 24,115 9,131 20,-5 44,-6 44,-46s-15,-98 49,-73c5,-22 26,-36 26,-36z" stroke="#000000" stroke-width="12.0" id="path_3"/><path fill="#c8e7f9" d="M362,502h-50v-40h40zM362,502M162,462 l10,40h-50v-40z" stroke="#000000" stroke-width="12.0" id="path_4"/><path fill="#f0e6d2" d="m382,127s-18,31 -39,62 -50,33 -50,33l-110,10c-44,0 -80,35 -80,80v20c0,11 20,97 20,97l-10,32h50l20,-61c23,-11 40,-22 47,-48 39,12 47,14 81,6l12,27 -20,76h50l22,-76c25,-12 48,-49 48,-73v-34s-9,-51 10,-71l16,6 19,32 13,-2c11,-2 19,-13 17,-24l-13,-88 16,-34s-25,-10 -42,7c0,0 -52,-12 -78,24z" stroke="#000000" stroke-width="12.0" id="path_5"/><path fill="#c8e7f9" d="m274,274c7,-10 4,-24 -5,-31 -3,-2 -5,-8 -2,-12l26,-45c14,-25 9,-56 -12,-75l-174,-100c-11,19 -4,43 14,54l-8,-5c-11,19 -4,43 14,54l-8,-5c-11,19 -4,43 14,54l52,30c-11,21 -4,48 17,60l43,26c9,6 22,3 29,-6z" stroke="#000000" stroke-width="12.0" id="path_6"/></svg>