<svg id="vector" xmlns="http://www.w3.org/2000/svg" width="24.0d" height="24.0d" viewBox="0 0 512.0 512.0"><path fill="#26457d" d="m20,449 l-10,21c-4,9 -2,20 4,27 7,7 18,9 27,4l21,-10z" id="path_0"/><path fill="#e4fbef" d="m367,48l96,96l-25,25l-96,-96z" id="path_1"/><path fill="#d3effb" d="m446,126l17,17l-25,25l-17,-17z" id="path_2"/><path fill="#f1d59d" d="m94,417 l-48,-48 -25,80 20,20 20,20 80,-25z" id="path_3"/><path fill="#df75a5" d="m464,144 l-96,-96 30,-30c13,-13 34,-13 48,0l48,48c13,13 13,34 0,48z" id="path_4"/><path fill="#ffe07d" d="m342,73 l-294,295 -4,26c-1,6 4,11 10,10l13,-2c3,-0 6,0 8,2l299,-299z" id="path_5"/><path fill="#ffc250" d="m406,137 l-302,299c2,2 3,4 2,8l-2,13c-1,6 4,11 10,10l26,-4 299,-295z" id="path_6"/><path fill="#ffd064" d="m374,105 l-299,299c2,2 3,4 2,8l-2,13c-1,6 4,11 10,10l13,-2c3,-0 6,0 8,2l299,-299z" id="path_7"/></svg>