<svg id="vector" xmlns="http://www.w3.org/2000/svg" width="24.0d" height="24.0d" viewBox="0 0 512.0 512.0"><path fill="#3e3d42" d="M374,178c0,0 136,50 88,231c-3,12 -17,18 -28,11c-19,-13 -45,-30 -45,-30L374,178z" stroke="#000000" stroke-width="12.0" id="path_0"/><path fill="#2d2d30" d="M137,178c0,0 -136,50 -88,231c3,12 17,18 28,11c19,-13 45,-30 45,-30L137,178z" stroke="#000000" stroke-width="12.0" id="path_1"/><path fill="#57565c" d="M387,183v-44C387,66 328,7 256,7l0,0c-72,0 -131,58 -131,131v44c0,20 -5,40 -16,58c-15,25 -23,55 -23,86c-0,94 78,171 172,171c94,-0 169,-77 169,-171c0,-31 -8,-61 -23,-86C393,223 387,203 387,183z" stroke="#000000" stroke-width="12.0" id="path_2"/><path fill="#e9f6ff" d="M256,345m-117,0a117,117 0,1 1,234 0a117,117 0,1 1,-234 0" stroke="#000000" stroke-width="12.0" id="path_3"/><path fill="#ffb864" d="M184,504h-61c-15,0 -28,-13 -28,-28l0,0c0,-15 13,-28 28,-28h61c15,0 28,13 28,28l0,0C213,491 200,504 184,504z" stroke="#000000" stroke-width="12.0" id="path_4"/><path fill="#ffb864" d="M389,504H327c-15,0 -28,-13 -28,-28l0,0c0,-15 13,-28 28,-28h61c15,0 28,13 28,28l0,0C418,491 405,504 389,504z" stroke="#000000" stroke-width="12.0" id="path_5"/><path fill="#ef943a" d="M227,178a28,22 0,1 0,57 0a28,22 0,1 0,-57 0z" stroke="#000000" stroke-width="12.0" id="path_6"/><path fill="#ffb864" d="M293,180c9,0 12,-11 5,-17c-9,-7 -25,-11 -42,-11s-33,4 -42,11c-7,5 -3,17 5,16H293z" stroke="#000000" stroke-width="12.0" id="path_7"/><path fill="#000000" d="M336,120c-4,0 -7,3 -7,7v12c0,4 3,7 7,7s7,-3 7,-7v-12C344,124 340,120 336,120z" id="path_8"/><path fill="#000000" d="M175,123c-8,0 -15,3 -20,10c-2,3 -1,8 2,11c3,2 8,1 11,-2c1,-2 4,-3 7,-3s5,1 7,3c3,5 9,3 11,2c3,-2 4,-7 2,-11C190,127 183,123 175,123z" id="path_9"/></svg>