<svg id="vector" xmlns="http://www.w3.org/2000/svg" width="24.0d" height="24.0d" viewBox="0 0 512.0 512.0"><path fill="#b4dd7f" d="M296,248m-144,0a144,144 0,1 1,288 0a144,144 0,1 1,-288 0" stroke="#000000" stroke-width="12.0" id="path_0"/><path fill="#a0d468" d="m271,106c5,5 8,13 8,21 0,17 -14,32 -32,32 -17,0 -31,-14 -32,-31l-0,-0c16,-11 35,-18 55,-22z" stroke-linejoin="round" stroke="#000000" stroke-width="12.0" id="path_1"/><path fill="#a0d468" d="m440,248c0,8 -0,15 -1,23h-0c-2,0 -4,0 -6,0 -17,0 -32,-14 -32,-32 0,-0 0,-0 0,-1 -4,-1 -8,-3 -12,-6 -5,4 -12,7 -20,7 -17,0 -32,-14 -32,-32s14,-32 32,-32c7,0 14,2 20,7 5,-4 12,-7 20,-7 5,0 10,1 14,3h0c11,20 17,43 17,68z" stroke="#000000" stroke-width="12.0" id="path_2"/><path fill="#a0d468" d="M288,208m-16,0a16,16 0,1 1,32 0a16,16 0,1 1,-32 0M352,296m-24,0a24,24 0,1 1,48 0a24,24 0,1 1,-48 0" stroke="#000000" stroke-width="12.0" id="path_3"/><path fill="#a0d468" d="m280,368c0,8 -3,16 -8,21l-0,0c-20,-3 -39,-11 -55,-22l0,-0c0,-17 14,-31 32,-31 17,0 32,14 32,32z" stroke="#000000" stroke-width="12.0" id="path_4"/><path fill="#a0d468" d="M384,32m-16,0a16,16 0,1 1,32 0a16,16 0,1 1,-32 0M456,456m-32,0a32,32 0,1 1,64 0a32,32 0,1 1,-64 0M144,32m-24,0a24,24 0,1 1,48 0a24,24 0,1 1,-48 0" stroke="#000000" stroke-width="12.0" id="path_5"/><path fill="#a0d468" d="M40,128m-16,0a16,16 0,1 1,32 0a16,16 0,1 1,-32 0M96,400m-16,0a16,16 0,1 1,32 0a16,16 0,1 1,-32 0M56,464m-24,0a24,24 0,1 1,48 0a24,24 0,1 1,-48 0" stroke="#000000" stroke-width="12.0" id="path_6"/><path fill="#ff826e" d="m128,192v112h-64c-31,0 -56,-25 -56,-56 0,-15 6,-29 16,-39 10,-10 24,-16 39,-16z" stroke="#000000" stroke-width="12.0" id="path_7"/><path fill="#fcd770" d="m192,192c31,0 56,25 56,56 0,15 -6,29 -16,39 -10,10 -24,16 -39,16h-28,-35v-112h35z" stroke="#000000" stroke-width="12.0" id="path_8"/></svg>