<svg id="vector" xmlns="http://www.w3.org/2000/svg" width="24.0d" height="24.0d" viewBox="0 0 512.0 512.0"><path fill="#91dc5a" d="M383,114m-81,0a81,81 0,1 1,163 0a81,81 0,1 1,-163 0" stroke="#000000" stroke-width="12.0" id="path_0"/><path fill="#91dc5a" d="M481,411H278c-12,0 -22,-10 -22,-22V262c0,-43 35,-78 78,-78h91c43,0 78,35 78,78v126C504,401 494,411 481,411z" stroke="#000000" stroke-width="12.0" id="path_1"/><path fill="#ffda44" d="M135,114m-81,0a81,81 0,1 1,163 0a81,81 0,1 1,-163 0" stroke="#000000" stroke-width="12.0" id="path_2"/><path fill="#ffda44" d="M233,411H30c-12,0 -22,-10 -22,-22V262c0,-43 35,-78 78,-78h91c43,0 78,35 78,78v126C256,401 245,411 233,411z" stroke="#000000" stroke-width="12.0" id="path_3"/><path fill="#ff7956" d="M259,182m-81,0a81,81 0,1 1,163 0a81,81 0,1 1,-163 0" stroke="#000000" stroke-width="12.0" id="path_4"/><path fill="#ff7956" d="M357,479H154c-12,0 -22,-10 -22,-22V331c0,-43 35,-78 78,-78h91c43,0 78,35 78,78v126C380,469 370,479 357,479z" stroke="#000000" stroke-width="12.0" id="path_5"/></svg>