<svg id="vector" xmlns="http://www.w3.org/2000/svg" width="24.0d" height="24.0d" viewBox="0 0 407.0 407.0"><path fill="#e7d1c4" d="m262,126c0,69 -56,126 -126,126s-126,-56 -126,-126 56,-126 126,-126 126,56 126,126z" id="path_0"/><path fill="#f53e28" d="m49,266c-23,-46 -7,-84 -7,-84 0,23 46,69 46,69 -23,-30 -30,-84 -30,-84 -7,-84 38,-99 38,-99 -4,62 23,99 23,99v-68c0,-6 0,-13 1,-20 14,-64 82,-64 82,-64 -18,36 -17,130 -16,168 0,12 2,24 7,35 3,7 7,14 10,21 8,13 20,24 33,32 4,3 8,6 12,10 27,29 26,75 -2,102 -29,27 -82,17 -102,-2s-89,-69 -89,-69l53,7s-38,-7 -61,-53z" stroke="#000000" stroke-width="12.0" id="path_1"/><path fill="#ffce56" d="m118,174c0,-17 13,-30 30,-30h76s7,15 -30,23c0,0 30,53 -15,107 -46,53 -7,99 -7,99s-76,-61 -15,-145c0,0 30,-53 -38,-53z" stroke="#000000" stroke-width="12.0" id="path_2"/><path fill="#fc8c29" d="m379,266c23,-46 7,-84 7,-84 0,23 -46,69 -46,69 23,-30 30,-84 30,-84 7,-84 -38,-99 -38,-99 4,62 -23,99 -23,99v-68c0,-6 -0,-13 -1,-20 -14,-64 -82,-64 -82,-64 18,36 17,130 16,168 -0,12 -2,24 -7,35 -3,7 -7,14 -10,21 -8,13 -20,24 -33,32 -4,3 -8,6 -12,10 -27,29 -26,75 2,102 29,27 82,17 102,-2 20,-20 89,-69 89,-69l-53,7c-0,0 38,-7 61,-53z" stroke="#000000" stroke-width="12.0" id="path_3"/><path fill="#f53e28" d="m275,331c0,24 -19,44 -44,44s-44,-19 -44,-44 19,-44 44,-44 44,19 44,44z" stroke="#000000" stroke-width="12.0" id="path_4"/><path fill="#000000" d="m246,295c-1,0 -3,-0 -4,-2 -2,-2 -2,-7 -0,-9 0,-0 33,-34 27,-85 -0,-3 2,-7 6,-7 3,-0 7,2 7,6 7,57 -29,94 -31,96 -1,1 -3,2 -4,2z" id="path_5"/><path fill="#000000" d="m274,311c-2,0 -4,-0 -5,-2 -2,-3 -1,-7 1,-9 5,-4 22,-19 27,-29 1,-3 5,-4 9,-3 3,1 4,5 3,9 -7,14 -29,32 -30,33 -1,1 -2,1 -4,1z" id="path_6"/><path fill="#000000" d="m173,163c0,3 -3,6 -6,6 -3,0 -6,-3 -6,-6 0,-3 3,-6 6,-6 3,0 6,3 6,6z" id="path_7"/></svg>