<svg id="vector" xmlns="http://www.w3.org/2000/svg" width="24.0d" height="24.0d" viewBox="0 0 512.0 512.0"><path fill="#fe9738" d="m473,99 l-13,15c-1,1 -2,4 -2,6l2,20c0,4 -2,7 -6,8l-20,4c-2,0 -4,1 -5,3l-10,18c-2,3 -6,5 -10,3l-19,-8c-2,-1 -4,-1 -6,0l-19,8c-3,1 -8,0 -10,-3l-10,-18c-1,-2 -3,-3 -5,-3l-20,-4c-4,-0 -6,-4 -6,-8l2,-20c0,-2 -0,-4 -2,-6l-13,-15c-2,-3 -2,-7 0,-10l13,-15c1,-1 2,-4 2,-6l-2,-20c-0,-4 2,-7 6,-8l20,-4c2,-0 4,-1 5,-3l10,-18c2,-3 6,-5 10,-3l19,8c2,1 4,1 6,0l19,-8c3,-1 8,-0 10,3l10,18c1,2 3,3 5,3l20,4c4,0 6,4 6,8l-2,20c-0,2 0,4 2,6l13,15c2,3 2,7 0,10z" stroke="#000000" stroke-width="12.0" id="path_0"/><path fill="#fee45a" d="M385,94m-44,0a44,44 0,1 1,88 0a44,44 0,1 1,-88 0" stroke="#000000" stroke-width="12.0" id="path_1"/><path fill="#91deb6" d="m158,291c11,-28 9,-70 -5,-97 -4,-7 -9,-15 -15,-20 -24,-21 -62,-17 -92,-30 -5,-2 -10,2 -9,7 1,7 3,17 4,25 1,15 4,35 8,50 5,18 14,37 30,48 15,10 35,13 54,15 7,0 18,2 24,1z" stroke-linejoin="round" stroke="#000000" stroke-width="12.0" id="path_2"/><path fill="#91deb6" d="m197,281c-4,-21 1,-50 15,-68 3,-5 8,-9 13,-12 19,-12 44,-5 66,-9 4,-1 9,3 7,8 -1,4 -3,10 -4,14 -3,10 -7,24 -12,34 -5,12 -14,24 -27,30 -12,5 -26,5 -40,4 -5,-0 -13,-0 -17,-1z" stroke-linejoin="round" stroke="#000000" stroke-width="12.0" id="path_3"/><path fill="#d77f4a" d="m254,388h-171c-11,0 -20,-9 -20,-20 0,-11 9,-20 20,-20h171c11,0 20,9 20,20 0,11 -9,20 -20,20z" stroke="#000000" stroke-width="12.0" id="path_4"/><path fill="#fae2c0" d="m81,388 l17,102c1,7 8,13 16,13h106c8,0 14,-5 16,-13l17,-102z" stroke="#000000" stroke-width="12.0" id="path_5"/><path fill="#000000" d="m361,311c-24,0 -44,20 -44,44s20,44 44,44 44,-20 44,-44 -20,-44 -44,-44zM361,386c-16,0 -29,-13 -29,-29s13,-29 29,-29c16,0 29,13 29,29s-13,29 -29,29z" id="path_6"/><path fill="#000000" d="m446,412c-0,0 -0,0 -0,0 -3,0 -6,0 -9,0 2,-3 5,-6 8,-11 4,-6 8,-14 5,-22 -0,-2 -2,-4 -4,-6 -3,-4 -8,-6 -14,-6 -9,0 -17,6 -18,15 -0,4 1,8 6,8 4,0 8,-1 8,-6 0,-2 2,-3 4,-3 2,0 4,1 4,3 -0,2 -2,5 -3,7 -7,10 -11,16 -13,19 -3,3 -5,6 -3,10 0,2 2,4 5,5 1,0 1,0 11,0 3,0 8,-0 14,-0 4,-0 7,-3 7,-7 -0,-4 -3,-7 -7,-7z" id="path_7"/></svg>