<svg id="vector" xmlns="http://www.w3.org/2000/svg" width="24.0d" height="24.0d" viewBox="0 0 512.0 512.0"><path fill="#ecbba3" d="M79,504c-12,0 -21,-11 -17,-23l12,-41h38l-15,51c-2,7 -9,13 -17,13zM432,504c12,0 21,-11 17,-23l-12,-41h-38l15,51c2,7 9,13 17,13zM438,398h-364v-379c0,-6 5,-11 11,-11h342c6,0 11,5 11,11z" stroke="#000000" stroke-width="12.0" id="path_0"/><path fill="#fdf6ec" d="m403,398h-293v-351c0,-2 2,-4 4,-4h284c2,0 4,2 4,4z" stroke="#000000" stroke-width="12.0" id="path_1"/><path fill="#dc8758" d="M449,439h-387c-5,0 -9,-4 -9,-9v-23c0,-5 4,-9 9,-9h387c5,0 9,4 9,9v23c0,5 -4,9 -9,9zM256,62c-11,0 -20,-9 -20,-20v-34h40v34c0,11 -9,20 -20,20z" stroke="#000000" stroke-width="12.0" id="path_2"/><path fill="#8b8089" d="m109,262h293v135h-293z" stroke="#000000" stroke-width="12.0" id="path_3"/><path fill="#fdf6ec" d="m305,397c12,-13 18,-32 15,-50s-13,-34 -29,-45c-14,-9 -32,-19 -25,-39h-27c-6,5 -11,14 -12,22 -1,13 8,23 13,35 6,15 -2,26 -13,38 -12,12 -31,21 -36,39z" stroke="#000000" stroke-width="12.0" id="path_4"/><path fill="#fee97d" d="M321,119m-23,0a23,23 0,1 1,47 0a23,23 0,1 1,-47 0" stroke="#000000" stroke-width="12.0" id="path_5"/><path fill="#c6f2e7" d="M253,262 l62,-60c6,-5 15,-6 21,-0l66,60z" stroke="#000000" stroke-width="8.0" id="path_6"/><path fill="#a7eedc" d="M112,262 l82,-80c6,-5 15,-6 21,-0l87,80z" stroke="#000000" stroke-width="8.0" id="path_7"/></svg>