<svg id="vector" xmlns="http://www.w3.org/2000/svg" width="24.0d" height="24.0d" viewBox="0 0 512.0 512.0"><path fill="#ffe0e6" d="m14,14c30,13 71,47 93,96 14,-10 30,-20 47,-27 -5,-13 -14,-26 -25,-38 -31,-31 -75,-41 -115,-30z" stroke="#000000" stroke-width="12.0" id="path_0"/><path fill="#ffe0e6" d="m383,45c-11,11 -19,24 -25,38 17,7 32,16 47,27 22,-49 63,-83 93,-96 -39,-10 -83,-0 -115,30z" stroke-linejoin="round" stroke="#000000" stroke-width="12.0" id="path_1"/><path fill="#ff9eb1" d="M68,147c11,-13 24,-26 39,-36 -22,-49 -63,-83 -93,-96 -10,39 -0,83 30,115 7,7 15,13 23,18zM498,14c-30,13 -71,47 -93,96 14,11 27,23 39,36 8,-5 16,-11 23,-18 31,-31 41,-75 30,-115z" stroke-linejoin="round" stroke="#000000" stroke-width="12.0" id="path_2"/><path fill="#ffe0e6" d="m404,110c-14,-10 -30,-20 -47,-27 -30,-13 -64,-21 -101,-21 -37,0 -71,7 -101,21 -17,7 -32,16 -47,27 -14,11 -27,23 -39,36 -37,43 -58,99 -58,155 0,121 110,199 246,199s246,-78 246,-199c0,-56 -21,-111 -58,-155 -11,-13 -24,-26 -39,-36zM176,361c0,-39 32,-78 80,-78s80,38 80,78 -35,52 -80,52 -80,-12 -80,-52z" stroke="#000000" stroke-width="12.0" id="path_3"/><path fill="#ff9eb1" d="m256,283c-47,0 -80,38 -80,78s35,52 80,52 80,-12 80,-52 -32,-78 -80,-78z" id="path_4"/><path fill="#000000" d="m191,300c-6,-8 -14,-16 -23,-22 -17,-12 -36,-18 -55,-17 -13,1 -12,20 0,20 29,-1 53,19 64,36 -16,26 -19,67 6,87 -4,11 -14,25 -19,28 -4,3 -6,9 -2,13 3,4 9,5 13,2 8,-5 19,-21 26,-34 26,11 81,11 107,0 6,13 17,29 26,34 4,3 10,1 13,-2 3,-4 1,-10 -2,-13 -4,-3 -15,-16 -19,-28 25,-20 22,-61 6,-87 11,-16 35,-37 64,-36 13,0 14,-19 0,-20 -19,-0 -38,5 -55,17 -8,6 -16,14 -23,22 -33,-36 -96,-36 -129,0zM326,361c0,10 0,42 -70,42s-70,-31 -70,-42c0,-32 26,-68 70,-68s70,35 70,68z" id="path_5"/><path fill="none" d="M286,366h0 M331,267h0 M226,366h0 M196,267h0" stroke-linecap="round" stroke="#000000" stroke-width="24.0" id="path_6"/></svg>