<svg id="vector" xmlns="http://www.w3.org/2000/svg" width="24.0d" height="24.0d" viewBox="0 0 512.0 512.0"><path fill="#bed0e0" d="M102,286 l-71,68 157,68 64,-101zM359,452 l136,-234c5,-9 8,-20 8,-32 0,-35 -29,-65 -65,-65 -8,0 -17,2 -24,5l-113,94 -58,111z" stroke="#000000" stroke-width="12.0" id="path_0"/><path fill="#bed0e0" d="M259,313 l167,-202h0c8,-10 13,-24 13,-39 0,-35 -29,-65 -65,-65 -17,0 -32,6 -44,17l0,0 -201,165z" stroke="#000000" stroke-width="12.0" id="path_1"/><path fill="#e8f4ff" d="M187,258m-90,0a90,90 0,1 1,180 0a90,90 0,1 1,-180 0M97,414m-90,0a90,90 0,1 1,180 0a90,90 0,1 1,-180 0M277,414m-90,0a90,90 0,1 1,180 0a90,90 0,1 1,-180 0" stroke="#000000" stroke-width="12.0" id="path_2"/><path fill="#889aa8" d="M177,322a65,65 99,1 0,20 -128a65,65 99,1 0,-20 128zM87,478a65,65 99,1 0,20 -128a65,65 99,1 0,-20 128zM217,439a65,65 67,1 0,120 -49a65,65 67,1 0,-120 49z" stroke="#000000" stroke-width="12.0" id="path_3"/></svg>