<svg id="vector" xmlns="http://www.w3.org/2000/svg" width="24.0d" height="24.0d" viewBox="0 0 512.0 512.0"><path fill="#544f57" d="m58,133h395v310h-395z" stroke-linejoin="round" stroke="#000000" stroke-width="12.0" id="path_0"/><path fill="#b3e59f" d="M300,116 l-117,-49c-12,-5 -17,-19 -12,-31 5,-12 19,-17 31,-12l191,80" stroke-linejoin="round" stroke="#000000" stroke-width="12.0" id="path_1"/><path fill="#b3e59f" d="M213,116 l-106,-44c-12,-5 -17,-19 -12,-31 5,-12 19,-17 31,-12l175,73" stroke-linejoin="round" stroke="#000000" stroke-width="12.0" id="path_2"/><path fill="#b3e59f" d="m276,96 l94,-67c10,-7 25,-5 33,5 7,10 5,25 -5,33l-72,51" stroke-linejoin="round" stroke="#000000" stroke-width="12.0" id="path_3"/><path fill="#b3e59f" d="m292,103 l-10,-68c-2,-13 6,-25 19,-27 13,-2 25,6 27,19l14,87" stroke-linejoin="round" stroke="#000000" stroke-width="12.0" id="path_4"/><path fill="#a77d73" d="m13,133h90v176c0,62 50,113 113,113h78c62,0 113,-50 113,-113v-176h90v335c0,20 -16,36 -36,36h-413c-20,0 -36,-16 -36,-36z" stroke-linejoin="round" stroke="#000000" stroke-width="12.0" id="path_5"/><path fill="#b3e59f" d="m421,133h-330c-13,0 -23,-10 -23,-23 0,-13 10,-23 23,-23h330c13,0 23,10 23,23 0,13 -10,23 -23,23z" stroke-linejoin="round" stroke="#000000" stroke-width="12.0" id="path_6"/><path fill="none" d="M444,246h19M463,316h-19M408,448h-19M449,409h-19M171,443h-19M86,466h-19M311,448 h-19M63,423h-19M51,334h19M37,232h18" stroke-linecap="round" stroke="#000000" stroke-width="16.0" id="path_7"/></svg>