<svg id="vector" xmlns="http://www.w3.org/2000/svg" width="24.0d" height="24.0d" viewBox="0 0 512.0 512.0"><path fill="#d2d2dc" d="M275,295L296,275L386,365L365,386Z" stroke="#000000" stroke-width="12.0" id="path_0"/><path fill="#e63950" d="M296,275L275,295L11,32C6,26 6,17 11,11C17,6 26,6 32,11Z" stroke="#000000" stroke-width="12.0" id="path_1"/><path fill="#f4f3d5" d="M47,67L68,47L87,66L66,87ZM273,294L294,273L327,306L306,327Z" stroke="#000000" stroke-width="12.0" id="path_2"/><path fill="none" d="M344,416l75,-75 M344,416l75,75 M374,396l75,75 M398,372l75,75 M420,342l75,75" stroke-linecap="round" stroke="#000000" stroke-width="14.0" id="path_3"/></svg>