<svg id="vector" xmlns="http://www.w3.org/2000/svg" width="24.0d" height="24.0d" viewBox="0 0 512.0 512.0"><path fill="#a6ed9a" d="M287,250C388,215 467,136 502,35C401,69 321,149 287,250zM243,296c78,37 172,37 250,0C415,259 322,259 243,296zM149,377c78,37 172,37 250,0C321,339 228,339 149,377zM51,450c72,34 157,34 230,0C208,415 123,415 51,450zM49,449c-34,-72 -34,-157 0,-230C84,291 84,377 49,449zM149,377c-41,-85 -41,-186 0,-271C190,191 190,291 149,377zM244,289c-37,-78 -37,-172 0,-250C282,117 282,210 244,289z" stroke="#000000" stroke-width="12.0" id="path_0"/><path fill="none" d="M10,480l36,-24 M50,440l106,-64 M150,380l96,-84 M250,290l86,-84" stroke-linecap="round" stroke="#000000" stroke-width="16.0" id="path_1"/></svg>