<svg id="vector" xmlns="http://www.w3.org/2000/svg" width="24.0d" height="24.0d" viewBox="0 0 512.0 512.0"><path fill="#9f8a8a" d="m432.2,431.7c-67,67 -162.6,87.7 -247.4,62.2 -38,-11.4 -73.9,-32 -104,-62.2 -23.3,-23.4 -41,-50.3 -53.2,-79 -38,-90.4 -20.3,-198.7 53.2,-272.4 24.7,-24.7 53.4,-43.2 84,-55.3 89.3,-35.3 195,-16.9 267.3,55.3 19.5,19.5 35,41.5 46.8,65 46.2,92.9 30.6,208.8 -46.8,286.3z" stroke="#000000" stroke-width="12.0" id="path_0"/><path fill="#fdb659" d="m208.2,470.5 l-23.4,23.4c-38,-11.4 -73.9,-32 -104,-62.2 -23.3,-23.4 -41,-50.3 -53.2,-79l69.4,-69.4c10.9,-10.9 28.7,-10.6 39.3,0.7 10,10.8 9.3,27.9 -1,38.3l-2.3,2.3c-14.8,14.8 -22.2,34.3 -22.2,53.7 0,19.4 7.4,38.9 22.2,53.7 5,5 11.6,7.5 18,7.5 6.5,0 13,-2.5 18,-7.5 10.4,-10.4 27.5,-11.2 38.3,-1 11.3,10.6 11.6,28.4 0.7,39.3z" stroke="#000000" stroke-width="12.0" id="path_1"/><path fill="#7cfcce" d="m439.2,236.9c8.4,8 12,19.5 13,31 0,11 -4.2,22 -13,31 -8,8 -19,13 -30,13 -11,-0 -22,-4.2 -30,-13 -14,-14.3 -37.4,-14.3 -51.7,0l-38,38c-8.4,8 -19,13 -31,13 -11,-0 -22,-4.2 -30.6,-12.6 -16.9,-16.9 -17,-44.3 0,-61.2l52.7,-52.7c5.9,-5.9 8.9,-13.8 8.9,-21.6 0,-7.8 -3,-15.6 -8.9,-21.6 -11.9,-11.9 -31.3,-11.9 -43.2,-0l-12.4,12.4 -5.7,5.7c-9,9.3 -21.7,14 -34,14 -12.3,0 -24.6,-4.7 -34,-14 -9.3,-9.4 -14,-21.7 -14,-34 0,-12.3 4,-24.6 14,-34 28.2,-28.2 33,-71 14.7,-104.3 21.6,-8.5 44,-13.9 67,-16 19.6,-1.9 39.4,-1.5 59,1 51,7 102,31 141,70 20,20 35,42 47,65l-40,39.8c-14,14.3 -14,37.4 0,51.7z" stroke="#000000" stroke-width="12.0" id="path_2"/><path fill="#fdb659" d="m327.4,106.9c-7,7 -16.2,10.5 -25.4,10.5 -9.2,0 -18.4,-3.5 -25.4,-10.5 -5.2,-5.2 -12,-7.8 -19,-7.8 -6.8,0 -13.7,2.6 -19,7.8l-28,28c-11.8,11.8 -11.8,30.9 0,42.7l13,13.5 -5.7,5.7c-9,9.3 -21.7,14 -34,14 -12.3,0 -24.6,-4.7 -34,-14 -9.3,-9.4 -14,-21.7 -14,-34 0,-12.3 4,-24.6 14,-34 28.2,-28.2 33,-71 14.7,-104.3 21.6,-8.5 44,-13.9 67,-16.2 19.6,-1.9 39.4,-1.5 59,1l36.5,36.5c16.7,16.7 16.7,43.8 0,60.5z" stroke="#000000" stroke-width="12.0" id="path_3"/><path fill="#7cfcce" d="m373,374.8 l-15.4,-15.4c-6,-6.3 -6,-16.5 0,-22.8 6.3,-6.3 16.5,-6.3 22.8,0l15.4,15.4c6.3,6.3 6.3,16.5 0,22.8 -6,6.3 -16.5,6.3 -22.8,0z" stroke="#000000" stroke-width="12.0" id="path_4"/><path fill="#fdb659" d="m58.2,230.6 l15.4,-15.4c6,-6.3 16.5,-6.3 22.8,0 6.3,6.3 6.3,16.5 0,22.8l-15.4,15.4c-6,6.3 -16.5,6.3 -22.8,0 -6.3,-6.3 -6.3,-16.5 0,-22.8z" stroke="#000000" stroke-width="12.0" id="path_5"/><path fill="#fdb659" d="m328.5,182 l-7.6,-7.6c-6,-6.3 -6,-16.5 0,-22.8 6.3,-6.3 16.5,-6.3 22.8,0l7.6,7.6c6.3,6.3 6.3,16.5 0,22.8 -6,6.3 -16.5,6.3 -22.8,0z" stroke="#000000" stroke-width="12.0" id="path_6"/><path fill="none" d="M413,257h0M389,257h0M284,78h0M265,64h0M216,54h0M86,348h0" stroke-linecap="round" stroke="#000000" stroke-width="12.0" id="path_7"/></svg>