<svg id="vector" xmlns="http://www.w3.org/2000/svg" width="24.0d" height="24.0d" viewBox="0 0 512.0 512.0"><path fill="#e6e6e6" d="M472,10H40C23,10 10,23 10,40v431C10,488 23,502 40,502h431C488,502 502,488 502,471V40C502,23 488,10 472,10zM462,316h-42V196h42V316z" stroke="#000000" stroke-width="12.0" id="path_0"/><path fill="#5ad2e6" d="M50,303h40v133h-40zM50,76L50,76v227h40V176C90,116 72,76 50,76z" stroke="#000000" stroke-width="12.0" id="path_1"/><path fill="#4696e6" d="M135,416h244v40h-244zM135,376h244v40h-244zM135,336h244v40h-244z" stroke="#000000" stroke-width="12.0" id="path_2"/><path fill="#fac800" d="M135,256h244v40h-244zM135,216h244v40h-244zM135,176h244v40h-244z" stroke="#000000" stroke-width="12.0" id="path_3"/><path fill="#f03c32" d="M135,96h244v40h-244zM135,56h244v40h-244z" stroke="#000000" stroke-width="12.0" id="path_4"/></svg>