<svg id="vector" xmlns="http://www.w3.org/2000/svg" width="24.0d" height="24.0d" viewBox="0 0 74.0 74.0"><path fill="#97542a" d="M5,21.8h11.8v5h-11.8zM16.3,25.3l2.2,-1.2l11,20.6l-2.2,1.2z" id="path_0"/><path fill="#f1e6e4" d="m5,19.5h11.8v2.2h-11.8z" id="path_1"/><path fill="#413535" d="m39,57 l5.4,-17h8.8v3.1l-4.3,5.7v2.3z" id="path_2"/><path fill="#4f4747" d="m49,48.9v2.3l-10,5.8 0.7,-2.2z" id="path_3"/><path fill="#413535" d="m52.2,57 l5.4,-17h8.8v3.1l-4.3,5.7v2.3z" id="path_4"/><path fill="#4f4747" d="m62,48.9v2.3l-10,5.8 0.7,-2.2z" id="path_5"/><path fill="#413535" d="m26,57 l5.4,-17h8.8v3.1l-4.3,5.7v2.3z" id="path_6"/><path fill="#4f4747" d="m36,48.9v2.3l-10,5.8 0.7,-2.2z" id="path_7"/><path fill="#af663e" d="m16.3,16.9h2.6v29.5h-2.6z" id="path_8"/><path fill="#af663e" d="m16.3,43.8h52.6v2.6h-52.6z" id="path_9"/><path fill="#f1e6e4" d="m32.7,47.4c-0,0 -0.2,-0 -0.3,-0 -0.2,-0 -0.3,-0.5 -0,-0.8l2.2,-3.4c0,-0.2 0.5,-0.3 0.8,-0 0.2,0 0.3,0.5 0,0.8l-2.2,3.4c-0,0 -0.3,0.2 -0.4,0.2z" id="path_10"/><path fill="#f1e6e4" d="m45.7,47.4c-0,0 -0.2,-0 -0.3,-0 -0.2,-0 -0.3,-0.5 -0,-0.8l2.2,-3.4c0,-0.2 0.5,-0.3 0.8,-0 0.2,0 0.3,0.5 0,0.8l-2.2,3.4c-0,0 -0.2,0.2 -0.4,0.2z" id="path_11"/><path fill="#f1e6e4" d="m58.8,47.4c-0,0 -0.2,-0 -0.3,-0 -0.2,-0 -0.3,-0.5 -0,-0.8l2.2,-3.4c0,-0.2 0.5,-0.3 0.8,-0 0.2,0 0.3,0.5 0,0.8l-2.2,3.4c-0,0 -0.2,0.2 -0.4,0.2z" id="path_12"/><path fill="#413535" d="M17.6,45m-6.6,0a6.6,6.6 0,1 1,13.3 0a6.6,6.6 0,1 1,-13.3 0" id="path_13"/><path fill="#494040" d="m24.7,44.5 l-0.2,-1.2 -2,0 1.5,-1.2 -0.6,-1 -1.7,0.7 1,-1.6 -1,-0.8 -1.4,1.2 0.3,-1.8 -1,-0.4 -1,1.6 -0.2,-1.9h-1.2l-0.2,2 -1,-1.6 -1,0.4 0.3,1.8 -1.4,-1.2 -1,0.8 1,1.6 -1.7,-0.7 -0.6,1 1.5,1.2 -2,-0 -0.2,1.2 1.8,0.6 -1.8,0.6 0.2,1.2 2,-0 -1.5,1.2 0.6,1 1.7,-0.7 -1,1.6 1,0.8 1.4,-1.2 -0.3,1.8 1,0.4 1,-1.6 0.2,1.9h1.2l0.2,-2 1,1.6 1,-0.4 -0.3,-1.8 1.4,1.2 1,-0.8 -1,-1.6 1.7,0.7 0.6,-1 -1.5,-1.2 2,0 0.2,-1.2 -1.8,-0.6z" id="path_14"/><path fill="#413535" d="M17.6,45m-4.5,0a4.5,4.5 0,1 1,9 0a4.5,4.5 0,1 1,-9 0" id="path_15"/><path fill="#332929" d="M17.6,45m-4,0a4,4 0,1 1,8 0a4,4 0,1 1,-8 0" id="path_16"/><path fill="#f1e6e4" d="M17.6,45m-2.7,0a2.7,2.7 0,1 1,5.4 0a2.7,2.7 0,1 1,-5.4 0" id="path_17"/></svg>