<svg id="vector" xmlns="http://www.w3.org/2000/svg" width="24.0d" height="24.0d" viewBox="0 0 512.0 512.0"><path fill="#3bcd92" d="M446,417c0,46 -38,84 -84,84H151c-46,0 -84,-38 -84,-84c0,-22 9,-44 24,-60l44,-44c7,-7 14,-15 21,-24l0,0c30,-8 62,-2 89,16c34,24 89,25 129,6c0,0 0,0 1,1l44,44C437,373 446,394 446,417z" stroke="#000000" stroke-width="12.0" id="path_0"/><path fill="#edecff" d="M306,136c0,63 25,130 69,175c-40,19 -95,17 -129,-6c-26,-18 -59,-24 -89,-16l-0,-0c32,-43 49,-99 49,-152C213,136 291,136 306,136z" stroke="#000000" stroke-width="12.0" id="path_1"/><path fill="#bf6015" d="M300,10c13,0 22,12 19,24l-9,44v0c-4,-2 -9,-3 -14,-3h-80c-5,0 -10,1 -14,3v-0l-9,-44C189,22 198,10 211,10H300z" stroke="#000000" stroke-width="12.0" id="path_2"/><path fill="#57555c" d="M326,106c0,16 -13,30 -30,30h-80c-16,0 -30,-13 -30,-30c0,-16 13,-30 30,-30h80C312,76 326,89 326,106z" stroke="#000000" stroke-width="12.0" id="path_3"/><path fill="#edecff" d="M336,412m-30,0a30,30 0,1 1,60 0a30,30 0,1 1,-60 0M206,342c11,0 20,9 20,20s-9,20 -20,20s-20,-9 -20,-20S195,342 206,342z" stroke="#000000" stroke-width="12.0" id="path_4"/></svg>