<svg id="vector" xmlns="http://www.w3.org/2000/svg" width="24.0d" height="24.0d" viewBox="0 0 512.0 512.0"><path fill="#ff5757" d="m449,117c0,12 8,22 20,25 2,0 4,2 4,4v32c0,2 -1,4 -4,4 -11,2 -20,12 -20,25s8,22 20,25c2,0 4,2 4,4v32c0,2 -1,4 -4,4 -11,2 -20,12 -20,25s8,22 20,25c2,0 4,2 4,4v32c0,2 -1,4 -4,4 -11,2 -20,12 -20,25s8,22 20,25c2,0 4,2 4,4v74c0,2 -2,5 -5,5h-24c-2,0 -4,-1 -5,-4 -2,-12 -12,-21 -25,-21s-23,9 -25,21c-0,2 -2,4 -5,4h-31c-2,0 -4,-1 -5,-4 -2,-12 -12,-21 -25,-21s-23,9 -25,21c-0,2 -2,4 -5,4h-31c-2,0 -4,-1 -5,-4 -2,-12 -12,-21 -25,-21s-23,9 -25,21c-0,2 -2,4 -5,4h-31c-2,0 -4,-1 -5,-4 -2,-12 -12,-21 -25,-21s-23,9 -25,21c-0,2 -2,4 -5,4h-24c-2,0 -5,-2 -5,-5v-74c0,-2 1,-4 4,-4 11,-2 20,-12 20,-25s-8,-22 -20,-25c-2,-0 -4,-2 -4,-4v-32c0,-2 1,-4 4,-4 11,-2 20,-12 20,-25s-8,-22 -20,-25c-2,-0 -4,-2 -4,-4v-32c0,-2 1,-4 4,-4 11,-2 20,-12 20,-25s-8,-22 -20,-25c-2,-0 -4,-2 -4,-4v-32c0,-2 1,-4 4,-4 11,-2 20,-12 20,-25s-8,-22 -20,-25c-2,-0 -4,-2 -4,-4v-74c0,-2 2,-5 5,-5h24c2,0 4,1 5,4 2,12 12,21 25,21s23,-9 25,-21c0,-2 2,-4 5,-4h31c2,0 4,1 5,4 2,12 12,21 25,21s23,-9 25,-21c0,-2 2,-4 5,-4h31c2,0 4,1 5,4 2,12 12,21 25,21s23,-9 25,-21c0,-2 2,-4 5,-4h31c2,0 4,1 5,4 2,12 12,21 25,21s23,-9 25,-21c0,-2 2,-4 5,-4h24c2,0 5,2 5,5v74c0,2 -1,4 -4,4 -11,2 -20,12 -20,25z" stroke="#000000" stroke-width="16.0" id="path_0"/><path fill="#c9f0ff" d="m410,443h-267c-3,0 -6,-2 -6,-6v-362c0,-3 2,-6 6,-6h267c3,0 6,2 6,6v362c0,3 -2,6 -6,6z" stroke="#000000" stroke-width="16.0" id="path_1"/><path fill="#a3e72d" d="m416,323 l-66,-75c-3,-4 -10,-4 -14,-0l-37,37 -50,-56c-3,-4 -10,-4 -14,-0l-95,95h-0v113c0,3 2,6 6,6h267c3,0 6,-2 6,-6v-113z" stroke="#000000" stroke-width="16.0" id="path_2"/><path fill="#ffcd6b" d="M345,158m-41,0a41,41 0,1 1,83 0a41,41 0,1 1,-83 0" stroke="#000000" stroke-width="16.0" id="path_3"/></svg>