<svg id="vector" xmlns="http://www.w3.org/2000/svg" width="24.0d" height="24.0d" viewBox="0 0 512.0 512.0"><path fill="#d4f2f6" d="m390,304 l-11,145c-1,11 -10,20 -21,20h-202c-11,0 -21,-8 -21,-20l-11,-145c-2,-31 17,-59 46,-68 27,-8 47,-33 47,-62v-77h82v77c0,29 19,54 47,62 29,8 49,37 46,68z" stroke="#000000" stroke-width="12.0" id="path_0"/><path fill="#2e63f5" d="m215,293c-36,-6 -68,-2 -94,4 -0,2 0,4 0,6l11,145c1,11 10,20 21,20h202c11,0 21,-8 21,-20l10,-123c-83,7 -101,-20 -174,-33z" stroke="#000000" stroke-width="12.0" id="path_1"/><path fill="#a6e7f0" d="M345,504h-179c-5,0 -10,-4 -10,-10v-24h200v24c0,5 -4,10 -10,10zM299,95h-86c-8,0 -15,-6 -15,-15 0,-8 6,-15 15,-15h86c8,0 15,6 15,15 0,8 -6,15 -15,15z" stroke="#000000" stroke-width="12.0" id="path_2"/><path fill="#dd7f66" d="m279,65h-47l-7,-46c-1,-5 3,-11 9,-11h43c6,0 10,5 9,11z" stroke="#000000" stroke-width="12.0" id="path_3"/></svg>