<svg id="vector" xmlns="http://www.w3.org/2000/svg" width="24.0d" height="24.0d" viewBox="0 0 512.0 512.0"><path fill="#ffe45c" d="m434,239c9,22 14,47 14,72 0,106 -86,192 -192,192s-192,-86 -192,-192c0,-19 2,-38 8,-56h168l24,24 40,-40h128zM434,239" stroke="#000000" stroke-width="12.0" id="path_0"/><path fill="#cdd2e1" d="m434,239 l-1,0h-128l-40,40 -24,-24h-168c20,-66 75,-117 144,-132l8,-52h64l8,52c62,13 114,57 138,115zM434,239" stroke="#000000" stroke-width="12.0" id="path_1"/><path fill="#afb4c8" d="m328,7v64h-144v-64zM328,7" stroke="#000000" stroke-width="12.0" id="path_2"/><path fill="#ffffff" d="m247,32h16v15h-16zM247,32" id="path_3"/><path fill="#231f20" d="M280,32h16v15h-16zM215,32h16v15h-16zM272,448h16v15h-16zM304,448h16v15h-16zM368,264h16v15h-16z" id="path_4"/></svg>