<svg id="vector" xmlns="http://www.w3.org/2000/svg" width="24.0d" height="24.0d" viewBox="0 0 512.0 512.0"><path fill="#b0d3f0" d="M400,266L186,479c-42,42 -112,42 -154,0s-42,-112 0,-154l213,-213L400,266z" id="path_0"/><path fill="#65ddb9" d="M63,300a148,44 0,1 0,296 0a148,44 0,1 0,-296 0z" id="path_1"/><path fill="#46b29d" d="M353,313L187,479c-42,42 -112,42 -154,0s-42,-112 0,-154l38,-38l0,0c-4,3 -6,8 -6,13c0,24 66,44 148,44c66,0 122,-13 141,-30L353,313z" id="path_2"/><path fill="#90bae1" d="M485,229l-38,38l-0,-0c-19,19 -79,-10 -135,-65s-85,-116 -65,-135l38,-38L485,229z" id="path_3"/><path fill="#b0d3f0" d="M461,143c2,3 4,6 7,9c21,33 28,62 16,75c-19,19 -79,-10 -135,-65s-85,-116 -65,-135c12,-12 41,-4 75,16l9,6" id="path_4"/><path fill="#b19046" d="M509,95l-55,55c-10,10 -39,-1 -65,-27c-25,-25 -37,-55 -27,-65l55,-55L509,95z" id="path_5"/><path fill="#fdd7ad" d="M508,96a65,27 45,1 0,-92 -92a65,27 45,1 0,92 92z" id="path_6"/></svg>