<svg id="vector" xmlns="http://www.w3.org/2000/svg" width="24.0d" height="24.0d" viewBox="0 0 512.0 512.0"><path fill="#c42430" d="m175,7v44l12,8c11,7 18,20 18,33v34h99v-34c0,-13 6,-26 18,-33l12,-8v-44z" stroke="#000000" stroke-width="12.0" id="path_0"/><path fill="#da4a54" d="M134,39h40v88h-40z M377,128l-40,-0l-0,-88l40,-0z" stroke="#000000" stroke-width="12.0" id="path_1"/><path fill="#b6c4cf" d="m239,64h32v64h-32z" stroke="#000000" stroke-width="12.0" id="path_2"/><path fill="#dd636e" d="m377,472h-242c-22,0 -40,-18 -40,-40v-262c0,-22 18,-40 40,-40h242c22,0 40,18 40,40v262c0,22 -18,40 -40,40z" stroke="#000000" stroke-width="12.0" id="path_3"/><path fill="#c42430" d="m361,504h-210c-8,0 -16,-7 -16,-16v-16h242v16c0,8 -7,16 -16,16z" stroke="#000000" stroke-width="12.0" id="path_4"/><path fill="#e4989d" d="M88,169h335c4,0 8,3 8,8v16c0,4 -3,8 -8,8h-335c-4,0 -8,-3 -8,-8v-16c0,-4 3,-8 8,-8zM88,399h335c4,0 8,3 8,8v16c0,4 -3,8 -8,8h-335c-4,0 -8,-3 -8,-8v-16c0,-4 3,-8 8,-8z" stroke="#000000" stroke-width="12.0" id="path_5"/><path fill="#dd636e" d="M387,39h-60c-5,0 -10,-4 -10,-10v-12c0,-5 4,-10 10,-10h60c5,0 10,4 10,10v12c0,5 -4,10 -10,10zM124,39h60c5,0 10,-4 10,-10v-12c0,-5 -4,-10 -10,-10h-60c-5,0 -10,4 -10,10v12c0,5 4,10 10,10z" stroke="#000000" stroke-width="12.0" id="path_6"/><path fill="#ffd064" d="m256,233s48,50 48,84c0,26 -21,48 -48,48s-48,-21 -48,-48c0,-34 48,-84 48,-84z" stroke="#000000" stroke-width="12.0" id="path_7"/><path fill="#e49542" d="m256,300s24,25 24,42c0,13 -10,24 -24,24s-24,-10 -24,-24c0,-17 24,-42 24,-42z" stroke="#000000" stroke-width="12.0" id="path_8"/></svg>