<svg id="vector" xmlns="http://www.w3.org/2000/svg" width="24.0d" height="24.0d" viewBox="0 0 512.0 512.0"><path fill="#fff0ad" d="m474,106h-30l15,90v180l-15,30h30c16,0 30,-13 30,-30v-240c0,-16 -13,-30 -30,-30z" id="path_0"/><path fill="#fff8d6" d="m474,196v-60c0,-16 -13,-30 -30,-30h-407c-16,0 -30,13 -30,30v240c0,16 13,30 30,30h407c16,0 30,-13 30,-30l-15,-15h-407v-150h407z" id="path_1"/><path fill="#fff0ad" d="m459,226 l-15,-30h-407v180h407l15,-30h-45v-45h45v-30h-45v-45zM97,346h-30v-45h30zM157,346h-30v-45h30zM157,271h-30v-45h30zM217,271h-30v-45h30zM271,346h-30v-45h30zM324,271h-30v-45h30zM384,346h-30v-45h30zM384,271h-30v-45h30z" stroke="#000000" stroke-width="12.0" id="path_2"/><path fill="#ffe46b" d="m444,196h30v180h-30z" id="path_3"/><path fill="#000000" d="m474,98h-437c-20,0 -37,16 -37,37v240c0,20 16,37 37,37h437c20,0 37,-16 37,-37v-240c0,-20 -16,-37 -37,-37zM497,376c0,12 -10,22 -22,22h-437c-12,0 -22,-10 -22,-22v-240c0,-12 10,-22 22,-22h437c12,0 22,10 22,22z" id="path_4"/><path fill="#000000" d="m474,188h-437c-4,0 -7,3 -7,7v75c0,4 3,7 7,7s7,-3 7,-7v-67h422v165h-422v-67c0,-4 -3,-7 -7,-7s-7,3 -7,7v75c0,4 3,7 7,7h437c4,0 7,-3 7,-7v-180c0,-4 -3,-7 -7,-7z" id="path_5"/><path fill="#000000" d="m414,278h30c4,0 7,-3 7,-7v-45c0,-4 -3,-7 -7,-7h-30c-4,0 -7,3 -7,7v45c0,4 3,7 7,7zM422,233h15v30h-15z" id="path_6"/><path fill="#000000" d="m407,346c0,4 3,7 7,7h30c4,0 7,-3 7,-7v-45c0,-4 -3,-7 -7,-7h-30c-4,0 -7,3 -7,7zM422,308h15v30h-15z" id="path_7"/></svg>