<svg id="vector" xmlns="http://www.w3.org/2000/svg" width="24.0d" height="24.0d" viewBox="0 0 512.0 512.0"><path fill="#b7b2b8" d="M416,119h-32c-4,0 -8,3 -8,8v32h48v-32C424,123 420,119 416,119z" id="path_0"/><path fill="#ffe1a0" d="M472,504H39C21,504 7,490 7,472v-288c0,-17 14,-32 32,-32h432c17,0 32,14 32,32v288C504,490 490,504 472,504z" id="path_1"/><path fill="#c9c6ca" d="M183,328m-112,0a112,112 0,1 1,224 0a112,112 0,1 1,-224 0" stroke="#000000" stroke-width="12.0" id="path_2"/><path fill="#9c969e" d="M488,23m-16,0a16,16 0,1 1,32 0a16,16 0,1 1,-32 0" id="path_3"/><path fill="#c9c6ca" d="M400,256m-40,0a40,40 0,1 1,80 0a40,40 0,1 1,-80 0" stroke="#000000" stroke-width="12.0" id="path_4"/><path fill="#000000" d="M472,144h-40v-16c0,-8 -7,-15 -15,-15h-32c-8,0 -15,7 -15,15v16H107L469,37c4,6 11,10 19,10c13,0 23,-10 23,-23S501,0 488,0c-12,0 -23,9 -23,22L54,144H39C17,144 0,162 0,183v288C0,494 17,512 39,512h432C494,512 512,494 512,472V183C512,162 494,144 472,144zM488,15c4,0 8,3 8,8s-3,8 -8,8s-8,-3 -8,-8S483,15 488,15zM383,127c0,-0 0,-0 0,-0h32c0,0 0,0 0,0v16h-33V127zM497,472C497,486 486,497 472,497H39C26,497 15,486 15,472V183c0,-13 11,-24 24,-24h432c13,0 24,11 24,24v288H497z" id="path_5"/><path fill="none" d="M186,264v128M146,288v80M226,288v80M360,328h90M360,368h90" stroke-linecap="round" stroke="#000000" stroke-width="12.0" id="path_6"/></svg>