<svg id="vector" xmlns="http://www.w3.org/2000/svg" width="24.0d" height="24.0d" viewBox="0 0 512.0 512.0"><path fill="#8b5e3c" d="M442,403c25,0 46,20 46,46c0,25 -20,46 -46,46c-25,0 -46,-20 -46,-46C395,424 416,403 442,403zM395,449c0,25 -20,46 -46,46c-25,0 -46,-20 -46,-46c0,-25 20,-46 46,-46C374,403 395,424 395,449zM302,449c0,25 -20,46 -46,46s-46,-20 -46,-46c0,-25 20,-46 46,-46S302,424 302,449zM209,449c0,25 -20,46 -46,46s-46,-20 -46,-46c0,-25 20,-46 46,-46S209,424 209,449zM116,449c0,25 -20,46 -46,46s-46,-20 -46,-46c0,-25 20,-46 46,-46S116,424 116,449z" stroke="#000000" stroke-width="12.0" id="path_0"/><path fill="#754c29" d="M442,434c8,0 15,7 15,15s-7,15 -15,15c-8,0 -15,-7 -15,-15S433,434 442,434zM349,434c8,0 15,7 15,15s-7,15 -15,15c-8,0 -15,-7 -15,-15S340,434 349,434zM256,434c8,0 15,7 15,15s-7,15 -15,15s-15,-7 -15,-15C240,441 247,434 256,434zM162,434c8,0 15,7 15,15s-7,15 -15,15s-15,-7 -15,-15C147,441 154,434 162,434zM69,434c8,0 15,7 15,15s-7,15 -15,15s-15,-7 -15,-15C54,441 61,434 69,434z" stroke="#000000" stroke-width="12.0" id="path_1"/><path fill="#a97c50" d="M488,61v7h-93v-7c0,-25 20,-46 46,-46C467,15 488,36 488,62zM395,61v7h-93v-7c0,-25 20,-46 46,-46C374,15 395,36 395,62zM302,61v7H209v-7c0,-25 20,-46 46,-46S302,36 302,62zM209,61v7h-93v-7c0,-25 20,-46 46,-46C188,15 209,36 209,62zM116,61v7H23v-7c0,-25 20,-46 46,-46S116,36 116,62z" stroke="#000000" stroke-width="12.0" id="path_2"/><path fill="#a97c50" d="M488,364v85c0,-25 -20,-46 -46,-46c-25,0 -46,20 -46,46v-85H488zM395,449c0,-25-20,-46 -46,-46c-25,0 -46,20 -46,46v-85h93V449zM302,364v85c0,-25 -20,-46 -46,-46s-46,20 -46,46v-85H302zM209,364v85c0,-25 -20,-46 -46,-46s-46,20 -46,46v-85H209zM116,364v85c0,-25 -20,-46 -46,-46s-46,20 -46,46v-85H116z" stroke="#000000" stroke-width="12.0" id="path_3"/><path fill="#a97c50" d="M395,69h93v294h-93zM302,69h93v294h-93zM209,69h93v294h-93zM116,69h93v294h-93zM23,69h93v294h-93z" stroke="#000000" stroke-width="12.0" id="path_4"/></svg>