<svg id="vector" xmlns="http://www.w3.org/2000/svg" width="24.0d" height="24.0d" viewBox="0 0 512.0 512.0"><path fill="#aa6a51" d="m13,288v-65c0,-5 4,-10 10,-10h465c5,0 10,4 10,10v65c0,5 -4,10 -10,10h-465c-5,0 -10,-4 -10,-10z" stroke="#000000" stroke-width="12.0" id="path_0"/><path fill="#aa6a51" d="m13,118v-65c0,-5 4,-10 10,-10h465c5,0 10,4 10,10v65c0,5 -4,10 -10,10h-465c-5,0 -10,-4 -10,-10z" stroke="#000000" stroke-width="12.0" id="path_1"/><path fill="#aa6a51" d="m13,458v-65c0,-5 4,-10 10,-10h465c5,0 10,4 10,10v65c0,5 -4,10 -10,10h-465c-5,0 -10,-4 -10,-10z" stroke="#000000" stroke-width="12.0" id="path_2"/><path fill="#9c9c9c" d="M400,373h-26c-4,0 -8,3 -8,8v89c0,4 3,8 8,8h26zM400,203h-26c-4,0 -8,3 -8,8v89c0,4 3,8 8,8h26zM400,33h-26c-4,0 -8,3 -8,8v89c0,4 3,8 8,8h26zM82,373h-26c-4,0 -8,3 -8,8v89c0,4 3,8 8,8h26zM82,203h-26c-4,0 -8,3 -8,8v89c0,4 3,8 8,8h26zM82,33h-26c-4,0 -8,3 -8,8v89c0,4 3,8 8,8h26z" stroke="#000000" stroke-width="12.0" id="path_3"/><path fill="#bfbfbf" d="M137,373h-33v105h34c4,0 8,-3 8,-8v-89c0,-4 -3,-8 -8,-8zM137,203h-33v105h34c4,0 8,-3 8,-8v-89c0,-4 -3,-8 -8,-8zM137,33h-33v105h34c4,0 8,-3 8,-8v-89c0,-4 -3,-8 -8,-8zM455,373h-34v105h34c4,0 8,-3 8,-8v-89c0,-4 -3,-8 -8,-8zM455,203h-34v105h34c4,0 8,-3 8,-8v-89c0,-4 -3,-8 -8,-8zM455,33h-34v105h34c4,0 8,-3 8,-8v-89c0,-4 -3,-8 -8,-8z" stroke="#000000" stroke-width="12.0" id="path_4"/><path fill="#5a5a5a" d="M113,504h-32c-2,0 -4,-1 -4,-4v-489c0,-2 1,-4 4,-4h32c2,0 4,1 4,4v489c0,2 -1,4 -4,4z M430,504h-32c-2,0 -4,-1 -4,-4v-489c0,-2 1,-4 4,-4h32c2,0 4,1 4,4v489c0,2 -1,4 -4,4z" stroke="#000000" stroke-width="12.0" id="path_5"/></svg>