<svg id="vector" xmlns="http://www.w3.org/2000/svg" width="24.0d" height="24.0d" viewBox="0 0 682.0 682.0"><path fill="#81ebeb" d="M90,563c-61,57 -46,109 0,109 46,-0 61,-51 0,-109z M592,563c61,57 46,109 0,109 -46,-0 -61,-51 0,-109z M341,545c71,66 53,127 0,127 -53,-0 -71,-60 0,-127z" stroke="#000000" stroke-width="12.0" id="path_0"/><path fill="#00cec8" d="M209,472c-36,34 -27,64 0,64 27,-0 36,-30 0,-64z M476,485c44,41 33,79 0,79 -33,-0 -44,-37 0,-79z" stroke="#000000" stroke-width="12.0" id="path_1"/><path fill="#eef0f5" d="m624,272c0,11 -1,22 -4,32l-37,8 -362,83l-87,-0c-68,-0 -123,-55 -123,-123 0,-59 42,-109 98,-121 5,-43 28,-82 62,-107 27,-21 62,-33 99,-33 57,-0 107,29 136,73 9,-3 20,-4 31,-4 46,-0 86,31 97,74C587,169 624,216 624,272" stroke="#000000" stroke-width="12.0" id="path_2"/><path fill="#dae1ea" d="m672,354c0,24 -10,45 -27,60 -13,11 -31,18 -51,18 -27,-0 -51,-14 -66,-35 -21,21 -51,35 -84,35 -22,-0 -43,-6 -61,-16 -14,10 -33,16 -52,16 -50,-0 -90,-40 -90,-90 0,-50 40,-90 90,-90 4,-0 8,0 12,0 20,-34 58,-56 101,-56 54,-0 101,37 114,87 10,-5 22,-8 35,-8C637,275 672,311 672,354" stroke="#000000" stroke-width="12.0" id="path_3"/></svg>