<svg id="vector" xmlns="http://www.w3.org/2000/svg" width="24.0d" height="24.0d" viewBox="0 0 508.0 508.0"><path fill="#d7aa02" d="M58,371 l138,43v-254h-41c-20,0 -38,12 -45,32l-60,162c-2,7 1,14 8,16zM450,371 l-138,43v-254h41c20,0 38,12 45,32l60,162c2,7 -1,14 -8,16z" stroke="#000000" stroke-width="16.0" id="path_0"/><path fill="#fac600" d="m347,161c3,-12 5,-25 5,-39 0,-63 -42,-113 -94,-113 -52,0 -94,51 -94,113 0,13 2,26 5,38h-0l-66,317c101,31 209,31 310,0z" stroke="#000000" stroke-width="16.0" id="path_1"/><path fill="#d7aa02" d="M186,454c-14,0 -26,-11 -26,-26v-37h52v38c0,14 -11,26 -26,26zM329,454c-14,0 -26,-11 -26,-26v-37h52v38c0,14 -11,26 -26,26z" stroke="#000000" stroke-width="16.0" id="path_2"/><path fill="none" d="M178,160l80,40l80,-40 M210,180v40 M256,200v290 M302,180v40" stroke-linecap="round" stroke="#000000" stroke-width="16.0" id="path_3"/></svg>