<svg id="vector" xmlns="http://www.w3.org/2000/svg" width="24.0d" height="24.0d" viewBox="0 0 512.0 512.0"><path fill="#b3b3b3" d="M289,187l-61,61l1,34l34,1l61,-61z" id="path_0"/><path fill="#d9d9d9" d="M457,262c-3,0 -76,4 -142,-28c-8,-4 -15,-9 -21,-15s-11,-13 -15,-21c-33,-66 -28,-139 -28,-142l33,2c-0,0 -4,67 24,125c4,9 12,17 22,22c58,29 124,25 125,24L457,262z" id="path_1"/><path fill="none" d="M264,54l39,-39M459,248l39,-39M303,93l39,-39M342,132l39,-39M380,171l39,-39M419,209l39,-39" stroke-linecap="round" stroke="#999999" stroke-width="24.0" id="path_2"/><path fill="#b3b3b3" d="M444,257L254,67c-6,-6 -6,-17 0,-23c6,-6 17,-6 23,0L468,233c6,6 6,17 0,23C462,264 451,264 444,257z" id="path_3"/><path fill="#c86d5c" d="M228,248L7,469c-9,9 -9,25 0,35s25,9 35,0l221,-221L228,248z" id="path_4"/></svg>