<svg id="vector" xmlns="http://www.w3.org/2000/svg" width="24.0d" height="24.0d" viewBox="0 0 58.0 58.0"><path fill="#c78052" d="m21.4,38 l-19.4,-10c-1,-0.4 -2,-1.5 -2,-2.8v-10.8c-0,-3 1.8,-6 4.6,-7.2l14.2,-6.5c0.6,-0.3 1.3,-0.4 2,-0.4 0.7,-0 1.4,0 2,0.4l18.6,9.6z" id="path_0"/><path fill="#a16a43" d="m45,23v-8.3c-0,-1.7 -0.8,-3.2 -2.3,-4.2 -1.4,-1 -3.2,-1 -4.7,-0.3l-14.2,6.5c-2.8,1.3 -4.6,4 -4.6,7.2l-0,4.5z" id="path_1"/><path fill="#ee981f" d="m23,26.6v-2.5c0,-1.5 1,-3 2.3,-3.6l14.2,-6.5c0,-0 0.2,-0 0.4,-0 0.5,0 1,0.4 1,1v6.5z" id="path_2"/><path fill="#c78052" d="m16.3,30 l18.6,-9.6c1.3,-0.6 2.8,-0.6 4,0l14.2,6.5c2.8,1.3 4.6,4 4.6,7.2v10.8c0,1.2 -0.7,2.3 -2,2.8l-19,9.7z" id="path_3"/><path fill="#a16a43" d="m25,53.2 l9.7,4.5c1,0.4 2,0.3 2.8,-0 0.8,-0.5 1.3,-1.5 1.3,-2.5v-10.8c0,-3 -1.8,-6 -4.6,-7.2l-14.2,-6.5c-1.5,-0.7 -3.3,-0.5 -4.7,0.3s-2.3,2.5 -2.3,4.2v11c0,1 0.6,2.2 1.7,2.7l6.2,2.8" id="path_4"/><path fill="#ee981f" d="m35,44v2.8l-7,-3c-0.6,-0.2 -1.3,-0.2 -2,0 -0.5,0.3 -1,1 -1,1.6v8.2c0,1 -0.6,1.8 -1.6,2 -0.5,0 -1,-0 -1.6,-0.4 -0.4,-0.3 -0.7,-1 -0.7,-1.5v-12c-0,-0.7 -0.4,-1.5 -1,-1.8l-2.8,-1.2v-4c0,-0.5 0.4,-1 1,-1 0,-0 0.2,0 0.4,0.1l14.2,6.5c1.4,0.6 2.3,2 2.3,3.6z" id="path_5"/><path fill="#f6bd76" d="m21,42v4.8l-3.4,-1.5c-0.3,-0 -0.5,-0.5 -0.5,-0.9v-5.4l2.8,1.2c0.7,0.3 1,1 1,1.8z" id="path_6"/><path fill="#f6bd76" d="m35,47v4.8c0,0.3 -0,0.6 -0.4,0.8 -0.2,0 -0.6,0.2 -1,0l-8.5,-3.9v-3c-0,-0.6 0.3,-1.3 1,-1.6 0.5,-0.3 1.2,-0.4 2,-0z" id="path_7"/><path fill="#cb936a" d="m42,38.4c-0.4,-0 -0.8,-0.3 -1,-0.7s0,-1 0.5,-1l11,-5c0.3,-0 0.7,-0 1,0 0.3,0.2 0.4,0.5 0.4,1s-0.2,0.6 -0.6,0.8l-11,5c-0,0 -0.2,0 -0.4,0z" id="path_8"/><path fill="#cb936a" d="m16,20c-0,-0 -0.2,-0 -0.4,-0.1l-11,-5c-0.4,-0.2 -0.6,-0.8 -0.4,-1.3s0.8,-0.7 1.2,-0.4l11,5c0.4,0 0.6,0.6 0.5,1 -0,0.4 -0.5,0.7 -1,0.7z" id="path_9"/></svg>