<svg id="vector" xmlns="http://www.w3.org/2000/svg" width="24.0d" height="24.0d" viewBox="0 0 508.0 508.0"><path fill="#a7bdcd" d="m401,367 l-30,-82 -82,-48c-25,-14 -41,-41 -42,-71 -0,-22 -8,-43 -22,-60l19,-6c9,-3 17,-9 20,-19l11,-27c3,-9 3,-19 -1,-28 -6,-12 -23,-16 -35,-8 -10,6 -20,12 -31,17l-18,8c-10,4 -17,13 -20,24l-77,-39c-25,-12 -54,-15 -81,-6v406l30,-14c15,-7 24,-22 23,-38l58,-11c12,-2 25,3 31,14 34,59 92,103 162,117 11,2 23,1 34,-1 21,-6 37,-22 45,-43l17,-45c5,-13 -0,-29 -12,-36z" stroke="#000000" stroke-width="12.0" id="path_0"/><path fill="#ffe6b4" d="m404,369 l-14,-8c-17,-10 -27,-30 -24,-51l4,-25c44,-9 82,-38 105,-78 4,-8 16,-6 18,2 12,57 -7,118 -52,156 -10,8 -25,10 -37,3zM370,285c5,-30 5,-50 5,-62 -0,-7 -9,-12 -15,-7l-51,34c19,13 39,26 61,36z" stroke="#000000" stroke-width="12.0" id="path_1"/><path fill="#ffbecb" d="m167,77c-0,-14 7,-28 20,-34l18,-8c11,-5 21,-11 31,-17 11,-8 28,-4 35,8 4,8 5,19 1,28l-11,27c-3,9 -11,16 -20,19l-32,10c-19,6 -34,20 -40,39z" stroke="#000000" stroke-width="12.0" id="path_2"/><path fill="#000000" d="M259,328c11,11 30,11 42,0 4,-4 10,-4 14,0 4,4 4,10 0,14 -19,19 -51,19 -70,0 -4,-4 -4,-10 0,-14 4,-4 10,-4 14,0zM276,317c-5,0 -10,-4 -10,-10s4,-10 10,-10h10c5,0 10,4 10,10s-4,10 -10,10z" id="path_3"/></svg>