<svg id="vector" xmlns="http://www.w3.org/2000/svg" width="24.0d" height="24.0d" viewBox="0 0 512.0 512.0"><path fill="#bceaf9" d="m220,512h-205c-8,0 -15,-6 -15,-15v-88c0,-38 11,-75 32,-106 21,-31 51,-55 87,-70l89,-36c5,-2 9,-6 11,-11s2,-11 -0,-16c-23,-51 -14,-110 24,-152l10,-11c2,-3 6,-4 11,-4h90c5,0 11,3 13,8 2,5 1,11 -1,15 -29,36 -32,88 -6,127 17,26 22,58 13,89s-29,55 -57,69c-49,24 -82,75 -82,130v56c0,8 -6,15 -15,15z" id="path_0"/><path fill="#86beec" d="m367,24c3,-4 4,-10 1,-15 -2,-5 -7,-8 -13,-8h-90c-3,0 -7,1 -10,3v361c14,-23 35,-43 61,-55 28,-13 49,-38 57,-69 8,-30 3,-62 -13,-89 -25,-39 -23,-90 6,-127z" id="path_1"/><path fill="#af8663" d="m447,211c-8,0 -15,-6 -15,-15v-40c0,-8 6,-15 15,-15s15,6 15,15v40c0,8 -6,15 -15,15z" id="path_2"/><path fill="#00cb75" d="m447,171c-30,0 -55,-24 -55,-55v-40c0,-30 24,-55 55,-55s55,24 55,55v40c0,30 -24,55 -55,55z" id="path_3"/><path fill="#00a763" d="m502,116v-40c0,-30 -24,-55 -55,-55v150c30,0 55,-24 55,-55z" id="path_4"/><path fill="#af8663" d="m327,512c-8,0 -15,-6 -15,-15v-40c0,-8 6,-15 15,-15s15,6 15,15v40c0,8 -6,15 -15,15z" id="path_5"/><path fill="#af8663" d="m457,512c-8,0 -15,-6 -15,-15v-40c0,-8 6,-15 15,-15s15,6 15,15v40c0,8 -6,15 -15,15z" id="path_6"/><path fill="#00cb75" d="m457,472c-30,0 -55,-24 -55,-55v-40c0,-30 24,-55 55,-55s55,24 55,55v40c0,30 -24,55 -55,55z" id="path_7"/><path fill="#00a763" d="m512,417v-40c0,-30 -24,-55 -55,-55v150c30,0 55,-24 55,-55z" id="path_8"/><path fill="#00cb75" d="m327,472c-24,0 -45,-20 -45,-45v-30c0,-24 20,-45 45,-45s45,20 45,45v30c0,24 -20,45 -45,45z" id="path_9"/><path fill="#00a763" d="m372,427v-30c0,-24 -20,-45 -45,-45v120c24,0 45,-20 45,-45z" id="path_10"/><path fill="#af8663" d="m105,190c-8,0 -15,-6 -15,-15v-38c0,-8 6,-15 15,-15s15,6 15,15v38c0,8 -6,15 -15,15z" id="path_11"/><path fill="#00cb75" d="m105,152c-30,0 -55,-24 -55,-55v-42c0,-30 24,-55 55,-55s55,24 55,55v42c0,30 -24,55 -55,55z" id="path_12"/><path fill="#00a763" d="m160,97v-42c0,-30 -24,-55 -55,-55v152c30,0 55,-24 55,-55z" id="path_13"/><path fill="#86beec" d="m290,255h-40c-8,0 -15,-6 -15,-15s6,-15 15,-15h40c8,0 15,6 15,15s-6,15 -15,15z" id="path_14"/><path fill="#86beec" d="m279,90c0,-8 -6,-15 -15,-15h-51c-2,9 -4,19 -4,30h55c8,0 15,-6 15,-15z" id="path_15"/><path fill="#6ba7ff" d="M357,145h-63c-8,0 -15,6 -15,15s6,15 15,15h79c-2,-8 -6,-15 -11,-23 -1,-2 -2,-4 -4,-6zM290,225h-34v30h34c8,0 15,-6 15,-15s-6,-15 -15,-15zM264,75h-8v30h8c8,0 15,-6 15,-15s-6,-15 -15,-15z" id="path_16"/><path fill="#86beec" d="m171,396h-40c-8,0 -15,-6 -15,-15s6,-15 15,-15h40c8,0 15,6 15,15s-6,15 -15,15z" id="path_17"/><path fill="#86beec" d="m90,437c0,-8 -6,-15 -15,-15h-75v30h75c8,0 15,-6 15,-15z" id="path_18"/><path fill="#86beec" d="m165,300c0,-8 -6,-15 -15,-15h-104c-4,5 -9,11 -13,17 -2,4 -5,8 -8,12h125c8,0 15,-6 15,-15z" id="path_19"/></svg>