<svg id="vector" xmlns="http://www.w3.org/2000/svg" width="24.0d" height="24.0d" viewBox="0 0 512.0 512.0"><path fill="#eefaff" d="m315,70c21,36 31,79 25,121 -1,13 -17,128 -19,144h-130c-2,-15 -17,-126 -19,-144 -5,-41 4,-85 25,-121z" stroke="#000000" stroke-width="12.0" id="path_0"/><path fill="#91def5" d="M256,176m-40,0a40,40 0,1 1,80 0a40,40 0,1 1,-80 0" stroke="#000000" stroke-width="12.0" id="path_1"/><path fill="#ffda8f" d="m130,422c0,0 0,0 0,0 1,-0 2,-0 3,-0 22,0 40,18 40,40 22,0 42,-18 42,-40v-46h80v46c0,22 20,40 42,40 0,-22 18,-40 40,-40 1,0 2,0 3,0 0,-0 0,-0 0,-0 9,-25 37,-43 67,-39 29,4 53,33 53,60 -0,31 -28,59 -62,59h-368c-34,0 -62,-28 -62,-60 0,-26 24,-55 53,-59 29,-4 58,13 67,39z" stroke="#000000" stroke-width="12.0" id="path_2"/><path fill="#ff7b79" d="m390,299c3,4 5,9 5,14 0,12 -9,22 -22,21h-52l14,-100z" stroke="#000000" stroke-width="12.0" id="path_3"/><path fill="#ff7b79" d="m321,336 l-5,40c-24,0 -91,0 -120,0l-5,-40z" stroke="#000000" stroke-width="12.0" id="path_4"/><path fill="#ff7b79" d="m315,70h-118c14,-24 34,-45 59,-60 24,14 44,35 59,60z" stroke="#000000" stroke-width="12.0" id="path_5"/><path fill="#ff7b79" d="m190,336h-52c-12,0 -22,-9 -22,-22 0,-5 1,-10 5,-14l54,-63z" stroke="#000000" stroke-width="12.0" id="path_6"/></svg>