<svg id="vector" xmlns="http://www.w3.org/2000/svg" width="24.0d" height="24.0d" viewBox="0 0 512.0 512.0"><path fill="#80786a" d="m256,369c-137,0 -248,-111 -248,-248v-1c0,-22 17,-40 40,-40h417c22,0 40,17 40,40v1c0,137 -111,248 -248,248z" stroke="#000000" stroke-width="12.0" id="path_0"/><path fill="#e3a67b" d="m226,246h60v123h-60z" stroke="#000000" stroke-width="12.0" id="path_1"/><path fill="#ff9b87" d="m136,27s61,42 120,42 120,-42 120,-42h20v123s-43,96 -140,96 -140,-96 -140,-96v-123z" stroke="#000000" stroke-width="12.0" id="path_2"/><path fill="#fff48f" d="m376,27v80c0,66 -53,120 -120,120 -66,0 -120,-53 -120,-120v-80c0,-11 -8,-20 -20,-20 -11,0 -20,8 -20,20v80c0,88 71,160 160,160 88,0 160,-71 160,-160v-80c0,-11 -8,-20 -20,-20 -11,0 -20,8 -20,20z" stroke="#000000" stroke-width="12.0" id="path_3"/><path fill="#fff48f" d="m286,344h-60c-27,0 -50,22 -50,50v60c0,27 22,50 50,50h60c27,0 50,-22 50,-50v-60c0,-27 -22,-50 -50,-50zM286,464h-60c-5,0 -10,-4 -10,-10v-60c0,-5 4,-10 10,-10h60c5,0 10,4 10,10v60c0,5 -4,10 -10,10z" stroke="#000000" stroke-width="12.0" id="path_4"/></svg>