<svg id="vector" xmlns="http://www.w3.org/2000/svg" width="24.0d" height="24.0d" viewBox="0 0 512.0 512.0"><path fill="#fff3de" d="m432,289 l-101,-96c-19,-18 -50,-18 -69,0l-101,96z" stroke="#000000" stroke-width="12.0" id="path_0"/><path fill="#a44f3e" d="m490,289h-388c-5,0 -10,4 -9,10 1,30 9,59 23,85l10,-11c5,-6 13,-9 21,-9s15,3 21,9l70,76 24,-26c5,-6 13,-9 21,-9 8,0 15,3 21,9l32,35h65c5,0 10,-1 15,-5 46,-35 77,-90 81,-152 0,-5 -4,-10 -9,-14z" stroke="#000000" stroke-width="12.0" id="path_1"/><path fill="#fff3de" d="m169,372c-11,-13 -32,-13 -44,0l-112,123c-2,3 -0,8 3,8h171l51,-55z" stroke="#000000" stroke-width="12.0" id="path_2"/><path fill="#c8effe" d="m263,422 l-75,82h183c4,0 6,-5 3,-8l-67,-73c-11,-13 -32,-13 -44,-1z" stroke="#000000" stroke-width="12.0" id="path_3"/><path fill="#fff3de" d="M410,129 l-22,22c-1,1 -3,1 -4,0l-22,-22c-1,-1 -1,-3 0,-4l22,-22c1,-1 3,-1 4,0l22,22c1,1 1,3 0,4zM295,35 l-22,22c-1,1 -3,1 -4,0l-22,-22c-1,-1 -1,-3 0,-4l22,-22c1,-1 3,-1 4,0l22,22c1,1 1,3 0,4zM213,140 l-22,22c-1,1 -3,1 -4,0l-22,-22c-1,-1 -1,-3 0,-4l22,-22c1,-1 3,-1 4,0l22,22c1,1 1,3 0,4z" stroke="#000000" stroke-width="12.0" id="path_4"/><path fill="none" d="M118,429h0M150,439h0M293,214h0M283,447h0M257,470h0M254,236h0M284,252h0M103,459h0M147,401h0" stroke-linecap="round" stroke="#000000" stroke-width="12.0" id="path_5"/></svg>