<svg id="vector" xmlns="http://www.w3.org/2000/svg" width="24.0d" height="24.0d" viewBox="0 0 682.6 682.6"><path fill="#e2a284" d="m669.3,165c0,-83.7 -100.1,-151.7 -328,-151.7 -227.9,-0 -328,67.9 -328,151.7 0,22.5 10.6,43.9 29.6,63 25.9,26.2 39.9,61.9 39.9,98.8l0,257.2c0,46.9 38,85 85,85l346.6,-0c46.9,-0 85,-38 85,-85l0,-257.2c0,-36.8 14,-72.6 39.9,-98.8C658.7,208.9 669.3,187.5 669.3,165" stroke="#000000" stroke-width="20.0" id="path_0"/><path fill="#ffe7b3" d="m170.2,616l342.2,-0c18.7,-0 33.8,-15 33.8,-33.8l0,-255c0,-51.8 19.6,-100.3 55.4,-136.3 6.4,-6.5 14.2,-16.3 14.2,-25.5 0,-48.9 -84.9,-98.3 -274.6,-98.3 -189.7,-0 -274.6,49.4 -274.6,98.3 0,9.2 7.7,19 14.2,25.5 35.7,36 55.4,84.5 55.4,136.3L136.3,582C136.3,600.8 151.4,616 170.2,616" stroke="#000000" stroke-width="20.0" id="path_1"/><path fill="#ffce62" d="m467,325.9c6.2,-12.5 9.5,-26.8 8.7,-42 -2,-42.3 -36.3,-77 -78.7,-79.6 -11.4,-0.7 -22.5,0.9 -32.6,4.4 -18.6,6.4 -39.3,4 -55.9,-6.7 -11.4,-7.4 -25.4,-11.2 -40.3,-10 -30.7,2.5 -55.7,27 -58.7,57.8 -1.5,15.9 2.8,30.9 11,42.8 13.9,20 14.3,46.9 1.8,68 -1.9,3.2 -3.7,6.5 -5.3,10 -22.8,48.9 -7.2,104.4 34.8,124 26.6,12.4 57.4,7.4 82.3,-10.2 15.9,-11.3 36.4,-13.9 55.3,-8.4 6.9,2 14.3,2.9 22,2.4 32.6,-2 58.9,-28.9 60.2,-61.5 0.4,-11 -1.8,-21.5 -6.3,-30.7C456.4,367.2 457.6,344.9 467,325.9" stroke="#000000" stroke-width="20.0" id="path_2"/></svg>