<svg id="vector" xmlns="http://www.w3.org/2000/svg" width="24.0d" height="24.0d" viewBox="0 0 682.0 682.0"><path fill="#c1e2ff" d="m473,242 l-231,231 -33,-33 231,-231z" stroke="#000000" stroke-width="20.0" id="path_0"/><path fill="#c1e2ff" d="m277,222 l-53,53 -67,-25c-5,-2 -7,-9 -2,-13l83,-83c4,-4 11,-2 13,2z" stroke="#000000" stroke-width="20.0" id="path_1"/><path fill="#e8f3ff" d="m503,413 l-89,89c-6,6 -16,6 -23,-0L201,314c-10,-10 -10,-27 0,-38l73,-73c10,-10 27,-10 38,-0L503,390C509,397 509,407 503,413" stroke="#000000" stroke-width="20.0" id="path_2"/><path fill="#b3d8fb" d="m519,561c-11,-11 -11,-30 0,-42 11,-11 30,-11 42,-0C573,531 573,550 561,561 550,573 531,573 519,561" stroke="#000000" stroke-width="20.0" id="path_3"/><path fill="#89c6fc" d="m301,511 l-155,155c-7,7 -19,7 -27,-0l-102,-102c-7,-7 -7,-19 0,-27L171,381c7,-7 19,-7 27,-0L301,484C308,491 308,503 301,511" stroke="#000000" stroke-width="20.0" id="path_4"/><path fill="#62b4fd" d="m301,484 l-61,-61c7,7 7,19 0,27L83,605c-7,7 -19,7 -27,0l61,61c7,7 19,7 27,-0L301,511C308,503 308,491 301,484" stroke="#000000" stroke-width="20.0" id="path_5"/><path fill="none" d="M67,615 L249,432" stroke-linecap="round" stroke="#000000" stroke-width="20.0" id="path_6"/><path fill="#89c6fc" d="m667,145 l-155,155c-7,7 -19,7 -27,-0l-102,-102c-7,-7 -7,-19 0,-27L537,15c7,-7 19,-7 27,-0L667,118C674,125 674,138 667,145" stroke="#000000" stroke-width="20.0" id="path_7"/><path fill="#62b4fd" d="m667,118 l-61,-61c7,7 7,19 0,27l-155,155c-7,7 -19,7 -27,-0l61,61c7,7 19,7 27,-0L667,145C674,138 674,125 667,118" stroke="#000000" stroke-width="20.0" id="path_8"/><path fill="none" d="M432,249 L615,67" stroke-linecap="round" stroke="#000000" stroke-width="20.0" id="path_9"/><path fill="#fb9369" d="m363,363l0,-0c-11,11 -29,11 -40,-0l-42,-42c-11,-11 -11,-29 0,-40 11,-11 29,-11 40,-0L363,322C374,333 374,351 363,363" stroke="#000000" stroke-width="20.0" id="path_10"/><path fill="#89c6fc" d="m576,401c3,-3 2,-10 -2,-12 -50,-17 -109,-6 -150,34 -40,40 -52,99 -34,150 1,5 8,6 12,2z" stroke="#000000" stroke-width="20.0" id="path_11"/><path fill="none" d="M253,559 L123,429 M63,489 L193,619 M569,143 L489,63 M619,193 L602,176 M429,123 L559,253 M449,527 L511,536 M536,511 L527,449" stroke-linecap="round" stroke="#000000" stroke-width="20.0" id="path_12"/></svg>