<svg id="vector" xmlns="http://www.w3.org/2000/svg" width="24.0d" height="24.0d" viewBox="0 0 512.0 512.0"><path fill="#ffffff" d="m449,11 l-0,-1 -191,247 -0,0 -191,-247c-11,17 -17,36 -17,56 0,21 6,42 20,60 59,79 145,200 147,204l89,-12 0,-0 142,-192c24,-34 25,-80 2,-116zM449,11" stroke="#000000" stroke-width="16.0" id="path_0"/><path fill="#ff6c6c" d="m386,322c-13,0 -26,3 -38,8 -15,7 -32,3 -42,-9l-1,-1 -27,-35c-13,-13 -36,-14 -51,-3l-1,1c-12,10 -17,28 -12,42l-4,-3 -0,0c-10,13 -27,16 -42,9 -11,-5 -24,-8 -38,-8 -57,0 -102,54 -86,114 10,39 46,65 86,65 67,-0 84,-62 128,-114 57,81 82,109 119,113 46,4 91,-25 100,-71 11,-57 -32,-107 -88,-107zM126,462c-27,0 -50,-22 -50,-50s22,-50 50,-50c27,0 50,22 50,50s-22,50 -50,50zM386,462c-27,0 -50,-22 -50,-50s22,-50 50,-50c27,0 50,22 50,50s-22,50 -50,50zM386,462" stroke="#000000" stroke-width="16.0" id="path_1"/></svg>