<svg id="vector" xmlns="http://www.w3.org/2000/svg" width="24.0d" height="24.0d" viewBox="0 0 512.0 512.0"><path fill="#fed402" d="m88,373c22,12 37,35 39,61 0,2 -2,5 -4,5h-26l-51,-17 -15,-21 -12,-23c-1,-2 -0,-5 2,-6 9,-4 19,-6 30,-7z" stroke="#000000" stroke-width="12.0" id="path_0"/><path fill="#e5e1e5" d="m175,393h-25l56,50h188l50,-50z" stroke="#000000" stroke-width="12.0" id="path_1"/><path fill="#efedef" d="m124,49 l-4,19 -45,211 -2,36 17,5 14,-34 47,-217 1,-17z" stroke="#000000" stroke-width="12.0" id="path_2"/><path fill="#fee97d" d="m470,427h27c2,0 4,-2 3,-4 -8,-33 -38,-58 -74,-58 -37,0 -68,27 -75,63z" stroke="#000000" stroke-width="12.0" id="path_3"/><path fill="#fee45a" d="m93,68h65c3,0 6,-3 6,-6v-9c0,-9 -6,-17 -16,-18l-54,-8c-8,-1 -16,5 -16,13v16c-0,7 6,14 14,12z" stroke="#000000" stroke-width="12.0" id="path_4"/><path fill="#fee97d" d="m218,427 l-121,-94 -18,-14 -11,40 21,15 71,53 54,37 22,-28z" stroke="#000000" stroke-width="12.0" id="path_5"/><path fill="#736572" d="M52,441m-45,0a45,45 0,1 1,90 0a45,45 0,1 1,-90 0" stroke="#000000" stroke-width="12.0" id="path_6"/><path fill="#fee45a" d="m96,319 l-27,-5 -9,10 -22,103c-1,6 2,12 8,13l16,3c6,1 12,-2 13,-8l22,-103z" stroke="#000000" stroke-width="12.0" id="path_7"/><path fill="#736572" d="M427,440m-45,0a45,45 0,1 1,90 0a45,45 0,1 1,-90 0" stroke="#000000" stroke-width="12.0" id="path_8"/><path fill="#efedef" d="m161,436 l27,27c1,1 4,3 7,3h200l33,-13c4,-1 7,-5 7,-10v-4c0,-6 -5,-11 -11,-11h-265l-0,6c-0,0 0,1 0,2z" stroke="#000000" stroke-width="12.0" id="path_9"/><path fill="#d7d0d6" d="m104,288c1,0 2,1 2,3l-9,41 -0,-0 -37,-8 9,-41c0,-1 1,-2 3,-2z" stroke="#000000" stroke-width="12.0" id="path_10"/></svg>