<svg id="vector" xmlns="http://www.w3.org/2000/svg" width="24.0d" height="24.0d" viewBox="0 0 512.0 512.0"><path fill="none" d="M200,16 c360,50 360,240 0,300M200,16 c220,40 220,260 0,300M200,16 c300,20 300,280 0,300M200,32 c-100,60 -100,200 0,260M240,64 c-70,60 -70,140 0,210M60,120h400M60,210h390" stroke="#cbe5e8" stroke-width="12.0" id="path_0"/><path fill="#8379c1" d="m167,0c-74,0 -135,73 -135,163 0,76 42,139 100,158 11,3 19,14 19,26v147c0,8 7,15 15,15 8,0 15,-7 15,-15v-147c0,-12 7,-23 19,-26 57,-18 100,-82 100,-158 0,-90 -60,-163 -135,-163zM238,259c-19,23 -45,36 -71,36 -26,0 -52,-13 -71,-36 -21,-25 -32,-59 -32,-96s11,-70 32,-96c19,-23 45,-36 71,-36 26,0 52,13 71,36 21,25 32,59 32,96s-11,70 -32,96z" id="path_1"/></svg>