<svg id="vector" xmlns="http://www.w3.org/2000/svg" width="24.0d" height="24.0d" viewBox="0 0 512.0 512.0"><path fill="#efeeee" d="M311,273c7,0 13,-3 18,-8l8,-9c6,-6 9,-15 9,-24v-22c0,-10 -7,-20 -17,-22l-41,-11c-4,-1 -7,-5 -7,-9v-17l-3,0c16,-12 27,-35 27,-63c0,-26 -9,-51 -24,-65c-18,-20 -70,-10 -79,10c-31,2 -42,28 -22,54c0,36 31,39 31,39s0,0 1,0l-0,0c5,12 14,21 24,27l-4,0v17c0,2 -1,4 -3,5l-66,31c-12,5 -19,17 -19,31v41c0,7 5,12 12,12h15v-24l1,0l18,68c0,0 -22,54 -22,81S202,502 202,502h114c0,0 32,-79 19,-122c-5,-18 -31,-52 -31,-52l5,-54L311,273L311,273z" stroke="#000000" stroke-width="12.0" id="path_0"/><path fill="#d1d3d4" d="M311,273c7,0 13,-3 18,-8l8,-9c6,-6 9,-15 9,-24v-22c0,-10 -7,-20 -17,-22l-41,-11c-4,-1 -7,-5 -7,-9v-15c-16,4 -33,6 -49,2l-1,0v17c0,2 -1,4 -3,5l-66,31c-12,5 -19,17 -19,31v41c0,7 5,12 12,12h15v-24l1,0l18,68c0,0 -22,54 -22,81s36,84 36,84H316c0,0 32,-79 19,-122c-5,-18 -31,-52 -31,-52l5,-54h1V273z" stroke="#000000" stroke-width="12.0" id="path_1"/><path fill="#efeeee" d="M215,484c10,-3 17,-8 25,-15c7,-6 14,-13 21,-20c6,-5 12,-11 17,-18c9,-12 15,-27 19,-42c4,-15 10,-30 16,-45c-1,-2 -3,-4 -4,-6c-4,3 -8,6 -12,9c-22,17 -39,42 -62,59c-20,15 -43,22 -68,25c5,19 18,45 27,59C202,488 208,487 215,484z" stroke="#000000" stroke-width="12.0" id="path_2"/><path fill="#000000" d="M216,292h-11c-5,0 -10,-4 -10,-10c0,-5 4,-10 10,-10h11c7,0 14,-3 18,-10l3,-5c3,-4 9,-6 13,-3c4,3 6,9 3,13l-3,5C244,285 231,292 216,292z" id="path_3"/><path fill="none" d="M212,124c10,-10 24,-20 12,-36c40,-10 32,-20 36,-40c40,10 32,20 44,40M268,274h40" stroke-linejoin="round" stroke-linecap="round" stroke="#000000" stroke-width="16.0" id="path_4"/></svg>