<svg id="vector" xmlns="http://www.w3.org/2000/svg" width="24.0d" height="24.0d" viewBox="0 0 512.0 512.0"><path fill="#e1af87" d="M457,247c-21,-41 -73,-55 -111,-46l-53,189l13,50c35,34 61,31 61,31C470,500 504,337 457,247z" stroke="#000000" stroke-width="12.0" id="path_0"/><path fill="#96776a" d="M419,236c-23,-16 -55,-19 -86,-9l-38,198C457,515 487,285 419,236z" stroke="#000000" stroke-width="12.0" id="path_1"/><path fill="#ebc9a0" d="M45,31c-26,19 1,55 1,55L96,39C96,39 67,14 45,31z" stroke="#000000" stroke-width="12.0" id="path_2"/><path fill="#f5dcb4" d="M66,52c-55,47 -3,115 -3,115l94,-104C156,63 113,11 66,52z" stroke="#000000" stroke-width="12.0" id="path_3"/><path fill="#ebc9a0" d="M150,62c-7,1 -15,5 -21,9l-6,3c-8,5 -16,11 -23,19c-0,0 -0,0 -0,0c-83,87 -11,181 -11,181L231,96C231,96 200,49 150,62z" stroke="#000000" stroke-width="12.0" id="path_4"/><path fill="#f5dcb4" d="M323,435c-22,-44 -5,-116 16,-176c39,-107 -53,-182 -123,-164c-6,1 -13,4 -19,8c-22,12 -42,27 -59,47c-48,55 -77,142 -21,230C189,497 297,499 366,472C366,472 339,466 323,435z" stroke="#000000" stroke-width="12.0" id="path_5"/></svg>