<svg id="vector" xmlns="http://www.w3.org/2000/svg" width="24.0d" height="24.0d" viewBox="0 0 512.0 512.0"><path fill="#5c6670" d="M438.7,183c32.7,0 59,26.5 59,59c0,32.7 -26.5,59 -59,59h-81.6c-32.7,0 -59,-26.5 -59,-59c0,-32.7 26.5,-59 59,-59L438.7,183L438.7,183z" stroke="#000000" stroke-width="16.0" id="path_0"/><path fill="#7d868c" d="M503.7,204c-1,-31.7 -27,-57 -59,-57h-81.6c-13,0 -25.6,4.4 -35.5,11.8H198c-46,0 -84.5,33 -93,76.8c-0,0 -0,0 -0,0c-1.5,6 -6.5,11 -12.8,12.5H55.8c-26,0 -47.6,21 -47.6,47.6s21,47.6 47.6,47.6h40c16,0 30,-7.8 38.7,-19.8c16.7,15 39,24 63,24.3h130.3c48,0 87.8,-36 93.8,-82.5h6.5c6.5,12.8 20,21.5 35,21.5c22,0 39.7,-17.7 39.7,-39.7v-41C503.8,205 503.8,204.6 503.7,204z" stroke="#000000" stroke-width="16.0" id="path_1"/><path fill="#5c6670" d="M363,324.6c0,22.4 -18,40.6 -40.6,40.6c-22.4,0 -40.6,-18 -40.6,-40.6v-56c0,-22.4 18,-40.6 40.6,-40.6c22.4,0 40.6,18 40.6,40.6V324.6z" stroke="#000000" stroke-width="16.0" id="path_2"/><path fill="none" d="M420,180h0" stroke-linecap="round" stroke="#000000" stroke-width="12.0" id="path_3"/></svg>