<svg id="vector" xmlns="http://www.w3.org/2000/svg" width="24.0d" height="24.0d" viewBox="0 0 512.0 512.0"><path fill="#fadc60" d="M339,458h34c8,0 14,-6 14,-14c0,-8 -6,-14 -14,-14h-19v-53c0,-8 -6,-14 -14,-14s-14,6 -14,14v68C324,451 331,458 339,458z" stroke="#000000" stroke-width="12.0" id="path_0"/><path fill="#fadc60" d="M248,458h34c8,0 14,-6 14,-14c0,-8 -6,-14 -14,-14h-19v-53c0,-8 -6,-14 -14,-14s-14,6 -14,14v68C234,451 240,458 248,458z" stroke="#000000" stroke-width="12.0" id="path_1"/><path fill="#b8b8b8" d="M117,337c-122,33 -143,2 -60,-28l25,-9l46,10L117,337z" stroke="#000000" stroke-width="12.0" id="path_2"/><path fill="#506366" d="M423,194c-99,0 -170,76 -197,110c-6,8 -3,21 7,24c37,11 96,21 189,21c43,0 79,-34 79,-78C502,229 466,194 423,194z" stroke="#000000" stroke-width="12.0" id="path_3"/><path fill="#efedee" d="M350,53c-61,0 -110,50 -110,111v124c0,3 0,6 0,9c0,0 -158,0 -158,0c1,0 10,14 11,16c42,49 112,72 175,80c44,6 93,5 131,-21c37,-26 60,-70 60,-116v-93C461,103 412,53 350,53z" stroke="#000000" stroke-width="12.0" id="path_4"/><path fill="#506366" d="M247,173c-99,0 -170,76 -197,110c-6,8 -3,21 7,24c37,11 96,21 189,21c43,0 79,-34 79,-78C326,208 291,173 247,173z" stroke="#000000" stroke-width="12.0" id="path_5"/><path fill="#f2c42c" d="M433,169l-45,11h-0v0c0,14 11,25 25,25h45c14,0 25,-11 25,-25L433,169z" stroke="#000000" stroke-width="12.0" id="path_6"/><path fill="#fadc60" d="M504,181H387c0,-14 11,-25 25,-25h66C493,156 504,167 504,181z" stroke="#000000" stroke-width="12.0" id="path_7"/><path fill="#000000" d="M359,151v-17c0,-4 -3,-7 -7,-7s-7,3 -7,7v17c0,4 3,7 7,7S359,155 359,151z" id="path_8"/><path fill="#000000" d="M429,151v-17c0,-4 -3,-7 -7,-7s-7,3 -7,7v17c0,4 3,7 7,7S429,155 429,151z" id="path_9"/></svg>