<svg id="vector" xmlns="http://www.w3.org/2000/svg" width="24.0d" height="24.0d" viewBox="0 0 512.0 512.0"><path fill="#ff931e" d="M346,125c8.6,-58 -35,-111 -94,-113.8l0,0c-5,-0 -38.4,-1 -38.4,-1s8.7,19 -2,21.7c-19,4.7 -48,-2 -48,-2s19,33.6 19,48.4l0,3.4c0,9.6 -5.6,18.4 -14.4,22.3l-40.6,18c-3,1.4 -4.7,5 -3,8.6l8,18.4c1.4,3 5,4.7 8.6,3.3l43.7,-19.5c8,-3.6 17.8,-2.4 25,3c5,4 11,7 17.5,9.8c-31,23.7 -51,61 -51,103c0,57.8 43,99.6 90,123.5c39.4,21 37,40 36.6,50c-1,20.7 -11,31.6 -27,33c-17,1.6 -35.5,-5 -41,-21.3c-2,-5.5 -2.5,-11 -1.7,-16.6c0.5,-4 -0.8,-8 -4,-10.6c-6,-4.4 -14.6,-1 -16.4,6c-2.8,11 -3.6,23.5 -0,35c11,39 51.5,61.6 90.5,50.6c39,-11 55.4,-50 50.6,-90.5c-3,-25 -7,-46 -11.5,-63.3c-4,-23.7 -19.8,-58 -19.8,-96c0,-17 3,-33.8 7,-49c6,-23 11.5,-46 16,-69L346,125z" stroke="#000000" stroke-width="12.0" id="path_0"/><path fill="#c9171d" d="M369.4,175.3l-90,39.3c2,9 3,18.8 3,28.7c0,9.8 -1,19.4 -3,28.7l90,39.3c12,-19.8 19,-43 19,-68S381.6,195 369.4,175.3z" stroke="#000000" stroke-width="12.0" id="path_1"/></svg>