<svg id="vector" xmlns="http://www.w3.org/2000/svg" width="24.0d" height="24.0d" viewBox="0 0 512.0 512.0"><path fill="#497285" d="m26,413h460v30h-460z" stroke="#000000" stroke-width="16.0" id="path_0"/><path fill="#f1f1f1" d="m489.5,383h-467c-8,0 -15,6.7 -15,15 0,8 6.7,15 15,15h467c8,0 15,-6.7 15,-15 0,-8 -6.7,-15 -15,-15z" stroke="#000000" stroke-width="16.0" id="path_1"/><path fill="#ffde5c" d="m460.5,141v242h-154v-140c0,-11 -9,-20 -20,-20h-80c-8.7,0 -16.5,5.7 -19,14l-15,49.7c-2.5,8 -10,14 -19,14h-81c-11,0 -20,-9 -20,-20v-164c0,-26.5 21.4,-48 48,-48h289c39.7,0 72,32 72,72z" stroke="#000000" stroke-width="16.0" id="path_2"/><path fill="#f1f1f1" d="m486.5,256.5h-26v-87h26c4.4,0 8,3.5 8,7.9v71c0,4.4 -3.5,8 -8,8z" stroke="#000000" stroke-width="16.0" id="path_3"/><path fill="#ff8724" d="M381.5,159.5m-35,0a35,35 0,1 1,70 0a35,35 0,1 1,-70 0" stroke="#000000" stroke-width="12.0" id="path_4"/><path fill="#f1f1f1" d="M381.5,266.5m-18,0a18,18 0,1 1,36 0a18,18 0,1 1,-36 0" stroke="#000000" stroke-width="12.0" id="path_5"/><path fill="none" d="M100,300v40" stroke-linecap="round" stroke="#000000" stroke-width="12.0" id="path_6"/></svg>