<svg id="vector" xmlns="http://www.w3.org/2000/svg" width="24.0d" height="24.0d" viewBox="0 0 504.0 504.0"><path fill="#a7bdcd" d="m472,26h-178c-33,0 -64,7 -93,19 -24,10 -52,9 -76,-2 -18,-9 -38,-16 -59,-21l-52,-13 76,140c-17,32 -26,68 -26,107 0,73 36,139 91,180 9,6 16,15 20,26l12,29c8,-46 44,-95 89,-144l-98,38c-9,3 -20,-0 -25,-9 -15,-29 -3,-66 28,-80 36,-16 95,-41 120,-52 85,-37 154,-106 190,-192 5,-13 -4,-27 -18,-27z" stroke="#000000" stroke-width="12.0" id="path_0"/><path fill="#ffffff" d="m307,244c30,15 56,36 78,61 7,8 -2,21 -12,15 -39,-22 -82,-38 -128,-49 -22,9 -46,20 -64,28 -32,14 -43,51 -28,80 4,9 15,12 25,9l98,-38c-44,49 -80,97 -89,144l-12,-29c-4,-10 -11,-19 -20,-26 -5,-4 -11,-9 -16,-14 -0,-0 -0,-0 -0,-0 -29,-27 -42,-68 -32,-107 0,0 7,-28 7,-29 2,-10 6,-20 9,-30 -27,0 -55,3 -82,8 -11,2 -16,-13 -6,-18 10,-5 20,-10 31,-15 25,-10 52,-17 81,-20 48,-76 133,-124 227,-124h102c-37,68 -96,123 -167,156z" stroke="#000000" stroke-width="12.0" id="path_1"/></svg>