<svg id="vector" xmlns="http://www.w3.org/2000/svg" width="24.0d" height="24.0d" viewBox="0 0 512.0 512.0"><path fill="#5c6670" d="M152,372h25v46h-25z" id="path_0"/><path fill="#2d3740" d="M152,418h25v10h-25z" id="path_1"/><path fill="#c8c9c9" d="M129,305c0,-20 16,-36 36,-36c20,0 36,16 36,36v43c0,20 -16,36 -36,36c-20,0 -36,-16 -36,-36V305z" stroke="#000000" stroke-width="12.0" id="path_2"/><path fill="#5c6670" d="M332,372h25v46h-25z" id="path_3"/><path fill="#2d3740" d="M332,418h25v10h-25z" id="path_4"/><path fill="#c8c9c9" d="M309,305c0,-20 16,-36 36,-36s36,16 36,36v43c0,20 -16,36 -36,36s-36,-16 -36,-36V305z" stroke="#000000" stroke-width="12.0" id="path_5"/><path fill="#7d868c" d="M107,372h25v46h-25z" id="path_6"/><path fill="#333e48" d="M107,418h25v10h-25z" id="path_7"/><path fill="#dadbdc" d="M83,305c0,-20 16,-36 36,-36s36,16 36,36v43c0,20 -16,36 -36,36s-36,-16 -36,-36C83,348 83,305 83,305z" stroke="#000000" stroke-width="12.0" id="path_8"/><path fill="#7d868c" d="M287,372h25v46h-25z" id="path_9"/><path fill="#333e48" d="M287,418h25v10h-25z" id="path_10"/><path fill="#dadbdc" d="M263,305c0,-20 16,-36 36,-36c20,0 36,16 36,36v43c0,20 -16,36 -36,36c-20,0 -36,-16 -36,-36L263,305L263,305z" stroke="#000000" stroke-width="12.0" id="path_11"/><path fill="#dadbdc" d="M428,255c0,-9 -4,-17 -10,-23c-1,-42 -23,-80 -58,-101c0,-1 0,-3 0,-4c0,-17 -14,-32 -32,-32c-2,0 -5,0 -8,1c-6,-6 -14,-11 -24,-11c-10,0 -19,4 -25,12c-9,-9 -23,-15 -38,-15c-12,0 -22,3 -31,10c-6,-6 -14,-10 -23,-10c-14,0 -26,9 -31,22c-7,-4 -16,-6 -25,-6c-19,0 -37,10 -46,26c-3,-2 -6,-3 -10,-3c-2,0 -4,0 -6,1c-2,-4 -7,-6 -13,-6c-5,0 -9,2 -12,5c-0,-0 -1,-0 -2,-0c-11,0 -19,9 -19,19c0,11 9,19 19,19c3,0 5,-0 8,-1c-2,4 -3,9 -3,14c-12,9 -19,25 -19,41c0,14 5,27 14,37c-2,6 -4,13 -4,21c0,27 21,50 48,54c21,18 49,30 80,30h1c4,1 8,2 13,2c4,0 9,-1 13,-2h10c10,9 24,15 39,15c15,0 29,-6 39,-15h27c19,0 37,-4 53,-12c3,0 7,1 11,1c30,0 54,-24 54,-54c0,-3 -0,-6 -0,-9C422,276 428,266 428,255z" stroke="#000000" stroke-width="12.0" id="path_12"/><path fill="#5c6670" d="M455,114c26,0 48,21 48,48c0,26 -21,48 -48,48h-57c-26,0 -48,-21 -48,-48c0,-26 21,-48 48,-48H455z" stroke="#000000" stroke-width="12.0" id="path_13"/><path fill="#dadbdc" d="M417,88c-6,0 -12,2 -16,6c-6,-8 -15,-13 -26,-13c-17,0 -32,14 -32,32c0,0 0,0 0,0c-26,3 -46,26 -46,53c0,30 24,54 54,54c4,0 9,-0 13,-1c3,7 11,13 20,13c12,0 23,-10 23,-23c0,-7 -3,-14 -8,-18c3,-7 6,-15 6,-24c0,-10 -3,-21 -8,-29c3,-2 5,-5 7,-9c3,3 8,4 14,4c12,0 23,-10 23,-23C440,98 430,88 417,88z" stroke="#000000" stroke-width="12.0" id="path_14"/><path fill="#1e252b" d="M370,149c-4,0 -8,3 -8,8v26c0,4 3,8 8,8s8,-3 8,-8V158C378,153 375,150 370,149zM433,144c-3,0 -6,2 -6,6s2,6 6,6c3,0 6,-2 6,-6C439,147 436,144 433,144z" id="path_15"/></svg>