<svg id="vector" xmlns="http://www.w3.org/2000/svg" width="24.0d" height="24.0d" viewBox="0 0 512.0 512.0"><path fill="#ff9b4b" d="M106,143c52,-17 101,-38 150,-64c47,25 98,47 150,64v65c0,35 -6,69 -19,100c-7,17 -17,34 -29,50c-6,8 -12,15 -19,23c-16,17 -54,48 -81,58c-26,-9 -64,-40 -81,-58c-7,-7 -13,-15 -19,-23c-12,-16 -21,-32 -29,-50c-13,-31 -19,-64 -19,-100L106,142L106,143zM46,98v110c0,207 180,293 210,293c29,0 209,-86 209,-293V98C395,79 322,48 256,10C189,48 120,78 46,98z" stroke="#000000" stroke-width="12.0" id="path_0"/><path fill="#ffba50" d="M256,78c-48,25 -98,47 -150,64v65c0,35 6,69 19,100l130,-130l130,130c13,-31 19,-64 19,-100v-65C354,126 303,104 256,78z" stroke="#000000" stroke-width="12.0" id="path_1"/><path fill="#ee4a4d" d="M256,178L125,309c7,17 17,34 29,50l101,-101l101,101c12,-16 21,-32 29,-50L256,178z" stroke="#000000" stroke-width="12.0" id="path_2"/><path fill="#ffba50" d="M256,258L155,359c6,8 12,15 19,23c16,17 54,48 81,58c26,-9 64,-40 81,-58c7,-7 13,-15 19,-23L256,258z" stroke="#000000" stroke-width="12.0" id="path_3"/><path fill="none" d="M256,44  h0M176,84  h0M93,115  h0M75,192  h0M84,280  h0M120,361 h0M179,427 h0M256,471 h0M335,84  h0M419,115 h0M436,192 h0M427,270 h0M392,361 h0M332,417 h0M256,148 h0M256,370 h0" stroke-linecap="round" stroke="#000000" stroke-width="16.0" id="path_4"/></svg>