<svg id="vector" xmlns="http://www.w3.org/2000/svg" width="24.0d" height="24.0d" viewBox="0 0 512.0 512.0"><path fill="#ffc66c" d="m157,430v-396c0,-13 -10,-24 -24,-24h-75c-26,0 -48,21 -48,48v396h123c13,0 24,-10 24,-24s-10,-24 -24,-24h-75c-26,0 -48,21 -48,48s21,48 48,48h336v-452h-237z" id="path_0"/><path fill="#72d8ff" d="m339,216 l-1,-1c-20,-31 -50,-54 -86,-65 -26,-8 -52,14 -46,42l15,80c4,24 32,37 54,24l60,-35" id="path_1"/><path fill="#ff5d5d" d="m332,262 l-57,33c-19,11 -24,36 -10,53 7,9 17,14 29,14h11c15,0 29,-9 34,-24l7,-19" id="path_2"/><path fill="#72d8ff" d="m367,216 l1,-1c20,-31 50,-54 86,-65 26,-8 52,14 46,42l-15,80c-4,24 -32,37 -54,24l-60,-35" id="path_3"/><path fill="#ff5d5d" d="m374,262 l57,33c19,11 24,36 10,53 -7,9 -17,14 -29,14h-11c-15,0 -29,-9 -34,-24l-7,-19" id="path_4"/><path fill="#ffffff" d="m353,322c-9,0 -17,-7 -17,-17v-77c0,-9 7,-17 17,-17 9,0 17,7 17,17v77c0,9 -7,17 -17,17z" id="path_5"/><path fill="#000000" d="m394,107c-2,0 -5,1 -7,3 -1,1 -3,4 -3,7 0,2 1,5 3,7 1,1 4,3 7,3 2,0 5,-1 7,-3 1,-1 3,-4 3,-7 0,-2 -1,-5 -3,-7 -1,-1 -4,-3 -7,-3z" id="path_6"/><path fill="#000000" d="m496,149c-12,-11 -29,-14 -44,-9 -35,10 -65,32 -87,62 -0,-0 -0,-0 -1,-0 1,-12 7,-24 18,-32 4,-3 5,-9 2,-14 -3,-4 -9,-5 -14,-2 -6,4 -12,10 -16,17 -4,-6 -10,-12 -16,-17 -4,-3 -10,-2 -14,2 -3,4 -2,10 2,14 10,7 17,19 18,32 -0,0 -0,0 -1,0 -21,-29 -52,-51 -87,-62 -15,-4 -32,-1 -44,9 -12,11 -17,27 -14,43l15,80c3,15 12,27 26,33 4,1 8,3 12,3 -1,2 -1,5 -2,8 -2,13 0,26 8,37 8,11 22,18 37,18h11c19,0 37,-12 43,-30l4,-11h0,0l4,11c4,12 14,22 26,27v121h-326c-21,0 -38,-17 -38,-38s17,-38 38,-38h75c7,0 14,6 14,14s-6,14 -14,14h-74c-5,0 -10,4 -10,10s4,10 10,10h74c18,0 34,-15 34,-34v-370h217v19c0,5 4,10 10,10s10,-4 10,-10v-29c0,-5 -4,-10 -10,-10h-227v-6c0,-18 -15,-34 -34,-34h-75c-32,0 -58,26 -58,58v396c0,32 26,58 58,58h336c5,0 10,-4 10,-10v-127h8c14,0 28,-6 37,-18 8,-10 11,-24 8,-37 -0,-2 -1,-5 -2,-8 4,-0 8,-1 12,-3 14,-6 23,-18 26,-33l15,-80c3,-16 -2,-32 -14,-43zM58,20h75c7,0 14,6 14,14v365c-4,-2 -9,-3 -14,-3h-75c-14,0 -27,5 -38,14v-352c0,-21 17,-38 38,-38zM346,227c0,-4 3,-7 7,-7s7,3 7,7v77c0,4 -3,7 -7,7s-7,-3 -7,-7zM231,269 L215,189c-1,-9 1,-18 8,-24 7,-6 16,-8 25,-5 32,9 59,30 78,57 -1,3 -2,6 -2,10v28l-55,32c-0,0 -0,0 -0,0 -7,4 -16,4 -24,1 -8,-3 -13,-10 -15,-19zM330,336c-3,10 -13,17 -25,17h-11c-8,0 -16,-4 -21,-10 -4,-6 -6,-13 -5,-21 1,-7 6,-14 12,-17 0,-0 0,-0 0,-0l45,-26v26c0,8 3,15 8,20zM433,343c-5,6 -13,10 -21,10h-11c-11,0 -21,-7 -25,-17l-4,-12c5,-5 8,-12 8,-20v-26l45,26c0,0 0,0 0,0 6,3 11,10 12,17 1,7 -0,15 -5,21zM491,189 L475,269c-1,8 -7,15 -15,19 -8,3 -16,3 -24,-1 -0,-0 -0,-0 -0,-0l-55,-32v-28c0,-3 -0,-7 -2,-10 19,-27 46,-48 78,-57 9,-2 18,-0 25,5 7,6 10,15 8,24z" id="path_7"/></svg>