<svg id="vector" xmlns="http://www.w3.org/2000/svg" width="24.0d" height="24.0d" viewBox="0 0 512.0 512.0"><path fill="#6c7a88" d="m410,29v450c0,17 -13,31 -31,30h-247c-17,0 -31,-13 -31,-30v-450c0,-17 13,-31 31,-30h247c17,0 31,13 31,31zM410,29" id="path_0"/><path fill="#596775" d="m132,511h247c17,0 31,-13 31,-30v-450c0,-11 -6,-21 -15,-26 -9,5 -15,15 -15,26v450h-247c-11,0 -21,6 -26,15 5,9 15,15 26,15zM132,511" id="path_1"/><path fill="#fff9eb" d="m206,162c-2,-6 -8,-10 -14,-10 -6,0 -12,4 -14,10l-43,115c-3,8 1,16 9,19 8,3 16,-1 19,-9l5,-13h47l5,13c2,6 8,10 14,10 1,0 3,-0 5,-1 8,-3 12,-11 9,-19zM179,245 L191,212 204,245z" id="path_2"/><path fill="#fff9eb" d="m364,187c-6,0 -11,3 -14,9 -9,-5 -20,-9 -32,-9 -34,0 -61,27 -61,61 0,34 27,61 61,61 11,0 21,-3 30,-8 -0,13 -11,23 -24,23h-6c-8,0 -15,7 -15,15s7,15 15,15h6c30,0 55,-24 55,-55v-99c0,-8 -7,-15 -15,-13zM317,280c-17,0 -31,-13 -31,-31 0,-17 13,-31 31,-31 17,0 31,13 31,31 0,17 -13,31 -31,31z" id="path_3"/><path fill="#fff9eb" d="m184,71c0,4 -3,7 -7,7h-1c0,4 -3,7 -7,7s-7,-3 -7,-7h-19c-2,0 -5,-1 -6,-4 -1,-2 -1,-5 0,-8l27,-38c2,-2 5,-4 8,-2 3,1 5,4 5,7v30h1c4,-0 7,3 7,7zM159,56 L155,63h4z" id="path_4"/><path fill="#fff9eb" d="m229,34 l-11,46c-0,3 -4,5 -7,5 -0,0 -1,-0 -1,-0 -4,-1 -6,-5 -5,-9l9,-36h-12c-4,0 -7,-3 -7,-7 0,-4 3,-7 7,-7h22c2,0 4,1 6,3 1,1 2,4 -1,6z" id="path_5"/></svg>