<svg id="vector" xmlns="http://www.w3.org/2000/svg" width="24.0d" height="24.0d" viewBox="0 0 512.0 512.0"><path fill="#ff6b6b" d="m41,469c-41,-41 -41,-108 0,-150l279,-279c41,-41 108,-41 149,0 41,41 41,108 0,150l-279,279c-41,41 -108,41 -149,0z" stroke="#000000" stroke-width="12.0" id="path_0"/><path fill="#feec76" d="M398,272 l-19,-19c-5,-5 -5,-13 0,-18l49,-49c5,-5 13,-5 18,0l19,19c5,5 5,13 0,18l-49,49c-5,5 -13,5 -18,0zM258,132 l-19,-19c-5,-5 -5,-13 0,-18l49,-49c5,-5 13,-5 18,0l19,19c5,5 5,13 0,18l-49,49c-5,5 -13,5 -18,0z" stroke="#000000" stroke-width="12.0" id="path_1"/><path fill="#ffffff" d="M199,413 l-102,-102 22,-22 102,102zM392,221 l-102,-102 22,-22 102,102z" stroke="#000000" stroke-width="12.0" id="path_2"/><path fill="#feec76" d="M205,465 l-19,-19c-5,-5 -5,-13 0,-18l49,-49c5,-5 13,-5 18,0l19,19c5,5 5,13 0,18l-49,49c-5,5 -13,5 -18,0zM65,325 l-19,-19c-5,-5 -5,-13 0,-18l49,-49c5,-5 13,-5 18,0l19,19c5,5 5,13 0,18l-49,49c-5,5 -13,5 -18,0z5" stroke="#000000" stroke-width="12.0" id="path_3"/></svg>