<svg id="vector" xmlns="http://www.w3.org/2000/svg" width="24.0d" height="24.0d" viewBox="0 0 512.0 512.0"><path fill="#eac89f" d="m239.9,231.9h32v64h-32z" id="path_0"/><path fill="#f4dbb3" d="m440.3,504.5h-32v-184.3c0,-8.8 7,-16 16,-16 8.8,0 16,7 16,16v184.3z" id="path_1"/><path fill="#f4dbb3" d="m103.6,504.5h-32v-184.3c0,-8.8 7,-16 16,-16 8.8,0 16,7 16,16v184.3z" id="path_2"/><path fill="#f4dbb3" d="m239.9,424.3h32v56h-32z" id="path_3"/><path fill="#f4dbb3" d="m167.8,159.8v32c0,30.9 25,56 56,56h64c30.9,0 56,-25 56,-56v-32z" id="path_4"/><path fill="#f5ebcd" d="m254.2,7.5c-52.9,0.9 -94.3,46.4 -94.3,99.3v44.9c0,13.2 10.7,24 24,24h32v8c0,4.4 3.5,8 8,8h64c4.4,0 8,-3.5 8,-8v-8h32c13.2,0 24,-10.7 24,-24v-48.1c0,-53.7 -44,-97 -98,-96z" id="path_5"/><path fill="#f5ebcd" d="m344,504.5h-176.3c-8.8,0 -16,-7 -16,-16 0,-8.8 7,-16 16,-16h176.3c8.8,0 16,7 16,16 0,8.8 -7,16 -16,16z" id="path_6"/><path fill="#f5ebcd" d="m404,280h-296.3c-11,0 -20,9 -20,20 0,13.7 13.4,23.4 26.5,19l9.2,-3c8,-2.7 16.7,-4 25.3,-4h91.2v32h-88c-8.8,0 -16,7 -16,16s7,16 16,16h88v32h-80.7c-8.5,0 -15.4,6.9 -15.4,15.4v1c0,8.5 6.9,15.4 15.4,15.4h193.4c8.5,0 15.4,-6.9 15.4,-15.4v-1c0,-8.5 -6.9,-15.4 -15.4,-15.4h-80.7v-32h88c8.8,0 16,-7 16,-16 0,-8.8 -7,-16 -16,-16h-88v-32h91.2c8.6,0 17,1.3 25.3,4l9.2,3c13,4.3 26.5,-5.3 26.5,-19 0,-11 -9,-20 -20,-20z" id="path_7"/><path fill="#d2af8c" d="M215.9,119.7m-24,0a24,24 0,1 1,48.1 0a24,24 0,1 1,-48.1 0" stroke="#000000" stroke-width="16.0" id="path_8"/><path fill="#d2af8c" d="M296,119.7m-24,0a24,24 0,1 1,48.1 0a24,24 0,1 1,-48.1 0" stroke="#000000" stroke-width="16.0" id="path_9"/><path fill="#000000" d="m256,167.3c4,0 7.5,-3.3 7.5,-7.5v-8c0,-4 -3.3,-7.5 -7.5,-7.5s-7.5,3.3 -7.5,7.5v8c0,4 3.3,7.5 7.5,7.5z" id="path_10"/><path fill="#000000" d="m431.7,297.7c-1.2,-14 -13.1,-25.2 -27.5,-25.2h-124.6v-17h8.5c35,0 63.6,-28.5 63.6,-63.6v-19.1c4.9,-5.5 8,-12.9 8,-20.9v-48.1c0,-57 -46.5,-103.6 -103.6,-103.6s-103.6,46.5 -103.6,103.6v48.1c0,8 3,15.4 8,20.9v19.1c0,35 28.5,63.6 63.6,63.6h8.5v17h-124.6c-14.4,0 -26.3,11 -27.5,25.2 -9.3,3 -16,11.9 -16,22.3v184.3c0,4 3.3,7.5 7.5,7.5s7.5,-3.3 7.5,-7.5v-184.3c0,-3 1.6,-5.7 4,-7.2 1.9,3.8 4.8,7 8.4,9.7 1.4,1 2.9,1.9 4.5,2.6v179.2c0,4 3.3,7.5 7.5,7.5s7.5,-3.3 7.5,-7.5v-176.8c1.7,-0.2 3.5,-0.6 5.3,-1.2l9.2,-3c7.4,-2.4 15,-3.7 22.9,-3.7h3c4,0 7.5,-3.3 7.5,-7.5s-3.3,-7.5 -7.5,-7.5h-3c-9.4,0 -18.7,1.5 -27.7,4.5l-9.2,3c-3.9,1.3 -8,0.6 -11.3,-1.7s-5.2,-6 -5.2,-10.2c0,-6.9 5.6,-12.6 12.6,-12.6h296.3c6.9,0 12.6,5.6 12.6,12.6 0,4 -1.9,7.8 -5.2,10.2 -3.3,2.4 -7.4,3 -11.3,1.7l-9.2,-3c-8.9,-2.9 -18.2,-4.5 -27.7,-4.5h-91.2c-4,0 -7.5,3.3 -7.5,7.5v32c0,4 3.3,7.5 7.5,7.5h88c4.7,0 8.5,3.8 8.5,8.5s-3.8,8.5 -8.5,8.5h-88c-4,0 -7.5,3.3 -7.5,7.5v32c0,4 3.3,7.5 7.5,7.5h80.7c4.4,0 7.9,3.5 7.9,7.9v1c0,4.4 -3.5,7.9 -7.9,7.9h-193.4c-4.4,0 -7.9,-3.5 -7.9,-7.9v-1c0,-4.4 3.5,-7.9 7.9,-7.9h80.7c4,0 7.5,-3.3 7.5,-7.5v-32c0,-4 -3.3,-7.5 -7.5,-7.5h-88c-4.7,0 -8.5,-3.8 -8.5,-8.5s3.8,-8.5 8.5,-8.5h88c4,0 7.5,-3.3 7.5,-7.5v-32c0,-4 -3.3,-7.5 -7.5,-7.5h-56c-4,0 -7.5,3.3 -7.5,7.5s3.3,7.5 7.5,7.5h48.6v17h-80.6c-12.9,0 -23.5,10.5 -23.5,23.5s10.5,23.5 23.5,23.5h80.6v17h-73.2c-12.6,0 -22.9,10.3 -22.9,22.9v1c0,12.6 10.3,22.9 22.9,22.9h73.2v17h-64.6c-12.9,0 -23.5,10.5 -23.5,23.5s10.5,23.5 23.5,23.5h176.3c12.9,0 23.5,-10.5 23.5,-23.5s-10.5,-23.5 -23.5,-23.5h-64.6v-17h73.2c12.6,0 22.9,-10.3 22.9,-22.9v-1c0,-12.6 -10.3,-22.9 -22.9,-22.9h-73.2v-17h80.6c12.9,0 23.5,-10.5 23.5,-23.5s-10.5,-23.5 -23.5,-23.5h-80.6v-17h83.7c7.8,0 15.5,1.2 22.9,3.7l9.2,3c1.7,0.5 3.5,0.9 5.3,1.2v176.8c0,4 3.3,7.5 7.5,7.5s7.5,-3.3 7.5,-7.5v-179.2c1.5,-0.7 3.1,-1.6 4.5,-2.6 3.6,-2.6 6.4,-5.9 8.4,-9.7 2.4,1.5 4,4 4,7.2v184.3c0,4 3.3,7.5 7.5,7.5s7.5,-3.3 7.5,-7.5v-184.3c0,-10.4 -6.7,-19.2 -16,-22.3zM167.3,103.6c0,-48.9 39.7,-88.6 88.6,-88.6s88.6,39.7 88.6,88.6v48.1c0,9 -7.4,16.5 -16.5,16.5h-32c-4,0 -7.5,3.3 -7.5,7.5v8.5h-65v-8.5c0,-4 -3.3,-7.5 -7.5,-7.5h-32c-9,0 -16.5,-7.4 -16.5,-16.5v-48.1zM175.3,191.8v-9.7c2.7,0.7 5.5,1 8.5,1h24.5v8.5,16c0,4 3.3,7.5 7.5,7.5s7.5,-3.3 7.5,-7.5v-8.5h65v8.5c0,4 3.3,7.5 7.5,7.5s7.5,-3.3 7.5,-7.5v-16,-8.5h24.5c2.9,0 5.8,-0.4 8.5,-1v9.7c0,26.8 -21.8,48.6 -48.6,48.6h-64c-26.8,0 -48.6,-21.8 -48.6,-48.6zM247.4,255.4h17v17h-17zM352.7,488.4c0,4.7 -3.8,8.5 -8.5,8.5h-176.3c-4.7,0 -8.5,-3.8 -8.5,-8.5s3.8,-8.5 8.5,-8.5h176.3c4.7,0 8.5,3.8 8.5,8.5zM264.5,464.9h-17v-17h17z" id="path_11"/></svg>