<svg id="vector" xmlns="http://www.w3.org/2000/svg" width="24.0d" height="24.0d" viewBox="0 0 512.0 512.0"><path fill="#e6dacf" d="m476,220c0,-115 -89,-210 -203,-219l-17,9 -20,263 20,239c63,0 98,-21 98,-21v-36c63,0 114,-51 114,-114 0,-14 -2,-28 -7,-40 9,-24 14,-51 14,-78z" id="path_0"/><path fill="#f2eee6" d="m35,220c0,27 5,54 14,78 -4,12 -7,26 -7,40 0,63 51,114 114,114v36s35,21 98,21v-502l-17,-9c-113,9 -202,103 -202,219z" id="path_1"/><path fill="#1f3c59" d="M241,411h30v42h-30zM161,390c-30,0 -55,-24 -55,-55 0,-26 19,-49 45,-54l17,-3c29,-5 54,20 49,49l-3,17c-4,26 -27,45 -54,45z" id="path_2"/><path fill="#0a2533" d="m350,390c30,0 55,-24 55,-55 0,-26 -19,-49 -45,-54l-17,-3c-29,-5 -54,20 -49,49l3,17c4,26 27,45 54,45z" id="path_3"/><path fill="#d9c9b9" d="m274,137 l-31,46 24,16 49,-72 -88,-52 43,-75c-5,-0 -11,-0 -17,-0 -6,0 -11,0 -17,0l-49,85z" id="path_4"/></svg>