<svg id="vector" xmlns="http://www.w3.org/2000/svg" width="24.0d" height="24.0d" viewBox="0 0 512.0 512.0"><path fill="#cbbba0" d="M352,504l0,-496l-192,0l0,496" stroke="#000000" stroke-width="12.0" id="path_0"/><path fill="#ed7149" d="M159,472h192v32h-192z" stroke="#000000" stroke-width="12.0" id="path_1"/><path fill="#f9b233" d="M239,456h32v48h-32z" stroke="#000000" stroke-width="12.0" id="path_2"/><path fill="#ffffff" d="M184,31h15v24h-15zM216,31h15v24h-15zM248,31h15v24h-15zM280,31h15v24h-15zM312,31h15v24h-15zM184,71h15v24h-15zM216,71h15v24h-15zM248,71h15v24h-15zM280,71h15v24h-15zM312,71h15v24h-15zM184,111h15v24h-15zM216,111h15v24h-15zM248,111h15v24h-15zM280,111h15v24h-15zM312,111h15v24h-15zM184,151h15v24h-15zM216,151h15v24h-15zM248,151h15v24h-15zM280,151h15v24h-15zM312,151h15v24h-15zM184,191h15v24h-15zM216,191h15v24h-15zM248,191h15v24h-15zM280,191h15v24h-15zM312,191h15v24h-15zM184,231h15v24h-15zM216,231h15v24h-15zM248,231h15v24h-15zM280,231h15v24h-15zM312,231h15v24h-15zM184,272h15v24h-15zM216,272h15v24h-15zM248,272h15v24h-15zM280,272h15v24h-15zM312,272h15v24h-15zM184,312h15v24h-15zM216,312h15v24h-15zM248,312h15v24h-15zM280,312h15v24h-15zM312,312h15v24h-15zM184,352h15v24h-15zM216,352h15v24h-15zM248,352h15v24h-15zM280,352h15v24h-15zM312,352h15v24h-15zM184,392h15v24h-15zM216,392h15v24h-15zM248,392h15v24h-15zM280,392h15v24h-15zM312,392h15v24h-15z" id="path_3"/></svg>