<svg id="vector" xmlns="http://www.w3.org/2000/svg" width="24.0d" height="24.0d" viewBox="0 0 512.0 512.0"><path fill="#eec06b" d="m331,282c-93,0 -170,-75 -170,-169 -0,-24 4,-47 13,-67 4,-10 -7,-21 -17,-15 -58,34 -98,98 -98,171 -1,111 90,203 201,203 91,0 167,-60 192,-143 3,-11 -9,-20 -19,-13 -28,21 -63,34 -102,34z" stroke="#000000" stroke-width="16.0" id="path_0"/><path fill="#ddebfd" d="m209,230c5,5 11,10 17,15 11,8 17,21 17,35v208c0,7 6,14 14,14h35c28,0 51,-23 51,-51v-13h17c21,0 38,-17 38,-38v-78c0,-41 -33,-74 -74,-74h-31v-2c0,-22 -22,-38 -43,-30z" stroke="#000000" stroke-width="16.0" id="path_1"/><path fill="#000000" d="m298,121c0,4 3,7 7,7h19l-23,37c-2,3 -2,7 -0,10 1,3 5,5 8,5h28c4,0 7,-3 7,-7s-3,-7 -7,-7h-19l23,-37c2,-3 2,-7 0,-10s-5,-5 -8,-5h-28c-4,-0 -7,3 -7,7z" id="path_2"/><path fill="#000000" d="m263,15h19l-23,37c-2,3 -2,7 -0,10 1,3 5,5 8,5h28c4,0 7,-3 7,-7s-3,-7 -7,-7h-19l23,-37c2,-3 2,-7 0,-10s-5,-5 -8,-5h-28c-4,0 -7,3 -7,7s3,7 7,7z" id="path_3"/><path fill="#000000" d="m394,65h19l-23,37c-2,3 -2,7 -0,10s5,5 8,5h28c4,0 7,-3 7,-7s-3,-7 -7,-7h-19l23,-37c2,-3 2,-7 0,-10s-5,-5 -8,-5h-28c-4,0 -7,3 -7,7s3,7 7,7z" id="path_4"/></svg>