<svg id="vector" xmlns="http://www.w3.org/2000/svg" width="24.0d" height="24.0d" viewBox="0 0 512.0 512.0"><path fill="#404242" d="m383,0h-30v497h30c16,0 30,-13 30,-30v-437c0,-16 -13,-30 -30,-30z" id="path_0"/><path fill="#565959" d="m353,0h-240c-16,0 -30,13 -30,30v437c0,16 13,30 30,30h240c16,0 30,-13 30,-30v-60l-90,-188 90,-188c0,-16 -13,-30 -30,-30z" id="path_1"/><path fill="#8f8f8b" d="m278,437h-30v30h30c8,0 15,-6 15,-15s-6,-15 -15,-15z" id="path_2"/><path fill="#adaca7" d="m263,452c0,-8 -6,-15 -15,-15h-30c-8,0 -15,6 -15,15s6,15 15,15h30c8,0 15,-6 15,-15z" id="path_3"/><path fill="#4b88d5" d="m248,218 l105,188h30v-377h-30z" id="path_4"/><path fill="#69a7ff" d="m291,30 l-21,21c-5,5 -13,8 -21,8s-15,-3 -21,-8c-0,0 -21,-21 -21,-21h-92v377h240v-377z" id="path_5"/><path fill="#404242" d="M248,30m-6,0a6,6 0,1 1,12 0a6,6 0,1 1,-12 0" id="path_6"/></svg>