<svg id="vector" xmlns="http://www.w3.org/2000/svg" width="24.0d" height="24.0d" viewBox="0 0 512.0 512.0"><path fill="#dd8858" d="m176,339c32,41 183,44 247,65 152,-119 70,-367 -108,-368 -101,-0 -163,56 -195,96 32,46 21,161 56,206z" stroke="#000000" stroke-width="12.0" id="path_0"/><path fill="#aee295" d="m83,113c-91,0 -104,279 -8,331 102,55 375,29 376,-16 1,-45 -234,-36 -275,-88 -44,-56 -15,-226 -92,-226z" stroke="#000000" stroke-width="12.0" id="path_1"/><path fill="none" d="M226,250 c-20,33 -10,66 24,120 M240,220 c55,-30 120,-30 132,40 c10,40 -60,100 -88,20 M62,110l-8-40 M92,110l8-40" stroke-linecap="round" stroke="#000000" stroke-width="16.0" id="path_2"/><path fill="#000000" d="m75,193c8,0 15,-8 15,-19 0,-10 -6,-19 -15,-19 -8,0 -15,8 -15,19 0,10 6,19 15,19z" id="path_3"/></svg>