<svg id="vector" xmlns="http://www.w3.org/2000/svg" width="24.0d" height="24.0d" viewBox="0 0 512.0 512.0"><path fill="none" d="M84,380 l-42,-42 m0,44 l42,-42M204,380 l-42,-42 m0,44 l42,-42M144,480 l-42,-42 m0,44 l42,-42" stroke="#58c4fe" stroke-width="24.0" id="path_0"/><path fill="none" d="M344,380 l-42,-42 m0,44 l42,-42M464,380 l-42,-42 m0,44 l42,-42M404,480 l-42,-42 m0,44 l42,-42" stroke="#218ed2" stroke-width="24.0" id="path_1"/><path fill="#cceaf2" d="m512,219c0,40 -32,73 -73,73h-36c-16,22 -43,37 -73,37s-56,-14 -73,-36h-146c-60,0 -109,-49 -109,-109 0,-59 47,-108 106,-109 15,-42 55,-73 103,-73 16,0 32,3 46,10 19,9 36,24 47,42l-2,19 14,8c10,-4 22,-7 35,-7 44,0 81,31 89,73 39,1 71,33 71,73z" id="path_2"/></svg>