<svg id="vector" xmlns="http://www.w3.org/2000/svg" width="24.0d" height="24.0d" viewBox="0 0 512.0 512.0"><path fill="#ffd772" d="m319,130c0,-35 -28,-63 -63,-63s-63,28 -63,63c0,15 5,28 14,39l49,24 49,-24c8,-10 14,-24 14,-39z" stroke="#000000" stroke-width="12.0" id="path_0"/><path fill="#a1d4ff" d="m256,170 l-192,-0c-8,0 -14,6 -16,13l-29,161h238,238l-29,-161c-1,-7 -8,-13 -16,-13z" stroke="#000000" stroke-width="12.0" id="path_1"/><path fill="#375e7d" d="M281,386 l-25,-14 -25,14 0,41 26,12 25,-12zM321,464h-130,-21c-10,0 -19,8 -19,19v16c0,2 2,4 4,4h202c2,0 4,-2 4,-4v-16c0,-10 -8,-19 -19,-19z" stroke="#000000" stroke-width="12.0" id="path_2"/><path fill="#f9f7f8" d="M281,427h-51,-21c-9,0 -17,8 -17,17v19l67,14 63,-14v-19c0,-9 -8,-17 -17,-17zM256,344h-238l-3,19c-2,12 6,21 19,21h443c12,0 21,-8 19,-21l-3,-19h-194z" stroke="#000000" stroke-width="12.0" id="path_3"/><path fill="none" d="M133,138h27M344,134h27M324,070l19,-19M183,068l-19,-19M256,042v-27" stroke-linecap="round" stroke="#000000" stroke-width="12.0" id="path_4"/><path fill="none" d="M40,228h432 M28,286h456 M158,174l-24,176 M352,174l24,176 M256,174v176" stroke="#000000" stroke-width="14.0" id="path_5"/></svg>