<svg id="vector" xmlns="http://www.w3.org/2000/svg" width="24.0d" height="24.0d" viewBox="0 0 512.0 512.0"><path fill="#f9d366" d="M284,405l6,-1c8,-1 8,-13 0,-15l-6,-1c-16,-3 -28,-15 -32,-32l-1,-6c-1,-8 -13,-8 -15,0l-1,6c-3,16 -15,28 -32,32l-6,1c-8,1 -8,13 0,15l6,1c16,3 28,15 32,32l1,6c1,8 13,8 15,0l1,-6C256,421 268,408 284,405z" id="path_0"/><path fill="none" d="M397,446v-21M397,502v-21M435,463h-21M379,463h-21M46,348v-21 M46,404v-21 M84,366h-21M8,366h21M398,46v-21M398,102v-21M436,64h-21M380,64h-21" stroke-linecap="round" stroke="#dd8833" stroke-width="12.0" id="path_1"/><path fill="#f9d366" d="M262,156l30,-6c14,-3 14,-23 0,-26l-30,-6c-30,-6 -53,-29 -59,-59l-6,-30c-3,-14 -23,-14 -26,0l-6,30c-6,30 -29,53 -59,59l-30,6c-14,3 -14,23 0,26l30,6c30,6 53,29 59,59l6,30c3,14 23,14 26,0l6,-30C208,186 232,162 262,156z" id="path_2"/><path fill="#f9d366" d="M480,262l23,-4c11,-2 11,-18 0,-20l-23,-4c-23,-4 -41,-22 -46,-46l-4,-23c-2,-11 -18,-11 -20,0l-4,23c-4,23 -22,41 -46,46l-23,4c-11,2 -11,18 0,20l23,4c23,4 41,22 46,46l4,23c2,11 18,11 20,0l4,-23C438,285 457,267 480,262z" id="path_3"/></svg>