<svg id="vector" xmlns="http://www.w3.org/2000/svg" width="24.0d" height="24.0d" viewBox="0 0 512.0 512.0"><path fill="#e27d23" d="M198,113h115v178h-115z" id="path_0"/><path fill="#f9963d" d="M380,306L380,306c-4,-12 -12,-22 -21,-28l-47,-6c-15,11 -34,18 -55,18s-40,-7 -55,-18l-47,6v-0c-8,5 -15,14 -20,24c-0,0 -0,0 -0,0v0c-0,0 -0,0 -0,0c-0,1 -1,2 -1,4l0,0l-35,98c13,0 312,0 320,0L380,306z" id="path_1"/><path fill="#f2902f" d="M226,319c0,-11 1,-22 4,-33c-11,-3 -21,-8 -30,-15l-47,6v-0c-8,5 -15,14 -20,24c-0,0 -0,0 -0,0v0c-0,0 -0,0 -0,0c-0,1 -1,2 -1,4l0,0l-35,98c25,0 140,0 163,0C239,382 226,352 226,319z" id="path_2"/><path fill="#e27d23" d="M285,403v-26c0,-8 -7,-15 -15,-15h-27c-8,0 -15,7 -15,15v26H285z" id="path_3"/><path fill="#d16b18" d="M270,361c-1,-0 -13,-0 -28,-0c-8,0 -15,7 -15,15v26h28v-26C255,369 262,362 270,361z" id="path_4"/><path fill="#fcc163" d="M388,176l-1,-2l0,0c-2,-6 -46,-117 -47,-118c-4,-12 -16,-15 -21,-16c-61,-7 -44,-5 -48,-5h-28c-4,0 -41,4 -48,5c-5,0 -16,4 -21,16c-0,1 -46,117 -47,118c-3,7 -3,18 5,29c9,12 16,20 23,29v81v0c0,1 0,23 15,29c1,0 2,0 3,1l1,0c2,1 4,1 6,2l1,0c0,0 0,0 0,0l0,0c0,0 0,0 0,0l0,0c0,0 0,0 1,0l0,0c0,0 0,0 0,0l0,0c0,0 0,0 0,0l0,0l0,0l0,0l0,0c2,0 16,5 16,-17V192v-0v-61c0,-8 7,-15 15,-15c9,0 15,0 26,0c20,0 35,0 43,0h10c8,0 15,7 15,15v61v0v138c0,12 4,21 16,17l0,0c0,-0 14,-5 15,-6c11,-4 15,-18 15,-29v-81c0,-0 22,-27 22,-28C381,203 393,191 388,176z" id="path_5"/><path fill="#f6b138" d="M171,57c-16,41 -29,72 -46,116c-3,7 -3,18 5,29c0,0 22,28 23,29v81v0c0,1 0,23 15,29c1,0 2,0 3,1l1,0c2,1 4,1 6,2l1,0c0,0 0,0 0,0l0,0c0,0 0,0 0,0l0,0c0,0 0,0 1,0l0,0c0,0 0,0 0,0l0,0c0,0 0,0 0,0l0,0l0,0l0,0l0,0c0,0 1,0 2,0c-4,-6 -5,-14 -6,-21v-91c0,-9 -7,-16 -22,-35c-0,-0 -11,-12 -6,-27l1,-2l0,0c0,-0 0,-2 0,-1C200,49 197,45 207,37C197,39 179,37 171,57z" id="path_6"/><path fill="#f6b138" d="M420,403c-20,0 -312,0 -329,0c-8,0 -15,7 -15,15c0,14 0,28 0,43c228,0 121,0 361,0c0,-14 0,-28 0,-43C436,410 429,403 420,403z" id="path_7"/><path fill="#eda024" d="M420,432c-235,0 -122,0 -329,0c-8,0 -15,7 -15,15c0,6 0,9 0,14c228,0 121,0 361,0c0,-4 0,-7 0,-14C436,439 429,432 420,432z" id="path_8"/><path fill="#fcc163" d="M496,441H374c-8,0 -15,7 -15,15v30c0,6 5,12 12,12h128c6,0 12,-5 12,-12v-30C512,448 505,441 496,441z" id="path_9"/><path fill="#fcc163" d="M137,441H15C7,441 0,448 0,457v30c0,6 5,12 12,12h128c6,0 12,-5 12,-12v-30C153,448 146,441 137,441z" id="path_10"/><path fill="#f6b138" d="M385,487v-30c0,-8 7,-15 15,-15h-26c-8,0 -15,7 -15,15v30c0,6 5,12 12,12h26C390,500 385,494 385,488z" id="path_11"/><path fill="#f6b138" d="M26,487v-30c0,-8 7,-15 15,-15H15C7,441 0,448 0,457v30c0,6 5,12 12,12h26C31,500 26,494 26,488z" id="path_12"/><path fill="#f2902f" d="M200,147c-15,-7 -33,4 -33,21c0,13 10,23 23,23c3,0 6,-0 9,-2v-43H200z" id="path_13"/><path fill="#f2902f" d="M311,147c3,-1 6,-2 9,-2c13,0 23,10 23,23c0,13 -10,23 -23,23c-3,0 -6,-0 -9,-2V147z" id="path_14"/><path fill="#e57b1c" d="M169,159c-8,19 11,39 31,30v-18c-3,1 -6,2 -9,2C181,174 172,168 169,159z" id="path_15"/><path fill="#e57b1c" d="M321,174c-3,0 -6,-0 -9,-2v18c3,1 6,2 9,2c17,0 28,-17 21,-32C339,168 331,174 321,174z" id="path_16"/><path fill="#fca054" d="M296,115h-79c-8,0 -15,7 -15,15v61c0,21 17,39 39,39h32c21,0 39,-17 39,-39v-61C311,122 304,115 296,115z" id="path_17"/><path fill="#f9963d" d="M226,192v-61c0,-8 7,-15 15,-15H216c-8,0 -15,7 -15,15v61c0,21 17,39 39,39h25C243,232 226,214 226,192z" id="path_18"/><path fill="#e27d23" d="M311,150h-32c-4,0 -7,3 -7,7s3,7 7,7h32V150z" id="path_19"/><path fill="#e27d23" d="M232,150h-32v15h32c4,0 7,-3 7,-7C240,153 236,150 232,150z" id="path_20"/><path fill="#f2902f" d="M256,11c-7,0 -14,6 -14,14v89h28V25C270,18 263,11 256,11z" id="path_21"/><path fill="#e27d23" d="M263,13c-9,-5 -21,1 -21,12v89H256V25C256,20 258,16 263,13z" id="path_22"/></svg>