<svg id="vector" xmlns="http://www.w3.org/2000/svg" width="24.0d" height="24.0d" viewBox="0 0 512.0 512.0"><path fill="#ff9a9f" d="m164.8,272.5h91v-33h-91c-9,0 -16.5,7.4 -16.5,16.5 0,9 7.4,16.5 16.5,16.5z" stroke="#000000" stroke-width="12.0" id="path_0"/><path fill="#fbb1a6" d="m347,239.4h-91v33h91c9,0 16.5,-7.4 16.5,-16.5 -0,-9 -7.4,-16.5 -16.5,-16.5z" stroke="#000000" stroke-width="12.0" id="path_1"/><path fill="#f5cdb4" d="m297.4,206.3h-82.8c-13.7,0 -24.8,11 -24.8,24.8v49.7c0,13.7 11,24.8 24.8,24.8h82.8c13.7,0 24.8,-11 24.8,-24.8v-49.7c0,-13.7 -11,-24.8 -24.8,-24.8z" stroke="#000000" stroke-width="12.0" id="path_2"/><path fill="#eac89f" d="m164.8,173h91v-33h-91c-9,0 -16.5,7.4 -16.5,16.5 0,9 7.4,16.5 16.5,16.5z" stroke="#000000" stroke-width="12.0" id="path_3"/><path fill="#f4dbb3" d="m347,140h-91v33h91c9,0 16.5,-7.4 16.5,-16.5 -0,-9 -7.4,-16.5 -16.5,-16.5z" stroke="#000000" stroke-width="12.0" id="path_4"/><path fill="#f5ebcd" d="m297.4,106.9h-82.8c-13.7,0 -24.8,11 -24.8,24.8v49.7c0,13.7 11,24.8 24.8,24.8h82.8c13.7,0 24.8,-11 24.8,-24.8v-49.7c0,-13.7 -11,-24.8 -24.8,-24.8z" stroke="#000000" stroke-width="12.0" id="path_5"/><path fill="#eac89f" d="m164.8,73.7h91v-33h-91c-9,0 -16.5,7.4 -16.5,16.5 0,9 7.4,16.5 16.5,16.5z" stroke="#000000" stroke-width="12.0" id="path_6"/><path fill="#f4dbb3" d="m347,40.6h-91v33h91c9,0 16.5,-7.4 16.5,-16.5 -0,-9 -7.4,-16.5 -16.5,-16.5z" stroke="#000000" stroke-width="12.0" id="path_7"/><path fill="#f5ebcd" d="m297.4,7.5h-82.8c-13.7,0 -24.8,11 -24.8,24.8v49.7c0,13.7 11,24.8 24.8,24.8h82.8c13.7,0 24.8,-11 24.8,-24.8v-49.7c0,-13.7 -11,-24.8 -24.8,-24.8z" stroke="#000000" stroke-width="12.0" id="path_8"/><path fill="#eac89f" d="m164.8,471.3h91v-33h-91c-9,0 -16.5,7.4 -16.5,16.5 0,9 7.4,16.5 16.5,16.5z" stroke="#000000" stroke-width="12.0" id="path_9"/><path fill="#f4dbb3" d="M347,438h-91v33h91c9,0 16.5,-7.4 16.5,-16.5 -0,-9 -7.4,-16.5 -16.5,-16.5z" stroke="#000000" stroke-width="12.0" id="path_10"/><path fill="#f5ebcd" d="M297.4,405h-82.8c-13.7,0 -24.8,11 -24.8,24.8v49.7c0,13.7 11,24.8 24.8,24.8h82.8c13.7,0 24.8,-11 24.8,-24.8v-49.7c0,-13.7 -11,-24.8 -24.8,-24.8z" stroke="#000000" stroke-width="12.0" id="path_11"/><path fill="#eac89f" d="M164.8,371.9h91v-33h-91c-9,0 -16.5,7.4 -16.5,16.5 0,9 7.4,16.5 16.5,16.5z M347,338.8h-91v33h91c9,0 16.5,-7.4 16.5,-16.5 -0,-9 -7.4,-16.5 -16.5,-16.5z" stroke="#000000" stroke-width="12.0" id="path_12"/><path fill="#f5ebcd" d="m297.4,305.7h-82.8c-13.7,0 -24.8,11 -24.8,24.8v49.7c0,13.7 11,24.8 24.8,24.8h82.8c13.7,0 24.8,-11 24.8,-24.8v-49.7c0,-13.7 -11,-24.8 -24.8,-24.8z" stroke="#000000" stroke-width="12.0" id="path_13"/><path fill="none" d="M236,40 c0,40 40,40 40,0 M236,140 c0,40 40,40 40,0 M236,240 c0,40 40,40 40,0 M236,340 c0,40 40,40 40,0 M236,440 c0,40 40,40 40,0" stroke-linecap="round" stroke="#000000" stroke-width="16.0" id="path_14"/></svg>