<svg id="vector" xmlns="http://www.w3.org/2000/svg" width="24.0d" height="24.0d" viewBox="0 0 501.0 501.0"><path fill="#fa4759" d="m372,81c-78,-68 -258,46 -269,165 -9,100 55,215 167,191 155,-32 157,-306 101,-357z" stroke="#000000" stroke-width="16.0" id="path_0"/><path fill="#000000" d="m88,152c4,3 11,2 14,-2 8,-11 16,-21 26,-31 4,-4 4,-11 -0,-15s-11,-4 -15,0c-10,10 -19,21 -28,33 -3,4 -2,11 2,14 0,0 0,0 0,0z" id="path_1"/><path fill="#000000" d="m101,404c-3,-4 -9,-6 -14,-3s-6,9 -3,14c8,12 17,24 28,34 4,4 10,4 15,-0 4,-4 4,-10 -0,-15 -9,-9 -18,-19 -25,-31z" id="path_2"/><path fill="#000000" d="m65,308c-0,-5 -6,-9 -12,-9 -5,0 -9,6 -9,12 0,0 0,0 0,0 2,14 5,28 10,42 1,5 7,8 13,6s8,-7 6,-13c-4,-13 -7,-26 -9,-39z" id="path_3"/><path fill="#000000" d="m216,480c-13,-1 -25,-5 -38,-10 -5,-2 -11,0 -13,5 -2,5 0,11 5,13 13,5 28,9 43,11 0,0 1,0 1,0 5,-0 10,-4 10,-10 -0,-5 -4,-9 -9,-10v-0z" id="path_4"/><path fill="#000000" d="m172,78c2,0 4,-0 6,-2 11,-8 22,-15 34,-22 5,-2 7,-9 4,-14s-9,-7 -14,-4c-12,7 -25,14 -36,23 -4,3 -5,10 -2,14 2,2 5,4 8,4z" id="path_5"/><path fill="#000000" d="m373,25c12,3 23,9 33,18 4,3 11,3 14,-1 3,-4 3,-11 -1,-14 -12,-9 -25,-17 -40,-21 -5,-1 -11,1 -13,7 -1,5 1,11 6,13z" id="path_6"/><path fill="#000000" d="m434,125c0,5 5,9 10,9 0,0 1,-0 1,-0 5,-0 9,-6 9,-11 -1,-14 -4,-28 -8,-42 -1,-5 -7,-8 -13,-7 -5,1 -8,7 -7,12 3,13 6,26 7,40z" id="path_7"/><path fill="#000000" d="m269,30c1,-0 2,-0 3,-0 12,-4 26,-6 39,-8 5,-0 10,-6 9,-11s-6,-9 -11,-9c-14,1 -29,5 -43,9 -5,1 -8,7 -7,13 1,4 5,7 10,7z" id="path_8"/><path fill="#000000" d="m51,253c0,0 0,0 1,0 5,-0 10,-4 10,-9 1,-13 4,-26 9,-38 2,-5 -0,-11 -6,-13 -5,-2 -11,0 -13,6 -0,0 -0,0 -0,0 -5,14 -8,28 -10,43 -0,5 3,11 9,11z" id="path_9"/><path fill="#000000" d="m449,179h-0c-5,0 -10,4 -10,10 -0,13 -0,27 -1,41 -0,5 3,11 9,11 0,0 0,0 0,0 0,0 0,0 0,0 5,-0 10,-4 10,-9 1,-14 1,-28 2,-43 0,-5 -4,-10 -10,-10 -0,0 -0,0 -0,0z" id="path_10"/><path fill="#000000" d="m403,390c-5,-3 -11,-1 -14,3 -7,11 -15,22 -23,32 -4,4 -4,10 0,15 4,4 10,4 15,-0 0,-0 0,-0 0,-0 9,-11 18,-23 26,-35 3,-5 1,-11 -3,-14z" id="path_11"/><path fill="#000000" d="m439,288c-5,-1 -11,2 -12,8 -3,13 -6,26 -11,39 -1,5 1,11 6,13 5,1 11,-1 13,-6 4,-13 8,-27 11,-41 1,-5 -2,-11 -8,-12z" id="path_12"/><path fill="#000000" d="m316,464c-11,6 -24,10 -37,13 -5,1 -9,7 -8,12 1,4 5,8 10,8 0,-0 1,-0 2,-0 14,-3 28,-8 42,-15 5,-2 7,-9 4,-14s-9,-7 -14,-4z" id="path_13"/><path fill="none" d="M223,178h0M324,158h0M324,271h0M231,354h0M182,271h0" stroke-linecap="round" stroke="#000000" stroke-width="24.0" id="path_14"/></svg>