<svg id="vector" xmlns="http://www.w3.org/2000/svg" width="24.0d" height="24.0d" viewBox="0 0 512.0 512.0"><path fill="#ff73b0" d="M424,299c-48,0 -87,-39 -87,-87c0,-48 39,-87 87,-87c48,0 87,39 87,87C512,260 472,299 424,299zM424,154c-31,0 -57,25 -57,57c0,31 25,57 57,57c31,0 57,-25 57,-57C482,180 456,154 424,154z" id="path_0"/><path fill="#91dc5a" d="M340,387c-48,0 -87,-39 -87,-87c0,-48 39,-87 87,-87c48,0 87,39 87,87C427,348 388,387 340,387zM340,242c-31,0 -57,25 -57,57c0,31 25,57 57,57c31,0 57,-25 57,-57C397,268 372,242 340,242z" id="path_1"/><path fill="#007175" d="M256,299c-48,0 -87,-39 -87,-87c0,-48 39,-87 87,-87s87,39 87,87C343,260 304,299 256,299zM256,154c-31,0 -57,25 -57,57c0,31 25,57 57,57s57,-25 57,-57C313,180 287,154 256,154z" id="path_2"/><path fill="#ffcd00" d="M171,387c-48,0 -87,-39 -87,-87c0,-48 39,-87 87,-87c48,0 87,39 87,87C259,348 219,387 171,387zM171,242c-31,0 -57,25 -57,57c0,31 25,57 57,57c31,0 57,-25 57,-57C229,268 203,242 171,242z" id="path_3"/><path fill="#00dbcd" d="M87,299C39,299 0,260 0,211c0,-48 39,-87 87,-87c48,0 87,39 87,87C174,260 135,299 87,299zM87,154c-31,0 -57,25 -57,57s25,57 57,57c31,0 57,-25 57,-57C144,180 118,154 87,154z" id="path_4"/></svg>