<svg id="vector" xmlns="http://www.w3.org/2000/svg" width="24.0d" height="24.0d" viewBox="0 0 512.0 512.0"><path fill="#6eabc9" d="m334,145 l-166,-49c-7,-2 -12,-10 -10,-18 2,-7 10,-12 18,-10l166,49c7,2 12,10 10,18 -2,7 -10,12 -18,10z" stroke="#000000" stroke-width="12.0" id="path_0"/><path fill="#6eabc9" d="m334,219 l-166,-49c-7,-2 -12,-10 -10,-18 2,-7 10,-12 18,-10l166,49c7,2 12,10 10,18 -2,7 -10,12 -18,10z" stroke="#000000" stroke-width="12.0" id="path_1"/><path fill="#6eabc9" d="m334,294 l-166,-49c-7,-2 -12,-10 -10,-18 2,-7 10,-12 18,-10l166,49c7,2 12,10 10,18 -2,7 -10,12 -18,10z" stroke="#000000" stroke-width="12.0" id="path_2"/><path fill="#6eabc9" d="m334,369 l-166,-49c-7,-2 -12,-10 -10,-18 2,-7 10,-12 18,-10l166,49c7,2 12,10 10,18 -2,7 -10,12 -18,10z" stroke="#000000" stroke-width="12.0" id="path_3"/><path fill="#6eabc9" d="m334,444 l-166,-49c-7,-2 -12,-10 -10,-18 2,-7 10,-12 18,-10l166,49c7,2 12,10 10,18 -2,7 -10,12 -18,10z" stroke="#000000" stroke-width="12.0" id="path_4"/><path fill="#a9dbf5" d="m171,95 l172,-23c8,-1 13,-8 12,-16 -1,-8 -8,-13 -16,-12l-172,23c-8,1 -13,8 -12,16 1,8 8,13 16,12z" stroke="#000000" stroke-width="12.0" id="path_5"/><path fill="#a9dbf5" d="m171,170 l172,-23c8,-1 13,-8 12,-16 -1,-8 -8,-13 -16,-12l-172,23c-8,1 -13,8 -12,16 1,8 8,13 16,12z" stroke="#000000" stroke-width="12.0" id="path_6"/><path fill="#a9dbf5" d="m171,245 l172,-23c8,-1 13,-8 12,-16 -1,-8 -8,-13 -16,-12l-172,23c-8,1 -13,8 -12,16 1,8 8,13 16,12z" stroke="#000000" stroke-width="12.0" id="path_7"/><path fill="#a9dbf5" d="m171,319 l172,-23c8,-1 13,-8 12,-16 -1,-8 -8,-13 -16,-12l-172,23c-8,1 -13,8 -12,16 1,8 8,13 16,12z" stroke="#000000" stroke-width="12.0" id="path_8"/><path fill="#a9dbf5" d="m171,394 l172,-23c8,-1 13,-8 12,-16 -1,-8 -8,-13 -16,-12l-172,23c-8,1 -13,8 -12,16 1,8 8,13 16,12z" stroke="#000000" stroke-width="12.0" id="path_9"/><path fill="#a9dbf5" d="m171,469 l172,-23c8,-1 13,-8 12,-16 -1,-8 -8,-13 -16,-12l-172,23c-8,1 -13,8 -12,16 1,8 8,13 16,12z" stroke="#000000" stroke-width="12.0" id="path_10"/><path fill="#d67b42" d="M374,57h-236c-6,0 -12,-5 -12,-12v-26c0,-6 5,-12 12,-12h236c6,0 12,5 12,12v26c0,6 -5,12 -12,12z M374,504h-236c-6,0 -12,-5 -12,-12v-26c0,-6 5,-12 12,-12h236c6,0 12,5 12,12v26c0,6 -5,12 -12,12z" stroke="#000000" stroke-width="12.0" id="path_11"/></svg>