<svg id="vector" xmlns="http://www.w3.org/2000/svg" width="24.0d" height="24.0d" viewBox="0 0 512.0 512.0"><path fill="#ad5e2e" d="m350,45c-83,2 -120,49 -145,94 5,19 2,43 -11,65 75,51 96,121 99,176 1,28 -12,54 -34,70 77,15 128,-15 142,-65 15,-54 -14,-84 -35,-110 -21,-25 0,-59 0,-59 32,54 124,48 135,-21 12,-80 -34,-154 -150,-150z" stroke="#000000" stroke-width="12.0" id="path_0"/><path fill="#dd8858" d="m292,381c-3,-54 -24,-124 -99,-176 35,-57 -0,-117 -52,-120 -53,-3 -133,28 -127,85 3,25 34,42 70,50 -15,46 -44,173 50,245h72c49,0 89,-39 86,-85z" stroke="#000000" stroke-width="12.0" id="path_1"/><path fill="#ffe9c8" d="m133,467h21c12,-124 -71,-245 -71,-245 -15,46 -44,173 50,245z" stroke-linejoin="round" stroke="#000000" stroke-width="12.0" id="path_2"/><path fill="#dd8858" d="m169,467h-116c-11,0 -20,-11 -16,-22 2,-9 9,-18 21,-24 28,-14 60,-10 60,-10s-47,-89 57,-114" stroke="#000000" stroke-width="12.0" id="path_3"/><path fill="#dd8858" d="m128,221s-28,36 -95,59c-47,16 -30,74 99,7" stroke="#000000" stroke-width="12.0" id="path_4"/><path fill="#ca6d36" d="m125,72c-6,-12 -16,-21 -23,-20 -13,1 -31,33 -40,50 17,-8 36,-13 54,-15 2,-4 5,-9 9,-14z" stroke="#000000" stroke-width="12.0" id="path_5"/><path fill="#dd8858" d="m107,102s24,-49 41,-50c17,-1 49,53 15,73" stroke="#000000" stroke-width="12.0" id="path_6"/><path fill="#000000" d="m89,136c-8,0 -15,8 -15,19s6,19 15,19c8,0 15,-8 15,-19s-6,-19 -15,-19z" id="path_7"/></svg>