<svg id="vector" xmlns="http://www.w3.org/2000/svg" width="24.0d" height="24.0d" viewBox="0 0 512.0 512.0"><path fill="#a1c5e4" d="M7.5,203.5v30h165v-30h-52.5c-8.2,0 -15,-6.7 -15,-15v-75c0,-8.2 6.7,-15 15,-15h52.5v-30H7.5v30H60c8.2,0 15,6.7 15,15V188.5c0,8.2 -6.7,15 -15,15H7.5z" id="path_0"/><path fill="#4796c6" d="M172.5,203.5l0,30l332,0l0,-30l-52.5,0z" id="path_1"/><path fill="#4796c6" d="M172.5,98.5l279.5,0l52.5,0l0,-30l-332,0z" id="path_2"/><path fill="#a1c5e4" d="M437,113.5c0,-8.2 6.7,-15 15,-15H120c-8.2,0 -15,6.7 -15,15V188.5c0,8.2 6.7,15 15,15H452c-8.2,0 -15,-6.7 -15,-15V113.5z" id="path_3"/><path fill="#4796c6" d="M7.5,203.5v30H30v-30H7.5L7.5,203.5zM30,68.5H7.5v30H30V68.5z" id="path_4"/><path fill="#4796c6" d="M142.5,98.5h-22.5c-8.2,0 -15,6.7 -15,15V188.5c0,8.2 6.7,15 15,15h22.5c-8.2,0 -15,-6.7 -15,-15v-75C127.5,105.2 134.2,98.5 142.5,98.5z" id="path_5"/><path fill="#4796c6" d="M504.5,413.5v30H339.5v-30h52.5c8.2,0 15,-6.7 15,-15v-75c0,-8.2 -6.7,-15 -15,-15h-52.5v-30H504.5v30H452c-8.2,0 -15,6.7 -15,15v75c0,8.2 6.7,15 15,15H504.5z" id="path_6"/><path fill="#a1c5e4" d="M339.5,413.5l0,30l-332,0l0,-30l52.5,0z" id="path_7"/><path fill="#a1c5e4" d="M339.5,308.5l-279.5,0l-52.5,0l0,-30l332,0z" id="path_8"/><path fill="#a1c5e4" d="M75,323.5c0,-8.2 -6.7,-15 -15,-15h332c8.2,0 15,6.7 15,15v75c0,8.2 -6.7,15 -15,15H60c8.2,0 15,-6.7 15,-15V323.5z" id="path_9"/><path fill="#4796c6" d="M75,323.5c0,-8.2 -6.7,-15 -15,-15h22.5c8.2,0 15,6.7 15,15v75c0,8.2 -6.7,15 -15,15H60c8.2,0 15,-6.7 15,-15V323.5z" id="path_10"/><path fill="#4796c6" d="M7.5,413.5v30H30v-30H7.5L7.5,413.5zM30,278.5H7.5v30H30V278.5z" id="path_11"/><path fill="none" d="M172.5,203.5v30M60,68.5h444.5v30H120c-8.2,0 -15,6.7 -15,15V188.5c0,8.2 6.7,15 15,15H504.5v30H7.5v-30H60c8.2,0 15,-6.7 15,-15v-75c0,-8.2 -6.7,-15 -15,-15H7.5v-30H45M452,98.5c-8.2,0 -15,6.7 -15,15V188.5c0,8.2 6.7,15 15,15M172.5,68.5v30" stroke="#000000" stroke-width="15.0" id="path_12"/><path fill="none" d="M339.5,413.5v30M467,443.5h37.5v-30H452c-8.2,0 -15,-6.7 -15,-15v-75c0,-8.2 6.7,-15 15,-15h52.5v-30H7.5v30h384.5c8.2,0 15,6.7 15,15v75c0,8.2 -6.7,15 -15,15H7.5v30H452M60,308.5c8.2,0 15,6.7 15,15v75c0,8.2 -6.7,15 -15,15M339.5,278.5v30" stroke="#000000" stroke-width="15.0" id="path_13"/></svg>