<svg id="vector" xmlns="http://www.w3.org/2000/svg" width="24.0d" height="24.0d" viewBox="0 0 512.0 512.0"><path fill="#b07a4c" d="m57.5,512c-3.8,0 -7.6,-1.4 -10.6,-4l-42.5,-42.5c-2.8,-2.8 -4,-6.6 -4,-10.6 0,-4 1.5,-7.7 4,-10.6l134.7,-134.7 107.8,-60 62.4,-110 134,-134.3c5.8,-5.8 15,-5.8 21,0l42.5,42.5c2.8,2.8 4,6.6 4,10.6 0,4 -1.5,7.7 -4,10.6l-134,134 -111,56.4 -59,113.7 -134.7,134.7c-3,3 -6.7,4 -10.6,4z" id="path_0"/><path fill="#95623a" d="m512,57.5c0,-4 -1.5,-7.7 -4,-10.6l-21,-21 -460.6,460.6 21,21c3,3 6.7,4 10.6,4s7.6,-1.4 10.6,-4.3l134.7,-134.7 59,-113.7 111,-56.4 134,-134.3c2.8,-2.8 4,-6.6 4,-10.6z" id="path_1"/><path fill="#f3e49a" d="m139,309 l170,-170 63.7,63.7 -170,170z" id="path_2"/></svg>