<svg id="vector" xmlns="http://www.w3.org/2000/svg" width="24.0d" height="24.0d" viewBox="0 0 512.0 512.0"><path fill="#000000" d="M252,173h18l7,-70c0,-7 -1,-15 -6,-21c-5,-5 -12,-9 -20,-9h-85c-7,-0 -15,3 -20,9c-5,5 -7,13 -6,21l7,70h18l-4,-42c-1,-10 2,-20 9,-28c7,-7 16,-12 27,-12h25c10,0 20,4 27,12c7,7 10,18 9,28L252,173z" id="path_0"/><path fill="#000000" d="M344,338h-18l6,64c2,23 -5,46 -20,63c-15,17 -37,27 -61,27h-85c-23,0 -45,-9 -61,-27c-15,-17 -23,-40 -20,-63l6,-64H71l-6,62c-3,28 6,56 25,77c19,21 46,33 74,33h85c28,-0 55,-12 74,-33c19,-21 28,-49 25,-77L344,338z" id="path_1"/><path fill="#000000" d="M71,173h18l-6,-64c-2,-23 5,-46 20,-63c15,-17 37,-27 61,-27h85c23,-0 45,9 61,27c15,17 23,40 20,63l-6,64h18l6,-62c3,-28 -6,-56 -25,-77c-19,-21 -46,-33 -74,-33h-85c-28,0 -55,12 -74,33C70,54 61,82 64,110L71,173z" id="path_2"/><path fill="#000000" d="M288,173h18l7,-66c1,-18 -4,-36 -16,-49c-12,-13 -29,-21 -47,-21h-85c-18,-0 -35,7 -47,21c-12,13 -18,31 -16,49l7,66h18l-7,-68c-1,-12 2,-25 11,-35c8,-9 21,-15 34,-15h85c13,-0 25,5 34,15c8,9 12,22 11,35L288,173z" id="path_3"/><path fill="#000000" d="M126,338h-18l-7,66c-1,18 4,36 16,49c12,13 29,21 47,21h85c18,0 35,-7 47,-21c12,-13 18,-31 16,-49l-7,-66h-18l7,68c1,12 -2,25 -11,35c-8,9 -21,15 -34,15h-85c-13,0 -25,-5 -34,-15c-8,-9 -13,-22 -11,-35L126,338z" id="path_4"/><path fill="#000000" d="M353,301H61c-5,0 -9,4 -9,9c0,5 4,9 9,9h292c5,0 9,-4 9,-9C362,305 358,301 353,301z" id="path_5"/><path fill="#000000" d="M353,192H61c-5,0 -9,4 -9,9c0,5 4,9 9,9h292c5,0 9,-4 9,-9C362,196 358,192 353,192z" id="path_6"/><path fill="#000000" d="M458,4c-1,-2 -3,-3 -5,-3c-0,-0 -0,-0 -0,-0c-4,-0 -9,2 -10,7c-2,18 -9,36 -19,52c-4,6 -10,12 -17,16c-5,2 -12,4 -18,5l-0,0c-3,0 -8,1 -12,2c-2,0 -4,1 -6,2c0,6 0,13 0,20c3,-2 7,-3 10,-4c3,-1 6,-1 9,-2l1,-0c8,-1 16,-3 23,-7c9,-5 17,-13 23,-22c11,-18 18,-38 21,-59C460,8 459,6 458,4z" id="path_7"/><path fill="#000000" d="M353,228H61c-5,0 -9,4 -9,9s4,9 9,9h292c5,-0 9,-4 9,-9C362,232 358,228 353,228z" id="path_8"/><path fill="#000000" d="M163,338H144l-7,70c-0,7 1,15 6,21c5,5 12,9 20,9h85c7,0 15,-3 20,-9c5,-5 7,-13 6,-21l-7,-70h-18l4,42c1,10 -2,20 -9,28c-7,7 -16,12 -27,12h-25c-10,0 -20,-4 -27,-12c-7,-7 -10,-18 -9,-28L163,338z" id="path_9"/><path fill="#000000" d="M353,265H61c-5,0 -9,4 -9,9c0,5 4,9 9,9h292c5,-0 9,-4 9,-9C362,269 358,265 353,265z" id="path_10"/></svg>