<svg id="vector" xmlns="http://www.w3.org/2000/svg" width="24.0d" height="24.0d" viewBox="0 0 487.0 487.0"><path fill="#cacadb" d="M271,50H134c-16,0 -30,13 -30,30v133c0,16 13,30 30,30H271" id="path_0"/><path fill="#e4e4ef" d="M234,50h96c16,0 30,13 30,30v133c0,16 -13,30 -30,30h-96c-16,0 -30,-13 -30,-30V80C204,63 217,50 234,50z" id="path_1"/><path fill="#cacadb" d="M347,243H30C13,243 0,256 0,273l0,133c0,16 13,30 30,30h317" id="path_2"/><path fill="#e4e4ef" d="M167,218c-6,0 -10,-8 -5,-13c2,-2 5,-2 8,-1c2,1 4,4 3,7C174,216 171,218 167,218z" id="path_3"/><path fill="#e4e4ef" d="M90,243h133c16,0 30,13 30,30v133c0,16 -13,30 -30,30H90c-16,0 -30,-13 -30,-30V273C60,256 74,243 90,243z" id="path_4"/><path fill="#e4e4ef" d="M323,243h133c16,0 30,13 30,30v133c0,16 -13,30 -30,30H323c-16,0 -30,-13 -30,-30V273C293,256 307,243 323,243z" id="path_5"/><path fill="none" d="M330,91 h0M313,110h0M297,91 h0M214,409h0M97,283 h0M93,314 h0M352,306h0M118,300h0M326,310h0M337,284h0" stroke-linecap="round" stroke="#cacadb" stroke-width="12.0" id="path_6"/></svg>