<svg id="vector" xmlns="http://www.w3.org/2000/svg" width="24.0d" height="24.0d" viewBox="0 0 512.0 512.0"><path fill="#c1e649" d="m10,10h492v492h-492z" stroke="#000000" stroke-width="16.0" id="path_0"/><path fill="#daf092" d="m418,458h-325c-21,0 -39,-17 -39,-39v-325c0,-21 17,-39 39,-39h325c21,0 39,17 39,39v325c0,21 -17,39 -39,39z" stroke="#000000" stroke-width="16.0" id="path_1"/><path fill="#000000" d="m286,194c18,0 33,-15 33,-33 0,-18 -15,-33 -33,-33 -0,0 -1,0 -2,0 6,-9 13,-15 13,-15 4,-3 5,-9 2,-14 -3,-4 -9,-5 -14,-2 -1,0 -28,21 -32,59 -0,1 -0,3 -0,5 0,18 15,33 33,33zM300,160c0,7 -6,13 -13,13s-13,-6 -13,-13 6,-13 13,-13 13,6 13,13z" id="path_2"/><path fill="#000000" d="m201,114h7v70c0,5 4,10 10,10s10,-4 10,-10v-80c0,-5 -4,-10 -10,-10h-17c-5,0 -10,4 -10,10s4,10 10,10z" id="path_3"/><path fill="#000000" d="m205,262c-2,15 4,30 17,39 0,0 1,0 1,0 0,0 21,9 44,18 18,6 28,18 25,30 -2,12 -15,24 -35,24 -17,0 -34,-7 -45,-19 -3,-4 -10,-4 -14,-0 -4,3 -4,10 -0,14 14,16 37,25 60,25 27,0 51,-17 55,-41 2,-10 -0,-21 -6,-30 -6,-9 -17,-17 -31,-22 -20,-7 -38,-15 -42,-17 -6,-4 -9,-11 -8,-19 1,-9 8,-16 18,-19 26,-8 49,11 50,11 4,3 10,3 14,-1 3,-4 3,-10 -1,-14 -1,-1 -31,-26 -68,-15 -17,5 -30,19 -34,35z" id="path_4"/></svg>