<svg id="vector" xmlns="http://www.w3.org/2000/svg" width="24.0d" height="24.0d" viewBox="0 0 512.0 512.0"><path fill="#f4de7f" d="m64,448c9,9 -5,43 4,53 20,20 179,-93 309,-216s136,-248 116,-269 -146,-13 -269,116 -236,289 -216,309c10,10 44,-4 53,4z" stroke="#000000" stroke-width="12.0" id="path_0"/><path fill="#dd646e" d="m83,303c-8,11 -17,23 -24,34l94,21 21,94c11,-7 22,-15 34,-24l-23,-102z" stroke="#000000" stroke-width="12.0" id="path_1"/><path fill="#b3495d" d="m59,337c-8,12 -16,24 -22,34l84,19 19,84c10,-6 22,-14 34,-22l-21,-94z" stroke="#000000" stroke-width="12.0" id="path_2"/><path fill="none" d="M221,290l150,-150" stroke-linecap="round" stroke="#000000" stroke-width="16.0" id="path_3"/></svg>