<svg id="vector" xmlns="http://www.w3.org/2000/svg" width="24.0d" height="24.0d" viewBox="0 0 512.0 512.0"><path fill="#ffc7a4" d="m327,56c-8,-6 -19,-4 -25,3l-248,306c-11,14 -8,34 5,45 14,11 35,7 45,-7l226,-322c5,-8 4,-19 -2,-25z" stroke="#000000" stroke-width="12.0" id="path_0"/><path fill="#ffe4d3" d="m375,105c-5,-8 -16,-10 -25,-4l-328,218c-15,10 -18,30 -8,45 10,14 31,17 45,6l312,-240c7,-6 9,-17 3,-25z" stroke="#000000" stroke-width="12.0" id="path_1"/><path fill="#a4e7ff" d="m500,316c0,-17 -14,-31 -31,-31h-208c-17,0 -31,14 -31,31 0,9 4,18 12,24 3,2 5,6 4,11 -1,9 1,19 8,26 5,5 13,8 21,9 4,0 8,3 10,7 4,10 15,18 28,18 6,0 13,-2 18,-6 4,-3 10,-3 14,0 5,3 11,6 18,6 6,0 13,-2 18,-6 4,-3 10,-3 14,0 5,3 11,6 18,6 12,0 23,-7 28,-18 1,-4 6,-7 10,-7 8,-0 16,-4 22,-11 5,-7 8,-15 6,-24 -0,-4 1,-8 4,-11 7,-5 12,-14 17,-24z" stroke="#000000" stroke-width="12.0" id="path_2"/><path fill="#ff938a" d="m410,309c-28,-18 -64,-19 -91,0 -27,18 -65,11 -83,-15s-11,-65 16,-83c33,-22 73,-35 113,-35 40,0 80,12 113,35 27,18 34,56 16,83 -11,17 -48,39 -83,15z" stroke="#000000" stroke-width="12.0" id="path_3"/><path fill="#ffc4bf" d="m275,247c2,13 15,15 21,14 9,-1 16,-11 14,-21 -3,-19 -12,-36 -24,-50 -11,4 -22,10 -33,18 11,9 19,23 22,39z" stroke="#000000" stroke-width="12.0" id="path_4"/><path fill="#ffc4bf" d="m346,227c-1,13 10,19 16,19 10,1 18,-6 19,-16 1,-19 -2,-39 -10,-55 -2,-0 -5,-0 -7,-0 -11,0 -22,0 -34,2 11,13 17,31 16,49z" stroke="#000000" stroke-width="12.0" id="path_5"/><path fill="#ffc4bf" d="m424,232c-4,12 5,20 11,22 9,3 19,-2 22,-11 4,-14 6,-28 4,-42 -13,-7 -27,-13 -41,-17 6,15 7,32 4,48z" stroke="#000000" stroke-width="12.0" id="path_6"/><path fill="#8697a6" d="m87,293v103c0,34 47,61 105,61 58,0 105,-27 105,-61v-103z" stroke="#000000" stroke-width="12.0" id="path_7"/><path fill="#a4e7ff" d="m298,294c0,-34 -47,-61 -105,-61 -58,0 -105,27 -105,61 0,34 47,61 105,61 58,0 105,-27 105,-61z" stroke="#000000" stroke-width="12.0" id="path_8"/><path fill="#ff8a98" d="m236,294c0,-12 -19,-23 -43,-23 -24,0 -43,10 -43,23 0,12 19,23 43,23 24,0 43,-10 43,-23z" stroke="#000000" stroke-width="12.0" id="path_9"/></svg>