<svg id="vector" xmlns="http://www.w3.org/2000/svg" width="24.0d" height="24.0d" viewBox="0 0 512.0 512.0"><path fill="#5f7887" d="M11,209c18,19 24,56 24,56l0,0c0,0 -6,36 -24,56c36,-19 64,-56 64,-56l0,0C75,265 47,228 11,209zM240,234c0,0 18,-11 17,-51c0,0 34,21 55,59L240,234z" stroke="#000000" stroke-width="12.0" id="path_0"/><path fill="#73a0aa" d="M346,255c-28,-10 -53,-20 -75,-21c-4,-0 -7,-0 -11,-0c-48,-1 -165,20 -203,25c-1,0 -2,1 -2,2c12,0 142,39 233,36l16,-1c20,-2 69,-20 82,-27L346,255z" stroke-linejoin="round" stroke="#000000" stroke-width="12.0" id="path_1"/><path fill="#f0ebe1" d="M244,271c-70,1 -143,-2 -153,-2c0,5 4,6 9,8c21,6 43,14 95,21c25,3 31,4 51,4L244,271z" stroke="#000000" stroke-width="12.0" id="path_2"/><path fill="#5f7887" d="M152,296c-4,14 -8,24 -8,24s24,-4 32,-24H152zM252,284c0,29 -8,44 -11,42c0,0 36,-6 48,-36L252,284zM382,270h80" stroke-linejoin="round" stroke-linecap="round" stroke="#000000" stroke-width="12.0" id="path_3"/></svg>