<svg id="vector" xmlns="http://www.w3.org/2000/svg" width="24.0d" height="24.0d" viewBox="0 0 512.0 512.0"><path fill="#e1dde1" d="M96,494 l-75,8c-3,0 -7,-1 -10,-3s-4,-6 -3,-9l8,-75c0,-3 1,-5 4,-8l230,-204 59,59 -204,230c-2,2 -4,3 -8,4z" stroke="#000000" stroke-width="12.0" id="path_0"/><path fill="#fca62f" d="m305,260 l-34,-15c-2,-1 -5,-3 -6,-6l-15,-34c-2,-5 -0,-11 3,-14l39,-32 59,59 -32,39c-3,4 -9,5 -14,3z" stroke="#000000" stroke-width="12.0" id="path_1"/><path fill="#918291" d="m409,61l38,38l-92,92l-38,-38z" stroke="#000000" stroke-width="12.0" id="path_2"/><path fill="#fddd45" d="m365,292c-4,-4 -6,-9 -5,-16l6,-33 -99,-99 -33,6c-9,1 -19,-4 -20,-14 -1,-9 4,-19 14,-20l42,-8c5,-1 11,0 16,5l112,112c4,4 6,10 5,16l-8,42c-1,9 -11,16 -20,14 -3,-0 -6,-2 -9,-5z" stroke="#000000" stroke-width="12.0" id="path_3"/><path fill="#fddd45" d="M454,56m-50,0a50,50 0,1 1,101 0a50,50 0,1 1,-101 0" stroke="#000000" stroke-width="12.0" id="path_4"/><path fill="#21c1f8" d="M454,56m-20,0a20,20 0,1 1,40 0a20,20 0,1 1,-40 0" stroke="#000000" stroke-width="12.0" id="path_5"/></svg>