<svg id="vector" xmlns="http://www.w3.org/2000/svg" width="24.0d" height="24.0d" viewBox="0 0 512.0 512.0"><path fill="#ffc328" d="m204,0c35,0 63,67.7 63,151v151h-63.7z" id="path_0"/><path fill="#ffb200" d="M140,151a63,151 0,1 0,127.5 0a63,151 0,1 0,-127.5 0z" id="path_1"/><path fill="#ffa000" d="m237,151c0,33 -4,64 -13,88.5 -7,21 -16,29.4 -19,31.4 -3,-2 -11,-10 -19,-31.4 -8,-24 -13,-55.6 -13,-88.5s4,-64 13,-88.5c7,-21 16,-29.4 19,-31.4 3,2 11,10 19,31.4 8,24 13,55.6 13,88.5z" id="path_2"/><path fill="#ffd54f" d="m204,0h103.4c35,0 63,67.7 63,151v307.8h-30.5c0,-11 -9,-20.5 -20,-20.5 -11,0 -20,9 -20,20.5h-31.8v-307.8c-0,-83.5 -28,-151 -63,-151z" id="path_3"/><path fill="#ffc328" d="m307,0h-31c35,0 63,67.7 63,151v303.6c0,1 0,2.7 0,4h30.5v-307.8c0,-83.5 -28,-151 -63,-151z" id="path_4"/><path fill="#546e7a" d="m320,479.6c11,0 20,-9 20,-20.5h30.5v46.7c0,3.4 -2,6 -6,6h-91c-3,0 -6,-2.7 -6,-6v-46.7h31.8c0,11 9,20.5 20,20.5z" id="path_5"/><path fill="#455a64" d="M341,459c0,1.4 -0,2.8 -0,4v42.5c0,3.4 -2,6 -6,6h31c3,0 6,-2.7 6,-6v-46.7zM371,380v15h-37.4c-4,0 -7,-3 -7,-7.5 0,-4 3,-7.5 7,-7.5zM371,209.9v15h-37.4c-4,0 -7,-3 -7,-7.5 0,-4 3,-7.5 7,-7.5zM371,295v15h-37.4c-4,0 -7,-3 -7,-7.5 0,-4 3,-7.5 7,-7.5zM371,139.8h-35.3c-4,0 -7,-3 -7,-7.5s3,-7.5 7,-7.5h34.5c0,5 0,9.9 0,15zM359,61h-41c-4,0 -7,-3 -7,-7.5 0,-4 3,-7.5 7,-7.5h35.6c2,4.7 3,9.7 5,15z" id="path_6"/></svg>