<svg id="vector" xmlns="http://www.w3.org/2000/svg" width="24.0d" height="24.0d" viewBox="0 0 512.0 512.0"><path fill="#4dbbeb" d="M488,160c8,15 13,32 13,49c0,55 -44,100 -100,100s-100,-44 -100,-100c0,-17 4,-34 13,-49L402,10L488,160z" stroke="#000000" stroke-width="12.0" id="path_0"/><path fill="#bee7f4" d="M234,322C244,340 250,361 250,382c0,66 -53,120 -120,120s-120,-53 -120,-120c0,-21 5,-41 16,-59L130,142L234,322z" stroke="#000000" stroke-width="12.0" id="path_1"/><path fill="#000000" d="M462,199c-5,0 -10,4 -10,10s4,10 10,10s10,-4 10,-10S467,199 462,199z" id="path_2"/><path fill="#000000" d="M210,372c-5,0 -10,4 -10,10s4,10 10,10s10,-4 10,-10S215,372 210,372z" id="path_3"/><path fill="#000000" d="M204,412c-4,-2 -11,-1 -13,3C178,438 155,452 130,452c-5,0 -10,4 -10,10s4,10 10,10c32,0 62,-17 78,-46C211,420 209,414 204,412z" id="path_4"/><path fill="#000000" d="M455,239c-4,-3 -10,-2 -14,1c-9,11 -23,18 -38,18c-5,0 -10,4 -10,10s4,10 10,10c21,0 41,-9 54,-25C459,249 459,243 455,239z" id="path_5"/></svg>