<svg id="vector" xmlns="http://www.w3.org/2000/svg" width="24.0d" height="24.0d" viewBox="0 0 512.0 512.0"><path fill="#702d22" d="m273,394.8 l-120,-259l-121.5,259c-1,2 -1,5 0.4,7 1,2 3.7,3.4 6,3.4h241.5c2.5,0 5,-1 6,-3.4 1,-2 1.5,-4.8 0.4,-7z" id="path_0"/><path fill="#594235" d="m366.5,147.5c-4,0 -7.5,-3 -7.5,-7.5v-27c0,-4 3,-7.5 7.5,-7.5s7.5,3 7.5,7.5v27c0,4 -3,7.5 -7.5,7.5z" id="path_1"/><path fill="#594235" d="m146.5,147.5c-4,0 -7.5,-3 -7.5,-7.5v-27c0,-4 3,-7.5 7.5,-7.5s7.5,3 7.5,7.5v27c0,4 -3,7.5 -7.5,7.5z" id="path_2"/><path fill="#f26944" d="m148,131.6c-3.4,-0.7 -7,1 -8.4,4l-121.5,259c-1,2 -1,5 0.4,7 1,2 3.7,3.4 6,3.4h121.5c4,0 7.5,-3 7.5,-7.5v-259c0,-3.5 -2.4,-6.5 -5.8,-7.3z" id="path_3"/><path fill="#d36e00" d="m260.5,402.5c-26.4,-34 -48,-36 -74.7,-27.6 -2,0.6 -4,0 -6,-0.7 -1.8,-1 -3,-3 -3.4,-5l-37,-228.3c0,0.5 0,1 0.5,1.5l97,142.4 23,116.5c0,0.4 0.5,1 0.8,1.3z" id="path_4"/><path fill="#dd9300" d="m493,394.8 l-120,-259c-1,-2.6 -3.8,-4 -6.8,-4.3h-220c-0,0 -0,0 -0.4,0 -0,0 -0,0 -0,0 -0,0 -0.5,0 -0.8,0 -0,0 -0,0 -0.4,0 -0,0 -0,0 -0,0 -0,0 -0.4,0 -0.6,0 -0,0 -0,0 -0.4,0 -0,0 -0,0 -0.4,0 -0.4,0 -1,0.6 -1,1 -0,0 -0,0 -0,0 -0,0 -0.5,0.6 -0.7,1 -0,0 -0,0 -0,0 -0,0 -0,0 -0,0 -0,0 -0.4,0.7 -0.5,1 -0,0 -0,0 -0,0 -0,0.4 -0,0.8 -0,1 -0,0 -0,0 -0,0 -0,0 -0,0 -0,0 -0,0 -0,0.8 0,1 0,0 0,0 0,0.5l0,0.4c0,0.5 0,1 0.5,1.5l120,259c0,0.4 0.4,1 0.8,1 1.7,2 3,2.8 5.4,3 0,0 0,0 0.5,0h220c2.5,0 5,-1 6,-3.4 1,-2 1.5,-4.8 0.4,-7z" id="path_5"/><path fill="#594235" d="m25,405.5c-2,0 -3.8,-0.7 -5,-2l-17.5,-17.5c-3,-3 -3,-7.6 0,-10.6 3,-3 7.6,-3 10.6,0l17.5,17.5c3,3 3,7.6 0,10.6 -1.4,1.4 -3,2 -5,2z" id="path_6"/><path fill="#594235" d="m487,405.5c-2,0 -3.8,-0.7 -5,-2 -3,-3 -3,-7.6 0,-10.6l17.5,-17.5c3,-3 7.6,-3 10.6,0 3,3 3,7.6 0,10.6l-17.5,17.5c-1.4,1.4 -3,2 -5,2z" id="path_7"/><path fill="#594235" d="m266,405.5c-2,0 -3.8,-0.7 -5,-2 -3,-3 -3,-7.6 0,-10.6l17.5,-17.5c3,-3 7.6,-3 10.6,0 3,3 3,7.6 0,10.6l-17.5,17.5c-1.4,1.4 -3,2 -5,2z" id="path_8"/></svg>