<svg id="vector" xmlns="http://www.w3.org/2000/svg" width="24.0d" height="24.0d" viewBox="0 0 512.0 512.0"><g transform="translate(40.0, 40.0)" id="g_0"><path fill="#cddcf0" d="M216,0c-35,0 -64,28 -64,64v200c-19,17 -32,43 -32,71c0,53 43,96 96,96s96,-43 96,-96c0,-28 -12,-53 -32,-71V64C280,28 251,0 216,0z" stroke="#000000" stroke-width="12.0"/><path fill="#bccce1" d="M216,32c17,0 32,14 32,32v200v14l10,9C272,300 280,318 280,336c0,35 -28,64 -64,64s-64,-28 -64,-64c0,-18 7,-35 21,-47L184,278v-14V64C184,46 198,32 216,32"/><path fill="#d64231" d="M248,280V144h-64v136c-19,11 -32,31 -32,55c0,35 28,64 64,64s64,-28 64,-64C280,312 267,292 248,280z"/><path fill="#000000" d="M216,80h58v16h-58zM216,128h58v16h-58zM216,176h58v16h-58zM216,224h58v16h-58z"/></g></svg>