<svg id="vector" xmlns="http://www.w3.org/2000/svg" width="24.0d" height="24.0d" viewBox="0 0 513.0 513.0"><path fill="#91def5" d="m10,402c11,13 29,22 49,22s37,-8 49,-22c11,13 29,22 49,22s37,-8 49,-22c11,13 29,22 49,22s37,-8 49,-22c11,13 29,22 49,22s37,-8 49,-22c11,13 29,22 49,22s37,-8 49,-22v75c-11,13 -29,22 -49,22s-37,-8 -49,-22c-11,13 -29,22 -49,22s-37,-8 -49,-22c-11,13 -29,22 -49,22s-37,-8 -49,-22c-11,13 -29,22 -49,22s-37,-8 -49,-22c-11,13 -29,22 -49,22s-37,-8 -49,-22z" id="path_0"/><path fill="#cff1fb" d="m502,298c0,-72 -58,-130 -130,-130 -17,0 -34,3 -49,9 -28,-37 -73,-61 -124,-61 -86,0 -156,70 -156,156 0,-38 31,-69 69,-69s69,31 69,69c0,38 -31,69 -69,69h-101v62c11,13 29,22 49,22s37,-8 49,-22c11,13 29,22 49,22s37,-8 49,-22c11,13 29,22 49,22s37,-8 49,-22c11,13 29,22 49,22s37,-8 49,-22c11,13 29,22 49,22s37,-8 49,-22z" id="path_1"/><path fill="#f6838d" d="M446,67m-56,0a56,56 0,1 1,113 0a56,56 0,1 1,-113 0" stroke="#000000" stroke-width="12.0" id="path_2"/><path fill="#000000" d="m371,157c-16,0 -31,2 -46,7 -21,-24 -49,-43 -80,-52 -5,-1 -10,1 -12,6 -1,5 1,10 6,12 25,7 48,22 66,41 -44,23 -75,70 -75,124 0,5 4,10 10,10s10,-4 10,-10c0,-26 21,-48 48,-48s48,21 48,48c0,26 -21,48 -48,48h-93c-5,0 -10,4 -10,10s4,10 10,10h93c37,0 68,-30 68,-68s-30,-68 -68,-68c-11,0 -22,3 -32,8 20,-36 60,-60 104,-60 66,0 120,54 120,120 0,5 4,10 10,10s10,-4 10,-10c0,-77 -63,-140 -140,-140z" id="path_3"/></svg>