<svg id="vector" xmlns="http://www.w3.org/2000/svg" width="24.0d" height="24.0d" viewBox="0 0 512.0 512.0"><path fill="#d26437" d="M323,261c0,23 13,102 13,102h-7c-5,0 -10,3 -13,7l-5,8c-2,3 0,7 4,7h21c5,0 10,-2 13,-6l11,-15c1,-2 2,-5 3,-8c1,-25 8,-53 12,-65l-32,-39L323,261z" stroke="#000000" stroke-width="12.0" id="path_0"/><path fill="#d26437" d="M207,275h-48l33,88c-6,0 -11,3 -14,8l-4,8c-1,3 0,7 4,7h18c6,0 12,-3 14,-9l7,-18c1,-2 1,-5 1,-8L207,276z" stroke="#000000" stroke-width="12.0" id="path_1"/><path fill="#ffc88c" d="M150,228v61c97,-1 157,-17 184,-27v-33H150z" stroke="#000000" stroke-width="12.0" id="path_2"/><path fill="#eb874b" d="M416,219v-22c0,-20 -13,-37 -32,-43c-0,-0 -8,-1 -8,-1c-52,-9 -148,9 -173,9c-33,0 -61,-18 -88,-26c-12,-3 -24,-3 -37,-1l-15,3c-20,4 -27,8 -35,21c-7,12 -17,44 -17,44s24,32 32,24c9,-9 18,-15 30,-15c7,-0 15,2 23,-1c39,57 -5,152 -5,152h-2c-6,0 -11,3 -14,9l-4,8c-1,3 0,6 4,6h19c3,0 7,-1 9,-3c37,-30 68,-104 77,-129c2,-5 6,-9 11,-10c1,-0 2,-0 3,-0l33,-4c26,-1 60,-0 90,12c5,2 9,6 13,10c15,21 38,29 65,50c23,18 24,49 24,49c-6,0 -13,4 -15,11l-2,7c-1,3 1,6 4,6h26c4,0 7,-3 8,-7l6,-72c0,-2 -0,-4 -1,-5C438,293 416,261 416,219z" stroke="#000000" stroke-width="12.0" id="path_3"/><path fill="#d26437" d="M78,124c0,0 -11,4 -19,18c-1,3 0,7 4,7l18,1c3,0 6,-3 5,-6C86,138 83,129 78,124z" stroke="#000000" stroke-width="12.0" id="path_4"/><path fill="#ffc88c" d="M39,227c9,-9 18,-15 30,-15c7,-0 15,2 23,-1c-1,0 -2,0 -4,-0c-6,-3 -14,-13 -24,-15c-13,-3 -34,26 -56,8C7,203 31,235 39,227z" stroke="#000000" stroke-width="12.0" id="path_5"/><path fill="#ffc88c" d="M70,387h19c3,0 7,-1 9,-3c7,-5 13,-12 20,-20H87h-2c-6,0 -11,3 -14,9l-4,8z M418,363c-6,0 -13,4 -15,11l-2,7c-1,3 1,6 4,6h26c4,0 7,-3 8,-7l1,-16z" stroke="#000000" stroke-width="12.0" id="path_6"/><path fill="#ffbe82" d="M336,363h-7c-5,0 -10,3 -13,7l-5,8c-2,3 0,7 4,7h21c5,0 10,-2 13,-6l11,-15c0,-0 0,-1 1,-2z M193,364c-6,0 -11,3 -14,8l-4,8c-1,3 0,7 4,7h18c6,0 12,-3 14,-9l6,-14z" stroke="#000000" stroke-width="12.0" id="path_7"/><path fill="none" d="M400,160 c80,40 30,140 100,120 M290,176l-10,30M377,222l10,-30M200,191l5,20 M128,144v32 M164,168l-28,90 M224,168l12,36 M340,160l-14,60 M414,238l-44,30 M420,278l-14,10" stroke-linecap="round" stroke="#000000" stroke-width="16.0" id="path_8"/></svg>