<svg id="vector" xmlns="http://www.w3.org/2000/svg" width="24.0d" height="24.0d" viewBox="0 0 512.0 512.0"><path fill="#fe318f" d="M498,13c-17,-17 -46,-17 -63,0c-17,17 -17,46 0,63c17,17 46,17 63,0C516,59 516,30 498,13z" id="path_0"/><path fill="#fedbab" d="M414,140L98,455c-22,22 -48,41 -77,54c-6,3 -12,1 -17,-2s-5,-11 -2,-17c13,-28 32,-54 54,-77L371,98c6,-6 15,-6 21,0l21,21C419,125 419,134 414,140z" id="path_1"/><path fill="#fec478" d="M414,140L98,455c-22,22 -48,41 -77,54c-6,3 -12,1 -17,-2l399,-399l10,10C419,125 419,134 414,140z" id="path_2"/><path fill="#fe318f" d="M445,172c-11,11 -30,11 -42,0l-63,-63c-11,-11 -11,-30 0,-42c11,-11 30,-11 42,0l53,10l10,53C457,141 457,160 445,172z" id="path_3"/><path fill="#fe73b1" d="M488,129c-11,11 -30,11 -42,0l-63,-63c-11,-11 -11,-30 0,-42s30,-11 42,0l63,63C499,99 499,118 488,129z" id="path_4"/></svg>