<svg id="vector" xmlns="http://www.w3.org/2000/svg" width="24.0d" height="24.0d" viewBox="0 0 512.0 512.0"><path fill="#ecf4ff" d="m384,144 l-45,-45 89,-89 45,45z" stroke="#000000" stroke-width="16.0" id="path_0"/><path fill="#eab14d" d="m474,54 l-93,93c-6,6 -14,9 -22,9h-18c-8,0 -16,3 -22,9l-305,305c-4,4 -4,11 0,15l12,12c4,4 11,4 15,0l294,-294c6,-6 14,-9 22,-9h18c8,0 16,-3 22,-9l105,-105c4,-4 4,-11 0,-15l-12,-12c-4,-4 -11,-4 -15,0z" stroke="#000000" stroke-width="16.0" id="path_1"/><path fill="#cbe2ff" d="M286,260 l-36,-36c-6,-6 -6,-17 0,-24 6,-6 17,-6 24,0l36,36c6,6 6,17 0,24 -6,6 -17,6 -24,0zM310,236 l-36,-36c-6,-6 -6,-17 0,-24 6,-6 17,-6 24,0l36,36c6,6 6,17 0,24 -6,6 -17,6 -24,0z" stroke="#000000" stroke-width="16.0" id="path_2"/></svg>