<svg id="vector" xmlns="http://www.w3.org/2000/svg" width="24.0d" height="24.0d" viewBox="0 0 512.0 512.0"><path fill="#c1b0b5" d="m288,312 l-93,-93 -179,244c-5,8 -7,20 0,28s20,6 28,0z" stroke="#000000" stroke-width="12.0" id="path_0"/><path fill="#dad0d3" d="m194,219 l93,93 14,14c7,7 20,7 28,-0 7,-7 7,-20 0,-28l-121,-121c-7,-7 -20,-7 -28,0 -7,7 -7,20 0,28z" stroke="#000000" stroke-width="12.0" id="path_1"/><path fill="#ffffff" d="m208,176 l121,121c23,2 47,-2 69,-12l-40,-40 -22,-22 -50,-50 -28,-28 -36,-36c-10,22 -14,45 -12,69z" stroke="#000000" stroke-width="12.0" id="path_2"/><path fill="#ff764e" d="m286,172 l50,50c30,0 44,-30 29,-35 -50,-22 -0,-67 -0,-67 -38,-10 -73,7 -79,52z" stroke="#000000" stroke-width="12.0" id="path_3"/><path fill="#ffc144" d="m365,120s-50,45 0,67c15,5 0,35 -29,35l22,22c105,-4 117,-84 117,-84 -61,30 -132,-19 -19,-44 40,-9 65,-68 23,-102 -12,66 -111,25 -145,30 -34,5 -77,26 -77,98l28,28c6,-45 41,-63 79,-52z" stroke="#000000" stroke-width="12.0" id="path_4"/></svg>