<svg id="vector" xmlns="http://www.w3.org/2000/svg" width="24.0d" height="24.0d" viewBox="0 0 512.0 512.0"><path fill="#bacbd8" d="M150,111h211v393h-211zM391,6l0,105l-271,0l0,-105l28,0l0,35l38,0l0,-35l49,0l0,35l38,0l0,-35l49,0l0,35l38,0l0,-35z" stroke="#000000" stroke-width="12.0" id="path_0"/><path fill="#fec95b" d="M256,250L256,250c-8,0 -14,6 -14,14v39h29V264C270,257 264,250 256,250zM199,165L199,165c-8,0 -14,6 -14,14v39h29v-39C213,172 207,165 199,165z" stroke="#000000" stroke-width="12.0" id="path_1"/><path fill="#fec95b" d="M217,505v-62c0,-11 -9,-20 -20,-20s-20,9 -20,20v62M313,335L313,335c-8,0 -14,6 -14,14v39h29v-39C327,341 321,335 313,335z" stroke="#000000" stroke-width="12.0" id="path_2"/></svg>