<svg id="vector" xmlns="http://www.w3.org/2000/svg" width="24.0d" height="24.0d" viewBox="0 0 512.0 512.0"><path fill="#353640" d="M285,8h-58c-20,0 -37,16 -37,37v28h132V45C322,25 305,8 285,8z" stroke="#000000" stroke-width="12.0" id="path_0"/><path fill="#515262" d="M322,48H189c-27,0 -49,22 -49,49V454c0,27 22,49 49,49h133c27,0 49,-22 49,-49V98C372,70 349,48 322,48z" stroke="#000000" stroke-width="12.0" id="path_1"/><path fill="#ff6465" d="M256,137m-46,0a46,46 0,1 1,93 0a46,46 0,1 1,-93 0" stroke="#000000" stroke-width="12.0" id="path_2"/><path fill="#ffd782" d="M256,276m-46,0a46,46 0,1 1,93 0a46,46 0,1 1,-93 0" stroke="#000000" stroke-width="12.0" id="path_3"/><path fill="#a5eb78" d="M256,414m-46,0a46,46 0,1 1,93 0a46,46 0,1 1,-93 0" stroke="#000000" stroke-width="12.0" id="path_4"/></svg>