<svg id="vector" xmlns="http://www.w3.org/2000/svg" width="24.0d" height="24.0d" viewBox="0 0 682.6 682.6"><path fill="#6f6571" d="m672.6,167.5 l-162,227.7 -70.6,99.2L242.7,494.5L10,167.5c72,-69.7 172.4,-67.3 172.4,-67.3l-33.5,108.8 97,26.9 -40.8,76.8 64.7,19.5 -25.7,60.7 74.6,35.7l45,-0l74.6,-35.7 -24.2,-57.4 -1.4,-3.3 64.7,-19.5 -40.8,-76.8 97,-26.9 -33.5,-108.8c0,-0 100.3,-2.3 172.4,67.3z" stroke-linejoin="round" stroke="#000000" stroke-width="20.0" id="path_0"/><path fill="#f0f4f6" d="m445,531.4c0,-57.2 -46.4,-103.7 -103.7,-103.7 -57.2,-0 -103.7,46.4 -103.7,103.7z" stroke="#000000" stroke-width="20.0" id="path_1"/><path fill="#cce3e8" d="M399.8,531.4C399.8,499 373.6,472.9 341.3,472.9 309,472.9 282.8,499 282.8,531.4Z" stroke="#000000" stroke-width="20.0" id="path_2"/><path fill="#6f6571" d="m533.3,582.5l-383.9,-0c-14,-0 -25.5,-11.4 -25.5,-25.5 0,-14 11.4,-25.5 25.5,-25.5L533.3,531.4c14,-0 25.5,11.4 25.5,25.5C558.8,571 547.4,582.5 533.3,582.5" stroke="#000000" stroke-width="20.0" id="path_3"/></svg>