<svg id="vector" xmlns="http://www.w3.org/2000/svg" width="24.0d" height="24.0d" viewBox="0 0 512.0 512.0"><path fill="#00cc76" d="m453,246c-8,-10 -19,-18 -31,-24 3,-10 5,-21 5,-33 0,-27 -9,-53 -27,-74 -15,-17 -34,-30 -56,-35 -2,-19 -12,-37 -26,-52 -17,-17 -40,-26 -64,-26s-47,9 -64,26c-14,14 -23,32 -26,52 -22,6 -41,18 -56,35 -17,20 -27,47 -27,74 0,11 1,22 5,33 -12,5 -22,13 -31,24 -12,15 -18,34 -18,53 0,47 38,85 85,85h268c47,0 85,-38 85,-85 -0,-19 -6,-38 -18,-53z" id="path_0"/><path fill="#00aa95" d="m476,300c0,-19 -6,-38 -18,-53 -8,-10 -19,-18 -31,-24 3,-10 5,-21 5,-33 0,-27 -9,-53 -27,-74 -15,-17 -34,-30 -56,-35 -2,-19 -12,-37 -26,-52 -17,-17 -40,-26 -64,-26v385h134c47,0 85,-38 85,-85z" id="path_1"/><path fill="#c1674c" d="m322,217 l-21,-21 -33,33v-99h-30v45l-33,-33 -21,21 55,54v65l-33,-33 -21,21 55,54v170h30v-224z" id="path_2"/><path fill="#a5e887" d="m117,482h277v30h-277z" id="path_3"/></svg>