<svg id="vector" xmlns="http://www.w3.org/2000/svg" width="24.0d" height="24.0d" viewBox="0 0 512.0 512.0"><path fill="#afd755" d="M119,220v-72c0,-29 -25,-51 -54,-47l-29,4C19,106 7,119 7,135v28c0,4 3,8 8,8l-0,11c-0,7 4,13 12,15l14,3c3,0 5,3 6,7c2,31 23,178 231,178c176,0 176,-56 176,-56v-16L119,220z" stroke="#000000" stroke-width="12.0" id="path_0"/><path fill="#96be4b" d="M217,329l-65,-48l-17,5c-8,2 -15,10 -16,20l-6,64h-8c-9,0 -18,5 -22,15l-9,24h52c11,0 21,-8 23,-19l8,-42C167,350 202,347 217,329z" stroke="#000000" stroke-width="12.0" id="path_1"/><path fill="#96be4b" d="M368,332v40h-6c-9,0 -18,5 -21,14l-11,25h64c8,0 16,-7 16,-16V332L368,332L368,332z" stroke="#000000" stroke-width="12.0" id="path_2"/><path fill="#af6e5a" d="M119,220c0,0 8,192 365,105c16,-4 24,-23 14,-37C455,219 319,58 119,220z" stroke="#000000" stroke-width="12.0" id="path_3"/><path fill="#965a50" d="M145,200c-8,5 -17,12 -26,19c0,0 8,192 365,105c15,-3 22,-20 16,-33C207,374 155,251 145,200z" stroke="#000000" stroke-width="12.0" id="path_4"/></svg>