<svg id="vector" xmlns="http://www.w3.org/2000/svg" width="24.0d" height="24.0d" viewBox="0 0 512.0 512.0"><path fill="#dad8db" d="m272,24c0,-9 -7,-16 -16,-16 -9,0 -16,7 -16,16v414c0,36 29,66 66,66s66,-29 66,-66v-16c0,-9 -7,-16 -16,-16s-16,7 -16,16v16c0,18 -14,33 -33,33s-33,-14 -33,-33z" stroke="#000000" stroke-width="12.0" id="path_0"/><path fill="#ff8086" d="m338,289c1,0 2,-0 3,-1 16,-23 45,-39 79,-39 34,0 61,16 77,40 0,0 1,1 2,1 1,0 2,-1 2,-2 -1,-136 -112,-245 -248,-245h-0c-136,0 -247,109 -248,245 -0,1 1,2 2,2 0,0 1,-0 2,-1 16,-24 43,-40 77,-40 34,0 62,15 79,39 0,1 2,1 3,1l82,-110z" stroke="#000000" stroke-width="12.0" id="path_1"/><path fill="#ffe07d" d="m173,289c1,-0 2,-0 3,-1 16,-23 45,-39 79,-39h0c34,0 62,15 79,39 0,1 2,1 3,1 0,-137 -37,-248 -82,-248s-82,111 -82,248z" stroke="#000000" stroke-width="12.0" id="path_2"/></svg>