<svg id="vector" xmlns="http://www.w3.org/2000/svg" width="24.0d" height="24.0d" viewBox="0 0 512.0 512.0"><path fill="#e6646e" d="M464,175l23,-7c4,-2 6,-8 2,-12c-12,-13 -41,-42 -82,-60l24,-16c0,0 -2,-5 -8,-8c-37,-14 -146,-39 -224,64l304,240v-144L464,175z" id="path_0"/><path fill="#e6646e" d="M14,16l169,191l56,-64L18,10C15,8 11,13 14,16z" id="path_1"/><path fill="#edebed" d="M272,110c-11,3 -22,9 -32,17L12,331c-3,2 -5,7 -4,11c1,9 7,14 13,16c2,0 4,2 6,5c3,6 8,17 8,17c4,8 14,11 22,7c3,-1 6,-3 9,-5l28,17c4,3 10,3 15,0c24,-12 97,-49 152,-57c11,-1 22,-4 31,-8L360,504l144,-128c-9,-29 -45,-125 -68,-161C409,173 352,87 272,110z" id="path_2"/><path fill="#dbd9dc" d="M272,39v79c0,8 5,16 13,17l15,2c10,2 20,-7 19,-19c-4,-52 -25,-76 -37,-86C278,30 272,33 272,39z" id="path_3"/><path fill="#00c3ff" d="M127,144l40,45l0,-89l-40,-24z" id="path_4"/><path fill="#d4f582" d="M87,99l40,45l0,-68l-40,-24z" id="path_5"/><path fill="#ffc850" d="M18,10c-3,-2 -7,2 -4,5l73,83l0,0V52L18,10z" id="path_6"/><path fill="#000000" d="M305,339c20,-9 37,-25 48,-44c15,-27 17,-60 3,-93c-1,-3 -6,-5 -9,-4c-3,1 -5,6 -4,9c11,28 10,56 -3,80c-15,26 -43,43 -78,48c-54,7 -126,43 -154,57c-2,1 -5,1 -8,-0l-18,-10c14,-10 30,-23 43,-38c2,-3 2,-7 -0,-10c-3,-2 -7,-2 -10,0c-18,20 -43,38 -59,47c-2,1 -4,1 -6,0c-2,-0 -4,-2 -5,-4l-5,-10c1,-0 3,-0 3,-0c4,-1 6,-5 5,-9c-1,-4 -5,-6 -9,-5c-0,0 -11,2 -17,-2c-2,-2 -4,-6 -5,-11l229,-206c6,-5 12,-9 19,-12v7c0,4 3,7 7,7s7,-3 7,-7V44c3,2 7,6 11,11c14,18 21,45 21,79c0,4 3,7 7,7s7,-3 7,-7c0,-5 -0,-10 -0,-14c4,1 8,2 12,4c1,0 2,0 3,0c2,0 5,-1 6,-4c1,-3 0,-8 -3,-9c-7,-3 -14,-5 -21,-7c-2,-15 -6,-27 -10,-37c43,-8 83,1 104,8l-29,15c-2,1 -4,4 -4,7c0,3 2,5 5,6c40,12 76,42 92,56l-26,9c-2,1 -4,3 -4,6s0,5 3,7c0,0 19,13 42,48c1,2 3,3 6,3c1,0 2,-0 4,-1c3,-2 4,-6 2,-10c-14,-22 -27,-36 -36,-44l25,-9c2,-1 4,-3 4,-5c0,-2 -0,-5 -2,-6c-1,-1 -40,-41 -90,-62l28,-15c2,-1 4,-4 4,-6c-0,-2 -1,-5 -4,-6c-2,-1 -63,-28 -132,-14c-14,-22 -32,-28 -33,-29c-2,-0 -4,-0 -6,1s-3,3 -3,6V68c-22,11 -42,27 -59,47L11,1c-3,-1 -7,-1 -9,1c-2,2 -2,7 0,9l155,179L2,330c-1,1 -2,3 -2,5c0,11 3,20 11,26c3,2 6,4 9,4l9,18c2,5 8,10 14,12c2,0 4,1 7,1c3,0 7,-1 11,-2c1,-1 3,-2 6,-3l24,14c3,2 8,3 12,3c3,0 7,-0 10,-2c21,-11 96,-48 150,-56c9,-1 18,-3 26,-6l61,161c1,3 4,4 7,4c0,0 1,-0 2,-0c3,-1 5,-5 4,-9L305,339zM264,85v18c-10,3 -20,9 -29,17c-0,0 -0,0 -0,0l-8,7l-8,-5C232,108 247,95 264,85zM43,37l171,102l-46,41L43,37z" id="path_7"/><path fill="#000000" d="M511,369c-0,-0 -14,-43 -38,-94c-32,-68 -65,-117 -99,-145c-3,-2 -8,-2 -10,1c-2,3 -2,8 1,10c76,63 132,231 132,232c1,3 4,5 7,5c0,0 1,-0 2,-0C510,378 513,373 511,369z" id="path_8"/><path fill="#000000" d="M259,202c-4,3 -11,6 -19,6s-14,-2 -19,-6c-3,-2 -7,-2 -10,0c-2,3 -2,7 0,10c7,6 17,10 29,10s22,-3 29,-10c3,-2 3,-7 0,-10C266,199 262,199 259,202z" id="path_9"/></svg>