<svg id="vector" xmlns="http://www.w3.org/2000/svg" width="24.0d" height="24.0d" viewBox="0 0 512.0 512.0"><path fill="#f1f4f6" d="m454,452 l-198,30 -198,-29v-253c0,-109 89,-198 198,-198 109,0 198,89 198,198z" id="path_0"/><path fill="#dddaec" d="m320,12c-78,26 -134,101 -134,188v253h-129v-253c0,-109 89,-198 198,-198 22,-0 44,3 64,10z" id="path_1"/><path fill="#9dc6fb" d="m471,452h-431c-16,0 -30,13 -30,30 0,16 13,30 30,29h431c16,0 30,-13 30,-30 -0,-16 -13,-30 -30,-29z" id="path_2"/><path fill="#80b4fb" d="m138,503c5,5 13,8 21,8h-119c-8,0 -15,-3 -21,-8 -5,-5 -8,-13 -8,-21 0,-16 13,-30 30,-29h119c-16,0 -30,13 -30,30 0,8 3,15 8,21z" id="path_3"/></svg>