<svg id="vector" xmlns="http://www.w3.org/2000/svg" width="24.0d" height="24.0d" viewBox="0 0 512.0 512.0"><path fill="#6e7093" d="m397,185h-24c-15,-11 -28,-26 -29,-34 -0,-5 4,-18 7,-32 3,-16 5,-32 -0,-38 -5,-4 -15,0 -28,8 -17,9 -39,23 -66,23 -26,0 -49,-13 -66,-23 -13,-7 -22,-12 -28,-8 -6,5 -4,22 -0,38 3,14 7,28 7,32 -0,8 -14,23 -29,34h-24c-6,-36 7,-120 40,-153 25,-25 77,-30 98,-30h6c21,0 73,5 98,30 33,33 47,117 40,153z" id="path_0"/><path fill="#e59f6a" d="m349,204c12,-12 45,-42 60,-56 3,-2 7,-0 7,3 -0,23 -3,79 -18,97 -19,23 -61,4 -60,0 0,-4 -8,-26 11,-45z" id="path_1"/><path fill="#e59f6a" d="m162,204c-12,-12 -45,-42 -60,-56 -3,-2 -7,-0 -7,3 0,23 3,79 18,97 19,23 61,4 60,0 -0,-4 8,-26 -11,-45z" id="path_2"/><path fill="#6e7093" d="m405,418v88c0,2 -2,4 -4,4h-290c-2,0 -4,-2 -4,-4v-88c0,-23 14,-45 37,-53l112,-42 112,42c22,8 37,29 37,53z" id="path_3"/><path fill="#4e5173" d="M367,468v43h-15v-43c0,-4 3,-7 7,-7 4,0 7,3 7,7zM367,468M160,468v43h-15v-43c0,-4 3,-7 7,-7s7,3 7,7z" id="path_4"/><path fill="#ed6161" d="m256,277 l-0,-0c-0,0 -0,0 -0,0 -0,0 -0,0 -0,0 -0,0 -0,-0 -0,-0 -0,0 -0,0 -0,0l-0,0c-69,0 -147,13 -167,34 79,39 168,128 168,132 0,-3 87,-92 167,-132 -19,-21 -97,-34 -167,-34zM255,277c-0,0 -0,0 -0,0 -0,0 -0,0 0,-0zM256,277c-0,0 -0,0 -0,0v-0c0,0 0,0 0,0z" id="path_5"/><path fill="#f9c295" d="m375,198c0,74 -53,134 -119,134s-119,-60 -119,-134c0,-4 0,-8 0,-13 0,-0 1,-1 2,-1 15,-11 28,-26 29,-34 0,-5 -4,-18 -7,-32 -3,-16 -5,-32 0,-38 5,-4 15,0 28,8 17,9 39,23 66,23 26,0 49,-13 66,-23 13,-7 22,-12 28,-8 6,5 4,22 0,38 -3,14 -7,28 -7,32 0,8 14,23 29,34 0,0 1,1 2,1 0,4 0,8 0,13z" id="path_6"/><path fill="#e6eff5" d="M306,292 l-32,-27c10,-2 20,-6 28,-12l8,36c0,3 -2,5 -5,3zM237,265 l-32,27c-2,2 -5,-0 -5,-3l8,-36c8,6 18,10 28,12z" id="path_7"/><path fill="#6e7093" d="m255,275c-6,0 -12,-0 -18,-2l-0,-0c-0,-0 -1,-0 -1,-0 -11,-2 -21,-7 -31,-14 -2,-2 -5,-4 -8,-6 -3,-2 -3,-7 -0,-10 2,-3 7,-3 10,-0 2,2 4,3 7,5 8,5 17,9 26,11 0,0 1,0 1,0l0,0c9,2 20,2 30,-0l0,-0c0,-0 0,-0 1,-0 9,-2 18,-6 26,-11 2,-1 4,-3 7,-5 3,-2 8,-2 10,0 2,3 2,8 -0,10 -2,2 -5,4 -8,6 -9,6 -20,11 -31,13 -0,0 -1,0 -1,0l-0,0c-6,1 -12,2 -18,2z" id="path_8"/><path fill="#363b51" d="M309,200c-4,0 -7,-3 -7,-7v-1c0,-4 3,-7 7,-7 4,0 7,3 7,7v1c0,4 -3,7 -7,7zM202,200c-4,0 -7,-3 -7,-7v-1c0,-4 3,-7 7,-7 4,0 7,3 7,7v1c0,4 -3,7 -7,7z" id="path_9"/></svg>