<svg id="vector" xmlns="http://www.w3.org/2000/svg" width="24.0d" height="24.0d" viewBox="0 0 512.0 512.0"><path fill="#ffd6c1" d="m330,32h-187c-12,0 -22,-10 -22,-22 -23,0 -42,19 -42,42 0,23 19,42 42,42 -28,0 -42,23 -42,51h357v-9c0,-57 -46,-104 -104,-104z" stroke="#000000" stroke-width="12.0" id="path_0"/><path fill="#f9f9f9" d="m502,220v126c0,72 -48,136 -118,155h-256l-0,-0c-69,-19 -118,-83 -118,-155v-126c0,-14 11,-25 25,-25h440c14,0 25,11 25,25z" stroke="#000000" stroke-width="12.0" id="path_1"/><path fill="#79b2ff" d="m119,258h274v178h-274z" stroke="#000000" stroke-width="12.0" id="path_2"/><path fill="#bdd9ff" d="m64,146h384v48h-384z" stroke="#000000" stroke-width="12.0" id="path_3"/><path fill="none" d="M193,328h126M193,387h126" stroke-linecap="round" stroke="#000000" stroke-width="16.0" id="path_4"/></svg>