<svg id="vector" xmlns="http://www.w3.org/2000/svg" width="24.0d" height="24.0d" viewBox="0 0 512.0 511.0"><path fill="#4caf50" d="m256,300c-4,-0 -8,-0 -13,-0 -53,0 -98,30 -121,74 -4,-0 -9,-1 -14,-1 -40,0 -74,23 -89,58h253" stroke="#000000" stroke-width="12.0" id="path_0"/><path fill="#e6e6e6" d="m108,373c4,0 9,0 14,1 13,-26 35,-48 62,-61v-44l-42,-42 28,-28 14,14v-72l-14,14 -28,-28 6,-6h-56l6,6 -28,28 -14,-14v72l14,-14 28,28 -42,42v117h3c14,-8 30,-12 48,-12z" stroke="#000000" stroke-width="12.0" id="path_1"/><path fill="none" d="M45,100,l112,112 M194,100,l-112,112" stroke="#000000" stroke-width="16.0" id="path_2"/><path fill="#d38a5a" d="m18,432c-5,12 -8,25 -8,40h491c0,-4 0,-8 0,-12 0,-9 -1,-18 -3,-27" stroke="#000000" stroke-width="12.0" id="path_3"/><path fill="#4caf50" d="m462,432h36c-6,-23 -17,-44 -36,-58" stroke="#000000" stroke-width="12.0" id="path_4"/><path fill="#fcc595" d="m366,254 l-94,69 0,108h188v-108z" stroke="#000000" stroke-width="12.0" id="path_5"/><path fill="#d38a5a" d="m340,377h52v54h-52z" stroke="#000000" stroke-width="12.0" id="path_6"/><path fill="#ff5046" d="m475,334 l-109,-80 -109,80v-54l109,-80 109,80z" stroke="#000000" stroke-width="12.0" id="path_7"/><path fill="#f7bb50" d="M142,226 l28,-28 57,57 -28,28z M13,96 l28,-28 57,57 -28,28z M142,125 l57,-57 28,28 -57,57z M13,255 l57,-57 28,28 -57,57z" stroke="#000000" stroke-width="12.0" id="path_8"/><path fill="#ff5046" d="M92,119h56l20,-20 -48,-58 -48,58z" stroke="#000000" stroke-width="12.0" id="path_9"/></svg>