<svg id="vector" xmlns="http://www.w3.org/2000/svg" width="24.0d" height="24.0d" viewBox="0 0 512.0 512.0"><path fill="#efeec5" d="m382,423c-4,0 -7,-3 -7,-7v-389c0,-4 3,-7 7,-7 4,0 7,3 7,7v389c0,4 -3,7 -7,7z" id="path_0"/><path fill="#93544c" d="m406,493c-4,0 -7,-3 -7,-7v-435c0,-6 -3,-11 -9,-13l-9,-4c-4,-1 -5,-6 -4,-10 1,-4 6,-5 10,-4l9,4c11,4 18,15 18,27v435c0,4 -3,7 -7,7z" id="path_1"/><path fill="#93544c" d="m376,431 l30,13v-29h-28c-3,0 -5,2 -5,5v5c0,2 1,4 3,5z" id="path_2"/><path fill="#93544c" d="m406,453c-1,0 -2,-0 -3,-0l-30,-13c-4,-2 -7,-6 -7,-11v-5c0,-7 5,-13 13,-13h28c4,0 7,3 7,7v29c0,2 -1,5 -3,6 -1,0 -2,1 -4,1zM380,425 L398,433v-10h-18z" id="path_3"/><path fill="#c47f6a" d="m320,385c-0,-4 -3,-7 -7,-8 -20,-5 -36,-24 -38,-47 -2,-22 9,-43 28,-52 3,-2 6,-6 5,-10l-2,-27c-3,-35 -33,-62 -69,-62h-48c-35,0 -65,26 -69,62l-2,27c-0,4 1,8 5,10 18,9 30,30 28,52 -2,23 -18,41 -38,47 -4,1 -7,4 -7,8l-3,34c-5,49 33,91 82,91h59c49,0 87,-42 82,-91z" id="path_4"/><path fill="#93544c" d="m324,420 l-3,-34c-0,-4 -3,-7 -7,-8 -20,-5 -36,-24 -38,-47 -2,-22 9,-43 28,-52 3,-2 6,-6 5,-10l-2,-27c-3,-35 -33,-62 -69,-62h-26c35,0 65,26 69,62l2,27c0,4 -1,8 -5,10 -18,9 -30,30 -28,52 2,23 18,41 38,47 4,1 7,4 7,8l3,34c5,49 -33,91 -82,91h26c49,0 87,-42 82,-91z" id="path_5"/><path fill="#93544c" d="m276,435c-2,0 -4,-0 -6,-1 -3,-1 -6,-5 -7,-9l-12,-43 -2,0c-4,1 -8,-0 -9,-4 -1,-4 0,-8 4,-9l2,-1c3,-1 8,-1 11,1 3,2 6,5 7,9l12,43 4,-1c4,-1 8,0 10,4 1,4 -0,8 -4,9l-4,1c-1,0 -3,1 -5,1z" id="path_6"/><path fill="#93544c" d="m147,435c-1,0 -3,-0 -5,-1l-4,-1c-4,-1 -6,-6 -4,-9 1,-4 6,-6 10,-4l4,1 12,-43c1,-4 3,-7 7,-9 3,-2 7,-2 11,-1l2,1c4,1 6,5 4,9 -1,4 -5,6 -9,4l-2,-0 -12,43c-1,4 -4,7 -7,9 -2,1 -4,1 -6,1z" id="path_7"/><path fill="#93544c" d="m248,47h-26c-4,0 -7,-3 -7,-7 0,-4 3,-7 7,-7h26c4,0 7,3 7,7 0,4 -3,7 -7,7z" id="path_8"/><path fill="#93544c" d="m248,67h-26c-4,0 -7,-3 -7,-7s3,-7 7,-7h26c4,0 7,3 7,7s-3,7 -7,7z" id="path_9"/><path fill="#93544c" d="m198,47h-23c-4,0 -7,-3 -7,-7 0,-4 3,-7 7,-7h23c4,0 7,3 7,7 0,4 -3,7 -7,7z" id="path_10"/><path fill="#93544c" d="m198,67h-23c-4,0 -7,-3 -7,-7s3,-7 7,-7h23c4,0 7,3 7,7s-3,7 -7,7z" id="path_11"/><path fill="#4a4a68" d="m227,72h-32l-13,229c-0,6 4,10 10,10h37c6,0 10,-5 10,-10z" id="path_12"/><path fill="#c47f6a" d="m195,29h31v43h-32z" id="path_13"/><path fill="#efeec5" d="m235,403h-46c-4,0 -7,-3 -7,-7s3,-7 7,-7h46c4,0 7,3 7,7s-3,7 -7,7z" id="path_14"/><path fill="#4a4a68" d="m238,429c-18,3 -36,3 -54,0 -3,-0 -6,1 -6,5v5c0,4 1,8 5,11l11,10c3,3 5,7 5,11v39h22v-39c0,-4 1,-8 5,-11l11,-10c3,-3 5,-7 5,-11v-5c0,-3 -3,-5 -6,-5z" id="path_15"/><path fill="#93544c" d="m226,0h-28c-8,0 -15,7 -15,15 0,8 7,15 15,15h28c8,0 15,-7 15,-15 0,-8 -7,-15 -15,-15z" id="path_16"/></svg>