<svg id="vector" xmlns="http://www.w3.org/2000/svg" width="24.0d" height="24.0d" viewBox="0 0 512.0 512.0"><path fill="#8c4a50" d="m376,262h-15c-23,0 -42,19 -42,42v8c0,7 -5,12 -12,12 -3,0 -6,-1 -9,-3s-3,-5 -3,-8v-8c0,-23 -19,-42 -42,-42s-42,19 -42,42v40c0,7 -5,12 -12,12 -3,0 -6,-1 -9,-3 -2,-2 -3,-5 -3,-8v-40c0,-23 -19,-42 -42,-42h-15l-117,234h485z" id="path_0"/><path fill="#66333e" d="m381,262h-15c-23,0 -42,19 -42,42v8c0,7 -5,12 -12,12 -3,0 -6,-1 -9,-3s-3,-5 -3,-8v-8c0,-23 -19,-42 -42,-42v234h242z" id="path_1"/><path fill="#00aa95" d="m0,482h512v30h-512z" id="path_2"/><path fill="#ff7c48" d="M334,168h-157l-62,124h30c7,0 12,5 12,12v40c0,11 4,22 12,30 8,8 18,12 30,12 23,-0 42,-19 42,-42v-40c0,-7 5,-12 12,-12s12,5 12,12v8c0,23 19,42 42,42 23,-0 42,-19 42,-42v-8c0,-7 5,-12 12,-12h30z" id="path_3"/><path fill="#ff7c48" d="M241,0h30v30h-30zM241,55h30v66h-30zM211,143h-30v-65c0,-8 -6,-15 -15,-15s-15,6 -15,15v9h-30v-9c0,-24 20,-45 45,-45s45,20 45,45zM331,143h-30v-65c0,-24 20,-45 45,-45s45,20 45,45v9h-30v-9c0,-8 -6,-15 -15,-15s-15,6 -15,15z" id="path_4"/><path fill="#ffb655" d="M361,113h30v30h-30zM411,163h30v30h-30zM121,113h30v30h-30zM71,163h30v30h-30z" id="path_5"/><path fill="#ff7c48" d="m361,113h30v30h-30z" id="path_6"/><path fill="#ff7c48" d="m411,163h30v30h-30z" id="path_7"/><path fill="#ff415b" d="M331,143h-30v-65c0,-24 20,-45 45,-45s45,20 45,45v9h-30v-9c0,-8 -6,-15 -15,-15s-15,6 -15,15zM256,0h15v30h-15z" id="path_8"/><path fill="#008285" d="m256,482h256v30h-256z" id="path_9"/><path fill="#ff415b" d="M256,55h15v66h-15zM264,305v8c0,23 19,42 42,42 23,-0 42,-19 42,-42v-8c0,-7 5,-12 12,-12h30l-62,-124h-78v124c7,0 12,5 12,12z" id="path_10"/></svg>