<svg id="vector" xmlns="http://www.w3.org/2000/svg" width="24.0d" height="24.0d" viewBox="0 0 503.0 503.0"><path fill="#54c9fd" d="M251,8v276h209c18,0 33,22 33,50L495,8L251,8z" stroke="#000000" stroke-width="12.0" id="path_0"/><path fill="#33a9f8" d="M495,319l-25,-25L470,8h25L495,319z" stroke="#000000" stroke-width="12.0" id="path_1"/><path fill="#ffdd09" d="M218,386c-18,0 -33,-22 -33,-50c0,-27 15,-50 33,-50h33L251,8L8,8v486h243L251,386L218,386z" stroke="#000000" stroke-width="12.0" id="path_2"/><path fill="#ffffff" d="M8,495h25L33,8L8,8L8,495z" stroke="#000000" stroke-width="12.0" id="path_3"/><path fill="#33a9f8" d="M495,335c0,27 -15,50 -33,50s-33,-22 -33,-50c0,-27 15,-50 33,-50S495,308 495,335" stroke="#000000" stroke-width="12.0" id="path_4"/><path fill="#54c9fd" d="M428,335c0,-27 15,-50 33,-50h-243c-18,0 -33,22 -33,50c0,27 15,50 33,50h243C443,386 428,363 428,335" stroke="#000000" stroke-width="12.0" id="path_5"/></svg>