<svg id="vector" xmlns="http://www.w3.org/2000/svg" width="24.0d" height="24.0d" viewBox="0 0 512.0 512.0"><path fill="#db5446" d="M10,256h163v100h-163zM337,256h163v100h-163zM95,356h156v100h-156zM416,356h84v100h-85zM174,54h163v100h-163zM252,155h163v100h-163zM10,155h84v100h-85z" stroke="#000000" stroke-width="12.0" id="path_0"/><path fill="#b0483e" d="M174,256h163v100h-163zM252,356h163v100h-163zM10,356h84v100h-85zM10,155V54h163v100H10zM337,54h163v100h-163zM95,155h156v100h-156zM416,155h84v100h-85z" stroke="#000000" stroke-width="12.0" id="path_1"/></svg>