<svg id="vector" xmlns="http://www.w3.org/2000/svg" width="24.0d" height="24.0d" viewBox="0 0 512.0 512.0"><path fill="#665e66" d="m60,200c8,-15 13,-32 17,-50 16,-80 89,-140 178,-140s162,60 178,140c3,17 9,34 17,50 14,28 23,59 23,93 0,115 -97,208 -218,208 -120,0 -218,-93 -218,-208 -0,-33 8,-65 23,-93z" stroke="#000000" stroke-width="12.0" id="path_0"/><path fill="#f9f6f9" d="m195,371c-1,39 19,74 11,86 -4,5 -19,3 -34,-11 -15,-14 -30,-41 -29,-74 -0,-32 14,-59 29,-74 15,-14 30,-17 34,-11 8,11 -13,46 -11,86z" stroke="#000000" stroke-width="12.0" id="path_1"/><path fill="#f9f6f9" d="m316,371c1,39 -19,74 -11,86 4,5 19,3 34,-11 15,-14 30,-41 29,-74 0,-32 -14,-59 -29,-74 -15,-14 -30,-17 -34,-11 -8,11 13,46 11,86z" stroke="#000000" stroke-width="12.0" id="path_2"/><path fill="#454045" d="M256,341m-43,0a43,43 0,1 1,86 0a43,43 0,1 1,-86 0" stroke="#000000" stroke-width="12.0" id="path_3"/><path fill="#e4936b" d="m303,218c4,-0 8,-0 13,-0 47,0 85,32 85,72s-38,72 -85,72c-23,0 -45,-8 -60,-21 -15,13 -36,21 -60,21 -47,0 -85,-32 -85,-72s38,-72 85,-72c4,0 9,0 13,0" stroke="#000000" stroke-width="12.0" id="path_4"/><path fill="#454045" d="M204,232a51,34 0,1 0,102 0a51,34 0,1 0,-102 0z" stroke="#000000" stroke-width="12.0" id="path_5"/><path fill="#000000" d="m137,212c12,0 22,-15 22,-34s-10,-34 -22,-34c-12,0 -22,15 -22,34s10,34 22,34z" id="path_6"/><path fill="#000000" d="m395,178c0,-18 -10,-34 -22,-34 -12,0 -22,15 -22,34s10,34 22,34c12,0 22,-15 22,-34z" id="path_7"/></svg>