<svg id="vector" xmlns="http://www.w3.org/2000/svg" width="24.0d" height="24.0d" viewBox="0 0 512.0 512.0"><path fill="#a3e0fb" d="m414,296c1,9 2,18 2,28 0,97 -78,176 -176,176s-176,-78 -176,-176c0,-39 12,-75 34,-104l0,-0 141,-210 90,134" stroke="#000000" stroke-width="12.0" id="path_0"/><path fill="#4696e6" d="m288,233c0,-17 5,-33 15,-46l0,-0 63,-94 63,94 0,0c9,13 15,29 15,46 0,43 -35,78 -78,78s-78,-35 -78,-78z" stroke="#000000" stroke-width="12.0" id="path_1"/><path fill="#000000" d="m199,439c-49,-15 -82,-60 -82,-112 0,-25 8,-49 22,-69 0,-0 0,-1 1,-1 2,-5 0,-11 -4,-13 -4,-2 -9,-0 -12,3 -17,23 -26,51 -26,81 0,29 9,58 27,82 17,23 41,40 69,49 1,0 2,0 3,0 4,0 8,-2 9,-7 1,-5 -1,-10 -6,-12z" id="path_2"/><path fill="#000000" d="m331,231c0,-4 1,-9 3,-13 2,-5 -0,-11 -5,-13 -5,-2 -11,0 -13,5 -3,7 -4,14 -4,22 0,18 9,35 24,45 1,1 3,1 5,1 3,0 6,-1 8,-4 3,-4 1,-10 -2,-13 -9,-6 -15,-17 -15,-28z" id="path_3"/><path fill="#000000" d="m236,453c-2,-6 -11,-8 -16,-3 -5,5 -2,15 5,16 7,1 14,-6 11,-13z" id="path_4"/><path fill="#000000" d="m361,285c6,4 15,-0 15,-8 0,-7 -9,-12 -15,-8 -5,3 -5,13 0,16z" id="path_5"/></svg>