<svg id="vector" xmlns="http://www.w3.org/2000/svg" width="24.0d" height="24.0d" viewBox="0 0 682.6 682.6"><path fill="#b1abb4" d="M372.5,351C352.9,348.4 329.7,348.4 310,351 81,381.5 -31,672.6 123.6,672.6L558.9,672.6C714,672.6 601,381.5 372.5,351" stroke="#000000" stroke-width="20.0" id="path_0"/><path fill="#e0dde1" d="m587,426c-10,-19.7 -53,-90 -167,-123.8l-156.7,-0C148.6,336 105.6,406.5 95.5,426c-1.4,2.8 -0,6 2.7,7.5l37.8,16 -5.8,37.6c-0.5,3.7 2.7,6.9 6.4,6l44.7,-8.6 12,54c0.8,3.9 5.6,5.6 8.8,3l28,-22.8c0,-0 40.4,69.7 109,94.9 1,0.4 2.5,0.4 3.7,-0 68.6,-25 109,-94.9 109,-94.9l28,22.8c3,2.5 7.9,0.9 8.8,-3l12,-54 44.7,8.6c3.7,0.7 7,-2.4 6.4,-6l-5.8,-37.6 37.8,-16C587,432.5 588.5,429 587,426" stroke="#000000" stroke-width="20.0" id="path_1"/><path fill="#766d78" d="m497,11c-32,14.9 -59.9,41 -64.7,75l38.9,97C511.9,154.9 532.7,69.7 514,18 511.7,11 503.7,8 497,11" stroke="#000000" stroke-width="20.0" id="path_2"/><path fill="#766d78" d="M185.5,11C217.6,26 245.5,52 250,86.4L211.4,183.7C170.6,154.9 149.8,69.7 168.4,18 170.9,11 178.9,8 185.5,11" stroke="#000000" stroke-width="20.0" id="path_3"/><path fill="#b1abb4" d="m341,475.9c-36.6,-0 -65,-4 -87.4,-30.9 -23.5,-28.5 -25.7,-77.7 -25.7,-77.7l-54,2.4c-2.8,0 -5,-2.6 -4,-5.4l18.4,-55 -55.7,-14.6c-2.9,-0.7 -4,-4 -2,-6.6l29,-33 -39,-38.5c-2,-2.2 -1,-5.9 1.7,-6.8 16,-4.7 55.6,-17.7 61,-33.4 41.5,-114.8 104.4,-143 150.5,-131.8 4.9,1 10,1 15,-0 46,-11.5 109,17 150.5,131.8 5.6,15.7 45,28.7 61,33.4 3,0.8 3.9,4.6 1.7,6.8l-39,38.5 29,33c2,2.3 0.9,5.9 -2,6.6l-55.7,14.6 18.4,55c0.9,2.7 -1.2,5.5 -4,5.4l-54,-2.4c0,-0 -2,49 -25.7,77.7C406.6,471.8 377.9,475.9 341,475.9" stroke="#000000" stroke-width="20.0" id="path_4"/><path fill="#f7f3f1" d="M240.8,202.5 l47.4,37c3,2.4 2.8,7 -0.6,9 -12,7 -38,19.8 -51.5,5.9 -13,-13.4 -8,-37 -4,-49.6C233.1,201.5 237.7,200 240.8,202.5 M441.8,202.5 l-47.4,37c-3,2.4 -2.8,7 0.6,9 12,7 38,19.8 51.5,5.9 13,-13.4 8,-37 4,-49.6C449.5,201.5 444.9,200 441.8,202.5" stroke="#000000" stroke-width="20.0" id="path_5"/><path fill="#766d78" d="m377.9,364c0,23 -73.3,23 -73.3,-0 0,-23 23.6,-46 36.6,-46C354,317.9 377.9,341 377.9,364" stroke="#000000" stroke-width="20.0" id="path_6"/><path fill="none" d="M134.4,672.6C122.4,647 122.8,607 133.7,563.7 M548.8,563.7C559.7,607 560,647 548,672.6" stroke="#000000" stroke-width="20.0" id="path_7"/></svg>