<svg id="vector" xmlns="http://www.w3.org/2000/svg" width="24.0d" height="24.0d" viewBox="0 0 512.0 512.0"><path fill="#137bd8" d="M502,56c-1,-3 -4,-6 -8,-5c-10,2 -30,9 -42,29c-0,1 -1,3 -2,4c-0,-1 -1,-3 -2,-4c-12,-19 -32,-27 -42,-29c-3,-1 -7,1 -8,5c-2,10 -5,31 5,51c6,9 14,16 21,21c2,1 3,4 3,7c-15,79 -117,82 -117,82H67c-41,0 -70,41 -56,80c32,90 119,154 220,154c128,-0 234,-107 234,-236v-78c0,-2 1,-5 3,-6c9,-4 19,-12 26,-23C507,87 504,66 502,56z" stroke="#000000" stroke-width="12.0" id="path_0"/><path fill="#e8e8ea" d="M316,436c-26,10 -55,16 -85,16c-101,0 -187,-64 -220,-153H118c39,0 77,15 105,43L316,436z" stroke="#000000" stroke-width="12.0" id="path_1"/><path fill="#137bd8" d="M241,359c0,0 4,54 50,85c37,22 78,15 93,11c3,-1 5,-4 5,-8c-2,-15 -12,-55 -49,-79C292,340 241,359 241,359z" stroke="#000000" stroke-width="12.0" id="path_2"/><path fill="#000000" d="M154,262m-10,0a10,10 0,1 1,21 0a10,10 0,1 1,-21 0" id="path_3"/><path fill="#000000" d="M69,141c4,0 7,-3 7,-7v-16c0,-12 9,-21 21,-21c11,0 20,8 21,19c-0,0 -0,63 -0,63c0,4 3,7 7,7c0,0 0,-0 0,-0c0,0 0,0 0,0c4,0 7,-3 7,-7c0,0 -0,-62 -0,-63c1,-10 10,-19 21,-19c12,0 21,9 21,21V134c0,4 3,7 7,7s7,-3 7,-7v-16c0,-20 -16,-36 -36,-36c-11,0 -22,5 -29,14c-6,-8 -17,-14 -29,-14c-20,0 -36,16 -36,36V134C61,138 64,141 69,141z" id="path_4"/></svg>