<svg id="vector" xmlns="http://www.w3.org/2000/svg" width="24.0d" height="24.0d" viewBox="0 0 512.0 512.0"><path fill="#ffb454" d="m15,512c-3.8,0 -7.6,-1.4 -10.6,-4 -5.8,-5.8 -5.8,-15 0,-21l330,-330c5.8,-5.8 15,-5.8 21,0s5.8,15 0,21l-330,330c-3,3 -6.7,4 -10.6,4.3z" id="path_0"/><path fill="#ffdd54" d="m445,81.8c-3.8,0 -7.6,-1.4 -10.6,-4 -5.8,-5.8 -5.8,-15 0,-21l42.4,-42.4c5.8,-5.8 15,-5.8 21,0s5.8,15 0,21l-42.4,42.4c-3,3 -6.7,4 -10.6,4.3z" id="path_1"/><path fill="#ffdd54" d="m348.5,181.8c-2,0 -3.8,-0 -4,-0 -7.6,-0.4 -13.7,-6.5 -14,-14 -0,-2 -2.6,-54 29,-86 32,-32 84,-29.4 86,-29 7.6,0.4 13.7,6.5 14,14 0,2 2.6,54 -29,86 -27,27 -68.8,29.4 -82,29.4z" id="path_2"/><path fill="#ffb454" d="m465.6,188.8c-1.4,-1.6 -36.6,-40 -81.7,-40 -8,0 -16,1 -24,3.4 2,-7.5 3.4,-15.5 3.4,-24 0,-45 -38.6,-80 -40,-81.7 -5.6,-5 -14,-5 -20,0 -1.6,1.4 -40,36.6 -40,81.7 0,42.8 34.7,76.6 39.7,81 4.6,5 38.4,39.7 81,39.7 45,0 80,-38.6 81.7,-40 5,-5.6 5,-14 0,-20z" id="path_3"/><path fill="#ffdd54" d="m407,247c-1.4,-1.6 -36.6,-40 -81.7,-40 -8,0 -16,1 -24,3.4 2,-7.5 3.4,-15.5 3.4,-24 0,-45 -38.6,-80 -40,-81.7 -5.6,-5 -14,-5 -20,0 -1.6,1.4 -40,36.6 -40,81.7 0,42.8 34.8,76.6 39.7,81 4.6,5 38.4,39.7 81,39.7 45,0 80,-38.6 81.7,-40 5,-5.6 5,-14 0,-20z" id="path_4"/><path fill="#ffb454" d="m349,305.5c-1.4,-1.6 -36.6,-40 -81.7,-40 -8,0 -16,1 -24,3.4 2,-7.5 3.4,-15.5 3.4,-24 0,-45 -38.6,-80 -40,-81.7 -5.6,-5 -14,-5 -20,0 -1.6,1.4 -40,36.6 -40,81.7 0,42.8 34.7,76.6 39.7,81 4.6,5 38.4,39.7 81,39.7 45,0 80,-38.6 81.7,-40 5,-5.6 5,-14 0,-20z" id="path_5"/><path fill="#ffdd54" d="m290.6,363.8c-1.4,-1.6 -36.6,-40 -81.7,-40 -8,0 -16,1 -23.8,3.4 2,-7.5 3.4,-15.5 3.4,-23.8 0,-45 -38.6,-80 -40,-81.7 -5.6,-5 -14,-5 -20,0 -1.6,1.4 -40,36.6 -40,81.7 0,42.8 34.7,76.6 39.7,81 4.6,5 38.4,39.7 81,39.7 45,0 80,-38.6 81.7,-40 5,-5.6 5,-14 0,-20z" id="path_6"/></svg>