<svg id="vector" xmlns="http://www.w3.org/2000/svg" width="24.0d" height="24.0d" viewBox="0 0 512.0 512.0"><path fill="#576574" d="m255,8.7c-137,0 -248.4,111 -248.4,248.4 0,137 111,248.4 248.4,248.4 137,0 248.4,-111 248.4,-248.4 0,-137 -111,-248.4 -248.4,-248.4zM255,416.8c-88,0 -159.6,-71.6 -159.6,-159.6 0,-88 71.6,-159.6 159.6,-159.6 88,0 159.6,71.6 159.6,159.6 0,88 -71.6,159.6 -159.6,159.6zM255,416.8" stroke="#000000" stroke-width="12.0" id="path_0"/><path fill="none" d="M268,256L384,256M266,262L366,320M261,266L319,366M256,268L256,384M250,266L192,366M246,261L146,319M244,256L128,256M246,250L146,192M251,246L193,146M256,244L256,128M262,246L320,146M266,251L366,193" stroke="#ee5253" stroke-width="12.0" id="path_1"/><path fill="#ff6b6b" d="m255,97c-88,0 -160,71.8 -160,160 0,88 71.8,160 160,160 88,0 160,-71.8 160,-160 0,-88 -71.8,-160 -160,-160zM255,386.6c-71,0 -129.4,-58 -129.4,-129.4 0,-71 58,-129.4 129.4,-129.4 71,0 129.4,58 129.4,129.4 0,71 -58,129.4 -129.4,129.4z" stroke="#000000" stroke-width="16.0" id="path_2"/><path fill="#e4eaf8" d="m255,196.6c-33,0 -60.4,27 -60.4,60.4 0,33 27,60.4 60.4,60.4 33,0 60.4,-27 60.4,-60.4 0,-33 -27,-60.4 -60.4,-60.4z" stroke="#000000" stroke-width="8.0" id="path_3"/><path fill="#c7d2e5" d="m255,218c-21.5,0 -39,17.5 -39,39 0,21.5 17.5,39 39,39 21.5,0 39,-17.5 39,-39 0,-21.5 -17.5,-39 -39,-39z" stroke="#000000" stroke-width="8.0" id="path_4"/><path fill="#bac7db" d="m271,254.4 l-5.5,-9.6c-1,-1.6 -2.7,-2.7 -4.7,-2.7h-11c-2,0 -3.7,1 -4.7,2.7l-5.6,9.6c-1,1.6 -1,3.7 0,5.4l5.6,9.6c1,1.6 2.7,2.7 4.7,2.7h11c2,0 3.7,-1 4.7,-2.7l5.5,-9.6c1,-1.6 1,-3.7 0,-5.4z" stroke="#000000" stroke-width="8.0" id="path_5"/></svg>