<svg id="vector" xmlns="http://www.w3.org/2000/svg" width="24.0d" height="24.0d" viewBox="0 0 512.0 512.0"><path fill="#fa4087" d="M106,127.5v294h30c66,-66 173.6,-66 240,0h30v-294z" id="path_0"/><path fill="#fa4087" d="M498.5,337 l-62.7,-198c-24,-75.6 -94,-130.6 -177.7,-131.4l148,175.8v246l-29.7,75c70,-0.6 128,-58 128,-128.4 0,-13.5 -2,-26.6 -6,-38.8z" id="path_1"/><path fill="#fa71a3" d="m136,459.5v-278.5l120,-173.5c-84,0 -155.5,55 -179.7,131.4l-62.7,198c-3.8,12 -6,25 -6,38.8 0,71 57.5,128.5 128.5,128.5 12.4,0 22.5,-10 22.5,-22.5s-10,-22.5 -22.5,-22.5z" id="path_2"/><path fill="#fa71a3" d="m474.5,376c0,-13.5 -1.8,-26.6 -5,-38.8l-55,-198c-21,-75.5 -82.8,-130.5 -156,-131.4h-1l119,173.4v278.5c-12.4,0 -22.5,10 -22.5,22.5s10,22.4 22.7,22.4c53.8,-0.8 98,-58 98,-128.4z" id="path_3"/><path fill="#f9a3bf" d="m256,7.5c-66,0 -120,53.7 -120,120v60h240v-60c0,-66 -53.7,-120 -120,-120z" id="path_4"/><path fill="#000000" d="m505.6,334.8 l-62.7,-198c-12.4,-39 -36.6,-73 -70,-98 -34,-25 -74,-38.6 -116.8,-38.6s-82.8,13 -116.8,38.6c-33,24.7 -57.5,58.7 -70,98l-62.7,198c-4,13 -6,27 -6,41 0,75 61,136 136,136 16.5,0 30,-13.4 30,-30 0,-14 -9.5,-25.7 -22.5,-29v-20c62.6,-60 162,-60 225,0v20c-13,3 -22.5,15 -22.5,29 0,16.5 13.4,30 30,30 75,0 136,-61 136,-136 0,-14 -2,-27.8 -6,-41zM368.5,180h-33v-52.5c0,-33 -7.8,-65 -22,-88.7 -2.8,-4.6 -5.8,-9 -9,-12.8 37.8,18 64,56.8 64,101.5zM239.5,180v-52.5c0,-29 2,-57 6,-78.5 3.8,-21 8,-30 10.5,-33 2,2.8 6.7,11.8 10.5,33 3.8,21.5 6,49.4 6,78.5v52.5zM280,41c-1.6,-8.4 -3.5,-15.4 -5.6,-21 9.5,5 18,14 25.8,26.5 13,21.5 20,50 20,80.9v52.5h-33v-52.5c0,-32.5 -2.5,-63 -7,-86.3zM207.6,26c-3,3.8 -6,8 -9,12.8 -14,23.8 -22,55 -22,88.7 0,4 3,7.5 7.5,7.5s7.5,-3 7.5,-7.5c0,-30.7 7,-59.4 20,-81 7.4,-12.4 16,-21.4 25.8,-26.5 -2,5.7 -4,12.8 -5.6,21 -4.6,23 -7,53.7 -7,86.3v52.5h-33v-22.5c0,-4 -3,-7.5 -7.5,-7.5s-7.5,3 -7.5,7.5v22.5h-33v-52.5c0,-44.7 26,-83.4 64,-101.5zM151,482c0,8 -6.7,15 -15,15 -66.7,0 -121,-54 -121,-121 0,-12.4 1.8,-24.8 5.6,-36.5l62.7,-198c13.7,-43 42,-78.4 79,-100.5 -21,22.7 -34,53 -34,86.8v332c0,4 3,7.5 7.5,7.5 8,0 15,6.7 15,15zM256,372c-41.5,0 -80.8,14 -112.5,40.3v-217.5h225v217.5c-31.6,-26 -71,-40 -112.5,-40.3zM376,497c-8,0 -15,-6.7 -15,-15s6.7,-15 15,-15c4,0 7.5,-3 7.5,-7.5v-332c0,-33.5 -13,-64 -34,-86.8 37,22 65.5,57 79,100.5l62.7,198c3.7,11.7 5.6,24 5.6,36.5 0,66.7 -54,121 -121,121z" id="path_5"/></svg>