<svg id="vector" xmlns="http://www.w3.org/2000/svg" width="24.0d" height="24.0d" viewBox="0 0 512.0 512.0"><path fill="#7a4235" d="M362,219l-106,74l0,-180z" id="path_0"/><path fill="#95472c" d="M256,113l76,106l-76,74l-106,-74z" id="path_1"/><path fill="#fff5ce" d="M356,219v284l-73,0l-22,-30l-22,30l-83,0l0,-284z" stroke="#000000" stroke-width="12.0" id="path_2"/><path fill="#ff6529" d="M213,219l42,-42l42,42l-42,42z" stroke="#000000" stroke-width="12.0" id="path_3"/><path fill="#7a4235" d="M233,414h45v90h-45z" stroke="#000000" stroke-width="12.0" id="path_4"/><path fill="#ffb833" d="M65,28l21,-21l169,169l-21,21l-21,0l-148,-148z" stroke="#000000" stroke-width="12.0" id="path_5"/><path fill="#ffce53" d="M43,49l21,-21l169,169l-21,21zM277,240l21,-21l169,169l-21,21l-21,0l-148,-148z" stroke="#000000" stroke-width="12.0" id="path_6"/><path fill="#ffb833" d="M256,262l21,-21l169,169l-21,21zM447,28l21,21l-169,169l-21,-21l0,-21l148,-148z" stroke="#000000" stroke-width="12.0" id="path_7"/><path fill="#ffce53" d="M256,177l169,-169l21,21l-169,169zM234,240l21,21l-169,169l-21,-21l0,-21l148,-148z" stroke="#000000" stroke-width="12.0" id="path_8"/><path fill="#ffb833" d="M43,389l169,-169l21,21l-169,169z" stroke="#000000" stroke-width="12.0" id="path_9"/></svg>