<svg id="vector" xmlns="http://www.w3.org/2000/svg" width="24.0d" height="24.0d" viewBox="0 0 512.0 512.0"><path fill="#dd6938" d="m112,489 l19,22 123,-22 123,22 27,-22v-237h-293z" id="path_0"/><path fill="#544f57" d="m379,512h-247l6,-29c4,-24 23,-42 47,-47 4,-0 8,-1 12,-1h115c4,0 8,0 12,1 23,4 42,23 47,47z" id="path_1"/><path fill="#ffcbbe" d="m294,411h-77c-57,0 -104,-46 -104,-104v-147h286v147c-0,57 -46,104 -104,104z" id="path_2"/><path fill="#e28424" d="m422,209v302h-43s0,-157 0,-214 -27,-87 -62,-87l-61,-37 -62,37c-34,0 -62,30 -62,87s0,214 0,214h-43v-302l43,-50h283z" id="path_3"/><path fill="#dd636e" d="m256,345c-14,0 -28,-8 -34,-22 -1,-3 0,-8 4,-10 3,-1 8,0 10,4 3,8 11,13 20,13s16,-5 20,-13c1,-3 6,-5 10,-4s5,6 4,10c-5,13 -19,22 -34,22z" id="path_4"/><path fill="#e490b7" d="M316,314a23,14 0,1 0,46 0a23,14 0,1 0,-46 0z" id="path_5"/><path fill="#e490b7" d="M148,314a23,14 0,1 0,46 0a23,14 0,1 0,-46 0z" id="path_6"/><path fill="#454045" d="m164,0 l-90,57 66,15 61,-37z" id="path_7"/><path fill="#544f57" d="m397,150 l-141,29 -0,0 -0,-0 -54,-11 -86,-18 9,-29 39,-121h183l39,121z" id="path_8"/><path fill="#454045" d="m397,150 l-141,29h-0l-54,-11 -86,-18 9,-29h263z" id="path_9"/><path fill="#dd6938" d="m212,92v35h-89l11,-35z" id="path_10"/><path fill="#e28424" d="m389,127h-177v-35h166z" id="path_11"/><path fill="#544f57" d="m491,150h-471c0,32 26,58 58,58h353c32,0 58,-26 58,-58z" id="path_12"/><path fill="#f4dd45" d="m301,69h-91c-10,0 -19,8 -19,19v42c0,10 8,19 19,19h91c10,0 19,-8 19,-19v-42c0,-10 -8,-19 -19,-19zM294,124h-77v-27h77z" id="path_13"/><path fill="#454045" d="m182,248c-0,0 -0,0 -1,0h-15c-4,0 -7,3 -7,7 0,4 3,7 7,7h3c-0,2 -0,4 -0,6 0,12 6,22 13,22 7,0 13,-10 13,-22s-6,-22 -13,-20z" id="path_14"/><path fill="#454045" d="m347,248 l-16,0c-0,-0 -0,-0 -1,-0 -7,0 -13,10 -13,22s6,22 13,22c7,0 13,-10 13,-22 0,-2 -0,-4 -0,-6h4c4,0 7,-3 7,-7 0,-4 -3,-7 -7,-9z" id="path_15"/><path fill="#eaac9d" d="m267,293h-22c-4,0 -7,-3 -7,-7s3,-7 7,-7h22c4,0 7,3 7,7s-3,7 -7,7z" id="path_16"/><path fill="#f4dd45" d="M256,489m-22,0a22,22 0,1 1,44 0a22,22 0,1 1,-44 0" id="path_17"/></svg>