<svg id="vector" xmlns="http://www.w3.org/2000/svg" width="24.0d" height="24.0d" viewBox="0 0 512.0 512.0"><path fill="#6f6571" d="M450,11c10,-4 22,4 21,15c-4,93 -32,169 -32,169l-128,-80C360,58 422,22 450,11z M61,11c-10,-4 -22,4 -21,15c4,93 32,169 32,169l128,-80C151,58 90,22 61,11z" stroke="#000000" stroke-width="12.0" id="path_0"/><path fill="#c0bcc1" d="M469,17c2,2 3,6 3,9c-4,93 -32,169 -32,169l-15,-9l-55,-52C403,73 445,32 469,17z M42,17c-2,2 -3,6 -3,9c4,93 32,169 32,169l15,-9l55,-52C108,73 66,32 42,17z" stroke="#000000" stroke-width="12.0" id="path_1"/><path fill="#5d5360" d="M208,469a48,32 0,1 0,96 0a48,32 0,1 0,-96 0z" stroke="#000000" stroke-width="12.0" id="path_2"/><path fill="#867e88" d="M504,341c-30,-154 -131,-240 -248,-240S38,186 7,341c0,0 46,13 52,16l-9,37c0,0 79,24 129,51h151c50,-27 129,-51 129,-51l-9,-37C457,354 504,341 504,341z" stroke="#000000" stroke-width="12.0" id="path_3"/><path fill="#6f6571" d="M256,317c-26,0 -50,15 -60,40c-10,24 -20,48 -20,72c0,23 29,57 75,38c3,-1 7,-1 10,0c45,18 75,-15 75,-38c0,-23 -10,-47 -20,-72C306,333 282,317 256,317L256,317z" stroke="#000000" stroke-width="12.0" id="path_4"/><path fill="#c0bcc1" d="M50,394c0,0 79,24 129,51v-0c-2,-5 -4,-11 -4,-16c0,-47 40,-96 40,-144c0,-34 -24,-71 -72,-64c-39,5 -90,34 -136,120c0,0 46,13 52,16L50,394z" stroke="#000000" stroke-width="12.0" id="path_5"/><path fill="#c0bcc1" d="M461,394c0,0 -79,24 -129,51v-0c2,-5 4,-11 4,-16c0,-47 -40,-96 -40,-144c0,-34 24,-71 72,-64c39,5 90,34 136,120c0,0 -46,13 -52,16L461,394z" stroke="#000000" stroke-width="12.0" id="path_6"/><path fill="#4b3f4e" d="M155,325L155,325c-15,0 -28,-12 -28,-28v-16c0,-15 12,-28 28,-28l0,0c15,0 28,12 28,28v16C183,312 171,325 155,325z" stroke="#000000" stroke-width="12.0" id="path_7"/><path fill="#4b3f4e" d="M356,325L356,325c-15,0 -28,-12 -28,-28v-16c0,-15 12,-28 28,-28l0,0c15,0 28,12 28,28v16C384,312 371,325 356,325z" stroke="#000000" stroke-width="12.0" id="path_8"/><path fill="none" d="M155,273h0 M356,273h0" stroke-linecap="round" stroke="#ffffff" stroke-width="24.0" id="path_9"/><path fill="#4b3f4e" d="M255,389c22,0 40,12 40,26c0,14 -17,21 -29,27c-7,3 -15,3 -22,0c-12,-5 -29,-13 -29,-27C215,401 233,389 255,389z" stroke="#000000" stroke-width="12.0" id="path_10"/></svg>