<svg id="vector" xmlns="http://www.w3.org/2000/svg" width="24.0d" height="24.0d" viewBox="0 0 512.0 512.0"><path fill="#e4bbbc" d="m231,328c-3,-20 -20,-35 -41,-35 -8,0 -15,6 -15,15s6,15 15,15c6,0 11,5 11,11l29,23h42v-30z" stroke="#000000" stroke-width="12.0" id="path_0"/><path fill="#ce857a" d="m151,205c-3,-14 2,-29 14,-37 3,-2 6,-6 6,-10 3,-18 10,-36 22,-51 4,-5 6,-11 6,-18v-64c0,-8 -6,-15 -15,-15h-96c-8,0 -15,6 -15,15v467c0,8 6,15 15,15h96c8,0 15,-6 15,-15v-230c0,-6 -2,-12 -5,-17 -3,-5 -9,-8 -15,-9 -0,-0 -1,-0 -2,-0 -12,-3 -23,-13 -26,-27z" stroke="#000000" stroke-width="12.0" id="path_1"/><path fill="#ffd4d5" d="m231,358c-3,-20 -20,-35 -41,-35 -8,0 -15,6 -15,15s6,15 15,15c6,0 11,5 11,11v16c0,3 -1,6 -4,9 -6,5 -7,14 -2,21 3,3 7,5 11,5 3,0 6,-1 9,-3 8,-6 13,-15 15,-25h42v-30z" stroke="#000000" stroke-width="12.0" id="path_2"/><path fill="#926f72" d="m218,161c-7,13 -19,24 -33,30 -6,2 -4,11 2,11h37l35,-0z" stroke="#000000" stroke-width="12.0" id="path_3"/><path fill="#926f72" d="m425,89c-3,-0 -8,0 -11,2 -12,8 -28,10 -43,5l0,0c-13,-4 -28,-7 -44,-7 -60,0 -110,37 -110,82 0,10 2,20 7,30 13,25 41,44 77,50 -23,12 -39,43 -39,78 0,6 0,12 1,18 -14,7 -18,26 -8,38 5,6 11,12 19,17l-21,36c-4,8 3,18 12,16 41,-11 70,-30 98,-56 16,-15 28,-41 28,-70 0,-19 -5,-37 -13,-51 -8,-14 -2,-32 11,-40 28,-15 46,-39 46,-67v-10,-59c-0,-6 -4,-12 -11,-13z" stroke="#000000" stroke-width="12.0" id="path_4"/><path fill="#ad888b" d="m390,240c28,-15 46,-39 46,-67v-10,-59c0,-6 -4,-12 -11,-13 -3,-0 -8,0 -11,2 -12,8 -28,10 -43,5l0,0c-13,-4 -28,-7 -44,-7 -60,0 -110,37 -110,82 0,10 2,20 7,30 13,25 41,44 77,50h39c17,0 34,-4 49,-13 0,-0 0,-0 0,-0z" stroke="#000000" stroke-width="12.0" id="path_5"/><path fill="#ff8e9e" d="m428,91c-4,-2 -9,-1 -13,1 -8,5 -18,8 -28,8 -5,0 -10,-0 -15,-2l0,0c-13,-4 -28,-7 -44,-7 -55,0 -101,30 -108,70 -0,4 -1,8 -1,12 0,10 2,20 7,30 16,-30 55,-52 102,-52 15,0 30,2 44,7l-0,-0c32,10 65,-13 65,-47v-6c0,-5 -3,-10 -8,-12z" stroke="#000000" stroke-width="12.0" id="path_6"/><path fill="#ad888b" d="m390,317c-2,-20 -20,-36 -41,-36 -14,0 -27,7 -34,18 -4,6 -6,14 -6,22 0,33 7,65 21,95 10,22 25,43 43,61 7,7 18,2 18,-7v-138c0,-5 -0,-10 -1,-15z" stroke="#000000" stroke-width="12.0" id="path_7"/><path fill="#ff8e9e" d="M241,209a29,23 0,1 0,58 0a29,23 0,1 0,-58 0z" stroke="#000000" stroke-width="12.0" id="path_8"/></svg>