<svg id="vector" xmlns="http://www.w3.org/2000/svg" width="24.0d" height="24.0d" viewBox="0 0 512.0 512.0"><path fill="#ab7b64" d="M368,256 l-150,22 -100,-22s-50,0 -50,-68 50,-68 50,-68h251z" stroke="#000000" stroke-width="12.0" id="path_0"/><path fill="none" d="M173,171 l-101,0 M222,212 l-145,0 M252,164 l-30,0 M310,212 l-40,0" stroke-linecap="round" stroke="#000000" stroke-width="16.0" id="path_1"/><path fill="#ab7b64" d="M300,392h-243s-50,1 -50,-67 50,-68 50,-68h243z" stroke="#000000" stroke-width="12.0" id="path_2"/><path fill="none" d="M60,305 l-47,0 M109,349 l-92,0 M244,349 l-55,0 M237,305 l-110,0" stroke-linecap="round" stroke="#000000" stroke-width="16.0" id="path_3"/><path fill="#ab7b64" d="m436,256h-140v136l141,-0z" stroke="#000000" stroke-width="12.0" id="path_4"/><path fill="#f3d69e" d="M300,324m-68,0a68,68 0,1 1,136 0a68,68 0,1 1,-136 0 M368,188m-68,0a68,68 0,1 1,136 0a68,68 0,1 1,-136 0 M436,324m-68,0a68,68 0,1 1,136 0a68,68 0,1 1,-136 0" stroke="#000000" stroke-width="12.0" id="path_5"/><path fill="#000000" d="m425,367c-0,0 -1,-0 -2,-0 -19,-5 -32,-23 -32,-43 0,-16 8,-30 21,-38 3,-2 8,-1 10,2 2,3 1,8 -2,10 -9,5 -14,15 -14,26 0,13 8,25 21,29 4,1 6,5 5,9 -1,3 -4,5 -7,5z" id="path_6"/><path fill="#000000" d="m459,361c-2,0 -4,-1 -5,-3 -2,-3 -1,-8 1,-10 7,-5 12,-14 12,-24 0,-10 -5,-19 -13,-25 -3,-2 -4,-7 -2,-10 2,-3 7,-4 10,-2 12,8 20,22 20,37 0,14 -6,27 -18,36 -1,1 -3,1 -4,1z" id="path_7"/><path fill="#000000" d="m334,212c-2,0 -5,-1 -6,-4 -3,-6 -4,-12 -4,-19 0,-25 20,-45 45,-45 4,0 7,3 7,7s-3,7 -7,7c-16,0 -30,13 -30,30 0,4 1,9 3,13 1,3 0,8 -3,10 -1,0 -2,0 -3,0z" id="path_8"/><path fill="#000000" d="m368,233c-4,0 -9,-0 -14,-2 -4,-1 -6,-5 -4,-9 1,-4 5,-6 9,-4 3,1 6,1 9,1 16,0 30,-13 30,-30 0,-4 3,-7 7,-7s7,3 7,7c0,25 -20,45 -45,45z" id="path_9"/><path fill="#000000" d="m281,364c-1,0 -2,-0 -3,-1 -13,-8 -22,-23 -22,-39 0,-7 1,-14 5,-20 1,-3 6,-5 10,-3 3,1 5,6 3,10 -2,4 -3,9 -3,13 0,10 5,20 14,26 3,2 4,6 2,10 -1,2 -3,3 -6,3z" id="path_10"/><path fill="#000000" d="m315,366c-3,0 -5,-1 -7,-4 -1,-3 0,-8 4,-9 11,-4 18,-15 18,-28 0,-16 -13,-30 -30,-30 -4,0 -7,-3 -7,-7s3,-7 7,-7c25,0 45,20 45,45 0,18 -11,34 -27,42 -1,0 -2,0 -3,0z" id="path_11"/></svg>