<svg id="vector" xmlns="http://www.w3.org/2000/svg" width="24.0d" height="24.0d" viewBox="0 0 512.0 512.0"><path fill="#965a50" d="M232,432h48v72h-48z" stroke="#000000" stroke-width="12.0" id="path_0"/><path fill="#afd755" d="M317,256H194l-53,125c-2,5 1,11 7,11h216c5,0 9,-5 7,-11L317,256zM356,392H155l-21,36c-3,5 0,12 7,12h114h114c6,0 10,-6 7,-12L356,392z" stroke="#000000" stroke-width="12.0" id="path_1"/><path fill="#afd755" d="M248,78l-91,189c-2,5 1,11 7,11h183c6,0 9,-6 7,-11L263,78C260,72 251,72 248,78z" stroke="#000000" stroke-width="12.0" id="path_2"/><path fill="#ffdc64" d="M232,223m-16,0a16,16 0,1 1,32 0a16,16 0,1 1,-32 0 M304,336m-16,0a16,16 0,1 1,32 0a16,16 0,1 1,-32 0 M199,392m-16,0a16,16 0,1 1,32 0a16,16 0,1 1,-32 0" stroke="#000000" stroke-width="12.0" id="path_3"/><path fill="#e6646e" d="M312,191m-16,0a16,16 0,1 1,32 0a16,16 0,1 1,-32 0 M208,151m-16,0a16,16 0,1 1,32 0a16,16 0,1 1,-32 0 M175,320m-16,0a16,16 0,1 1,32 0a16,16 0,1 1,-32 0" stroke="#000000" stroke-width="12.0" id="path_4"/><path fill="#ffdc64" d="M232,63l-4,25c-0,2 2,4 5,3l22,-11l22,11c2,1 5,-0 5,-3l-4,-25l18,-17c2,-2 0,-5 -1,-5l-25,-3l-11,-22c-1,-2 -4,-2 -6,0l-11,22l-25,3c-2,0 -3,3 -1,5L232,63z" stroke="#000000" stroke-width="12.0" id="path_5"/></svg>