<svg id="vector" xmlns="http://www.w3.org/2000/svg" width="24.0d" height="24.0d" viewBox="0 0 512.0 512.0"><path fill="#ff6363" d="m359,455 l-25,-19 -20,22 -20,-22 -20,22 -20,-22 -20,22 -20,-22 -20,22 -20,-22 -20,22 -20,-22 -20,22 -20,-22 -20,22 -20,-22 -25,19v-445l25,19 20,-22 20,22 20,-22 20,22 20,-22 20,22 20,-22 20,22 20,-22 20,22 20,-22 20,22 20,-22 20,22 25,-19z" stroke="#000000" stroke-width="12.0" id="path_0"/><path fill="#ff9696" d="m25,72h338v319h-338z" stroke="#000000" stroke-width="12.0" id="path_1"/><path fill="#fff9eb" d="M89,232a105,105 0,1 0,211 0a105,105 0,1 0,-211 0z" stroke="#000000" stroke-width="16.0" id="path_2"/><path fill="#cf7a15" d="m305,277h-220c-12,0 -22,-9 -22,-22v-0c0,-37 30,-67 67,-67h130c37,0 67,30 67,67v0c0,12 -10,22 -22,22z" stroke="#000000" stroke-width="12.0" id="path_3"/><path fill="#a1550a" d="M152,187v26c0,7 -5,13 -12,12s-12,-5 -12,-12v-26zM207,187v34c0,7 -5,12 -12,12s-12,-5 -12,-12v-34zM262,187v26c0,7 -5,12 -12,12s-12,-5 -12,-12v-26z" stroke="#000000" stroke-width="12.0" id="path_4"/><path fill="#fff4db" d="m236,492c78,17 161,17 240,0 8,-1 12,-11 8,-18 -13,-26 -42,-79 -57,-79 -12,0 -25,23 -36,23s-51,-95 -75,-93c-19,1 -71,110 -89,150 -3,7 1,16 9,17z" stroke="#000000" stroke-width="12.0" id="path_5"/><path fill="none" d="M311,377h0M353,446h0M293,465h0M434,456h0" stroke-linecap="round" stroke="#000000" stroke-width="16.0" id="path_6"/></svg>