<svg id="vector" xmlns="http://www.w3.org/2000/svg" width="24.0d" height="24.0d" viewBox="0 0 512.0 512.0"><path fill="#93d8e4" d="m376.5,244.3h-241l11.7,197c0,1.5 0.7,3 1.7,4 6.3,6.5 33,28.2 107,28.2s100.6,-21.6 107,-28.2c1,-1 1.6,-2.4 1.7,-4z" stroke="#000000" stroke-width="12.0" id="path_0"/><path fill="#f1f1f4" d="m363,445.3c-6.3,6.5 -33,28.2 -107,28.2s-100.6,-21.6 -107,-28.2c-0,-0 -0,-0 -0,-0l1.6,28c0,1.4 0.6,2.8 1.7,3.8 6,6.3 32,27.3 103.7,27.3s97.5,-21 103.7,-27.3c1,-1 1.6,-2.4 1.7,-3.8l1.6,-28c-0,0 -0,0 -0,0z" stroke="#000000" stroke-width="12.0" id="path_1"/><path fill="#c8ea73" d="m180.6,8.2c-11.3,3 -17.8,14.8 -14.3,26l40.5,130.3c9,-2.3 13.2,-6.7 28.3,-6.7 0.4,0 0.8,0 1.3,0l-30.3,-134.3c-2.5,-11.4 -14,-18.4 -25.4,-15.4z" stroke="#000000" stroke-width="12.0" id="path_2"/><path fill="#f1f1f4" d="m379.8,38.3h-170.3l27,119.5c-0.4,-0 -0.8,-0 -1.3,-0 -15,0 -19.2,4.3 -28.3,6.7l-39.2,-126.3h-35.4c-7.4,0 -13.4,6 -13.4,13.4v179c0,7.4 6,13.4 13.4,13.4h247.7c7.4,0 13.4,-6 13.4,-13.4v-179c0,-7.4 -6,-13.4 -13.4,-13.4z" stroke="#000000" stroke-width="12.0" id="path_3"/><path fill="#fff9e2" d="m320,121.5c-0.5,-0 -1,-0 -1.8,-0 -20.7,0 -20.7,8.2 -41.5,8.2 -20.7,0 -20.7,-8.2 -41.5,-8.2 -2.5,0 -4.8,0 -6.8,0.3l8,36c-0.4,-0 -0.8,-0 -1.3,-0 -15,0 -19.2,4.3 -28.3,6.7l-10.8,-35c-0.7,0 -1.4,0 -2.2,0 -0,0 -0.3,-0 -0.5,-0 -18.3,-0 -33.2,14.6 -33.2,32.9v15.7c0,13.6 11,24.6 24.6,24.6h142.7c13.6,0 24.6,-11 24.6,-24.6v-24c-0,-17.8 -14,-32.4 -32,-33z" stroke="#000000" stroke-width="12.0" id="path_4"/><path fill="#c6c1c8" d="m193,129.7c0,0 0.3,0 0.5,0 0.7,0 1.5,-0 2.2,-0l-15.4,-49.8c-11.6,2 -20.5,12 -20.5,24.3v58.4c0,-18.3 15,-33 33.2,-33z" stroke="#000000" stroke-width="12.0" id="path_5"/><path fill="#c6c1c8" d="m327.3,79.5h-108.5l9.5,42.2c2,-0.2 4.2,-0.3 6.8,-0.3 20.7,0 20.7,8.2 41.5,8.2 20.7,0 20.7,-8.2 41.5,-8.2 0.6,0 1.2,0 1.8,0 17.7,0.4 32,15 32,32.9v-50c0,-13.6 -11,-24.6 -24.6,-24.6z" stroke="#000000" stroke-width="12.0" id="path_6"/></svg>