<svg id="vector" xmlns="http://www.w3.org/2000/svg" width="24.0d" height="24.0d" viewBox="0 0 502.0 502.0"><path fill="#ffffff" d="m467,324 l-99,-134c-20,-27 -45,-49 -75,-65l25,-9c3,-1 5,-4 6,-8l4,-31c0,-3 -1,-7 -3,-9l-13,-10c-8,-6 -16,-11 -25,-16l1,-17c0,-9 -10,-14 -17,-7l-12,12c-57,-20 -123,-14 -177,19l-70,44v323c0,42 34,76 76,76l91,-120c7,-9 21,-10 30,-2 13,13 30,24 49,30l122,41c6,22 28,36 51,33l14,-2c27,-4 47,-27 47,-55v-15c0,-27 -8,-53 -24,-74z" stroke="#000000" stroke-width="12.0" id="path_0"/><path fill="#8aa8bd" d="m291,160c-2,7 3,15 11,13l42,-10c-13,-12 -27,-24 -43,-33zM467,324 L449,331c-17,6 -28,25 -25,43l1,11c1,10 -7,19 -17,18 -14,-1 -25,7 -29,20l2,-76c0,-19 11,-37 29,-47l28,-15 -18,-25 -39,21c-22,11 -36,33 -39,58l-9,82 47,16c6,22 28,36 51,33l14,-2c27,-4 47,-27 47,-55v-15c0,-27 -8,-53 -24,-74zM205,162c-13,-13 -18,-32 -19,-45 -1,-8 3,-17 13,-22l-10,-79c-16,-0 -40,2 -61,9s-39,16 -61,30l60,63 25,109c12,51 16,103 13,156l11,-15c6,-8 18,-10 26,-4l8,-69c3,-31 3,-64 -1,-95zM302,275 L297,277c-22,10 -39,30 -44,55l-13,57c7,4 20,8 44,16l11,-75c1,-12 6,-24 13,-34l4,-7c5,-8 -3,-19 -12,-14zM318,115c3,-1 5,-4 6,-8l4,-31c0,-3 -1,-7 -3,-9 0,0 -21,-17 -38,-26 -0,19 -3,31 -8,43l-11,29c9,3 18,7 27,12zM109,327c-1,-32 -5,-64 -11,-96l-15,-78 -72,-61v58l40,27 9,73c5,37 6,75 4,113l-7,121c9,4 19,6 30,6l27,-36v-0z" stroke="#000000" stroke-width="12.0" id="path_1"/><path fill="#000000" d="M321,229c-6,-4 -14,-5 -22,-3l-13,4c-12,4 -18,-15 -6,-19l13,-4c13,-4 27,-2 38,5 11,7 0,24 -11,16z" id="path_2"/></svg>